<svg width="23" height="24" viewBox="0 0 23 24" fill="none" xmlns="http://www.w3.org/2000/svg">
<path opacity="0.2" d="M21.422 15.6908C21.9201 21.2767 17.48 22.6016 11.9015 23.0991C6.32303 23.5965 1.71857 23.0781 1.22048 17.4921C0.722386 11.9062 4.84088 6.97468 10.4194 6.47725C15.9979 5.97982 20.924 10.1049 21.422 15.6908Z" fill="#F7F7EE"/>
<path fill-rule="evenodd" clip-rule="evenodd" d="M19.9284 4.78273C18.9406 6.5104 17.8131 7.54784 17.232 7.95104C17.1572 8.00289 17.1529 8.11574 17.2247 8.17157C17.9688 8.75029 19.3451 10.1614 20.1321 12.1464L20.5877 10.1334C20.7651 9.34925 20.7663 8.53553 20.5912 7.75095L19.9284 4.78273Z" fill="#E8787D"/>
<path opacity="0.2" fill-rule="evenodd" clip-rule="evenodd" d="M8.31921 6.8532L4.59283 3.54318C4.37923 3.35344 4.04267 3.42918 3.9311 3.69208L2.63506 6.74631C2.321 7.48641 2.17517 8.28714 2.20811 9.09069L2.31427 11.6803C1.61365 13.1324 1.29719 14.8249 1.46251 16.6789C4.59999 19.6616 6.96943 18.1474 8.92766 16.896C9.76815 16.3588 10.5329 15.8701 11.2501 15.8062C11.9831 15.7408 12.8585 16.3552 13.8322 17.0385C16.0306 18.5813 18.7297 20.4755 21.4208 15.6895C21.293 14.2563 20.8737 12.9192 20.2266 11.7316L20.5887 10.1318C20.7661 9.34765 20.7673 8.53392 20.5921 7.74934L19.869 4.51049C19.8067 4.23173 19.4894 4.09631 19.245 4.24425L14.6802 7.00777C13.3542 6.54042 11.9095 6.34302 10.4181 6.47601C9.68725 6.54118 8.98561 6.66853 8.31921 6.8532Z" fill="#ACB0AF"/>
<path fill-rule="evenodd" clip-rule="evenodd" d="M3.82212 3.94517C4.48166 5.82409 5.40362 7.04915 5.90247 7.55107C5.9666 7.61561 5.95046 7.7274 5.86977 7.76932C5.03302 8.204 3.42331 9.3436 2.29072 11.155L2.20614 9.09161C2.1732 8.28807 2.31902 7.48734 2.63308 6.74723L3.82212 3.94517Z" fill="#E8787D"/>
<path fill-rule="evenodd" clip-rule="evenodd" d="M12.1196 6.46454C12.1185 6.7918 12.1361 7.15197 12.1709 7.54379C12.4206 8.39281 12.5004 9.1706 12.5672 9.8215C12.6973 11.0893 12.778 11.8757 13.9679 11.7694C15.6803 11.6166 15.5379 8.66425 14.7176 6.98528L14.6823 7.0067C13.8674 6.71931 13.0075 6.53391 12.1196 6.46454Z" fill="#7C7575"/>
<path fill-rule="evenodd" clip-rule="evenodd" d="M11.2222 6.52562C11.1883 6.85095 11.1324 7.20696 11.056 7.59255C10.7171 8.40998 10.5547 9.17476 10.4187 9.81478C10.154 11.0614 9.98979 11.8346 8.818 11.6016C7.13167 11.2662 7.58877 8.34553 8.58379 6.76412L8.61729 6.78967C9.45793 6.59146 10.3323 6.4994 11.2222 6.52562Z" fill="#7C7575"/>
<ellipse rx="1.76875" ry="1.77111" transform="matrix(0.996037 -0.0889355 0.0886976 0.996059 7.1227 15.1076)" fill="#222222"/>
<ellipse rx="1.76875" ry="1.77111" transform="matrix(-0.996037 0.0889355 0.0886976 0.996059 15.5055 15.308)" fill="#222222"/>
<ellipse rx="0.510974" ry="0.511653" transform="matrix(0.996037 -0.0889355 0.0886976 0.996059 7.7992 14.731)" fill="#F7F7EE"/>
<ellipse rx="0.510974" ry="0.511653" transform="matrix(-0.996037 0.0889355 0.0886976 0.996059 14.7742 15.0563)" fill="#F7F7EE"/>
<path d="M21.422 15.6908C21.9201 21.2767 17.48 22.6016 11.9015 23.0991C6.32303 23.5965 1.71857 23.0781 1.22048 17.4921C0.722386 11.9062 4.84088 6.97468 10.4194 6.47725C15.9979 5.97982 20.924 10.1049 21.422 15.6908Z" fill="#DFDFDF"/>
<path fill-rule="evenodd" clip-rule="evenodd" d="M8.31155 6.84655L4.59283 3.54334C4.37923 3.35361 4.04267 3.42934 3.93111 3.69225L2.63506 6.74647C2.321 7.48657 2.17518 8.2873 2.20812 9.09085L2.29839 11.2928C1.4657 12.7793 1.06885 14.5493 1.24474 16.5219C4.40765 19.5287 6.89918 18.0442 8.93091 16.8336C9.77961 16.3279 10.5481 15.87 11.2517 15.8072C11.9848 15.7419 12.8602 16.3562 13.8338 17.0395C16.0323 18.5823 18.7314 20.4766 21.4224 15.6906C21.2945 14.2565 20.8748 12.9186 20.2271 11.7306L20.5889 10.1318C20.7664 9.34769 20.7676 8.53397 20.5924 7.74939L19.8692 4.51053C19.807 4.23177 19.4896 4.09635 19.2452 4.24429L14.6799 7.00814C13.3545 6.54127 11.9104 6.34414 10.4198 6.47706C9.68926 6.5422 8.98419 6.66674 8.31155 6.84655Z" fill="#ACB0AF"/>
<path fill-rule="evenodd" clip-rule="evenodd" d="M19.9284 4.78273C18.9406 6.5104 17.8131 7.54784 17.232 7.95104C17.1572 8.00289 17.1529 8.11574 17.2247 8.17157C17.9688 8.75029 19.3451 10.1614 20.1321 12.1464L20.5877 10.1334C20.7651 9.34925 20.7663 8.53553 20.5912 7.75095L19.9284 4.78273Z" fill="#E8787D"/>
<path fill-rule="evenodd" clip-rule="evenodd" d="M3.82212 3.94517C4.48166 5.82409 5.40362 7.04915 5.90247 7.55107C5.9666 7.61561 5.95046 7.7274 5.86977 7.76932C5.03302 8.204 3.42331 9.3436 2.29072 11.155L2.20614 9.09161C2.1732 8.28807 2.31902 7.48734 2.63308 6.74723L3.82212 3.94517Z" fill="#E8787D"/>
<path fill-rule="evenodd" clip-rule="evenodd" d="M12.1196 6.46454C12.1185 6.7918 12.1361 7.15197 12.1709 7.54379C12.4206 8.39281 12.5004 9.1706 12.5672 9.8215C12.6973 11.0893 12.778 11.8757 13.9679 11.7694C15.6803 11.6166 15.5379 8.66425 14.7176 6.98528L14.6823 7.0067C13.8674 6.71931 13.0075 6.53391 12.1196 6.46454Z" fill="#7C7575"/>
<path fill-rule="evenodd" clip-rule="evenodd" d="M11.2222 6.52562C11.1883 6.85095 11.1324 7.20696 11.056 7.59255C10.7171 8.40998 10.5547 9.17476 10.4187 9.81478C10.154 11.0614 9.98979 11.8346 8.818 11.6016C7.13167 11.2662 7.58877 8.34553 8.58379 6.76412L8.61729 6.78967C9.45793 6.59146 10.3323 6.4994 11.2222 6.52562Z" fill="#7C7575"/>
<ellipse rx="1.76875" ry="1.77111" transform="matrix(0.996037 -0.0889355 0.0886976 0.996059 7.1227 15.1076)" fill="#222222"/>
<ellipse rx="1.76874" ry="1.77113" transform="matrix(1 -2.12726e-09 -2.12726e-09 -1 15.8637 15.1442)" fill="#222222"/>
<ellipse rx="0.510974" ry="0.511653" transform="matrix(0.996037 -0.0889355 0.0886976 0.996059 7.33827 14.2434)" fill="#F7F7EE"/>
<ellipse rx="0.510974" ry="0.511653" transform="matrix(-0.996037 0.0889355 0.0886976 0.996059 15.9078 14.2433)" fill="#F7F7EE"/>
<path d="M10.7771 18.3546C11.1141 18.598 11.5789 18.5565 11.8676 18.2573L12.7127 17.3813C12.8738 17.2143 12.7411 16.937 12.5101 16.9576L9.91508 17.1893C9.684 17.2099 9.60248 17.5064 9.79054 17.6422L10.7771 18.3546Z" fill="#222222"/>
<path d="M12.4356 19.1223C12.3489 19.5636 12.0684 19.9202 11.7134 20.0899C11.5261 20.1793 11.3153 20.2077 11.1093 20.1879C10.8999 20.1678 10.6635 20.1024 10.4929 19.943C10.4344 19.8885 10.4754 19.7787 10.5494 19.8103C10.7298 19.8874 10.8986 19.975 11.0898 19.9995C11.2831 20.0242 11.4771 19.9972 11.6566 19.9252C11.9966 19.7888 12.2594 19.4829 12.4132 19.1123C12.4196 19.0968 12.439 19.1051 12.4356 19.1223Z" fill="#1D1D1B"/>
<g clip-path="url(#clip0)">
<path d="M6.09643 5.568L1.04801 3.89177C1.048 3.89177 1.048 3.89176 1.04799 3.89176C0.916302 3.84733 0.82997 3.73169 0.82997 3.60362C0.82997 3.47555 0.916294 3.35991 1.04797 3.31548C1.04798 3.31547 1.048 3.31547 1.04801 3.31546L10.9116 0.0394995C10.9116 0.0394921 10.9116 0.0394847 10.9116 0.0394774C10.9872 0.0146919 11.0697 0.0146919 11.1452 0.0394774C11.1453 0.0394847 11.1453 0.0394921 11.1453 0.0394995L21.0089 3.31546C21.0089 3.31547 21.0089 3.31548 21.0089 3.31549C21.1406 3.35992 21.2269 3.47556 21.2269 3.60362C21.2269 3.73169 21.1406 3.84735 21.0089 3.89177L18.7528 4.64195L17.7763 4.96627L15.9605 5.568H6.09643Z" fill="#637CF2" stroke="black" stroke-width="0.0417765"/>
<path fill-rule="evenodd" clip-rule="evenodd" d="M5.51074 4.13624V8.16863H5.51085C5.51217 7.5615 7.8063 7.06941 10.6361 7.06941C13.4554 7.06941 15.743 7.55788 15.7612 8.16192V4.13624C15.7612 3.52772 13.4658 3.0365 10.636 3.0365C7.8061 3.0365 5.51074 3.52772 5.51074 4.13624Z" fill="#506094"/>
<path d="M18.3129 5.57824C18.1104 5.57824 17.9463 5.41412 17.9463 5.21166V2.80689C17.9463 2.60443 18.1104 2.44031 18.3129 2.44031C18.5153 2.44031 18.6795 2.60443 18.6795 2.80689V5.21166C18.6795 5.41412 18.5153 5.57824 18.3129 5.57824Z" fill="#EDC100"/>
<path d="M17.6318 5.5348V6.63454C17.6318 6.837 17.7957 7.00112 17.9979 7.00112H18.7301C18.9323 7.00112 19.0962 6.837 19.0962 6.63454V5.5348C19.0962 5.12988 18.7684 4.80164 18.364 4.80164C17.9596 4.80164 17.6318 5.12988 17.6318 5.5348Z" fill="#F1D24B"/>
</g>
<path d="M4.28098 3.50355L8.33052 7.10062L2.05119 12.8301L1.89627 9.05106C1.86333 8.24751 2.00915 7.44678 2.32321 6.70668L3.61926 3.65246C3.73082 3.38955 4.06739 3.31382 4.28098 3.50355Z" fill="#ACB0AF"/>
<path fill-rule="evenodd" clip-rule="evenodd" d="M3.96868 4.18316C4.62823 6.06225 5.55026 7.2874 6.04913 7.78935C6.11327 7.85389 6.09712 7.96568 6.01643 8.0076C5.17979 8.44223 3.57037 9.5816 2.4378 11.3926L2.35318 9.32847C2.32024 8.52492 2.46606 7.72419 2.78012 6.98408L3.96868 4.18316Z" fill="#E8787D"/>
<defs>
<clipPath id="clip0">
<rect width="21.2248" height="8.18653" fill="white" transform="translate(0.0256348)"/>
</clipPath>
</defs>
</svg>
