<svg width="31" height="31" viewBox="0 0 31 31" fill="none" xmlns="http://www.w3.org/2000/svg">
<path d="M23.2644 28.455C30.4376 24.3136 32.8953 15.1412 28.7538 7.96804C24.6124 0.794846 15.4401 -1.66286 8.26687 2.47859C1.09368 6.62004 -1.36403 15.7924 2.77742 22.9656C6.91886 30.1388 16.0912 32.5964 23.2644 28.455Z" fill="#4F6EFD"/>
<path fill-rule="evenodd" clip-rule="evenodd" d="M3.80691 24.7216C3.45211 24.2507 3.12158 23.754 2.818 23.2321C2.44829 22.5965 2.13116 21.945 1.86523 21.2828C2.27333 21.0471 2.86897 20.705 3.70128 20.228C3.92053 20.1024 4.35899 19.8497 4.67564 19.6664C4.99232 19.4831 5.58026 19.1439 5.98217 18.9127L6.4131 18.6645C6.3963 18.6248 6.37991 18.5856 6.36397 18.5467C5.95812 17.4695 5.74416 16.1194 5.78587 14.898C5.83372 13.496 6.09559 12.4046 6.67746 11.1821C7.49616 9.4619 8.6422 8.15958 10.2871 7.08012C11.629 6.19943 13.0987 5.61153 14.4074 5.4317C14.9931 5.35126 16.2014 5.35081 16.8079 5.43083C18.4113 5.64242 19.9738 6.38299 21.4135 7.61377C21.6647 7.82843 21.9971 8.1418 22.1524 8.3102C22.8609 9.07867 23.6788 10.215 23.9965 10.8723C24.289 11.4778 24.2894 12.0905 23.9975 12.6861C23.7733 13.1437 23.46 13.4257 22.6673 13.883C22.3019 14.0939 21.6044 14.4959 21.1172 14.7764C18.838 16.0887 18.4415 16.3173 17.5298 16.8439C15.9695 17.7452 13.6591 19.0763 13.3223 19.268C13.1518 19.3651 12.8261 19.5535 12.5986 19.6868L12.1848 19.929L12.355 20.1041C12.7631 20.5242 13.5072 20.9864 14.1879 21.2425C14.9852 21.5426 15.1991 21.5779 16.2233 21.5779C17.0704 21.5779 17.1624 21.5698 17.5962 21.4566C18.1704 21.307 18.6056 21.1413 19.1737 20.8562C20.4666 20.2074 21.414 19.2183 22.1761 17.7216C22.3857 17.3101 22.4794 17.1788 22.7361 16.9369C23.3603 16.3487 24.0618 16.1389 24.8129 16.3157C26.0638 16.6103 26.7188 17.6691 26.3454 18.7928C25.7649 20.5393 23.9131 22.7775 22.0251 24.0144C21.5691 24.3131 20.5895 24.8169 19.9878 25.0619C17.8869 25.9178 15.708 26.0858 13.59 25.5554C12.7417 25.3429 11.7704 24.9459 11.0589 24.5209C10.0731 23.932 8.9763 22.9619 8.34166 22.1177L8.33731 22.1119L8.30732 22.1292C6.74703 23.0305 4.43668 24.3617 4.09987 24.5534C4.02501 24.5959 3.9202 24.6562 3.80691 24.7216ZM18.1053 10.4962C17.5342 10.1113 16.9444 9.85373 16.2454 9.68406C15.238 9.43953 14.0937 9.65792 12.9649 10.3102C11.4643 11.1774 10.6015 12.2297 10.2194 13.6593C10.0609 14.2518 10.0193 15.3422 10.1306 15.9814C10.2079 16.4257 10.2478 16.5117 10.3421 16.4369C10.3911 16.3979 11.0713 16.0043 12.9238 14.9427C13.1429 14.8171 13.5814 14.5644 13.8981 14.381C14.2147 14.1978 14.8027 13.8586 15.2046 13.6274C15.6066 13.3961 16.2742 13.0113 16.6883 12.7722C17.1024 12.5331 17.8 12.1309 18.2384 11.8787C18.6768 11.6263 19.0516 11.4041 19.0712 11.3849C19.1201 11.3367 18.4838 10.7513 18.1053 10.4962Z" fill="white"/>
</svg>
