<svg width="83" height="84" viewBox="0 0 83 84" fill="none" xmlns="http://www.w3.org/2000/svg">
<g filter="url(#filter0_d_1651_47097)">
<rect x="6" y="7.27032" width="63" height="63" rx="8" fill="#C9D2FF"/>
<g clip-path="url(#clip0_1651_47097)">
<path d="M34.375 34.3953V36.2703H40.625V34.3953C40.625 32.6688 39.2266 31.2703 37.5 31.2703C35.7734 31.2703 34.375 32.6688 34.375 34.3953ZM31.875 36.2703V34.3953C31.875 31.2899 34.3945 28.7703 37.5 28.7703C40.6055 28.7703 43.125 31.2899 43.125 34.3953V36.2703H43.75C45.1289 36.2703 46.25 37.3914 46.25 38.7703V46.2703C46.25 47.6492 45.1289 48.7703 43.75 48.7703H31.25C29.8711 48.7703 28.75 47.6492 28.75 46.2703V38.7703C28.75 37.3914 29.8711 36.2703 31.25 36.2703H31.875Z" fill="#333333"/>
</g>
</g>
<defs>
<filter id="filter0_d_1651_47097" x="0" y="0.270325" width="83" height="83" filterUnits="userSpaceOnUse" color-interpolation-filters="sRGB">
<feFlood flood-opacity="0" result="BackgroundImageFix"/>
<feColorMatrix in="SourceAlpha" type="matrix" values="0 0 0 0 0 0 0 0 0 0 0 0 0 0 0 0 0 0 127 0" result="hardAlpha"/>
<feOffset dx="4" dy="3"/>
<feGaussianBlur stdDeviation="5"/>
<feColorMatrix type="matrix" values="0 0 0 0 0.391667 0 0 0 0 0.391667 0 0 0 0 0.391667 0 0 0 0.15 0"/>
<feBlend mode="normal" in2="BackgroundImageFix" result="effect1_dropShadow_1651_47097"/>
<feBlend mode="normal" in="SourceGraphic" in2="effect1_dropShadow_1651_47097" result="shape"/>
</filter>
<clipPath id="clip0_1651_47097">
<rect width="20" height="20" fill="white" transform="translate(27.5 28.7703)"/>
</clipPath>
</defs>
</svg>
