<svg width="276" height="72" viewBox="0 0 276 72" fill="none" xmlns="http://www.w3.org/2000/svg">
<g clip-path="url(#clip0_1522_18725)">
<line opacity="0.3" x1="76.2144" y1="47.5" x2="44.2144" y2="47.5" stroke="#4F6EFD" stroke-width="3" stroke-linecap="round" stroke-dasharray="1 6"/>
<line opacity="0.3" x1="157.214" y1="47.5" x2="125.214" y2="47.5" stroke="#4F6EFD" stroke-width="3" stroke-linecap="round" stroke-dasharray="1 6"/>
<line opacity="0.3" x1="225.214" y1="47.5" x2="193.214" y2="47.5" stroke="#4F6EFD" stroke-width="3" stroke-linecap="round" stroke-dasharray="1 6"/>
<g filter="url(#filter0_d_1522_18725)">
<rect y="18" width="54.0002" height="54" rx="7" fill="#A4B4FF"/>
<path d="M23.875 40.625V42.5H30.125V40.625C30.125 38.8984 28.7266 37.5 27 37.5C25.2734 37.5 23.875 38.8984 23.875 40.625ZM21.375 42.5V40.625C21.375 37.5195 23.8945 35 27 35C30.1055 35 32.625 37.5195 32.625 40.625V42.5H33.25C34.6289 42.5 35.75 43.6211 35.75 45V52.5C35.75 53.8789 34.6289 55 33.25 55H20.75C19.3711 55 18.25 53.8789 18.25 52.5V45C18.25 43.6211 19.3711 42.5 20.75 42.5H21.375Z" fill="white"/>
</g>
<rect x="74" y="18" width="54.0002" height="54" rx="7" fill="url(#paint0_linear_1522_18725)"/>
<path d="M125.341 14.4784C125.341 14.4784 122.207 17.2192 115.95 17.9999H98.9299L99.9043 15.6522H103.232C103.232 15.6522 103.654 13.551 104.852 10.834C105.973 8.27543 107.78 5.17072 110.568 2.75271C111.824 1.65509 113.286 0.704533 114.97 0L125.341 14.4784Z" fill="#F69423"/>
<path d="M125.34 14.4784C125.34 14.4784 122.206 17.2192 115.95 18H106.683C115.193 12.7882 125.34 14.4784 125.34 14.4784Z" fill="#C26829"/>
<path d="M107.997 14.2145C107.997 14.2145 108.66 9.10268 104.851 10.834C105.972 8.27541 107.78 5.1707 110.567 2.75269C110.567 2.75269 110.127 7.87637 117.17 9.93049L107.997 14.2145Z" fill="#FFB52B"/>
<path d="M76.6599 14.4784C76.6599 14.4784 79.7938 17.2192 86.0503 17.9999H103.071L102.096 15.6522H98.7687C98.7687 15.6522 98.3464 13.551 97.1488 10.834C96.0279 8.27543 94.2203 5.17072 91.4324 2.75271C90.1764 1.65509 88.7149 0.704533 87.0306 0L76.6599 14.4784Z" fill="#F69423"/>
<path d="M76.6604 14.4784C76.6604 14.4784 79.7943 17.2192 86.0508 18H95.3179C86.8078 12.7882 76.6604 14.4784 76.6604 14.4784Z" fill="#C26829"/>
<path d="M94.0032 14.2145C94.0032 14.2145 93.3398 9.10268 97.149 10.834C96.0282 8.27541 94.2206 5.1707 91.4327 2.75269C91.4327 2.75269 91.8729 7.87637 84.8302 9.93049L94.0032 14.2145Z" fill="#FFB52B"/>
<path d="M105.516 18L105.472 19.418V72H96L96.319 20.282L96.337 18H105.516Z" fill="#F69423"/>
<path d="M105.516 18L105.472 19.418L96.3193 20.282L96.3373 18H105.516Z" fill="#FFB52B"/>
<rect x="222" y="18" width="54.0002" height="54" rx="7" fill="url(#paint1_linear_1522_18725)"/>
<path d="M273.341 14.4784C273.341 14.4784 270.207 17.2192 263.95 17.9999H246.93L247.904 15.6522H251.232C251.232 15.6522 251.654 13.551 252.852 10.834C253.973 8.27543 255.78 5.17072 258.568 2.75271C259.824 1.65509 261.286 0.704533 262.97 0L273.341 14.4784Z" fill="#F69423"/>
<path d="M273.34 14.4784C273.34 14.4784 270.206 17.2192 263.95 18H254.683C263.193 12.7882 273.34 14.4784 273.34 14.4784Z" fill="#C26829"/>
<path d="M255.997 14.2145C255.997 14.2145 256.66 9.10268 252.851 10.834C253.972 8.27541 255.78 5.1707 258.567 2.75269C258.567 2.75269 258.127 7.87637 265.17 9.93049L255.997 14.2145Z" fill="#FFB52B"/>
<path d="M224.66 14.4784C224.66 14.4784 227.794 17.2192 234.05 17.9999H251.071L250.096 15.6522H246.769C246.769 15.6522 246.346 13.551 245.149 10.834C244.028 8.27543 242.22 5.17072 239.432 2.75271C238.176 1.65509 236.715 0.704533 235.031 0L224.66 14.4784Z" fill="#F69423"/>
<path d="M224.66 14.4784C224.66 14.4784 227.794 17.2192 234.051 18H243.318C234.808 12.7882 224.66 14.4784 224.66 14.4784Z" fill="#C26829"/>
<path d="M242.003 14.2145C242.003 14.2145 241.34 9.10268 245.149 10.834C244.028 8.27541 242.221 5.1707 239.433 2.75269C239.433 2.75269 239.873 7.87637 232.83 9.93049L242.003 14.2145Z" fill="#FFB52B"/>
<path d="M253.516 18L253.472 19.418V72H244L244.319 20.282L244.337 18H253.516Z" fill="#F69423"/>
<path d="M253.516 18L253.472 19.418L244.319 20.282L244.337 18H253.516Z" fill="#FFB52B"/>
<g filter="url(#filter1_d_1522_18725)">
<rect x="148" y="18" width="54.0002" height="54" rx="7" fill="#A4B4FF"/>
<path d="M171.875 40.625V42.5H178.125V40.625C178.125 38.8984 176.727 37.5 175 37.5C173.273 37.5 171.875 38.8984 171.875 40.625ZM169.375 42.5V40.625C169.375 37.5195 171.895 35 175 35C178.105 35 180.625 37.5195 180.625 40.625V42.5H181.25C182.629 42.5 183.75 43.6211 183.75 45V52.5C183.75 53.8789 182.629 55 181.25 55H168.75C167.371 55 166.25 53.8789 166.25 52.5V45C166.25 43.6211 167.371 42.5 168.75 42.5H169.375Z" fill="white"/>
</g>
</g>
<defs>
<filter id="filter0_d_1522_18725" x="-5.14286" y="12" width="71.143" height="71.1429" filterUnits="userSpaceOnUse" color-interpolation-filters="sRGB">
<feFlood flood-opacity="0" result="BackgroundImageFix"/>
<feColorMatrix in="SourceAlpha" type="matrix" values="0 0 0 0 0 0 0 0 0 0 0 0 0 0 0 0 0 0 127 0" result="hardAlpha"/>
<feOffset dx="3.42858" dy="2.57143"/>
<feGaussianBlur stdDeviation="4.28572"/>
<feColorMatrix type="matrix" values="0 0 0 0 0.391667 0 0 0 0 0.391667 0 0 0 0 0.391667 0 0 0 0.15 0"/>
<feBlend mode="normal" in2="BackgroundImageFix" result="effect1_dropShadow_1522_18725"/>
<feBlend mode="normal" in="SourceGraphic" in2="effect1_dropShadow_1522_18725" result="shape"/>
</filter>
<filter id="filter1_d_1522_18725" x="142.857" y="12" width="71.1431" height="71.1429" filterUnits="userSpaceOnUse" color-interpolation-filters="sRGB">
<feFlood flood-opacity="0" result="BackgroundImageFix"/>
<feColorMatrix in="SourceAlpha" type="matrix" values="0 0 0 0 0 0 0 0 0 0 0 0 0 0 0 0 0 0 127 0" result="hardAlpha"/>
<feOffset dx="3.42858" dy="2.57143"/>
<feGaussianBlur stdDeviation="4.28572"/>
<feColorMatrix type="matrix" values="0 0 0 0 0.391667 0 0 0 0 0.391667 0 0 0 0 0.391667 0 0 0 0.15 0"/>
<feBlend mode="normal" in2="BackgroundImageFix" result="effect1_dropShadow_1522_18725"/>
<feBlend mode="normal" in="SourceGraphic" in2="effect1_dropShadow_1522_18725" result="shape"/>
</filter>
<linearGradient id="paint0_linear_1522_18725" x1="72.4483" y1="-5.88466" x2="117.5" y2="-4.01469" gradientUnits="userSpaceOnUse">
<stop stop-color="#4F6EFD"/>
<stop offset="1" stop-color="#2644D2"/>
</linearGradient>
<linearGradient id="paint1_linear_1522_18725" x1="220.448" y1="-5.88466" x2="265.5" y2="-4.01469" gradientUnits="userSpaceOnUse">
<stop stop-color="#4F6EFD"/>
<stop offset="1" stop-color="#2644D2"/>
</linearGradient>
<clipPath id="clip0_1522_18725">
<rect width="276" height="72" fill="white"/>
</clipPath>
</defs>
</svg>
