<svg width="21" height="23" viewBox="0 0 21 23" fill="none" xmlns="http://www.w3.org/2000/svg">
<path opacity="0.2" d="M19.7565 14.885C20.2043 19.9067 16.2073 21.0982 11.1857 21.546C6.16402 21.9938 2.01929 21.5282 1.57151 16.5066C1.12374 11.4849 4.8316 7.05107 9.85325 6.60329C14.8749 6.15552 19.3088 9.86338 19.7565 14.885Z" fill="#F7F7EE"/>
<path fill-rule="evenodd" clip-rule="evenodd" d="M18.4129 5.08144C17.5327 6.61865 16.5293 7.54792 16.0018 7.91807C15.9273 7.97035 15.9229 8.08316 15.9945 8.1393C16.6677 8.66674 17.8931 9.9294 18.5963 11.7001L18.9787 10.0128C19.1566 9.22779 19.1578 8.41301 18.9822 7.62746L18.4129 5.08144Z" fill="#E8787D"/>
<path opacity="0.2" fill-rule="evenodd" clip-rule="evenodd" d="M7.96129 6.94168L4.65099 4.00522C4.4374 3.81575 4.10092 3.89159 3.98926 4.15437L2.89411 6.73168C2.57932 7.47252 2.43314 8.27408 2.46615 9.07835L2.55651 11.2795C1.92491 12.5856 1.63944 14.1079 1.78815 15.7756C4.6121 18.4567 6.74515 17.0952 8.50802 15.97C9.26467 15.487 9.95312 15.0476 10.5987 14.99C11.2586 14.9312 12.0465 15.4834 12.9229 16.0976C14.9017 17.4843 17.3312 19.1869 19.7541 14.8841C19.6393 13.5967 19.2625 12.3956 18.681 11.3288L18.9795 10.0116C19.1574 9.22653 19.1586 8.41175 18.983 7.6262L18.372 4.89333C18.3097 4.6147 17.9925 4.47926 17.7481 4.62698L13.6896 7.08073C12.4954 6.66015 11.1941 6.48256 9.85081 6.60234C9.19285 6.66101 8.56121 6.77558 7.96129 6.94168Z" fill="#ACB0AF"/>
<path fill-rule="evenodd" clip-rule="evenodd" d="M3.91492 4.3282C4.50265 6.00004 5.32178 7.09594 5.77379 7.5555C5.83761 7.62039 5.82155 7.73215 5.74094 7.7744C4.98314 8.17164 3.5484 9.19273 2.53653 10.8086L2.46552 9.07872C2.4325 8.27445 2.57868 7.4729 2.89348 6.73206L3.91492 4.3282Z" fill="#E8787D"/>
<path fill-rule="evenodd" clip-rule="evenodd" d="M11.3837 6.59312C11.3828 6.8873 11.3985 7.21105 11.4299 7.56326C11.6547 8.32651 11.7265 9.02573 11.7866 9.61087C11.9037 10.7506 11.9764 11.4575 13.0476 11.362C14.589 11.2246 14.4608 8.57062 13.7225 7.06126L13.6906 7.08051C12.9571 6.82215 12.183 6.65548 11.3837 6.59312Z" fill="#7C7575"/>
<path fill-rule="evenodd" clip-rule="evenodd" d="M10.5759 6.64746C10.5454 6.94001 10.4951 7.26016 10.4262 7.60693C10.1212 8.34177 9.97495 9.02929 9.8526 9.60464C9.61428 10.7253 9.46646 11.4204 8.41163 11.2109C6.89358 10.9094 7.3051 8.28372 8.20085 6.86209L8.23076 6.88487C8.98756 6.70666 9.77472 6.62388 10.5759 6.64746Z" fill="#7C7575"/>
<circle cx="6.88552" cy="14.3625" r="1.5922" transform="rotate(-5.09552 6.88552 14.3625)" fill="#222222"/>
<circle r="1.5922" transform="matrix(-0.996048 0.0888165 0.0888165 0.996048 14.4315 14.5427)" fill="#222222"/>
<circle cx="7.49412" cy="14.0247" r="0.459967" transform="rotate(-5.09552 7.49412 14.0247)" fill="#F7F7EE"/>
<circle r="0.459967" transform="matrix(-0.996048 0.0888165 0.0888165 0.996048 13.7731 14.3164)" fill="#F7F7EE"/>
<path d="M19.7565 14.885C20.2043 19.9067 16.2073 21.0982 11.1857 21.546C6.16402 21.9938 2.01929 21.5282 1.57151 16.5066C1.12374 11.4849 4.8316 7.05107 9.85325 6.60329C14.8749 6.15552 19.3088 9.86338 19.7565 14.885Z" fill="#DFDFDF"/>
<path fill-rule="evenodd" clip-rule="evenodd" d="M7.95456 6.93597L4.65114 4.00561C4.43755 3.81614 4.10108 3.89198 3.98942 4.15476L2.89427 6.73207C2.57947 7.47291 2.43329 8.27447 2.46631 9.07874L2.54239 10.9321C1.79205 12.2688 1.43428 13.8607 1.59247 15.6347C4.4393 18.3375 6.68226 17.0026 8.51129 15.9141C9.27531 15.4594 9.96711 15.0476 10.6005 14.9912C11.2604 14.9323 12.0484 15.4845 12.9247 16.0987C14.9035 17.4855 17.333 19.1881 19.7559 14.8852C19.641 13.5969 19.2637 12.395 18.6815 11.3276L18.9797 10.012C19.1576 9.22692 19.1588 8.41214 18.9831 7.62659L18.3721 4.89372C18.3098 4.61509 17.9926 4.47965 17.7483 4.62737L13.6895 7.08124C12.4959 6.66113 11.1952 6.48378 9.85261 6.6035C9.19492 6.66215 8.56015 6.77421 7.95456 6.93597Z" fill="#ACB0AF"/>
<path fill-rule="evenodd" clip-rule="evenodd" d="M18.4129 5.08144C17.5327 6.61865 16.5293 7.54792 16.0018 7.91807C15.9273 7.97035 15.9229 8.08316 15.9945 8.1393C16.6677 8.66674 17.8931 9.9294 18.5963 11.7001L18.9787 10.0128C19.1566 9.22779 19.1578 8.41301 18.9822 7.62746L18.4129 5.08144Z" fill="#E8787D"/>
<path fill-rule="evenodd" clip-rule="evenodd" d="M3.91492 4.3282C4.50265 6.00004 5.32178 7.09594 5.77379 7.5555C5.83761 7.62039 5.82155 7.73215 5.74094 7.7744C4.98314 8.17164 3.5484 9.19273 2.53653 10.8086L2.46552 9.07872C2.4325 8.27445 2.57868 7.4729 2.89348 6.73206L3.91492 4.3282Z" fill="#E8787D"/>
<path fill-rule="evenodd" clip-rule="evenodd" d="M11.3837 6.59312C11.3828 6.8873 11.3985 7.21105 11.4299 7.56326C11.6547 8.32651 11.7265 9.02573 11.7866 9.61087C11.9037 10.7506 11.9764 11.4575 13.0476 11.362C14.589 11.2246 14.4608 8.57062 13.7225 7.06126L13.6906 7.08051C12.9571 6.82215 12.183 6.65548 11.3837 6.59312Z" fill="#7C7575"/>
<path fill-rule="evenodd" clip-rule="evenodd" d="M10.5759 6.64746C10.5454 6.94001 10.4951 7.26016 10.4262 7.60693C10.1212 8.34177 9.97495 9.02929 9.8526 9.60464C9.61428 10.7253 9.46646 11.4204 8.41163 11.2109C6.89358 10.9094 7.3051 8.28372 8.20085 6.86209L8.23076 6.88487C8.98756 6.70666 9.77472 6.62388 10.5759 6.64746Z" fill="#7C7575"/>
<circle cx="6.88552" cy="14.3625" r="1.5922" transform="rotate(-5.09552 6.88552 14.3625)" fill="#222222"/>
<circle r="1.5922" transform="matrix(1 -2.12726e-09 -2.12726e-09 -1 14.7543 14.3961)" fill="#222222"/>
<circle cx="7.08006" cy="13.5862" r="0.459967" transform="rotate(-5.09552 7.08006 13.5862)" fill="#F7F7EE"/>
<circle r="0.459967" transform="matrix(-0.996048 0.0888165 0.0888165 0.996048 14.7936 13.5859)" fill="#F7F7EE"/>
<path d="M10.1169 17.2402C10.4538 17.4831 10.918 17.4417 11.2065 17.143L11.8702 16.4561C12.0314 16.2892 11.8988 16.0117 11.6676 16.0323L9.46656 16.2285C9.2354 16.2491 9.15397 16.5458 9.34221 16.6815L10.1169 17.2402Z" fill="#222222"/>
<path d="M11.668 17.9722C11.59 18.3689 11.3375 18.6895 11.0179 18.842C10.8494 18.9224 10.6595 18.9479 10.4741 18.9302C10.2856 18.9121 10.0728 18.8533 9.91922 18.71C9.86663 18.661 9.90353 18.5623 9.97008 18.5907C10.1325 18.66 10.2844 18.7388 10.4566 18.7608C10.6305 18.783 10.8052 18.7587 10.9668 18.694C11.2728 18.5713 11.5094 18.2964 11.6479 17.9632C11.6536 17.9492 11.6711 17.9567 11.668 17.9722Z" fill="#1D1D1B"/>
<g clip-path="url(#clip0)">
<path d="M14.8409 5.78462H5.96209L1.41789 4.27785C1.41788 4.27784 1.41786 4.27784 1.41785 4.27783C1.30008 4.23815 1.22304 4.13493 1.22304 4.02081C1.22304 3.90669 1.30007 3.80348 1.41783 3.76379C1.41785 3.76378 1.41787 3.76377 1.41789 3.76377L10.2969 0.818767C10.3646 0.796595 10.4384 0.796595 10.5061 0.818767L19.3851 3.76377C19.3851 3.76378 19.3852 3.76378 19.3852 3.76379C19.5029 3.80349 19.58 3.9067 19.58 4.02081C19.58 4.13494 19.5029 4.23817 19.3851 4.27785L17.3542 4.95224L16.4752 5.24379L16.4752 5.24379L14.8409 5.78462Z" fill="#637CF2" stroke="black" stroke-width="0.0417765"/>
<path fill-rule="evenodd" clip-rule="evenodd" d="M5.43457 4.49938V8.1244H5.43468C5.43587 7.5786 7.50101 7.13622 10.0483 7.13622C12.5857 7.13622 14.6446 7.57514 14.6619 8.11798V4.49938C14.6619 3.95233 12.5956 3.51074 10.0482 3.51074C7.50083 3.51074 5.43457 3.95233 5.43457 4.49938Z" fill="#506094"/>
<path d="M16.9585 5.79553C16.7764 5.79553 16.6289 5.64799 16.6289 5.46598V3.30416C16.6289 3.12215 16.7764 2.97461 16.9585 2.97461C17.1405 2.97461 17.288 3.12215 17.288 3.30416V5.46598C17.288 5.64799 17.1405 5.79553 16.9585 5.79553Z" fill="#EDC100"/>
<path d="M16.3457 5.75675V6.74539C16.3457 6.92739 16.4932 7.07494 16.6752 7.07494H17.3343C17.5163 7.07494 17.6639 6.92739 17.6639 6.74539V5.75675C17.6639 5.39274 17.3688 5.09766 17.0048 5.09766C16.6408 5.09766 16.3457 5.39274 16.3457 5.75675Z" fill="#F1D24B"/>
</g>
<path d="M4.37124 3.9688L7.97334 7.16411L2.32076 12.3148L2.18641 9.04193C2.15339 8.23766 2.29957 7.4361 2.61437 6.69526L3.70952 4.11795C3.82118 3.85517 4.15765 3.77934 4.37124 3.9688Z" fill="#ACB0AF"/>
<path fill-rule="evenodd" clip-rule="evenodd" d="M4.04634 4.54195C4.63408 6.21419 5.45338 7.31034 5.90545 7.76997C5.96928 7.83486 5.95322 7.94662 5.8726 7.98887C5.11482 8.3861 3.68012 9.40717 2.66825 11.023L2.59718 9.29188C2.56417 8.48761 2.71035 7.68605 3.02515 6.94521L4.04634 4.54195Z" fill="#E8787D"/>
<defs>
<clipPath id="clip0">
<rect width="19.1063" height="7.35948" fill="white" transform="translate(0.49707 0.78125)"/>
</clipPath>
</defs>
</svg>
