<svg width="53" height="17" viewBox="0 0 53 17" fill="none" xmlns="http://www.w3.org/2000/svg">
    <path d="M10.2551 8.13751C10.2551 8.17446 10.2387 8.43315 10.2059 8.91356H3.52957C3.64986 9.52948 3.93419 10.0161 4.38257 10.3733C4.83094 10.7305 5.38867 10.9091 6.05576 10.9091C6.51507 10.9091 6.91969 10.8352 7.26964 10.6874C7.63053 10.5273 7.96407 10.2809 8.27028 9.94831L9.6318 11.6113C8.80067 12.683 7.58678 13.2188 5.99014 13.2188C4.99498 13.2188 4.11464 13.0033 3.34912 12.5721C2.58361 12.1287 1.99307 11.5189 1.57751 10.7428C1.16194 9.96679 0.954163 9.08602 0.954163 8.10055C0.954163 7.1274 1.15648 6.25279 1.5611 5.47674C1.97667 4.68836 2.53987 4.0786 3.2507 3.64746C3.97247 3.204 4.77626 2.98227 5.66207 2.98227C6.526 2.98227 7.30792 3.19168 8.00782 3.6105C8.70771 4.02933 9.25451 4.63293 9.6482 5.4213C10.0528 6.19736 10.2551 7.10276 10.2551 8.13751ZM5.67847 5.16262C5.09887 5.16262 4.61222 5.34739 4.21853 5.71695C3.82484 6.0865 3.58425 6.59155 3.49676 7.23211H7.84378C7.75629 6.60387 7.5157 6.10497 7.12201 5.73542C6.72832 5.35355 6.24714 5.16262 5.67847 5.16262Z" fill="white"/>
    <path d="M12.1393 0.136719H14.7967V10.632H20.5545V13.071H12.1393V0.136719Z" fill="white"/>
    <path d="M25.5146 2.98227C26.8815 2.98227 27.9314 3.35182 28.6641 4.09092C29.3968 4.8177 29.7632 5.9202 29.7632 7.3984V13.071H27.3682V11.833C26.887 12.7569 25.9903 13.2188 24.678 13.2188C23.9999 13.2188 23.4094 13.0895 22.9063 12.8308C22.4142 12.5721 22.0369 12.2149 21.7745 11.7591C21.512 11.3033 21.3808 10.786 21.3808 10.207C21.3808 9.28312 21.687 8.55633 22.2994 8.02664C22.9228 7.49695 23.8796 7.23211 25.1701 7.23211H27.2042C27.2042 6.60387 27.0347 6.12345 26.6956 5.79086C26.3566 5.44594 25.8481 5.27348 25.1701 5.27348C24.6998 5.27348 24.2351 5.35971 23.7758 5.53217C23.3274 5.69231 22.9446 5.91404 22.6275 6.19736L21.7089 4.18331C22.1901 3.80144 22.7642 3.5058 23.4313 3.29638C24.1093 3.08697 24.8037 2.98227 25.5146 2.98227ZM25.3177 11.2787C25.7552 11.2787 26.1434 11.1678 26.4824 10.9461C26.8214 10.712 27.062 10.3733 27.2042 9.92983V8.91356H25.4489C24.3991 8.91356 23.8742 9.30159 23.8742 10.0777C23.8742 10.4472 23.9999 10.7428 24.2515 10.9646C24.5139 11.174 24.8693 11.2787 25.3177 11.2787Z" fill="white"/>
    <path d="M37.4432 2.98227C38.5368 2.98227 39.4172 3.35182 40.0843 4.09092C40.7623 4.83002 41.1013 5.92636 41.1013 7.37993V13.071H38.5423V7.82339C38.5423 7.03501 38.3892 6.44989 38.083 6.06802C37.7768 5.67383 37.3339 5.47674 36.7543 5.47674C36.1091 5.47674 35.5951 5.70463 35.2123 6.16041C34.8296 6.60387 34.6382 7.26906 34.6382 8.15598V13.071H32.0792V3.13009H34.5233V4.29417C34.8624 3.87535 35.2834 3.55507 35.7864 3.33334C36.2895 3.09929 36.8418 2.98227 37.4432 2.98227Z" fill="white"/>
    <path d="M52.6211 3.13009V11.408C52.6211 13.2312 52.2001 14.5862 51.358 15.4731C50.516 16.36 49.2857 16.8035 47.6672 16.8035C46.8142 16.8035 46.0049 16.6865 45.2394 16.4524C44.4739 16.2184 43.8396 15.8796 43.3366 15.4361L44.3536 13.3667C44.7254 13.7116 45.1957 13.9826 45.7643 14.1797C46.333 14.3891 46.9017 14.4938 47.4703 14.4938C48.3561 14.4938 49.0068 14.2659 49.4224 13.8101C49.8489 13.3667 50.0621 12.6891 50.0621 11.7776V11.3526C49.3951 12.1779 48.4655 12.5906 47.2735 12.5906C46.4642 12.5906 45.7206 12.3935 45.0426 11.9993C44.3755 11.5928 43.8451 11.0262 43.4514 10.2994C43.0577 9.5726 42.8609 8.73495 42.8609 7.78643C42.8609 6.83792 43.0577 6.00027 43.4514 5.27348C43.8451 4.5467 44.3755 3.98621 45.0426 3.59202C45.7206 3.18552 46.4642 2.98227 47.2735 2.98227C48.553 2.98227 49.5263 3.45652 50.1934 4.40504V3.13009H52.6211ZM47.782 10.2255C48.46 10.2255 49.0123 10.0037 49.4388 9.56028C49.8762 9.1045 50.095 8.51322 50.095 7.78643C50.095 7.05965 49.8762 6.47453 49.4388 6.03106C49.0123 5.57528 48.46 5.34739 47.782 5.34739C47.104 5.34739 46.5463 5.57528 46.1088 6.03106C45.6714 6.47453 45.4527 7.05965 45.4527 7.78643C45.4527 8.51322 45.6714 9.1045 46.1088 9.56028C46.5463 10.0037 47.104 10.2255 47.782 10.2255Z" fill="white"/>
</svg>
