<svg width="63" height="21" viewBox="0 0 63 21" fill="none" xmlns="http://www.w3.org/2000/svg">
<path d="M11.213 9.82855C11.213 9.87193 11.1933 10.1756 11.1538 10.7396H3.12038C3.26513 11.4626 3.60726 12.0338 4.14677 12.4531C4.68628 12.8725 5.35738 13.0821 6.16007 13.0821C6.71274 13.0821 7.19961 12.9954 7.6207 12.8218C8.05494 12.6339 8.45628 12.3447 8.82473 11.9542L10.463 13.9064C9.46293 15.1644 8.0023 15.7935 6.08112 15.7935C4.88366 15.7935 3.82438 15.5404 2.90326 15.0343C1.98215 14.5137 1.27157 13.7979 0.771536 12.8869C0.271502 11.9759 0.0214844 10.942 0.0214844 9.78517C0.0214844 8.6428 0.264922 7.61611 0.751798 6.7051C1.25183 5.77964 1.92951 5.06385 2.78483 4.55773C3.65332 4.03716 4.62049 3.77687 5.68635 3.77687C6.7259 3.77687 7.66675 4.0227 8.50891 4.51435C9.35108 5.00601 10.009 5.71457 10.4827 6.64003C10.9696 7.55104 11.213 8.61387 11.213 9.82855ZM5.70609 6.33636C5.00867 6.33636 4.42311 6.55327 3.94939 6.98708C3.47567 7.42089 3.18618 8.01377 3.08091 8.76571H8.31153C8.20626 8.02823 7.91677 7.44258 7.44305 7.00877C6.96933 6.5605 6.39035 6.33636 5.70609 6.33636Z" fill="#738BFB"/>
<path d="M13.4802 0.436523H16.6778V12.7568H23.6059V15.6199H13.4802V0.436523Z" fill="#738BFB"/>
<path d="M29.5742 3.77687C31.2191 3.77687 32.4823 4.21069 33.3639 5.07831C34.2456 5.93147 34.6864 7.22568 34.6864 8.96092V15.6199H31.8046V14.1667C31.2256 15.2512 30.1466 15.7935 28.5676 15.7935C27.7517 15.7935 27.0411 15.6416 26.4358 15.338C25.8437 15.0343 25.3897 14.6149 25.0739 14.0799C24.7581 13.5449 24.6002 12.9375 24.6002 12.2579C24.6002 11.1734 24.9686 10.3202 25.7055 9.6984C26.4556 9.07661 27.607 8.76571 29.1597 8.76571H31.6072C31.6072 8.02823 31.4033 7.46427 30.9954 7.07384C30.5874 6.66895 29.9756 6.46651 29.1597 6.46651C28.5939 6.46651 28.0346 6.56773 27.482 6.77017C26.9424 6.95816 26.4819 7.21845 26.1003 7.55104L24.9949 5.18676C25.5739 4.73849 26.2648 4.39144 27.0675 4.14561C27.8833 3.89979 28.7189 3.77687 29.5742 3.77687ZM29.3374 13.5159C29.8637 13.5159 30.3308 13.3858 30.7388 13.1255C31.1467 12.8508 31.4362 12.4531 31.6072 11.9325V10.7396H29.4953C28.232 10.7396 27.6004 11.1951 27.6004 12.1061C27.6004 12.5399 27.7517 12.8869 28.0544 13.1472C28.3702 13.393 28.7978 13.5159 29.3374 13.5159Z" fill="#738BFB"/>
<path d="M43.9276 3.77687C45.2435 3.77687 46.3028 4.21069 47.1054 5.07831C47.9213 5.94593 48.3292 7.23291 48.3292 8.93923V15.6199H45.2501V9.45981C45.2501 8.53434 45.0658 7.84747 44.6974 7.3992C44.3289 6.93647 43.796 6.7051 43.0986 6.7051C42.3222 6.7051 41.7038 6.97262 41.2432 7.50765C40.7826 8.02823 40.5524 8.80909 40.5524 9.85024V15.6199H37.4732V3.9504H40.4142V5.31691C40.8221 4.82525 41.3287 4.44928 41.934 4.189C42.5393 3.91425 43.2039 3.77687 43.9276 3.77687Z" fill="#738BFB"/>
<path d="M62.1907 3.9504V13.6678C62.1907 15.8079 61.6841 17.3986 60.6708 18.4397C59.6576 19.4809 58.1772 20.0014 56.2297 20.0014C55.2034 20.0014 54.2296 19.8641 53.3085 19.5893C52.3874 19.3146 51.6242 18.9169 51.0189 18.3963L52.2426 15.967C52.69 16.3719 53.2558 16.69 53.9401 16.9214C54.6244 17.1672 55.3086 17.2901 55.9929 17.2901C57.0587 17.2901 57.8417 17.0226 58.3417 16.4876C58.8549 15.967 59.1115 15.1717 59.1115 14.1016V13.6027C58.3088 14.5716 57.1903 15.056 55.756 15.056C54.7823 15.056 53.8875 14.8246 53.0716 14.3619C52.2689 13.8847 51.6307 13.2195 51.157 12.3663C50.6833 11.5132 50.4464 10.5299 50.4464 9.41642C50.4464 8.30298 50.6833 7.31967 51.157 6.46651C51.6307 5.61334 52.2689 4.9554 53.0716 4.49266C53.8875 4.01547 54.7823 3.77687 55.756 3.77687C57.2956 3.77687 58.4667 4.3336 59.2694 5.44705V3.9504H62.1907ZM56.3679 12.2796C57.1838 12.2796 57.8483 12.0193 58.3615 11.4987C58.8878 10.9637 59.151 10.2696 59.151 9.41642C59.151 8.56326 58.8878 7.87639 58.3615 7.35582C57.8483 6.82079 57.1838 6.55327 56.3679 6.55327C55.5521 6.55327 54.881 6.82079 54.3546 7.35582C53.8283 7.87639 53.5651 8.56326 53.5651 9.41642C53.5651 10.2696 53.8283 10.9637 54.3546 11.4987C54.881 12.0193 55.5521 12.2796 56.3679 12.2796Z" fill="#738BFB"/>
</svg>
