<svg width="16" height="16" viewBox="0 0 16 16" fill="none" xmlns="http://www.w3.org/2000/svg">
    <g opacity="0.7">
        <path fill-rule="evenodd" clip-rule="evenodd" d="M14.4001 8.00039C14.4001 4.46575 11.5347 1.60039 8.0001 1.60039C4.46547 1.60039 1.6001 4.46575 1.6001 8.00039C1.6001 11.535 4.46547 14.4004 8.0001 14.4004C11.5347 14.4004 14.4001 11.535 14.4001 8.00039ZM8.8001 4.80039C8.8001 4.35855 8.44194 4.00039 8.0001 4.00039C7.55827 4.00039 7.2001 4.35855 7.2001 4.80039C7.2001 5.24223 7.55827 5.60039 8.0001 5.60039C8.44194 5.60039 8.8001 5.24223 8.8001 4.80039ZM8.0001 12.0004C7.55827 12.0004 7.2001 11.6422 7.2001 11.2004V8.00039C7.2001 7.55855 7.55827 7.20039 8.0001 7.20039C8.44194 7.20039 8.8001 7.55855 8.8001 8.00039V11.2004C8.8001 11.6422 8.44194 12.0004 8.0001 12.0004Z" fill="#989898"/>
    </g>
</svg>
