<svg width="13" height="12" viewBox="0 0 13 12" fill="none" xmlns="http://www.w3.org/2000/svg">
    <path fill-rule="evenodd" clip-rule="evenodd" d="M7.47729 1.51843C7.22857 0.493857 5.77143 0.493857 5.5227 1.51843C5.36202 2.18029 4.60373 2.49438 4.0221 2.14C3.12174 1.59139 2.09139 2.62174 2.64 3.5221C2.99438 4.10373 2.68029 4.86202 2.01843 5.0227C0.993857 5.27143 0.993857 6.72857 2.01843 6.97729C2.68029 7.138 2.99438 7.8963 2.64 8.47787C2.09139 9.37824 3.12174 10.4086 4.02211 9.86C4.60373 9.50562 5.36202 9.8197 5.5227 10.4816C5.77143 11.5061 7.22857 11.5061 7.47729 10.4816C7.638 9.8197 8.3963 9.50562 8.97787 9.86C9.87824 10.4086 10.9086 9.37824 10.36 8.47787C10.0056 7.8963 10.3197 7.138 10.9816 6.97729C12.0061 6.72857 12.0061 5.27143 10.9816 5.0227C10.3197 4.86202 10.0056 4.10373 10.36 3.5221C10.9086 2.62174 9.87824 1.59139 8.97787 2.14C8.3963 2.49438 7.638 2.18029 7.47729 1.51843ZM6.5 7.96875C7.58734 7.96875 8.46875 7.08734 8.46875 6C8.46875 4.91269 7.58734 4.03125 6.5 4.03125C5.41269 4.03125 4.53125 4.91269 4.53125 6C4.53125 7.08734 5.41269 7.96875 6.5 7.96875Z" fill="#F1F1F1"/>
</svg>
