<svg width="29" height="29" viewBox="0 0 29 29" fill="none" preserveAspectRatio="none" xmlns="http://www.w3.org/2000/svg">
<path opacity="0.2" d="M22.2389 16.355C22.616 20.5842 19.2497 21.5878 15.0205 21.9649C10.7912 22.342 7.30053 21.9499 6.92342 17.7206C6.5463 13.4914 9.66907 9.75719 13.8983 9.38008C18.1276 9.00296 21.8618 12.1257 22.2389 16.355Z" fill="#F7F7EE"/>
<path fill-rule="evenodd" clip-rule="evenodd" d="M21.109 8.09723C20.3586 9.40803 19.5018 10.1941 19.062 10.4982C19.0064 10.5366 19.0034 10.6203 19.0567 10.6616C19.6204 11.0988 20.6661 12.1683 21.2635 13.6736L21.6129 12.1316C21.7449 11.5494 21.7458 10.9452 21.6155 10.3626L21.109 8.09723Z" fill="#E8787D"/>
<path opacity="0.2" fill-rule="evenodd" clip-rule="evenodd" d="M12.3063 9.66624L9.4743 7.15407C9.3159 7.01356 9.06637 7.0698 8.98356 7.26468L7.99028 9.60227C7.75682 10.1517 7.64841 10.7461 7.6729 11.3426L7.75412 13.3212C7.22278 14.4207 6.98268 15.7022 7.10786 17.106C9.48619 19.364 11.2827 18.2174 12.7674 17.2697C13.4046 16.863 13.9844 16.4929 14.5281 16.4444C15.0839 16.3948 15.7475 16.8599 16.4856 17.3772C18.1521 18.5451 20.1982 19.979 22.2388 16.3552C22.1421 15.2705 21.8246 14.2586 21.3345 13.3599L21.6128 12.1317C21.7448 11.5495 21.7457 10.9452 21.6154 10.3627L21.0612 7.88398C21.015 7.67734 20.7798 7.5769 20.5986 7.68645L17.1308 9.78302C16.1252 9.42892 15.0294 9.27941 13.8982 9.38028C13.3439 9.42971 12.8117 9.52625 12.3063 9.66624Z" fill="#ACB0AF"/>
<path fill-rule="evenodd" clip-rule="evenodd" d="M8.89814 7.46572C9.39911 8.89054 10.0996 9.81859 10.4772 10.1971C10.5249 10.2449 10.5127 10.3278 10.4528 10.3589C9.81937 10.6869 8.59751 11.5497 7.73775 12.9221L7.67291 11.3425C7.64843 10.7461 7.75684 10.1517 7.99029 9.60224L8.89814 7.46572Z" fill="#E8787D"/>
<path fill-rule="evenodd" clip-rule="evenodd" d="M15.1881 9.37262C15.1873 9.62025 15.2006 9.89275 15.227 10.1892C15.4163 10.832 15.4768 11.4209 15.5274 11.9137C15.626 12.8736 15.6872 13.469 16.5894 13.3885C17.8874 13.2728 17.7796 11.038 17.158 9.76675L17.1311 9.78299C16.5132 9.56542 15.8613 9.42509 15.1881 9.37262Z" fill="#8A8D99"/>
<path fill-rule="evenodd" clip-rule="evenodd" d="M14.5074 9.41784C14.4817 9.66414 14.4394 9.93366 14.3814 10.2256C14.1245 10.8445 14.0013 11.4235 13.8983 11.9081C13.6976 12.8519 13.5731 13.4373 12.6847 13.2609C11.4064 13.007 11.7527 10.7963 12.5068 9.59889L12.532 9.61805C13.1695 9.46784 13.8325 9.39803 14.5074 9.41784Z" fill="#8A8D99"/>
<circle cx="11.3996" cy="15.9155" r="1.34095" transform="rotate(-5.09552 11.3996 15.9155)" fill="#222222"/>
<circle r="1.34095" transform="matrix(-0.996048 0.0888165 0.0888165 0.996048 17.7555 16.0668)" fill="#222222"/>
<circle cx="11.9127" cy="15.6305" r="0.387386" transform="rotate(-5.09552 11.9127 15.6305)" fill="#F7F7EE"/>
<circle r="0.387386" transform="matrix(-0.996048 0.0888165 0.0888165 0.996048 17.2001 15.8769)" fill="#F7F7EE"/>
<path d="M22.2389 16.355C22.616 20.5842 19.2497 21.5878 15.0205 21.9649C10.7912 22.342 7.30053 21.9499 6.92342 17.7206C6.5463 13.4914 9.66907 9.75719 13.8983 9.38008C18.1276 9.00296 21.8618 12.1257 22.2389 16.355Z" fill="#DADCE5"/>
<path fill-rule="evenodd" clip-rule="evenodd" d="M12.2998 9.65999L9.47427 7.15352C9.31588 7.01301 9.06634 7.06925 8.98354 7.26413L7.99025 9.60171C7.75679 10.1511 7.64839 10.7456 7.67287 11.342L7.74195 13.0249C7.10976 14.1508 6.8083 15.4917 6.94156 16.9862C9.33917 19.2624 11.2282 18.1382 12.7686 17.2214C13.4121 16.8385 13.9947 16.4917 14.5282 16.4441C15.0839 16.3946 15.7475 16.8597 16.4856 17.3769C18.1522 18.5449 20.1983 19.9788 22.2388 16.3549C22.1421 15.2703 21.8246 14.2584 21.3345 13.3596L21.6129 12.1314C21.7448 11.5492 21.7457 10.945 21.6154 10.3624L21.0613 7.88373C21.0151 7.6771 20.7798 7.57666 20.5986 7.6862L17.1308 9.78277C16.1252 9.42867 15.0295 9.27916 13.8983 9.38002C13.3444 9.42941 12.8098 9.52378 12.2998 9.65999Z" fill="#8A8D99"/>
<path fill-rule="evenodd" clip-rule="evenodd" d="M21.109 8.09723C20.3586 9.40803 19.5018 10.1941 19.062 10.4982C19.0064 10.5366 19.0034 10.6203 19.0567 10.6616C19.6204 11.0988 20.6661 12.1683 21.2635 13.6736L21.6129 12.1316C21.7449 11.5494 21.7458 10.9452 21.6155 10.3626L21.109 8.09723Z" fill="#DADCE5"/>
<path fill-rule="evenodd" clip-rule="evenodd" d="M8.89805 7.46571C9.39902 8.89055 10.0995 9.81861 10.4771 10.1972C10.5248 10.245 10.5127 10.3279 10.4527 10.3589C9.8193 10.6869 8.59748 11.5496 7.73772 12.922L7.67288 11.3424C7.64839 10.746 7.7568 10.1515 7.99026 9.60212L8.89805 7.46571Z" fill="#E8787D"/>
<path fill-rule="evenodd" clip-rule="evenodd" d="M15.1881 9.37262C15.1873 9.62025 15.2006 9.89275 15.227 10.1892C15.4163 10.832 15.4768 11.4209 15.5274 11.9137C15.626 12.8736 15.6872 13.469 16.5894 13.3885C17.8874 13.2728 17.7796 11.038 17.158 9.76675L17.1311 9.78299C16.5132 9.56542 15.8613 9.42509 15.1881 9.37262Z" fill="#DADCE5"/>
<path fill-rule="evenodd" clip-rule="evenodd" d="M14.5074 9.41784C14.4817 9.66414 14.4394 9.93366 14.3814 10.2256C14.1245 10.8445 14.0013 11.4235 13.8983 11.9081C13.6976 12.8519 13.5731 13.4373 12.6847 13.2609C11.4064 13.007 11.7527 10.7963 12.5068 9.59889L12.532 9.61805C13.1695 9.46784 13.8325 9.39803 14.5074 9.41784Z" fill="#DADCE5"/>
<circle cx="11.3996" cy="15.9155" r="1.34095" transform="rotate(-5.09552 11.3996 15.9155)" fill="#222222"/>
<circle r="1.34095" transform="matrix(1 -2.12726e-09 -2.12726e-09 -1 18.0268 15.9434)" fill="#222222"/>
<circle cx="11.5635" cy="15.2611" r="0.387386" transform="rotate(-5.09552 11.5635 15.2611)" fill="#F7F7EE"/>
<circle r="0.387386" transform="matrix(-0.996048 0.0888165 0.0888165 0.996048 18.0597 15.261)" fill="#F7F7EE"/>
<path d="M14.1809 18.3813C14.4307 18.5614 14.775 18.5307 14.989 18.3092L15.6455 17.6297C15.765 17.5059 15.6667 17.3001 15.4952 17.3154L13.5068 17.4927C13.3353 17.508 13.2749 17.7279 13.4145 17.8286L14.1809 18.3813Z" fill="#8A8D99"/>
<path d="M13.9938 19.8602C14.0595 19.5261 14.2721 19.2561 14.5413 19.1277C14.6832 19.0599 14.8431 19.0385 14.9993 19.0534C15.158 19.0686 15.3372 19.1182 15.4666 19.2388C15.5109 19.2801 15.4798 19.3632 15.4238 19.3393C15.287 19.2809 15.159 19.2146 15.014 19.1961C14.8675 19.1774 14.7204 19.1979 14.5843 19.2524C14.3266 19.3556 14.1274 19.5872 14.0108 19.8678C14.0059 19.8796 13.9912 19.8733 13.9938 19.8602Z" fill="#1D1D1B"/>
<path d="M9.23794 7.12359L12.3154 9.85346L7.55473 14.1914L7.43654 11.3121C7.41206 10.7156 7.52046 10.1212 7.75392 9.57179L8.74721 7.2342C8.83001 7.03932 9.07954 6.98308 9.23794 7.12359Z" fill="#8A8D99"/>
<path fill-rule="evenodd" clip-rule="evenodd" d="M9.00946 7.64481C9.51043 9.06973 10.211 9.99784 10.5886 10.3764C10.6363 10.4242 10.6241 10.5071 10.5642 10.5381C9.93074 10.8661 8.7089 11.7289 7.84913 13.1013L7.78428 11.5215C7.7598 10.9251 7.86821 10.3306 8.10166 9.78121L9.00946 7.64481Z" fill="#DADCE5"/>
</svg>
