<svg width="29" height="29" viewBox="0 0 29 29" fill="none" preserveAspectRatio="none" xmlns="http://www.w3.org/2000/svg">
<path fill-rule="evenodd" clip-rule="evenodd" d="M9.17394 18.3361C9.02162 18.1325 8.87971 17.9177 8.74938 17.692C8.59065 17.4171 8.4545 17.1354 8.34033 16.8491C8.51554 16.7472 8.77126 16.5992 9.12859 16.393C9.22272 16.3386 9.41096 16.2294 9.5469 16.1501C9.68286 16.0708 9.93528 15.9242 10.1078 15.8242L10.2928 15.7169C10.2856 15.6997 10.2786 15.6827 10.2717 15.6659C10.0975 15.2001 10.0056 14.6163 10.0235 14.0881C10.0441 13.4819 10.1565 13.0099 10.4063 12.4813C10.7578 11.7375 11.2498 11.1743 11.956 10.7075C12.5322 10.3267 13.1631 10.0725 13.725 9.99471C13.9764 9.95993 14.4952 9.95974 14.7555 9.99434C15.4439 10.0858 16.1147 10.4061 16.7328 10.9383C16.8407 11.0311 16.9834 11.1666 17.0501 11.2394C17.3543 11.5717 17.7054 12.0631 17.8418 12.3474C17.9674 12.6092 17.9675 12.8741 17.8422 13.1317C17.7459 13.3296 17.6115 13.4515 17.2711 13.6493C17.1143 13.7405 16.8148 13.9143 16.6056 14.0356C15.6271 14.603 15.4569 14.7019 15.0655 14.9296C14.3956 15.3193 13.4037 15.8949 13.2591 15.9779C13.1859 16.0198 13.0461 16.1013 12.9484 16.1589L12.7708 16.2637L12.8438 16.3394C13.019 16.5211 13.3385 16.7209 13.6307 16.8317C13.973 16.9614 14.0649 16.9767 14.5046 16.9767C14.8682 16.9767 14.9077 16.9732 15.094 16.9242C15.3405 16.8595 15.5273 16.7879 15.7713 16.6646C16.3263 16.384 16.7331 15.9564 17.0602 15.3091C17.1502 15.1312 17.1904 15.0744 17.3007 14.9698C17.5686 14.7155 17.8698 14.6248 18.1923 14.7012C18.7293 14.8286 19.0105 15.2864 18.8502 15.7723C18.601 16.5276 17.806 17.4954 16.9954 18.0303C16.7997 18.1595 16.3791 18.3773 16.1208 18.4833C15.2188 18.8533 14.2833 18.926 13.374 18.6966C13.0098 18.6048 12.5928 18.4331 12.2874 18.2493C11.8642 17.9946 11.3933 17.5751 11.1208 17.2101L11.1189 17.2076L11.1061 17.2151C10.4362 17.6048 9.44431 18.1804 9.29971 18.2633C9.26757 18.2817 9.22258 18.3078 9.17394 18.3361ZM15.3126 12.1847C15.0674 12.0183 14.8142 11.9069 14.5141 11.8335C14.0816 11.7278 13.5903 11.8222 13.1057 12.1043C12.4614 12.4793 12.091 12.9343 11.927 13.5525C11.8589 13.8087 11.841 14.2802 11.8888 14.5567C11.922 14.7487 11.9392 14.786 11.9796 14.7536C12.0007 14.7367 12.2927 14.5665 13.088 14.1075C13.1821 14.0532 13.3704 13.9439 13.5063 13.8646C13.6423 13.7853 13.8947 13.6387 14.0672 13.5387C14.2398 13.4387 14.5264 13.2723 14.7042 13.1689C14.882 13.0655 15.1815 12.8916 15.3697 12.7825C15.5579 12.6734 15.7188 12.5773 15.7272 12.569C15.7482 12.5482 15.4751 12.295 15.3126 12.1847Z" fill="white"/>
<path opacity="0.2" d="M22.3493 17.4811C22.74 21.8623 19.2527 22.902 14.8715 23.2926C10.4902 23.6833 6.87401 23.2771 6.48334 18.8958C6.09266 14.5145 9.32768 10.6461 13.709 10.2554C18.0902 9.86477 21.9587 13.0998 22.3493 17.4811Z" fill="#F7F7EE"/>
<path fill-rule="evenodd" clip-rule="evenodd" d="M21.1788 8.92648C20.399 10.2888 19.5082 11.104 19.0538 11.4167C18.9982 11.455 18.9955 11.5387 19.0488 11.58C19.6318 12.0309 20.7186 13.1404 21.3389 14.7033L21.7081 13.0741C21.84 12.4919 21.8409 11.8877 21.7107 11.3051L21.1788 8.92648Z" fill="#E8787D"/>
<path opacity="0.2" fill-rule="evenodd" clip-rule="evenodd" d="M12.0597 10.5519L9.11433 7.93915C8.95593 7.79864 8.7064 7.85488 8.62359 8.04975L7.5758 10.5156C7.34234 11.065 7.23394 11.6595 7.25842 12.2559L7.3439 14.3382C6.79346 15.4773 6.54473 16.8049 6.67441 18.2591C9.13823 20.5983 10.9993 19.4104 12.5373 18.4287C13.1975 18.0073 13.7981 17.6239 14.3614 17.5737C14.9371 17.5224 15.6246 18.0042 16.3892 18.54C18.1157 19.7499 20.2353 21.2354 22.3493 17.4813C22.2491 16.3576 21.9201 15.3094 21.4124 14.3783L21.708 13.0742C21.8399 12.492 21.8408 11.8877 21.7106 11.3051L21.126 8.69046C21.0798 8.48382 20.8445 8.38338 20.6633 8.49293L17.0577 10.6729C16.0159 10.306 14.8807 10.1512 13.7089 10.2556C13.1346 10.3069 12.5833 10.4069 12.0597 10.5519Z" fill="#ACB0AF"/>
<path fill-rule="evenodd" clip-rule="evenodd" d="M8.52905 8.27226C9.04968 9.75304 9.77836 10.7159 10.1686 11.1056C10.2164 11.1533 10.204 11.2362 10.144 11.2671C9.48911 11.6052 8.21962 12.4998 7.32694 13.9248L7.25844 12.2559C7.23395 11.6594 7.34236 11.065 7.57582 10.5156L8.52905 8.27226Z" fill="#E8787D"/>
<path fill-rule="evenodd" clip-rule="evenodd" d="M15.0451 10.2477C15.0443 10.5042 15.058 10.7865 15.0854 11.0936C15.2815 11.7596 15.3442 12.3696 15.3966 12.8801C15.4988 13.8745 15.5622 14.4913 16.4968 14.408C17.8414 14.2881 17.7298 11.973 17.0858 10.656L17.0579 10.6728C16.4179 10.4475 15.7425 10.3021 15.0451 10.2477Z" fill="#7C7575"/>
<path fill-rule="evenodd" clip-rule="evenodd" d="M14.34 10.2946C14.3133 10.5497 14.2695 10.8289 14.2094 11.1313C13.9432 11.7725 13.8157 12.3723 13.7089 12.8743C13.501 13.8521 13.372 14.4585 12.4517 14.2757C11.1275 14.0127 11.4862 11.7226 12.2674 10.4821L12.2935 10.502C12.9539 10.3464 13.6408 10.274 14.34 10.2946Z" fill="#7C7575"/>
<circle cx="11.1204" cy="17.0258" r="1.38915" transform="rotate(-5.09552 11.1204 17.0258)" fill="#222222"/>
<circle r="1.38915" transform="matrix(-0.996048 0.0888165 0.0888165 0.996048 17.7048 17.1826)" fill="#222222"/>
<circle cx="11.6519" cy="16.7305" r="0.401311" transform="rotate(-5.09552 11.6519 16.7305)" fill="#F7F7EE"/>
<circle r="0.401311" transform="matrix(-0.996048 0.0888165 0.0888165 0.996048 17.1294 16.9858)" fill="#F7F7EE"/>
<path d="M22.3493 17.4811C22.74 21.8623 19.2527 22.902 14.8715 23.2926C10.4902 23.6833 6.87401 23.2771 6.48334 18.8958C6.09266 14.5145 9.32768 10.6461 13.709 10.2554C18.0902 9.86477 21.9587 13.0998 22.3493 17.4811Z" fill="#FDFDFD"/>
<path fill-rule="evenodd" clip-rule="evenodd" d="M12.053 10.5454L9.11431 7.93857C8.95591 7.79806 8.70637 7.8543 8.62357 8.04918L7.57578 10.515C7.34232 11.0645 7.23391 11.6589 7.2584 12.2553L7.3313 14.0313C6.67638 15.1977 6.36409 16.5868 6.50213 18.1349C8.98593 20.493 10.9429 19.3284 12.5386 18.3786C13.2052 17.9819 13.8088 17.6227 14.3615 17.5734C14.9372 17.5221 15.6246 18.0039 16.3893 18.5397C18.1157 19.7497 20.2354 21.2351 22.3493 17.481C22.2491 16.3573 21.9201 15.3091 21.4125 14.378L21.708 13.0739C21.84 12.4917 21.8408 11.8875 21.7106 11.3049L21.126 8.6902C21.0798 8.48356 20.8445 8.38312 20.6633 8.49267L17.0577 10.6726C16.0159 10.3058 14.8808 10.1509 13.7089 10.2554C13.1351 10.3066 12.5814 10.4043 12.053 10.5454Z" fill="#ACB0AF"/>
<path fill-rule="evenodd" clip-rule="evenodd" d="M21.1788 8.92648C20.399 10.2888 19.5082 11.104 19.0538 11.4167C18.9982 11.455 18.9955 11.5387 19.0488 11.58C19.6318 12.0309 20.7186 13.1404 21.3389 14.7033L21.7081 13.0741C21.84 12.4919 21.8409 11.8877 21.7107 11.3051L21.1788 8.92648Z" fill="#E8787D"/>
<path fill-rule="evenodd" clip-rule="evenodd" d="M8.52895 8.27226C9.04959 9.75306 9.77828 10.7159 10.1686 11.1057C10.2163 11.1534 10.2039 11.2362 10.1439 11.2672C9.48904 11.6052 8.21959 12.4998 7.32691 13.9247L7.2584 12.2558C7.23391 11.6593 7.34232 11.0649 7.57578 10.5155L8.52895 8.27226Z" fill="#E8787D"/>
<path fill-rule="evenodd" clip-rule="evenodd" d="M15.0451 10.2477C15.0443 10.5042 15.058 10.7865 15.0854 11.0936C15.2815 11.7596 15.3442 12.3696 15.3966 12.8801C15.4988 13.8745 15.5622 14.4913 16.4968 14.408C17.8414 14.2881 17.7298 11.973 17.0858 10.656L17.0579 10.6728C16.4179 10.4475 15.7425 10.3021 15.0451 10.2477Z" fill="#7C7575"/>
<path fill-rule="evenodd" clip-rule="evenodd" d="M14.34 10.2946C14.3133 10.5497 14.2695 10.8289 14.2094 11.1313C13.9432 11.7725 13.8157 12.3723 13.7089 12.8743C13.501 13.8521 13.372 14.4585 12.4517 14.2757C11.1275 14.0127 11.4862 11.7226 12.2674 10.4821L12.2935 10.502C12.9539 10.3464 13.6408 10.274 14.34 10.2946Z" fill="#7C7575"/>
<circle cx="11.1204" cy="17.0258" r="1.38915" transform="rotate(-5.09552 11.1204 17.0258)" fill="#222222"/>
<circle r="1.38915" transform="matrix(1 -2.12726e-09 -2.12726e-09 -1 17.9859 17.0547)" fill="#222222"/>
<circle cx="11.2902" cy="16.3478" r="0.401311" transform="rotate(-5.09552 11.2902 16.3478)" fill="#F7F7EE"/>
<circle r="0.401311" transform="matrix(-0.996048 0.0888165 0.0888165 0.996048 18.0199 16.3478)" fill="#F7F7EE"/>
<path d="M14.0173 19.5915C14.2672 19.7717 14.6114 19.741 14.8254 19.5194L15.5314 18.7887C15.6509 18.6649 15.5526 18.4591 15.3811 18.4744L13.2855 18.6613C13.1141 18.6765 13.0537 18.8965 13.1933 18.9972L14.0173 19.5915Z" fill="#222222"/>
<path d="M15.293 20.1744C15.2249 20.5205 15.0046 20.8002 14.7258 20.9333C14.5787 21.0035 14.4131 21.0257 14.2513 21.0102C14.0869 20.9944 13.9012 20.9431 13.7672 20.8181C13.7213 20.7753 13.7535 20.6892 13.8116 20.714C13.9532 20.7745 14.0858 20.8432 14.236 20.8624C14.3878 20.8818 14.5402 20.8606 14.6812 20.8041C14.9482 20.6971 15.1546 20.4572 15.2754 20.1665C15.2804 20.1544 15.2956 20.1609 15.293 20.1744Z" fill="#1D1D1B"/>
<g clip-path="url(#clip0)">
<path d="M8.7269 9.62216L3.12668 7.93485C2.97212 7.88755 2.86921 7.76372 2.86921 7.62507C2.86921 7.48642 2.97212 7.3626 3.12668 7.31529L14.0614 4.01977C14.1499 3.99341 14.2464 3.99341 14.3349 4.01977L25.2696 7.31529C25.4242 7.3626 25.5271 7.48642 25.5271 7.62507C25.5271 7.76372 25.4242 7.88755 25.2696 7.93485L22.7685 8.68953L21.686 9.01578L19.6694 9.62216H8.7269Z" fill="#637CF2"/>
<path fill-rule="evenodd" clip-rule="evenodd" d="M8.08079 12.2106C8.09783 11.6025 10.635 11.1105 13.7624 11.1105C16.9003 11.1105 19.4441 11.6058 19.4441 12.2168C19.4441 12.2168 19.4441 12.2168 19.4441 12.2169H19.4442V8.16048C19.4442 7.54833 16.8996 7.05419 13.7625 7.05419C10.6254 7.05419 8.08079 7.54833 8.08079 8.16048V12.2106Z" fill="#4F68DE"/>
<path d="M22.2729 9.61144C22.0487 9.61144 21.867 9.44634 21.867 9.24267V6.82358C21.867 6.61992 22.0487 6.45482 22.2729 6.45482C22.497 6.45482 22.6787 6.61992 22.6787 6.82358V9.24267C22.6787 9.44634 22.497 9.61144 22.2729 9.61144Z" fill="#EDC100"/>
<path d="M21.5185 9.56768V10.674C21.5185 10.8776 21.7002 11.0427 21.9243 11.0427H22.736C22.9601 11.0427 23.1418 10.8776 23.1418 10.674V9.56768C23.1418 9.16035 22.7784 8.83015 22.3301 8.83015C21.8818 8.83015 21.5185 9.16035 21.5185 9.56768Z" fill="#F1D24B"/>
</g>
<path d="M8.86948 7.90757L12.0691 10.7458L7.13735 15.2397L7.01357 12.2243C6.98909 11.6279 7.09749 11.0335 7.33095 10.484L8.37874 8.01817C8.46155 7.8233 8.71108 7.76706 8.86948 7.90757Z" fill="#ACB0AF"/>
<path fill-rule="evenodd" clip-rule="evenodd" d="M8.64437 8.4578C9.16501 9.93868 9.89373 10.9016 10.284 11.2914C10.3318 11.339 10.3194 11.4219 10.2594 11.4528C9.6045 11.7909 8.33502 12.6855 7.44234 14.1104L7.37382 12.4413C7.34934 11.8448 7.45774 11.2504 7.6912 10.701L8.64437 8.4578Z" fill="#E8787D"/>
<defs>
<clipPath id="clip0">
<rect width="23.5294" height="8.23528" fill="white" transform="translate(2 4)"/>
</clipPath>
</defs>
</svg>
