<svg width="20" height="20" viewBox="0 0 20 20" fill="none" xmlns="http://www.w3.org/2000/svg">
<g clip-path="url(#clip0_15669_886)">
<path fill-rule="evenodd" clip-rule="evenodd" d="M4.99474 14.3361C4.84242 14.1325 4.70051 13.9177 4.57018 13.692C4.41145 13.4171 4.2753 13.1354 4.16113 12.8491C4.33634 12.7472 4.59206 12.5992 4.94939 12.393C5.04352 12.3386 5.23176 12.2294 5.3677 12.1501C5.50366 12.0708 5.75608 11.9242 5.92863 11.8242L6.11363 11.7169C6.10642 11.6997 6.09938 11.6827 6.09254 11.6659C5.9183 11.2001 5.82644 10.6163 5.84435 10.0881C5.8649 9.48189 5.97732 9.00993 6.22713 8.4813C6.57862 7.73746 7.07064 7.17431 7.77683 6.70753C8.35295 6.32669 8.98389 6.07248 9.54579 5.99471C9.79723 5.95993 10.316 5.95974 10.5763 5.99434C11.2647 6.08584 11.9355 6.40607 12.5536 6.93829C12.6615 7.03111 12.8042 7.16662 12.8709 7.23944C13.1751 7.57174 13.5262 8.06312 13.6626 8.34737C13.7882 8.60919 13.7883 8.87411 13.663 9.13168C13.5667 9.32957 13.4323 9.45149 13.0919 9.64926C12.9351 9.74045 12.6356 9.91428 12.4264 10.0356C11.4479 10.603 11.2777 10.7019 10.8863 10.9296C10.2164 11.3193 9.22452 11.8949 9.07992 11.9779C9.00673 12.0198 8.86689 12.1013 8.76919 12.1589L8.59156 12.2637L8.66462 12.3394C8.83984 12.5211 9.15929 12.7209 9.45155 12.8317C9.79382 12.9614 9.88568 12.9767 10.3254 12.9767C10.689 12.9767 10.7285 12.9732 10.9148 12.9242C11.1613 12.8595 11.3481 12.7879 11.5921 12.6646C12.1471 12.384 12.5539 11.9564 12.881 11.3091C12.971 11.1312 13.0112 11.0744 13.1215 10.9698C13.3894 10.7155 13.6906 10.6248 14.0131 10.7012C14.5501 10.8286 14.8313 11.2864 14.671 11.7723C14.4218 12.5276 13.6268 13.4954 12.8162 14.0303C12.6205 14.1595 12.1999 14.3773 11.9416 14.4833C11.0396 14.8533 10.1041 14.926 9.19484 14.6966C8.83064 14.6048 8.41363 14.4331 8.10818 14.2493C7.68497 13.9946 7.21408 13.5751 6.94161 13.2101L6.93974 13.2076L6.92687 13.2151C6.257 13.6048 5.26511 14.1804 5.12051 14.2633C5.08837 14.2817 5.04338 14.3078 4.99474 14.3361ZM11.1334 8.18472C10.8882 8.01825 10.635 7.9069 10.3349 7.83353C9.90236 7.72779 9.41109 7.82222 8.92648 8.10428C8.28222 8.47926 7.91181 8.93433 7.74775 9.55251C7.67973 9.8087 7.66184 10.2802 7.70963 10.5567C7.74283 10.7487 7.75998 10.786 7.80044 10.7536C7.82148 10.7367 8.11349 10.5665 8.90881 10.1075C9.00291 10.0532 9.19117 9.94387 9.32713 9.8646C9.46306 9.78535 9.71547 9.6387 9.88804 9.53869C10.0606 9.43871 10.3472 9.2723 10.525 9.1689C10.7028 9.06552 11.0023 8.89161 11.1905 8.78252C11.3787 8.67338 11.5396 8.5773 11.548 8.56899C11.569 8.54818 11.2959 8.29501 11.1334 8.18472Z" fill="white"/>
<path d="M14.9992 18.6588C19.7813 15.8979 21.4198 9.78296 18.6588 5.00083C15.8978 0.218699 9.78298 -1.41977 5.00083 1.3412C0.218704 4.10216 -1.41977 10.217 1.3412 14.9992C4.10216 19.7813 10.217 21.4197 14.9992 18.6588Z" fill="#989898"/>
<path fill-rule="evenodd" clip-rule="evenodd" d="M2.02785 16.1699C1.79132 15.856 1.57096 15.5248 1.36858 15.1769C1.1221 14.7531 0.910679 14.3188 0.733398 13.8773C1.00547 13.7202 1.40256 13.4921 1.95743 13.1742C2.10359 13.0904 2.3959 12.9219 2.607 12.7997C2.81813 12.6775 3.21008 12.4514 3.47802 12.2973L3.76531 12.1318C3.75411 12.1054 3.74318 12.0792 3.73255 12.0533C3.46199 11.3351 3.31935 10.4351 3.34715 9.6208C3.37906 8.68613 3.55363 7.95852 3.94155 7.14352C4.48735 5.99673 5.25138 5.12852 6.34798 4.40888C7.2426 3.82175 8.22234 3.42982 9.09487 3.30993C9.48532 3.25631 10.2908 3.25601 10.6951 3.30936C11.7641 3.45042 12.8057 3.94413 13.7656 4.76465C13.933 4.90776 14.1547 5.11667 14.2582 5.22894C14.7305 5.74125 15.2758 6.4988 15.4875 6.93703C15.6826 7.34068 15.6829 7.74911 15.4883 8.1462C15.3388 8.4513 15.1299 8.63926 14.6014 8.94416C14.3579 9.08476 13.8928 9.35275 13.5681 9.53976C12.0486 10.4146 11.7843 10.567 11.1765 10.918C10.1362 11.5189 8.596 12.4064 8.37146 12.5342C8.2578 12.5989 8.04066 12.7244 7.88895 12.8133L7.61311 12.9748L7.72656 13.0915C7.99865 13.3716 8.49471 13.6797 8.94854 13.8505C9.48003 14.0506 9.62267 14.0741 10.3054 14.0741C10.8702 14.0741 10.9315 14.0686 11.2207 13.9932C11.6035 13.8935 11.8936 13.783 12.2724 13.5929C13.1343 13.1604 13.7659 12.501 14.274 11.5032C14.4137 11.2288 14.4761 11.1413 14.6473 10.9801C15.0634 10.588 15.5311 10.4481 16.0319 10.566C16.8658 10.7623 17.3024 11.4682 17.0535 12.2173C16.6665 13.3817 15.432 14.8738 14.1733 15.6984C13.8693 15.8976 13.2162 16.2334 12.8151 16.3968C11.4145 16.9673 9.96188 17.0794 8.54992 16.7257C7.98437 16.5841 7.33681 16.3194 6.8625 16.0361C6.20533 15.6434 5.47411 14.9967 5.05101 14.434L5.04812 14.4301L5.02812 14.4416C3.98793 15.0425 2.44769 15.9299 2.22316 16.0577C2.17325 16.0861 2.10338 16.1262 2.02785 16.1699ZM11.5601 6.68627C11.1794 6.42964 10.7862 6.25796 10.3202 6.14484C9.64857 5.98182 8.88571 6.12741 8.13318 6.56226C7.13276 7.14037 6.55757 7.84196 6.30282 8.79501C6.19719 9.18998 6.16941 9.91691 6.24363 10.3431C6.29517 10.6393 6.32181 10.6966 6.38463 10.6467C6.4173 10.6207 6.87075 10.3583 8.10576 9.65063C8.25187 9.56688 8.54421 9.39837 8.75533 9.27616C8.9664 9.15397 9.35836 8.92788 9.62633 8.77371C9.8943 8.61956 10.3394 8.36301 10.6154 8.2036C10.8915 8.04421 11.3566 7.7761 11.6489 7.60792C11.9411 7.43965 12.191 7.29151 12.204 7.2787C12.2366 7.24663 11.8125 6.85631 11.5601 6.68627Z" fill="white"/>
</g>
<defs>
<clipPath id="clip0_15669_886">
<rect width="20" height="20" fill="white"/>
</clipPath>
</defs>
</svg>
