<svg width="12" height="7" viewBox="0 0 12 7" fill="none" xmlns="http://www.w3.org/2000/svg">
<path d="M5.49383 4.15953C5.44456 4.79951 5.19238 5.30332 4.73732 5.67097C4.28515 6.03862 3.68805 6.22244 2.94603 6.22244C2.13444 6.22244 1.49532 5.96645 1.02865 5.45447C0.56489 4.93976 0.333008 4.23442 0.333008 3.33845V2.97489C0.333008 2.403 0.440253 1.89918 0.654744 1.46345C0.869235 1.02772 1.17503 0.694117 1.57213 0.462635C1.97212 0.228431 2.43589 0.111328 2.96342 0.111328C3.69385 0.111328 4.28225 0.295152 4.72862 0.662799C5.17499 1.03045 5.43296 1.54651 5.50253 2.211H4.19819C4.16631 1.82702 4.05182 1.54924 3.85472 1.37767C3.66051 1.20338 3.36342 1.11623 2.96342 1.11623C2.52864 1.11623 2.20256 1.26329 1.98517 1.55741C1.77068 1.8488 1.66053 2.30223 1.65474 2.9177V3.36705C1.65474 4.00975 1.75763 4.47952 1.96343 4.77636C2.17212 5.0732 2.49966 5.22162 2.94603 5.22162C3.34892 5.22162 3.64892 5.13584 3.84602 4.96427C4.04602 4.78998 4.16051 4.52173 4.18949 4.15953H5.49383Z" fill="currentColor"/>
<path d="M11.3243 4.15953C11.275 4.79951 11.0229 5.30332 10.5678 5.67097C10.1156 6.03862 9.51854 6.22244 8.77652 6.22244C7.96493 6.22244 7.3258 5.96645 6.85914 5.45447C6.39538 4.93976 6.16349 4.23442 6.16349 3.33845V2.97489C6.16349 2.403 6.27074 1.89918 6.48523 1.46345C6.69972 1.02772 7.00552 0.694117 7.40261 0.462635C7.80261 0.228431 8.26637 0.111328 8.79391 0.111328C9.52433 0.111328 10.1127 0.295152 10.5591 0.662799C11.0055 1.03045 11.2634 1.54651 11.333 2.211H10.0287C9.99679 1.82702 9.8823 1.54924 9.6852 1.37767C9.491 1.20338 9.1939 1.11623 8.79391 1.11623C8.35913 1.11623 8.03304 1.26329 7.81565 1.55741C7.60116 1.8488 7.49102 2.30223 7.48522 2.9177V3.36705C7.48522 4.00975 7.58812 4.47952 7.79391 4.77636C8.00261 5.0732 8.33014 5.22162 8.77652 5.22162C9.17941 5.22162 9.47941 5.13584 9.67651 4.96427C9.8765 4.78998 9.991 4.52173 10.02 4.15953H11.3243Z" fill="currentColor"/>
</svg>
