<svg width="10" height="10" viewBox="0 0 10 10" fill="none" xmlns="http://www.w3.org/2000/svg">
<path d="M5.38748 6.27884L4.32915 5.23301L4.34165 5.22051C5.06665 4.41217 5.58332 3.48301 5.88748 2.49967H7.10832V1.66634H4.19165V0.833008H3.35832V1.66634H0.44165V2.49551H5.09582C4.81665 3.29967 4.37498 4.06217 3.77498 4.72884C3.38748 4.29967 3.06665 3.82884 2.81248 3.33301H1.97915C2.28332 4.01217 2.69998 4.65384 3.22082 5.23301L1.09998 7.32467L1.69165 7.91634L3.77498 5.83301L5.07082 7.12884L5.38748 6.27884ZM7.73332 4.16634H6.89998L5.02498 9.16634H5.85832L6.32498 7.91634H8.30415L8.77498 9.16634H9.60832L7.73332 4.16634ZM6.64165 7.08301L7.31665 5.27884L7.99165 7.08301H6.64165Z" fill="currentColor"/>
</svg>
