<svg width="37" height="38" viewBox="0 0 37 38" fill="none" xmlns="http://www.w3.org/2000/svg">
<rect x="0.486842" y="-0.486842" width="36.0263" height="36.0263" rx="6.32895" transform="matrix(1 0 0 -1 -0.000244141 36.5263)" fill="black"/>
<rect x="0.486842" y="-0.486842" width="36.0263" height="36.0263" rx="6.32895" transform="matrix(1 0 0 -1 -0.000244141 36.5263)" stroke="#A6A6A6" stroke-width="0.973684"/>
<g clip-path="url(#clip0_1591_80693)">
<path fill-rule="evenodd" clip-rule="evenodd" d="M10.058 9.19713C9.82504 9.44746 9.69116 9.83276 9.69116 10.3334V28.142C9.69116 28.6426 9.82504 29.0279 10.0667 29.2695L10.1298 29.3229L20.1083 19.3444V19.1201L10.1211 9.1438L10.058 9.19713Z" fill="url(#paint0_linear_1591_80693)"/>
<path fill-rule="evenodd" clip-rule="evenodd" d="M23.4265 22.6838L20.0981 19.3544V19.1214L23.4276 15.792L23.4994 15.8366L27.4373 18.0744C28.5649 18.71 28.5649 19.7571 27.4373 20.4014L23.4994 22.6392C23.4983 22.6392 23.4265 22.6838 23.4265 22.6838Z" fill="url(#paint1_linear_1591_80693)"/>
<path fill-rule="evenodd" clip-rule="evenodd" d="M23.499 22.6386L20.0988 19.2373L10.0571 29.279C10.4239 29.673 11.041 29.7176 11.7311 29.3323L23.499 22.6386Z" fill="url(#paint2_linear_1591_80693)"/>
<path fill-rule="evenodd" clip-rule="evenodd" d="M23.499 15.8375L11.7311 9.15251C11.0421 8.75851 10.4239 8.81184 10.0571 9.20584L20.0977 19.2377L23.499 15.8375Z" fill="url(#paint3_linear_1591_80693)"/>
<path opacity="0.2" fill-rule="evenodd" clip-rule="evenodd" d="M23.4275 22.5674L11.7401 29.2078C11.0871 29.5833 10.5048 29.5571 10.1293 29.2165L10.0662 29.2796L10.1293 29.3329C10.5048 29.6725 11.0871 29.6997 11.7401 29.3242L23.508 22.6392L23.4275 22.5674Z" fill="black"/>
<path opacity="0.12" fill-rule="evenodd" clip-rule="evenodd" d="M27.4361 20.2844L23.4177 22.5667L23.4896 22.6386L27.4274 20.4008C27.9912 20.0786 28.2688 19.6585 28.2688 19.2373C28.2328 19.6226 27.9466 19.9894 27.4361 20.2844Z" fill="black"/>
<path opacity="0.25" fill-rule="evenodd" clip-rule="evenodd" d="M11.7309 9.2692L27.4367 18.192C27.9471 18.4782 28.2334 18.8537 28.278 19.239C28.278 18.8189 28.0005 18.3977 27.4367 18.0755L11.7309 9.15274C10.6034 8.5084 9.69019 9.04499 9.69019 10.3337V10.4501C9.69019 9.16145 10.6034 8.63357 11.7309 9.2692Z" fill="white"/>
</g>
<defs>
<linearGradient id="paint0_linear_1591_80693" x1="19.2123" y1="10.142" x2="3.22842" y2="14.4009" gradientUnits="userSpaceOnUse">
<stop stop-color="#00A0FF"/>
<stop offset="0.007" stop-color="#00A1FF"/>
<stop offset="0.26" stop-color="#00BEFF"/>
<stop offset="0.512" stop-color="#00D2FF"/>
<stop offset="0.76" stop-color="#00DFFF"/>
<stop offset="1" stop-color="#00E3FF"/>
</linearGradient>
<linearGradient id="paint1_linear_1591_80693" x1="28.9046" y1="19.2384" x2="9.41565" y2="19.2384" gradientUnits="userSpaceOnUse">
<stop stop-color="#FFE000"/>
<stop offset="0.409" stop-color="#FFBD00"/>
<stop offset="0.775" stop-color="#FFA500"/>
<stop offset="1" stop-color="#FF9C00"/>
</linearGradient>
<linearGradient id="paint2_linear_1591_80693" x1="21.65" y1="21.0876" x2="8.81813" y2="42.6845" gradientUnits="userSpaceOnUse">
<stop stop-color="#FF3A44"/>
<stop offset="1" stop-color="#C31162"/>
</linearGradient>
<linearGradient id="paint3_linear_1591_80693" x1="7.5294" y1="3.27316" x2="13.2541" y2="12.9187" gradientUnits="userSpaceOnUse">
<stop stop-color="#32A071"/>
<stop offset="0.069" stop-color="#2DA771"/>
<stop offset="0.476" stop-color="#15CF74"/>
<stop offset="0.801" stop-color="#06E775"/>
<stop offset="1" stop-color="#00F076"/>
</linearGradient>
<clipPath id="clip0_1591_80693">
<rect width="18.5936" height="20.72" fill="white" transform="translate(9.69019 8.87964)"/>
</clipPath>
</defs>
</svg>
