<svg width="37" height="38" viewBox="0 0 37 38" fill="none" xmlns="http://www.w3.org/2000/svg">
<rect x="0.486842" y="0.986842" width="36.0263" height="36.0263" rx="6.32895" fill="black"/>
<rect x="0.486842" y="0.986842" width="36.0263" height="36.0263" rx="6.32895" stroke="#A6A6A6" stroke-width="0.973684"/>
<path d="M24.8282 19.8816C24.8403 18.9845 25.0903 18.1049 25.555 17.3246C26.0197 16.5443 26.6839 15.8887 27.4858 15.4188C26.9764 14.7253 26.3043 14.1546 25.5229 13.7521C24.7416 13.3495 23.8725 13.1261 22.9847 13.0996C21.091 12.9101 19.255 14.1796 18.29 14.1796C17.3063 14.1796 15.8205 13.1184 14.2205 13.1498C13.1856 13.1816 12.177 13.4685 11.2929 13.9823C10.4089 14.4962 9.67961 15.2195 9.17611 16.0818C6.99502 19.6809 8.62191 24.9703 10.7112 27.8795C11.7565 29.304 12.9782 30.8953 14.5768 30.8389C16.141 30.777 16.7252 29.8882 18.6135 29.8882C20.4841 29.8882 21.0323 30.8389 22.6632 30.803C24.3418 30.777 25.3993 29.3721 26.408 27.9341C27.159 26.919 27.737 25.7972 28.1204 24.6101C27.1452 24.217 26.313 23.559 25.7276 22.7181C25.1421 21.8773 24.8293 20.8908 24.8282 19.8816Z" fill="white"/>
<path d="M21.6041 10.7614C22.5649 9.75639 23.0383 8.46461 22.9236 7.1604C21.4558 7.29474 20.0999 7.90604 19.1261 8.87249C18.65 9.34463 18.2854 9.8939 18.0531 10.4889C17.8207 11.0839 17.7252 11.713 17.7721 12.3402C18.5063 12.3468 19.2326 12.2081 19.8964 11.9346C20.5602 11.6612 21.1441 11.26 21.6041 10.7614Z" fill="white"/>
</svg>
