<svg width="24" height="26" viewBox="0 0 24 26" fill="none" xmlns="http://www.w3.org/2000/svg">
<ellipse cx="12.0001" cy="13.1326" rx="11.776" ry="11.6521" fill="#4F6EFD"/>
<path fill-rule="evenodd" clip-rule="evenodd" d="M10.9188 0.832197C9.48821 0.966526 7.88812 1.41788 6.64968 2.03646C4.65022 3.03515 2.9068 4.62871 1.7431 6.52128C1.32843 7.19566 1.12792 7.59665 0.818151 8.37115C-0.556471 11.8075 -0.184445 15.7563 1.82511 19.0608C3.20954 21.3373 5.4052 23.1921 7.79875 24.107C8.23683 24.2745 8.48359 24.3546 9.10093 24.5301C9.1782 24.552 9.18303 24.4376 9.18303 22.5839V20.6143L8.98365 20.6524C8.1559 20.8109 7.12755 20.5008 6.52649 19.9117C6.37106 19.7593 6.13997 19.4815 6.01297 19.2944C5.88593 19.1072 5.68696 18.8517 5.57081 18.7267C5.35716 18.4968 4.97847 18.2823 4.78486 18.2815C4.72683 18.2812 4.67832 18.2549 4.67714 18.223C4.67597 18.1911 4.64857 17.8778 4.61625 17.5267L4.55747 16.8885H4.77271C5.05306 16.8885 5.46328 16.9959 5.77085 17.1499C6.30627 17.4179 6.69805 17.7988 7.20252 18.5417C7.41663 18.8571 7.59903 19.0254 7.88746 19.174C8.12001 19.2938 8.66252 19.3139 9.0049 19.2155C9.22005 19.1536 9.22685 19.146 9.2762 18.9108C9.34343 18.5904 9.54704 18.173 9.81168 17.8132C9.93037 17.6518 10.0275 17.5061 10.0275 17.4895C10.0275 17.4728 9.83223 17.423 9.59353 17.3788C9.08325 17.2843 8.15492 16.9849 7.75361 16.7853C6.72081 16.2716 5.96423 15.5551 5.45849 14.6116C4.78167 13.349 4.68986 11.7952 5.20633 10.3438C5.39019 9.82713 5.52652 9.56372 5.84136 9.11697L6.10079 8.74884L6.02062 8.42072C5.83939 7.67895 5.87593 6.76961 6.11731 6.01358C6.22896 5.66384 6.23834 5.6507 6.35948 5.6741C6.42877 5.68751 6.61215 5.71248 6.76697 5.72961C7.27819 5.7861 7.83529 6.01943 8.77071 6.56877C9.35549 6.91225 9.28929 6.90445 10.1213 6.72705C11.4335 6.4473 12.908 6.48308 14.374 6.83028L14.6625 6.8986L15.1012 6.64248C16.1547 6.02732 16.7949 5.77635 17.5437 5.685L17.7649 5.65804L17.8797 6.01776C18.119 6.7671 18.1558 7.67654 17.9768 8.41757L17.8983 8.74248L18.1659 9.16023C18.8978 10.3029 19.1425 11.0589 19.1425 12.1773C19.1425 14.1877 18.0842 15.8691 16.2421 16.7853C15.8408 16.9849 14.9125 17.2843 14.4022 17.3788C14.1635 17.423 13.9682 17.4722 13.9682 17.4881C13.9682 17.5041 14.0766 17.6629 14.2091 17.841C14.3415 18.0192 14.5006 18.2728 14.5625 18.4047C14.7989 18.9078 14.811 19.0781 14.8119 21.9162C14.8126 24.4056 14.8173 24.5521 14.8948 24.5301C15.5121 24.3546 15.7589 24.2745 16.197 24.107C18.925 23.0642 21.2942 20.8868 22.6581 18.1689C24.2433 15.0102 24.4314 11.504 23.1831 8.38457C22.8677 7.59651 22.6687 7.19789 22.2526 6.52128C21.2522 4.89426 19.8516 3.50851 18.2071 2.51868C17.525 2.10813 17.1204 1.91012 16.3335 1.60187C14.6505 0.942575 12.6986 0.665099 10.9188 0.832197Z" fill="#DCE2FF"/>
<path d="M4.32008 15.5083L9.36008 17.8831L9.12008 22.1576L4.08008 20.7328L4.32008 15.5083Z" fill="#DCE2FF"/>
<ellipse cx="11.9998" cy="10.5209" rx="8.16" ry="7.36174" fill="#DCE2FF"/>
<path opacity="0.2" d="M17.8956 13.7252C18.1889 16.9793 15.5747 17.7512 12.2903 18.041C9.00589 18.3308 6.29495 18.0288 6.00169 14.7746C5.70844 11.5204 8.13325 8.6474 11.4177 8.35762C14.7021 8.06783 17.6024 10.471 17.8956 13.7252Z" fill="#4F6EFD"/>
<path fill-rule="evenodd" clip-rule="evenodd" d="M17.0169 7.3701C16.4257 8.39323 15.7495 9.00086 15.4126 9.22723C15.3762 9.2517 15.3742 9.30578 15.4092 9.33233C15.8434 9.66164 16.6678 10.4896 17.1368 11.6601L17.4318 10.3704C17.5186 9.99069 17.5192 9.59615 17.4334 9.21588L17.0169 7.3701Z" fill="#4F6EFD"/>
<path opacity="0.2" fill-rule="evenodd" clip-rule="evenodd" d="M10.1825 8.57173L7.94067 6.60131C7.83811 6.51117 7.67673 6.54782 7.62283 6.67351L6.78758 8.62113C6.63431 8.97851 6.5631 9.36526 6.57917 9.75305L6.64673 11.3838C6.23419 12.2298 6.04784 13.2158 6.14518 14.296C7.99241 16.0336 9.38745 15.1515 10.5404 14.4224C11.0352 14.1095 11.4855 13.8248 11.9077 13.7876C12.3393 13.7495 12.8547 14.1074 13.428 14.5055C14.7223 15.4043 16.3115 16.5078 17.8959 13.7196C17.8206 12.8848 17.5738 12.1059 17.193 11.4142L17.433 10.3649C17.5198 9.98517 17.5204 9.59063 17.4346 9.21036L16.969 7.14719C16.9389 7.01387 16.7872 6.94881 16.6701 7.01898L13.9274 8.66193C13.1467 8.38963 12.296 8.27462 11.4179 8.35209C10.9877 8.39005 10.5748 8.4642 10.1825 8.57173Z" fill="#4F6EFD"/>
<path fill-rule="evenodd" clip-rule="evenodd" d="M7.53414 6.88616C7.92891 7.99892 8.48335 8.71799 8.77338 9.00098C8.80471 9.03155 8.79681 9.08493 8.75758 9.10474C8.27036 9.35086 7.3077 10.0179 6.63272 11.0859L6.57787 9.76194C6.5618 9.37415 6.63301 8.9874 6.78628 8.63001L7.53414 6.88616Z" fill="#4F6EFD"/>
<path fill-rule="evenodd" clip-rule="evenodd" d="M12.4188 8.34925C12.4181 8.54008 12.4284 8.75013 12.449 8.97866C12.596 9.47328 12.643 9.9264 12.6823 10.3056C12.7589 11.0442 12.8064 11.5023 13.507 11.4404C14.5152 11.3513 14.4313 9.63134 13.9484 8.65323L13.9283 8.66524C13.4483 8.4977 12.9418 8.38965 12.4188 8.34925Z" fill="#4F6EFD"/>
<path fill-rule="evenodd" clip-rule="evenodd" d="M11.8918 8.37033C11.8719 8.56127 11.8388 8.77042 11.7934 8.99711C11.5938 9.47332 11.4982 9.91886 11.4182 10.2917C11.2623 11.0179 11.1656 11.4684 10.4757 11.3326C9.48172 11.137 9.75263 9.43179 10.3399 8.51126L10.357 8.52418C10.8523 8.40862 11.3675 8.35497 11.8918 8.37033Z" fill="#4F6EFD"/>
<ellipse cx="1.04129" cy="1.03188" rx="1.04129" ry="1.03188" transform="matrix(0.99612 -0.0880073 0.0896329 0.995975 8.34668 12.4478)" fill="#4F6EFD"/>
<ellipse cx="1.04129" cy="1.03188" rx="1.04129" ry="1.03188" transform="matrix(-0.99612 0.0880073 0.0896329 0.995975 15.3564 12.3823)" fill="#4F6EFD"/>
<ellipse cx="0.300817" cy="0.298099" rx="0.300817" ry="0.298099" transform="matrix(0.99612 -0.0880073 0.0896329 0.995975 9.54834 12.895)" fill="#4F6EFD"/>
<ellipse cx="0.300817" cy="0.298099" rx="0.300817" ry="0.298099" transform="matrix(-0.99612 0.0880073 0.0896329 0.995975 14.2544 13.0322)" fill="#4F6EFD"/>
<path d="M17.8956 13.7252C18.1889 16.9793 15.5747 17.7512 12.2903 18.041C9.00589 18.3308 6.29495 18.0288 6.00169 14.7746C5.70844 11.5204 8.13325 8.6474 11.4177 8.35762C14.7021 8.06783 17.6024 10.471 17.8956 13.7252Z" fill="#4F6EFD"/>
<path fill-rule="evenodd" clip-rule="evenodd" d="M10.1774 8.57365L7.94088 6.60792C7.83832 6.51777 7.67694 6.55443 7.62304 6.68011L6.78779 8.62773C6.63452 8.98511 6.56331 9.37187 6.57938 9.75965L6.63756 11.1639C6.14733 12.0298 5.91369 13.0609 6.01725 14.2101C7.87945 15.9618 9.34637 15.0969 10.5426 14.3916C11.0423 14.097 11.4947 13.8303 11.909 13.7937C12.3406 13.7557 12.856 14.1136 13.4292 14.5116C14.7236 15.4104 16.3127 16.514 17.8971 13.7258C17.8218 12.8903 17.5747 12.111 17.1934 11.4189L17.4332 10.3706C17.52 9.9908 17.5206 9.59627 17.4348 9.21599L16.9692 7.15282C16.9391 7.0195 16.7874 6.95444 16.6703 7.02462L13.9274 8.66768C13.1471 8.39568 12.2968 8.28082 11.4192 8.35826C10.9889 8.39622 10.5736 8.46882 10.1774 8.57365Z" fill="#4F6EFD"/>
<path fill-rule="evenodd" clip-rule="evenodd" d="M17.0169 7.3701C16.4257 8.39323 15.7495 9.00086 15.4126 9.22723C15.3762 9.2517 15.3742 9.30578 15.4092 9.33233C15.8434 9.66164 16.6678 10.4896 17.1368 11.6601L17.4318 10.3704C17.5186 9.99069 17.5192 9.59615 17.4334 9.21588L17.0169 7.3701Z" fill="#4F6EFD"/>
<path fill-rule="evenodd" clip-rule="evenodd" d="M7.53414 6.88616C7.92891 7.99892 8.48335 8.71799 8.77338 9.00098C8.80471 9.03155 8.79681 9.08493 8.75758 9.10474C8.27036 9.35086 7.3077 10.0179 6.63272 11.0859L6.57787 9.76194C6.5618 9.37415 6.63301 8.9874 6.78628 8.63001L7.53414 6.88616Z" fill="#4F6EFD"/>
<path fill-rule="evenodd" clip-rule="evenodd" d="M12.4188 8.34925C12.4181 8.54008 12.4284 8.75013 12.449 8.97866C12.596 9.47328 12.643 9.9264 12.6823 10.3056C12.7589 11.0442 12.8064 11.5023 13.507 11.4404C14.5152 11.3513 14.4313 9.63134 13.9484 8.65323L13.9283 8.66524C13.4483 8.4977 12.9418 8.38965 12.4188 8.34925Z" fill="#4F6EFD"/>
<path fill-rule="evenodd" clip-rule="evenodd" d="M11.8918 8.37033C11.8719 8.56127 11.8388 8.77042 11.7934 8.99711C11.5938 9.47332 11.4982 9.91886 11.4182 10.2917C11.2623 11.0179 11.1656 11.4684 10.4757 11.3326C9.48172 11.137 9.75263 9.43179 10.3399 8.51126L10.357 8.52418C10.8523 8.40862 11.3675 8.35497 11.8918 8.37033Z" fill="#4F6EFD"/>
<ellipse cx="1.04129" cy="1.03188" rx="1.04129" ry="1.03188" transform="matrix(0.99612 -0.0880073 0.0896329 0.995975 8.34668 12.4478)" fill="#4F6EFD"/>
<ellipse cx="1.0412" cy="1.03198" rx="1.0412" ry="1.03198" transform="matrix(1.00016 -5.19696e-09 -3.77483e-09 -0.999833 13.5815 14.439)" fill="#4F6EFD"/>
<ellipse cx="0.300817" cy="0.298099" rx="0.300817" ry="0.298099" transform="matrix(0.99612 -0.0880073 0.0896329 0.995975 9.27686 12.6113)" fill="#4F6EFD"/>
<ellipse cx="0.300817" cy="0.298099" rx="0.300817" ry="0.298099" transform="matrix(-0.99612 0.0880073 0.0896329 0.995975 14.9214 12.5576)" fill="#4F6EFD"/>
<path d="M11.6939 15.3234C11.8552 15.4386 12.0762 15.4191 12.2143 15.2775L12.8159 14.6604C12.8938 14.5805 12.8301 14.4467 12.7189 14.4565L11.0507 14.6039C10.9394 14.6137 10.9007 14.7566 10.9916 14.8216L11.6939 15.3234Z" fill="#4F6EFD"/>
<path fill-rule="evenodd" clip-rule="evenodd" d="M10.1973 8.59128L7.93913 6.60652C7.83657 6.51637 7.67519 6.55303 7.62129 6.67871L6.78604 8.62633C6.63278 8.98372 6.56157 9.37047 6.57763 9.75825L6.65045 11.5158C6.14034 12.4844 5.89488 13.6043 6.00023 14.7734C6.29349 18.0276 9.00443 18.3296 12.2888 18.0399C15.5733 17.7501 18.1874 16.9782 17.8942 13.724C17.8189 12.8891 17.5721 12.1101 17.1911 11.4183L17.4312 10.3687C17.518 9.98893 17.5186 9.59439 17.4328 9.21411L16.9672 7.15094C16.9371 7.01762 16.7855 6.95256 16.6683 7.02274L13.925 8.66608C13.1445 8.39395 12.2941 8.27904 11.4162 8.35649C10.9944 8.3937 10.5868 8.47352 10.1973 8.59128Z" fill="#4F6EFD"/>
<path d="M12.6043 15.7231C12.5533 15.9803 12.3882 16.188 12.1791 16.2868C12.0689 16.339 11.9448 16.3555 11.8235 16.3439C11.7002 16.3322 11.561 16.2941 11.4605 16.2013C11.4261 16.1695 11.4503 16.1056 11.4938 16.124C11.6 16.1689 11.6994 16.2199 11.812 16.2342C11.9258 16.2486 12.04 16.2328 12.1457 16.1909C12.3459 16.1114 12.5006 15.9332 12.5912 15.7173C12.5949 15.7083 12.6063 15.7131 12.6043 15.7231Z" fill="#4F6EFD"/>
<path d="M7.75726 6.58294L10.1893 8.7205L6.49224 12.0583L6.39603 9.73588C6.37993 9.34745 6.45128 8.95999 6.60482 8.60197L7.43965 6.65531C7.49356 6.5296 7.65478 6.49287 7.75726 6.58294Z" fill="#4F6EFD"/>
<path fill-rule="evenodd" clip-rule="evenodd" d="M7.62019 7.02096C8.01494 8.13359 8.56931 8.85261 8.85935 9.13563C8.89068 9.16621 8.88276 9.21967 8.84351 9.23949C8.35638 9.48559 7.39415 10.1523 6.71923 11.2198L6.66442 9.89668C6.64832 9.50825 6.71967 9.12079 6.87321 8.76277L7.62019 7.02096Z" fill="#4F6EFD"/>
</svg>
