<svg width="17" height="20" viewBox="0 0 17 20" fill="none" xmlns="http://www.w3.org/2000/svg">
<path d="M9.832 19.8012C12.958 19.1752 17 16.9262 17 11.1112C17 5.82017 13.127 2.29617 10.341 0.677175C9.724 0.317175 9 0.790175 9 1.50517V3.33318C9 4.77518 8.394 7.40718 6.71 8.50217C5.85 9.06117 4.92 8.22418 4.816 7.20418L4.73 6.36618C4.63 5.39218 3.638 4.80118 2.86 5.39517C1.461 6.46018 0 8.33017 0 11.1102C0 18.2212 5.289 20.0002 7.933 20.0002C8.087 20.0002 8.249 19.9942 8.417 19.9852C8.863 19.9292 8.417 20.0842 9.832 19.8002V19.8012Z" fill="#EFA30E"/>
<path opacity="0.5" d="M5 16.4439C5 19.0639 7.111 19.8739 8.417 19.9859C8.863 19.9299 8.417 20.0849 9.832 19.8009C10.871 19.4339 12 18.4919 12 16.4439C12 15.1469 11.181 14.3459 10.54 13.9709C10.344 13.8559 10.116 14.0009 10.099 14.2269C10.043 14.9449 9.353 15.5169 8.884 14.9709C8.469 14.4889 8.294 13.7839 8.294 13.3329V12.7429C8.294 12.3889 7.937 12.1529 7.631 12.3349C6.495 13.0079 5 14.3939 5 16.4439Z" fill="white"/>
</svg>
