<svg width="16" height="16" viewBox="0 0 16 16" fill="none" xmlns="http://www.w3.org/2000/svg">
<path d="M8 0C3.584 0 0 3.584 0 8C0 12.416 3.584 16 8 16C12.416 16 16 12.416 16 8C16 3.584 12.416 0 8 0Z" fill="#4F6EFD"/>
<path fill-rule="evenodd" clip-rule="evenodd" d="M6.31476 11.858L3.13295 8.441C2.95568 8.253 2.95568 7.947 3.13295 7.757L3.77568 7.074C3.95295 6.886 4.24113 6.886 4.4184 7.074L6.63657 9.466L11.5811 4.141C11.7584 3.953 12.0465 3.953 12.2238 4.141L12.8665 4.825C13.0438 5.013 13.0438 5.32 12.8665 5.507L6.95748 11.858C6.78021 12.046 6.49203 12.046 6.31476 11.858Z" fill="white"/>
</svg>
