<svg width="13" height="18" viewBox="0 0 13 18" fill="none" xmlns="http://www.w3.org/2000/svg">
    <path d="M0.840733 12.6089C0.899281 14.74 2.3864 17.3279 6.74239 17.3279C10.2436 17.3279 12.8314 15.6066 12.8314 12.4684C12.8314 9.81028 11.0515 8.67445 8.62764 8.06555L5.95784 7.38639C4.4473 7.02339 3.7213 6.23885 3.7213 5.16156C3.7213 3.58076 5.04449 2.67912 6.94145 2.67912C9.07261 2.67912 10.1733 3.83837 10.3021 5.26695H12.6323C12.5738 2.23415 9.92741 0.653351 6.97658 0.653351C3.9672 0.653351 1.29741 2.30441 1.29741 5.3372C1.29741 7.8899 3.14753 9.10771 5.13817 9.59951L7.83138 10.2787C9.57612 10.7119 10.3958 11.4028 10.3958 12.6674C10.3958 14.2717 9.08432 15.2904 6.95316 15.2904C4.61123 15.2904 3.3583 14.0609 3.21779 12.6089H0.840733Z" fill="white"/>
</svg>

