<svg width="51" height="51" viewBox="0 0 51 51" fill="none" xmlns="http://www.w3.org/2000/svg">
<g clip-path="url(#clip0_19107_7031)">
<mask id="mask0_19107_7031" style="mask-type:luminance" maskUnits="userSpaceOnUse" x="-10" y="-10" width="71" height="71">
<path d="M60.2441 -9.06982H-9.58984V60.7642H60.2441V-9.06982Z" fill="white"/>
</mask>
<g mask="url(#mask0_19107_7031)">
<path d="M60.2441 -9.06982H-9.58984V60.7642H60.2441V-9.06982Z" fill="url(#paint0_linear_19107_7031)"/>
<path d="M22.2676 13.963C24.0064 13.3624 25.9129 13.3624 27.6518 13.97C26.8627 13.0132 25.9478 12.2102 24.9562 11.5537C23.9645 12.2102 23.0497 13.0132 22.2676 13.963Z" fill="#2644D2"/>
<path d="M22.2676 13.963C24.0064 13.3624 25.9129 13.3624 27.6518 13.97C26.8627 13.0132 25.9478 12.2102 24.9562 11.5537C23.9645 12.2102 23.0497 13.0132 22.2676 13.963Z" stroke="#2644D2" stroke-width="0.419004" stroke-miterlimit="10" stroke-linecap="round" stroke-linejoin="round"/>
<path d="M27.8825 41.0845C27.8825 42.3834 27.6102 43.6264 27.1074 44.8904C27.0934 44.9323 27.0724 44.9742 27.0515 45.0231C26.5487 46.2243 25.8294 47.4254 24.9565 48.1307C24.0556 47.4045 23.3223 46.1544 22.8126 44.9184C22.8056 44.9114 22.8056 44.9044 22.7986 44.8904C22.2958 43.6264 22.0234 42.3834 22.0234 41.0845C22.0234 40.6864 22.0514 40.2954 22.1003 39.8903C22.2679 38.5355 23.1897 36.9014 24.3419 36.7268C24.3559 36.7268 24.3699 36.7199 24.3838 36.7199C24.747 36.678 25.1171 36.678 25.4802 36.7129C25.4942 36.7129 25.5151 36.7129 25.5291 36.7199C26.7023 36.8665 27.6451 38.5216 27.8127 39.8903C27.8546 40.2954 27.8825 40.6864 27.8825 41.0845Z" fill="#EFA30E"/>
<path d="M27.8825 41.0845C27.8825 42.3834 27.6102 43.6264 27.1074 44.8904C27.0934 44.9323 27.0724 44.9742 27.0515 45.0231C26.5487 46.2243 25.8294 47.4254 24.9565 48.1307C24.0556 47.4045 23.3223 46.1544 22.8126 44.9184C22.8056 44.9114 22.8056 44.9044 22.7986 44.8904C22.2958 43.6264 22.0234 42.3834 22.0234 41.0845C22.0234 40.6864 22.0514 40.2954 22.1003 39.8903C22.2679 38.5355 23.1897 36.9014 24.3419 36.7268C24.3559 36.7268 24.3699 36.7199 24.3838 36.7199C24.747 36.678 25.1171 36.678 25.4802 36.7129C25.4942 36.7129 25.5151 36.7129 25.5291 36.7199C26.7023 36.8665 27.6451 38.5216 27.8127 39.8903C27.8546 40.2954 27.8825 40.6864 27.8825 41.0845Z" stroke="#2644D2" stroke-width="0.419004" stroke-miterlimit="10" stroke-linecap="round" stroke-linejoin="round"/>
<path d="M60.2438 48.2793C59.1824 48.5935 58.3164 49.3687 57.8834 50.3743C57.0454 50.074 56.1376 49.9064 55.1948 49.9064C52.4015 49.9064 49.9433 51.345 48.5187 53.5168C47.7785 53.1676 46.9544 52.9791 46.0815 52.9791C45.6974 52.9791 45.3273 53.014 44.9711 53.0908C44.9711 53.0559 44.9711 53.021 44.9711 52.9791C44.9711 51.1983 43.7141 49.7109 42.0451 49.3547C41.4026 47.1549 39.3774 45.5418 36.9682 45.5418C34.9639 45.5418 33.2181 46.6591 32.3242 48.3002C31.7027 47.7206 30.8717 47.3575 29.9568 47.3575C29.4331 47.3575 28.9373 47.4762 28.4903 47.6787C27.9456 46.8337 27.4638 45.9468 27.0517 45.011C26.0322 42.7065 25.4665 40.1366 25.4665 37.441C25.4665 37.1966 25.4735 36.9592 25.4805 36.7148C25.5992 33.5932 26.4721 30.6671 27.9316 28.1112H21.891C23.3505 30.6671 24.2235 33.6002 24.3422 36.7217C24.3492 36.9592 24.3561 37.1966 24.3561 37.434C24.3561 40.0877 23.8045 42.6227 22.8128 44.9133C22.1634 46.4077 21.3323 47.8044 20.3337 49.0684C19.4887 48.0209 18.1968 47.3575 16.7512 47.3575C15.2987 47.3575 14.0067 48.0279 13.1618 49.0754C12.4844 48.6773 11.7022 48.4469 10.8572 48.4469C9.50246 48.4469 8.28036 49.0474 7.44934 49.9902C6.22026 48.1675 4.13921 46.9664 1.77882 46.9664C-1.99222 46.9664 -5.05093 50.0251 -5.05093 53.7961C-5.05093 53.8171 -5.05093 53.838 -5.05093 53.859C-7.60685 55.1579 -9.40159 57.7418 -9.57617 60.7656H6.90463H40.6973H60.2438V48.2793Z" fill="#F1F1F1"/>
<path d="M24.6343 36.7058C23.9779 36.7896 23.4541 37.7114 23.3564 38.4726C23.3284 38.696 23.3145 38.9125 23.3145 39.136C23.3145 39.8623 23.4681 40.5536 23.7474 41.2589C24.0268 41.9503 24.4458 42.6556 24.9486 43.0607C25.4584 42.6556 25.8704 41.9503 26.1497 41.2589C26.429 40.5536 26.5827 39.8623 26.5827 39.136C26.5827 38.9125 26.5687 38.696 26.5408 38.4726C26.443 37.7044 25.9193 36.7896 25.2628 36.7058C25.0603 36.6848 24.8438 36.6848 24.6343 36.7058Z" fill="#AE000A"/>
<path d="M24.6343 36.7058C23.9779 36.7896 23.4541 37.7114 23.3564 38.4726C23.3284 38.696 23.3145 38.9125 23.3145 39.136C23.3145 39.8623 23.4681 40.5536 23.7474 41.2589C24.0268 41.9503 24.4458 42.6556 24.9486 43.0607C25.4584 42.6556 25.8704 41.9503 26.1497 41.2589C26.429 40.5536 26.5827 39.8623 26.5827 39.136C26.5827 38.9125 26.5687 38.696 26.5408 38.4726C26.443 37.7044 25.9193 36.7896 25.2628 36.7058C25.0603 36.6848 24.8438 36.6848 24.6343 36.7058Z" stroke="#2644D2" stroke-width="0.419004" stroke-miterlimit="10" stroke-linecap="round" stroke-linejoin="round"/>
<path d="M16.5266 26.0416L14.25 26.9285V22.6058L21.2404 17.1517V25.3293L19.5504 26.2162C18.6495 25.7413 17.5531 25.6435 16.5266 26.0416Z" fill="#738BFB"/>
<path d="M13.5091 28.059C12.7968 27.0254 12.3848 25.8034 12.3848 24.4975C12.3848 22.8424 13.0342 21.327 14.1166 20.1608C15.1991 21.327 15.8555 22.8424 15.8625 24.4975C15.8625 25.8103 15.4505 27.0254 14.7452 28.059H13.5091Z" fill="#4F6EFD"/>
<path opacity="0.72" d="M14.25 26.9308L16.5126 26.0509C16.5406 25.4503 16.4987 24.8358 16.3869 24.2213C16.2193 23.2995 15.9051 22.4335 15.4721 21.6514L14.25 22.6081V26.9308Z" fill="url(#paint1_linear_19107_7031)"/>
<path opacity="0.23" d="M14.5433 23.8139L21.2474 18.5903V17.1517L14.25 22.5988V26.9285L14.5433 26.8168V23.8139Z" fill="#EFA30E"/>
<path opacity="0.72" d="M18.4622 25.8461C18.8463 25.9089 19.2094 26.0346 19.5516 26.2162L21.2416 25.3293V17.1517L18.2946 19.4493C18.148 20.3362 18.0781 21.265 18.0781 22.2217C18.0851 23.4857 18.2178 24.7078 18.4622 25.8461Z" fill="url(#paint2_linear_19107_7031)"/>
<path d="M16.5266 26.0416L14.25 26.9285V22.6058L21.2404 17.1517V25.3293L19.5504 26.2162C18.6495 25.7413 17.5531 25.6435 16.5266 26.0416Z" stroke="#2644D2" stroke-width="0.419004" stroke-miterlimit="10" stroke-linecap="round" stroke-linejoin="round"/>
<path d="M13.5091 28.059C12.7968 27.0254 12.3848 25.8034 12.3848 24.4975C12.3848 22.8424 13.0342 21.327 14.1166 20.1608C15.1991 21.327 15.8555 22.8424 15.8625 24.4975C15.8625 25.8103 15.4505 27.0254 14.7452 28.059H13.5091Z" fill="#4F6EFD"/>
<path opacity="0.23" d="M14.0134 20.1608C14.0972 20.2516 14.181 20.3493 14.2578 20.4471C13.5316 21.5644 13.1126 22.8773 13.1056 24.274C13.1056 25.6567 13.3151 26.9486 14.0274 28.066H13.3849C12.6796 27.0324 12.2676 25.8103 12.2676 24.5044C12.2746 22.8424 12.931 21.327 14.0134 20.1608Z" fill="#EFA30E"/>
<path opacity="0.32" d="M14.0134 20.1608C14.0414 20.1887 14.0693 20.2236 14.0972 20.2585C13.2802 21.4667 12.8123 22.8843 12.8053 24.4067C12.8053 25.7265 13.1615 26.9696 13.783 28.066H13.3849C12.6796 27.0324 12.2676 25.8103 12.2676 24.5044C12.2746 22.8424 12.931 21.327 14.0134 20.1608Z" fill="#EFA30E"/>
<path opacity="0.37" d="M15.8653 24.4975C15.8653 22.8424 15.2088 21.334 14.1194 20.1608C14.0356 20.2516 13.9518 20.3493 13.875 20.4471C14.6013 21.5644 15.0203 22.8773 15.0273 24.274C15.0273 25.6567 14.6222 26.9486 13.9099 28.066H14.7479C15.4532 27.0254 15.8653 25.8034 15.8653 24.4975Z" fill="url(#paint3_linear_19107_7031)"/>
<path opacity="0.72" d="M15.8648 24.4975C15.8648 22.8424 15.2084 21.334 14.119 20.1608C14.091 20.1887 14.0631 20.2236 14.0352 20.2585C14.8522 21.4667 15.3201 22.8843 15.3271 24.4067C15.3271 25.7265 14.9709 26.9696 14.3494 28.066H14.7475C15.4528 27.0254 15.8648 25.8034 15.8648 24.4975Z" fill="url(#paint4_linear_19107_7031)"/>
<path opacity="0.37" d="M14.1194 20.1608C14.0356 20.2516 13.9518 20.3493 13.875 20.4471C14.6013 21.5644 15.0203 22.8773 15.0273 24.274C15.0273 25.6567 14.6222 26.9486 13.9099 28.066H14.7479C15.4532 27.0324 15.8653 25.8103 15.8653 24.5044C15.8583 22.8424 15.2018 21.327 14.1194 20.1608Z" fill="url(#paint5_linear_19107_7031)"/>
<path opacity="0.72" d="M14.119 20.1608C14.091 20.1887 14.0631 20.2236 14.0352 20.2585C14.8522 21.4667 15.3201 22.8843 15.3271 24.4067C15.3271 25.7265 14.9709 26.9696 14.3494 28.066H14.7475C15.4528 27.0324 15.8648 25.8103 15.8648 24.5044C15.8578 22.8424 15.2014 21.327 14.119 20.1608Z" fill="url(#paint6_linear_19107_7031)"/>
<path d="M14.9139 21.4205C14.6555 20.9666 14.3483 20.5476 13.9921 20.1565C13.636 20.5406 13.3287 20.9666 13.0703 21.4205H14.9139Z" fill="#2644D2"/>
<path d="M13.5091 28.059C12.7968 27.0254 12.3848 25.8034 12.3848 24.4975C12.3848 22.8424 13.0342 21.327 14.1166 20.1608C15.1991 21.327 15.8555 22.8424 15.8625 24.4975C15.8625 25.8103 15.4505 27.0254 14.7452 28.059H13.5091Z" stroke="#2644D2" stroke-width="0.419004" stroke-miterlimit="10" stroke-linecap="round" stroke-linejoin="round"/>
<path d="M22.5815 33.4525C22.5815 33.4525 21.7365 33.634 20.5214 34.8491C20.0814 35.2891 19.3901 36.183 18.8803 36.8604C18.6708 37.1397 18.2238 37 18.2168 36.6509L18.0492 29.2135C18.0143 29.004 18.0702 28.7875 18.2029 28.6269L20.0325 26.3503L22.5815 33.4525Z" fill="#4F6EFD"/>
<path opacity="0.32" d="M18.2029 36.7975C18.6009 36.7416 18.9012 36.3994 18.9082 35.9944L18.985 29.0808C18.9501 28.8713 19.006 28.6549 19.1386 28.4942L20.2839 27.0626L20.0255 26.3503L18.2029 28.6199C18.0702 28.7875 18.0143 28.997 18.0492 29.2065L18.2029 36.7975Z" fill="#EFA30E"/>
<path opacity="0.72" d="M22.5811 33.4525L20.0321 26.3503L19.0195 27.6143C19.5642 29.7094 20.4232 31.8393 21.5824 33.9622C22.197 33.5363 22.5811 33.4525 22.5811 33.4525Z" fill="url(#paint7_linear_19107_7031)"/>
<path d="M22.5815 33.4525C22.5815 33.4525 21.7365 33.634 20.5214 34.8491C20.0814 35.2891 19.3901 36.183 18.8803 36.8604C18.6708 37.1397 18.2238 37 18.2168 36.6509L18.0492 29.2135C18.0143 29.004 18.0702 28.7875 18.2029 28.6269L20.0325 26.3503L22.5815 33.4525Z" stroke="#2644D2" stroke-width="0.419004" stroke-miterlimit="10" stroke-linecap="round" stroke-linejoin="round"/>
<path d="M12.8477 27.1396H15.1452" stroke="#2644D2" stroke-width="0.279336" stroke-miterlimit="10" stroke-linecap="round" stroke-linejoin="round"/>
<path d="M13.5091 28.059C12.7968 27.0254 12.3848 25.8034 12.3848 24.4975C12.3848 22.8424 13.0342 21.327 14.1166 20.1608C15.1991 21.327 15.8555 22.8424 15.8625 24.4975C15.8625 25.8103 15.4505 27.0254 14.7452 28.059H13.5091Z" fill="#4F6EFD"/>
<path d="M13.5091 28.059C12.7968 27.0254 12.3848 25.8034 12.3848 24.4975C12.3848 22.8424 13.0342 21.327 14.1166 20.1608C15.1991 21.327 15.8555 22.8424 15.8625 24.4975C15.8625 25.8103 15.4505 27.0254 14.7452 28.059H13.5091Z" fill="#4F6EFD"/>
<path opacity="0.23" d="M14.0134 20.1608C14.0972 20.2516 14.181 20.3493 14.2578 20.4471C13.5316 21.5644 13.1126 22.8773 13.1056 24.274C13.1056 25.6567 13.3151 26.9486 14.0274 28.066H13.3849C12.6796 27.0324 12.2676 25.8103 12.2676 24.5044C12.2746 22.8424 12.931 21.327 14.0134 20.1608Z" fill="#EFA30E"/>
<path opacity="0.32" d="M14.0134 20.1608C14.0414 20.1887 14.0693 20.2236 14.0972 20.2585C13.2802 21.4667 12.8123 22.8843 12.8053 24.4067C12.8053 25.7265 13.1615 26.9696 13.783 28.066H13.3849C12.6796 27.0324 12.2676 25.8103 12.2676 24.5044C12.2746 22.8424 12.931 21.327 14.0134 20.1608Z" fill="#EFA30E"/>
<path opacity="0.37" d="M15.8653 24.4975C15.8653 22.8424 15.2088 21.334 14.1194 20.1608C14.0356 20.2516 13.9518 20.3493 13.875 20.4471C14.6013 21.5644 15.0203 22.8773 15.0273 24.274C15.0273 25.6567 14.6222 26.9486 13.9099 28.066H14.7479C15.4532 27.0254 15.8653 25.8034 15.8653 24.4975Z" fill="url(#paint8_linear_19107_7031)"/>
<path opacity="0.72" d="M15.8648 24.4975C15.8648 22.8424 15.2084 21.334 14.119 20.1608C14.091 20.1887 14.0631 20.2236 14.0352 20.2585C14.8522 21.4667 15.3201 22.8843 15.3271 24.4067C15.3271 25.7265 14.9709 26.9696 14.3494 28.066H14.7475C15.4528 27.0254 15.8648 25.8034 15.8648 24.4975Z" fill="url(#paint9_linear_19107_7031)"/>
<path opacity="0.37" d="M14.1194 20.1608C14.0356 20.2516 13.9518 20.3493 13.875 20.4471C14.6013 21.5644 15.0203 22.8773 15.0273 24.274C15.0273 25.6567 14.6222 26.9486 13.9099 28.066H14.7479C15.4532 27.0324 15.8653 25.8103 15.8653 24.5044C15.8583 22.8424 15.2018 21.327 14.1194 20.1608Z" fill="url(#paint10_linear_19107_7031)"/>
<path opacity="0.72" d="M14.119 20.1608C14.091 20.1887 14.0631 20.2236 14.0352 20.2585C14.8522 21.4667 15.3201 22.8843 15.3271 24.4067C15.3271 25.7265 14.9709 26.9696 14.3494 28.066H14.7475C15.4528 27.0324 15.8648 25.8103 15.8648 24.5044C15.8578 22.8424 15.2014 21.327 14.119 20.1608Z" fill="url(#paint11_linear_19107_7031)"/>
<path d="M15.0409 21.4205C14.7825 20.9666 14.4752 20.5476 14.1191 20.1565C13.7629 20.5406 13.4557 20.9666 13.1973 21.4205H15.0409Z" fill="#2644D2"/>
<path d="M13.5091 28.059C12.7968 27.0254 12.3848 25.8034 12.3848 24.4975C12.3848 22.8424 13.0342 21.327 14.1166 20.1608C15.1991 21.327 15.8555 22.8424 15.8625 24.4975C15.8625 25.8103 15.4505 27.0254 14.7452 28.059H13.5091Z" stroke="#2644D2" stroke-width="0.419004" stroke-miterlimit="10" stroke-linecap="round" stroke-linejoin="round"/>
<path d="M12.8477 27.1396H15.1452" stroke="#2644D2" stroke-width="0.279336" stroke-miterlimit="10" stroke-linecap="round" stroke-linejoin="round"/>
<path d="M32.9736 26.0416L35.2501 26.9285V22.6058L28.2598 17.1517V25.3293L29.9497 26.2162C30.8506 25.7413 31.947 25.6435 32.9736 26.0416Z" fill="#738BFB"/>
<path opacity="0.72" d="M35.2495 26.9308L32.9869 26.0509C32.959 25.4503 33.0009 24.8358 33.1126 24.2213C33.2802 23.2995 33.5944 22.4335 34.0274 21.6514L35.2495 22.6081V26.9308Z" fill="url(#paint12_linear_19107_7031)"/>
<path opacity="0.23" d="M34.9638 23.8139L28.2598 18.5903V17.1517L35.2501 22.5988V26.9285L34.9638 26.8168V23.8139Z" fill="#EFA30E"/>
<path opacity="0.72" d="M31.0392 25.8461C30.6551 25.9089 30.2919 26.0346 29.9497 26.2162L28.2598 25.3293V17.1517L31.2068 19.4493C31.3534 20.3362 31.4232 21.265 31.4232 22.2217C31.4232 23.4857 31.2906 24.7078 31.0392 25.8461Z" fill="url(#paint13_linear_19107_7031)"/>
<path d="M32.9736 26.0416L35.2501 26.9285V22.6058L28.2598 17.1517V25.3293L29.9497 26.2162C30.8506 25.7413 31.947 25.6435 32.9736 26.0416Z" stroke="#2644D2" stroke-width="0.419004" stroke-miterlimit="10" stroke-linecap="round" stroke-linejoin="round"/>
<path d="M26.9258 33.4525C26.9258 33.4525 27.7708 33.634 28.9859 34.8491C29.4258 35.2891 30.1172 36.183 30.627 36.8604C30.8365 37.1397 31.2834 37 31.2904 36.6509L31.458 29.2135C31.4929 29.004 31.4371 28.7875 31.3044 28.6269L29.4747 26.3503L26.9258 33.4525Z" fill="#4F6EFD"/>
<path opacity="0.72" d="M31.2978 36.7975C30.8998 36.7416 30.5995 36.3994 30.5925 35.9944L30.5157 29.0808C30.5506 28.8713 30.4948 28.6549 30.3621 28.4942L29.2168 27.0626L29.4752 26.3503L31.3048 28.6269C31.4375 28.7945 31.4934 29.004 31.4585 29.2135L31.2978 36.7975Z" fill="url(#paint14_linear_19107_7031)"/>
<path opacity="0.72" d="M26.9258 33.4525L29.4747 26.3503L30.4873 27.6143C29.9426 29.7094 29.0837 31.8393 27.9244 33.9622C27.3099 33.5363 26.9258 33.4525 26.9258 33.4525Z" fill="url(#paint15_linear_19107_7031)"/>
<path d="M26.9258 33.4525C26.9258 33.4525 27.7708 33.634 28.9859 34.8491C29.4258 35.2891 30.1172 36.183 30.627 36.8604C30.8365 37.1397 31.2834 37 31.2904 36.6509L31.458 29.2135C31.4929 29.004 31.4371 28.7875 31.3044 28.6269L29.4747 26.3503L26.9258 33.4525Z" stroke="#2644D2" stroke-width="0.419004" stroke-miterlimit="10" stroke-linecap="round" stroke-linejoin="round"/>
<path d="M26.892 37.4482C26.9688 36.6172 26.8571 35.8351 25.4604 33.775C25.23 33.4468 24.6783 33.4468 24.4478 33.775C23.0511 35.8421 22.9394 36.6242 23.0162 37.4482C23.0302 37.553 23.2187 37.6717 23.3375 37.6298C24.1406 37.2178 25.7677 37.2178 26.5708 37.6298C26.6895 37.6717 26.8781 37.56 26.892 37.4482Z" fill="#4F6EFD"/>
<g opacity="0.32">
<g opacity="0.32">
<g opacity="0.32">
<path opacity="0.32" d="M23.7196 37.4474C23.6428 36.6163 23.7545 35.8342 25.1512 33.7741C25.1931 33.7112 25.249 33.6624 25.3048 33.6274C25.0395 33.4529 24.6344 33.5017 24.4459 33.7741C23.0492 35.8412 22.9375 36.6233 23.0143 37.4474C23.0282 37.5521 23.2168 37.6708 23.3355 37.6289C23.4542 37.5731 23.5869 37.5172 23.7266 37.4753C23.7266 37.4683 23.7196 37.4613 23.7196 37.4474Z" fill="#EFA30E"/>
</g>
<g opacity="0.32">
<path opacity="0.32" d="M25.3066 37.3375C25.7885 37.3724 26.2424 37.4701 26.5706 37.6308C26.6754 37.6727 26.843 37.5749 26.8849 37.4771C26.424 37.3445 25.8513 37.2956 25.3066 37.3375Z" fill="#EFA30E"/>
</g>
</g>
</g>
<path d="M24.6898 33.7767C24.6689 33.7487 24.6479 33.7278 24.627 33.7068C24.8853 33.4484 25.3672 33.4764 25.5767 33.7767C26.9734 35.8437 27.0851 36.6258 27.0083 37.4499C26.9943 37.5546 26.8058 37.6734 26.6871 37.6315C26.5264 37.5477 26.3309 37.4848 26.1214 37.436C26.1982 36.6119 26.0795 35.8298 24.6898 33.7767Z" fill="#738BFB"/>
<path d="M26.892 37.4482C26.9688 36.6172 26.8571 35.8351 25.4604 33.775C25.23 33.4468 24.6783 33.4468 24.4478 33.775C23.0511 35.8421 22.9394 36.6242 23.0162 37.4482C23.0302 37.553 23.2187 37.6717 23.3375 37.6298C24.1406 37.2178 25.7677 37.2178 26.5708 37.6298C26.6895 37.6717 26.8781 37.56 26.892 37.4482Z" stroke="#2644D2" stroke-width="0.419004" stroke-miterlimit="10" stroke-linecap="round" stroke-linejoin="round"/>
<path d="M26.5283 34.9393C29.8175 29.5551 31.0116 24.2686 30.2714 19.8621C29.6289 16.0352 27.5618 13.2768 24.95 11.5519C22.3383 13.2768 20.2712 16.0352 19.6287 19.8621C18.8885 24.2686 20.0896 29.5551 23.3718 34.9393H26.5283Z" fill="#4F6EFD"/>
<path opacity="0.23" d="M22.1288 19.9405C22.5478 16.4767 23.6372 13.7253 25.1037 11.6652C25.0548 11.6303 24.9989 11.5953 24.95 11.5604C22.3383 13.2853 20.2712 16.0438 19.6287 19.8707C18.8885 24.2772 20.0896 29.5636 23.3718 34.9478H24.0352C22.2126 29.5636 21.598 24.3889 22.1288 19.9405Z" fill="#EFA30E"/>
<path opacity="0.37" d="M30.2713 19.861C29.6359 16.062 27.5967 13.3176 25.0059 11.5927C25.4877 12.3678 26.1023 13.4852 26.619 14.9028C27.5618 17.4797 27.6665 19.6026 27.7224 20.9364C27.9738 26.9352 25.6763 33.5694 25.1944 34.9451H26.5282C29.8174 29.554 31.0116 24.2675 30.2713 19.861Z" fill="url(#paint16_linear_19107_7031)"/>
<path opacity="0.72" d="M30.2719 19.8621C29.6294 16.0352 27.5624 13.2768 24.9506 11.5519C24.8807 11.5938 24.8179 11.6427 24.748 11.6846C25.7397 12.4597 26.4939 13.2907 27.0665 14.0869C32.2063 21.2379 27.276 31.9434 26.5986 33.361C26.5707 32.3973 26.445 31.2032 26.0889 29.8693C25.8584 29.0174 25.5791 28.2701 25.2997 27.6346C25.195 30.002 25.0902 32.3694 24.9855 34.7368H25.8514C25.8305 34.8066 25.8095 34.8694 25.7816 34.9393H26.5148C29.818 29.5551 31.0122 24.2686 30.2719 19.8621Z" fill="url(#paint17_linear_19107_7031)"/>
<path opacity="0.32" d="M20.5075 21.077C20.6052 19.9596 20.9684 16.3283 23.2101 13.3464C23.5662 12.8785 24.0969 12.243 24.055 12.2081C23.9922 12.1522 22.7631 13.2626 21.8902 14.4428C20.7938 15.9163 19.9907 17.725 19.6346 19.8619C18.8943 24.2684 20.0955 29.5548 23.3777 34.939H23.664C22.7631 33.1443 22.1695 31.5242 21.7645 30.2462C21.4991 29.3872 21.0312 27.8649 20.7379 25.8257C20.5494 24.457 20.3399 22.9904 20.5075 21.077Z" fill="#EFA30E"/>
<path opacity="0.72" d="M25.3272 22.5164C26.3763 22.5164 27.2267 21.666 27.2267 20.6169C27.2267 19.5678 26.3763 18.7174 25.3272 18.7174C24.2782 18.7174 23.4277 19.5678 23.4277 20.6169C23.4277 21.666 24.2782 22.5164 25.3272 22.5164Z" fill="url(#paint18_linear_19107_7031)" stroke="url(#paint19_linear_19107_7031)" stroke-width="0.419004" stroke-miterlimit="10" stroke-linecap="round" stroke-linejoin="round"/>
<path d="M26.5283 34.9393C29.8175 29.5551 31.0116 24.2686 30.2714 19.8621C29.6289 16.0352 27.5618 13.2768 24.95 11.5519C22.3383 13.2768 20.2712 16.0352 19.6287 19.8621C18.8885 24.2686 20.0896 29.5551 23.3718 34.9393H26.5283Z" stroke="#2644D2" stroke-width="0.419004" stroke-miterlimit="10" stroke-linecap="round" stroke-linejoin="round"/>
<path d="M26.8256 20.6277C26.9936 19.5922 26.2904 18.6164 25.2548 18.4484C24.2193 18.2803 23.2436 18.9835 23.0756 20.019C22.9075 21.0546 23.6107 22.0303 24.6462 22.1984C25.6818 22.3664 26.6575 21.6632 26.8256 20.6277Z" fill="#A4B4FF"/>
<path opacity="0.93" d="M24.6902 21.3639C25.3227 21.3639 25.8355 20.8511 25.8355 20.2186C25.8355 19.5862 25.3227 19.0734 24.6902 19.0734C24.0577 19.0734 23.5449 19.5862 23.5449 20.2186C23.5449 20.8511 24.0577 21.3639 24.6902 21.3639Z" fill="#EFF2FE"/>
<path d="M26.8256 20.6277C26.9936 19.5922 26.2904 18.6164 25.2548 18.4484C24.2193 18.2803 23.2436 18.9835 23.0756 20.019C22.9075 21.0546 23.6107 22.0303 24.6462 22.1984C25.6818 22.3664 26.6575 21.6632 26.8256 20.6277Z" stroke="#2644D2" stroke-width="0.419004" stroke-miterlimit="10" stroke-linecap="round" stroke-linejoin="round"/>
<path d="M24.9482 38.2083C25.025 38.2083 25.0878 38.1245 25.0948 38.0128L25.6186 29.4651C25.6744 28.5852 25.3951 27.7681 24.9831 27.5726C24.9552 27.5586 24.9272 27.5586 24.9063 27.5726C24.4942 27.7612 24.2149 28.5782 24.2708 29.4651L24.7945 38.0128C24.8085 38.1245 24.8783 38.2083 24.9482 38.2083Z" fill="#A4B4FF"/>
<path opacity="0.74" d="M24.9482 38.2083C25.025 38.2083 25.0878 38.1245 25.0948 38.0128L25.6186 29.4651C25.6744 28.5852 25.3951 27.7681 24.9831 27.5726C24.9552 27.5586 24.9272 27.5586 24.9063 27.5726C24.4942 27.7612 24.2149 28.5782 24.2708 29.4651L24.7945 38.0128C24.8085 38.1245 24.8783 38.2083 24.9482 38.2083Z" fill="url(#paint20_linear_19107_7031)"/>
<g opacity="0.53">
<g opacity="0.53">
<g opacity="0.53">
<path opacity="0.53" d="M24.916 27.569C24.504 27.7575 24.2247 28.5746 24.2805 29.4615L24.8043 38.0092C24.8113 38.0999 24.8532 38.1768 24.909 38.1977V27.569H24.916Z" fill="#EFA30E"/>
</g>
<g opacity="0.53">
<path opacity="0.53" d="M24.916 27.5697H24.9928C24.9649 27.5557 24.937 27.5557 24.916 27.5697Z" fill="#EFA30E"/>
</g>
</g>
</g>
<path d="M24.9482 38.2083C25.025 38.2083 25.0878 38.1245 25.0948 38.0128L25.6186 29.4651C25.6744 28.5852 25.3951 27.7681 24.9831 27.5726C24.9552 27.5586 24.9272 27.5586 24.9063 27.5726C24.4942 27.7612 24.2149 28.5782 24.2708 29.4651L24.7945 38.0128C24.8085 38.1245 24.8783 38.2083 24.9482 38.2083Z" stroke="#2644D2" stroke-width="0.419004" stroke-miterlimit="10" stroke-linecap="round" stroke-linejoin="round"/>
<path d="M35.2025 28.059C34.4901 27.0254 34.0781 25.8034 34.0781 24.4975C34.0781 22.8424 34.7276 21.327 35.81 20.1608C36.8924 21.327 37.5489 22.8424 37.5559 24.4975C37.5559 25.8103 37.1438 27.0254 36.4385 28.059H35.2025Z" fill="#4F6EFD"/>
<path d="M35.2025 28.059C34.4901 27.0254 34.0781 25.8034 34.0781 24.4975C34.0781 22.8424 34.7276 21.327 35.81 20.1608C36.8924 21.327 37.5489 22.8424 37.5559 24.4975C37.5559 25.8103 37.1438 27.0254 36.4385 28.059H35.2025Z" fill="#4F6EFD"/>
<path opacity="0.23" d="M35.7107 20.1608C35.7945 20.2516 35.8783 20.3493 35.9551 20.4471C35.2288 21.5644 34.8098 22.8773 34.8029 24.274C34.8029 25.6567 35.0124 26.9486 35.7247 28.066H35.0822C34.3769 27.0324 33.9648 25.8103 33.9648 24.5044C33.9648 22.8424 34.6213 21.327 35.7107 20.1608Z" fill="#EFA30E"/>
<path opacity="0.32" d="M35.7107 20.1608C35.7386 20.1887 35.7666 20.2236 35.7945 20.2585C34.9774 21.4667 34.5095 22.8843 34.5026 24.4067C34.5026 25.7265 34.8587 26.9696 35.4802 28.066H35.0822C34.3769 27.0324 33.9648 25.8103 33.9648 24.5044C33.9648 22.8424 34.6213 21.327 35.7107 20.1608Z" fill="#EFA30E"/>
<path opacity="0.37" d="M37.5547 24.4975C37.5547 22.8424 36.8983 21.334 35.8089 20.1608C35.7251 20.2516 35.6413 20.3493 35.5645 20.4471C36.2907 21.5644 36.7097 22.8773 36.7167 24.274C36.7167 25.6567 36.3117 26.9486 35.5994 28.066H36.4374C37.1427 27.0254 37.5547 25.8034 37.5547 24.4975Z" fill="url(#paint21_linear_19107_7031)"/>
<path opacity="0.72" d="M37.5543 24.4975C37.5543 22.8424 36.8978 21.334 35.8084 20.1608C35.7805 20.1887 35.7525 20.2236 35.7246 20.2585C36.5417 21.4667 37.0096 22.8843 37.0165 24.4067C37.0165 25.7265 36.6604 26.9696 36.0389 28.066H36.4369C37.1422 27.0254 37.5543 25.8034 37.5543 24.4975Z" fill="url(#paint22_linear_19107_7031)"/>
<path opacity="0.37" d="M35.8089 20.1608C35.7251 20.2516 35.6413 20.3493 35.5645 20.4471C36.2907 21.5644 36.7097 22.8773 36.7167 24.274C36.7167 25.6567 36.3117 26.9486 35.5994 28.066H36.4374C37.1427 27.0324 37.5547 25.8103 37.5547 24.5044C37.5547 22.8424 36.8983 21.327 35.8089 20.1608Z" fill="url(#paint23_linear_19107_7031)"/>
<path opacity="0.72" d="M35.8084 20.1608C35.7805 20.1887 35.7525 20.2236 35.7246 20.2585C36.5417 21.4667 37.0096 22.8843 37.0165 24.4067C37.0165 25.7265 36.6604 26.9696 36.0389 28.066H36.4369C37.1422 27.0324 37.5543 25.8103 37.5543 24.5044C37.5543 22.8424 36.8978 21.327 35.8084 20.1608Z" fill="url(#paint24_linear_19107_7031)"/>
<path d="M36.7362 21.4205C36.4778 20.9666 36.1705 20.5476 35.8144 20.1565C35.4582 20.5406 35.151 20.9666 34.8926 21.4205H36.7362Z" fill="#2644D2"/>
<path d="M35.2025 28.059C34.4901 27.0254 34.0781 25.8034 34.0781 24.4975C34.0781 22.8424 34.7276 21.327 35.81 20.1608C36.8924 21.327 37.5489 22.8424 37.5559 24.4975C37.5559 25.8103 37.1438 27.0254 36.4385 28.059H35.2025Z" stroke="#2644D2" stroke-width="0.419004" stroke-miterlimit="10" stroke-linecap="round" stroke-linejoin="round"/>
<path d="M34.6699 27.1396H36.9675" stroke="#2644D2" stroke-width="0.279336" stroke-miterlimit="10" stroke-linecap="round" stroke-linejoin="round"/>
<path opacity="0.41" d="M22.7988 13.7231C22.7988 13.7231 23.2737 12.9759 24.8869 11.7189C24.1396 12.7315 23.993 13.367 23.9441 13.4158C23.4692 13.5066 22.7988 13.7231 22.7988 13.7231Z" fill="#F1F1F1"/>
</g>
</g>
<defs>
<linearGradient id="paint0_linear_19107_7031" x1="35.603" y1="75.118" x2="29.3517" y2="-43.6569" gradientUnits="userSpaceOnUse">
<stop stop-color="#72EDF2"/>
<stop offset="1" stop-color="#5151E5"/>
</linearGradient>
<linearGradient id="paint1_linear_19107_7031" x1="14.1847" y1="19.3162" x2="16.0821" y2="19.3501" gradientUnits="userSpaceOnUse">
<stop stop-color="#4F6EFD"/>
<stop offset="1" stop-color="#2644D2"/>
</linearGradient>
<linearGradient id="paint2_linear_19107_7031" x1="17.9872" y1="13.1424" x2="20.6305" y2="13.1807" gradientUnits="userSpaceOnUse">
<stop stop-color="#4F6EFD"/>
<stop offset="1" stop-color="#2644D2"/>
</linearGradient>
<linearGradient id="paint3_linear_19107_7031" x1="13.8178" y1="16.6642" x2="15.4809" y2="16.6816" gradientUnits="userSpaceOnUse">
<stop stop-color="#4F6EFD"/>
<stop offset="1" stop-color="#2644D2"/>
</linearGradient>
<linearGradient id="paint4_linear_19107_7031" x1="13.9826" y1="16.6642" x2="15.5115" y2="16.6789" gradientUnits="userSpaceOnUse">
<stop stop-color="#4F6EFD"/>
<stop offset="1" stop-color="#2644D2"/>
</linearGradient>
<linearGradient id="paint5_linear_19107_7031" x1="13.8178" y1="16.6642" x2="15.4809" y2="16.6816" gradientUnits="userSpaceOnUse">
<stop stop-color="#4F6EFD"/>
<stop offset="1" stop-color="#2644D2"/>
</linearGradient>
<linearGradient id="paint6_linear_19107_7031" x1="13.9826" y1="16.6642" x2="15.5115" y2="16.6789" gradientUnits="userSpaceOnUse">
<stop stop-color="#4F6EFD"/>
<stop offset="1" stop-color="#2644D2"/>
</linearGradient>
<linearGradient id="paint7_linear_19107_7031" x1="18.9172" y1="22.9835" x2="21.8925" y2="23.0413" gradientUnits="userSpaceOnUse">
<stop stop-color="#4F6EFD"/>
<stop offset="1" stop-color="#2644D2"/>
</linearGradient>
<linearGradient id="paint8_linear_19107_7031" x1="13.8178" y1="16.6642" x2="15.4809" y2="16.6816" gradientUnits="userSpaceOnUse">
<stop stop-color="#4F6EFD"/>
<stop offset="1" stop-color="#2644D2"/>
</linearGradient>
<linearGradient id="paint9_linear_19107_7031" x1="13.9826" y1="16.6642" x2="15.5115" y2="16.6789" gradientUnits="userSpaceOnUse">
<stop stop-color="#4F6EFD"/>
<stop offset="1" stop-color="#2644D2"/>
</linearGradient>
<linearGradient id="paint10_linear_19107_7031" x1="13.8178" y1="16.6642" x2="15.4809" y2="16.6816" gradientUnits="userSpaceOnUse">
<stop stop-color="#4F6EFD"/>
<stop offset="1" stop-color="#2644D2"/>
</linearGradient>
<linearGradient id="paint11_linear_19107_7031" x1="13.9826" y1="16.6642" x2="15.5115" y2="16.6789" gradientUnits="userSpaceOnUse">
<stop stop-color="#4F6EFD"/>
<stop offset="1" stop-color="#2644D2"/>
</linearGradient>
<linearGradient id="paint12_linear_19107_7031" x1="32.9133" y1="19.3162" x2="34.8106" y2="19.3501" gradientUnits="userSpaceOnUse">
<stop stop-color="#4F6EFD"/>
<stop offset="1" stop-color="#2644D2"/>
</linearGradient>
<linearGradient id="paint13_linear_19107_7031" x1="28.1689" y1="13.1424" x2="30.8121" y2="13.1807" gradientUnits="userSpaceOnUse">
<stop stop-color="#4F6EFD"/>
<stop offset="1" stop-color="#2644D2"/>
</linearGradient>
<linearGradient id="paint14_linear_19107_7031" x1="29.1521" y1="21.7295" x2="31.0339" y2="21.7463" gradientUnits="userSpaceOnUse">
<stop stop-color="#4F6EFD"/>
<stop offset="1" stop-color="#2644D2"/>
</linearGradient>
<linearGradient id="paint15_linear_19107_7031" x1="26.8234" y1="22.9835" x2="29.7988" y2="23.0413" gradientUnits="userSpaceOnUse">
<stop stop-color="#4F6EFD"/>
<stop offset="1" stop-color="#2644D2"/>
</linearGradient>
<linearGradient id="paint16_linear_19107_7031" x1="24.8485" y1="1.26365" x2="29.4252" y2="1.3082" gradientUnits="userSpaceOnUse">
<stop stop-color="#4F6EFD"/>
<stop offset="1" stop-color="#2644D2"/>
</linearGradient>
<linearGradient id="paint17_linear_19107_7031" x1="24.5832" y1="1.20743" x2="29.3757" y2="1.25621" gradientUnits="userSpaceOnUse">
<stop stop-color="#4F6EFD"/>
<stop offset="1" stop-color="#2644D2"/>
</linearGradient>
<linearGradient id="paint18_linear_19107_7031" x1="23.3186" y1="17.0371" x2="26.488" y2="17.1686" gradientUnits="userSpaceOnUse">
<stop stop-color="#4F6EFD"/>
<stop offset="1" stop-color="#2644D2"/>
</linearGradient>
<linearGradient id="paint19_linear_19107_7031" x1="23.3186" y1="17.0371" x2="26.488" y2="17.1686" gradientUnits="userSpaceOnUse">
<stop stop-color="#4F6EFD"/>
<stop offset="1" stop-color="#2644D2"/>
</linearGradient>
<linearGradient id="paint20_linear_19107_7031" x1="24.2245" y1="22.8532" x2="25.3628" y2="22.8593" gradientUnits="userSpaceOnUse">
<stop stop-color="#4F6EFD"/>
<stop offset="1" stop-color="#2644D2"/>
</linearGradient>
<linearGradient id="paint21_linear_19107_7031" x1="35.5073" y1="16.6642" x2="37.1704" y2="16.6816" gradientUnits="userSpaceOnUse">
<stop stop-color="#4F6EFD"/>
<stop offset="1" stop-color="#2644D2"/>
</linearGradient>
<linearGradient id="paint22_linear_19107_7031" x1="35.672" y1="16.6642" x2="37.201" y2="16.6789" gradientUnits="userSpaceOnUse">
<stop stop-color="#4F6EFD"/>
<stop offset="1" stop-color="#2644D2"/>
</linearGradient>
<linearGradient id="paint23_linear_19107_7031" x1="35.5073" y1="16.6642" x2="37.1704" y2="16.6816" gradientUnits="userSpaceOnUse">
<stop stop-color="#4F6EFD"/>
<stop offset="1" stop-color="#2644D2"/>
</linearGradient>
<linearGradient id="paint24_linear_19107_7031" x1="35.672" y1="16.6642" x2="37.201" y2="16.6789" gradientUnits="userSpaceOnUse">
<stop stop-color="#4F6EFD"/>
<stop offset="1" stop-color="#2644D2"/>
</linearGradient>
<clipPath id="clip0_19107_7031">
<rect x="0.328125" y="0.930176" width="50" height="50" rx="25" fill="white"/>
</clipPath>
</defs>
</svg>
