<svg width="104" height="89" viewBox="0 0 104 89" fill="none" xmlns="http://www.w3.org/2000/svg">
<path d="M10.5976 39.7538C8.1477 7.37712 33.4999 4.50002 62.9999 10C99.0003 19.9999 91.9754 66.6744 85.4998 75.0001C74.9998 88.5001 53.1008 89.2535 39.6008 86.2535C26.1008 83.2535 12.9998 71.5001 10.5976 39.7538Z" fill="#EFF2FE"/>
<path d="M81.8898 74.9291C76.5416 78.3009 61.8161 78.6259 56.8973 78.1719C46.4823 77.2121 39.8054 72.9391 34.6253 65.3489C36.2257 63.8405 37.2601 62.9905 37.2609 62.9887C38.6133 61.8778 39.7822 60.4746 40.7281 58.9075C51.7972 58.048 65.4391 62.3865 74.9426 68.1618C80.6614 70.8346 83.5276 73.2913 81.8898 74.9291Z" fill="#191A1F"/>
<path d="M37.1801 79.1612C39.5722 82.5214 46.2398 84.3055 48.6168 79.3699C50.5042 75.451 44.5293 68.7546 40.0379 69.6897C36.0801 70.5144 35.1621 76.3261 37.1801 79.1612Z" fill="#738BFB"/>
<path fill-rule="evenodd" clip-rule="evenodd" d="M47.7037 73.7046C45.0982 78.6804 40.7216 79.2376 36.8535 78.2376C36.9924 78.5551 37.1581 78.8524 37.3505 79.1227C39.7426 82.483 46.4102 84.267 48.7872 79.3314C49.5785 77.6883 48.9877 75.557 47.7037 73.7046Z" fill="#5262A9"/>
<path opacity="0.2" d="M97.8647 56.0324C95.2897 75.4536 79.1358 76.4035 59.733 73.6222C40.3303 70.841 25.0262 65.3819 27.6012 45.9607C30.1762 26.5394 47.9927 13.05 67.3954 15.8313C86.7982 18.6125 100.44 36.6111 97.8647 56.0324Z" fill="#F7F7EE"/>
<path fill-rule="evenodd" clip-rule="evenodd" d="M100.792 18.1623C96.801 22.3827 92.8945 24.829 90.4948 25.9603C89.7854 26.2948 89.5334 27.263 90.0041 27.9005C92.1237 30.7713 95.1884 36.2427 96.2502 42.9315L96.6118 42.1725C99.6008 35.8986 101.155 29.0226 101.161 22.042L101.164 19.7772C101.164 19.1915 101.029 18.6451 100.792 18.1623Z" fill="#E8787D"/>
<path opacity="0.2" fill-rule="evenodd" clip-rule="evenodd" d="M59.8698 15.4392L51.5092 3.70094C50.0668 1.67588 47.0808 1.64755 45.6394 3.64525L44.3041 5.49579C40.251 11.1132 37.5007 17.574 36.2514 24.4125L35.7629 27.0869C32.2727 31.4685 29.9053 36.9731 29.0519 43.4114C37.4689 56.0917 46.7078 52.8341 54.3433 50.1419C57.6206 48.9863 60.6024 47.9349 63.0971 48.2926C65.6469 48.6582 68.1622 51.454 70.9596 54.5635C77.276 61.5845 85.031 70.2047 97.8703 56.0576C98.5281 51.0948 98.1281 46.2249 96.8445 41.6777C99.6815 35.5382 101.155 28.8401 101.162 22.0428L101.164 19.7772C101.166 17.3014 98.7464 15.528 96.4052 16.2895L81.5907 21.1082C77.4116 18.4296 72.6136 16.5827 67.3995 15.8351C64.8279 15.4664 62.3096 15.3385 59.8698 15.4392Z" fill="#ACB0AF"/>
<path fill-rule="evenodd" clip-rule="evenodd" d="M46.8699 2.57378C47.6222 8.38024 49.3432 12.7046 50.617 15.0607C50.9933 15.7568 50.6318 16.6883 49.8811 16.919C46.5 17.958 40.8412 20.5245 36.0851 25.2762L36.2398 24.4293C37.4908 17.5794 40.2478 11.1071 44.3113 5.48026L45.634 3.64867C45.9738 3.17817 46.3992 2.81999 46.8699 2.57378Z" fill="#E8787D"/>
<path fill-rule="evenodd" clip-rule="evenodd" d="M73.2479 17.1789C72.9903 18.3019 72.7717 19.5549 72.589 20.9326C72.7904 24.0208 72.468 26.7305 72.1982 28.9982C71.6727 33.4151 71.3468 36.1548 75.4792 36.747C81.4245 37.5989 83.1952 27.4456 81.6865 21.0768L81.5906 21.108C79.027 19.4647 76.2305 18.1344 73.2479 17.1789Z" fill="#7C7575"/>
<path fill-rule="evenodd" clip-rule="evenodd" d="M70.1073 16.6449C69.7395 17.7405 69.2698 18.9262 68.7039 20.199C66.9236 22.7088 65.7844 25.1803 64.831 27.2486C62.9741 31.2772 61.8223 33.7761 58.0123 32.048C52.5375 29.5649 56.3132 20.0208 60.9035 15.4284L60.9328 15.4638C63.9804 15.4524 67.063 15.8369 70.1073 16.6449Z" fill="#7C7575"/>
<ellipse cx="6.18887" cy="6.18575" rx="6.18887" ry="6.18575" transform="matrix(0.989886 0.141896 -0.131434 0.99133 44.2168 35.5737)" fill="#191A1F"/>
<ellipse cx="6.18888" cy="6.18574" rx="6.18888" ry="6.18574" transform="matrix(-0.989886 -0.141897 -0.131434 0.99133 84.96 44.7244)" fill="#191A1F"/>
<ellipse cx="1.7879" cy="1.78699" rx="1.7879" ry="1.78699" transform="matrix(0.989886 0.141897 -0.131433 0.99133 50.5957 39.8218)" fill="#F7F7EE"/>
<ellipse cx="1.78789" cy="1.78699" rx="1.78789" ry="1.78699" transform="matrix(-0.989887 -0.141895 -0.131435 0.99133 77.7139 47.022)" fill="#F7F7EE"/>
<path d="M97.8647 56.0324C95.2897 75.4536 79.1358 76.4035 59.733 73.6222C40.3303 70.841 25.0262 65.3819 27.6012 45.9607C30.1762 26.5394 47.9927 13.05 67.3954 15.8313C86.7982 18.6125 100.44 36.6111 97.8647 56.0324Z" fill="#F7F7EE"/>
<path fill-rule="evenodd" clip-rule="evenodd" d="M59.8094 15.3553L51.5084 3.7007C50.066 1.67565 47.08 1.64732 45.6386 3.64501L44.3034 5.49553C40.2502 11.113 37.4999 17.5738 36.2506 24.4123L35.9887 25.8465C31.9388 30.3925 29.1946 36.291 28.2657 43.299C32.6814 59.0725 39.8245 55.6005 46.6416 52.2868C49.0261 51.1278 51.3707 49.9882 53.5447 49.6983C57.7038 49.1437 61.0988 52.314 64.8504 55.8172C71.9901 62.4844 80.4215 70.3576 97.8693 56.0577C98.5249 51.1117 98.1183 46.2564 96.8242 41.7195C99.6739 35.5686 101.154 28.8555 101.161 22.0428L101.163 19.7771C101.165 17.3014 98.7455 15.528 96.4042 16.2895L81.4705 21.1469C77.2143 18.4221 72.3204 16.5405 66.9998 15.7777C64.5477 15.4261 62.1438 15.2887 59.8094 15.3553Z" fill="#ACB0AF"/>
<path fill-rule="evenodd" clip-rule="evenodd" d="M100.792 18.1623C96.801 22.3827 92.8945 24.829 90.4948 25.9603C89.7854 26.2948 89.5334 27.263 90.0041 27.9005C92.1237 30.7713 95.1884 36.2427 96.2502 42.9315L96.6118 42.1725C99.6008 35.8986 101.155 29.0226 101.161 22.042L101.164 19.7772C101.164 19.1915 101.029 18.6451 100.792 18.1623Z" fill="#E8787D"/>
<path fill-rule="evenodd" clip-rule="evenodd" d="M46.8699 2.57378C47.6222 8.38024 49.3432 12.7046 50.617 15.0607C50.9933 15.7568 50.6318 16.6883 49.8811 16.919C46.5 17.958 40.8412 20.5245 36.0851 25.2762L36.2398 24.4293C37.4908 17.5794 40.2478 11.1071 44.3113 5.48026L45.634 3.64867C45.9738 3.17817 46.3992 2.81999 46.8699 2.57378Z" fill="#E8787D"/>
<path fill-rule="evenodd" clip-rule="evenodd" d="M72.0232 16.8108C71.9746 16.9338 71.9254 17.0584 71.8757 17.1847C66.9569 21.8456 62.7269 32.9788 68.8416 35.4608C72.8819 37.1007 73.9736 34.4344 75.7334 30.1358C76.6369 27.9289 77.7166 25.2918 79.4619 22.5862C79.7726 21.7971 80.0507 21.0402 80.2951 20.3163C77.7353 18.8251 74.9637 17.6378 72.0232 16.8108Z" fill="#7C7575"/>
<path fill-rule="evenodd" clip-rule="evenodd" d="M69.1787 16.4123C68.6003 18.088 67.6204 20.0284 66.2765 22.2201C64.1821 24.4744 62.7283 26.775 61.5116 28.7002C59.1419 32.4502 57.6719 34.7762 54.1218 32.5629C48.749 29.2132 54.5767 19.4463 59.9922 15.8805C60.1808 15.5729 60.3631 15.2767 60.5395 14.9917L60.9321 15.4641C63.6704 15.4538 66.437 15.7632 69.1787 16.4123Z" fill="#7C7575"/>
<ellipse cx="6.18887" cy="6.18575" rx="6.18887" ry="6.18575" transform="matrix(0.989886 0.141896 -0.131434 0.99133 38.2676 38.4292)" fill="#191A1F"/>
<ellipse cx="1.7879" cy="1.78699" rx="1.7879" ry="1.78699" transform="matrix(0.989886 0.141897 -0.131433 0.99133 44.2715 42.584)" fill="#F7F7EE"/>
<path fill-rule="evenodd" clip-rule="evenodd" d="M80.0738 47.4268C80.4786 47.5312 80.7255 47.9345 80.6525 48.3461C80.5689 48.8173 80.1024 49.1155 79.6323 49.0262C75.7935 48.2969 72.7327 49.3868 70.3123 51.1802C70.2315 51.2402 70.256 51.3662 70.3526 51.3944C73.3565 52.2707 74.9312 52.8797 76.7947 55.1765C77.0656 55.5105 77.0032 55.9991 76.6694 56.2702C76.3144 56.5584 75.7939 56.4868 75.4738 56.1603C73.1161 53.7555 69.5114 54.2115 66.2681 53.5065C65.7637 53.3969 65.2235 52.9782 65.0686 52.4858C64.9136 51.9935 65.1221 51.1873 65.4728 50.8085C66.2452 49.9742 67.2158 49.3219 68.617 48.6026C71.9224 46.9057 75.859 46.3399 80.0738 47.4268Z" fill="#191A1F"/>
<path d="M50.8104 54.8678C52.5861 56.9469 55.6015 57.4178 57.89 55.9734C59.1692 55.1659 58.7458 53.1884 57.2433 52.9538L52.2876 52.1798C50.7851 51.9452 49.8177 53.7055 50.8104 54.8678Z" fill="#5A3018"/>
<path d="M59.8948 61.3224C59.1024 61.6493 58.2787 61.6727 57.5487 61.5612C56.7561 61.3653 56.0573 61.0345 55.546 60.4337C55.0244 59.906 54.6799 59.1813 54.6482 58.3551L54.5318 54.9773L53.4802 58.1766C53.2303 58.8851 52.6988 59.4759 52.0421 59.8982C51.3854 60.3205 50.5512 60.417 49.8108 60.3785C49.0079 60.2558 48.2257 59.9869 47.631 59.448C46.9634 58.8979 46.4729 58.151 46.3056 57.2294C46.2435 58.1906 46.5568 59.1345 47.1933 59.9038C47.8298 60.6731 48.7268 61.1835 49.6028 61.3174C50.6144 61.5467 51.6049 61.3994 52.491 60.9375C52.9706 60.7121 53.3979 60.3294 53.7522 59.9356C53.9819 60.4187 54.2845 60.9129 54.681 61.2722C55.4008 61.9796 56.3812 62.4281 57.3406 62.5C58.3 62.572 59.3009 62.3516 60.114 61.8786C60.9375 61.3324 61.5732 60.5336 61.7083 59.5835C61.375 60.3539 60.6871 60.9955 59.8948 61.3224Z" fill="#5A3018"/>
<path fill-rule="evenodd" clip-rule="evenodd" d="M23.0548 27.6598C23.0039 27.456 23.0345 27.241 23.1332 27.0556C24.0483 25.3367 24.5669 23.3746 24.5669 21.2913C24.5669 14.5074 19.0674 9.00787 12.2835 9.00787C5.49949 9.00787 0 14.5074 0 21.2913C0 28.0753 5.49949 33.5748 12.2835 33.5748C14.4128 33.5748 16.4156 33.033 18.1615 32.0797C18.3577 31.9726 18.5877 31.9425 18.8025 32.0041L23.1853 33.2609C23.7913 33.4346 24.3581 32.8872 24.2056 32.2756L23.0548 27.6598Z" fill="#4F6EFD"/>
<path d="M16.3979 17.9185C16.1365 17.657 15.8261 17.4495 15.4845 17.308C15.1429 17.1664 14.7767 17.0936 14.407 17.0936C14.0372 17.0936 13.671 17.1664 13.3294 17.308C12.9878 17.4495 12.6774 17.657 12.416 17.9185L11.8735 18.461L11.331 17.9185C10.8029 17.3905 10.0868 17.0938 9.34004 17.0938C8.59329 17.0938 7.87712 17.3905 7.34909 17.9185C6.82106 18.4465 6.52441 19.1627 6.52441 19.9095C6.52441 20.6562 6.82106 21.3724 7.34909 21.9004L7.89161 22.4429L11.8735 26.4248L15.8554 22.4429L16.3979 21.9004C16.6594 21.639 16.8669 21.3286 17.0085 20.987C17.15 20.6454 17.2229 20.2792 17.2229 19.9095C17.2229 19.5397 17.15 19.1735 17.0085 18.8319C16.8669 18.4903 16.6594 18.1799 16.3979 17.9185Z" fill="#EFF2FE" stroke="#EFF2FE" stroke-width="0.818898" stroke-linecap="round" stroke-linejoin="round"/>
</svg>
