<svg width="88" height="88" viewBox="0 0 88 88" fill="none" xmlns="http://www.w3.org/2000/svg">
<rect width="88" height="88" rx="5.86667" fill="white"/>
<path d="M6.1084 6.11096H9.13951V9.14207H6.1084V6.11096ZM9.13951 6.11096H12.1706V9.14207H9.13951V6.11096ZM12.1706 6.11096H15.2017V9.14207H12.1706V6.11096ZM15.2017 6.11096H18.2328V9.14207H15.2017V6.11096ZM18.2328 6.11096H21.264V9.14207H18.2328V6.11096ZM21.264 6.11096H24.2951V9.14207H21.264V6.11096ZM24.2951 6.11096H27.3262V9.14207H24.2951V6.11096ZM33.3884 6.11096H36.4195V9.14207H33.3884V6.11096ZM42.4817 6.11096H45.5128V9.14207H42.4817V6.11096ZM45.5128 6.11096H48.544V9.14207H45.5128V6.11096ZM48.544 6.11096H51.5751V9.14207H48.544V6.11096ZM51.5751 6.11096H54.6062V9.14207H51.5751V6.11096ZM60.6684 6.11096H63.6995V9.14207H60.6684V6.11096ZM63.6995 6.11096H66.7306V9.14207H63.6995V6.11096ZM66.7306 6.11096H69.7617V9.14207H66.7306V6.11096ZM69.7617 6.11096H72.7928V9.14207H69.7617V6.11096ZM72.7928 6.11096H75.824V9.14207H72.7928V6.11096ZM75.824 6.11096H78.8551V9.14207H75.824V6.11096ZM78.8551 6.11096H81.8862V9.14207H78.8551V6.11096ZM6.1084 9.14207H9.13951V12.1732H6.1084V9.14207ZM24.2951 9.14207H27.3262V12.1732H24.2951V9.14207ZM30.3573 9.14207H33.3884V12.1732H30.3573V9.14207ZM39.4506 9.14207H42.4817V12.1732H39.4506V9.14207ZM42.4817 9.14207H45.5128V12.1732H42.4817V9.14207ZM45.5128 9.14207H48.544V12.1732H45.5128V9.14207ZM48.544 9.14207H51.5751V12.1732H48.544V9.14207ZM51.5751 9.14207H54.6062V12.1732H51.5751V9.14207ZM54.6062 9.14207H57.6373V12.1732H54.6062V9.14207ZM60.6684 9.14207H63.6995V12.1732H60.6684V9.14207ZM78.8551 9.14207H81.8862V12.1732H78.8551V9.14207ZM6.1084 12.1732H9.13951V15.2043H6.1084V12.1732ZM12.1706 12.1732H15.2017V15.2043H12.1706V12.1732ZM15.2017 12.1732H18.2328V15.2043H15.2017V12.1732ZM18.2328 12.1732H21.264V15.2043H18.2328V12.1732ZM24.2951 12.1732H27.3262V15.2043H24.2951V12.1732ZM30.3573 12.1732H33.3884V15.2043H30.3573V12.1732ZM33.3884 12.1732H36.4195V15.2043H33.3884V12.1732ZM36.4195 12.1732H39.4506V15.2043H36.4195V12.1732ZM39.4506 12.1732H42.4817V15.2043H39.4506V12.1732ZM42.4817 12.1732H45.5128V15.2043H42.4817V12.1732ZM48.544 12.1732H51.5751V15.2043H48.544V12.1732ZM60.6684 12.1732H63.6995V15.2043H60.6684V12.1732ZM66.7306 12.1732H69.7617V15.2043H66.7306V12.1732ZM69.7617 12.1732H72.7928V15.2043H69.7617V12.1732ZM72.7928 12.1732H75.824V15.2043H72.7928V12.1732ZM78.8551 12.1732H81.8862V15.2043H78.8551V12.1732ZM6.1084 15.2043H9.13951V18.2354H6.1084V15.2043ZM12.1706 15.2043H15.2017V18.2354H12.1706V15.2043ZM15.2017 15.2043H18.2328V18.2354H15.2017V15.2043ZM18.2328 15.2043H21.264V18.2354H18.2328V15.2043ZM24.2951 15.2043H27.3262V18.2354H24.2951V15.2043ZM33.3884 15.2043H36.4195V18.2354H33.3884V15.2043ZM36.4195 15.2043H39.4506V18.2354H36.4195V15.2043ZM39.4506 15.2043H42.4817V18.2354H39.4506V15.2043ZM51.5751 15.2043H54.6062V18.2354H51.5751V15.2043ZM54.6062 15.2043H57.6373V18.2354H54.6062V15.2043ZM60.6684 15.2043H63.6995V18.2354H60.6684V15.2043ZM66.7306 15.2043H69.7617V18.2354H66.7306V15.2043ZM69.7617 15.2043H72.7928V18.2354H69.7617V15.2043ZM72.7928 15.2043H75.824V18.2354H72.7928V15.2043ZM78.8551 15.2043H81.8862V18.2354H78.8551V15.2043ZM6.1084 18.2354H9.13951V21.2665H6.1084V18.2354ZM12.1706 18.2354H15.2017V21.2665H12.1706V18.2354ZM15.2017 18.2354H18.2328V21.2665H15.2017V18.2354ZM18.2328 18.2354H21.264V21.2665H18.2328V18.2354ZM24.2951 18.2354H27.3262V21.2665H24.2951V18.2354ZM30.3573 18.2354H33.3884V21.2665H30.3573V18.2354ZM48.544 18.2354H51.5751V21.2665H48.544V18.2354ZM51.5751 18.2354H54.6062V21.2665H51.5751V18.2354ZM54.6062 18.2354H57.6373V21.2665H54.6062V18.2354ZM60.6684 18.2354H63.6995V21.2665H60.6684V18.2354ZM66.7306 18.2354H69.7617V21.2665H66.7306V18.2354ZM69.7617 18.2354H72.7928V21.2665H69.7617V18.2354ZM72.7928 18.2354H75.824V21.2665H72.7928V18.2354ZM78.8551 18.2354H81.8862V21.2665H78.8551V18.2354ZM6.1084 21.2665H9.13951V24.2976H6.1084V21.2665ZM24.2951 21.2665H27.3262V24.2976H24.2951V21.2665ZM30.3573 21.2665H33.3884V24.2976H30.3573V21.2665ZM33.3884 21.2665H36.4195V24.2976H33.3884V21.2665ZM39.4506 21.2665H42.4817V24.2976H39.4506V21.2665ZM51.5751 21.2665H54.6062V24.2976H51.5751V21.2665ZM60.6684 21.2665H63.6995V24.2976H60.6684V21.2665ZM78.8551 21.2665H81.8862V24.2976H78.8551V21.2665ZM6.1084 24.2976H9.13951V27.3287H6.1084V24.2976ZM9.13951 24.2976H12.1706V27.3287H9.13951V24.2976ZM12.1706 24.2976H15.2017V27.3287H12.1706V24.2976ZM15.2017 24.2976H18.2328V27.3287H15.2017V24.2976ZM18.2328 24.2976H21.264V27.3287H18.2328V24.2976ZM21.264 24.2976H24.2951V27.3287H21.264V24.2976ZM24.2951 24.2976H27.3262V27.3287H24.2951V24.2976ZM30.3573 24.2976H33.3884V27.3287H30.3573V24.2976ZM36.4195 24.2976H39.4506V27.3287H36.4195V24.2976ZM42.4817 24.2976H45.5128V27.3287H42.4817V24.2976ZM48.544 24.2976H51.5751V27.3287H48.544V24.2976ZM54.6062 24.2976H57.6373V27.3287H54.6062V24.2976ZM60.6684 24.2976H63.6995V27.3287H60.6684V24.2976ZM63.6995 24.2976H66.7306V27.3287H63.6995V24.2976ZM66.7306 24.2976H69.7617V27.3287H66.7306V24.2976ZM69.7617 24.2976H72.7928V27.3287H69.7617V24.2976ZM72.7928 24.2976H75.824V27.3287H72.7928V24.2976ZM75.824 24.2976H78.8551V27.3287H75.824V24.2976ZM78.8551 24.2976H81.8862V27.3287H78.8551V24.2976ZM30.3573 27.3287H33.3884V30.3599H30.3573V27.3287ZM33.3884 27.3287H36.4195V30.3599H33.3884V27.3287ZM42.4817 27.3287H45.5128V30.3599H42.4817V27.3287ZM48.544 27.3287H51.5751V30.3599H48.544V27.3287ZM6.1084 30.3599H9.13951V33.391H6.1084V30.3599ZM9.13951 30.3599H12.1706V33.391H9.13951V30.3599ZM15.2017 30.3599H18.2328V33.391H15.2017V30.3599ZM24.2951 30.3599H27.3262V33.391H24.2951V30.3599ZM27.3262 30.3599H30.3573V33.391H27.3262V30.3599ZM36.4195 30.3599H39.4506V33.391H36.4195V30.3599ZM45.5128 30.3599H48.544V33.391H45.5128V30.3599ZM48.544 30.3599H51.5751V33.391H48.544V30.3599ZM51.5751 30.3599H54.6062V33.391H51.5751V30.3599ZM54.6062 30.3599H57.6373V33.391H54.6062V30.3599ZM60.6684 30.3599H63.6995V33.391H60.6684V30.3599ZM63.6995 30.3599H66.7306V33.391H63.6995V30.3599ZM66.7306 30.3599H69.7617V33.391H66.7306V30.3599ZM72.7928 30.3599H75.824V33.391H72.7928V30.3599ZM75.824 30.3599H78.8551V33.391H75.824V30.3599ZM9.13951 33.391H12.1706V36.4221H9.13951V33.391ZM21.264 33.391H24.2951V36.4221H21.264V33.391ZM30.3573 33.391H33.3884V36.4221H30.3573V33.391ZM36.4195 33.391H39.4506V36.4221H36.4195V33.391ZM39.4506 33.391H42.4817V36.4221H39.4506V33.391ZM45.5128 33.391H48.544V36.4221H45.5128V33.391ZM57.6373 33.391H60.6684V36.4221H57.6373V33.391ZM60.6684 33.391H63.6995V36.4221H60.6684V33.391ZM78.8551 33.391H81.8862V36.4221H78.8551V33.391ZM6.1084 36.4221H9.13951V39.4532H6.1084V36.4221ZM15.2017 36.4221H18.2328V39.4532H15.2017V36.4221ZM24.2951 36.4221H27.3262V39.4532H24.2951V36.4221ZM30.3573 36.4221H33.3884V39.4532H30.3573V36.4221ZM33.3884 36.4221H36.4195V39.4532H33.3884V36.4221ZM36.4195 36.4221H39.4506V39.4532H36.4195V36.4221ZM48.544 36.4221H51.5751V39.4532H48.544V36.4221ZM54.6062 36.4221H57.6373V39.4532H54.6062V36.4221ZM57.6373 36.4221H60.6684V39.4532H57.6373V36.4221ZM75.824 36.4221H78.8551V39.4532H75.824V36.4221ZM78.8551 36.4221H81.8862V39.4532H78.8551V36.4221ZM6.1084 39.4532H9.13951V42.4843H6.1084V39.4532ZM12.1706 39.4532H15.2017V42.4843H12.1706V39.4532ZM18.2328 39.4532H21.264V42.4843H18.2328V39.4532ZM27.3262 39.4532H30.3573V42.4843H27.3262V39.4532ZM30.3573 39.4532H33.3884V42.4843H30.3573V39.4532ZM45.5128 39.4532H48.544V42.4843H45.5128V39.4532ZM48.544 39.4532H51.5751V42.4843H48.544V39.4532ZM60.6684 39.4532H63.6995V42.4843H60.6684V39.4532ZM12.1706 42.4843H15.2017V45.5154H12.1706V42.4843ZM15.2017 42.4843H18.2328V45.5154H15.2017V42.4843ZM21.264 42.4843H24.2951V45.5154H21.264V42.4843ZM24.2951 42.4843H27.3262V45.5154H24.2951V42.4843ZM27.3262 42.4843H30.3573V45.5154H27.3262V42.4843ZM42.4817 42.4843H45.5128V45.5154H42.4817V42.4843ZM45.5128 42.4843H48.544V45.5154H45.5128V42.4843ZM51.5751 42.4843H54.6062V45.5154H51.5751V42.4843ZM54.6062 42.4843H57.6373V45.5154H54.6062V42.4843ZM57.6373 42.4843H60.6684V45.5154H57.6373V42.4843ZM60.6684 42.4843H63.6995V45.5154H60.6684V42.4843ZM69.7617 42.4843H72.7928V45.5154H69.7617V42.4843ZM75.824 42.4843H78.8551V45.5154H75.824V42.4843ZM78.8551 42.4843H81.8862V45.5154H78.8551V42.4843ZM12.1706 45.5154H15.2017V48.5465H12.1706V45.5154ZM15.2017 45.5154H18.2328V48.5465H15.2017V45.5154ZM18.2328 45.5154H21.264V48.5465H18.2328V45.5154ZM30.3573 45.5154H33.3884V48.5465H30.3573V45.5154ZM33.3884 45.5154H36.4195V48.5465H33.3884V45.5154ZM36.4195 45.5154H39.4506V48.5465H36.4195V45.5154ZM39.4506 45.5154H42.4817V48.5465H39.4506V45.5154ZM42.4817 45.5154H45.5128V48.5465H42.4817V45.5154ZM45.5128 45.5154H48.544V48.5465H45.5128V45.5154ZM57.6373 45.5154H60.6684V48.5465H57.6373V45.5154ZM60.6684 45.5154H63.6995V48.5465H60.6684V45.5154ZM63.6995 45.5154H66.7306V48.5465H63.6995V45.5154ZM69.7617 45.5154H72.7928V48.5465H69.7617V45.5154ZM72.7928 45.5154H75.824V48.5465H72.7928V45.5154ZM78.8551 45.5154H81.8862V48.5465H78.8551V45.5154ZM6.1084 48.5465H9.13951V51.5776H6.1084V48.5465ZM12.1706 48.5465H15.2017V51.5776H12.1706V48.5465ZM18.2328 48.5465H21.264V51.5776H18.2328V48.5465ZM21.264 48.5465H24.2951V51.5776H21.264V48.5465ZM24.2951 48.5465H27.3262V51.5776H24.2951V48.5465ZM36.4195 48.5465H39.4506V51.5776H36.4195V48.5465ZM42.4817 48.5465H45.5128V51.5776H42.4817V48.5465ZM45.5128 48.5465H48.544V51.5776H45.5128V48.5465ZM54.6062 48.5465H57.6373V51.5776H54.6062V48.5465ZM60.6684 48.5465H63.6995V51.5776H60.6684V48.5465ZM63.6995 48.5465H66.7306V51.5776H63.6995V48.5465ZM66.7306 48.5465H69.7617V51.5776H66.7306V48.5465ZM72.7928 48.5465H75.824V51.5776H72.7928V48.5465ZM78.8551 48.5465H81.8862V51.5776H78.8551V48.5465ZM9.13951 51.5776H12.1706V54.6087H9.13951V51.5776ZM27.3262 51.5776H30.3573V54.6087H27.3262V51.5776ZM30.3573 51.5776H33.3884V54.6087H30.3573V51.5776ZM42.4817 51.5776H45.5128V54.6087H42.4817V51.5776ZM45.5128 51.5776H48.544V54.6087H45.5128V51.5776ZM48.544 51.5776H51.5751V54.6087H48.544V51.5776ZM54.6062 51.5776H57.6373V54.6087H54.6062V51.5776ZM66.7306 51.5776H69.7617V54.6087H66.7306V51.5776ZM75.824 51.5776H78.8551V54.6087H75.824V51.5776ZM6.1084 54.6087H9.13951V57.6399H6.1084V54.6087ZM9.13951 54.6087H12.1706V57.6399H9.13951V54.6087ZM15.2017 54.6087H18.2328V57.6399H15.2017V54.6087ZM24.2951 54.6087H27.3262V57.6399H24.2951V54.6087ZM27.3262 54.6087H30.3573V57.6399H27.3262V54.6087ZM33.3884 54.6087H36.4195V57.6399H33.3884V54.6087ZM39.4506 54.6087H42.4817V57.6399H39.4506V54.6087ZM42.4817 54.6087H45.5128V57.6399H42.4817V54.6087ZM51.5751 54.6087H54.6062V57.6399H51.5751V54.6087ZM54.6062 54.6087H57.6373V57.6399H54.6062V54.6087ZM57.6373 54.6087H60.6684V57.6399H57.6373V54.6087ZM60.6684 54.6087H63.6995V57.6399H60.6684V54.6087ZM63.6995 54.6087H66.7306V57.6399H63.6995V54.6087ZM66.7306 54.6087H69.7617V57.6399H66.7306V54.6087ZM69.7617 54.6087H72.7928V57.6399H69.7617V54.6087ZM72.7928 54.6087H75.824V57.6399H72.7928V54.6087ZM30.3573 57.6399H33.3884V60.671H30.3573V57.6399ZM36.4195 57.6399H39.4506V60.671H36.4195V57.6399ZM45.5128 57.6399H48.544V60.671H45.5128V57.6399ZM51.5751 57.6399H54.6062V60.671H51.5751V57.6399ZM54.6062 57.6399H57.6373V60.671H54.6062V57.6399ZM66.7306 57.6399H69.7617V60.671H66.7306V57.6399ZM69.7617 57.6399H72.7928V60.671H69.7617V57.6399ZM78.8551 57.6399H81.8862V60.671H78.8551V57.6399ZM6.1084 60.671H9.13951V63.7021H6.1084V60.671ZM9.13951 60.671H12.1706V63.7021H9.13951V60.671ZM12.1706 60.671H15.2017V63.7021H12.1706V60.671ZM15.2017 60.671H18.2328V63.7021H15.2017V60.671ZM18.2328 60.671H21.264V63.7021H18.2328V60.671ZM21.264 60.671H24.2951V63.7021H21.264V60.671ZM24.2951 60.671H27.3262V63.7021H24.2951V60.671ZM30.3573 60.671H33.3884V63.7021H30.3573V60.671ZM36.4195 60.671H39.4506V63.7021H36.4195V60.671ZM45.5128 60.671H48.544V63.7021H45.5128V60.671ZM51.5751 60.671H54.6062V63.7021H51.5751V60.671ZM54.6062 60.671H57.6373V63.7021H54.6062V60.671ZM60.6684 60.671H63.6995V63.7021H60.6684V60.671ZM66.7306 60.671H69.7617V63.7021H66.7306V60.671ZM69.7617 60.671H72.7928V63.7021H69.7617V60.671ZM75.824 60.671H78.8551V63.7021H75.824V60.671ZM78.8551 60.671H81.8862V63.7021H78.8551V60.671ZM6.1084 63.7021H9.13951V66.7332H6.1084V63.7021ZM24.2951 63.7021H27.3262V66.7332H24.2951V63.7021ZM36.4195 63.7021H39.4506V66.7332H36.4195V63.7021ZM54.6062 63.7021H57.6373V66.7332H54.6062V63.7021ZM66.7306 63.7021H69.7617V66.7332H66.7306V63.7021ZM69.7617 63.7021H72.7928V66.7332H69.7617V63.7021ZM72.7928 63.7021H75.824V66.7332H72.7928V63.7021ZM6.1084 66.7332H9.13951V69.7643H6.1084V66.7332ZM12.1706 66.7332H15.2017V69.7643H12.1706V66.7332ZM15.2017 66.7332H18.2328V69.7643H15.2017V66.7332ZM18.2328 66.7332H21.264V69.7643H18.2328V66.7332ZM24.2951 66.7332H27.3262V69.7643H24.2951V66.7332ZM36.4195 66.7332H39.4506V69.7643H36.4195V66.7332ZM39.4506 66.7332H42.4817V69.7643H39.4506V66.7332ZM45.5128 66.7332H48.544V69.7643H45.5128V66.7332ZM54.6062 66.7332H57.6373V69.7643H54.6062V66.7332ZM57.6373 66.7332H60.6684V69.7643H57.6373V66.7332ZM60.6684 66.7332H63.6995V69.7643H60.6684V66.7332ZM63.6995 66.7332H66.7306V69.7643H63.6995V66.7332ZM66.7306 66.7332H69.7617V69.7643H66.7306V66.7332ZM69.7617 66.7332H72.7928V69.7643H69.7617V66.7332ZM75.824 66.7332H78.8551V69.7643H75.824V66.7332ZM6.1084 69.7643H9.13951V72.7954H6.1084V69.7643ZM12.1706 69.7643H15.2017V72.7954H12.1706V69.7643ZM15.2017 69.7643H18.2328V72.7954H15.2017V69.7643ZM18.2328 69.7643H21.264V72.7954H18.2328V69.7643ZM24.2951 69.7643H27.3262V72.7954H24.2951V69.7643ZM30.3573 69.7643H33.3884V72.7954H30.3573V69.7643ZM33.3884 69.7643H36.4195V72.7954H33.3884V69.7643ZM36.4195 69.7643H39.4506V72.7954H36.4195V69.7643ZM48.544 69.7643H51.5751V72.7954H48.544V69.7643ZM63.6995 69.7643H66.7306V72.7954H63.6995V69.7643ZM66.7306 69.7643H69.7617V72.7954H66.7306V69.7643ZM69.7617 69.7643H72.7928V72.7954H69.7617V69.7643ZM72.7928 69.7643H75.824V72.7954H72.7928V69.7643ZM6.1084 72.7954H9.13951V75.8265H6.1084V72.7954ZM12.1706 72.7954H15.2017V75.8265H12.1706V72.7954ZM15.2017 72.7954H18.2328V75.8265H15.2017V72.7954ZM18.2328 72.7954H21.264V75.8265H18.2328V72.7954ZM24.2951 72.7954H27.3262V75.8265H24.2951V72.7954ZM33.3884 72.7954H36.4195V75.8265H33.3884V72.7954ZM45.5128 72.7954H48.544V75.8265H45.5128V72.7954ZM48.544 72.7954H51.5751V75.8265H48.544V72.7954ZM54.6062 72.7954H57.6373V75.8265H54.6062V72.7954ZM63.6995 72.7954H66.7306V75.8265H63.6995V72.7954ZM66.7306 72.7954H69.7617V75.8265H66.7306V72.7954ZM72.7928 72.7954H75.824V75.8265H72.7928V72.7954ZM78.8551 72.7954H81.8862V75.8265H78.8551V72.7954ZM6.1084 75.8265H9.13951V78.8576H6.1084V75.8265ZM24.2951 75.8265H27.3262V78.8576H24.2951V75.8265ZM30.3573 75.8265H33.3884V78.8576H30.3573V75.8265ZM36.4195 75.8265H39.4506V78.8576H36.4195V75.8265ZM42.4817 75.8265H45.5128V78.8576H42.4817V75.8265ZM45.5128 75.8265H48.544V78.8576H45.5128V75.8265ZM48.544 75.8265H51.5751V78.8576H48.544V75.8265ZM51.5751 75.8265H54.6062V78.8576H51.5751V75.8265ZM54.6062 75.8265H57.6373V78.8576H54.6062V75.8265ZM57.6373 75.8265H60.6684V78.8576H57.6373V75.8265ZM60.6684 75.8265H63.6995V78.8576H60.6684V75.8265ZM69.7617 75.8265H72.7928V78.8576H69.7617V75.8265ZM6.1084 78.8576H9.13951V81.8887H6.1084V78.8576ZM9.13951 78.8576H12.1706V81.8887H9.13951V78.8576ZM12.1706 78.8576H15.2017V81.8887H12.1706V78.8576ZM15.2017 78.8576H18.2328V81.8887H15.2017V78.8576ZM18.2328 78.8576H21.264V81.8887H18.2328V78.8576ZM21.264 78.8576H24.2951V81.8887H21.264V78.8576ZM24.2951 78.8576H27.3262V81.8887H24.2951V78.8576ZM30.3573 78.8576H33.3884V81.8887H30.3573V78.8576ZM36.4195 78.8576H39.4506V81.8887H36.4195V78.8576ZM39.4506 78.8576H42.4817V81.8887H39.4506V78.8576ZM42.4817 78.8576H45.5128V81.8887H42.4817V78.8576ZM45.5128 78.8576H48.544V81.8887H45.5128V78.8576ZM51.5751 78.8576H54.6062V81.8887H51.5751V78.8576ZM54.6062 78.8576H57.6373V81.8887H54.6062V78.8576ZM60.6684 78.8576H63.6995V81.8887H60.6684V78.8576ZM63.6995 78.8576H66.7306V81.8887H63.6995V78.8576ZM75.824 78.8576H78.8551V81.8887H75.824V78.8576ZM78.8551 78.8576H81.8862V81.8887H78.8551V78.8576Z" fill="black"/>
</svg>
