<svg width="156" height="84" viewBox="0 0 156 84" fill="none" xmlns="http://www.w3.org/2000/svg">
<ellipse cx="79" cy="80" rx="18" ry="4" fill="#D8DDE9"/>
<path d="M34.0521 24.161C31.2358 29.1138 37.1678 33.3463 40.4858 34.8435C42.0639 29.8664 44.9531 19.9122 43.8848 19.9122C42.8166 19.9122 36.8845 22.7447 34.0521 24.161Z" fill="#ACB0AF"/>
<path d="M39.636 33.8727C33.8092 29.7453 33.6006 27.0343 34.5313 25.1324L39.994 29.017L41.6935 34.8438L39.636 33.8727Z" fill="#E8787D"/>
<path d="M41.5784 61.9142C9.16674 63.1279 19.6065 32.0516 41.5784 34.8437L119.755 36.9074C127.119 34.52 139.906 39.6993 137.964 48.9251C134.988 63.062 118.784 61.1454 113.685 59.9719C84.0657 78.4235 53.2725 68.9549 41.5784 61.9142Z" fill="#E9EFFF"/>
<path fill-rule="evenodd" clip-rule="evenodd" d="M22.4297 55.4486C24.9904 59.5981 30.9966 62.6081 41.5202 62.214C53.2143 69.2547 84.0075 78.7233 113.627 60.2717C116.962 61.0392 125.047 62.1246 131.075 58.8285C120.589 61.1758 114.333 55.6484 112.123 51.3425C90.5601 72.4752 54.7358 62.4201 39.519 54.751C34.2014 61.3989 27.5192 59.2804 22.4297 55.4486Z" fill="#8EB0FF" fill-opacity="0.33"/>
<path d="M61.9724 0.00415204C60.71 -0.190075 56.6716 6.4784 54.8103 9.83692H60.8799L68.5276 11.415C68.1634 5.22401 63.5505 0.246936 61.9724 0.00415204Z" fill="#ACB0AF"/>
<path d="M61.3845 10.6866C58.0827 7.38478 60.6562 2.75569 62.3557 0.853882C66.046 3.47595 66.9686 9.06809 66.9686 11.5364C66.483 12.6289 64.6864 13.9885 61.3845 10.6866Z" fill="#E8787D"/>
<path d="M131.943 33.5321C131.699 34.2851 131.345 35.0007 130.866 35.6492C130.638 35.9567 130.394 36.2468 130.133 36.5194C128.721 38.0075 126.868 38.9837 124.879 39.5634C124.561 39.6563 124.239 39.739 123.915 39.8123C123.099 39.9961 122.242 40.1682 121.366 40.3098C119.307 40.6421 117.149 40.8043 115.202 40.5358C115.014 40.5098 114.826 40.4802 114.639 40.4449H114.638C114.079 40.3387 113.532 40.1782 113.044 39.8948C112.392 39.5165 111.855 38.8879 111.759 38.1514C111.644 37.279 112.174 36.4113 112.915 35.9154C113.891 35.2611 115.135 35.4018 116.239 35.5174C116.643 35.5599 117.058 35.5967 117.48 35.624C118.505 35.6914 119.57 35.7068 120.612 35.6216C121.749 35.5295 122.858 35.3189 123.855 34.929C124.519 34.6707 125.133 34.3329 125.673 33.8968C126.497 33.2333 127.148 32.3434 127.536 31.1634C127.558 31.0996 127.578 31.0356 127.598 30.9702C127.833 30.1809 127.821 29.3457 127.619 28.5545C127.454 27.9066 127.16 27.2873 126.769 26.7455C126.421 26.2643 126.028 25.8969 125.606 25.5883C124.647 24.8895 123.54 24.4984 122.488 23.7833C120.042 22.1212 122.018 19.0625 124.698 19.9492C126.667 20.6014 128.392 21.7659 129.702 23.2847C130.428 24.1283 131.026 25.0806 131.466 26.1152C131.613 26.4572 131.741 26.8092 131.851 27.1686C132.467 29.1796 132.604 31.494 131.943 33.5321Z" fill="#949595"/>
<path d="M125.339 39.8959C125.013 39.9922 124.684 40.0781 124.352 40.1542C123.517 40.345 122.638 40.5235 121.741 40.6705C121.295 39.1909 120.971 37.2994 120.969 35.8052C122.134 35.7096 123.27 35.491 124.29 35.0864C124.782 36.4552 125.099 38.297 125.339 39.8959Z" fill="#F7F7EE"/>
<path d="M132.137 33.6715C131.891 34.4565 131.535 35.2026 131.052 35.8787C130.823 36.1993 130.577 36.5017 130.315 36.7859C128.836 36.1681 127.028 35.0984 125.825 34.0517C126.654 33.3599 127.31 32.4321 127.701 31.2019C129.124 31.7885 130.781 32.8115 132.137 33.6715Z" fill="#F7F7EE"/>
<path d="M131.652 26.3018C130.733 27.1287 129.251 28.0903 127.826 28.7744C127.662 28.1176 127.369 27.4899 126.981 26.9408C126.635 26.453 126.244 26.0807 125.825 25.7679C127.108 24.903 128.679 24.0786 129.897 23.4331C130.619 24.288 131.214 25.2531 131.652 26.3018Z" fill="#F7F7EE"/>
<path d="M65.3713 56.6943C67.7992 51.6444 67.5969 49.5673 66.5853 49.3649C74.3139 47.4631 89.6983 43.9266 89.407 44.9948C89.1157 46.0631 92.6846 51.4286 94.5055 53.9778C84.3085 52.1327 84.0657 51.353 65.3713 56.6943Z" fill="#8EB0FF" fill-opacity="0.33"/>
<path d="M83.8229 23.0688C81.2008 24.5255 78.7649 23.6757 77.8747 23.0688C69.094 25.5371 53.839 33.0958 63.0648 43.5841C72.2906 54.0723 84.7131 50.382 89.7711 47.2258L99.8466 42.7343C104.945 43.058 115.409 42.9285 116.477 39.8209C117.813 35.9363 114.171 25.3752 105.309 19.7912C96.4477 14.2072 87.1005 21.2479 83.8229 23.0688Z" fill="#ACB0AF"/>
<path fill-rule="evenodd" clip-rule="evenodd" d="M86.706 21.3226C85.3259 30.5282 79.8125 28.9068 79.8125 28.9068C77.9733 28.4726 77.9912 26.0398 78.6323 23.3604C79.7923 23.8476 81.7834 24.1705 83.8952 22.9973C84.2578 22.7958 84.6946 22.5305 85.1969 22.2255C85.6491 21.9508 86.1543 21.644 86.706 21.3226Z" fill="#7C7575"/>
<path fill-rule="evenodd" clip-rule="evenodd" d="M99.5475 17.6789C101.786 27.5608 96.3657 28.0457 96.3657 28.0457C92.4788 28.035 91.9976 22.3653 92.0871 18.74C94.3693 17.9226 96.9154 17.4075 99.5475 17.6789Z" fill="#7C7575"/>
<path fill-rule="evenodd" clip-rule="evenodd" d="M111.337 24.9979C109.716 23.0332 107.733 21.2012 105.381 19.7196C104.305 19.0412 103.221 18.5492 102.142 18.2114C102.439 19.9933 103.247 22.7708 103.424 23.1069C103.965 24.136 104.729 25.0357 105.704 25.6788C108.129 27.2785 110.074 26.5907 111.337 24.9979Z" fill="#7C7575"/>
<path d="M87.9503 31.2019L84.4299 50.139L80.5454 50.3817C80.5454 50.3817 78.1175 50.6437 73.8688 50.3817C69.6201 50.1198 65.8569 45.8896 65.8569 45.8896C65.8569 45.8896 75.9325 28.1671 78.1175 31.2019C80.3026 34.2366 87.9503 31.2019 87.9503 31.2019Z" fill="black" fill-opacity="0.2"/>
<path d="M90.3782 38.7282C91.7378 35.7177 89.0833 31.3233 87.5862 29.5024C88.0717 28.4908 87.052 29.2112 76.1753 36.786C62.5794 46.2546 71.9266 57.7868 75.447 50.9888C78.9673 44.1908 88.6787 42.4913 90.3782 38.7282Z" fill="#ACB0AF"/>
<path d="M90.0139 52.0814C85.401 54.6306 83.9443 49.5322 77.0249 47.4685L82.3662 40.6705C86.9791 42.9365 95.4198 49.0939 90.0139 52.0814Z" fill="#ACB0AF"/>
<path d="M80.5454 23.5543C80.3447 26.5048 78.4621 31.5121 76.8792 34.4237C73.5282 40.5887 70.661 43.2219 66.1967 46.6843C65.1042 46.32 64.9827 45.7137 64.9827 45.7137C64.2544 45.1068 63.5081 44.9676 63.1618 44.4998C65.984 38.0524 71.8944 28.2387 76.8792 22.3404C78.0046 22.6458 79.3769 23.4238 80.5454 23.5543Z" fill="#191A1F"/>
<path d="M75.032 38.8907C76.5074 38.9155 78.4448 37.3793 77.5373 35.6519C76.8168 34.2803 73.6184 34.5775 72.9263 36.0649C72.3166 37.3756 73.7873 38.8697 75.032 38.8907Z" fill="#637CF2"/>
<path d="M40.4858 33.7512C37.9609 17.7274 49.307 11.0508 55.2957 9.7155C58.5733 8.86575 66.8522 8.62297 73.7473 14.4498C82.3661 21.7333 77.6318 35.9362 66.3424 43.7053C55.0529 51.4744 39.5147 43.7053 38.6649 39.9422C37.9851 36.9316 39.5956 34.5604 40.4858 33.7512Z" fill="#ACB0AF"/>
<path fill-rule="evenodd" clip-rule="evenodd" d="M73.0571 13.8071C73.3436 14.0257 73.6281 14.254 73.9104 14.4925C82.5292 21.7761 77.7949 35.979 66.5054 43.7481C55.216 51.5172 39.6778 43.7481 38.828 39.9849C38.162 37.0352 39.6945 34.6993 40.5941 33.8449C45.5442 35.2848 53.7882 36.6022 57.7236 33.2656C58.2092 31.2424 60.3457 27.4631 65.0071 28.5313C69.5133 29.564 72.1893 19.4875 73.0571 13.8071Z" fill="#F7F7EE"/>
<path d="M98.2685 36.0576C97.9772 36.7374 92.8059 37.7976 90.2566 38.2427C90.8393 39.9907 87.5051 42.1272 85.7651 42.977L90.7422 46.8615C99.8871 45.6476 116.356 42.4715 116.356 39.8208C116.356 36.5432 116.194 33.8321 115.385 33.0228C107.494 41.0347 98.6327 35.2079 98.2685 36.0576Z" fill="black" fill-opacity="0.2"/>
<path d="M57.8451 39.2137C45.3174 42.4184 40.9716 32.8608 40.3646 27.6814V34.7222C33.4452 37.8784 44.8561 51.4743 63.5505 45.1619C78.209 40.2123 79.2101 25.1322 77.2678 19.6696C76.2562 24.4848 70.3728 36.0089 57.8451 39.2137Z" fill="black" fill-opacity="0.1"/>
<path d="M32.1099 41.5203C31.5272 39.2866 30.7746 38.6543 28.2253 39.578C35.5089 36.3732 40.405 38.971 41.9427 40.6705L32.1099 41.5203Z" fill="#8EB0FF" fill-opacity="0.33"/>
<path d="M116.963 46.0116C111.015 47.2255 115.921 40.5037 113.443 40.063C120.447 40.8301 124.248 47.5305 126.06 50.4665C126.226 50.7162 126.31 50.8672 126.31 50.8672C126.231 50.7433 126.148 50.6093 126.06 50.4665C125.174 49.1335 121.973 44.9891 116.963 46.0116Z" fill="#8EB0FF" fill-opacity="0.33"/>
<path d="M88.9214 41.0347C91.155 39.3838 90.4591 34.6009 89.5284 33.0228C89.5284 37.7571 86.1294 38.971 85.2797 39.8208C84.4299 40.6705 78.4817 43.0984 76.0538 46.4974C74.6944 48.4005 72.493 50.8675 70.834 51.5958C73.3832 55.359 77.3892 48.561 78.4817 46.4974C79.5742 44.4337 85.2797 43.7265 88.9214 41.0347Z" fill="black" fill-opacity="0.2"/>
<path d="M32.1099 41.5201C40.2431 37.4737 58.889 33.1198 68.4061 48.0753C80.3026 66.7697 32.1099 46.8613 32.1099 41.5201Z" fill="#E9EFFF"/>
<path d="M90.8635 47.1045C94.8695 41.1967 105.746 31.8091 117.206 41.5205C128.665 51.2318 104.419 49.2896 90.8635 47.1045Z" fill="#E9EFFF"/>
<path d="M102.639 28.4097C101.587 28.9762 99.0939 30.8616 98.5113 33.3866C97.7829 36.5428 96.6904 27.1958 102.639 28.4097Z" fill="black" fill-opacity="0.2"/>
<path d="M61.3815 31.9448C61.9501 31.9794 62.4568 31.5963 62.5712 31.0453L62.7808 30.0356C62.8448 29.7276 62.487 29.5053 62.2345 29.6962L60.1502 31.272C59.8977 31.4629 60.0218 31.8619 60.3396 31.8813L61.3815 31.9448Z" fill="#5A3018"/>
<path d="M63.8135 30.8923C63.7204 31.1177 63.5599 31.2886 63.3909 31.4134C63.1924 31.534 62.9855 31.6086 62.7617 31.5912C62.5506 31.5906 62.3353 31.5147 62.1623 31.3553L61.4575 30.7011L61.8919 31.5551C61.9847 31.7476 61.9972 31.9734 61.9507 32.1906C61.9041 32.4078 61.7562 32.5954 61.5999 32.737C61.414 32.8744 61.2029 32.9782 60.9748 32.9901C60.7299 33.0144 60.4809 32.9635 60.2614 32.8123C60.4428 33.0177 60.6961 33.1438 60.979 33.1698C61.2618 33.1958 61.5448 33.1172 61.7475 32.9674C61.9968 32.8093 62.1658 32.58 62.2504 32.3085C62.3011 32.1666 62.3097 32.0036 62.3013 31.8531C62.4448 31.9037 62.6053 31.9418 62.7573 31.9339C63.0444 31.9307 63.3316 31.8229 63.5386 31.6438C63.7456 31.4647 63.9019 31.2186 63.9697 30.9596C64.0247 30.684 63.9911 30.3954 63.8266 30.1776C63.9151 30.3994 63.9065 30.6669 63.8135 30.8923Z" fill="#5A3018"/>
<path d="M49.8348 33.5889C50.0887 32.4203 50.7736 31.5286 51.605 31.1595C52.0434 30.9648 52.5279 30.941 52.9952 31.0456C53.4701 31.152 54.001 31.3874 54.3699 31.8596C54.4962 32.0213 54.3888 32.3071 54.2242 32.2035C53.8226 31.9505 53.4487 31.6722 53.0156 31.5586C52.5781 31.4438 52.132 31.4684 51.7135 31.6178C50.9208 31.9009 50.2826 32.6602 49.8847 33.6215C49.8681 33.6617 49.8249 33.6345 49.8348 33.5889Z" fill="#1D1D1B"/>
<path d="M67.6339 21.4131C66.4262 21.1899 65.3202 21.4749 64.6565 22.1007C64.3066 22.4308 64.1018 22.8706 64.0259 23.3449C63.9486 23.827 63.9732 24.4115 64.2841 24.9389C64.3905 25.1194 64.7029 25.132 64.6661 24.9387C64.5762 24.4671 64.4518 24.0112 64.5064 23.5651C64.5616 23.1145 64.7525 22.7106 65.052 22.3812C65.6192 21.7575 66.5818 21.4638 67.6462 21.4721C67.6907 21.4725 67.681 21.4218 67.6339 21.4131Z" fill="#1D1D1B"/>
<path fill-rule="evenodd" clip-rule="evenodd" d="M47.8979 13.2742C48.2804 13.7088 48.7277 14.1657 49.2365 14.6447C50.5537 15.4672 51.563 16.392 52.4077 17.1659C54.0529 18.6732 55.0734 19.6081 56.5273 18.1011C58.6191 15.933 55.0026 12.2394 51.9653 10.9875L51.9512 11.0316C50.5279 11.5928 49.1638 12.3406 47.8979 13.2742Z" fill="#7C7575"/>
<path fill-rule="evenodd" clip-rule="evenodd" d="M46.7564 14.3972C47.0958 14.8687 47.4419 15.4085 47.7954 16.0134C48.2954 17.4726 48.9678 18.6599 49.5306 19.6535C50.6266 21.5888 51.3065 22.7892 49.4848 23.8326C46.8678 25.3312 44.0892 21.0034 43.5641 17.7917L43.5771 17.7908C44.468 16.5448 45.5312 15.4009 46.7564 14.3972Z" fill="#7C7575"/>
<path d="M13.3149 24.8966C13.474 24.8246 13.5969 24.792 13.6835 24.7988C13.7725 24.8 13.8448 24.8294 13.9004 24.8871C13.9601 24.9429 14.0141 25.0243 14.0625 25.1313C14.1108 25.2382 14.1395 25.3288 14.1485 25.4029C14.1575 25.4771 14.1554 25.5378 14.1424 25.5851C14.1294 25.6324 14.0978 25.6766 14.0476 25.7178C13.9927 25.7702 13.8938 25.8287 13.751 25.8933L11.2049 27.045C11.1111 27.0875 11.0109 27.1051 10.9045 27.0981C10.6818 27.0838 10.5238 26.9735 10.4305 26.7672C10.3855 26.6679 10.3737 26.5766 10.3951 26.4934L11.1805 23.1771L9.77283 23.8138C9.6749 23.8581 9.6006 23.8894 9.5499 23.9077C9.50157 23.9204 9.43871 23.9281 9.36133 23.9309C9.21881 23.931 9.09485 23.8145 8.98945 23.5815C8.87887 23.337 8.86657 23.1631 8.95255 23.0598C8.99993 23.0016 9.0452 22.9604 9.08835 22.9363C9.13386 22.9065 9.20558 22.8694 9.30351 22.8251L11.7639 21.7122C11.8578 21.6698 11.9579 21.6521 12.0643 21.6592C12.1707 21.6662 12.2637 21.6978 12.3431 21.7539C12.4266 21.8082 12.4917 21.8869 12.5384 21.99C12.585 22.0931 12.5977 22.1863 12.5764 22.2696L11.7909 25.5859L13.3149 24.8966Z" fill="#738BFB"/>
<path d="M18.552 12.0998C18.7266 12.1056 18.8512 12.1307 18.9259 12.1752C19.0052 12.2156 19.057 12.2739 19.0814 12.3502C19.1102 12.4267 19.1226 12.5236 19.1187 12.6409C19.1148 12.7582 19.1005 12.8521 19.0757 12.9226C19.0509 12.9931 19.0223 13.0467 18.9897 13.0834C18.9571 13.12 18.9092 13.1457 18.846 13.1604C18.7735 13.1831 18.659 13.1919 18.5023 13.1867L15.7094 13.0935C15.6065 13.09 15.5088 13.0616 15.4165 13.0082C15.2231 12.8969 15.1301 12.7281 15.1377 12.5018C15.1413 12.3929 15.1711 12.3058 15.2271 12.2405L17.3983 9.61362L15.8541 9.5621C15.7467 9.55852 15.6662 9.55374 15.6126 9.54775C15.5637 9.53773 15.5039 9.51686 15.4333 9.48514C15.3054 9.42215 15.2458 9.26285 15.2543 9.00726C15.2632 8.73909 15.3291 8.57769 15.4519 8.52306C15.5202 8.49178 15.579 8.47487 15.6284 8.47232C15.6823 8.46573 15.763 8.46423 15.8705 8.46781L18.5694 8.55786C18.6723 8.56129 18.7699 8.58972 18.8623 8.64313C18.9546 8.69655 19.0239 8.76598 19.0704 8.85143C19.1213 8.93702 19.1449 9.03638 19.1411 9.14952C19.1373 9.26265 19.1075 9.35184 19.0515 9.41709L16.8803 12.044L18.552 12.0998Z" fill="#738BFB"/>
<path d="M26.375 32.0582C26.4965 32.0589 26.5835 32.075 26.6363 32.1064C26.6922 32.1347 26.7293 32.177 26.7477 32.2331C26.7692 32.2893 26.7797 32.361 26.7792 32.4481C26.7787 32.5353 26.7705 32.6053 26.7547 32.6582C26.7388 32.711 26.7199 32.7514 26.6979 32.7793C26.676 32.8072 26.6432 32.8273 26.5995 32.8395C26.5496 32.8579 26.4702 32.8668 26.3612 32.8662L24.4182 32.8554C24.3466 32.855 24.2782 32.8359 24.213 32.7982C24.0765 32.7196 24.0086 32.5962 24.0096 32.428C24.01 32.3471 24.0291 32.2818 24.0667 32.2322L25.5258 30.2366L24.4515 30.2306C24.3768 30.2302 24.3208 30.2283 24.2834 30.225C24.2492 30.2186 24.2072 30.2043 24.1575 30.1823C24.0675 30.1382 24.023 30.0211 24.0241 29.8312C24.0252 29.6319 24.0679 29.5107 24.1522 29.4676C24.199 29.443 24.2396 29.4292 24.2739 29.4262C24.3113 29.4202 24.3673 29.4174 24.442 29.4178L26.3196 29.4283C26.3912 29.4287 26.4596 29.4478 26.5248 29.4855C26.59 29.5232 26.6395 29.5733 26.6734 29.6358C26.7104 29.6983 26.7287 29.7715 26.7283 29.8556C26.7278 29.9397 26.7087 30.0065 26.6711 30.0561L25.212 32.0517L26.375 32.0582Z" fill="#738BFB"/>
<ellipse cx="9" cy="64.3835" rx="9" ry="6.38353" fill="#E9EFFF"/>
<path fill-rule="evenodd" clip-rule="evenodd" d="M17.9427 63.8922C15.66 65.5054 12.4963 66.5044 9.00002 66.5044C5.50372 66.5044 2.34001 65.5054 0.0572881 63.8922C0.019441 64.1299 0 64.3716 0 64.6165C0 68.142 4.02944 71 9 71C13.9706 71 18 68.142 18 64.6165C18 64.3716 17.9806 64.1299 17.9427 63.8922Z" fill="#8EB0FF" fill-opacity="0.33"/>
<ellipse cx="151" cy="38.4372" rx="5" ry="3.43716" fill="#E9EFFF"/>
<path fill-rule="evenodd" clip-rule="evenodd" d="M155.968 38.1727C154.7 39.0413 152.942 39.5792 151 39.5792C149.058 39.5792 147.3 39.0413 146.032 38.1727C146.011 38.3008 146 38.4309 146 38.5628C146 40.4611 148.239 42 151 42C153.761 42 156 40.4611 156 38.5628C156 38.4309 155.989 38.3008 155.968 38.1727Z" fill="#8EB0FF" fill-opacity="0.33"/>
</svg>
