<svg width="16" height="11" viewBox="0 0 16 11" fill="none" xmlns="http://www.w3.org/2000/svg">
<path d="M5.63163 10.8936L0.126908 5.39413C0.040444 5.29317 -0.004737 5.16329 0.000393607 5.03046C0.00552422 4.89763 0.0605885 4.77163 0.154583 4.67764C0.248577 4.58364 0.374579 4.52858 0.507408 4.52345C0.640237 4.51832 0.77011 4.5635 0.871074 4.64996L5.62107 9.39996L14.9047 0.126908C15.0057 0.040444 15.1355 -0.004737 15.2684 0.000393607C15.4012 0.00552422 15.5272 0.0605885 15.6212 0.154583C15.7152 0.248577 15.7702 0.374578 15.7754 0.507407C15.7805 0.640236 15.7353 0.77011 15.6489 0.871074L5.63163 10.8936Z" fill="#4F6EFD"/>
</svg>
