<svg width="26" height="26" viewBox="0 0 26 26" fill="none" xmlns="http://www.w3.org/2000/svg">
<path d="M17.875 1.625C18.306 1.625 18.7193 1.7962 19.024 2.10095C19.3288 2.4057 19.5 2.81902 19.5 3.25V22.75C19.5 23.181 19.3288 23.5943 19.024 23.899C18.7193 24.2038 18.306 24.375 17.875 24.375H8.125C7.69402 24.375 7.2807 24.2038 6.97595 23.899C6.67121 23.5943 6.5 23.181 6.5 22.75V3.25C6.5 2.81902 6.67121 2.4057 6.97595 2.10095C7.2807 1.7962 7.69402 1.625 8.125 1.625H17.875ZM8.125 0C7.26305 0 6.4364 0.34241 5.8269 0.951903C5.21741 1.5614 4.875 2.38805 4.875 3.25V22.75C4.875 23.612 5.21741 24.4386 5.8269 25.0481C6.4364 25.6576 7.26305 26 8.125 26H17.875C18.737 26 19.5636 25.6576 20.1731 25.0481C20.7826 24.4386 21.125 23.612 21.125 22.75V3.25C21.125 2.38805 20.7826 1.5614 20.1731 0.951903C19.5636 0.34241 18.737 0 17.875 0L8.125 0Z" fill="#D1D2D8"/>
<rect x="7.86035" y="16.0229" width="3.02326" height="3.02326" rx="1.33333" fill="#4F6EFD"/>
<rect x="15.1162" y="19.6509" width="3.02326" height="3.02326" rx="1.33333" fill="#4F6EFD"/>
<rect x="11.4883" y="19.6509" width="3.02326" height="3.02326" rx="1.33333" fill="#4F6EFD"/>
<rect x="7.86035" y="19.6509" width="3.02326" height="3.02326" rx="1.33333" fill="white"/>
<rect x="11.4883" y="16.0229" width="3.02326" height="3.02326" rx="1.33333" fill="#4F6EFD"/>
<rect x="15.1162" y="16.0229" width="3.02326" height="3.02326" rx="1.33333" fill="white"/>
<path d="M7.86035 6.8999H11.4883" stroke="#F9FAFB" stroke-width="1.33333"/>
<path d="M12.0931 6.8999H18.1396" stroke="#F9FAFB" stroke-width="1.33333"/>
<path d="M9.97687 9.01611H16.0234" stroke="#4F6EFD" stroke-width="1.33333"/>
</svg>
