<svg width="337" height="115" viewBox="0 0 337 115" fill="none" xmlns="http://www.w3.org/2000/svg">
<g clip-path="url(#clip0_18049_120836)">
<rect x="0.337891" y="0.930176" width="336" height="113.806" rx="3.6129" fill="#F5F8FF"/>
<g filter="url(#filter0_f_18049_120836)">
<ellipse cx="291.177" cy="38.4151" rx="65.0323" ry="46.5161" fill="#D3E9FD" fill-opacity="0.7"/>
</g>
<g filter="url(#filter1_f_18049_120836)">
<ellipse cx="72.5947" cy="111.574" rx="74.9677" ry="67.2903" fill="#C4B0FF" fill-opacity="0.3"/>
</g>
<g filter="url(#filter2_f_18049_120836)">
<ellipse cx="131.757" cy="93.5109" rx="29.3548" ry="26.6452" fill="#EFFDFF" fill-opacity="0.8"/>
</g>
<g filter="url(#filter3_f_18049_120836)">
<ellipse cx="35.1115" cy="37.5108" rx="40.1936" ry="36.5806" fill="#EBE2FF" fill-opacity="0.5"/>
</g>
<g filter="url(#filter4_f_18049_120836)">
<ellipse cx="45.047" cy="46.5431" rx="50.129" ry="45.6129" fill="#EBE2FF" fill-opacity="0.6"/>
</g>
<g filter="url(#filter5_f_18049_120836)">
<ellipse cx="291.177" cy="38.4151" rx="65.0323" ry="46.5161" fill="#D3E9FD" fill-opacity="0.7"/>
</g>
<g filter="url(#filter6_f_18049_120836)">
<ellipse cx="108.272" cy="102.544" rx="51.0323" ry="46.5161" fill="#EFFDFF" fill-opacity="0.8"/>
</g>
<path d="M310.577 85.331C309.903 85.6979 309.178 85.9657 308.41 86.1029C308.046 86.1678 307.682 86.2092 307.318 86.2275C305.34 86.3354 303.397 85.7898 301.625 84.8748C301.341 84.7286 301.062 84.573 300.788 84.4092C300.097 83.9961 299.385 83.547 298.681 83.0643C297.026 81.9296 295.415 80.6086 294.241 79.126C294.127 78.9827 294.016 78.8369 293.909 78.6877L293.909 78.6872C293.591 78.241 293.317 77.7641 293.168 77.2405C292.967 76.5416 293.015 75.7429 293.44 75.1612C293.944 74.4713 294.894 74.214 295.741 74.3577C296.859 74.5469 297.63 75.4726 298.321 76.2878C298.573 76.5859 298.837 76.8874 299.112 77.1872C299.78 77.9159 300.512 78.635 301.294 79.2676C302.147 79.9588 303.059 80.5481 304.014 80.9365C304.648 81.196 305.302 81.3669 305.969 81.4191C306.987 81.5004 308.035 81.3079 309.095 80.7366C309.153 80.7061 309.21 80.6745 309.267 80.6415C309.959 80.2431 310.51 79.6483 310.899 78.9578C311.217 78.3923 311.427 77.7616 311.518 77.1209C311.598 76.5516 311.57 76.0321 311.483 75.5347C311.284 74.4062 310.775 73.3955 310.522 72.1931C309.932 69.3986 313.354 68.5624 314.625 70.9669C315.559 72.7342 315.98 74.6997 315.875 76.6379C315.816 77.7138 315.595 78.7807 315.208 79.8004C315.081 80.1381 314.935 80.4712 314.771 80.7969C313.854 82.6194 312.401 84.3378 310.577 85.331Z" fill="#949595"/>
<path d="M301.625 84.8716C301.342 84.7255 301.063 84.5698 300.788 84.4061C300.098 83.9929 299.386 83.5438 298.682 83.0612C299.332 81.7693 300.332 80.2778 301.294 79.2644C302.147 79.9557 303.06 80.5449 304.014 80.9333C303.466 82.1795 302.494 83.633 301.625 84.8716Z" fill="#F7F7EE"/>
<path d="M310.577 85.3336C309.903 85.7005 309.178 85.9683 308.41 86.1054C308.046 86.1704 307.682 86.2118 307.318 86.2301C306.693 84.8373 306.129 82.9221 305.97 81.4217C306.987 81.503 308.036 81.3104 309.096 80.7391C309.703 82.0745 310.192 83.8583 310.577 85.3336Z" fill="#F7F7EE"/>
<path d="M315.209 79.8015C314.02 79.761 312.348 79.437 310.899 78.9589C311.218 78.3934 311.428 77.7628 311.518 77.122C311.599 76.5527 311.571 76.0332 311.484 75.5358C312.953 75.7937 314.596 76.2722 315.875 76.639C315.816 77.7148 315.595 78.7817 315.209 79.8015Z" fill="#F7F7EE"/>
<g filter="url(#filter7_d_18049_120836)">
<rect x="31.0469" y="13.5981" width="269.161" height="86.8571" rx="18.0645" fill="white"/>
</g>
<path d="M76.2082 24.4536C72.2196 24.4536 68.9824 27.6963 68.9824 31.6917C68.9824 35.6871 72.2196 38.9298 76.2082 38.9298C80.1969 38.9298 83.434 35.6871 83.434 31.6917C83.434 27.6963 80.1969 24.4536 76.2082 24.4536Z" fill="#EDEEF2"/>
<path d="M76.2082 49.7876C72.2196 49.7876 68.9824 53.0303 68.9824 57.0257C68.9824 61.0211 72.2196 64.2638 76.2082 64.2638C80.1969 64.2638 83.434 61.0211 83.434 57.0257C83.434 53.0303 80.1969 49.7876 76.2082 49.7876Z" fill="#EDEEF2"/>
<path d="M76.2082 75.1213C72.2196 75.1213 68.9824 78.364 68.9824 82.3594C68.9824 86.3549 72.2196 89.5975 76.2082 89.5975C80.1969 89.5975 83.434 86.3549 83.434 82.3594C83.434 78.364 80.1969 75.1213 76.2082 75.1213Z" fill="#EDEEF2"/>
<rect x="89.7559" y="25.3188" width="150.839" height="3.6129" rx="1.80645" fill="#EDEEF2"/>
<rect x="89.7559" y="50.6096" width="133.677" height="3.6129" rx="1.80645" fill="#EDEEF2"/>
<rect x="89.7559" y="78.6099" width="167.097" height="3.6129" rx="1.80645" fill="#EDEEF2"/>
<rect x="89.7559" y="34.3501" width="91.2258" height="3.6129" rx="1.80645" fill="#EDEEF2"/>
<rect x="89.7559" y="59.6411" width="69.5484" height="3.6129" rx="1.80645" fill="#EDEEF2"/>
<path opacity="0.2" d="M322.75 54.8446C317.12 61.8982 310.525 58.4243 303.535 52.7035C296.544 46.9826 291.807 41.1811 297.436 34.1276C303.065 27.074 313.296 25.9936 320.286 31.7145C327.276 37.4353 328.379 47.791 322.75 54.8446Z" fill="#DFDFDF"/>
<path fill-rule="evenodd" clip-rule="evenodd" d="M332.766 40.6227C331.362 41.0026 330.097 41.1805 329.045 41.2423C327.718 41.3201 326.43 42.6065 326.365 43.9501C326.29 45.4925 325.986 47.3881 325.219 49.2851C328.161 47.2857 330.641 44.6653 332.488 41.6018C332.675 41.2911 332.764 40.954 332.766 40.6227Z" fill="#E8789A"/>
<path opacity="0.2" fill-rule="evenodd" clip-rule="evenodd" d="M317.415 29.7692L316.933 23.4796C316.833 22.1685 315.49 21.3398 314.294 21.8505C310.93 23.2868 307.926 25.4613 305.497 28.2171L305.144 28.6181C302.724 29.5158 300.481 31.1256 298.613 33.4661C298.919 40.4772 303.336 41.3923 306.986 42.1487C308.553 42.4733 309.979 42.7687 310.877 43.5042C311.796 44.256 312.123 45.959 312.488 47.853C313.31 52.1295 314.32 57.38 322.744 54.8542C324.189 53.043 325.191 51.0144 325.764 48.9025C328.468 46.9556 330.757 44.4725 332.489 41.5997C333.164 40.4813 332.553 39.0195 331.289 38.725L324.624 37.1725C323.613 35.122 322.161 33.2521 320.284 31.7164C319.36 30.9596 318.399 30.3101 317.415 29.7692Z" fill="#ACB0AF"/>
<path fill-rule="evenodd" clip-rule="evenodd" d="M315.293 21.7203C314.712 23.0693 314.351 24.3089 314.134 25.352C313.862 26.6668 312.413 27.7642 311.089 27.6312C309.57 27.4785 307.672 27.5023 305.703 27.9888C308.095 25.3425 311.026 23.2497 314.297 21.8545C314.627 21.7135 314.969 21.6748 315.293 21.7203Z" fill="#E8789A"/>
<path fill-rule="evenodd" clip-rule="evenodd" d="M322.271 33.643C321.904 34.0243 321.521 34.4659 321.123 34.9649C320.468 36.2323 319.697 37.2255 319.052 38.0566C317.795 39.6754 317.016 40.6795 318.505 41.8981C320.648 43.6518 323.76 40.0622 324.677 37.1876L324.624 37.175C324.004 35.9181 323.219 34.729 322.271 33.643Z" fill="#7C7575"/>
<path fill-rule="evenodd" clip-rule="evenodd" d="M321.157 32.6845C320.753 33.0287 320.287 33.3841 319.763 33.751C318.464 34.3178 317.428 35.0224 316.56 35.612C314.871 36.7604 313.823 37.4727 312.731 35.8823C311.162 33.5971 314.918 30.7283 317.819 30.0083L317.823 30.0326C319.026 30.7543 320.15 31.6404 321.157 32.6845Z" fill="#7C7575"/>
<ellipse cx="2.85152" cy="2.85009" rx="2.85152" ry="2.85009" transform="matrix(0.774034 0.633486 -0.623661 0.781451 306.457 33.9888)" fill="#1E1E1E"/>
<ellipse cx="2.85153" cy="2.85008" rx="2.85153" ry="2.85008" transform="matrix(-0.774034 -0.633486 -0.623661 0.781451 320.346 47.3052)" fill="#1E1E1E"/>
<ellipse cx="0.823775" cy="0.823358" rx="0.823775" ry="0.823358" transform="matrix(0.774033 0.633487 -0.62366 0.781452 307.963 37.1841)" fill="#DFDFDF"/>
<ellipse cx="0.823771" cy="0.823357" rx="0.823771" ry="0.823357" transform="matrix(-0.774035 -0.633485 -0.623662 0.78145 316.941 46.4868)" fill="#DFDFDF"/>
<path d="M322.75 54.8446C317.12 61.8982 310.525 58.4243 303.535 52.7035C296.544 46.9826 291.807 41.1811 297.436 34.1276C303.065 27.074 313.296 25.9936 320.286 31.7145C327.276 37.4353 328.379 47.791 322.75 54.8446Z" fill="#DFDFDF"/>
<path fill-rule="evenodd" clip-rule="evenodd" d="M317.412 29.7234L316.933 23.4816C316.833 22.1705 315.49 21.3418 314.294 21.8525C310.945 23.2827 307.952 25.4448 305.529 28.1839C302.849 29.0128 300.363 30.6883 298.33 33.2359C296.324 40.5147 299.965 40.8459 303.44 41.162L303.44 41.162C304.656 41.2726 305.851 41.3813 306.777 41.7848C308.549 42.5568 309.134 44.6171 309.781 46.8939C311.013 51.2269 312.467 56.3437 322.744 54.8555C324.183 53.0516 325.179 51.0286 325.745 48.9197C328.458 46.9706 330.754 44.482 332.491 41.6018C333.166 40.4833 332.556 39.0216 331.291 38.7271L324.568 37.161C323.537 35.0737 322.056 33.1671 320.141 31.5999C319.259 30.8784 318.346 30.2526 317.412 29.7234Z" fill="#ACB0AF"/>
<path fill-rule="evenodd" clip-rule="evenodd" d="M332.766 40.6227C331.362 41.0026 330.097 41.1805 329.045 41.2423C327.718 41.3201 326.43 42.6065 326.365 43.9501C326.29 45.4925 325.986 47.3881 325.219 49.2851C328.161 47.2857 330.641 44.6653 332.488 41.6018C332.675 41.2911 332.764 40.954 332.766 40.6227Z" fill="#E8789A"/>
<path fill-rule="evenodd" clip-rule="evenodd" d="M315.293 21.7203C314.712 23.0693 314.351 24.3089 314.134 25.352C313.862 26.6668 312.413 27.7642 311.089 27.6312C309.57 27.4785 307.672 27.5023 305.703 27.9888C308.095 25.3425 311.026 23.2497 314.297 21.8545C314.627 21.7135 314.969 21.6748 315.293 21.7203Z" fill="#E8789A"/>
<path fill-rule="evenodd" clip-rule="evenodd" d="M321.869 33.2039C321.822 33.2397 321.775 33.276 321.727 33.3127C318.68 33.981 314.366 37.3694 316.188 39.8068C317.392 41.4174 318.456 40.6247 320.171 39.3466C321.052 38.6904 322.104 37.9063 323.435 37.2538C323.743 37.0176 324.031 36.7863 324.298 36.5599C323.643 35.3608 322.832 34.2314 321.869 33.2039Z" fill="#7C7575"/>
<path fill-rule="evenodd" clip-rule="evenodd" d="M320.854 32.3727C320.228 32.8961 319.381 33.4283 318.331 33.973C316.97 34.3641 315.85 34.9262 314.913 35.3966C313.087 36.3128 311.955 36.8811 311.081 35.1608C309.758 32.5574 314.377 30.089 317.359 29.9715C317.508 29.8944 317.651 29.8204 317.789 29.7495L317.833 30.0354C318.913 30.6835 319.928 31.4642 320.854 32.3727Z" fill="#7C7575"/>
<ellipse cx="2.85152" cy="2.85009" rx="2.85152" ry="2.85009" transform="matrix(0.774034 0.633486 -0.623661 0.781451 303.434 33.6997)" fill="#1E1E1E"/>
<ellipse cx="2.85153" cy="2.85008" rx="2.85153" ry="2.85008" transform="matrix(-0.774034 -0.633486 -0.623661 0.781451 317.104 46.3696)" fill="#1E1E1E"/>
<ellipse cx="0.823775" cy="0.823358" rx="0.823775" ry="0.823358" transform="matrix(0.774033 0.633487 -0.62366 0.781452 303.26 35.1118)" fill="#DFDFDF"/>
<ellipse cx="0.823771" cy="0.823357" rx="0.823771" ry="0.823357" transform="matrix(-0.774035 -0.633485 -0.623662 0.78145 313.701 45.5532)" fill="#DFDFDF"/>
<path d="M303.743 43.9586C303.949 45.2024 305.026 46.1067 306.272 46.0817C306.968 46.0677 307.271 45.1863 306.734 44.7357L304.964 43.2496C304.427 42.799 303.628 43.2634 303.743 43.9586Z" fill="#5A3018"/>
<path d="M305.789 48.6751C305.399 48.6153 305.069 48.4283 304.808 48.2104C304.542 47.9443 304.345 47.6472 304.286 47.2882C304.205 46.9557 304.242 46.5875 304.426 46.2539L305.182 44.8928L304.007 45.9051C303.741 46.1253 303.391 46.2318 303.031 46.2421C302.672 46.2523 302.32 46.0917 302.038 45.9001C301.75 45.6604 301.506 45.3679 301.399 45.0135C301.267 44.6373 301.251 44.2256 301.404 43.822C301.151 44.1866 301.05 44.6338 301.118 45.0891C301.187 45.5444 301.419 45.9596 301.733 46.2212C302.077 46.5527 302.503 46.7305 302.962 46.7593C303.204 46.7846 303.464 46.7353 303.697 46.6643C303.673 46.9097 303.675 47.1769 303.746 47.4131C303.861 47.8638 304.141 48.2745 304.503 48.5314C304.864 48.7884 305.311 48.9399 305.744 48.9468C306.198 48.9274 306.638 48.7635 306.917 48.4207C306.603 48.6454 306.179 48.7348 305.789 48.6751Z" fill="#5A3018"/>
<path d="M289.714 52.8267C290.407 48.3649 302.229 52.8267 309.697 56.2562C311.788 63.1171 309.355 62.0376 304.878 62.7136C299.534 61.277 289.021 57.2885 289.714 52.8267Z" fill="#ACB0AF"/>
<path d="M299.934 64.0066V71.7617C306.408 69.9005 309.645 63.4035 310.454 60.3876C298.046 62.1971 293.191 57.8026 289.685 53.6665C289.469 57.8026 296.428 62.2833 299.934 64.0066Z" fill="#949595"/>
</g>
<defs>
<filter id="filter0_f_18049_120836" x="171.951" y="-62.2946" width="238.452" height="201.419" filterUnits="userSpaceOnUse" color-interpolation-filters="sRGB">
<feFlood flood-opacity="0" result="BackgroundImageFix"/>
<feBlend mode="normal" in="SourceGraphic" in2="BackgroundImageFix" result="shape"/>
<feGaussianBlur stdDeviation="27.0968" result="effect1_foregroundBlur_18049_120836"/>
</filter>
<filter id="filter1_f_18049_120836" x="-38.5021" y="8.15466" width="222.194" height="206.839" filterUnits="userSpaceOnUse" color-interpolation-filters="sRGB">
<feFlood flood-opacity="0" result="BackgroundImageFix"/>
<feBlend mode="normal" in="SourceGraphic" in2="BackgroundImageFix" result="shape"/>
<feGaussianBlur stdDeviation="18.0645" result="effect1_foregroundBlur_18049_120836"/>
</filter>
<filter id="filter2_f_18049_120836" x="66.2733" y="30.7367" width="130.967" height="125.548" filterUnits="userSpaceOnUse" color-interpolation-filters="sRGB">
<feFlood flood-opacity="0" result="BackgroundImageFix"/>
<feBlend mode="normal" in="SourceGraphic" in2="BackgroundImageFix" result="shape"/>
<feGaussianBlur stdDeviation="18.0645" result="effect1_foregroundBlur_18049_120836"/>
</filter>
<filter id="filter3_f_18049_120836" x="-59.2756" y="-53.2634" width="188.774" height="181.548" filterUnits="userSpaceOnUse" color-interpolation-filters="sRGB">
<feFlood flood-opacity="0" result="BackgroundImageFix"/>
<feBlend mode="normal" in="SourceGraphic" in2="BackgroundImageFix" result="shape"/>
<feGaussianBlur stdDeviation="27.0968" result="effect1_foregroundBlur_18049_120836"/>
</filter>
<filter id="filter4_f_18049_120836" x="-59.2756" y="-53.2634" width="208.645" height="199.613" filterUnits="userSpaceOnUse" color-interpolation-filters="sRGB">
<feFlood flood-opacity="0" result="BackgroundImageFix"/>
<feBlend mode="normal" in="SourceGraphic" in2="BackgroundImageFix" result="shape"/>
<feGaussianBlur stdDeviation="27.0968" result="effect1_foregroundBlur_18049_120836"/>
</filter>
<filter id="filter5_f_18049_120836" x="171.951" y="-62.2946" width="238.452" height="201.419" filterUnits="userSpaceOnUse" color-interpolation-filters="sRGB">
<feFlood flood-opacity="0" result="BackgroundImageFix"/>
<feBlend mode="normal" in="SourceGraphic" in2="BackgroundImageFix" result="shape"/>
<feGaussianBlur stdDeviation="27.0968" result="effect1_foregroundBlur_18049_120836"/>
</filter>
<filter id="filter6_f_18049_120836" x="21.1112" y="19.8988" width="174.323" height="165.29" filterUnits="userSpaceOnUse" color-interpolation-filters="sRGB">
<feFlood flood-opacity="0" result="BackgroundImageFix"/>
<feBlend mode="normal" in="SourceGraphic" in2="BackgroundImageFix" result="shape"/>
<feGaussianBlur stdDeviation="18.0645" result="effect1_foregroundBlur_18049_120836"/>
</filter>
<filter id="filter7_d_18049_120836" x="-14.1144" y="-22.5309" width="341.42" height="159.115" filterUnits="userSpaceOnUse" color-interpolation-filters="sRGB">
<feFlood flood-opacity="0" result="BackgroundImageFix"/>
<feColorMatrix in="SourceAlpha" type="matrix" values="0 0 0 0 0 0 0 0 0 0 0 0 0 0 0 0 0 0 127 0" result="hardAlpha"/>
<feOffset dx="-9.03226"/>
<feGaussianBlur stdDeviation="18.0645"/>
<feComposite in2="hardAlpha" operator="out"/>
<feColorMatrix type="matrix" values="0 0 0 0 0.313726 0 0 0 0 0.396078 0 0 0 0 0.74902 0 0 0 0.08 0"/>
<feBlend mode="normal" in2="BackgroundImageFix" result="effect1_dropShadow_18049_120836"/>
<feBlend mode="normal" in="SourceGraphic" in2="effect1_dropShadow_18049_120836" result="shape"/>
</filter>
<clipPath id="clip0_18049_120836">
<rect x="0.337891" y="0.930176" width="336" height="114" rx="8" fill="white"/>
</clipPath>
</defs>
</svg>
