<svg width="10" height="10" viewBox="0 0 10 10" fill="none" xmlns="http://www.w3.org/2000/svg">
<path fill-rule="evenodd" clip-rule="evenodd" d="M5.63868 0.647523C5.84311 0.71131 5.98213 0.898971 5.98213 1.11114V3.54168H7.94642C8.12954 3.54168 8.29743 3.64253 8.382 3.8033C8.46656 3.96407 8.45374 4.15806 8.3487 4.30655L4.91123 9.16761C4.78831 9.34145 4.56571 9.41626 4.36129 9.35248C4.15687 9.2887 4.01785 9.10102 4.01785 8.88888V6.45834H2.05357C1.87046 6.45834 1.70256 6.35748 1.618 6.19672C1.53344 6.03592 1.54627 5.84196 1.65127 5.69346L5.08878 0.83238C5.21169 0.658562 5.4343 0.583737 5.63868 0.647523Z" fill="white"/>
</svg>
