<svg width="32" height="32" viewBox="0 0 32 32" fill="none" xmlns="http://www.w3.org/2000/svg">
<path fill-rule="evenodd" clip-rule="evenodd" d="M18.0438 2.07207C18.698 2.27619 19.1428 2.87671 19.1428 3.55566V11.3334H25.4285C26.0145 11.3334 26.5518 11.6561 26.8224 12.1705C27.093 12.685 27.052 13.3058 26.7158 13.781L15.7159 29.3364C15.3226 29.8926 14.6103 30.132 13.9561 29.9279C13.302 29.7238 12.8571 29.1233 12.8571 28.4444V20.6667H6.57143C5.98549 20.6667 5.4482 20.3439 5.1776 19.8295C4.90702 19.3149 4.94805 18.6943 5.28407 18.2191L16.2841 2.66361C16.6774 2.1074 17.3897 1.86796 18.0438 2.07207Z" fill="currentColor"/>
</svg>
