<svg width="14" height="9" viewBox="0 0 14 9" fill="#5F6368" xmlns="http://www.w3.org/2000/svg">
<path fill-rule="evenodd" clip-rule="evenodd" d="M12.9451 0.618599C12.995 0.666597 13.0347 0.723616 13.0617 0.786392C13.0887 0.849167 13.1026 0.916464 13.1026 0.984429C13.1026 1.05239 13.0887 1.11969 13.0617 1.18247C13.0347 1.24524 12.995 1.30226 12.9451 1.35026L5.43658 8.58418C5.38677 8.6323 5.32758 8.67047 5.26242 8.69652C5.19727 8.72257 5.12741 8.73598 5.05687 8.73598C4.98633 8.73598 4.91647 8.72257 4.85132 8.69652C4.78616 8.67047 4.72697 8.6323 4.67715 8.58418L0.922908 4.96722C0.822201 4.87019 0.765625 4.7386 0.765625 4.60139C0.765625 4.46418 0.822201 4.33258 0.922908 4.23556C1.02361 4.13853 1.1602 4.08403 1.30262 4.08403C1.44504 4.08403 1.58163 4.13853 1.68234 4.23556L5.05687 7.48772L12.1856 0.618599C12.2355 0.57048 12.2947 0.532303 12.3598 0.506254C12.425 0.480205 12.4948 0.466797 12.5654 0.466797C12.6359 0.466797 12.7058 0.480205 12.7709 0.506254C12.8361 0.532303 12.8953 0.57048 12.9451 0.618599Z" fill="current"/>
</svg>
