<svg width="197" height="149" viewBox="0 0 197 149" fill="none" xmlns="http://www.w3.org/2000/svg">
<g opacity="0.2">
<mask id="mask0_8476_59954" style="mask-type:alpha" maskUnits="userSpaceOnUse" x="0" y="0" width="198" height="149">
<path d="M0.288086 149H193C195.209 149 197 147.209 197 145V0.255707H0.288086V149Z" fill="#C4C4C4"/>
</mask>
<g mask="url(#mask0_8476_59954)">
<g filter="url(#filter0_f_8476_59954)">
<path fill-rule="evenodd" clip-rule="evenodd" d="M129.3 100.395C120.911 105.29 114.31 111.602 112.662 118.36C111.045 124.988 117.583 130.343 120.502 136.477C124.186 144.22 121.609 154.359 131.982 158.961C142.592 163.668 158.326 161.044 172.108 159.372C186.48 157.628 201.66 155.737 212.593 149.18C223.748 142.491 231.701 132.972 231.145 123.967C230.624 115.521 217.678 110.799 209.828 104.373C203.564 99.2455 199.71 92.587 189.901 90.2049C180.227 87.8556 168.865 90.0179 158.141 91.8211C147.768 93.5653 137.367 95.6879 129.3 100.395Z" fill="url(#paint0_linear_8476_59954)"/>
</g>
</g>
</g>
<defs>
<filter id="filter0_f_8476_59954" x="70.1016" y="46.8687" width="203.378" height="157.064" filterUnits="userSpaceOnUse" color-interpolation-filters="sRGB">
<feFlood flood-opacity="0" result="BackgroundImageFix"/>
<feBlend mode="normal" in="SourceGraphic" in2="BackgroundImageFix" result="shape"/>
<feGaussianBlur stdDeviation="21.1534" result="effect1_foregroundBlur_8476_59954"/>
</filter>
<linearGradient id="paint0_linear_8476_59954" x1="99.7774" y1="42.5394" x2="136.259" y2="224.686" gradientUnits="userSpaceOnUse">
<stop offset="0.380208" stop-color="#0072FF"/>
<stop offset="1" stop-color="#82E1E1"/>
</linearGradient>
</defs>
</svg>
