<svg width="45" height="45" viewBox="0 0 45 45" fill="none" xmlns="http://www.w3.org/2000/svg">
<g clip-path="url(#clip0_12358_81507)">
<path d="M30.9375 2.8125C31.6834 2.8125 32.3988 3.10882 32.9262 3.63626C33.4537 4.16371 33.75 4.87908 33.75 5.625V39.375C33.75 40.1209 33.4537 40.8363 32.9262 41.3637C32.3988 41.8912 31.6834 42.1875 30.9375 42.1875H14.0625C13.3166 42.1875 12.6012 41.8912 12.0738 41.3637C11.5463 40.8363 11.25 40.1209 11.25 39.375V5.625C11.25 4.87908 11.5463 4.16371 12.0738 3.63626C12.6012 3.10882 13.3166 2.8125 14.0625 2.8125H30.9375ZM14.0625 0C12.5707 0 11.1399 0.592632 10.085 1.64752C9.03013 2.70242 8.4375 4.13316 8.4375 5.625V39.375C8.4375 40.8668 9.03013 42.2976 10.085 43.3525C11.1399 44.4074 12.5707 45 14.0625 45H30.9375C32.4293 45 33.8601 44.4074 34.915 43.3525C35.9699 42.2976 36.5625 40.8668 36.5625 39.375V5.625C36.5625 4.13316 35.9699 2.70242 34.915 1.64752C33.8601 0.592632 32.4293 0 30.9375 0L14.0625 0Z" fill="#D1D2D8"/>
<rect x="13.6046" y="27.7327" width="5.23256" height="5.23256" rx="2" fill="#738BFB"/>
<rect x="26.1628" y="34.0117" width="5.23256" height="5.23256" rx="2" fill="#738BFB"/>
<rect x="19.8837" y="34.0117" width="5.23256" height="5.23256" rx="2" fill="#738BFB"/>
<rect x="13.6046" y="34.0117" width="5.23256" height="5.23256" rx="2" fill="white"/>
<rect x="19.8837" y="27.7327" width="5.23256" height="5.23256" rx="2" fill="#738BFB"/>
<rect x="26.1628" y="27.7327" width="5.23256" height="5.23256" rx="2" fill="white"/>
<path d="M13.6045 11.9419H19.8836" stroke="#F9FAFB" stroke-width="2"/>
<path d="M20.9302 11.9419H31.3953" stroke="#F9FAFB" stroke-width="2"/>
<path d="M17.2676 15.6045H27.7327" stroke="#738BFB" stroke-width="2"/>
</g>
<defs>
<clipPath id="clip0_12358_81507">
<rect width="45" height="45" fill="white"/>
</clipPath>
</defs>
</svg>
