<svg width="32" height="32" viewBox="0 0 32 32" fill="none" xmlns="http://www.w3.org/2000/svg">
    <path d="M15.9992 5.59995C15.9992 4.27446 17.0738 3.19995 18.3992 3.19995C19.7247 3.19995 20.7992 4.27446 20.7992 5.59995V6.39995C20.7992 7.2836 21.5155 7.99995 22.3992 7.99995H27.1992C28.0829 7.99995 28.7992 8.7163 28.7992 9.59995V14.4C28.7992 15.2836 28.0829 16 27.1992 16H26.3992C25.0738 16 23.9992 17.0745 23.9992 18.4C23.9992 19.7254 25.0738 20.7999 26.3992 20.7999H27.1992C28.0829 20.7999 28.7992 21.5163 28.7992 22.4V27.1999C28.7992 28.0836 28.0829 28.7999 27.1992 28.7999H22.3992C21.5155 28.7999 20.7992 28.0836 20.7992 27.1999V26.4C20.7992 25.0745 19.7247 24 18.3992 24C17.0738 24 15.9992 25.0745 15.9992 26.4V27.1999C15.9992 28.0836 15.2829 28.7999 14.3992 28.7999H9.59922C8.71557 28.7999 7.99922 28.0836 7.99922 27.1999V22.4C7.99922 21.5163 7.28287 20.7999 6.39922 20.7999H5.59922C4.27373 20.7999 3.19922 19.7254 3.19922 18.4C3.19922 17.0745 4.27373 16 5.59922 16H6.39922C7.28287 16 7.99922 15.2836 7.99922 14.4V9.59995C7.99922 8.7163 8.71557 7.99995 9.59922 7.99995H14.3992C15.2829 7.99995 15.9992 7.2836 15.9992 6.39995V5.59995Z" fill="currentColor"/>
</svg>
