<svg width="32" height="32" viewBox="0 0 32 32" fill="none" xmlns="http://www.w3.org/2000/svg">
<path fill-rule="evenodd" clip-rule="evenodd" d="M21.333 10.6667C21.333 13.6134 18.9463 16 15.9997 16C13.053 16 10.6663 13.6134 10.6663 10.6667C10.6663 7.72004 13.053 5.33337 15.9997 5.33337C18.9463 5.33337 21.333 7.72004 21.333 10.6667ZM5.33301 24C5.33301 20.4534 12.4397 18.6667 15.9997 18.6667C16.7263 18.6667 17.6007 18.7411 18.5323 18.8898C17.1608 20.333 16.3191 22.2845 16.3191 24.4327C16.3191 25.2078 16.4287 25.9574 16.6332 26.6667H5.33301V24Z" fill="currentColor"/>
<path fill-rule="evenodd" clip-rule="evenodd" d="M25.7834 19.3065C25.4992 18.1356 23.8339 18.1356 23.5496 19.3065C23.366 20.063 22.4993 20.4219 21.8346 20.0169C20.8056 19.3899 19.6281 20.5675 20.2551 21.5965C20.6601 22.2612 20.3011 23.1278 19.5447 23.3114C18.3738 23.5957 18.3738 25.261 19.5447 25.5452C20.3011 25.7289 20.6601 26.5955 20.2551 27.2602C19.6281 28.2892 20.8056 29.4668 21.8346 28.8398C22.4993 28.4348 23.366 28.7937 23.5496 29.5502C23.8339 30.7211 25.4992 30.7211 25.7834 29.5502C25.9671 28.7937 26.8337 28.4348 27.4984 28.8398C28.5274 29.4668 29.7049 28.2892 29.0779 27.2602C28.6729 26.5955 29.0319 25.7289 29.7883 25.5452C30.9592 25.261 30.9592 23.5957 29.7883 23.3114C29.0319 23.1278 28.6729 22.2612 29.0779 21.5965C29.7049 20.5675 28.5274 19.3899 27.4984 20.0169C26.8337 20.4219 25.9671 20.063 25.7834 19.3065ZM24.6665 26.6783C25.9092 26.6783 26.9165 25.671 26.9165 24.4283C26.9165 23.1857 25.9092 22.1783 24.6665 22.1783C23.4239 22.1783 22.4165 23.1857 22.4165 24.4283C22.4165 25.671 23.4239 26.6783 24.6665 26.6783Z" fill="currentColor"/>
</svg>
