<svg width="20" height="20" viewBox="0 0 20 20" fill="none" xmlns="http://www.w3.org/2000/svg">
<circle cx="10" cy="10" r="9" fill="#FBBF24" stroke="white" stroke-width="2"/>
<path d="M7.12531 9.49377C6.74509 9.09321 6.11214 9.07671 5.71158 9.45693C5.31101 9.83715 5.29452 10.4701 5.67474 10.8707L7.12531 9.49377ZM9.07431 12.9996L8.34902 13.6881C8.53783 13.887 8.80005 13.9996 9.07431 13.9996C9.34857 13.9996 9.61079 13.887 9.7996 13.6881L9.07431 12.9996ZM14.9253 8.28806C15.3055 7.88749 15.289 7.25454 14.8885 6.87432C14.4879 6.4941 13.855 6.5106 13.4747 6.91116L14.9253 8.28806ZM5.67474 10.8707L8.34902 13.6881L9.7996 12.3112L7.12531 9.49377L5.67474 10.8707ZM9.7996 13.6881L14.9253 8.28806L13.4747 6.91116L8.34902 12.3112L9.7996 13.6881Z" fill="white"/>
</svg>
