<svg width="20" height="20" viewBox="0 0 20 20" fill="none" xmlns="http://www.w3.org/2000/svg">
<path fill-rule="evenodd" clip-rule="evenodd" d="M11.6753 2.3173C11.249 0.560898 8.75102 0.560898 8.32463 2.3173C8.04918 3.45192 6.74925 3.99037 5.75218 3.38285C4.2087 2.44238 2.44238 4.2087 3.38285 5.75218C3.99037 6.74925 3.45192 8.04917 2.3173 8.32463C0.560898 8.75102 0.560898 11.249 2.3173 11.6753C3.45192 11.9509 3.99037 13.2508 3.38285 14.2478C2.44238 15.7913 4.2087 17.5576 5.75219 16.6171C6.74925 16.0096 8.04918 16.5481 8.32463 17.6827C8.75102 19.4391 11.249 19.4391 11.6753 17.6827C11.9509 16.5481 13.2508 16.0096 14.2478 16.6171C15.7913 17.5576 17.5576 15.7913 16.6171 14.2478C16.0096 13.2508 16.5481 11.9509 17.6827 11.6753C19.4391 11.249 19.4391 8.75102 17.6827 8.32463C16.5481 8.04917 16.0096 6.74925 16.6171 5.75218C17.5576 4.2087 15.7913 2.44238 14.2478 3.38285C13.2508 3.99037 11.9509 3.45192 11.6753 2.3173ZM10 13.375C11.864 13.375 13.375 11.864 13.375 10C13.375 8.13604 11.864 6.625 10 6.625C8.13604 6.625 6.625 8.13604 6.625 10C6.625 11.864 8.13604 13.375 10 13.375Z" fill="#currentColor"/>
</svg>
