<svg width="15" height="15" viewBox="0 0 15 15" fill="none" xmlns="http://www.w3.org/2000/svg">
<path fill-rule="evenodd" clip-rule="evenodd" d="M8.86945 1.02835C8.53783 -0.33839 6.59498 -0.33839 6.26334 1.02835C6.0491 1.91126 5.03805 2.33025 4.26254 1.85751C3.06206 1.12568 1.68826 2.50014 2.41973 3.70119C2.89225 4.47707 2.47346 5.48859 1.59098 5.70294C0.224883 6.03474 0.224883 7.97852 1.59098 8.3103C2.47346 8.52469 2.89225 9.53623 2.41973 10.312C1.68826 11.5131 3.06206 12.8876 4.26255 12.1557C5.03805 11.683 6.0491 12.102 6.26334 12.9849C6.59498 14.3516 8.53783 14.3516 8.86945 12.9849C9.08374 12.102 10.0948 11.683 10.8702 12.1557C12.0707 12.8876 13.4446 11.5131 12.7131 10.312C12.2406 9.53623 12.6593 8.52469 13.5419 8.3103C14.9079 7.97852 14.9079 6.03474 13.5419 5.70294C12.6593 5.48859 12.2406 4.47707 12.7131 3.70119C13.4446 2.50014 12.0707 1.12568 10.8702 1.85751C10.0948 2.33025 9.08374 1.91126 8.86945 1.02835ZM7.56641 9.63288C9.01619 9.63288 10.1914 8.45711 10.1914 7.00663C10.1914 5.55619 9.01619 4.38038 7.56641 4.38038C6.11666 4.38038 4.9414 5.55619 4.9414 7.00663C4.9414 8.45711 6.11666 9.63288 7.56641 9.63288Z" fill="#currentColor"/>
</svg>
