<svg preserveAspectRatio="none" viewBox="0 0 29 28" xmlns="http://www.w3.org/2000/svg">
<path opacity="0.8" fill-rule="evenodd" clip-rule="evenodd" d="M14 21C17.866 21 21 17.866 21 14C21 10.134 17.866 7 14 7C10.134 7 7 10.134 7 14C7 17.866 10.134 21 14 21ZM14 22C18.4183 22 22 18.4183 22 14C22 9.58172 18.4183 6 14 6C9.58172 6 6 9.58172 6 14C6 18.4183 9.58172 22 14 22Z" fill="currentColor"/>
<path opacity="0.8" d="M12.9318 16.1688C12.9409 15.6353 13.0026 15.2139 13.1167 14.9045C13.2309 14.5952 13.4638 14.2522 13.8155 13.8756L14.7128 12.9677C15.0965 12.5418 15.2883 12.0845 15.2883 11.5958C15.2883 11.1251 15.1627 10.7575 14.9115 10.4929C14.6603 10.2239 14.295 10.0894 13.8155 10.0894C13.3496 10.0894 12.9752 10.2105 12.692 10.4526C12.4089 10.6947 12.2673 11.0197 12.2673 11.4277H11C11.0091 10.7014 11.2717 10.1163 11.7878 9.67249C12.3084 9.22416 12.9843 9 13.8155 9C14.6786 9 15.3499 9.22865 15.8294 9.68594C16.3135 10.1388 16.5556 10.7619 16.5556 11.5555C16.5556 12.3401 16.1856 13.1134 15.4458 13.8756L14.6991 14.6019C14.3658 14.965 14.1991 15.4873 14.1991 16.1688H12.9318ZM12.877 18.3006C12.877 18.0989 12.9386 17.9307 13.0619 17.7962C13.1898 17.6573 13.377 17.5878 13.6236 17.5878C13.8703 17.5878 14.0575 17.6573 14.1854 17.7962C14.3132 17.9307 14.3772 18.0989 14.3772 18.3006C14.3772 18.5024 14.3132 18.6705 14.1854 18.805C14.0575 18.935 13.8703 19 13.6236 19C13.377 19 13.1898 18.935 13.0619 18.805C12.9386 18.6705 12.877 18.5024 12.877 18.3006Z" fill="currentColor"/>
</svg>
