<svg preserveAspectRatio="none" viewBox="0 0 29 28" fill="none" xmlns="http://www.w3.org/2000/svg">
<path d="M28 14C28 17.713 26.525 21.274 23.8995 23.8995C21.274 26.525 17.713 28 14 28C10.287 28 6.72601 26.525 4.1005 23.8995C1.475 21.274 0 17.713 0 14C0.00143165 12.9117 0.132352 11.8274 0.39 10.77C0.411161 10.6337 0.460299 10.5032 0.534327 10.3868C0.608354 10.2704 0.705668 10.1705 0.820149 10.0936C0.93463 10.0166 1.0638 9.96411 1.19954 9.93947C1.33528 9.91482 1.47465 9.91853 1.60888 9.95036C1.74312 9.98219 1.86932 10.0415 1.97954 10.1244C2.08976 10.2074 2.18163 10.3123 2.24936 10.4324C2.31709 10.5526 2.35922 10.6855 2.37309 10.8228C2.38697 10.96 2.3723 11.0987 2.33 11.23C1.64453 14.0372 1.98633 16.997 3.29357 19.5741C4.60081 22.1512 6.78717 24.1754 9.45718 25.2805C12.1272 26.3856 15.1046 26.4987 17.8507 25.5993C20.5968 24.6999 22.9305 22.8474 24.4294 20.3769C25.9284 17.9064 26.4937 14.981 26.0231 12.1299C25.5526 9.27879 24.0772 6.69022 21.8639 4.83241C19.6506 2.9746 16.8454 1.97023 13.9559 2.00097C11.0664 2.03171 8.2833 3.09553 6.11 5H9C9.26522 5 9.51957 5.10536 9.70711 5.29289C9.89464 5.48043 10 5.73478 10 6C10 6.26522 9.89464 6.51957 9.70711 6.70711C9.51957 6.89464 9.26522 7 9 7H4C3.73478 7 3.48043 6.89464 3.29289 6.70711C3.10536 6.51957 3 6.26522 3 6V1C3 0.734784 3.10536 0.48043 3.29289 0.292893C3.48043 0.105357 3.73478 0 4 0C4.26522 0 4.51957 0.105357 4.70711 0.292893C4.89464 0.48043 5 0.734784 5 1V3.32C7.03856 1.60911 9.52255 0.514717 12.1608 0.165086C14.7991 -0.184546 17.4825 0.225069 19.8963 1.34592C22.3101 2.46678 24.3544 4.25243 25.7897 6.49361C27.225 8.7348 27.9917 11.3386 28 14ZM11 18.94C10.6948 18.7638 10.4416 18.5101 10.266 18.2045C10.0903 17.899 9.9986 17.5524 10 17.2V10.8C10.0011 10.4435 10.0974 10.0938 10.279 9.787C10.4607 9.48024 10.721 9.2276 11.0331 9.05525C11.3452 8.8829 11.6976 8.79709 12.054 8.80672C12.4104 8.81634 12.7577 8.92105 13.06 9.11L18.17 12.3C18.4594 12.4794 18.6983 12.7297 18.8639 13.0272C19.0295 13.3246 19.1164 13.6595 19.1164 14C19.1164 14.3405 19.0295 14.6754 18.8639 14.9728C18.6983 15.2703 18.4594 15.5206 18.17 15.7L13.06 18.89C12.7428 19.0908 12.3754 19.1982 12 19.2C11.6496 19.2024 11.3048 19.1128 11 18.94ZM12 17.2L17.11 14L12 10.8V17.2Z" fill="currentColor"/>
</svg>
