<svg width="20" height="20" viewBox="0 0 20 20" fill="none" xmlns="http://www.w3.org/2000/svg">
    <rect x="-0.25" y="-0.25" width="19.5" height="19.5" rx="3.75" transform="matrix(0 -1 -1 0 19.5 19.5)" stroke="white" stroke-width="0.5"/>
    <path d="M9.28471 15H6.46085V4.81818H9.50346C10.458 4.81818 11.275 5.02036 11.9545 5.42472C12.6339 5.82907 13.1543 6.40909 13.5155 7.16477C13.8801 7.91714 14.0608 8.82031 14.0574 9.87429C14.0541 10.9515 13.8652 11.8729 13.4907 12.6385C13.1162 13.4008 12.5742 13.9858 11.865 14.3935C11.1557 14.7978 10.2956 15 9.28471 15ZM7.0823 14.4233H9.25985C10.168 14.4233 10.9336 14.2427 11.5567 13.8814C12.1798 13.5168 12.6505 12.9948 12.9687 12.3153C13.2902 11.6359 13.4492 10.8222 13.4459 9.87429C13.4459 8.93963 13.2918 8.1392 12.9836 7.47301C12.6753 6.8035 12.2262 6.28977 11.6363 5.93182C11.0496 5.57386 10.3304 5.39489 9.4786 5.39489H7.0823V14.4233Z" fill="white"/>
</svg>
