<svg width="21" height="20" viewBox="0 0 21 20" fill="none" xmlns="http://www.w3.org/2000/svg">
    <rect x="-0.25" y="-0.25" width="19.5" height="19.5" rx="2.75" transform="matrix(0 -1 -1 0 20 19.5)" stroke="white" stroke-width="0.5"/>
    <path d="M7.61026 15V4.81818H10.7473C11.3903 4.81818 11.9438 4.94413 12.4078 5.19602C12.8719 5.44792 13.2282 5.79758 13.4767 6.24503C13.7253 6.68916 13.8496 7.2062 13.8496 7.79616C13.8496 8.3795 13.7253 8.89323 13.4767 9.33736C13.2282 9.77817 12.8719 10.1229 12.4078 10.3714C11.9471 10.62 11.3953 10.7443 10.7523 10.7443H7.94336V10.1626H10.7374C11.2611 10.1626 11.7085 10.0649 12.0797 9.86932C12.4509 9.67377 12.736 9.40033 12.9348 9.04901C13.1337 8.69437 13.2331 8.27675 13.2331 7.79616C13.2331 7.31226 13.1337 6.89134 12.9348 6.53338C12.736 6.17211 12.4493 5.89205 12.0748 5.69318C11.7035 5.49432 11.2561 5.39489 10.7324 5.39489H8.23171V15H7.61026ZM11.7914 10.3864L14.2971 15H13.5811L11.0904 10.3864H11.7914Z" fill="white"/>
</svg>
