<svg width="17" height="12" viewBox="0 0 17 12" fill="none" xmlns="http://www.w3.org/2000/svg">
    <path d="M3.58283 8H3.50202C1.56791 8 0 9.567 0 11.5C0 11.7761 0.223988 12 0.50029 12H12.2571C12.3653 12 12.4706 11.9649 12.5572 11.9L15.9781 9.33586C17.0765 8.51252 17.3272 6.96863 16.5456 5.84039C16.3939 5.62127 16.212 5.43538 16.0094 5.28443L16.2544 3.5707C16.2934 3.29733 16.1034 3.04406 15.8298 3.00501C15.5563 2.96596 15.3029 3.15591 15.2638 3.42928L15.0593 4.85985C14.7796 4.80275 14.4899 4.79548 14.2048 4.84066L14.0031 3.42928C13.964 3.15591 13.7106 2.96596 13.437 3.00501C13.1635 3.04406 12.9735 3.29733 13.0125 3.5707L13.2479 5.21744C13.2387 5.22361 13.2296 5.22984 13.2205 5.23615C13.1906 5.25679 13.1613 5.2781 13.1324 5.30007L9.58676 8H8.82233C9.76708 7.24194 10.4048 6.1073 10.496 4.80414C10.6694 2.32491 8.79908 0.17457 6.31843 0.00120545L6.28005 0L3.01864 0.0226746C2.78087 0.0243283 2.57712 0.19302 2.53124 0.426194C2.38331 1.17802 2.43298 1.8655 2.68752 2.47771C2.86888 2.91389 3.15429 3.26493 3.53443 3.52526C3.04586 4.05028 2.72708 4.73955 2.67314 5.51049C2.60605 6.46938 2.96228 7.36015 3.58283 8ZM9.49783 4.7344C9.36291 6.66269 7.68945 8.11657 5.76005 7.98173C4.51972 7.89505 3.58455 6.81987 3.67128 5.58025C3.75801 4.34064 4.83381 3.406 6.07414 3.49268C6.62539 3.53121 7.04103 4.00906 7.00248 4.56C6.96393 5.11094 6.4858 5.52634 5.93454 5.48782C5.65891 5.46855 5.41985 5.67624 5.40057 5.95171C5.3813 6.22718 5.58912 6.46611 5.86475 6.48538C6.96726 6.56243 7.92352 5.73165 8.00062 4.62977C8.07771 3.52789 7.24645 2.57217 6.14393 2.49512C5.51631 2.45126 4.91786 2.58843 4.39977 2.86217C4.01357 2.69964 3.75887 2.44841 3.6115 2.09398C3.47937 1.77619 3.427 1.41965 3.45753 1.01965L6.26717 1.00011C8.18734 1.14433 9.63231 2.81229 9.49783 4.7344ZM3.50202 9H9.75563C9.86517 9 9.97169 8.96407 10.0588 8.89772L13.7388 6.09551C13.7556 6.08274 13.7727 6.07035 13.79 6.05836C14.4208 5.62188 15.2862 5.77914 15.723 6.4096C16.1984 7.0959 16.0459 8.03502 15.3777 8.53585L12.0903 11H1.05062C1.28238 9.85888 2.29184 9 3.50202 9Z" fill="currentColor"/>
</svg>
