<svg width="20" height="20" viewBox="0 0 20 20" fill="none" xmlns="http://www.w3.org/2000/svg">
    <rect x="-0.25" y="-0.25" width="19.5" height="19.5" rx="2.75" transform="matrix(0 -1 -1 0 19.5 19.5)" stroke="white" stroke-width="0.5"/>
    <path d="M12.6126 7.36364C12.5595 6.73059 12.301 6.21851 11.837 5.82741C11.3763 5.43632 10.7797 5.24077 10.0472 5.24077C9.55339 5.24077 9.11423 5.33191 8.72976 5.5142C8.34529 5.6965 8.04368 5.94508 7.82493 6.25994C7.60618 6.57481 7.4968 6.93608 7.4968 7.34375C7.4968 7.60559 7.54652 7.84257 7.64595 8.05469C7.7487 8.26349 7.89287 8.45076 8.07848 8.61648C8.26409 8.77888 8.48449 8.9214 8.7397 9.04403C8.99491 9.16667 9.27663 9.27438 9.58487 9.36719L10.6985 9.69531C11.0797 9.81132 11.431 9.94555 11.7525 10.098C12.0773 10.2505 12.359 10.4328 12.5977 10.6449C12.8396 10.8537 13.0269 11.099 13.1594 11.3807C13.2953 11.6624 13.3633 11.9872 13.3633 12.3551C13.3633 12.892 13.2241 13.3726 12.9457 13.7969C12.6706 14.2211 12.2778 14.5559 11.7674 14.8011C11.2603 15.0431 10.6621 15.1641 9.97266 15.1641C9.31641 15.1641 8.74467 15.053 8.25746 14.831C7.77356 14.6089 7.39074 14.3007 7.10902 13.9062C6.8273 13.5085 6.66821 13.0511 6.63175 12.5341H7.26811C7.30125 12.955 7.43549 13.3196 7.67081 13.6278C7.90945 13.9328 8.22597 14.1681 8.62038 14.3338C9.0148 14.4995 9.46555 14.5824 9.97266 14.5824C10.5195 14.5824 11.0018 14.4896 11.4194 14.304C11.837 14.1151 12.1635 13.8532 12.3988 13.5185C12.6341 13.1837 12.7518 12.7943 12.7518 12.3501C12.7518 11.9922 12.6673 11.6856 12.4982 11.4304C12.3292 11.1752 12.079 10.9548 11.7475 10.7692C11.4194 10.5836 11.0117 10.4179 10.5245 10.272L9.33629 9.91406C8.54084 9.67211 7.93265 9.34233 7.51172 8.92472C7.09411 8.5071 6.8853 7.98674 6.8853 7.36364C6.8853 6.83996 7.0245 6.37595 7.30291 5.97159C7.58132 5.56392 7.95916 5.24408 8.43643 5.01207C8.91702 4.78007 9.45893 4.66406 10.0621 4.66406C10.6687 4.66406 11.204 4.78172 11.668 5.01705C12.132 5.24905 12.4999 5.56889 12.7717 5.97656C13.0434 6.38092 13.1942 6.84328 13.2241 7.36364H12.6126Z" fill="white"/>
</svg>
