<svg width="24" height="24" viewBox="0 0 24 24" fill="none" xmlns="http://www.w3.org/2000/svg">
<g id="Icon / translate" clip-path="url(#clip0_1142_31313)">
<rect id="Rectangle 10138" x="0.5" y="0.5" width="15.6154" height="15.6154" rx="0.5" stroke="currentColor"/>
<path id="Exclude" d="M15.6154 16.1154H16.1154V15.6154V7.88464H23C23.2762 7.88464 23.5 8.1085 23.5 8.38464V23C23.5 23.2762 23.2762 23.5 23 23.5H8.38464C8.1085 23.5 7.88464 23.2762 7.88464 23V16.1154H15.6154Z" stroke="currentColor"/>
<path id="Vector 551" d="M20.7692 12H18.9231M16.1538 12H18.9231M11.0769 20.3077C14.7692 19.3846 18 16.1538 18.9231 12M20.3077 20.3077C17.0769 19.8462 14.7692 17.0769 14.3077 16.1538" stroke="currentColor" stroke-linecap="round" stroke-linejoin="round"/>
<path id="Vector 550" d="M5.53846 12L8.30769 4.61536L11.0769 12M6.46154 9.69228H10.1538" stroke="currentColor" stroke-width="1.2" stroke-linecap="round" stroke-linejoin="round"/>
</g>
<defs>
<clipPath id="clip0_1142_31313">
<rect width="24" height="24" fill="white"/>
</clipPath>
</defs>
</svg>
