<svg width="20" height="20" viewBox="0 0 20 20" fill="none" xmlns="http://www.w3.org/2000/svg">
    <rect x="-0.5" y="-0.5" width="19" height="19" rx="2.5" transform="matrix(0 -1 -1 0 19 19)" stroke="currentColor"/>
    <path d="M9.34375 15H6.2017V4.81818H9.48295C10.4706 4.81818 11.3158 5.02202 12.0185 5.42969C12.7211 5.83404 13.2597 6.41572 13.6342 7.17472C14.0088 7.9304 14.196 8.83523 14.196 9.8892C14.196 10.9498 14.0071 11.8629 13.6293 12.6286C13.2514 13.3909 12.7012 13.9775 11.9787 14.3885C11.2562 14.7962 10.3778 15 9.34375 15ZM7.43466 13.9062H9.2642C10.1061 13.9062 10.8037 13.7438 11.3572 13.419C11.9107 13.0942 12.3234 12.6319 12.5952 12.032C12.867 11.4321 13.0028 10.7178 13.0028 9.8892C13.0028 9.06723 12.8686 8.35961 12.6001 7.76633C12.3317 7.16974 11.9306 6.71236 11.397 6.39418C10.8634 6.07268 10.1989 5.91193 9.40341 5.91193H7.43466V13.9062Z" fill="currentColor"/>
</svg>
