<svg width="37" height="36" viewBox="0 0 37 36" fill="none" xmlns="http://www.w3.org/2000/svg">
    <path d="M11.535 20.5715H11.4311C8.94438 20.5715 6.9285 22.5862 6.9285 25.0715C6.9285 25.4265 7.21649 25.7143 7.57173 25.7143H22.6876C22.8268 25.7143 22.9622 25.6692 23.0735 25.5858L27.4717 22.289C28.884 21.2304 29.2063 19.2454 28.2015 17.7948C28.0063 17.5131 27.7725 17.2741 27.512 17.08L27.827 14.8767C27.8772 14.5252 27.6328 14.1996 27.2812 14.1493C26.9295 14.0991 26.6037 14.3434 26.5534 14.6948L26.2905 16.5342C25.9309 16.4607 25.5584 16.4514 25.1918 16.5095L24.9324 14.6948C24.8822 14.3434 24.5564 14.0991 24.2047 14.1493C23.853 14.1996 23.6087 14.5252 23.6589 14.8767L23.9615 16.9939C23.9497 17.0018 23.938 17.0098 23.9262 17.018C23.8879 17.0445 23.8502 17.0719 23.8131 17.1001L19.2543 20.5715H18.2715C19.4862 19.5968 20.3061 18.138 20.4233 16.4625C20.6463 13.2749 18.2416 10.5102 15.0522 10.2873L15.0028 10.2858L10.8096 10.3149C10.5039 10.317 10.2419 10.5339 10.1829 10.8337C9.99275 11.8004 10.0566 12.6843 10.3839 13.4714C10.6171 14.0322 10.984 14.4835 11.4728 14.8182C10.8446 15.4933 10.4347 16.3795 10.3654 17.3707C10.2791 18.6035 10.7372 19.7488 11.535 20.5715ZM19.14 16.3728C18.9665 18.8521 16.8149 20.7214 14.3343 20.548C12.7396 20.4365 11.5372 19.0542 11.6487 17.4604C11.7602 15.8666 13.1434 14.6649 14.7381 14.7764C15.4469 14.8259 15.9813 15.4403 15.9317 16.1486C15.8821 16.857 15.2674 17.3911 14.5586 17.3415C14.2042 17.3168 13.8969 17.5838 13.8721 17.938C13.8473 18.2921 14.1145 18.5993 14.4689 18.6241C15.8864 18.7232 17.1159 17.655 17.215 16.2383C17.3141 14.8216 16.2454 13.5928 14.8278 13.4938C14.0209 13.4374 13.2515 13.6137 12.5854 13.9657C12.0888 13.7567 11.7613 13.4337 11.5719 12.978C11.402 12.5694 11.3346 12.111 11.3739 11.5968L14.9863 11.5716C17.4551 11.757 19.3129 13.9016 19.14 16.3728ZM11.4311 21.8572H19.4715C19.6123 21.8572 19.7492 21.811 19.8613 21.7257L24.5927 18.1229C24.6143 18.1064 24.6362 18.0905 24.6585 18.0751C25.4696 17.5139 26.5823 17.7161 27.1438 18.5267C27.755 19.4091 27.5589 20.6165 26.6999 21.2604L22.4732 24.4286H8.27929C8.57728 22.9615 9.87516 21.8572 11.4311 21.8572Z" fill="white"/>
</svg>
