<svg width="20" height="20" viewBox="0 0 20 20" fill="none" xmlns="http://www.w3.org/2000/svg">
    <rect x="-0.5" y="-0.5" width="19" height="19" rx="2.5" transform="matrix(0 -1 -1 0 19 19)" stroke="currentColor"/>
    <path d="M6.75542 15V4.81818H10.1958C10.9912 4.81818 11.6441 4.95407 12.1546 5.22585C12.665 5.49432 13.0428 5.86387 13.2881 6.33452C13.5334 6.80516 13.656 7.34044 13.656 7.94034C13.656 8.54025 13.5334 9.07221 13.2881 9.53622C13.0428 10.0002 12.6666 10.3648 12.1595 10.63C11.6524 10.8918 11.0045 11.0227 10.2156 11.0227H7.43155V9.90909H10.1759C10.7194 9.90909 11.1569 9.82955 11.4884 9.67045C11.8231 9.51136 12.0651 9.28598 12.2142 8.99432C12.3667 8.69934 12.4429 8.34801 12.4429 7.94034C12.4429 7.53267 12.3667 7.17637 12.2142 6.87145C12.0618 6.56652 11.8182 6.3312 11.4834 6.16548C11.1486 5.99645 10.7062 5.91193 10.156 5.91193H7.98837V15H6.75542ZM11.548 10.4261L14.0537 15H12.6219L10.156 10.4261H11.548Z" fill="currentColor"/>
</svg>
