<svg width="209" height="110" viewBox="0 0 209 110" fill="none" xmlns="http://www.w3.org/2000/svg">
    <g clip-path="url(#clip0_17656_111260)">
        <rect width="209" height="110" rx="8" fill="#1E1E1E"/>
        <g filter="url(#filter0_b_17656_111260)">
            <rect x="-2.53516" width="215.087" height="123" fill="white" fill-opacity="0.2"/>
        </g>
        <path d="M-686.352 59H289.658V100.247H-686.352V59Z" fill="white" fill-opacity="0.2"/>
        <path d="M175.767 79.2384C175.795 79.0009 175.814 78.7539 175.814 78.4973C175.814 78.2408 175.795 78.0033 175.767 77.7563L177.363 76.5022C177.505 76.3882 177.543 76.1887 177.448 76.0177L175.928 73.3956C175.843 73.234 175.634 73.1675 175.472 73.234L173.581 73.9941C173.192 73.6901 172.764 73.4431 172.299 73.253L172.014 71.2389C171.995 71.0584 171.833 70.9254 171.643 70.9254H168.603C168.413 70.9254 168.261 71.0584 168.233 71.2389L167.948 73.253C167.492 73.4431 167.064 73.6996 166.665 73.9941L164.774 73.234C164.603 73.1675 164.404 73.234 164.318 73.3956L162.798 76.0177C162.703 76.1792 162.751 76.3882 162.884 76.5022L164.48 77.7563C164.451 77.9938 164.432 78.2503 164.432 78.4973C164.432 78.7444 164.451 78.9914 164.48 79.2384L162.884 80.4925C162.741 80.6065 162.703 80.806 162.798 80.977L164.318 83.5991C164.404 83.7606 164.613 83.8271 164.774 83.7606L166.665 83.0006C167.055 83.3046 167.482 83.5516 167.948 83.7416L168.233 85.7557C168.252 85.9363 168.413 86.0693 168.603 86.0693H171.643C171.833 86.0693 171.985 85.9363 172.014 85.7557L172.299 83.7416C172.755 83.5516 173.182 83.2951 173.581 83.0006L175.472 83.7606C175.643 83.8271 175.843 83.7606 175.928 83.5991L177.448 80.977C177.534 80.8155 177.496 80.6065 177.363 80.4925L175.767 79.2384ZM170.123 81.148C168.66 81.148 167.463 79.9604 167.463 78.4878C167.463 77.0248 168.651 75.8277 170.123 75.8277C171.586 75.8277 172.783 77.0153 172.783 78.4878C172.783 79.9509 171.596 81.148 170.123 81.148Z" fill="white"/>
        <path d="M210.981 77.5472H203.381V83.2475H210.981V77.5472ZM214.782 85.1476V71.8279C214.782 70.7828 213.926 69.9468 212.881 69.9468H195.78C194.735 69.9468 193.88 70.7828 193.88 71.8279V85.1476C193.88 86.1927 194.735 87.0477 195.78 87.0477H212.881C213.926 87.0477 214.782 86.1927 214.782 85.1476ZM212.881 85.1666H195.78V71.8184H212.881V85.1666Z" fill="white"/>
        <g clip-path="url(#clip1_17656_111260)">
            <path fill-rule="evenodd" clip-rule="evenodd" d="M59.8968 83.0331C59.7168 82.7925 59.5491 82.5386 59.395 82.2719C59.2075 81.9471 59.0465 81.6142 58.9116 81.2757C59.1187 81.1553 59.4209 80.9804 59.8432 80.7367C59.9544 80.6725 60.1769 80.5434 60.3376 80.4497C60.4982 80.356 60.7966 80.1827 61.0005 80.0645L61.2191 79.9377C61.2106 79.9174 61.2023 79.8973 61.1942 79.8775C60.9883 79.327 60.8797 78.637 60.9009 78.0128C60.9252 77.2963 61.058 76.7386 61.3533 76.1138C61.7686 75.2347 62.3501 74.5692 63.1847 74.0176C63.8656 73.5675 64.6112 73.267 65.2753 73.1751C65.5725 73.134 66.1855 73.1338 66.4932 73.1747C67.3068 73.2828 68.0995 73.6613 68.83 74.2903C68.9575 74.4 69.1262 74.5601 69.2049 74.6462C69.5644 75.0389 69.9794 75.6196 70.1406 75.9555C70.289 76.265 70.2892 76.5781 70.1411 76.8825C70.0273 77.1163 69.8684 77.2604 69.4662 77.4941C69.2808 77.6019 68.9269 77.8074 68.6797 77.9507C67.5233 78.6213 67.3221 78.7381 66.8595 79.0073C66.0679 79.4679 64.8956 80.1481 64.7247 80.2461C64.6382 80.2957 64.473 80.392 64.3575 80.4601L64.1476 80.5839L64.2339 80.6734C64.441 80.8881 64.8185 81.1243 65.1639 81.2552C65.5684 81.4085 65.677 81.4266 66.1966 81.4266C66.6264 81.4266 66.6731 81.4224 66.8932 81.3646C67.1845 81.2881 67.4054 81.2035 67.6936 81.0577C68.3496 80.7262 68.8303 80.2207 69.217 79.4558C69.3233 79.2455 69.3708 79.1784 69.5011 79.0548C69.8178 78.7542 70.1737 78.647 70.5549 78.7374C71.1895 78.8879 71.5219 79.429 71.3324 80.0032C71.0379 80.8958 70.0983 82.0396 69.1404 82.6717C68.909 82.8244 68.412 83.0818 68.1067 83.207C67.0407 83.6444 65.9352 83.7303 64.8606 83.4592C64.4301 83.3507 63.9373 83.1477 63.5763 82.9305C63.0762 82.6296 62.5196 82.1338 62.1976 81.7024L62.1954 81.6994L62.1802 81.7083C61.3886 82.1689 60.2163 82.8492 60.0454 82.9471C60.0075 82.9689 59.9543 82.9997 59.8968 83.0331ZM67.1515 75.7633C66.8618 75.5666 66.5625 75.435 66.2079 75.3483C65.6967 75.2233 65.1161 75.3349 64.5434 75.6683C63.782 76.1114 63.3442 76.6492 63.1504 77.3798C63.07 77.6826 63.0488 78.2398 63.1053 78.5665C63.1445 78.7935 63.1648 78.8375 63.2126 78.7993C63.2375 78.7793 63.5826 78.5782 64.5225 78.0357C64.6337 77.9715 64.8562 77.8423 65.0169 77.7486C65.1775 77.655 65.4758 77.4817 65.6798 77.3635C65.8837 77.2453 66.2225 77.0487 66.4326 76.9264C66.6427 76.8043 66.9966 76.5987 67.2191 76.4698C67.4415 76.3408 67.6317 76.2273 67.6416 76.2175C67.6664 76.1929 67.3436 75.8937 67.1515 75.7633Z" fill="white"/>
            <path d="M71.6506 88.1425C77.3022 84.8796 79.2386 77.6529 75.9756 72.0013C72.7127 66.3496 65.486 64.4133 59.8344 67.6762C54.1828 70.9392 52.2464 78.1659 55.5094 83.8175C58.7723 89.4691 65.999 91.4054 71.6506 88.1425Z" fill="#4F6EFD"/>
            <path fill-rule="evenodd" clip-rule="evenodd" d="M56.3218 85.2011C56.0423 84.8301 55.7818 84.4387 55.5427 84.0275C55.2514 83.5267 55.0015 83.0135 54.792 82.4917C55.1135 82.306 55.5828 82.0364 56.2386 81.6607C56.4113 81.5617 56.7568 81.3626 57.0062 81.2181C57.2558 81.0737 57.719 80.8065 58.0356 80.6243L58.3752 80.4288C58.3619 80.3975 58.349 80.3666 58.3364 80.336C58.0167 79.4872 57.8481 78.4236 57.881 77.4612C57.9187 76.3566 58.125 75.4967 58.5834 74.5335C59.2285 73.1783 60.1314 72.1522 61.4274 71.3017C62.4847 70.6078 63.6426 70.1446 64.6737 70.0029C65.1352 69.9396 66.0871 69.9392 66.565 70.0023C67.8282 70.169 69.0593 70.7525 70.1937 71.7222C70.3915 71.8913 70.6535 72.1382 70.7758 72.2709C71.3341 72.8763 71.9785 73.7716 72.2287 74.2895C72.4592 74.7666 72.4595 75.2492 72.2295 75.7185C72.0529 76.0791 71.8061 76.3012 71.1815 76.6616C70.8936 76.8277 70.344 77.1445 69.9602 77.3655C68.1645 78.3994 67.8521 78.5795 67.1338 78.9943C65.9044 79.7045 64.0842 80.7533 63.8188 80.9043C63.6845 80.9808 63.4279 81.1292 63.2486 81.2342L62.9226 81.4251L63.0566 81.563C63.3782 81.894 63.9645 82.2581 64.5008 82.46C65.1289 82.6964 65.2975 82.7242 66.1044 82.7242C66.7718 82.7242 66.8443 82.7178 67.1861 82.6287C67.6385 82.5108 67.9814 82.3802 68.429 82.1556C69.4476 81.6444 70.194 80.8652 70.7945 79.6859C70.9596 79.3617 71.0334 79.2582 71.2357 79.0676C71.7275 78.6042 72.2802 78.439 72.872 78.5783C73.8575 78.8103 74.3736 79.6446 74.0794 80.5299C73.6221 81.9059 72.163 83.6693 70.6755 84.6439C70.3163 84.8792 69.5444 85.2761 69.0704 85.4692C67.4151 86.1435 65.6984 86.2759 64.0297 85.858C63.3613 85.6906 62.596 85.3778 62.0355 85.0429C61.2588 84.5789 60.3947 83.8146 59.8946 83.1495L59.8912 83.1449L59.8676 83.1585C58.6383 83.8687 56.818 84.9175 56.5526 85.0685C56.4936 85.102 56.4111 85.1495 56.3218 85.2011ZM67.5872 73.9932C67.1372 73.6899 66.6725 73.487 66.1218 73.3533C65.3281 73.1606 64.4265 73.3327 63.5372 73.8466C62.3549 74.5298 61.6751 75.359 61.374 76.4853C61.2492 76.9521 61.2164 77.8112 61.3041 78.3149C61.365 78.6649 61.3965 78.7327 61.4707 78.6737C61.5093 78.643 62.0452 78.3328 63.5048 77.4965C63.6775 77.3975 64.0229 77.1984 64.2725 77.0539C64.5219 76.9095 64.9851 76.6423 65.3018 76.4601C65.6185 76.278 66.1445 75.9748 66.4708 75.7864C66.797 75.598 67.3466 75.2811 67.6921 75.0824C68.0375 74.8835 68.3328 74.7085 68.3482 74.6933C68.3867 74.6554 67.8854 74.1941 67.5872 73.9932Z" fill="white"/>
        </g>
        <rect width="42.5455" height="18.9091" rx="9.45455" transform="matrix(-1 0 0 1 129.563 68.4539)" fill="#4F6EFD"/>
        <g filter="url(#filter1_d_17656_111260)">
            <circle cx="11.8182" cy="11.8182" r="11.8182" transform="matrix(-1 0 0 1 129.562 66.0913)" fill="white"/>
        </g>
        <path d="M116.899 77.9945C116.899 78.7197 116.768 79.3464 116.506 79.8746C116.244 80.4029 115.885 80.8102 115.428 81.0968C114.972 81.3833 114.45 81.5265 113.864 81.5265C113.277 81.5265 112.756 81.3833 112.299 81.0968C111.843 80.8102 111.483 80.4029 111.222 79.8746C110.96 79.3464 110.829 78.7197 110.829 77.9945C110.829 77.2693 110.96 76.6426 111.222 76.1143C111.483 75.5861 111.843 75.1787 112.299 74.8922C112.756 74.6057 113.277 74.4625 113.864 74.4625C114.45 74.4625 114.972 74.6057 115.428 74.8922C115.885 75.1787 116.244 75.5861 116.506 76.1143C116.768 76.6426 116.899 77.2693 116.899 77.9945ZM116.093 77.9945C116.093 77.3991 115.994 76.8966 115.794 76.487C115.597 76.0774 115.33 75.7674 114.992 75.557C114.656 75.3466 114.28 75.2414 113.864 75.2414C113.447 75.2414 113.07 75.3466 112.732 75.557C112.397 75.7674 112.129 76.0774 111.93 76.487C111.733 76.8966 111.634 77.3991 111.634 77.9945C111.634 78.5899 111.733 79.0924 111.93 79.502C112.129 79.9116 112.397 80.2216 112.732 80.432C113.07 80.6424 113.447 80.7476 113.864 80.7476C114.28 80.7476 114.656 80.6424 114.992 80.432C115.33 80.2216 115.597 79.9116 115.794 79.502C115.994 79.0924 116.093 78.5899 116.093 77.9945ZM123.751 74.5565V81.4325H122.946L119.199 76.0337H119.132V81.4325H118.299V74.5565H119.105L122.865 79.9687H122.932V74.5565H123.751Z" fill="#4F6EFD"/>
        <rect x="46.8364" y="61.3618" width="89.8182" height="33.0909" rx="16.5455" stroke="white" stroke-opacity="0.7" stroke-width="2.36364"/>
        <g clip-path="url(#clip2_17656_111260)">
            <path fill-rule="evenodd" clip-rule="evenodd" d="M75.7633 65.5207C75.4694 64.3098 73.7473 64.3098 73.4534 65.5207C73.2635 66.3029 72.3673 66.6741 71.6799 66.2553C70.6159 65.6069 69.3982 66.8246 70.0465 67.8887C70.4654 68.5761 70.0941 69.4722 69.312 69.6621C68.1011 69.9561 68.1011 71.6781 69.312 71.9721C70.0941 72.162 70.4654 73.0582 70.0465 73.7455C69.3982 74.8096 70.6159 76.0273 71.6799 75.3789C72.3673 74.9601 73.2635 75.3313 73.4534 76.1135C73.7473 77.3243 75.4694 77.3243 75.7633 76.1135C75.9533 75.3313 76.8494 74.9601 77.5367 75.3789C78.6008 76.0273 79.8185 74.8096 79.1702 73.7455C78.7514 73.0582 79.1225 72.162 79.9048 71.9721C81.1156 71.6781 81.1156 69.9561 79.9048 69.6621C79.1225 69.4722 78.7514 68.5761 79.1702 67.8887C79.8185 66.8246 78.6008 65.6069 77.5367 66.2553C76.8494 66.6741 75.9533 66.3029 75.7633 65.5207ZM74.6084 73.1438C75.8934 73.1438 76.9351 72.1021 76.9351 70.8171C76.9351 69.5321 75.8934 68.4904 74.6084 68.4904C73.3234 68.4904 72.2816 69.5321 72.2816 70.8171C72.2816 72.1021 73.3234 73.1438 74.6084 73.1438Z" fill="#F1F1F1"/>
        </g>
        <g clip-path="url(#clip3_17656_111260)">
            <path d="M71.9707 96.5805L77.4443 99.1068L74.497 95.3174L72.8128 91.9491L70.7076 88.5807L69.4445 87.3176V85.2124L71.1287 83.9492L72.3918 84.3703L77.4443 91.528L77.0233 89.4228L77.8654 88.1597L79.9706 87.3176L82.4969 89.8438L82.0758 88.5807V86.8965L84.181 86.0544L85.8652 87.3176L87.5494 89.0017L88.8125 91.528L89.6546 93.6332L90.4967 96.1595L89.6546 98.2647L88.8125 101.633L87.1283 102.896L85.0231 104.58L82.4969 105.422L79.9706 105.844L72.3918 102.054L69.8655 100.37L69.0234 99.1068L69.8655 97.4226L71.9707 96.5805Z" fill="white"/>
            <path d="M82.5775 85.849C82.0227 86.2044 81.6009 86.7332 81.3776 87.3532C80.8748 86.9738 80.268 86.7575 79.6386 86.7334C79.0092 86.7092 78.3875 86.8784 77.8572 87.2182C77.3651 87.5334 76.9753 87.9849 76.7353 88.5178L74.0458 84.3564C73.6053 83.6748 72.9121 83.1962 72.1187 83.0257C71.3252 82.8552 70.4966 83.0069 69.815 83.4474C69.1334 83.8879 68.6547 84.5812 68.4842 85.3746C68.3137 86.168 68.4654 86.9967 68.906 87.6783L75.2239 97.454L72.9781 96.299C72.6202 96.1161 72.2299 96.0055 71.8293 95.9735C71.4287 95.9414 71.0257 95.9886 70.6433 96.1123C70.2604 96.2335 69.9056 96.43 69.5997 96.6902C69.2939 96.9505 69.0431 97.2692 68.8622 97.6278C68.6724 97.9843 68.5571 98.3757 68.5233 98.7782C68.4895 99.1806 68.5379 99.5858 68.6657 99.9689C68.9138 100.73 69.4495 101.365 70.1585 101.737C77.6498 106.368 81.563 107.804 86.357 104.706C88.609 103.247 90.1902 100.954 90.7539 98.3307C91.3176 95.7072 90.8176 92.9672 89.3637 90.7118L86.8084 86.758C86.3658 86.0789 85.6727 85.6023 84.8802 85.432C84.0877 85.2617 83.26 85.4116 82.5775 85.849ZM88.1776 91.4784C89.4282 93.4192 89.8581 95.7767 89.3731 98.034C88.8881 100.291 87.5278 102.264 85.5904 103.52C81.7552 105.999 78.7314 105.375 70.881 100.513L70.8258 100.493C70.4418 100.289 70.1501 99.946 70.0103 99.5343C69.9431 99.3274 69.9181 99.109 69.9369 98.8923C69.9557 98.6755 70.0178 98.4648 70.1196 98.2725C70.3187 97.8845 70.6636 97.5912 71.0785 97.457C71.4935 97.3228 71.9447 97.3585 72.3334 97.5565L76.9256 99.9135C77.0653 99.9834 77.2239 100.006 77.3775 99.9773C77.5311 99.9489 77.6712 99.8711 77.7766 99.7559C77.8795 99.6402 77.9415 99.4939 77.9532 99.3396C77.9648 99.1852 77.9254 99.0313 77.841 98.9015L70.0921 86.9117C69.8549 86.5447 69.7732 86.0985 69.865 85.6713C69.9568 85.244 70.2145 84.8707 70.5815 84.6336C70.9486 84.3964 71.3948 84.3147 71.822 84.4065C72.2492 84.4983 72.6225 84.756 72.8597 85.123L77.2037 91.8444C77.3054 92.0017 77.4653 92.1122 77.6484 92.1515C77.8315 92.1908 78.0228 92.1558 78.1801 92.0542C78.3373 91.9525 78.4478 91.7926 78.4871 91.6095C78.5265 91.4263 78.4915 91.2351 78.3898 91.0778L78.1343 90.6825C77.8971 90.3154 77.8154 89.8692 77.9072 89.442C77.999 89.0148 78.2568 88.6415 78.6238 88.4043C78.9908 88.1671 79.437 88.0854 79.8642 88.1772C80.2915 88.269 80.6647 88.5267 80.9019 88.8938L81.6685 90.0799C81.7702 90.2372 81.9301 90.3476 82.1132 90.387C82.2963 90.4263 82.4876 90.3913 82.6449 90.2897C82.8022 90.188 82.9126 90.028 82.952 89.8449C82.9913 89.6618 82.9563 89.4706 82.8546 89.3133C82.6174 88.9463 82.5358 88.5001 82.6276 88.0728C82.7193 87.6456 82.9771 87.2723 83.3441 87.0351C83.7111 86.7979 84.1573 86.7162 84.5846 86.808C85.0118 86.8998 85.3851 87.1576 85.6223 87.5246L88.1776 91.4784Z" fill="#F1F1F1"/>
        </g>
    </g>
    <defs>
        <filter id="filter0_b_17656_111260" x="-6.53516" y="-4" width="223.087" height="131" filterUnits="userSpaceOnUse" color-interpolation-filters="sRGB">
            <feFlood flood-opacity="0" result="BackgroundImageFix"/>
            <feGaussianBlur in="BackgroundImageFix" stdDeviation="2"/>
            <feComposite in2="SourceAlpha" operator="in" result="effect1_backgroundBlur_17656_111260"/>
            <feBlend mode="normal" in="SourceGraphic" in2="effect1_backgroundBlur_17656_111260" result="shape"/>
        </filter>
        <filter id="filter1_d_17656_111260" x="97.8923" y="61.2715" width="36.489" height="36.4892" filterUnits="userSpaceOnUse" color-interpolation-filters="sRGB">
            <feFlood flood-opacity="0" result="BackgroundImageFix"/>
            <feColorMatrix in="SourceAlpha" type="matrix" values="0 0 0 0 0 0 0 0 0 0 0 0 0 0 0 0 0 0 127 0" result="hardAlpha"/>
            <feOffset dx="-1.6066" dy="1.6066"/>
            <feGaussianBlur stdDeviation="3.2132"/>
            <feColorMatrix type="matrix" values="0 0 0 0 0.320833 0 0 0 0 0.320833 0 0 0 0 0.320833 0 0 0 0.2 0"/>
            <feBlend mode="normal" in2="BackgroundImageFix" result="effect1_dropShadow_17656_111260"/>
            <feBlend mode="normal" in="SourceGraphic" in2="effect1_dropShadow_17656_111260" result="shape"/>
        </filter>
        <clipPath id="clip0_17656_111260">
            <rect width="209" height="110" rx="8" fill="white"/>
        </clipPath>
        <clipPath id="clip1_17656_111260">
            <rect width="23.6364" height="23.6364" fill="white" transform="translate(53.9272 66.0891)"/>
        </clipPath>
        <clipPath id="clip2_17656_111260">
            <rect width="14.1818" height="14.1818" fill="white" transform="translate(67.5181 63.7255)"/>
        </clipPath>
        <clipPath id="clip3_17656_111260">
            <rect width="30.1288" height="30.1288" fill="white" transform="translate(58.5 89.3555) rotate(-32.8743)"/>
        </clipPath>
    </defs>
</svg>
