<svg width="209" height="110" viewBox="0 0 209 110" fill="none" xmlns="http://www.w3.org/2000/svg">
    <g clip-path="url(#clip0_17665_108037)">
        <rect width="209" height="110" rx="8" fill="#5F6368"/>
        <g filter="url(#filter0_b_17665_108037)">
            <rect x="-2.53516" width="215.087" height="123" fill="white" fill-opacity="0.6"/>
        </g>
        <path d="M-686.352 59H289.658V100.247H-686.352V59Z" fill="white" fill-opacity="0.2"/>
        <path d="M175.767 79.2383C175.795 79.0007 175.814 78.7537 175.814 78.4972C175.814 78.2407 175.795 78.0032 175.767 77.7562L177.363 76.5021C177.505 76.3881 177.543 76.1886 177.448 76.0176L175.928 73.3954C175.843 73.2339 175.634 73.1674 175.472 73.2339L173.581 73.994C173.192 73.6899 172.764 73.4429 172.299 73.2529L172.014 71.2388C171.995 71.0583 171.833 70.9253 171.643 70.9253H168.603C168.413 70.9253 168.261 71.0583 168.233 71.2388L167.948 73.2529C167.492 73.4429 167.064 73.6994 166.665 73.994L164.774 73.2339C164.603 73.1674 164.404 73.2339 164.318 73.3954L162.798 76.0176C162.703 76.1791 162.751 76.3881 162.884 76.5021L164.48 77.7562C164.451 77.9937 164.432 78.2502 164.432 78.4972C164.432 78.7442 164.451 78.9912 164.48 79.2383L162.884 80.4923C162.741 80.6063 162.703 80.8059 162.798 80.9769L164.318 83.599C164.404 83.7605 164.613 83.827 164.774 83.7605L166.665 83.0005C167.055 83.3045 167.482 83.5515 167.948 83.7415L168.233 85.7556C168.252 85.9361 168.413 86.0691 168.603 86.0691H171.643C171.833 86.0691 171.985 85.9361 172.014 85.7556L172.299 83.7415C172.755 83.5515 173.182 83.295 173.581 83.0005L175.472 83.7605C175.643 83.827 175.843 83.7605 175.928 83.599L177.448 80.9769C177.534 80.8154 177.496 80.6063 177.363 80.4923L175.767 79.2383ZM170.123 81.1479C168.66 81.1479 167.463 79.9603 167.463 78.4877C167.463 77.0246 168.651 75.8276 170.123 75.8276C171.586 75.8276 172.783 77.0151 172.783 78.4877C172.783 79.9508 171.596 81.1479 170.123 81.1479Z" fill="white"/>
        <path d="M210.981 77.547H203.381V83.2473H210.981V77.547ZM214.782 85.1474V71.8276C214.782 70.7826 213.926 69.9465 212.881 69.9465H195.78C194.735 69.9465 193.88 70.7826 193.88 71.8276V85.1474C193.88 86.1924 194.735 87.0475 195.78 87.0475H212.881C213.926 87.0475 214.782 86.1924 214.782 85.1474ZM212.881 85.1664H195.78V71.8181H212.881V85.1664Z" fill="white"/>
        <g clip-path="url(#clip1_17665_108037)">
            <path fill-rule="evenodd" clip-rule="evenodd" d="M59.8968 83.033C59.7168 82.7924 59.5491 82.5385 59.395 82.2718C59.2075 81.947 59.0465 81.6141 58.9116 81.2756C59.1187 81.1552 59.4209 80.9803 59.8432 80.7366C59.9544 80.6724 60.1769 80.5432 60.3376 80.4495C60.4982 80.3559 60.7966 80.1826 61.0005 80.0644L61.2191 79.9376C61.2106 79.9173 61.2023 79.8972 61.1942 79.8774C60.9883 79.3268 60.8797 78.6369 60.9009 78.0127C60.9252 77.2962 61.058 76.7385 61.3533 76.1137C61.7686 75.2346 62.3501 74.5691 63.1847 74.0174C63.8656 73.5674 64.6112 73.2669 65.2753 73.175C65.5725 73.1339 66.1855 73.1337 66.4932 73.1746C67.3068 73.2827 68.0995 73.6612 68.83 74.2901C68.9575 74.3998 69.1262 74.56 69.2049 74.6461C69.5644 75.0388 69.9794 75.6195 70.1406 75.9554C70.289 76.2648 70.2892 76.5779 70.1411 76.8823C70.0273 77.1162 69.8684 77.2603 69.4662 77.494C69.2808 77.6018 68.9269 77.8072 68.6797 77.9506C67.5233 78.6212 67.3221 78.738 66.8595 79.0071C66.0679 79.4678 64.8956 80.148 64.7247 80.246C64.6382 80.2956 64.473 80.3919 64.3575 80.46L64.1476 80.5838L64.2339 80.6733C64.441 80.888 64.8185 81.1241 65.1639 81.2551C65.5684 81.4084 65.677 81.4264 66.1966 81.4264C66.6264 81.4264 66.6731 81.4223 66.8932 81.3645C67.1845 81.288 67.4054 81.2033 67.6936 81.0576C68.3496 80.726 68.8303 80.2206 69.217 79.4557C69.3233 79.2454 69.3708 79.1783 69.5011 79.0547C69.8178 78.7541 70.1737 78.6469 70.5549 78.7372C71.1895 78.8878 71.5219 79.4289 71.3324 80.0031C71.0379 80.8957 70.0983 82.0395 69.1404 82.6716C68.909 82.8243 68.412 83.0817 68.1067 83.2069C67.0407 83.6443 65.9352 83.7302 64.8606 83.4591C64.4301 83.3505 63.9373 83.1476 63.5763 82.9304C63.0762 82.6295 62.5196 82.1337 62.1976 81.7023L62.1954 81.6993L62.1802 81.7082C61.3886 82.1688 60.2163 82.8491 60.0454 82.947C60.0075 82.9688 59.9543 82.9996 59.8968 83.033ZM67.1515 75.7632C66.8618 75.5665 66.5625 75.4349 66.2079 75.3482C65.6967 75.2232 65.1161 75.3348 64.5434 75.6681C63.782 76.1113 63.3442 76.6491 63.1504 77.3797C63.07 77.6825 63.0488 78.2397 63.1053 78.5664C63.1445 78.7934 63.1648 78.8374 63.2126 78.7992C63.2375 78.7792 63.5826 78.5781 64.5225 78.0356C64.6337 77.9714 64.8562 77.8422 65.0169 77.7485C65.1775 77.6549 65.4758 77.4815 65.6798 77.3634C65.8837 77.2452 66.2225 77.0485 66.4326 76.9263C66.6427 76.8041 66.9966 76.5986 67.2191 76.4697C67.4415 76.3407 67.6317 76.2272 67.6416 76.2173C67.6664 76.1928 67.3436 75.8935 67.1515 75.7632Z" fill="white"/>
            <path d="M71.6506 88.1427C77.3022 84.8797 79.2386 77.653 75.9756 72.0014C72.7127 66.3498 65.486 64.4134 59.8344 67.6764C54.1828 70.9393 52.2464 78.166 55.5094 83.8176C58.7723 89.4692 65.999 91.4055 71.6506 88.1427Z" fill="#4F6EFD"/>
            <path fill-rule="evenodd" clip-rule="evenodd" d="M56.3218 85.2012C56.0423 84.8302 55.7818 84.4388 55.5427 84.0276C55.2514 83.5268 55.0015 83.0136 54.792 82.4918C55.1135 82.3061 55.5828 82.0366 56.2386 81.6608C56.4113 81.5618 56.7568 81.3627 57.0062 81.2183C57.2558 81.0739 57.719 80.8067 58.0356 80.6244L58.3752 80.4289C58.3619 80.3977 58.349 80.3667 58.3364 80.3361C58.0167 79.4874 57.8481 78.4237 57.881 77.4614C57.9187 76.3568 58.125 75.4969 58.5834 74.5337C59.2285 73.1784 60.1314 72.1523 61.4274 71.3018C62.4847 70.6079 63.6426 70.1448 64.6737 70.0031C65.1352 69.9397 66.0871 69.9393 66.565 70.0024C67.8282 70.1691 69.0593 70.7526 70.1937 71.7223C70.3915 71.8914 70.6535 72.1383 70.7758 72.271C71.3341 72.8764 71.9785 73.7717 72.2287 74.2896C72.4592 74.7667 72.4595 75.2494 72.2295 75.7187C72.0529 76.0792 71.8061 76.3014 71.1815 76.6617C70.8936 76.8279 70.344 77.1446 69.9602 77.3656C68.1645 78.3995 67.8521 78.5796 67.1338 78.9945C65.9044 79.7046 64.0842 80.7534 63.8188 80.9044C63.6845 80.9809 63.4279 81.1293 63.2486 81.2343L62.9226 81.4252L63.0566 81.5632C63.3782 81.8942 63.9645 82.2583 64.5008 82.4601C65.1289 82.6965 65.2975 82.7243 66.1044 82.7243C66.7718 82.7243 66.8443 82.7179 67.1861 82.6288C67.6385 82.5109 67.9814 82.3804 68.429 82.1557C69.4476 81.6445 70.194 80.8653 70.7945 79.686C70.9596 79.3618 71.0334 79.2583 71.2357 79.0678C71.7275 78.6044 72.2802 78.4391 72.872 78.5784C73.8575 78.8104 74.3736 79.6447 74.0794 80.53C73.6221 81.906 72.163 83.6694 70.6755 84.644C70.3163 84.8794 69.5444 85.2762 69.0704 85.4693C67.4151 86.1436 65.6984 86.276 64.0297 85.8581C63.3613 85.6907 62.596 85.3779 62.0355 85.043C61.2588 84.579 60.3947 83.8147 59.8946 83.1497L59.8912 83.145L59.8676 83.1587C58.6383 83.8688 56.818 84.9176 56.5526 85.0686C56.4936 85.1022 56.4111 85.1496 56.3218 85.2012ZM67.5872 73.9933C67.1372 73.69 66.6725 73.4871 66.1218 73.3534C65.3281 73.1608 64.4265 73.3328 63.5372 73.8467C62.3549 74.53 61.6751 75.3591 61.374 76.4854C61.2492 76.9522 61.2164 77.8113 61.3041 78.315C61.365 78.665 61.3965 78.7328 61.4707 78.6738C61.5093 78.6431 62.0452 78.333 63.5048 77.4966C63.6775 77.3976 64.0229 77.1985 64.2725 77.0541C64.5219 76.9097 64.9851 76.6425 65.3018 76.4603C65.6185 76.2781 66.1445 75.9749 66.4708 75.7865C66.797 75.5981 67.3466 75.2813 67.6921 75.0825C68.0375 74.8836 68.3328 74.7086 68.3482 74.6934C68.3867 74.6555 67.8854 74.1942 67.5872 73.9933Z" fill="white"/>
        </g>
        <rect width="42.5455" height="18.9091" rx="9.45455" transform="matrix(-1 0 0 1 129.563 68.4539)" fill="#4F6EFD"/>
        <g filter="url(#filter1_d_17665_108037)">
            <circle cx="11.8182" cy="11.8182" r="11.8182" transform="matrix(-1 0 0 1 129.562 66.0911)" fill="white"/>
        </g>
        <path d="M116.899 77.9944C116.899 78.7196 116.768 79.3463 116.506 79.8745C116.244 80.4028 115.885 80.8101 115.428 81.0966C114.972 81.3831 114.45 81.5264 113.864 81.5264C113.277 81.5264 112.756 81.3831 112.299 81.0966C111.843 80.8101 111.483 80.4028 111.222 79.8745C110.96 79.3463 110.829 78.7196 110.829 77.9944C110.829 77.2692 110.96 76.6424 111.222 76.1142C111.483 75.586 111.843 75.1786 112.299 74.8921C112.756 74.6056 113.277 74.4623 113.864 74.4623C114.45 74.4623 114.972 74.6056 115.428 74.8921C115.885 75.1786 116.244 75.586 116.506 76.1142C116.768 76.6424 116.899 77.2692 116.899 77.9944ZM116.093 77.9944C116.093 77.399 115.994 76.8965 115.794 76.4869C115.597 76.0773 115.33 75.7673 114.992 75.5569C114.656 75.3465 114.28 75.2413 113.864 75.2413C113.447 75.2413 113.07 75.3465 112.732 75.5569C112.397 75.7673 112.129 76.0773 111.93 76.4869C111.733 76.8965 111.634 77.399 111.634 77.9944C111.634 78.5897 111.733 79.0922 111.93 79.5018C112.129 79.9115 112.397 80.2215 112.732 80.4319C113.07 80.6423 113.447 80.7475 113.864 80.7475C114.28 80.7475 114.656 80.6423 114.992 80.4319C115.33 80.2215 115.597 79.9115 115.794 79.5018C115.994 79.0922 116.093 78.5897 116.093 77.9944ZM123.751 74.5563V81.4324H122.946L119.199 76.0336H119.132V81.4324H118.299V74.5563H119.105L122.865 79.9685H122.932V74.5563H123.751Z" fill="#4F6EFD"/>
        <rect x="46.8364" y="61.3618" width="89.8182" height="33.0909" rx="16.5455" stroke="white" stroke-opacity="0.7" stroke-width="2.36364"/>
        <g clip-path="url(#clip2_17665_108037)">
            <path fill-rule="evenodd" clip-rule="evenodd" d="M75.7633 65.5207C75.4694 64.3098 73.7473 64.3098 73.4534 65.5207C73.2635 66.3029 72.3673 66.6741 71.6799 66.2553C70.6159 65.6069 69.3982 66.8246 70.0465 67.8887C70.4654 68.5761 70.0941 69.4722 69.312 69.6621C68.1011 69.9561 68.1011 71.6781 69.312 71.9721C70.0941 72.162 70.4654 73.0582 70.0465 73.7455C69.3982 74.8096 70.6159 76.0273 71.6799 75.3789C72.3673 74.9601 73.2635 75.3313 73.4534 76.1135C73.7473 77.3243 75.4694 77.3243 75.7633 76.1135C75.9533 75.3313 76.8494 74.9601 77.5367 75.3789C78.6008 76.0273 79.8185 74.8096 79.1702 73.7455C78.7514 73.0582 79.1225 72.162 79.9048 71.9721C81.1156 71.6781 81.1156 69.9561 79.9048 69.6621C79.1225 69.4722 78.7514 68.5761 79.1702 67.8887C79.8185 66.8246 78.6008 65.6069 77.5367 66.2553C76.8494 66.6741 75.9533 66.3029 75.7633 65.5207ZM74.6084 73.1438C75.8934 73.1438 76.9351 72.1021 76.9351 70.8171C76.9351 69.5321 75.8934 68.4904 74.6084 68.4904C73.3234 68.4904 72.2816 69.5321 72.2816 70.8171C72.2816 72.1021 73.3234 73.1438 74.6084 73.1438Z" fill="#F1F1F1"/>
        </g>
        <g clip-path="url(#clip3_17665_108037)">
            <path d="M71.9707 96.5805L77.4443 99.1068L74.497 95.3174L72.8128 91.9491L70.7076 88.5807L69.4445 87.3176V85.2124L71.1287 83.9492L72.3918 84.3703L77.4443 91.528L77.0233 89.4228L77.8654 88.1597L79.9706 87.3176L82.4969 89.8438L82.0758 88.5807V86.8965L84.181 86.0544L85.8652 87.3176L87.5494 89.0017L88.8125 91.528L89.6546 93.6332L90.4967 96.1595L89.6546 98.2647L88.8125 101.633L87.1283 102.896L85.0231 104.58L82.4969 105.422L79.9706 105.844L72.3918 102.054L69.8655 100.37L69.0234 99.1068L69.8655 97.4226L71.9707 96.5805Z" fill="white"/>
            <path d="M82.5775 85.849C82.0227 86.2044 81.6009 86.7332 81.3776 87.3532C80.8748 86.9738 80.268 86.7575 79.6386 86.7334C79.0092 86.7092 78.3875 86.8784 77.8572 87.2182C77.3651 87.5334 76.9753 87.9849 76.7353 88.5178L74.0458 84.3564C73.6053 83.6748 72.9121 83.1962 72.1187 83.0257C71.3252 82.8552 70.4966 83.0069 69.815 83.4474C69.1334 83.8879 68.6547 84.5812 68.4842 85.3746C68.3137 86.168 68.4654 86.9967 68.906 87.6783L75.2239 97.454L72.9781 96.299C72.6202 96.1161 72.2299 96.0055 71.8293 95.9735C71.4287 95.9414 71.0257 95.9886 70.6433 96.1123C70.2604 96.2335 69.9056 96.43 69.5997 96.6902C69.2939 96.9505 69.0431 97.2692 68.8622 97.6278C68.6724 97.9843 68.5571 98.3757 68.5233 98.7782C68.4895 99.1806 68.5379 99.5858 68.6657 99.9689C68.9138 100.73 69.4495 101.365 70.1585 101.737C77.6498 106.368 81.563 107.804 86.357 104.706C88.609 103.247 90.1902 100.954 90.7539 98.3307C91.3176 95.7072 90.8176 92.9672 89.3637 90.7118L86.8084 86.758C86.3658 86.0789 85.6727 85.6023 84.8802 85.432C84.0877 85.2617 83.26 85.4116 82.5775 85.849ZM88.1776 91.4784C89.4282 93.4192 89.8581 95.7767 89.3731 98.034C88.8881 100.291 87.5278 102.264 85.5904 103.52C81.7552 105.999 78.7314 105.375 70.881 100.513L70.8258 100.493C70.4418 100.289 70.1501 99.946 70.0103 99.5343C69.9431 99.3274 69.9181 99.109 69.9369 98.8923C69.9557 98.6755 70.0178 98.4648 70.1196 98.2725C70.3187 97.8845 70.6636 97.5912 71.0785 97.457C71.4935 97.3228 71.9447 97.3585 72.3334 97.5565L76.9256 99.9135C77.0653 99.9834 77.2239 100.006 77.3775 99.9773C77.5311 99.9489 77.6712 99.8711 77.7766 99.7559C77.8795 99.6402 77.9415 99.4939 77.9532 99.3396C77.9648 99.1852 77.9254 99.0313 77.841 98.9015L70.0921 86.9117C69.8549 86.5447 69.7732 86.0985 69.865 85.6713C69.9568 85.244 70.2145 84.8707 70.5815 84.6336C70.9486 84.3964 71.3948 84.3147 71.822 84.4065C72.2492 84.4983 72.6225 84.756 72.8597 85.123L77.2037 91.8444C77.3054 92.0017 77.4653 92.1122 77.6484 92.1515C77.8315 92.1908 78.0228 92.1558 78.1801 92.0542C78.3373 91.9525 78.4478 91.7926 78.4871 91.6095C78.5265 91.4263 78.4915 91.2351 78.3898 91.0778L78.1343 90.6825C77.8971 90.3154 77.8154 89.8692 77.9072 89.442C77.999 89.0148 78.2568 88.6415 78.6238 88.4043C78.9908 88.1671 79.437 88.0854 79.8642 88.1772C80.2915 88.269 80.6647 88.5267 80.9019 88.8938L81.6685 90.0799C81.7702 90.2372 81.9301 90.3476 82.1132 90.387C82.2963 90.4263 82.4876 90.3913 82.6449 90.2897C82.8022 90.188 82.9126 90.028 82.952 89.8449C82.9913 89.6618 82.9563 89.4706 82.8546 89.3133C82.6174 88.9463 82.5358 88.5001 82.6276 88.0728C82.7193 87.6456 82.9771 87.2723 83.3441 87.0351C83.7111 86.7979 84.1573 86.7162 84.5846 86.808C85.0118 86.8998 85.3851 87.1576 85.6223 87.5246L88.1776 91.4784Z" fill="#F1F1F1"/>
        </g>
    </g>
    <defs>
        <filter id="filter0_b_17665_108037" x="-6.53516" y="-4" width="223.087" height="131" filterUnits="userSpaceOnUse" color-interpolation-filters="sRGB">
            <feFlood flood-opacity="0" result="BackgroundImageFix"/>
            <feGaussianBlur in="BackgroundImageFix" stdDeviation="2"/>
            <feComposite in2="SourceAlpha" operator="in" result="effect1_backgroundBlur_17665_108037"/>
            <feBlend mode="normal" in="SourceGraphic" in2="effect1_backgroundBlur_17665_108037" result="shape"/>
        </filter>
        <filter id="filter1_d_17665_108037" x="97.8923" y="61.2713" width="36.489" height="36.4893" filterUnits="userSpaceOnUse" color-interpolation-filters="sRGB">
            <feFlood flood-opacity="0" result="BackgroundImageFix"/>
            <feColorMatrix in="SourceAlpha" type="matrix" values="0 0 0 0 0 0 0 0 0 0 0 0 0 0 0 0 0 0 127 0" result="hardAlpha"/>
            <feOffset dx="-1.6066" dy="1.6066"/>
            <feGaussianBlur stdDeviation="3.2132"/>
            <feColorMatrix type="matrix" values="0 0 0 0 0.320833 0 0 0 0 0.320833 0 0 0 0 0.320833 0 0 0 0.2 0"/>
            <feBlend mode="normal" in2="BackgroundImageFix" result="effect1_dropShadow_17665_108037"/>
            <feBlend mode="normal" in="SourceGraphic" in2="effect1_dropShadow_17665_108037" result="shape"/>
        </filter>
        <clipPath id="clip0_17665_108037">
            <rect width="209" height="110" rx="8" fill="white"/>
        </clipPath>
        <clipPath id="clip1_17665_108037">
            <rect width="23.6364" height="23.6364" fill="white" transform="translate(53.9272 66.0891)"/>
        </clipPath>
        <clipPath id="clip2_17665_108037">
            <rect width="14.1818" height="14.1818" fill="white" transform="translate(67.5181 63.7256)"/>
        </clipPath>
        <clipPath id="clip3_17665_108037">
            <rect width="30.1288" height="30.1288" fill="white" transform="translate(58.5 89.3555) rotate(-32.8743)"/>
        </clipPath>
    </defs>
</svg>
