<svg width="20" height="20" viewBox="0 0 20 20" fill="none" xmlns="http://www.w3.org/2000/svg">
    <rect x="-0.5" y="-0.5" width="19" height="19" rx="2.5" transform="matrix(0 -1 -1 0 19 19)" stroke="currentColor"/>
    <path d="M12.3373 7.36364C12.2776 6.85985 12.0357 6.46875 11.6114 6.19034C11.1872 5.91193 10.6668 5.77273 10.0503 5.77273C9.59958 5.77273 9.20517 5.84564 8.8671 5.99148C8.53235 6.13731 8.27051 6.33783 8.08159 6.59304C7.89598 6.84825 7.80318 7.13826 7.80318 7.46307C7.80318 7.73485 7.86781 7.96851 7.99707 8.16406C8.12965 8.3563 8.29868 8.51705 8.50417 8.64631C8.70967 8.77225 8.9251 8.87666 9.15048 8.95952C9.37586 9.03906 9.58301 9.10369 9.77193 9.15341L10.806 9.43182C11.0712 9.50142 11.3662 9.59754 11.691 9.72017C12.0191 9.8428 12.3323 10.0102 12.6306 10.2223C12.9322 10.4311 13.1808 10.6996 13.3763 11.0277C13.5719 11.3558 13.6697 11.7585 13.6697 12.2358C13.6697 12.786 13.5255 13.2831 13.2371 13.7273C12.9521 14.1714 12.5345 14.5244 11.9843 14.7862C11.4374 15.0481 10.7729 15.179 9.99068 15.179C9.26151 15.179 8.63012 15.0613 8.0965 14.826C7.5662 14.5907 7.14859 14.2625 6.84366 13.8416C6.54205 13.4207 6.37136 12.9318 6.33159 12.375H7.60431C7.63746 12.7595 7.76672 13.0777 7.9921 13.3295C8.22079 13.5781 8.50914 13.7637 8.85716 13.8864C9.20848 14.0057 9.58632 14.0653 9.99068 14.0653C10.4613 14.0653 10.8839 13.9891 11.2584 13.8366C11.633 13.6809 11.9296 13.4654 12.1483 13.1903C12.3671 12.9119 12.4765 12.5871 12.4765 12.2159C12.4765 11.8778 12.382 11.6027 12.1931 11.3906C12.0042 11.1785 11.7556 11.0062 11.4474 10.8736C11.1391 10.741 10.806 10.625 10.4481 10.5256L9.19522 10.1676C8.39977 9.93892 7.77003 9.61245 7.30602 9.18821C6.842 8.76397 6.61 8.20881 6.61 7.52273C6.61 6.95265 6.76412 6.45549 7.07235 6.03125C7.38391 5.60369 7.80152 5.27225 8.3252 5.03693C8.85218 4.7983 9.44049 4.67898 10.0901 4.67898C10.7464 4.67898 11.3297 4.79664 11.8401 5.03196C12.3505 5.26397 12.7549 5.58215 13.0532 5.98651C13.3548 6.39086 13.5139 6.8499 13.5305 7.36364H12.3373Z" fill="currentColor"/>
</svg>
