<svg width="100" height="100" viewBox="0 0 100 100" fill="none" xmlns="http://www.w3.org/2000/svg">
<rect width="100" height="100" rx="6" fill="#333333"/>
<rect width="93" height="93" transform="translate(3.49988 3.49988)" fill="#333333"/>
<rect width="88.35" height="88.35" transform="translate(6.28992 6.28992)" fill="#333333"/>
<rect width="88.35" height="88.35" transform="translate(6.28992 6.28992)" fill="#333333"/>
<path d="M10.7076 37.2125H7.76257V40.1575H10.7076V37.2125Z" fill="white"/>
<path d="M10.7076 40.1576H7.76257V43.1026H10.7076V40.1576Z" fill="white"/>
<path d="M10.7076 48.9926H7.76257V51.9376H10.7076V48.9926Z" fill="white"/>
<path d="M10.7076 54.8826H7.76257V57.8276H10.7076V54.8826Z" fill="white"/>
<path d="M10.7076 60.7726H7.76257V63.7176H10.7076V60.7726Z" fill="white"/>
<path d="M10.7076 63.7175H7.76257V66.6625H10.7076V63.7175Z" fill="white"/>
<path d="M13.6526 43.1025H10.7076V46.0475H13.6526V43.1025Z" fill="white"/>
<path d="M13.6526 51.9375H10.7076V54.8825H13.6526V51.9375Z" fill="white"/>
<path d="M13.6526 54.8826H10.7076V57.8276H13.6526V54.8826Z" fill="white"/>
<path d="M13.6526 60.7726H10.7076V63.7176H13.6526V60.7726Z" fill="white"/>
<path d="M13.6526 63.7175H10.7076V66.6625H13.6526V63.7175Z" fill="white"/>
<path d="M16.5976 34.2676H13.6526V37.2126H16.5976V34.2676Z" fill="white"/>
<path d="M16.5976 37.2125H13.6526V40.1575H16.5976V37.2125Z" fill="white"/>
<path d="M16.5976 43.1025H13.6526V46.0475H16.5976V43.1025Z" fill="white"/>
<path d="M16.5976 46.0476H13.6526V48.9926H16.5976V46.0476Z" fill="white"/>
<path d="M16.5976 48.9926H13.6526V51.9376H16.5976V48.9926Z" fill="white"/>
<path d="M16.5976 57.8275H13.6526V60.7725H16.5976V57.8275Z" fill="white"/>
<path d="M19.5425 31.3225H16.5975V34.2675H19.5425V31.3225Z" fill="white"/>
<path d="M19.5425 34.2676H16.5975V37.2126H19.5425V34.2676Z" fill="white"/>
<path d="M19.5425 37.2125H16.5975V40.1575H19.5425V37.2125Z" fill="white"/>
<path d="M19.5425 54.8826H16.5975V57.8276H19.5425V54.8826Z" fill="white"/>
<path d="M19.5425 57.8275H16.5975V60.7725H19.5425V57.8275Z" fill="white"/>
<path d="M19.5425 60.7726H16.5975V63.7176H19.5425V60.7726Z" fill="white"/>
<path d="M19.5425 63.7175H16.5975V66.6625H19.5425V63.7175Z" fill="white"/>
<path d="M22.4876 40.1576H19.5426V43.1026H22.4876V40.1576Z" fill="white"/>
<path d="M22.4876 46.0476H19.5426V48.9926H22.4876V46.0476Z" fill="white"/>
<path d="M22.4876 51.9375H19.5426V54.8825H22.4876V51.9375Z" fill="white"/>
<path d="M22.4876 57.8275H19.5426V60.7725H22.4876V57.8275Z" fill="white"/>
<path d="M22.4876 66.6625H19.5426V69.6075H22.4876V66.6625Z" fill="white"/>
<path d="M25.4325 31.3225H22.4875V34.2675H25.4325V31.3225Z" fill="white"/>
<path d="M25.4325 37.2125H22.4875V40.1575H25.4325V37.2125Z" fill="white"/>
<path d="M25.4325 46.0476H22.4875V48.9926H25.4325V46.0476Z" fill="white"/>
<path d="M25.4325 54.8826H22.4875V57.8276H25.4325V54.8826Z" fill="white"/>
<path d="M25.4325 66.6625H22.4875V69.6075H25.4325V66.6625Z" fill="white"/>
<path d="M28.3776 31.3225H25.4326V34.2675H28.3776V31.3225Z" fill="white"/>
<path d="M28.3776 37.2125H25.4326V40.1575H28.3776V37.2125Z" fill="white"/>
<path d="M28.3776 43.1025H25.4326V46.0475H28.3776V43.1025Z" fill="white"/>
<path d="M28.3776 48.9926H25.4326V51.9376H28.3776V48.9926Z" fill="white"/>
<path d="M28.3776 54.8826H25.4326V57.8276H28.3776V54.8826Z" fill="white"/>
<path d="M28.3776 60.7726H25.4326V63.7176H28.3776V60.7726Z" fill="white"/>
<path d="M28.3776 66.6625H25.4326V69.6075H28.3776V66.6625Z" fill="white"/>
<path d="M31.3226 31.3225H28.3776V34.2675H31.3226V31.3225Z" fill="white"/>
<path d="M31.3226 34.2676H28.3776V37.2126H31.3226V34.2676Z" fill="white"/>
<path d="M31.3226 40.1576H28.3776V43.1026H31.3226V40.1576Z" fill="white"/>
<path d="M31.3226 43.1025H28.3776V46.0475H31.3226V43.1025Z" fill="white"/>
<path d="M31.3226 48.9926H28.3776V51.9376H31.3226V48.9926Z" fill="white"/>
<path d="M31.3226 51.9375H28.3776V54.8825H31.3226V51.9375Z" fill="white"/>
<path d="M31.3226 54.8826H28.3776V57.8276H31.3226V54.8826Z" fill="white"/>
<path d="M31.3226 60.7726H28.3776V63.7176H31.3226V60.7726Z" fill="white"/>
<path d="M31.3226 66.6625H28.3776V69.6075H31.3226V66.6625Z" fill="white"/>
<path d="M34.2675 10.7075H31.3225V13.6525H34.2675V10.7075Z" fill="white"/>
<path d="M34.2675 13.6526H31.3225V16.5976H34.2675V13.6526Z" fill="white"/>
<path d="M34.2675 25.4325H31.3225V28.3775H34.2675V25.4325Z" fill="white"/>
<path d="M34.2675 40.1576H31.3225V43.1026H34.2675V40.1576Z" fill="white"/>
<path d="M34.2675 46.0476H31.3225V48.9926H34.2675V46.0476Z" fill="white"/>
<path d="M34.2675 51.9375H31.3225V54.8825H34.2675V51.9375Z" fill="white"/>
<path d="M34.2675 54.8826H31.3225V57.8276H34.2675V54.8826Z" fill="white"/>
<path d="M34.2675 57.8275H31.3225V60.7725H34.2675V57.8275Z" fill="white"/>
<path d="M34.2675 60.7726H31.3225V63.7176H34.2675V60.7726Z" fill="white"/>
<path d="M34.2675 63.7175H31.3225V66.6625H34.2675V63.7175Z" fill="white"/>
<path d="M34.2675 66.6625H31.3225V69.6075H34.2675V66.6625Z" fill="white"/>
<path d="M34.2675 72.5526H31.3225V75.4976H34.2675V72.5526Z" fill="white"/>
<path d="M34.2675 75.4976H31.3225V78.4426H34.2675V75.4976Z" fill="white"/>
<path d="M34.2675 81.3876H31.3225V84.3326H34.2675V81.3876Z" fill="white"/>
<path d="M37.2126 7.76257H34.2676V10.7076H37.2126V7.76257Z" fill="white"/>
<path d="M37.2126 13.6526H34.2676V16.5976H37.2126V13.6526Z" fill="white"/>
<path d="M37.2126 16.5975H34.2676V19.5425H37.2126V16.5975Z" fill="white"/>
<path d="M37.2126 19.5426H34.2676V22.4876H37.2126V19.5426Z" fill="white"/>
<path d="M37.2126 31.3225H34.2676V34.2675H37.2126V31.3225Z" fill="white"/>
<path d="M37.2126 34.2676H34.2676V37.2126H37.2126V34.2676Z" fill="white"/>
<path d="M37.2126 48.9926H34.2676V51.9376H37.2126V48.9926Z" fill="white"/>
<path d="M37.2126 60.7726H34.2676V63.7176H37.2126V60.7726Z" fill="white"/>
<path d="M37.2126 69.6075H34.2676V72.5525H37.2126V69.6075Z" fill="white"/>
<path d="M37.2126 72.5526H34.2676V75.4976H37.2126V72.5526Z" fill="white"/>
<path d="M37.2126 75.4976H34.2676V78.4426H37.2126V75.4976Z" fill="white"/>
<path d="M37.2126 81.3876H34.2676V84.3326H37.2126V81.3876Z" fill="white"/>
<path d="M37.2126 84.3325H34.2676V87.2775H37.2126V84.3325Z" fill="white"/>
<path d="M37.2126 87.2776H34.2676V90.2226H37.2126V87.2776Z" fill="white"/>
<path d="M37.2126 90.2225H34.2676V93.1675H37.2126V90.2225Z" fill="white"/>
<path d="M40.1576 13.6526H37.2126V16.5976H40.1576V13.6526Z" fill="white"/>
<path d="M40.1576 19.5426H37.2126V22.4876H40.1576V19.5426Z" fill="white"/>
<path d="M40.1576 25.4325H37.2126V28.3775H40.1576V25.4325Z" fill="white"/>
<path d="M40.1576 28.3776H37.2126V31.3226H40.1576V28.3776Z" fill="white"/>
<path d="M40.1576 34.2676H37.2126V37.2126H40.1576V34.2676Z" fill="white"/>
<path d="M40.1576 43.1025H37.2126V46.0475H40.1576V43.1025Z" fill="white"/>
<path d="M40.1576 54.8826H37.2126V57.8276H40.1576V54.8826Z" fill="white"/>
<path d="M40.1576 57.8275H37.2126V60.7725H40.1576V57.8275Z" fill="white"/>
<path d="M40.1576 60.7726H37.2126V63.7176H40.1576V60.7726Z" fill="white"/>
<path d="M40.1576 63.7175H37.2126V66.6625H40.1576V63.7175Z" fill="white"/>
<path d="M40.1576 69.6075H37.2126V72.5525H40.1576V69.6075Z" fill="white"/>
<path d="M40.1576 78.4425H37.2126V81.3875H40.1576V78.4425Z" fill="white"/>
<path d="M40.1576 90.2225H37.2126V93.1675H40.1576V90.2225Z" fill="white"/>
<path d="M43.1026 10.7075H40.1576V13.6525H43.1026V10.7075Z" fill="white"/>
<path d="M43.1026 13.6526H40.1576V16.5976H43.1026V13.6526Z" fill="white"/>
<path d="M43.1026 37.2125H40.1576V40.1575H43.1026V37.2125Z" fill="white"/>
<path d="M43.1026 40.1576H40.1576V43.1026H43.1026V40.1576Z" fill="white"/>
<path d="M43.1026 46.0476H40.1576V48.9926H43.1026V46.0476Z" fill="white"/>
<path d="M43.1026 51.9375H40.1576V54.8825H43.1026V51.9375Z" fill="white"/>
<path d="M43.1026 54.8826H40.1576V57.8276H43.1026V54.8826Z" fill="white"/>
<path d="M43.1026 60.7726H40.1576V63.7176H43.1026V60.7726Z" fill="white"/>
<path d="M43.1026 72.5526H40.1576V75.4976H43.1026V72.5526Z" fill="white"/>
<path d="M43.1026 78.4425H40.1576V81.3875H43.1026V78.4425Z" fill="white"/>
<path d="M43.1026 81.3876H40.1576V84.3326H43.1026V81.3876Z" fill="white"/>
<path d="M46.0475 13.6526H43.1025V16.5976H46.0475V13.6526Z" fill="white"/>
<path d="M46.0475 16.5975H43.1025V19.5425H46.0475V16.5975Z" fill="white"/>
<path d="M46.0475 22.4875H43.1025V25.4325H46.0475V22.4875Z" fill="white"/>
<path d="M46.0475 25.4325H43.1025V28.3775H46.0475V25.4325Z" fill="white"/>
<path d="M46.0475 31.3225H43.1025V34.2675H46.0475V31.3225Z" fill="white"/>
<path d="M46.0475 34.2676H43.1025V37.2126H46.0475V34.2676Z" fill="white"/>
<path d="M46.0475 37.2125H43.1025V40.1575H46.0475V37.2125Z" fill="white"/>
<path d="M46.0475 40.1576H43.1025V43.1026H46.0475V40.1576Z" fill="white"/>
<path d="M46.0475 46.0476H43.1025V48.9926H46.0475V46.0476Z" fill="white"/>
<path d="M46.0475 48.9926H43.1025V51.9376H46.0475V48.9926Z" fill="white"/>
<path d="M46.0475 63.7175H43.1025V66.6625H46.0475V63.7175Z" fill="white"/>
<path d="M46.0475 66.6625H43.1025V69.6075H46.0475V66.6625Z" fill="white"/>
<path d="M46.0475 69.6075H43.1025V72.5525H46.0475V69.6075Z" fill="white"/>
<path d="M46.0475 72.5526H43.1025V75.4976H46.0475V72.5526Z" fill="white"/>
<path d="M46.0475 81.3876H43.1025V84.3326H46.0475V81.3876Z" fill="white"/>
<path d="M46.0475 87.2776H43.1025V90.2226H46.0475V87.2776Z" fill="white"/>
<path d="M48.9926 13.6526H46.0476V16.5976H48.9926V13.6526Z" fill="white"/>
<path d="M48.9926 19.5426H46.0476V22.4876H48.9926V19.5426Z" fill="white"/>
<path d="M48.9926 22.4875H46.0476V25.4325H48.9926V22.4875Z" fill="white"/>
<path d="M48.9926 43.1025H46.0476V46.0475H48.9926V43.1025Z" fill="white"/>
<path d="M48.9926 46.0476H46.0476V48.9926H48.9926V46.0476Z" fill="white"/>
<path d="M48.9926 48.9926H46.0476V51.9376H48.9926V48.9926Z" fill="white"/>
<path d="M48.9926 54.8826H46.0476V57.8276H48.9926V54.8826Z" fill="white"/>
<path d="M48.9926 57.8275H46.0476V60.7725H48.9926V57.8275Z" fill="white"/>
<path d="M48.9926 60.7726H46.0476V63.7176H48.9926V60.7726Z" fill="white"/>
<path d="M48.9926 63.7175H46.0476V66.6625H48.9926V63.7175Z" fill="white"/>
<path d="M48.9926 66.6625H46.0476V69.6075H48.9926V66.6625Z" fill="white"/>
<path d="M48.9926 72.5526H46.0476V75.4976H48.9926V72.5526Z" fill="white"/>
<path d="M48.9926 81.3876H46.0476V84.3326H48.9926V81.3876Z" fill="white"/>
<path d="M48.9926 90.2225H46.0476V93.1675H48.9926V90.2225Z" fill="white"/>
<path d="M51.9376 10.7075H48.9926V13.6525H51.9376V10.7075Z" fill="white"/>
<path d="M51.9376 19.5426H48.9926V22.4876H51.9376V19.5426Z" fill="white"/>
<path d="M51.9376 22.4875H48.9926V25.4325H51.9376V22.4875Z" fill="white"/>
<path d="M51.9376 25.4325H48.9926V28.3775H51.9376V25.4325Z" fill="white"/>
<path d="M51.9376 34.2676H48.9926V37.2126H51.9376V34.2676Z" fill="white"/>
<path d="M51.9376 37.2125H48.9926V40.1575H51.9376V37.2125Z" fill="white"/>
<path d="M51.9376 43.1025H48.9926V46.0475H51.9376V43.1025Z" fill="white"/>
<path d="M51.9376 48.9926H48.9926V51.9376H51.9376V48.9926Z" fill="white"/>
<path d="M51.9376 51.9375H48.9926V54.8825H51.9376V51.9375Z" fill="white"/>
<path d="M51.9376 54.8826H48.9926V57.8276H51.9376V54.8826Z" fill="white"/>
<path d="M51.9376 63.7175H48.9926V66.6625H51.9376V63.7175Z" fill="white"/>
<path d="M51.9376 72.5526H48.9926V75.4976H51.9376V72.5526Z" fill="white"/>
<path d="M51.9376 81.3876H48.9926V84.3326H51.9376V81.3876Z" fill="white"/>
<path d="M51.9376 84.3325H48.9926V87.2775H51.9376V84.3325Z" fill="white"/>
<path d="M51.9376 87.2776H48.9926V90.2226H51.9376V87.2776Z" fill="white"/>
<path d="M51.9376 90.2225H48.9926V93.1675H51.9376V90.2225Z" fill="white"/>
<path d="M54.8826 16.5975H51.9376V19.5425H54.8826V16.5975Z" fill="white"/>
<path d="M54.8826 19.5426H51.9376V22.4876H54.8826V19.5426Z" fill="white"/>
<path d="M54.8826 28.3776H51.9376V31.3226H54.8826V28.3776Z" fill="white"/>
<path d="M54.8826 31.3225H51.9376V34.2675H54.8826V31.3225Z" fill="white"/>
<path d="M54.8826 37.2125H51.9376V40.1575H54.8826V37.2125Z" fill="white"/>
<path d="M54.8826 48.9926H51.9376V51.9376H54.8826V48.9926Z" fill="white"/>
<path d="M54.8826 51.9375H51.9376V54.8825H54.8826V51.9375Z" fill="white"/>
<path d="M54.8826 57.8275H51.9376V60.7725H54.8826V57.8275Z" fill="white"/>
<path d="M54.8826 66.6625H51.9376V69.6075H54.8826V66.6625Z" fill="white"/>
<path d="M54.8826 69.6075H51.9376V72.5525H54.8826V69.6075Z" fill="white"/>
<path d="M54.8826 72.5526H51.9376V75.4976H54.8826V72.5526Z" fill="white"/>
<path d="M54.8826 81.3876H51.9376V84.3326H54.8826V81.3876Z" fill="white"/>
<path d="M54.8826 87.2776H51.9376V90.2226H54.8826V87.2776Z" fill="white"/>
<path d="M57.8276 7.76257H54.8826V10.7076H57.8276V7.76257Z" fill="white"/>
<path d="M57.8276 13.6526H54.8826V16.5976H57.8276V13.6526Z" fill="white"/>
<path d="M57.8276 19.5426H54.8826V22.4876H57.8276V19.5426Z" fill="white"/>
<path d="M57.8276 25.4325H54.8826V28.3775H57.8276V25.4325Z" fill="white"/>
<path d="M57.8276 46.0476H54.8826V48.9926H57.8276V46.0476Z" fill="white"/>
<path d="M57.8276 57.8275H54.8826V60.7725H57.8276V57.8275Z" fill="white"/>
<path d="M57.8276 69.6075H54.8826V72.5525H57.8276V69.6075Z" fill="white"/>
<path d="M57.8276 72.5526H54.8826V75.4976H57.8276V72.5526Z" fill="white"/>
<path d="M57.8276 75.4976H54.8826V78.4426H57.8276V75.4976Z" fill="white"/>
<path d="M57.8276 78.4425H54.8826V81.3875H57.8276V78.4425Z" fill="white"/>
<path d="M60.7725 19.5426H57.8275V22.4876H60.7725V19.5426Z" fill="white"/>
<path d="M60.7725 22.4875H57.8275V25.4325H60.7725V22.4875Z" fill="white"/>
<path d="M60.7725 43.1025H57.8275V46.0475H60.7725V43.1025Z" fill="white"/>
<path d="M60.7725 48.9926H57.8275V51.9376H60.7725V48.9926Z" fill="white"/>
<path d="M60.7725 63.7175H57.8275V66.6625H60.7725V63.7175Z" fill="white"/>
<path d="M60.7725 69.6075H57.8275V72.5525H60.7725V69.6075Z" fill="white"/>
<path d="M60.7725 72.5526H57.8275V75.4976H60.7725V72.5526Z" fill="white"/>
<path d="M60.7725 75.4976H57.8275V78.4426H60.7725V75.4976Z" fill="white"/>
<path d="M60.7725 90.2225H57.8275V93.1675H60.7725V90.2225Z" fill="white"/>
<path d="M63.7176 7.76257H60.7726V10.7076H63.7176V7.76257Z" fill="white"/>
<path d="M63.7176 10.7075H60.7726V13.6525H63.7176V10.7075Z" fill="white"/>
<path d="M63.7176 16.5975H60.7726V19.5425H63.7176V16.5975Z" fill="white"/>
<path d="M63.7176 19.5426H60.7726V22.4876H63.7176V19.5426Z" fill="white"/>
<path d="M63.7176 22.4875H60.7726V25.4325H63.7176V22.4875Z" fill="white"/>
<path d="M63.7176 25.4325H60.7726V28.3775H63.7176V25.4325Z" fill="white"/>
<path d="M63.7176 48.9926H60.7726V51.9376H63.7176V48.9926Z" fill="white"/>
<path d="M63.7176 51.9375H60.7726V54.8825H63.7176V51.9375Z" fill="white"/>
<path d="M63.7176 60.7726H60.7726V63.7176H63.7176V60.7726Z" fill="white"/>
<path d="M63.7176 63.7175H60.7726V66.6625H63.7176V63.7175Z" fill="white"/>
<path d="M63.7176 75.4976H60.7726V78.4426H63.7176V75.4976Z" fill="white"/>
<path d="M63.7176 78.4425H60.7726V81.3875H63.7176V78.4425Z" fill="white"/>
<path d="M63.7176 81.3876H60.7726V84.3326H63.7176V81.3876Z" fill="white"/>
<path d="M63.7176 90.2225H60.7726V93.1675H63.7176V90.2225Z" fill="white"/>
<path d="M66.6625 16.5975H63.7175V19.5425H66.6625V16.5975Z" fill="white"/>
<path d="M66.6625 22.4875H63.7175V25.4325H66.6625V22.4875Z" fill="white"/>
<path d="M66.6625 34.2676H63.7175V37.2126H66.6625V34.2676Z" fill="white"/>
<path d="M66.6625 37.2125H63.7175V40.1575H66.6625V37.2125Z" fill="white"/>
<path d="M66.6625 40.1576H63.7175V43.1026H66.6625V40.1576Z" fill="white"/>
<path d="M66.6625 43.1025H63.7175V46.0475H66.6625V43.1025Z" fill="white"/>
<path d="M66.6625 46.0476H63.7175V48.9926H66.6625V46.0476Z" fill="white"/>
<path d="M66.6625 63.7175H63.7175V66.6625H66.6625V63.7175Z" fill="white"/>
<path d="M66.6625 69.6075H63.7175V72.5525H66.6625V69.6075Z" fill="white"/>
<path d="M66.6625 72.5526H63.7175V75.4976H66.6625V72.5526Z" fill="white"/>
<path d="M66.6625 75.4976H63.7175V78.4426H66.6625V75.4976Z" fill="white"/>
<path d="M66.6625 90.2225H63.7175V93.1675H66.6625V90.2225Z" fill="white"/>
<path d="M69.6076 7.76257H66.6626V10.7076H69.6076V7.76257Z" fill="white"/>
<path d="M69.6076 10.7075H66.6626V13.6525H69.6076V10.7075Z" fill="white"/>
<path d="M69.6076 16.5975H66.6626V19.5425H69.6076V16.5975Z" fill="white"/>
<path d="M69.6076 25.4325H66.6626V28.3775H69.6076V25.4325Z" fill="white"/>
<path d="M69.6076 34.2676H66.6626V37.2126H69.6076V34.2676Z" fill="white"/>
<path d="M69.6076 43.1025H66.6626V46.0475H69.6076V43.1025Z" fill="white"/>
<path d="M69.6076 46.0476H66.6626V48.9926H69.6076V46.0476Z" fill="white"/>
<path d="M69.6076 51.9375H66.6626V54.8825H69.6076V51.9375Z" fill="white"/>
<path d="M69.6076 54.8826H66.6626V57.8276H69.6076V54.8826Z" fill="white"/>
<path d="M69.6076 60.7726H66.6626V63.7176H69.6076V60.7726Z" fill="white"/>
<path d="M69.6076 63.7175H66.6626V66.6625H69.6076V63.7175Z" fill="white"/>
<path d="M69.6076 66.6625H66.6626V69.6075H69.6076V66.6625Z" fill="white"/>
<path d="M69.6076 69.6075H66.6626V72.5525H69.6076V69.6075Z" fill="white"/>
<path d="M69.6076 72.5526H66.6626V75.4976H69.6076V72.5526Z" fill="white"/>
<path d="M69.6076 75.4976H66.6626V78.4426H69.6076V75.4976Z" fill="white"/>
<path d="M69.6076 78.4425H66.6626V81.3875H69.6076V78.4425Z" fill="white"/>
<path d="M69.6076 87.2776H66.6626V90.2226H69.6076V87.2776Z" fill="white"/>
<path d="M72.5527 31.3225H69.6077V34.2675H72.5527V31.3225Z" fill="white"/>
<path d="M72.5527 34.2676H69.6077V37.2126H72.5527V34.2676Z" fill="white"/>
<path d="M72.5527 37.2125H69.6077V40.1575H72.5527V37.2125Z" fill="white"/>
<path d="M72.5527 51.9375H69.6077V54.8825H72.5527V51.9375Z" fill="white"/>
<path d="M72.5527 54.8826H69.6077V57.8276H72.5527V54.8826Z" fill="white"/>
<path d="M72.5527 66.6625H69.6077V69.6075H72.5527V66.6625Z" fill="white"/>
<path d="M72.5527 78.4425H69.6077V81.3875H72.5527V78.4425Z" fill="white"/>
<path d="M72.5527 81.3876H69.6077V84.3326H72.5527V81.3876Z" fill="white"/>
<path d="M72.5527 90.2225H69.6077V93.1675H72.5527V90.2225Z" fill="white"/>
<path d="M75.4976 34.2676H72.5526V37.2126H75.4976V34.2676Z" fill="white"/>
<path d="M75.4976 40.1576H72.5526V43.1026H75.4976V40.1576Z" fill="white"/>
<path d="M75.4976 51.9375H72.5526V54.8825H75.4976V51.9375Z" fill="white"/>
<path d="M75.4976 57.8275H72.5526V60.7725H75.4976V57.8275Z" fill="white"/>
<path d="M75.4976 60.7726H72.5526V63.7176H75.4976V60.7726Z" fill="white"/>
<path d="M75.4976 66.6625H72.5526V69.6075H75.4976V66.6625Z" fill="white"/>
<path d="M75.4976 72.5526H72.5526V75.4976H75.4976V72.5526Z" fill="white"/>
<path d="M75.4976 78.4425H72.5526V81.3875H75.4976V78.4425Z" fill="white"/>
<path d="M75.4976 81.3876H72.5526V84.3326H75.4976V81.3876Z" fill="white"/>
<path d="M75.4976 84.3325H72.5526V87.2775H75.4976V84.3325Z" fill="white"/>
<path d="M75.4976 90.2225H72.5526V93.1675H75.4976V90.2225Z" fill="white"/>
<path d="M78.4426 34.2676H75.4976V37.2126H78.4426V34.2676Z" fill="white"/>
<path d="M78.4426 37.2125H75.4976V40.1575H78.4426V37.2125Z" fill="white"/>
<path d="M78.4426 43.1025H75.4976V46.0475H78.4426V43.1025Z" fill="white"/>
<path d="M78.4426 46.0476H75.4976V48.9926H78.4426V46.0476Z" fill="white"/>
<path d="M78.4426 51.9375H75.4976V54.8825H78.4426V51.9375Z" fill="white"/>
<path d="M78.4426 60.7726H75.4976V63.7176H78.4426V60.7726Z" fill="white"/>
<path d="M78.4426 63.7175H75.4976V66.6625H78.4426V63.7175Z" fill="white"/>
<path d="M78.4426 66.6625H75.4976V69.6075H78.4426V66.6625Z" fill="white"/>
<path d="M78.4426 78.4425H75.4976V81.3875H78.4426V78.4425Z" fill="white"/>
<path d="M78.4426 81.3876H75.4976V84.3326H78.4426V81.3876Z" fill="white"/>
<path d="M78.4426 87.2776H75.4976V90.2226H78.4426V87.2776Z" fill="white"/>
<path d="M78.4426 90.2225H75.4976V93.1675H78.4426V90.2225Z" fill="white"/>
<path d="M81.3876 43.1025H78.4426V46.0475H81.3876V43.1025Z" fill="white"/>
<path d="M81.3876 51.9375H78.4426V54.8825H81.3876V51.9375Z" fill="white"/>
<path d="M81.3876 54.8826H78.4426V57.8276H81.3876V54.8826Z" fill="white"/>
<path d="M81.3876 57.8275H78.4426V60.7725H81.3876V57.8275Z" fill="white"/>
<path d="M81.3876 60.7726H78.4426V63.7176H81.3876V60.7726Z" fill="white"/>
<path d="M81.3876 63.7175H78.4426V66.6625H81.3876V63.7175Z" fill="white"/>
<path d="M81.3876 66.6625H78.4426V69.6075H81.3876V66.6625Z" fill="white"/>
<path d="M81.3876 69.6075H78.4426V72.5525H81.3876V69.6075Z" fill="white"/>
<path d="M81.3876 72.5526H78.4426V75.4976H81.3876V72.5526Z" fill="white"/>
<path d="M81.3876 75.4976H78.4426V78.4426H81.3876V75.4976Z" fill="white"/>
<path d="M81.3876 78.4425H78.4426V81.3875H81.3876V78.4425Z" fill="white"/>
<path d="M84.3326 40.1576H81.3876V43.1026H84.3326V40.1576Z" fill="white"/>
<path d="M84.3326 43.1025H81.3876V46.0475H84.3326V43.1025Z" fill="white"/>
<path d="M84.3326 48.9926H81.3876V51.9376H84.3326V48.9926Z" fill="white"/>
<path d="M84.3326 54.8826H81.3876V57.8276H84.3326V54.8826Z" fill="white"/>
<path d="M84.3326 57.8275H81.3876V60.7725H84.3326V57.8275Z" fill="white"/>
<path d="M84.3326 60.7726H81.3876V63.7176H84.3326V60.7726Z" fill="white"/>
<path d="M84.3326 63.7175H81.3876V66.6625H84.3326V63.7175Z" fill="white"/>
<path d="M84.3326 66.6625H81.3876V69.6075H84.3326V66.6625Z" fill="white"/>
<path d="M84.3326 75.4976H81.3876V78.4426H84.3326V75.4976Z" fill="white"/>
<path d="M84.3326 78.4425H81.3876V81.3875H84.3326V78.4425Z" fill="white"/>
<path d="M84.3326 87.2776H81.3876V90.2226H84.3326V87.2776Z" fill="white"/>
<path d="M87.2775 31.3225H84.3325V34.2675H87.2775V31.3225Z" fill="white"/>
<path d="M87.2775 37.2125H84.3325V40.1575H87.2775V37.2125Z" fill="white"/>
<path d="M87.2775 54.8826H84.3325V57.8276H87.2775V54.8826Z" fill="white"/>
<path d="M87.2775 69.6075H84.3325V72.5525H87.2775V69.6075Z" fill="white"/>
<path d="M87.2775 78.4425H84.3325V81.3875H87.2775V78.4425Z" fill="white"/>
<path d="M87.2775 81.3876H84.3325V84.3326H87.2775V81.3876Z" fill="white"/>
<path d="M87.2775 84.3325H84.3325V87.2775H87.2775V84.3325Z" fill="white"/>
<path d="M87.2775 87.2776H84.3325V90.2226H87.2775V87.2776Z" fill="white"/>
<path d="M87.2775 90.2225H84.3325V93.1675H87.2775V90.2225Z" fill="white"/>
<path d="M90.2226 31.3225H87.2776V34.2675H90.2226V31.3225Z" fill="white"/>
<path d="M90.2226 37.2125H87.2776V40.1575H90.2226V37.2125Z" fill="white"/>
<path d="M90.2226 43.1025H87.2776V46.0475H90.2226V43.1025Z" fill="white"/>
<path d="M90.2226 48.9926H87.2776V51.9376H90.2226V48.9926Z" fill="white"/>
<path d="M90.2226 51.9375H87.2776V54.8825H90.2226V51.9375Z" fill="white"/>
<path d="M90.2226 54.8826H87.2776V57.8276H90.2226V54.8826Z" fill="white"/>
<path d="M90.2226 66.6625H87.2776V69.6075H90.2226V66.6625Z" fill="white"/>
<path d="M90.2226 81.3876H87.2776V84.3326H90.2226V81.3876Z" fill="white"/>
<path d="M93.1675 40.1576H90.2225V43.1026H93.1675V40.1576Z" fill="white"/>
<path d="M93.1675 46.0476H90.2225V48.9926H93.1675V46.0476Z" fill="white"/>
<path d="M93.1675 54.8826H90.2225V57.8276H93.1675V54.8826Z" fill="white"/>
<path d="M93.1675 66.6625H90.2225V69.6075H93.1675V66.6625Z" fill="white"/>
<path d="M93.1675 72.5526H90.2225V75.4976H93.1675V72.5526Z" fill="white"/>
<path d="M93.1675 75.4976H90.2225V78.4426H93.1675V75.4976Z" fill="white"/>
<path d="M93.1675 78.4425H90.2225V81.3875H93.1675V78.4425Z" fill="white"/>
<path d="M93.1675 90.2225H90.2225V93.1675H93.1675V90.2225Z" fill="white"/>
<path d="M10.7076 7.76257H7.76257V10.7076H10.7076V7.76257Z" fill="white"/>
<path d="M10.7076 10.7075H7.76257V13.6525H10.7076V10.7075Z" fill="white"/>
<path d="M10.7076 13.6526H7.76257V16.5976H10.7076V13.6526Z" fill="white"/>
<path d="M10.7076 16.5975H7.76257V19.5425H10.7076V16.5975Z" fill="white"/>
<path d="M10.7076 19.5426H7.76257V22.4876H10.7076V19.5426Z" fill="white"/>
<path d="M10.7076 22.4875H7.76257V25.4325H10.7076V22.4875Z" fill="white"/>
<path d="M10.7076 25.4325H7.76257V28.3775H10.7076V25.4325Z" fill="white"/>
<path d="M13.6526 7.76257H10.7076V10.7076H13.6526V7.76257Z" fill="white"/>
<path d="M13.6526 25.4325H10.7076V28.3775H13.6526V25.4325Z" fill="white"/>
<path d="M16.5976 7.76257H13.6526V10.7076H16.5976V7.76257Z" fill="white"/>
<path d="M16.5976 25.4325H13.6526V28.3775H16.5976V25.4325Z" fill="white"/>
<path d="M19.5425 7.76257H16.5975V10.7076H19.5425V7.76257Z" fill="white"/>
<path d="M19.5425 25.4325H16.5975V28.3775H19.5425V25.4325Z" fill="white"/>
<path d="M22.4876 7.76257H19.5426V10.7076H22.4876V7.76257Z" fill="white"/>
<path d="M22.4876 25.4325H19.5426V28.3775H22.4876V25.4325Z" fill="white"/>
<path d="M25.4325 7.76257H22.4875V10.7076H25.4325V7.76257Z" fill="white"/>
<path d="M25.4325 25.4325H22.4875V28.3775H25.4325V25.4325Z" fill="white"/>
<path d="M28.3776 7.76257H25.4326V10.7076H28.3776V7.76257Z" fill="white"/>
<path d="M28.3776 10.7075H25.4326V13.6525H28.3776V10.7075Z" fill="white"/>
<path d="M28.3776 13.6526H25.4326V16.5976H28.3776V13.6526Z" fill="white"/>
<path d="M28.3776 16.5975H25.4326V19.5425H28.3776V16.5975Z" fill="white"/>
<path d="M28.3776 19.5426H25.4326V22.4876H28.3776V19.5426Z" fill="white"/>
<path d="M28.3776 22.4875H25.4326V25.4325H28.3776V22.4875Z" fill="white"/>
<path d="M28.3776 25.4325H25.4326V28.3775H28.3776V25.4325Z" fill="white"/>
<path d="M16.5976 13.6526H13.6526V16.5976H16.5976V13.6526Z" fill="white"/>
<path d="M16.5976 16.5977H13.6526V19.5427H16.5976V16.5977Z" fill="white"/>
<path d="M16.5976 19.5426H13.6526V22.4876H16.5976V19.5426Z" fill="white"/>
<path d="M19.5425 13.6526H16.5975V16.5976H19.5425V13.6526Z" fill="white"/>
<path d="M19.5425 16.5977H16.5975V19.5427H19.5425V16.5977Z" fill="white"/>
<path d="M19.5425 19.5426H16.5975V22.4876H19.5425V19.5426Z" fill="white"/>
<path d="M22.4876 13.6526H19.5426V16.5976H22.4876V13.6526Z" fill="white"/>
<path d="M22.4876 16.5977H19.5426V19.5427H22.4876V16.5977Z" fill="white"/>
<path d="M22.4876 19.5426H19.5426V22.4876H22.4876V19.5426Z" fill="white"/>
<path d="M75.4975 7.76257H72.5525V10.7076H75.4975V7.76257Z" fill="white"/>
<path d="M75.4975 10.7075H72.5525V13.6525H75.4975V10.7075Z" fill="white"/>
<path d="M75.4975 13.6526H72.5525V16.5976H75.4975V13.6526Z" fill="white"/>
<path d="M75.4975 16.5975H72.5525V19.5425H75.4975V16.5975Z" fill="white"/>
<path d="M75.4975 19.5426H72.5525V22.4876H75.4975V19.5426Z" fill="white"/>
<path d="M75.4975 22.4875H72.5525V25.4325H75.4975V22.4875Z" fill="white"/>
<path d="M75.4975 25.4325H72.5525V28.3775H75.4975V25.4325Z" fill="white"/>
<path d="M78.4426 7.76257H75.4976V10.7076H78.4426V7.76257Z" fill="white"/>
<path d="M78.4426 25.4325H75.4976V28.3775H78.4426V25.4325Z" fill="white"/>
<path d="M81.3875 7.76257H78.4425V10.7076H81.3875V7.76257Z" fill="white"/>
<path d="M81.3875 25.4325H78.4425V28.3775H81.3875V25.4325Z" fill="white"/>
<path d="M84.3325 7.76257H81.3875V10.7076H84.3325V7.76257Z" fill="white"/>
<path d="M84.3325 25.4325H81.3875V28.3775H84.3325V25.4325Z" fill="white"/>
<path d="M87.2775 7.76257H84.3325V10.7076H87.2775V7.76257Z" fill="white"/>
<path d="M87.2775 25.4325H84.3325V28.3775H87.2775V25.4325Z" fill="white"/>
<path d="M90.2225 7.76257H87.2775V10.7076H90.2225V7.76257Z" fill="white"/>
<path d="M90.2225 25.4325H87.2775V28.3775H90.2225V25.4325Z" fill="white"/>
<path d="M93.1675 7.76257H90.2225V10.7076H93.1675V7.76257Z" fill="white"/>
<path d="M93.1675 10.7075H90.2225V13.6525H93.1675V10.7075Z" fill="white"/>
<path d="M93.1675 13.6526H90.2225V16.5976H93.1675V13.6526Z" fill="white"/>
<path d="M93.1675 16.5975H90.2225V19.5425H93.1675V16.5975Z" fill="white"/>
<path d="M93.1675 19.5426H90.2225V22.4876H93.1675V19.5426Z" fill="white"/>
<path d="M93.1675 22.4875H90.2225V25.4325H93.1675V22.4875Z" fill="white"/>
<path d="M93.1675 25.4325H90.2225V28.3775H93.1675V25.4325Z" fill="white"/>
<path d="M81.3875 13.6526H78.4425V16.5976H81.3875V13.6526Z" fill="white"/>
<path d="M81.3875 16.5977H78.4425V19.5427H81.3875V16.5977Z" fill="white"/>
<path d="M81.3875 19.5426H78.4425V22.4876H81.3875V19.5426Z" fill="white"/>
<path d="M84.3326 13.6526H81.3876V16.5976H84.3326V13.6526Z" fill="white"/>
<path d="M84.3326 16.5977H81.3876V19.5427H84.3326V16.5977Z" fill="white"/>
<path d="M84.3326 19.5426H81.3876V22.4876H84.3326V19.5426Z" fill="white"/>
<path d="M87.2775 13.6526H84.3325V16.5976H87.2775V13.6526Z" fill="white"/>
<path d="M87.2775 16.5977H84.3325V19.5427H87.2775V16.5977Z" fill="white"/>
<path d="M87.2775 19.5426H84.3325V22.4876H87.2775V19.5426Z" fill="white"/>
<path d="M10.7076 72.5525H7.76257V75.4975H10.7076V72.5525Z" fill="white"/>
<path d="M10.7076 75.4976H7.76257V78.4426H10.7076V75.4976Z" fill="white"/>
<path d="M10.7076 78.4425H7.76257V81.3875H10.7076V78.4425Z" fill="white"/>
<path d="M10.7076 81.3875H7.76257V84.3325H10.7076V81.3875Z" fill="white"/>
<path d="M10.7076 84.3325H7.76257V87.2775H10.7076V84.3325Z" fill="white"/>
<path d="M10.7076 87.2775H7.76257V90.2225H10.7076V87.2775Z" fill="white"/>
<path d="M10.7076 90.2225H7.76257V93.1675H10.7076V90.2225Z" fill="white"/>
<path d="M13.6526 72.5525H10.7076V75.4975H13.6526V72.5525Z" fill="white"/>
<path d="M13.6526 90.2225H10.7076V93.1675H13.6526V90.2225Z" fill="white"/>
<path d="M16.5976 72.5525H13.6526V75.4975H16.5976V72.5525Z" fill="white"/>
<path d="M16.5976 90.2225H13.6526V93.1675H16.5976V90.2225Z" fill="white"/>
<path d="M19.5425 72.5525H16.5975V75.4975H19.5425V72.5525Z" fill="white"/>
<path d="M19.5425 90.2225H16.5975V93.1675H19.5425V90.2225Z" fill="white"/>
<path d="M22.4876 72.5525H19.5426V75.4975H22.4876V72.5525Z" fill="white"/>
<path d="M22.4876 90.2225H19.5426V93.1675H22.4876V90.2225Z" fill="white"/>
<path d="M25.4325 72.5525H22.4875V75.4975H25.4325V72.5525Z" fill="white"/>
<path d="M25.4325 90.2225H22.4875V93.1675H25.4325V90.2225Z" fill="white"/>
<path d="M28.3776 72.5525H25.4326V75.4975H28.3776V72.5525Z" fill="white"/>
<path d="M28.3776 75.4976H25.4326V78.4426H28.3776V75.4976Z" fill="white"/>
<path d="M28.3776 78.4425H25.4326V81.3875H28.3776V78.4425Z" fill="white"/>
<path d="M28.3776 81.3875H25.4326V84.3325H28.3776V81.3875Z" fill="white"/>
<path d="M28.3776 84.3325H25.4326V87.2775H28.3776V84.3325Z" fill="white"/>
<path d="M28.3776 87.2775H25.4326V90.2225H28.3776V87.2775Z" fill="white"/>
<path d="M28.3776 90.2225H25.4326V93.1675H28.3776V90.2225Z" fill="white"/>
<path d="M16.5976 78.4426H13.6526V81.3876H16.5976V78.4426Z" fill="white"/>
<path d="M16.5976 81.3877H13.6526V84.3327H16.5976V81.3877Z" fill="white"/>
<path d="M16.5976 84.3326H13.6526V87.2776H16.5976V84.3326Z" fill="white"/>
<path d="M19.5425 78.4426H16.5975V81.3876H19.5425V78.4426Z" fill="white"/>
<path d="M19.5425 81.3877H16.5975V84.3327H19.5425V81.3877Z" fill="white"/>
<path d="M19.5425 84.3326H16.5975V87.2776H19.5425V84.3326Z" fill="white"/>
<path d="M22.4876 78.4426H19.5426V81.3876H22.4876V78.4426Z" fill="white"/>
<path d="M22.4876 81.3877H19.5426V84.3327H22.4876V81.3877Z" fill="white"/>
<path d="M22.4876 84.3326H19.5426V87.2776H22.4876V84.3326Z" fill="white"/>
</svg>
