<svg width="100" height="100" viewBox="0 0 100 100" fill="none" xmlns="http://www.w3.org/2000/svg">
<rect width="100" height="100" rx="6" fill="white"/>
<rect width="93" height="93" transform="translate(3.5 3.5)" fill="white"/>
<rect width="88.35" height="88.35" transform="translate(6.28979 6.28979)" fill="white"/>
<rect width="88.35" height="88.35" transform="translate(6.28979 6.28979)" fill="white"/>
<path d="M10.7077 37.2126H7.7627V40.1576H10.7077V37.2126Z" fill="black"/>
<path d="M10.7077 40.1577H7.7627V43.1027H10.7077V40.1577Z" fill="black"/>
<path d="M10.7077 48.9927H7.7627V51.9377H10.7077V48.9927Z" fill="black"/>
<path d="M10.7077 54.8826H7.7627V57.8276H10.7077V54.8826Z" fill="black"/>
<path d="M10.7077 60.7725H7.7627V63.7175H10.7077V60.7725Z" fill="black"/>
<path d="M10.7077 63.7175H7.7627V66.6625H10.7077V63.7175Z" fill="black"/>
<path d="M13.6525 43.1025H10.7075V46.0475H13.6525V43.1025Z" fill="black"/>
<path d="M13.6525 51.9375H10.7075V54.8825H13.6525V51.9375Z" fill="black"/>
<path d="M13.6525 54.8826H10.7075V57.8276H13.6525V54.8826Z" fill="black"/>
<path d="M13.6525 60.7725H10.7075V63.7175H13.6525V60.7725Z" fill="black"/>
<path d="M13.6525 63.7175H10.7075V66.6625H13.6525V63.7175Z" fill="black"/>
<path d="M16.5976 34.2676H13.6526V37.2126H16.5976V34.2676Z" fill="black"/>
<path d="M16.5976 37.2126H13.6526V40.1576H16.5976V37.2126Z" fill="black"/>
<path d="M16.5976 43.1025H13.6526V46.0475H16.5976V43.1025Z" fill="black"/>
<path d="M16.5976 46.0476H13.6526V48.9926H16.5976V46.0476Z" fill="black"/>
<path d="M16.5976 48.9927H13.6526V51.9377H16.5976V48.9927Z" fill="black"/>
<path d="M16.5976 57.8276H13.6526V60.7726H16.5976V57.8276Z" fill="black"/>
<path d="M19.5427 31.3225H16.5977V34.2675H19.5427V31.3225Z" fill="black"/>
<path d="M19.5427 34.2676H16.5977V37.2126H19.5427V34.2676Z" fill="black"/>
<path d="M19.5427 37.2126H16.5977V40.1576H19.5427V37.2126Z" fill="black"/>
<path d="M19.5427 54.8826H16.5977V57.8276H19.5427V54.8826Z" fill="black"/>
<path d="M19.5427 57.8276H16.5977V60.7726H19.5427V57.8276Z" fill="black"/>
<path d="M19.5427 60.7725H16.5977V63.7175H19.5427V60.7725Z" fill="black"/>
<path d="M19.5427 63.7175H16.5977V66.6625H19.5427V63.7175Z" fill="black"/>
<path d="M22.4877 40.1577H19.5427V43.1027H22.4877V40.1577Z" fill="black"/>
<path d="M22.4877 46.0476H19.5427V48.9926H22.4877V46.0476Z" fill="black"/>
<path d="M22.4877 51.9375H19.5427V54.8825H22.4877V51.9375Z" fill="black"/>
<path d="M22.4877 57.8276H19.5427V60.7726H22.4877V57.8276Z" fill="black"/>
<path d="M22.4877 66.6626H19.5427V69.6076H22.4877V66.6626Z" fill="black"/>
<path d="M25.4325 31.3225H22.4875V34.2675H25.4325V31.3225Z" fill="black"/>
<path d="M25.4325 37.2126H22.4875V40.1576H25.4325V37.2126Z" fill="black"/>
<path d="M25.4325 46.0476H22.4875V48.9926H25.4325V46.0476Z" fill="black"/>
<path d="M25.4325 54.8826H22.4875V57.8276H25.4325V54.8826Z" fill="black"/>
<path d="M25.4325 66.6626H22.4875V69.6076H25.4325V66.6626Z" fill="black"/>
<path d="M28.3776 31.3225H25.4326V34.2675H28.3776V31.3225Z" fill="black"/>
<path d="M28.3776 37.2126H25.4326V40.1576H28.3776V37.2126Z" fill="black"/>
<path d="M28.3776 43.1025H25.4326V46.0475H28.3776V43.1025Z" fill="black"/>
<path d="M28.3776 48.9927H25.4326V51.9377H28.3776V48.9927Z" fill="black"/>
<path d="M28.3776 54.8826H25.4326V57.8276H28.3776V54.8826Z" fill="black"/>
<path d="M28.3776 60.7725H25.4326V63.7175H28.3776V60.7725Z" fill="black"/>
<path d="M28.3776 66.6626H25.4326V69.6076H28.3776V66.6626Z" fill="black"/>
<path d="M31.3224 31.3225H28.3774V34.2675H31.3224V31.3225Z" fill="black"/>
<path d="M31.3224 34.2676H28.3774V37.2126H31.3224V34.2676Z" fill="black"/>
<path d="M31.3224 40.1577H28.3774V43.1027H31.3224V40.1577Z" fill="black"/>
<path d="M31.3224 43.1025H28.3774V46.0475H31.3224V43.1025Z" fill="black"/>
<path d="M31.3224 48.9927H28.3774V51.9377H31.3224V48.9927Z" fill="black"/>
<path d="M31.3224 51.9375H28.3774V54.8825H31.3224V51.9375Z" fill="black"/>
<path d="M31.3224 54.8826H28.3774V57.8276H31.3224V54.8826Z" fill="black"/>
<path d="M31.3224 60.7725H28.3774V63.7175H31.3224V60.7725Z" fill="black"/>
<path d="M31.3224 66.6626H28.3774V69.6076H31.3224V66.6626Z" fill="black"/>
<path d="M34.2675 10.7075H31.3225V13.6525H34.2675V10.7075Z" fill="black"/>
<path d="M34.2675 13.6526H31.3225V16.5976H34.2675V13.6526Z" fill="black"/>
<path d="M34.2675 25.4326H31.3225V28.3776H34.2675V25.4326Z" fill="black"/>
<path d="M34.2675 40.1577H31.3225V43.1027H34.2675V40.1577Z" fill="black"/>
<path d="M34.2675 46.0476H31.3225V48.9926H34.2675V46.0476Z" fill="black"/>
<path d="M34.2675 51.9375H31.3225V54.8825H34.2675V51.9375Z" fill="black"/>
<path d="M34.2675 54.8826H31.3225V57.8276H34.2675V54.8826Z" fill="black"/>
<path d="M34.2675 57.8276H31.3225V60.7726H34.2675V57.8276Z" fill="black"/>
<path d="M34.2675 60.7725H31.3225V63.7175H34.2675V60.7725Z" fill="black"/>
<path d="M34.2675 63.7175H31.3225V66.6625H34.2675V63.7175Z" fill="black"/>
<path d="M34.2675 66.6626H31.3225V69.6076H34.2675V66.6626Z" fill="black"/>
<path d="M34.2675 72.5527H31.3225V75.4977H34.2675V72.5527Z" fill="black"/>
<path d="M34.2675 75.4976H31.3225V78.4426H34.2675V75.4976Z" fill="black"/>
<path d="M34.2675 81.3875H31.3225V84.3325H34.2675V81.3875Z" fill="black"/>
<path d="M37.2126 7.7627H34.2676V10.7077H37.2126V7.7627Z" fill="black"/>
<path d="M37.2126 13.6526H34.2676V16.5976H37.2126V13.6526Z" fill="black"/>
<path d="M37.2126 16.5977H34.2676V19.5427H37.2126V16.5977Z" fill="black"/>
<path d="M37.2126 19.5427H34.2676V22.4877H37.2126V19.5427Z" fill="black"/>
<path d="M37.2126 31.3225H34.2676V34.2675H37.2126V31.3225Z" fill="black"/>
<path d="M37.2126 34.2676H34.2676V37.2126H37.2126V34.2676Z" fill="black"/>
<path d="M37.2126 48.9927H34.2676V51.9377H37.2126V48.9927Z" fill="black"/>
<path d="M37.2126 60.7725H34.2676V63.7175H37.2126V60.7725Z" fill="black"/>
<path d="M37.2126 69.6077H34.2676V72.5527H37.2126V69.6077Z" fill="black"/>
<path d="M37.2126 72.5527H34.2676V75.4977H37.2126V72.5527Z" fill="black"/>
<path d="M37.2126 75.4976H34.2676V78.4426H37.2126V75.4976Z" fill="black"/>
<path d="M37.2126 81.3875H34.2676V84.3325H37.2126V81.3875Z" fill="black"/>
<path d="M37.2126 84.3325H34.2676V87.2775H37.2126V84.3325Z" fill="black"/>
<path d="M37.2126 87.2776H34.2676V90.2226H37.2126V87.2776Z" fill="black"/>
<path d="M37.2126 90.2227H34.2676V93.1677H37.2126V90.2227Z" fill="black"/>
<path d="M40.1576 13.6526H37.2126V16.5976H40.1576V13.6526Z" fill="black"/>
<path d="M40.1576 19.5427H37.2126V22.4877H40.1576V19.5427Z" fill="black"/>
<path d="M40.1576 25.4326H37.2126V28.3776H40.1576V25.4326Z" fill="black"/>
<path d="M40.1576 28.3774H37.2126V31.3224H40.1576V28.3774Z" fill="black"/>
<path d="M40.1576 34.2676H37.2126V37.2126H40.1576V34.2676Z" fill="black"/>
<path d="M40.1576 43.1025H37.2126V46.0475H40.1576V43.1025Z" fill="black"/>
<path d="M40.1576 54.8826H37.2126V57.8276H40.1576V54.8826Z" fill="black"/>
<path d="M40.1576 57.8276H37.2126V60.7726H40.1576V57.8276Z" fill="black"/>
<path d="M40.1576 60.7725H37.2126V63.7175H40.1576V60.7725Z" fill="black"/>
<path d="M40.1576 63.7175H37.2126V66.6625H40.1576V63.7175Z" fill="black"/>
<path d="M40.1576 69.6077H37.2126V72.5527H40.1576V69.6077Z" fill="black"/>
<path d="M40.1576 78.4426H37.2126V81.3876H40.1576V78.4426Z" fill="black"/>
<path d="M40.1576 90.2227H37.2126V93.1677H40.1576V90.2227Z" fill="black"/>
<path d="M43.1027 10.7075H40.1577V13.6525H43.1027V10.7075Z" fill="black"/>
<path d="M43.1027 13.6526H40.1577V16.5976H43.1027V13.6526Z" fill="black"/>
<path d="M43.1027 37.2126H40.1577V40.1576H43.1027V37.2126Z" fill="black"/>
<path d="M43.1027 40.1577H40.1577V43.1027H43.1027V40.1577Z" fill="black"/>
<path d="M43.1027 46.0476H40.1577V48.9926H43.1027V46.0476Z" fill="black"/>
<path d="M43.1027 51.9375H40.1577V54.8825H43.1027V51.9375Z" fill="black"/>
<path d="M43.1027 54.8826H40.1577V57.8276H43.1027V54.8826Z" fill="black"/>
<path d="M43.1027 60.7725H40.1577V63.7175H43.1027V60.7725Z" fill="black"/>
<path d="M43.1027 72.5527H40.1577V75.4977H43.1027V72.5527Z" fill="black"/>
<path d="M43.1027 78.4426H40.1577V81.3876H43.1027V78.4426Z" fill="black"/>
<path d="M43.1027 81.3875H40.1577V84.3325H43.1027V81.3875Z" fill="black"/>
<path d="M46.0475 13.6526H43.1025V16.5976H46.0475V13.6526Z" fill="black"/>
<path d="M46.0475 16.5977H43.1025V19.5427H46.0475V16.5977Z" fill="black"/>
<path d="M46.0475 22.4875H43.1025V25.4325H46.0475V22.4875Z" fill="black"/>
<path d="M46.0475 25.4326H43.1025V28.3776H46.0475V25.4326Z" fill="black"/>
<path d="M46.0475 31.3225H43.1025V34.2675H46.0475V31.3225Z" fill="black"/>
<path d="M46.0475 34.2676H43.1025V37.2126H46.0475V34.2676Z" fill="black"/>
<path d="M46.0475 37.2126H43.1025V40.1576H46.0475V37.2126Z" fill="black"/>
<path d="M46.0475 40.1577H43.1025V43.1027H46.0475V40.1577Z" fill="black"/>
<path d="M46.0475 46.0476H43.1025V48.9926H46.0475V46.0476Z" fill="black"/>
<path d="M46.0475 48.9927H43.1025V51.9377H46.0475V48.9927Z" fill="black"/>
<path d="M46.0475 63.7175H43.1025V66.6625H46.0475V63.7175Z" fill="black"/>
<path d="M46.0475 66.6626H43.1025V69.6076H46.0475V66.6626Z" fill="black"/>
<path d="M46.0475 69.6077H43.1025V72.5527H46.0475V69.6077Z" fill="black"/>
<path d="M46.0475 72.5527H43.1025V75.4977H46.0475V72.5527Z" fill="black"/>
<path d="M46.0475 81.3875H43.1025V84.3325H46.0475V81.3875Z" fill="black"/>
<path d="M46.0475 87.2776H43.1025V90.2226H46.0475V87.2776Z" fill="black"/>
<path d="M48.9926 13.6526H46.0476V16.5976H48.9926V13.6526Z" fill="black"/>
<path d="M48.9926 19.5427H46.0476V22.4877H48.9926V19.5427Z" fill="black"/>
<path d="M48.9926 22.4875H46.0476V25.4325H48.9926V22.4875Z" fill="black"/>
<path d="M48.9926 43.1025H46.0476V46.0475H48.9926V43.1025Z" fill="black"/>
<path d="M48.9926 46.0476H46.0476V48.9926H48.9926V46.0476Z" fill="black"/>
<path d="M48.9926 48.9927H46.0476V51.9377H48.9926V48.9927Z" fill="black"/>
<path d="M48.9926 54.8826H46.0476V57.8276H48.9926V54.8826Z" fill="black"/>
<path d="M48.9926 57.8276H46.0476V60.7726H48.9926V57.8276Z" fill="black"/>
<path d="M48.9926 60.7725H46.0476V63.7175H48.9926V60.7725Z" fill="black"/>
<path d="M48.9926 63.7175H46.0476V66.6625H48.9926V63.7175Z" fill="black"/>
<path d="M48.9926 66.6626H46.0476V69.6076H48.9926V66.6626Z" fill="black"/>
<path d="M48.9926 72.5527H46.0476V75.4977H48.9926V72.5527Z" fill="black"/>
<path d="M48.9926 81.3875H46.0476V84.3325H48.9926V81.3875Z" fill="black"/>
<path d="M48.9926 90.2227H46.0476V93.1677H48.9926V90.2227Z" fill="black"/>
<path d="M51.9377 10.7075H48.9927V13.6525H51.9377V10.7075Z" fill="black"/>
<path d="M51.9377 19.5427H48.9927V22.4877H51.9377V19.5427Z" fill="black"/>
<path d="M51.9377 22.4875H48.9927V25.4325H51.9377V22.4875Z" fill="black"/>
<path d="M51.9377 25.4326H48.9927V28.3776H51.9377V25.4326Z" fill="black"/>
<path d="M51.9377 34.2676H48.9927V37.2126H51.9377V34.2676Z" fill="black"/>
<path d="M51.9377 37.2126H48.9927V40.1576H51.9377V37.2126Z" fill="black"/>
<path d="M51.9377 43.1025H48.9927V46.0475H51.9377V43.1025Z" fill="black"/>
<path d="M51.9377 48.9927H48.9927V51.9377H51.9377V48.9927Z" fill="black"/>
<path d="M51.9377 51.9375H48.9927V54.8825H51.9377V51.9375Z" fill="black"/>
<path d="M51.9377 54.8826H48.9927V57.8276H51.9377V54.8826Z" fill="black"/>
<path d="M51.9377 63.7175H48.9927V66.6625H51.9377V63.7175Z" fill="black"/>
<path d="M51.9377 72.5527H48.9927V75.4977H51.9377V72.5527Z" fill="black"/>
<path d="M51.9377 81.3875H48.9927V84.3325H51.9377V81.3875Z" fill="black"/>
<path d="M51.9377 84.3325H48.9927V87.2775H51.9377V84.3325Z" fill="black"/>
<path d="M51.9377 87.2776H48.9927V90.2226H51.9377V87.2776Z" fill="black"/>
<path d="M51.9377 90.2227H48.9927V93.1677H51.9377V90.2227Z" fill="black"/>
<path d="M54.8825 16.5977H51.9375V19.5427H54.8825V16.5977Z" fill="black"/>
<path d="M54.8825 19.5427H51.9375V22.4877H54.8825V19.5427Z" fill="black"/>
<path d="M54.8825 28.3774H51.9375V31.3224H54.8825V28.3774Z" fill="black"/>
<path d="M54.8825 31.3225H51.9375V34.2675H54.8825V31.3225Z" fill="black"/>
<path d="M54.8825 37.2126H51.9375V40.1576H54.8825V37.2126Z" fill="black"/>
<path d="M54.8825 48.9927H51.9375V51.9377H54.8825V48.9927Z" fill="black"/>
<path d="M54.8825 51.9375H51.9375V54.8825H54.8825V51.9375Z" fill="black"/>
<path d="M54.8825 57.8276H51.9375V60.7726H54.8825V57.8276Z" fill="black"/>
<path d="M54.8825 66.6626H51.9375V69.6076H54.8825V66.6626Z" fill="black"/>
<path d="M54.8825 69.6077H51.9375V72.5527H54.8825V69.6077Z" fill="black"/>
<path d="M54.8825 72.5527H51.9375V75.4977H54.8825V72.5527Z" fill="black"/>
<path d="M54.8825 81.3875H51.9375V84.3325H54.8825V81.3875Z" fill="black"/>
<path d="M54.8825 87.2776H51.9375V90.2226H54.8825V87.2776Z" fill="black"/>
<path d="M57.8276 7.7627H54.8826V10.7077H57.8276V7.7627Z" fill="black"/>
<path d="M57.8276 13.6526H54.8826V16.5976H57.8276V13.6526Z" fill="black"/>
<path d="M57.8276 19.5427H54.8826V22.4877H57.8276V19.5427Z" fill="black"/>
<path d="M57.8276 25.4326H54.8826V28.3776H57.8276V25.4326Z" fill="black"/>
<path d="M57.8276 46.0476H54.8826V48.9926H57.8276V46.0476Z" fill="black"/>
<path d="M57.8276 57.8276H54.8826V60.7726H57.8276V57.8276Z" fill="black"/>
<path d="M57.8276 69.6077H54.8826V72.5527H57.8276V69.6077Z" fill="black"/>
<path d="M57.8276 72.5527H54.8826V75.4977H57.8276V72.5527Z" fill="black"/>
<path d="M57.8276 75.4976H54.8826V78.4426H57.8276V75.4976Z" fill="black"/>
<path d="M57.8276 78.4426H54.8826V81.3876H57.8276V78.4426Z" fill="black"/>
<path d="M60.7726 19.5427H57.8276V22.4877H60.7726V19.5427Z" fill="black"/>
<path d="M60.7726 22.4875H57.8276V25.4325H60.7726V22.4875Z" fill="black"/>
<path d="M60.7726 43.1025H57.8276V46.0475H60.7726V43.1025Z" fill="black"/>
<path d="M60.7726 48.9927H57.8276V51.9377H60.7726V48.9927Z" fill="black"/>
<path d="M60.7726 63.7175H57.8276V66.6625H60.7726V63.7175Z" fill="black"/>
<path d="M60.7726 69.6077H57.8276V72.5527H60.7726V69.6077Z" fill="black"/>
<path d="M60.7726 72.5527H57.8276V75.4977H60.7726V72.5527Z" fill="black"/>
<path d="M60.7726 75.4976H57.8276V78.4426H60.7726V75.4976Z" fill="black"/>
<path d="M60.7726 90.2227H57.8276V93.1677H60.7726V90.2227Z" fill="black"/>
<path d="M63.7175 7.7627H60.7725V10.7077H63.7175V7.7627Z" fill="black"/>
<path d="M63.7175 10.7075H60.7725V13.6525H63.7175V10.7075Z" fill="black"/>
<path d="M63.7175 16.5977H60.7725V19.5427H63.7175V16.5977Z" fill="black"/>
<path d="M63.7175 19.5427H60.7725V22.4877H63.7175V19.5427Z" fill="black"/>
<path d="M63.7175 22.4875H60.7725V25.4325H63.7175V22.4875Z" fill="black"/>
<path d="M63.7175 25.4326H60.7725V28.3776H63.7175V25.4326Z" fill="black"/>
<path d="M63.7175 48.9927H60.7725V51.9377H63.7175V48.9927Z" fill="black"/>
<path d="M63.7175 51.9375H60.7725V54.8825H63.7175V51.9375Z" fill="black"/>
<path d="M63.7175 60.7725H60.7725V63.7175H63.7175V60.7725Z" fill="black"/>
<path d="M63.7175 63.7175H60.7725V66.6625H63.7175V63.7175Z" fill="black"/>
<path d="M63.7175 75.4976H60.7725V78.4426H63.7175V75.4976Z" fill="black"/>
<path d="M63.7175 78.4426H60.7725V81.3876H63.7175V78.4426Z" fill="black"/>
<path d="M63.7175 81.3875H60.7725V84.3325H63.7175V81.3875Z" fill="black"/>
<path d="M63.7175 90.2227H60.7725V93.1677H63.7175V90.2227Z" fill="black"/>
<path d="M66.6625 16.5977H63.7175V19.5427H66.6625V16.5977Z" fill="black"/>
<path d="M66.6625 22.4875H63.7175V25.4325H66.6625V22.4875Z" fill="black"/>
<path d="M66.6625 34.2676H63.7175V37.2126H66.6625V34.2676Z" fill="black"/>
<path d="M66.6625 37.2126H63.7175V40.1576H66.6625V37.2126Z" fill="black"/>
<path d="M66.6625 40.1577H63.7175V43.1027H66.6625V40.1577Z" fill="black"/>
<path d="M66.6625 43.1025H63.7175V46.0475H66.6625V43.1025Z" fill="black"/>
<path d="M66.6625 46.0476H63.7175V48.9926H66.6625V46.0476Z" fill="black"/>
<path d="M66.6625 63.7175H63.7175V66.6625H66.6625V63.7175Z" fill="black"/>
<path d="M66.6625 69.6077H63.7175V72.5527H66.6625V69.6077Z" fill="black"/>
<path d="M66.6625 72.5527H63.7175V75.4977H66.6625V72.5527Z" fill="black"/>
<path d="M66.6625 75.4976H63.7175V78.4426H66.6625V75.4976Z" fill="black"/>
<path d="M66.6625 90.2227H63.7175V93.1677H66.6625V90.2227Z" fill="black"/>
<path d="M69.6076 7.7627H66.6626V10.7077H69.6076V7.7627Z" fill="black"/>
<path d="M69.6076 10.7075H66.6626V13.6525H69.6076V10.7075Z" fill="black"/>
<path d="M69.6076 16.5977H66.6626V19.5427H69.6076V16.5977Z" fill="black"/>
<path d="M69.6076 25.4326H66.6626V28.3776H69.6076V25.4326Z" fill="black"/>
<path d="M69.6076 34.2676H66.6626V37.2126H69.6076V34.2676Z" fill="black"/>
<path d="M69.6076 43.1025H66.6626V46.0475H69.6076V43.1025Z" fill="black"/>
<path d="M69.6076 46.0476H66.6626V48.9926H69.6076V46.0476Z" fill="black"/>
<path d="M69.6076 51.9375H66.6626V54.8825H69.6076V51.9375Z" fill="black"/>
<path d="M69.6076 54.8826H66.6626V57.8276H69.6076V54.8826Z" fill="black"/>
<path d="M69.6076 60.7725H66.6626V63.7175H69.6076V60.7725Z" fill="black"/>
<path d="M69.6076 63.7175H66.6626V66.6625H69.6076V63.7175Z" fill="black"/>
<path d="M69.6076 66.6626H66.6626V69.6076H69.6076V66.6626Z" fill="black"/>
<path d="M69.6076 69.6077H66.6626V72.5527H69.6076V69.6077Z" fill="black"/>
<path d="M69.6076 72.5527H66.6626V75.4977H69.6076V72.5527Z" fill="black"/>
<path d="M69.6076 75.4976H66.6626V78.4426H69.6076V75.4976Z" fill="black"/>
<path d="M69.6076 78.4426H66.6626V81.3876H69.6076V78.4426Z" fill="black"/>
<path d="M69.6076 87.2776H66.6626V90.2226H69.6076V87.2776Z" fill="black"/>
<path d="M72.5527 31.3225H69.6077V34.2675H72.5527V31.3225Z" fill="black"/>
<path d="M72.5527 34.2676H69.6077V37.2126H72.5527V34.2676Z" fill="black"/>
<path d="M72.5527 37.2126H69.6077V40.1576H72.5527V37.2126Z" fill="black"/>
<path d="M72.5527 51.9375H69.6077V54.8825H72.5527V51.9375Z" fill="black"/>
<path d="M72.5527 54.8826H69.6077V57.8276H72.5527V54.8826Z" fill="black"/>
<path d="M72.5527 66.6626H69.6077V69.6076H72.5527V66.6626Z" fill="black"/>
<path d="M72.5527 78.4426H69.6077V81.3876H72.5527V78.4426Z" fill="black"/>
<path d="M72.5527 81.3875H69.6077V84.3325H72.5527V81.3875Z" fill="black"/>
<path d="M72.5527 90.2227H69.6077V93.1677H72.5527V90.2227Z" fill="black"/>
<path d="M75.4977 34.2676H72.5527V37.2126H75.4977V34.2676Z" fill="black"/>
<path d="M75.4977 40.1577H72.5527V43.1027H75.4977V40.1577Z" fill="black"/>
<path d="M75.4977 51.9375H72.5527V54.8825H75.4977V51.9375Z" fill="black"/>
<path d="M75.4977 57.8276H72.5527V60.7726H75.4977V57.8276Z" fill="black"/>
<path d="M75.4977 60.7725H72.5527V63.7175H75.4977V60.7725Z" fill="black"/>
<path d="M75.4977 66.6626H72.5527V69.6076H75.4977V66.6626Z" fill="black"/>
<path d="M75.4977 72.5527H72.5527V75.4977H75.4977V72.5527Z" fill="black"/>
<path d="M75.4977 78.4426H72.5527V81.3876H75.4977V78.4426Z" fill="black"/>
<path d="M75.4977 81.3875H72.5527V84.3325H75.4977V81.3875Z" fill="black"/>
<path d="M75.4977 84.3325H72.5527V87.2775H75.4977V84.3325Z" fill="black"/>
<path d="M75.4977 90.2227H72.5527V93.1677H75.4977V90.2227Z" fill="black"/>
<path d="M78.4426 34.2676H75.4976V37.2126H78.4426V34.2676Z" fill="black"/>
<path d="M78.4426 37.2126H75.4976V40.1576H78.4426V37.2126Z" fill="black"/>
<path d="M78.4426 43.1025H75.4976V46.0475H78.4426V43.1025Z" fill="black"/>
<path d="M78.4426 46.0476H75.4976V48.9926H78.4426V46.0476Z" fill="black"/>
<path d="M78.4426 51.9375H75.4976V54.8825H78.4426V51.9375Z" fill="black"/>
<path d="M78.4426 60.7725H75.4976V63.7175H78.4426V60.7725Z" fill="black"/>
<path d="M78.4426 63.7175H75.4976V66.6625H78.4426V63.7175Z" fill="black"/>
<path d="M78.4426 66.6626H75.4976V69.6076H78.4426V66.6626Z" fill="black"/>
<path d="M78.4426 78.4426H75.4976V81.3876H78.4426V78.4426Z" fill="black"/>
<path d="M78.4426 81.3875H75.4976V84.3325H78.4426V81.3875Z" fill="black"/>
<path d="M78.4426 87.2776H75.4976V90.2226H78.4426V87.2776Z" fill="black"/>
<path d="M78.4426 90.2227H75.4976V93.1677H78.4426V90.2227Z" fill="black"/>
<path d="M81.3876 43.1025H78.4426V46.0475H81.3876V43.1025Z" fill="black"/>
<path d="M81.3876 51.9375H78.4426V54.8825H81.3876V51.9375Z" fill="black"/>
<path d="M81.3876 54.8826H78.4426V57.8276H81.3876V54.8826Z" fill="black"/>
<path d="M81.3876 57.8276H78.4426V60.7726H81.3876V57.8276Z" fill="black"/>
<path d="M81.3876 60.7725H78.4426V63.7175H81.3876V60.7725Z" fill="black"/>
<path d="M81.3876 63.7175H78.4426V66.6625H81.3876V63.7175Z" fill="black"/>
<path d="M81.3876 66.6626H78.4426V69.6076H81.3876V66.6626Z" fill="black"/>
<path d="M81.3876 69.6077H78.4426V72.5527H81.3876V69.6077Z" fill="black"/>
<path d="M81.3876 72.5527H78.4426V75.4977H81.3876V72.5527Z" fill="black"/>
<path d="M81.3876 75.4976H78.4426V78.4426H81.3876V75.4976Z" fill="black"/>
<path d="M81.3876 78.4426H78.4426V81.3876H81.3876V78.4426Z" fill="black"/>
<path d="M84.3325 40.1577H81.3875V43.1027H84.3325V40.1577Z" fill="black"/>
<path d="M84.3325 43.1025H81.3875V46.0475H84.3325V43.1025Z" fill="black"/>
<path d="M84.3325 48.9927H81.3875V51.9377H84.3325V48.9927Z" fill="black"/>
<path d="M84.3325 54.8826H81.3875V57.8276H84.3325V54.8826Z" fill="black"/>
<path d="M84.3325 57.8276H81.3875V60.7726H84.3325V57.8276Z" fill="black"/>
<path d="M84.3325 60.7725H81.3875V63.7175H84.3325V60.7725Z" fill="black"/>
<path d="M84.3325 63.7175H81.3875V66.6625H84.3325V63.7175Z" fill="black"/>
<path d="M84.3325 66.6626H81.3875V69.6076H84.3325V66.6626Z" fill="black"/>
<path d="M84.3325 75.4976H81.3875V78.4426H84.3325V75.4976Z" fill="black"/>
<path d="M84.3325 78.4426H81.3875V81.3876H84.3325V78.4426Z" fill="black"/>
<path d="M84.3325 87.2776H81.3875V90.2226H84.3325V87.2776Z" fill="black"/>
<path d="M87.2775 31.3225H84.3325V34.2675H87.2775V31.3225Z" fill="black"/>
<path d="M87.2775 37.2126H84.3325V40.1576H87.2775V37.2126Z" fill="black"/>
<path d="M87.2775 54.8826H84.3325V57.8276H87.2775V54.8826Z" fill="black"/>
<path d="M87.2775 69.6077H84.3325V72.5527H87.2775V69.6077Z" fill="black"/>
<path d="M87.2775 78.4426H84.3325V81.3876H87.2775V78.4426Z" fill="black"/>
<path d="M87.2775 81.3875H84.3325V84.3325H87.2775V81.3875Z" fill="black"/>
<path d="M87.2775 84.3325H84.3325V87.2775H87.2775V84.3325Z" fill="black"/>
<path d="M87.2775 87.2776H84.3325V90.2226H87.2775V87.2776Z" fill="black"/>
<path d="M87.2775 90.2227H84.3325V93.1677H87.2775V90.2227Z" fill="black"/>
<path d="M90.2226 31.3225H87.2776V34.2675H90.2226V31.3225Z" fill="black"/>
<path d="M90.2226 37.2126H87.2776V40.1576H90.2226V37.2126Z" fill="black"/>
<path d="M90.2226 43.1025H87.2776V46.0475H90.2226V43.1025Z" fill="black"/>
<path d="M90.2226 48.9927H87.2776V51.9377H90.2226V48.9927Z" fill="black"/>
<path d="M90.2226 51.9375H87.2776V54.8825H90.2226V51.9375Z" fill="black"/>
<path d="M90.2226 54.8826H87.2776V57.8276H90.2226V54.8826Z" fill="black"/>
<path d="M90.2226 66.6626H87.2776V69.6076H90.2226V66.6626Z" fill="black"/>
<path d="M90.2226 81.3875H87.2776V84.3325H90.2226V81.3875Z" fill="black"/>
<path d="M93.1677 40.1577H90.2227V43.1027H93.1677V40.1577Z" fill="black"/>
<path d="M93.1677 46.0476H90.2227V48.9926H93.1677V46.0476Z" fill="black"/>
<path d="M93.1677 54.8826H90.2227V57.8276H93.1677V54.8826Z" fill="black"/>
<path d="M93.1677 66.6626H90.2227V69.6076H93.1677V66.6626Z" fill="black"/>
<path d="M93.1677 72.5527H90.2227V75.4977H93.1677V72.5527Z" fill="black"/>
<path d="M93.1677 75.4976H90.2227V78.4426H93.1677V75.4976Z" fill="black"/>
<path d="M93.1677 78.4426H90.2227V81.3876H93.1677V78.4426Z" fill="black"/>
<path d="M93.1677 90.2227H90.2227V93.1677H93.1677V90.2227Z" fill="black"/>
<path d="M10.7077 7.7627H7.7627V10.7077H10.7077V7.7627Z" fill="black"/>
<path d="M10.7077 10.7075H7.7627V13.6525H10.7077V10.7075Z" fill="black"/>
<path d="M10.7077 13.6526H7.7627V16.5976H10.7077V13.6526Z" fill="black"/>
<path d="M10.7077 16.5977H7.7627V19.5427H10.7077V16.5977Z" fill="black"/>
<path d="M10.7077 19.5427H7.7627V22.4877H10.7077V19.5427Z" fill="black"/>
<path d="M10.7077 22.4875H7.7627V25.4325H10.7077V22.4875Z" fill="black"/>
<path d="M10.7077 25.4326H7.7627V28.3776H10.7077V25.4326Z" fill="black"/>
<path d="M13.6525 7.7627H10.7075V10.7077H13.6525V7.7627Z" fill="black"/>
<path d="M13.6525 25.4326H10.7075V28.3776H13.6525V25.4326Z" fill="black"/>
<path d="M16.5976 7.7627H13.6526V10.7077H16.5976V7.7627Z" fill="black"/>
<path d="M16.5976 25.4326H13.6526V28.3776H16.5976V25.4326Z" fill="black"/>
<path d="M19.5427 7.7627H16.5977V10.7077H19.5427V7.7627Z" fill="black"/>
<path d="M19.5427 25.4326H16.5977V28.3776H19.5427V25.4326Z" fill="black"/>
<path d="M22.4877 7.7627H19.5427V10.7077H22.4877V7.7627Z" fill="black"/>
<path d="M22.4877 25.4326H19.5427V28.3776H22.4877V25.4326Z" fill="black"/>
<path d="M25.4325 7.7627H22.4875V10.7077H25.4325V7.7627Z" fill="black"/>
<path d="M25.4325 25.4326H22.4875V28.3776H25.4325V25.4326Z" fill="black"/>
<path d="M28.3776 7.7627H25.4326V10.7077H28.3776V7.7627Z" fill="black"/>
<path d="M28.3776 10.7075H25.4326V13.6525H28.3776V10.7075Z" fill="black"/>
<path d="M28.3776 13.6526H25.4326V16.5976H28.3776V13.6526Z" fill="black"/>
<path d="M28.3776 16.5977H25.4326V19.5427H28.3776V16.5977Z" fill="black"/>
<path d="M28.3776 19.5427H25.4326V22.4877H28.3776V19.5427Z" fill="black"/>
<path d="M28.3776 22.4875H25.4326V25.4325H28.3776V22.4875Z" fill="black"/>
<path d="M28.3776 25.4326H25.4326V28.3776H28.3776V25.4326Z" fill="black"/>
<path d="M16.5976 13.6526H13.6526V16.5976H16.5976V13.6526Z" fill="black"/>
<path d="M16.5976 16.5974H13.6526V19.5424H16.5976V16.5974Z" fill="black"/>
<path d="M16.5976 19.5425H13.6526V22.4875H16.5976V19.5425Z" fill="black"/>
<path d="M19.5424 13.6526H16.5974V16.5976H19.5424V13.6526Z" fill="black"/>
<path d="M19.5424 16.5974H16.5974V19.5424H19.5424V16.5974Z" fill="black"/>
<path d="M19.5424 19.5425H16.5974V22.4875H19.5424V19.5425Z" fill="black"/>
<path d="M22.4875 13.6526H19.5425V16.5976H22.4875V13.6526Z" fill="black"/>
<path d="M22.4875 16.5974H19.5425V19.5424H22.4875V16.5974Z" fill="black"/>
<path d="M22.4875 19.5425H19.5425V22.4875H22.4875V19.5425Z" fill="black"/>
<path d="M75.4975 7.7627H72.5525V10.7077H75.4975V7.7627Z" fill="black"/>
<path d="M75.4975 10.7075H72.5525V13.6525H75.4975V10.7075Z" fill="black"/>
<path d="M75.4975 13.6526H72.5525V16.5976H75.4975V13.6526Z" fill="black"/>
<path d="M75.4975 16.5977H72.5525V19.5427H75.4975V16.5977Z" fill="black"/>
<path d="M75.4975 19.5427H72.5525V22.4877H75.4975V19.5427Z" fill="black"/>
<path d="M75.4975 22.4875H72.5525V25.4325H75.4975V22.4875Z" fill="black"/>
<path d="M75.4975 25.4326H72.5525V28.3776H75.4975V25.4326Z" fill="black"/>
<path d="M78.4426 7.7627H75.4976V10.7077H78.4426V7.7627Z" fill="black"/>
<path d="M78.4426 25.4326H75.4976V28.3776H78.4426V25.4326Z" fill="black"/>
<path d="M81.3876 7.7627H78.4426V10.7077H81.3876V7.7627Z" fill="black"/>
<path d="M81.3876 25.4326H78.4426V28.3776H81.3876V25.4326Z" fill="black"/>
<path d="M84.3325 7.7627H81.3875V10.7077H84.3325V7.7627Z" fill="black"/>
<path d="M84.3325 25.4326H81.3875V28.3776H84.3325V25.4326Z" fill="black"/>
<path d="M87.2775 7.7627H84.3325V10.7077H87.2775V7.7627Z" fill="black"/>
<path d="M87.2775 25.4326H84.3325V28.3776H87.2775V25.4326Z" fill="black"/>
<path d="M90.2226 7.7627H87.2776V10.7077H90.2226V7.7627Z" fill="black"/>
<path d="M90.2226 25.4326H87.2776V28.3776H90.2226V25.4326Z" fill="black"/>
<path d="M93.1674 7.7627H90.2224V10.7077H93.1674V7.7627Z" fill="black"/>
<path d="M93.1674 10.7075H90.2224V13.6525H93.1674V10.7075Z" fill="black"/>
<path d="M93.1674 13.6526H90.2224V16.5976H93.1674V13.6526Z" fill="black"/>
<path d="M93.1674 16.5977H90.2224V19.5427H93.1674V16.5977Z" fill="black"/>
<path d="M93.1674 19.5427H90.2224V22.4877H93.1674V19.5427Z" fill="black"/>
<path d="M93.1674 22.4875H90.2224V25.4325H93.1674V22.4875Z" fill="black"/>
<path d="M93.1674 25.4326H90.2224V28.3776H93.1674V25.4326Z" fill="black"/>
<path d="M81.3876 13.6526H78.4426V16.5976H81.3876V13.6526Z" fill="black"/>
<path d="M81.3876 16.5974H78.4426V19.5424H81.3876V16.5974Z" fill="black"/>
<path d="M81.3876 19.5425H78.4426V22.4875H81.3876V19.5425Z" fill="black"/>
<path d="M84.3325 13.6526H81.3875V16.5976H84.3325V13.6526Z" fill="black"/>
<path d="M84.3325 16.5974H81.3875V19.5424H84.3325V16.5974Z" fill="black"/>
<path d="M84.3325 19.5425H81.3875V22.4875H84.3325V19.5425Z" fill="black"/>
<path d="M87.2775 13.6526H84.3325V16.5976H87.2775V13.6526Z" fill="black"/>
<path d="M87.2775 16.5974H84.3325V19.5424H87.2775V16.5974Z" fill="black"/>
<path d="M87.2775 19.5425H84.3325V22.4875H87.2775V19.5425Z" fill="black"/>
<path d="M10.7077 72.5525H7.7627V75.4975H10.7077V72.5525Z" fill="black"/>
<path d="M10.7077 75.4976H7.7627V78.4426H10.7077V75.4976Z" fill="black"/>
<path d="M10.7077 78.4426H7.7627V81.3876H10.7077V78.4426Z" fill="black"/>
<path d="M10.7077 81.3875H7.7627V84.3325H10.7077V81.3875Z" fill="black"/>
<path d="M10.7077 84.3325H7.7627V87.2775H10.7077V84.3325Z" fill="black"/>
<path d="M10.7077 87.2776H7.7627V90.2226H10.7077V87.2776Z" fill="black"/>
<path d="M10.7077 90.2224H7.7627V93.1674H10.7077V90.2224Z" fill="black"/>
<path d="M13.6525 72.5525H10.7075V75.4975H13.6525V72.5525Z" fill="black"/>
<path d="M13.6525 90.2224H10.7075V93.1674H13.6525V90.2224Z" fill="black"/>
<path d="M16.5976 72.5525H13.6526V75.4975H16.5976V72.5525Z" fill="black"/>
<path d="M16.5976 90.2224H13.6526V93.1674H16.5976V90.2224Z" fill="black"/>
<path d="M19.5427 72.5525H16.5977V75.4975H19.5427V72.5525Z" fill="black"/>
<path d="M19.5427 90.2224H16.5977V93.1674H19.5427V90.2224Z" fill="black"/>
<path d="M22.4877 72.5525H19.5427V75.4975H22.4877V72.5525Z" fill="black"/>
<path d="M22.4877 90.2224H19.5427V93.1674H22.4877V90.2224Z" fill="black"/>
<path d="M25.4325 72.5525H22.4875V75.4975H25.4325V72.5525Z" fill="black"/>
<path d="M25.4325 90.2224H22.4875V93.1674H25.4325V90.2224Z" fill="black"/>
<path d="M28.3776 72.5525H25.4326V75.4975H28.3776V72.5525Z" fill="black"/>
<path d="M28.3776 75.4976H25.4326V78.4426H28.3776V75.4976Z" fill="black"/>
<path d="M28.3776 78.4426H25.4326V81.3876H28.3776V78.4426Z" fill="black"/>
<path d="M28.3776 81.3875H25.4326V84.3325H28.3776V81.3875Z" fill="black"/>
<path d="M28.3776 84.3325H25.4326V87.2775H28.3776V84.3325Z" fill="black"/>
<path d="M28.3776 87.2776H25.4326V90.2226H28.3776V87.2776Z" fill="black"/>
<path d="M28.3776 90.2224H25.4326V93.1674H28.3776V90.2224Z" fill="black"/>
<path d="M16.5976 78.4426H13.6526V81.3876H16.5976V78.4426Z" fill="black"/>
<path d="M16.5976 81.3875H13.6526V84.3325H16.5976V81.3875Z" fill="black"/>
<path d="M16.5976 84.3325H13.6526V87.2775H16.5976V84.3325Z" fill="black"/>
<path d="M19.5424 78.4426H16.5974V81.3876H19.5424V78.4426Z" fill="black"/>
<path d="M19.5424 81.3875H16.5974V84.3325H19.5424V81.3875Z" fill="black"/>
<path d="M19.5424 84.3325H16.5974V87.2775H19.5424V84.3325Z" fill="black"/>
<path d="M22.4875 78.4426H19.5425V81.3876H22.4875V78.4426Z" fill="black"/>
<path d="M22.4875 81.3875H19.5425V84.3325H22.4875V81.3875Z" fill="black"/>
<path d="M22.4875 84.3325H19.5425V87.2775H22.4875V84.3325Z" fill="black"/>
</svg>
