<svg width="100" height="100" viewBox="0 0 100 100" fill="none" xmlns="http://www.w3.org/2000/svg">
<rect width="100" height="100" rx="6" fill="#333333"/>
<rect width="93" height="93" transform="translate(3.49988 3.49988)" fill="#333333"/>
<rect width="88.35" height="88.35" transform="translate(6.28979 6.28979)" fill="#333333"/>
<rect width="88.35" height="88.35" transform="translate(6.28979 6.28979)" fill="#333333"/>
<path d="M10.7075 34.2675H7.76245V37.2125H10.7075V34.2675Z" fill="white"/>
<path d="M10.7075 37.2124H7.76245V40.1574H10.7075V37.2124Z" fill="white"/>
<path d="M10.7075 48.9924H7.76245V51.9374H10.7075V48.9924Z" fill="white"/>
<path d="M10.7075 51.9375H7.76245V54.8825H10.7075V51.9375Z" fill="white"/>
<path d="M10.7075 57.8274H7.76245V60.7724H10.7075V57.8274Z" fill="white"/>
<path d="M10.7075 60.7725H7.76245V63.7175H10.7075V60.7725Z" fill="white"/>
<path d="M10.7075 63.7173H7.76245V66.6623H10.7075V63.7173Z" fill="white"/>
<path d="M13.6524 40.1575H10.7074V43.1025H13.6524V40.1575Z" fill="white"/>
<path d="M13.6524 43.1024H10.7074V46.0474H13.6524V43.1024Z" fill="white"/>
<path d="M13.6524 46.0475H10.7074V48.9925H13.6524V46.0475Z" fill="white"/>
<path d="M13.6524 48.9924H10.7074V51.9374H13.6524V48.9924Z" fill="white"/>
<path d="M13.6524 51.9375H10.7074V54.8825H13.6524V51.9375Z" fill="white"/>
<path d="M13.6524 54.8824H10.7074V57.8274H13.6524V54.8824Z" fill="white"/>
<path d="M13.6524 66.6625H10.7074V69.6075H13.6524V66.6625Z" fill="white"/>
<path d="M16.5975 31.3225H13.6525V34.2675H16.5975V31.3225Z" fill="white"/>
<path d="M16.5975 34.2675H13.6525V37.2125H16.5975V34.2675Z" fill="white"/>
<path d="M16.5975 37.2124H13.6525V40.1574H16.5975V37.2124Z" fill="white"/>
<path d="M16.5975 40.1575H13.6525V43.1025H16.5975V40.1575Z" fill="white"/>
<path d="M16.5975 43.1024H13.6525V46.0474H16.5975V43.1024Z" fill="white"/>
<path d="M16.5975 51.9375H13.6525V54.8825H16.5975V51.9375Z" fill="white"/>
<path d="M16.5975 54.8824H13.6525V57.8274H16.5975V54.8824Z" fill="white"/>
<path d="M16.5975 57.8274H13.6525V60.7724H16.5975V57.8274Z" fill="white"/>
<path d="M16.5975 60.7725H13.6525V63.7175H16.5975V60.7725Z" fill="white"/>
<path d="M16.5975 63.7173H13.6525V66.6623H16.5975V63.7173Z" fill="white"/>
<path d="M16.5975 66.6625H13.6525V69.6075H16.5975V66.6625Z" fill="white"/>
<path d="M19.5424 40.1575H16.5974V43.1025H19.5424V40.1575Z" fill="white"/>
<path d="M19.5424 51.9375H16.5974V54.8825H19.5424V51.9375Z" fill="white"/>
<path d="M19.5424 60.7725H16.5974V63.7175H19.5424V60.7725Z" fill="white"/>
<path d="M19.5424 63.7173H16.5974V66.6623H19.5424V63.7173Z" fill="white"/>
<path d="M22.4875 31.3225H19.5425V34.2675H22.4875V31.3225Z" fill="white"/>
<path d="M22.4875 34.2675H19.5425V37.2125H22.4875V34.2675Z" fill="white"/>
<path d="M22.4875 37.2124H19.5425V40.1574H22.4875V37.2124Z" fill="white"/>
<path d="M22.4875 46.0475H19.5425V48.9925H22.4875V46.0475Z" fill="white"/>
<path d="M22.4875 54.8824H19.5425V57.8274H22.4875V54.8824Z" fill="white"/>
<path d="M22.4875 66.6625H19.5425V69.6075H22.4875V66.6625Z" fill="white"/>
<path d="M25.4324 31.3225H22.4874V34.2675H25.4324V31.3225Z" fill="white"/>
<path d="M25.4324 43.1024H22.4874V46.0474H25.4324V43.1024Z" fill="white"/>
<path d="M25.4324 46.0475H22.4874V48.9925H25.4324V46.0475Z" fill="white"/>
<path d="M25.4324 54.8824H22.4874V57.8274H25.4324V54.8824Z" fill="white"/>
<path d="M25.4324 60.7725H22.4874V63.7175H25.4324V60.7725Z" fill="white"/>
<path d="M25.4324 63.7173H22.4874V66.6623H25.4324V63.7173Z" fill="white"/>
<path d="M28.3775 31.3225H25.4325V34.2675H28.3775V31.3225Z" fill="white"/>
<path d="M28.3775 37.2124H25.4325V40.1574H28.3775V37.2124Z" fill="white"/>
<path d="M28.3775 43.1024H25.4325V46.0474H28.3775V43.1024Z" fill="white"/>
<path d="M28.3775 48.9924H25.4325V51.9374H28.3775V48.9924Z" fill="white"/>
<path d="M28.3775 54.8824H25.4325V57.8274H28.3775V54.8824Z" fill="white"/>
<path d="M28.3775 60.7725H25.4325V63.7175H28.3775V60.7725Z" fill="white"/>
<path d="M28.3775 66.6625H25.4325V69.6075H28.3775V66.6625Z" fill="white"/>
<path d="M31.3224 34.2675H28.3774V37.2125H31.3224V34.2675Z" fill="white"/>
<path d="M31.3224 37.2124H28.3774V40.1574H31.3224V37.2124Z" fill="white"/>
<path d="M31.3224 43.1024H28.3774V46.0474H31.3224V43.1024Z" fill="white"/>
<path d="M31.3224 48.9924H28.3774V51.9374H31.3224V48.9924Z" fill="white"/>
<path d="M31.3224 57.8274H28.3774V60.7724H31.3224V57.8274Z" fill="white"/>
<path d="M31.3224 60.7725H28.3774V63.7175H31.3224V60.7725Z" fill="white"/>
<path d="M31.3224 66.6625H28.3774V69.6075H31.3224V66.6625Z" fill="white"/>
<path d="M34.2675 10.7074H31.3225V13.6524H34.2675V10.7074Z" fill="white"/>
<path d="M34.2675 19.5425H31.3225V22.4875H34.2675V19.5425Z" fill="white"/>
<path d="M34.2675 25.4325H31.3225V28.3775H34.2675V25.4325Z" fill="white"/>
<path d="M34.2675 31.3225H31.3225V34.2675H34.2675V31.3225Z" fill="white"/>
<path d="M34.2675 37.2124H31.3225V40.1574H34.2675V37.2124Z" fill="white"/>
<path d="M34.2675 46.0475H31.3225V48.9925H34.2675V46.0475Z" fill="white"/>
<path d="M34.2675 48.9924H31.3225V51.9374H34.2675V48.9924Z" fill="white"/>
<path d="M34.2675 60.7725H31.3225V63.7175H34.2675V60.7725Z" fill="white"/>
<path d="M34.2675 63.7173H31.3225V66.6623H34.2675V63.7173Z" fill="white"/>
<path d="M34.2675 66.6625H31.3225V69.6075H34.2675V66.6625Z" fill="white"/>
<path d="M34.2675 69.6074H31.3225V72.5524H34.2675V69.6074Z" fill="white"/>
<path d="M34.2675 75.4974H31.3225V78.4424H34.2675V75.4974Z" fill="white"/>
<path d="M34.2675 78.4425H31.3225V81.3875H34.2675V78.4425Z" fill="white"/>
<path d="M34.2675 84.3324H31.3225V87.2774H34.2675V84.3324Z" fill="white"/>
<path d="M37.2125 13.6525H34.2675V16.5975H37.2125V13.6525Z" fill="white"/>
<path d="M37.2125 19.5425H34.2675V22.4875H37.2125V19.5425Z" fill="white"/>
<path d="M37.2125 22.4874H34.2675V25.4324H37.2125V22.4874Z" fill="white"/>
<path d="M37.2125 28.3774H34.2675V31.3224H37.2125V28.3774Z" fill="white"/>
<path d="M37.2125 34.2675H34.2675V37.2125H37.2125V34.2675Z" fill="white"/>
<path d="M37.2125 37.2124H34.2675V40.1574H37.2125V37.2124Z" fill="white"/>
<path d="M37.2125 46.0475H34.2675V48.9925H37.2125V46.0475Z" fill="white"/>
<path d="M37.2125 48.9924H34.2675V51.9374H37.2125V48.9924Z" fill="white"/>
<path d="M37.2125 63.7173H34.2675V66.6623H37.2125V63.7173Z" fill="white"/>
<path d="M37.2125 66.6625H34.2675V69.6075H37.2125V66.6625Z" fill="white"/>
<path d="M37.2125 69.6074H34.2675V72.5524H37.2125V69.6074Z" fill="white"/>
<path d="M37.2125 72.5525H34.2675V75.4975H37.2125V72.5525Z" fill="white"/>
<path d="M37.2125 78.4425H34.2675V81.3875H37.2125V78.4425Z" fill="white"/>
<path d="M37.2125 87.2775H34.2675V90.2225H37.2125V87.2775Z" fill="white"/>
<path d="M37.2125 90.2224H34.2675V93.1674H37.2125V90.2224Z" fill="white"/>
<path d="M40.1574 7.76245H37.2124V10.7075H40.1574V7.76245Z" fill="white"/>
<path d="M40.1574 10.7074H37.2124V13.6524H40.1574V10.7074Z" fill="white"/>
<path d="M40.1574 19.5425H37.2124V22.4875H40.1574V19.5425Z" fill="white"/>
<path d="M40.1574 25.4325H37.2124V28.3775H40.1574V25.4325Z" fill="white"/>
<path d="M40.1574 31.3225H37.2124V34.2675H40.1574V31.3225Z" fill="white"/>
<path d="M40.1574 34.2675H37.2124V37.2125H40.1574V34.2675Z" fill="white"/>
<path d="M40.1574 40.1575H37.2124V43.1025H40.1574V40.1575Z" fill="white"/>
<path d="M40.1574 43.1024H37.2124V46.0474H40.1574V43.1024Z" fill="white"/>
<path d="M40.1574 46.0475H37.2124V48.9925H40.1574V46.0475Z" fill="white"/>
<path d="M40.1574 48.9924H37.2124V51.9374H40.1574V48.9924Z" fill="white"/>
<path d="M40.1574 51.9375H37.2124V54.8825H40.1574V51.9375Z" fill="white"/>
<path d="M40.1574 57.8274H37.2124V60.7724H40.1574V57.8274Z" fill="white"/>
<path d="M40.1574 69.6074H37.2124V72.5524H40.1574V69.6074Z" fill="white"/>
<path d="M40.1574 75.4974H37.2124V78.4424H40.1574V75.4974Z" fill="white"/>
<path d="M40.1574 81.3875H37.2124V84.3325H40.1574V81.3875Z" fill="white"/>
<path d="M40.1574 84.3324H37.2124V87.2774H40.1574V84.3324Z" fill="white"/>
<path d="M40.1574 90.2224H37.2124V93.1674H40.1574V90.2224Z" fill="white"/>
<path d="M43.1025 10.7074H40.1575V13.6524H43.1025V10.7074Z" fill="white"/>
<path d="M43.1025 13.6525H40.1575V16.5975H43.1025V13.6525Z" fill="white"/>
<path d="M43.1025 16.5974H40.1575V19.5424H43.1025V16.5974Z" fill="white"/>
<path d="M43.1025 19.5425H40.1575V22.4875H43.1025V19.5425Z" fill="white"/>
<path d="M43.1025 22.4874H40.1575V25.4324H43.1025V22.4874Z" fill="white"/>
<path d="M43.1025 31.3225H40.1575V34.2675H43.1025V31.3225Z" fill="white"/>
<path d="M43.1025 34.2675H40.1575V37.2125H43.1025V34.2675Z" fill="white"/>
<path d="M43.1025 43.1024H40.1575V46.0474H43.1025V43.1024Z" fill="white"/>
<path d="M43.1025 46.0475H40.1575V48.9925H43.1025V46.0475Z" fill="white"/>
<path d="M43.1025 51.9375H40.1575V54.8825H43.1025V51.9375Z" fill="white"/>
<path d="M43.1025 57.8274H40.1575V60.7724H43.1025V57.8274Z" fill="white"/>
<path d="M43.1025 60.7725H40.1575V63.7175H43.1025V60.7725Z" fill="white"/>
<path d="M43.1025 66.6625H40.1575V69.6075H43.1025V66.6625Z" fill="white"/>
<path d="M43.1025 69.6074H40.1575V72.5524H43.1025V69.6074Z" fill="white"/>
<path d="M43.1025 78.4425H40.1575V81.3875H43.1025V78.4425Z" fill="white"/>
<path d="M43.1025 81.3875H40.1575V84.3325H43.1025V81.3875Z" fill="white"/>
<path d="M43.1025 87.2775H40.1575V90.2225H43.1025V87.2775Z" fill="white"/>
<path d="M43.1025 90.2224H40.1575V93.1674H43.1025V90.2224Z" fill="white"/>
<path d="M46.0474 19.5425H43.1024V22.4875H46.0474V19.5425Z" fill="white"/>
<path d="M46.0474 25.4325H43.1024V28.3775H46.0474V25.4325Z" fill="white"/>
<path d="M46.0474 31.3225H43.1024V34.2675H46.0474V31.3225Z" fill="white"/>
<path d="M46.0474 46.0475H43.1024V48.9925H46.0474V46.0475Z" fill="white"/>
<path d="M46.0474 48.9924H43.1024V51.9374H46.0474V48.9924Z" fill="white"/>
<path d="M46.0474 51.9375H43.1024V54.8825H46.0474V51.9375Z" fill="white"/>
<path d="M46.0474 54.8824H43.1024V57.8274H46.0474V54.8824Z" fill="white"/>
<path d="M46.0474 57.8274H43.1024V60.7724H46.0474V57.8274Z" fill="white"/>
<path d="M46.0473 63.7173H43.1023V66.6623H46.0473V63.7173Z" fill="white"/>
<path d="M46.0474 66.6625H43.1024V69.6075H46.0474V66.6625Z" fill="white"/>
<path d="M46.0474 75.4974H43.1024V78.4424H46.0474V75.4974Z" fill="white"/>
<path d="M46.0474 81.3875H43.1024V84.3325H46.0474V81.3875Z" fill="white"/>
<path d="M46.0474 90.2224H43.1024V93.1674H46.0474V90.2224Z" fill="white"/>
<path d="M48.9925 7.76245H46.0475V10.7075H48.9925V7.76245Z" fill="white"/>
<path d="M48.9925 10.7074H46.0475V13.6524H48.9925V10.7074Z" fill="white"/>
<path d="M48.9925 22.4874H46.0475V25.4324H48.9925V22.4874Z" fill="white"/>
<path d="M48.9925 28.3774H46.0475V31.3224H48.9925V28.3774Z" fill="white"/>
<path d="M48.9925 31.3225H46.0475V34.2675H48.9925V31.3225Z" fill="white"/>
<path d="M48.9925 54.8824H46.0475V57.8274H48.9925V54.8824Z" fill="white"/>
<path d="M48.9925 57.8274H46.0475V60.7724H48.9925V57.8274Z" fill="white"/>
<path d="M48.9925 72.5525H46.0475V75.4975H48.9925V72.5525Z" fill="white"/>
<path d="M48.9925 78.4425H46.0475V81.3875H48.9925V78.4425Z" fill="white"/>
<path d="M48.9925 84.3324H46.0475V87.2774H48.9925V84.3324Z" fill="white"/>
<path d="M48.9925 90.2224H46.0475V93.1674H48.9925V90.2224Z" fill="white"/>
<path d="M51.9374 7.76245H48.9924V10.7075H51.9374V7.76245Z" fill="white"/>
<path d="M51.9374 13.6525H48.9924V16.5975H51.9374V13.6525Z" fill="white"/>
<path d="M51.9374 19.5425H48.9924V22.4875H51.9374V19.5425Z" fill="white"/>
<path d="M51.9374 22.4874H48.9924V25.4324H51.9374V22.4874Z" fill="white"/>
<path d="M51.9374 25.4325H48.9924V28.3775H51.9374V25.4325Z" fill="white"/>
<path d="M51.9374 28.3774H48.9924V31.3224H51.9374V28.3774Z" fill="white"/>
<path d="M51.9374 31.3225H48.9924V34.2675H51.9374V31.3225Z" fill="white"/>
<path d="M51.9374 46.0475H48.9924V48.9925H51.9374V46.0475Z" fill="white"/>
<path d="M51.9374 48.9924H48.9924V51.9374H51.9374V48.9924Z" fill="white"/>
<path d="M51.9374 51.9375H48.9924V54.8825H51.9374V51.9375Z" fill="white"/>
<path d="M51.9374 54.8824H48.9924V57.8274H51.9374V54.8824Z" fill="white"/>
<path d="M51.9374 60.7725H48.9924V63.7175H51.9374V60.7725Z" fill="white"/>
<path d="M51.9374 66.6625H48.9924V69.6075H51.9374V66.6625Z" fill="white"/>
<path d="M51.9374 69.6074H48.9924V72.5524H51.9374V69.6074Z" fill="white"/>
<path d="M51.9374 72.5525H48.9924V75.4975H51.9374V72.5525Z" fill="white"/>
<path d="M51.9374 78.4425H48.9924V81.3875H51.9374V78.4425Z" fill="white"/>
<path d="M51.9374 87.2775H48.9924V90.2225H51.9374V87.2775Z" fill="white"/>
<path d="M51.9374 90.2224H48.9924V93.1674H51.9374V90.2224Z" fill="white"/>
<path d="M54.8825 10.7074H51.9375V13.6524H54.8825V10.7074Z" fill="white"/>
<path d="M54.8825 19.5425H51.9375V22.4875H54.8825V19.5425Z" fill="white"/>
<path d="M54.8825 22.4874H51.9375V25.4324H54.8825V22.4874Z" fill="white"/>
<path d="M54.8825 28.3774H51.9375V31.3224H54.8825V28.3774Z" fill="white"/>
<path d="M54.8825 31.3225H51.9375V34.2675H54.8825V31.3225Z" fill="white"/>
<path d="M54.8825 34.2675H51.9375V37.2125H54.8825V34.2675Z" fill="white"/>
<path d="M54.8825 37.2124H51.9375V40.1574H54.8825V37.2124Z" fill="white"/>
<path d="M54.8825 40.1575H51.9375V43.1025H54.8825V40.1575Z" fill="white"/>
<path d="M54.8825 48.9924H51.9375V51.9374H54.8825V48.9924Z" fill="white"/>
<path d="M54.8825 54.8824H51.9375V57.8274H54.8825V54.8824Z" fill="white"/>
<path d="M54.8825 66.6625H51.9375V69.6075H54.8825V66.6625Z" fill="white"/>
<path d="M54.8825 75.4974H51.9375V78.4424H54.8825V75.4974Z" fill="white"/>
<path d="M54.8825 81.3875H51.9375V84.3325H54.8825V81.3875Z" fill="white"/>
<path d="M54.8825 90.2224H51.9375V93.1674H54.8825V90.2224Z" fill="white"/>
<path d="M57.8274 10.7074H54.8824V13.6524H57.8274V10.7074Z" fill="white"/>
<path d="M57.8274 13.6525H54.8824V16.5975H57.8274V13.6525Z" fill="white"/>
<path d="M57.8274 16.5974H54.8824V19.5424H57.8274V16.5974Z" fill="white"/>
<path d="M57.8274 22.4874H54.8824V25.4324H57.8274V22.4874Z" fill="white"/>
<path d="M57.8274 25.4325H54.8824V28.3775H57.8274V25.4325Z" fill="white"/>
<path d="M57.8274 31.3225H54.8824V34.2675H57.8274V31.3225Z" fill="white"/>
<path d="M57.8274 34.2675H54.8824V37.2125H57.8274V34.2675Z" fill="white"/>
<path d="M57.8274 37.2124H54.8824V40.1574H57.8274V37.2124Z" fill="white"/>
<path d="M57.8274 40.1575H54.8824V43.1025H57.8274V40.1575Z" fill="white"/>
<path d="M57.8274 43.1024H54.8824V46.0474H57.8274V43.1024Z" fill="white"/>
<path d="M57.8274 51.9375H54.8824V54.8825H57.8274V51.9375Z" fill="white"/>
<path d="M57.8274 54.8824H54.8824V57.8274H57.8274V54.8824Z" fill="white"/>
<path d="M57.8274 69.6074H54.8824V72.5524H57.8274V69.6074Z" fill="white"/>
<path d="M57.8274 87.2775H54.8824V90.2225H57.8274V87.2775Z" fill="white"/>
<path d="M57.8274 90.2224H54.8824V93.1674H57.8274V90.2224Z" fill="white"/>
<path d="M60.7725 7.76245H57.8275V10.7075H60.7725V7.76245Z" fill="white"/>
<path d="M60.7725 19.5425H57.8275V22.4875H60.7725V19.5425Z" fill="white"/>
<path d="M60.7725 22.4874H57.8275V25.4324H60.7725V22.4874Z" fill="white"/>
<path d="M60.7725 28.3774H57.8275V31.3224H60.7725V28.3774Z" fill="white"/>
<path d="M60.7725 37.2124H57.8275V40.1574H60.7725V37.2124Z" fill="white"/>
<path d="M60.7725 46.0475H57.8275V48.9925H60.7725V46.0475Z" fill="white"/>
<path d="M60.7725 48.9924H57.8275V51.9374H60.7725V48.9924Z" fill="white"/>
<path d="M60.7725 60.7725H57.8275V63.7175H60.7725V60.7725Z" fill="white"/>
<path d="M60.7725 66.6625H57.8275V69.6075H60.7725V66.6625Z" fill="white"/>
<path d="M60.7725 69.6074H57.8275V72.5524H60.7725V69.6074Z" fill="white"/>
<path d="M60.7725 75.4974H57.8275V78.4424H60.7725V75.4974Z" fill="white"/>
<path d="M60.7725 78.4425H57.8275V81.3875H60.7725V78.4425Z" fill="white"/>
<path d="M60.7725 90.2224H57.8275V93.1674H60.7725V90.2224Z" fill="white"/>
<path d="M63.7175 16.5974H60.7725V19.5424H63.7175V16.5974Z" fill="white"/>
<path d="M63.7175 19.5425H60.7725V22.4875H63.7175V19.5425Z" fill="white"/>
<path d="M63.7175 22.4874H60.7725V25.4324H63.7175V22.4874Z" fill="white"/>
<path d="M63.7175 25.4325H60.7725V28.3775H63.7175V25.4325Z" fill="white"/>
<path d="M63.7175 28.3774H60.7725V31.3224H63.7175V28.3774Z" fill="white"/>
<path d="M63.7175 46.0475H60.7725V48.9925H63.7175V46.0475Z" fill="white"/>
<path d="M63.7175 51.9375H60.7725V54.8825H63.7175V51.9375Z" fill="white"/>
<path d="M63.7175 66.6625H60.7725V69.6075H63.7175V66.6625Z" fill="white"/>
<path d="M63.7175 78.4425H60.7725V81.3875H63.7175V78.4425Z" fill="white"/>
<path d="M63.7175 84.3324H60.7725V87.2774H63.7175V84.3324Z" fill="white"/>
<path d="M63.7175 90.2224H60.7725V93.1674H63.7175V90.2224Z" fill="white"/>
<path d="M66.6623 19.5425H63.7173V22.4875H66.6623V19.5425Z" fill="white"/>
<path d="M66.6623 28.3774H63.7173V31.3224H66.6623V28.3774Z" fill="white"/>
<path d="M66.6623 40.1575H63.7173V43.1025H66.6623V40.1575Z" fill="white"/>
<path d="M66.6623 43.1027H63.7173V46.0477H66.6623V43.1027Z" fill="white"/>
<path d="M66.6623 46.0475H63.7173V48.9925H66.6623V46.0475Z" fill="white"/>
<path d="M66.6623 51.9373H63.7173V54.8823H66.6623V51.9373Z" fill="white"/>
<path d="M66.6623 54.8824H63.7173V57.8274H66.6623V54.8824Z" fill="white"/>
<path d="M66.6623 57.8275H63.7173V60.7725H66.6623V57.8275Z" fill="white"/>
<path d="M66.6623 66.6625H63.7173V69.6075H66.6623V66.6625Z" fill="white"/>
<path d="M66.6623 81.3875H63.7173V84.3325H66.6623V81.3875Z" fill="white"/>
<path d="M66.6623 87.2775H63.7173V90.2225H66.6623V87.2775Z" fill="white"/>
<path d="M69.6075 7.76245H66.6625V10.7075H69.6075V7.76245Z" fill="white"/>
<path d="M69.6075 10.7074H66.6625V13.6524H69.6075V10.7074Z" fill="white"/>
<path d="M69.6075 19.5425H66.6625V22.4875H69.6075V19.5425Z" fill="white"/>
<path d="M69.6075 22.4874H66.6625V25.4324H69.6075V22.4874Z" fill="white"/>
<path d="M69.6075 25.4325H66.6625V28.3775H69.6075V25.4325Z" fill="white"/>
<path d="M69.6075 37.2124H66.6625V40.1574H69.6075V37.2124Z" fill="white"/>
<path d="M69.6075 40.1575H66.6625V43.1025H69.6075V40.1575Z" fill="white"/>
<path d="M69.6075 43.1024H66.6625V46.0474H69.6075V43.1024Z" fill="white"/>
<path d="M69.6075 46.0475H66.6625V48.9925H69.6075V46.0475Z" fill="white"/>
<path d="M69.6075 57.8274H66.6625V60.7724H69.6075V57.8274Z" fill="white"/>
<path d="M69.6075 60.7725H66.6625V63.7175H69.6075V60.7725Z" fill="white"/>
<path d="M69.6075 66.6625H66.6625V69.6075H69.6075V66.6625Z" fill="white"/>
<path d="M69.6075 69.6074H66.6625V72.5524H69.6075V69.6074Z" fill="white"/>
<path d="M69.6075 72.5525H66.6625V75.4975H69.6075V72.5525Z" fill="white"/>
<path d="M69.6075 75.4974H66.6625V78.4424H69.6075V75.4974Z" fill="white"/>
<path d="M69.6075 78.4425H66.6625V81.3875H69.6075V78.4425Z" fill="white"/>
<path d="M69.6075 81.3875H66.6625V84.3325H69.6075V81.3875Z" fill="white"/>
<path d="M69.6075 84.3324H66.6625V87.2774H69.6075V84.3324Z" fill="white"/>
<path d="M69.6075 90.2224H66.6625V93.1674H69.6075V90.2224Z" fill="white"/>
<path d="M72.5524 31.3225H69.6074V34.2675H72.5524V31.3225Z" fill="white"/>
<path d="M72.5524 37.2124H69.6074V40.1574H72.5524V37.2124Z" fill="white"/>
<path d="M72.5524 43.1024H69.6074V46.0474H72.5524V43.1024Z" fill="white"/>
<path d="M72.5524 46.0475H69.6074V48.9925H72.5524V46.0475Z" fill="white"/>
<path d="M72.5524 48.9924H69.6074V51.9374H72.5524V48.9924Z" fill="white"/>
<path d="M72.5524 51.9375H69.6074V54.8825H72.5524V51.9375Z" fill="white"/>
<path d="M72.5524 54.8824H69.6074V57.8274H72.5524V54.8824Z" fill="white"/>
<path d="M72.5524 60.7725H69.6074V63.7175H72.5524V60.7725Z" fill="white"/>
<path d="M72.5523 63.7173H69.6073V66.6623H72.5523V63.7173Z" fill="white"/>
<path d="M72.5524 66.6625H69.6074V69.6075H72.5524V66.6625Z" fill="white"/>
<path d="M72.5524 78.4425H69.6074V81.3875H72.5524V78.4425Z" fill="white"/>
<path d="M72.5524 84.3324H69.6074V87.2774H72.5524V84.3324Z" fill="white"/>
<path d="M72.5524 90.2224H69.6074V93.1674H72.5524V90.2224Z" fill="white"/>
<path d="M75.4975 34.2675H72.5525V37.2125H75.4975V34.2675Z" fill="white"/>
<path d="M75.4975 37.2124H72.5525V40.1574H75.4975V37.2124Z" fill="white"/>
<path d="M75.4975 40.1575H72.5525V43.1025H75.4975V40.1575Z" fill="white"/>
<path d="M75.4975 43.1024H72.5525V46.0474H75.4975V43.1024Z" fill="white"/>
<path d="M75.4975 51.9375H72.5525V54.8825H75.4975V51.9375Z" fill="white"/>
<path d="M75.4975 57.8274H72.5525V60.7724H75.4975V57.8274Z" fill="white"/>
<path d="M75.4975 63.7173H72.5525V66.6623H75.4975V63.7173Z" fill="white"/>
<path d="M75.4975 66.6625H72.5525V69.6075H75.4975V66.6625Z" fill="white"/>
<path d="M75.4975 72.5525H72.5525V75.4975H75.4975V72.5525Z" fill="white"/>
<path d="M75.4975 78.4425H72.5525V81.3875H75.4975V78.4425Z" fill="white"/>
<path d="M75.4975 90.2224H72.5525V93.1674H75.4975V90.2224Z" fill="white"/>
<path d="M78.4424 40.1575H75.4974V43.1025H78.4424V40.1575Z" fill="white"/>
<path d="M78.4424 43.1024H75.4974V46.0474H78.4424V43.1024Z" fill="white"/>
<path d="M78.4424 54.8824H75.4974V57.8274H78.4424V54.8824Z" fill="white"/>
<path d="M78.4424 57.8274H75.4974V60.7724H78.4424V57.8274Z" fill="white"/>
<path d="M78.4424 60.7725H75.4974V63.7175H78.4424V60.7725Z" fill="white"/>
<path d="M78.4423 63.7173H75.4973V66.6623H78.4423V63.7173Z" fill="white"/>
<path d="M78.4424 66.6625H75.4974V69.6075H78.4424V66.6625Z" fill="white"/>
<path d="M78.4424 78.4425H75.4974V81.3875H78.4424V78.4425Z" fill="white"/>
<path d="M78.4424 81.3875H75.4974V84.3325H78.4424V81.3875Z" fill="white"/>
<path d="M81.3876 31.3225H78.4426V34.2675H81.3876V31.3225Z" fill="white"/>
<path d="M81.3876 40.1575H78.4426V43.1025H81.3876V40.1575Z" fill="white"/>
<path d="M81.3876 46.0476H78.4426V48.9926H81.3876V46.0476Z" fill="white"/>
<path d="M81.3876 48.9926H78.4426V51.9376H81.3876V48.9926Z" fill="white"/>
<path d="M81.3876 60.7725H78.4426V63.7175H81.3876V60.7725Z" fill="white"/>
<path d="M81.3875 63.7173H78.4425V66.6623H81.3875V63.7173Z" fill="white"/>
<path d="M81.3876 66.6625H78.4426V69.6075H81.3876V66.6625Z" fill="white"/>
<path d="M81.3876 69.6075H78.4426V72.5525H81.3876V69.6075Z" fill="white"/>
<path d="M81.3876 72.5525H78.4426V75.4975H81.3876V72.5525Z" fill="white"/>
<path d="M81.3876 75.4976H78.4426V78.4426H81.3876V75.4976Z" fill="white"/>
<path d="M81.3876 78.4426H78.4426V81.3876H81.3876V78.4426Z" fill="white"/>
<path d="M81.3876 87.2775H78.4426V90.2225H81.3876V87.2775Z" fill="white"/>
<path d="M81.3876 90.2225H78.4426V93.1675H81.3876V90.2225Z" fill="white"/>
<path d="M84.3325 40.1575H81.3875V43.1025H84.3325V40.1575Z" fill="white"/>
<path d="M84.3325 46.0475H81.3875V48.9925H84.3325V46.0475Z" fill="white"/>
<path d="M84.3325 48.9924H81.3875V51.9374H84.3325V48.9924Z" fill="white"/>
<path d="M84.3325 54.8824H81.3875V57.8274H84.3325V54.8824Z" fill="white"/>
<path d="M84.3325 57.8274H81.3875V60.7724H84.3325V57.8274Z" fill="white"/>
<path d="M84.3325 75.4974H81.3875V78.4424H84.3325V75.4974Z" fill="white"/>
<path d="M84.3325 84.3324H81.3875V87.2774H84.3325V84.3324Z" fill="white"/>
<path d="M84.3325 87.2775H81.3875V90.2225H84.3325V87.2775Z" fill="white"/>
<path d="M87.2774 37.2124H84.3324V40.1574H87.2774V37.2124Z" fill="white"/>
<path d="M87.2774 40.1575H84.3324V43.1025H87.2774V40.1575Z" fill="white"/>
<path d="M87.2774 43.1024H84.3324V46.0474H87.2774V43.1024Z" fill="white"/>
<path d="M87.2774 46.0475H84.3324V48.9925H87.2774V46.0475Z" fill="white"/>
<path d="M87.2774 48.9924H84.3324V51.9374H87.2774V48.9924Z" fill="white"/>
<path d="M87.2774 54.8824H84.3324V57.8274H87.2774V54.8824Z" fill="white"/>
<path d="M87.2774 60.7725H84.3324V63.7175H87.2774V60.7725Z" fill="white"/>
<path d="M87.2775 63.7173H84.3325V66.6623H87.2775V63.7173Z" fill="white"/>
<path d="M87.2774 66.6625H84.3324V69.6075H87.2774V66.6625Z" fill="white"/>
<path d="M87.2774 69.6074H84.3324V72.5524H87.2774V69.6074Z" fill="white"/>
<path d="M87.2774 81.3875H84.3324V84.3325H87.2774V81.3875Z" fill="white"/>
<path d="M87.2774 87.2775H84.3324V90.2225H87.2774V87.2775Z" fill="white"/>
<path d="M87.2774 90.2224H84.3324V93.1674H87.2774V90.2224Z" fill="white"/>
<path d="M90.2225 31.3225H87.2775V34.2675H90.2225V31.3225Z" fill="white"/>
<path d="M90.2225 34.2675H87.2775V37.2125H90.2225V34.2675Z" fill="white"/>
<path d="M90.2225 48.9924H87.2775V51.9374H90.2225V48.9924Z" fill="white"/>
<path d="M90.2225 57.8274H87.2775V60.7724H90.2225V57.8274Z" fill="white"/>
<path d="M90.2225 72.5525H87.2775V75.4975H90.2225V72.5525Z" fill="white"/>
<path d="M90.2225 75.4974H87.2775V78.4424H90.2225V75.4974Z" fill="white"/>
<path d="M90.2225 81.3875H87.2775V84.3325H90.2225V81.3875Z" fill="white"/>
<path d="M90.2225 87.2775H87.2775V90.2225H90.2225V87.2775Z" fill="white"/>
<path d="M90.2225 90.2224H87.2775V93.1674H90.2225V90.2224Z" fill="white"/>
<path d="M93.1674 34.2675H90.2224V37.2125H93.1674V34.2675Z" fill="white"/>
<path d="M93.1674 37.2124H90.2224V40.1574H93.1674V37.2124Z" fill="white"/>
<path d="M93.1674 40.1575H90.2224V43.1025H93.1674V40.1575Z" fill="white"/>
<path d="M93.1674 46.0475H90.2224V48.9925H93.1674V46.0475Z" fill="white"/>
<path d="M93.1674 51.9375H90.2224V54.8825H93.1674V51.9375Z" fill="white"/>
<path d="M93.1674 57.8274H90.2224V60.7724H93.1674V57.8274Z" fill="white"/>
<path d="M93.1674 66.6625H90.2224V69.6075H93.1674V66.6625Z" fill="white"/>
<path d="M93.1674 72.5525H90.2224V75.4975H93.1674V72.5525Z" fill="white"/>
<path d="M93.1674 78.4425H90.2224V81.3875H93.1674V78.4425Z" fill="white"/>
<path d="M93.1674 81.3875H90.2224V84.3325H93.1674V81.3875Z" fill="white"/>
<path d="M93.1674 84.3324H90.2224V87.2774H93.1674V84.3324Z" fill="white"/>
<path d="M93.1674 87.2775H90.2224V90.2225H93.1674V87.2775Z" fill="white"/>
<path d="M10.7075 7.76245H7.76245V10.7075H10.7075V7.76245Z" fill="white"/>
<path d="M10.7075 10.7074H7.76245V13.6524H10.7075V10.7074Z" fill="white"/>
<path d="M10.7075 13.6525H7.76245V16.5975H10.7075V13.6525Z" fill="white"/>
<path d="M10.7075 16.5974H7.76245V19.5424H10.7075V16.5974Z" fill="white"/>
<path d="M10.7075 19.5425H7.76245V22.4875H10.7075V19.5425Z" fill="white"/>
<path d="M10.7075 22.4874H7.76245V25.4324H10.7075V22.4874Z" fill="white"/>
<path d="M10.7075 25.4325H7.76245V28.3775H10.7075V25.4325Z" fill="white"/>
<path d="M13.6524 7.76245H10.7074V10.7075H13.6524V7.76245Z" fill="white"/>
<path d="M13.6524 25.4325H10.7074V28.3775H13.6524V25.4325Z" fill="white"/>
<path d="M16.5975 7.76245H13.6525V10.7075H16.5975V7.76245Z" fill="white"/>
<path d="M16.5975 25.4325H13.6525V28.3775H16.5975V25.4325Z" fill="white"/>
<path d="M19.5424 7.76245H16.5974V10.7075H19.5424V7.76245Z" fill="white"/>
<path d="M19.5424 25.4325H16.5974V28.3775H19.5424V25.4325Z" fill="white"/>
<path d="M22.4875 7.76245H19.5425V10.7075H22.4875V7.76245Z" fill="white"/>
<path d="M22.4875 25.4325H19.5425V28.3775H22.4875V25.4325Z" fill="white"/>
<path d="M25.4324 7.76245H22.4874V10.7075H25.4324V7.76245Z" fill="white"/>
<path d="M25.4324 25.4325H22.4874V28.3775H25.4324V25.4325Z" fill="white"/>
<path d="M28.3775 7.76245H25.4325V10.7075H28.3775V7.76245Z" fill="white"/>
<path d="M28.3775 10.7074H25.4325V13.6524H28.3775V10.7074Z" fill="white"/>
<path d="M28.3775 13.6525H25.4325V16.5975H28.3775V13.6525Z" fill="white"/>
<path d="M28.3775 16.5974H25.4325V19.5424H28.3775V16.5974Z" fill="white"/>
<path d="M28.3775 19.5425H25.4325V22.4875H28.3775V19.5425Z" fill="white"/>
<path d="M28.3775 22.4874H25.4325V25.4324H28.3775V22.4874Z" fill="white"/>
<path d="M28.3775 25.4325H25.4325V28.3775H28.3775V25.4325Z" fill="white"/>
<path d="M16.5973 13.6523H13.6523V16.5973H16.5973V13.6523Z" fill="white"/>
<path d="M16.5973 16.5973H13.6523V19.5423H16.5973V16.5973Z" fill="white"/>
<path d="M16.5973 19.5424H13.6523V22.4874H16.5973V19.5424Z" fill="white"/>
<path d="M19.5423 13.6523H16.5973V16.5973H19.5423V13.6523Z" fill="white"/>
<path d="M19.5423 16.5973H16.5973V19.5423H19.5423V16.5973Z" fill="white"/>
<path d="M19.5423 19.5424H16.5973V22.4874H19.5423V19.5424Z" fill="white"/>
<path d="M22.4874 13.6523H19.5424V16.5973H22.4874V13.6523Z" fill="white"/>
<path d="M22.4874 16.5973H19.5424V19.5423H22.4874V16.5973Z" fill="white"/>
<path d="M22.4874 19.5424H19.5424V22.4874H22.4874V19.5424Z" fill="white"/>
<path d="M75.4971 7.76233H72.5521V10.7073H75.4971V7.76233Z" fill="white"/>
<path d="M75.4971 10.7073H72.5521V13.6523H75.4971V10.7073Z" fill="white"/>
<path d="M75.4971 13.6523H72.5521V16.5973H75.4971V13.6523Z" fill="white"/>
<path d="M75.4971 16.5973H72.5521V19.5423H75.4971V16.5973Z" fill="white"/>
<path d="M75.4971 19.5424H72.5521V22.4874H75.4971V19.5424Z" fill="white"/>
<path d="M75.4971 22.4873H72.5521V25.4323H75.4971V22.4873Z" fill="white"/>
<path d="M75.4971 25.4324H72.5521V28.3774H75.4971V25.4324Z" fill="white"/>
<path d="M78.4421 7.76233H75.4971V10.7073H78.4421V7.76233Z" fill="white"/>
<path d="M78.4421 25.4324H75.4971V28.3774H78.4421V25.4324Z" fill="white"/>
<path d="M81.3871 7.76233H78.4421V10.7073H81.3871V7.76233Z" fill="white"/>
<path d="M81.3871 25.4324H78.4421V28.3774H81.3871V25.4324Z" fill="white"/>
<path d="M84.3321 7.76233H81.3871V10.7073H84.3321V7.76233Z" fill="white"/>
<path d="M84.3321 25.4324H81.3871V28.3774H84.3321V25.4324Z" fill="white"/>
<path d="M87.2772 7.76233H84.3322V10.7073H87.2772V7.76233Z" fill="white"/>
<path d="M87.2772 25.4324H84.3322V28.3774H87.2772V25.4324Z" fill="white"/>
<path d="M90.2221 7.76233H87.2771V10.7073H90.2221V7.76233Z" fill="white"/>
<path d="M90.2221 25.4324H87.2771V28.3774H90.2221V25.4324Z" fill="white"/>
<path d="M93.1672 7.76233H90.2222V10.7073H93.1672V7.76233Z" fill="white"/>
<path d="M93.1672 10.7073H90.2222V13.6523H93.1672V10.7073Z" fill="white"/>
<path d="M93.1672 13.6523H90.2222V16.5973H93.1672V13.6523Z" fill="white"/>
<path d="M93.1672 16.5973H90.2222V19.5423H93.1672V16.5973Z" fill="white"/>
<path d="M93.1672 19.5424H90.2222V22.4874H93.1672V19.5424Z" fill="white"/>
<path d="M93.1672 22.4873H90.2222V25.4323H93.1672V22.4873Z" fill="white"/>
<path d="M93.1672 25.4324H90.2222V28.3774H93.1672V25.4324Z" fill="white"/>
<path d="M81.387 13.6521H78.442V16.5971H81.387V13.6521Z" fill="white"/>
<path d="M81.387 16.597H78.442V19.542H81.387V16.597Z" fill="white"/>
<path d="M81.387 19.5421H78.442V22.4871H81.387V19.5421Z" fill="white"/>
<path d="M84.332 13.6521H81.387V16.5971H84.332V13.6521Z" fill="white"/>
<path d="M84.332 16.597H81.387V19.542H84.332V16.597Z" fill="white"/>
<path d="M84.332 19.5421H81.387V22.4871H84.332V19.5421Z" fill="white"/>
<path d="M87.277 13.6521H84.332V16.5971H87.277V13.6521Z" fill="white"/>
<path d="M87.277 16.597H84.332V19.542H87.277V16.597Z" fill="white"/>
<path d="M87.277 19.5421H84.332V22.4871H87.277V19.5421Z" fill="white"/>
<path d="M10.7073 72.5521H7.76233V75.4971H10.7073V72.5521Z" fill="white"/>
<path d="M10.7073 75.4971H7.76233V78.4421H10.7073V75.4971Z" fill="white"/>
<path d="M10.7073 78.4421H7.76233V81.3871H10.7073V78.4421Z" fill="white"/>
<path d="M10.7073 81.3871H7.76233V84.3321H10.7073V81.3871Z" fill="white"/>
<path d="M10.7073 84.3322H7.76233V87.2772H10.7073V84.3322Z" fill="white"/>
<path d="M10.7073 87.2771H7.76233V90.2221H10.7073V87.2771Z" fill="white"/>
<path d="M10.7073 90.2222H7.76233V93.1672H10.7073V90.2222Z" fill="white"/>
<path d="M13.6523 72.5521H10.7073V75.4971H13.6523V72.5521Z" fill="white"/>
<path d="M13.6523 90.2222H10.7073V93.1672H13.6523V90.2222Z" fill="white"/>
<path d="M16.5973 72.5521H13.6523V75.4971H16.5973V72.5521Z" fill="white"/>
<path d="M16.5973 90.2222H13.6523V93.1672H16.5973V90.2222Z" fill="white"/>
<path d="M19.5423 72.5521H16.5973V75.4971H19.5423V72.5521Z" fill="white"/>
<path d="M19.5423 90.2222H16.5973V93.1672H19.5423V90.2222Z" fill="white"/>
<path d="M22.4874 72.5521H19.5424V75.4971H22.4874V72.5521Z" fill="white"/>
<path d="M22.4874 90.2222H19.5424V93.1672H22.4874V90.2222Z" fill="white"/>
<path d="M25.4323 72.5521H22.4873V75.4971H25.4323V72.5521Z" fill="white"/>
<path d="M25.4323 90.2222H22.4873V93.1672H25.4323V90.2222Z" fill="white"/>
<path d="M28.3774 72.5521H25.4324V75.4971H28.3774V72.5521Z" fill="white"/>
<path d="M28.3774 75.4971H25.4324V78.4421H28.3774V75.4971Z" fill="white"/>
<path d="M28.3774 78.4421H25.4324V81.3871H28.3774V78.4421Z" fill="white"/>
<path d="M28.3774 81.3871H25.4324V84.3321H28.3774V81.3871Z" fill="white"/>
<path d="M28.3774 84.3322H25.4324V87.2772H28.3774V84.3322Z" fill="white"/>
<path d="M28.3774 87.2771H25.4324V90.2221H28.3774V87.2771Z" fill="white"/>
<path d="M28.3774 90.2222H25.4324V93.1672H28.3774V90.2222Z" fill="white"/>
<path d="M16.5971 78.442H13.6521V81.387H16.5971V78.442Z" fill="white"/>
<path d="M16.5971 81.387H13.6521V84.332H16.5971V81.387Z" fill="white"/>
<path d="M16.5971 84.332H13.6521V87.277H16.5971V84.332Z" fill="white"/>
<path d="M19.542 78.442H16.597V81.387H19.542V78.442Z" fill="white"/>
<path d="M19.542 81.387H16.597V84.332H19.542V81.387Z" fill="white"/>
<path d="M19.542 84.332H16.597V87.277H19.542V84.332Z" fill="white"/>
<path d="M22.4871 78.442H19.5421V81.387H22.4871V78.442Z" fill="white"/>
<path d="M22.4871 81.387H19.5421V84.332H22.4871V81.387Z" fill="white"/>
<path d="M22.4871 84.332H19.5421V87.277H22.4871V84.332Z" fill="white"/>
</svg>
