<svg width="100" height="100" viewBox="0 0 100 100" fill="none" xmlns="http://www.w3.org/2000/svg">
<rect width="100" height="100" rx="6" fill="white"/>
<rect width="93" height="93" transform="translate(3.5 3.5)" fill="white"/>
<rect width="88.35" height="88.35" transform="translate(6.29004 6.29004)" fill="white"/>
<rect width="88.35" height="88.35" transform="translate(6.29004 6.29004)" fill="white"/>
<path d="M10.7077 34.2676H7.7627V37.2126H10.7077V34.2676Z" fill="black"/>
<path d="M10.7077 37.2126H7.7627V40.1576H10.7077V37.2126Z" fill="black"/>
<path d="M10.7077 48.9927H7.7627V51.9377H10.7077V48.9927Z" fill="black"/>
<path d="M10.7077 51.9377H7.7627V54.8827H10.7077V51.9377Z" fill="black"/>
<path d="M10.7077 57.8276H7.7627V60.7726H10.7077V57.8276Z" fill="black"/>
<path d="M10.7077 60.7727H7.7627V63.7177H10.7077V60.7727Z" fill="black"/>
<path d="M10.7077 63.7175H7.7627V66.6625H10.7077V63.7175Z" fill="black"/>
<path d="M13.6528 40.1577H10.7078V43.1027H13.6528V40.1577Z" fill="black"/>
<path d="M13.6528 43.1028H10.7078V46.0478H13.6528V43.1028Z" fill="black"/>
<path d="M13.6528 46.0476H10.7078V48.9926H13.6528V46.0476Z" fill="black"/>
<path d="M13.6528 48.9927H10.7078V51.9377H13.6528V48.9927Z" fill="black"/>
<path d="M13.6528 51.9377H10.7078V54.8827H13.6528V51.9377Z" fill="black"/>
<path d="M13.6528 54.8828H10.7078V57.8278H13.6528V54.8828Z" fill="black"/>
<path d="M13.6528 66.6626H10.7078V69.6076H13.6528V66.6626Z" fill="black"/>
<path d="M16.5976 31.3228H13.6526V34.2678H16.5976V31.3228Z" fill="black"/>
<path d="M16.5976 34.2676H13.6526V37.2126H16.5976V34.2676Z" fill="black"/>
<path d="M16.5976 37.2126H13.6526V40.1576H16.5976V37.2126Z" fill="black"/>
<path d="M16.5976 40.1577H13.6526V43.1027H16.5976V40.1577Z" fill="black"/>
<path d="M16.5976 43.1028H13.6526V46.0478H16.5976V43.1028Z" fill="black"/>
<path d="M16.5976 51.9377H13.6526V54.8827H16.5976V51.9377Z" fill="black"/>
<path d="M16.5976 54.8828H13.6526V57.8278H16.5976V54.8828Z" fill="black"/>
<path d="M16.5976 57.8276H13.6526V60.7726H16.5976V57.8276Z" fill="black"/>
<path d="M16.5976 60.7727H13.6526V63.7177H16.5976V60.7727Z" fill="black"/>
<path d="M16.5978 63.7175H13.6528V66.6625H16.5978V63.7175Z" fill="black"/>
<path d="M16.5976 66.6626H13.6526V69.6076H16.5976V66.6626Z" fill="black"/>
<path d="M19.5427 40.1577H16.5977V43.1027H19.5427V40.1577Z" fill="black"/>
<path d="M19.5427 51.9377H16.5977V54.8827H19.5427V51.9377Z" fill="black"/>
<path d="M19.5427 60.7727H16.5977V63.7177H19.5427V60.7727Z" fill="black"/>
<path d="M19.5427 63.7175H16.5977V66.6625H19.5427V63.7175Z" fill="black"/>
<path d="M22.4877 31.3228H19.5427V34.2678H22.4877V31.3228Z" fill="black"/>
<path d="M22.4877 34.2676H19.5427V37.2126H22.4877V34.2676Z" fill="black"/>
<path d="M22.4877 37.2126H19.5427V40.1576H22.4877V37.2126Z" fill="black"/>
<path d="M22.4877 46.0476H19.5427V48.9926H22.4877V46.0476Z" fill="black"/>
<path d="M22.4877 54.8828H19.5427V57.8278H22.4877V54.8828Z" fill="black"/>
<path d="M22.4877 66.6626H19.5427V69.6076H22.4877V66.6626Z" fill="black"/>
<path d="M25.4328 31.3228H22.4878V34.2678H25.4328V31.3228Z" fill="black"/>
<path d="M25.4328 43.1028H22.4878V46.0478H25.4328V43.1028Z" fill="black"/>
<path d="M25.4328 46.0476H22.4878V48.9926H25.4328V46.0476Z" fill="black"/>
<path d="M25.4328 54.8828H22.4878V57.8278H25.4328V54.8828Z" fill="black"/>
<path d="M25.4328 60.7727H22.4878V63.7177H25.4328V60.7727Z" fill="black"/>
<path d="M25.4325 63.7175H22.4875V66.6625H25.4325V63.7175Z" fill="black"/>
<path d="M28.3776 31.3228H25.4326V34.2678H28.3776V31.3228Z" fill="black"/>
<path d="M28.3776 37.2126H25.4326V40.1576H28.3776V37.2126Z" fill="black"/>
<path d="M28.3776 43.1028H25.4326V46.0478H28.3776V43.1028Z" fill="black"/>
<path d="M28.3776 48.9927H25.4326V51.9377H28.3776V48.9927Z" fill="black"/>
<path d="M28.3776 54.8828H25.4326V57.8278H28.3776V54.8828Z" fill="black"/>
<path d="M28.3776 60.7727H25.4326V63.7177H28.3776V60.7727Z" fill="black"/>
<path d="M28.3776 66.6626H25.4326V69.6076H28.3776V66.6626Z" fill="black"/>
<path d="M31.3227 34.2676H28.3777V37.2126H31.3227V34.2676Z" fill="black"/>
<path d="M31.3227 37.2126H28.3777V40.1576H31.3227V37.2126Z" fill="black"/>
<path d="M31.3227 43.1028H28.3777V46.0478H31.3227V43.1028Z" fill="black"/>
<path d="M31.3227 48.9927H28.3777V51.9377H31.3227V48.9927Z" fill="black"/>
<path d="M31.3227 57.8276H28.3777V60.7726H31.3227V57.8276Z" fill="black"/>
<path d="M31.3227 60.7727H28.3777V63.7177H31.3227V60.7727Z" fill="black"/>
<path d="M31.3227 66.6626H28.3777V69.6076H31.3227V66.6626Z" fill="black"/>
<path d="M34.2678 10.7078H31.3228V13.6528H34.2678V10.7078Z" fill="black"/>
<path d="M34.2678 19.5427H31.3228V22.4877H34.2678V19.5427Z" fill="black"/>
<path d="M34.2678 25.4326H31.3228V28.3776H34.2678V25.4326Z" fill="black"/>
<path d="M34.2678 31.3228H31.3228V34.2678H34.2678V31.3228Z" fill="black"/>
<path d="M34.2678 37.2126H31.3228V40.1576H34.2678V37.2126Z" fill="black"/>
<path d="M34.2678 46.0476H31.3228V48.9926H34.2678V46.0476Z" fill="black"/>
<path d="M34.2678 48.9927H31.3228V51.9377H34.2678V48.9927Z" fill="black"/>
<path d="M34.2678 60.7727H31.3228V63.7177H34.2678V60.7727Z" fill="black"/>
<path d="M34.2678 63.7175H31.3228V66.6625H34.2678V63.7175Z" fill="black"/>
<path d="M34.2678 66.6626H31.3228V69.6076H34.2678V66.6626Z" fill="black"/>
<path d="M34.2678 69.6077H31.3228V72.5527H34.2678V69.6077Z" fill="black"/>
<path d="M34.2678 75.4978H31.3228V78.4428H34.2678V75.4978Z" fill="black"/>
<path d="M34.2678 78.4426H31.3228V81.3876H34.2678V78.4426Z" fill="black"/>
<path d="M34.2678 84.3328H31.3228V87.2778H34.2678V84.3328Z" fill="black"/>
<path d="M37.2126 13.6526H34.2676V16.5976H37.2126V13.6526Z" fill="black"/>
<path d="M37.2126 19.5427H34.2676V22.4877H37.2126V19.5427Z" fill="black"/>
<path d="M37.2126 22.4878H34.2676V25.4328H37.2126V22.4878Z" fill="black"/>
<path d="M37.2126 28.3777H34.2676V31.3227H37.2126V28.3777Z" fill="black"/>
<path d="M37.2126 34.2676H34.2676V37.2126H37.2126V34.2676Z" fill="black"/>
<path d="M37.2126 37.2126H34.2676V40.1576H37.2126V37.2126Z" fill="black"/>
<path d="M37.2126 46.0476H34.2676V48.9926H37.2126V46.0476Z" fill="black"/>
<path d="M37.2126 48.9927H34.2676V51.9377H37.2126V48.9927Z" fill="black"/>
<path d="M37.2126 63.7175H34.2676V66.6625H37.2126V63.7175Z" fill="black"/>
<path d="M37.2126 66.6626H34.2676V69.6076H37.2126V66.6626Z" fill="black"/>
<path d="M37.2126 69.6077H34.2676V72.5527H37.2126V69.6077Z" fill="black"/>
<path d="M37.2126 72.5527H34.2676V75.4977H37.2126V72.5527Z" fill="black"/>
<path d="M37.2126 78.4426H34.2676V81.3876H37.2126V78.4426Z" fill="black"/>
<path d="M37.2126 87.2776H34.2676V90.2226H37.2126V87.2776Z" fill="black"/>
<path d="M37.2126 90.2227H34.2676V93.1677H37.2126V90.2227Z" fill="black"/>
<path d="M40.1576 7.7627H37.2126V10.7077H40.1576V7.7627Z" fill="black"/>
<path d="M40.1576 10.7078H37.2126V13.6528H40.1576V10.7078Z" fill="black"/>
<path d="M40.1576 19.5427H37.2126V22.4877H40.1576V19.5427Z" fill="black"/>
<path d="M40.1576 25.4326H37.2126V28.3776H40.1576V25.4326Z" fill="black"/>
<path d="M40.1576 31.3228H37.2126V34.2678H40.1576V31.3228Z" fill="black"/>
<path d="M40.1576 34.2676H37.2126V37.2126H40.1576V34.2676Z" fill="black"/>
<path d="M40.1576 40.1577H37.2126V43.1027H40.1576V40.1577Z" fill="black"/>
<path d="M40.1576 43.1028H37.2126V46.0478H40.1576V43.1028Z" fill="black"/>
<path d="M40.1576 46.0476H37.2126V48.9926H40.1576V46.0476Z" fill="black"/>
<path d="M40.1576 48.9927H37.2126V51.9377H40.1576V48.9927Z" fill="black"/>
<path d="M40.1576 51.9377H37.2126V54.8827H40.1576V51.9377Z" fill="black"/>
<path d="M40.1576 57.8276H37.2126V60.7726H40.1576V57.8276Z" fill="black"/>
<path d="M40.1576 69.6077H37.2126V72.5527H40.1576V69.6077Z" fill="black"/>
<path d="M40.1576 75.4978H37.2126V78.4428H40.1576V75.4978Z" fill="black"/>
<path d="M40.1576 81.3877H37.2126V84.3327H40.1576V81.3877Z" fill="black"/>
<path d="M40.1576 84.3328H37.2126V87.2778H40.1576V84.3328Z" fill="black"/>
<path d="M40.1576 90.2227H37.2126V93.1677H40.1576V90.2227Z" fill="black"/>
<path d="M43.1027 10.7078H40.1577V13.6528H43.1027V10.7078Z" fill="black"/>
<path d="M43.1027 13.6526H40.1577V16.5976H43.1027V13.6526Z" fill="black"/>
<path d="M43.1027 16.5977H40.1577V19.5427H43.1027V16.5977Z" fill="black"/>
<path d="M43.1027 19.5427H40.1577V22.4877H43.1027V19.5427Z" fill="black"/>
<path d="M43.1027 22.4878H40.1577V25.4328H43.1027V22.4878Z" fill="black"/>
<path d="M43.1027 31.3228H40.1577V34.2678H43.1027V31.3228Z" fill="black"/>
<path d="M43.1027 34.2676H40.1577V37.2126H43.1027V34.2676Z" fill="black"/>
<path d="M43.1027 43.1028H40.1577V46.0478H43.1027V43.1028Z" fill="black"/>
<path d="M43.1027 46.0476H40.1577V48.9926H43.1027V46.0476Z" fill="black"/>
<path d="M43.1027 51.9377H40.1577V54.8827H43.1027V51.9377Z" fill="black"/>
<path d="M43.1027 57.8276H40.1577V60.7726H43.1027V57.8276Z" fill="black"/>
<path d="M43.1027 60.7727H40.1577V63.7177H43.1027V60.7727Z" fill="black"/>
<path d="M43.1027 66.6626H40.1577V69.6076H43.1027V66.6626Z" fill="black"/>
<path d="M43.1027 69.6077H40.1577V72.5527H43.1027V69.6077Z" fill="black"/>
<path d="M43.1027 78.4426H40.1577V81.3876H43.1027V78.4426Z" fill="black"/>
<path d="M43.1027 81.3877H40.1577V84.3327H43.1027V81.3877Z" fill="black"/>
<path d="M43.1027 87.2776H40.1577V90.2226H43.1027V87.2776Z" fill="black"/>
<path d="M43.1027 90.2227H40.1577V93.1677H43.1027V90.2227Z" fill="black"/>
<path d="M46.0478 19.5427H43.1028V22.4877H46.0478V19.5427Z" fill="black"/>
<path d="M46.0478 25.4326H43.1028V28.3776H46.0478V25.4326Z" fill="black"/>
<path d="M46.0478 31.3228H43.1028V34.2678H46.0478V31.3228Z" fill="black"/>
<path d="M46.0478 46.0476H43.1028V48.9926H46.0478V46.0476Z" fill="black"/>
<path d="M46.0478 48.9927H43.1028V51.9377H46.0478V48.9927Z" fill="black"/>
<path d="M46.0478 51.9377H43.1028V54.8827H46.0478V51.9377Z" fill="black"/>
<path d="M46.0478 54.8828H43.1028V57.8278H46.0478V54.8828Z" fill="black"/>
<path d="M46.0478 57.8276H43.1028V60.7726H46.0478V57.8276Z" fill="black"/>
<path d="M46.0475 63.7175H43.1025V66.6625H46.0475V63.7175Z" fill="black"/>
<path d="M46.0478 66.6626H43.1028V69.6076H46.0478V66.6626Z" fill="black"/>
<path d="M46.0478 75.4978H43.1028V78.4428H46.0478V75.4978Z" fill="black"/>
<path d="M46.0478 81.3877H43.1028V84.3327H46.0478V81.3877Z" fill="black"/>
<path d="M46.0478 90.2227H43.1028V93.1677H46.0478V90.2227Z" fill="black"/>
<path d="M48.9926 7.7627H46.0476V10.7077H48.9926V7.7627Z" fill="black"/>
<path d="M48.9926 10.7078H46.0476V13.6528H48.9926V10.7078Z" fill="black"/>
<path d="M48.9926 22.4878H46.0476V25.4328H48.9926V22.4878Z" fill="black"/>
<path d="M48.9926 28.3777H46.0476V31.3227H48.9926V28.3777Z" fill="black"/>
<path d="M48.9926 31.3228H46.0476V34.2678H48.9926V31.3228Z" fill="black"/>
<path d="M48.9926 54.8828H46.0476V57.8278H48.9926V54.8828Z" fill="black"/>
<path d="M48.9926 57.8276H46.0476V60.7726H48.9926V57.8276Z" fill="black"/>
<path d="M48.9926 72.5527H46.0476V75.4977H48.9926V72.5527Z" fill="black"/>
<path d="M48.9926 78.4426H46.0476V81.3876H48.9926V78.4426Z" fill="black"/>
<path d="M48.9926 84.3328H46.0476V87.2778H48.9926V84.3328Z" fill="black"/>
<path d="M48.9926 90.2227H46.0476V93.1677H48.9926V90.2227Z" fill="black"/>
<path d="M51.9377 7.7627H48.9927V10.7077H51.9377V7.7627Z" fill="black"/>
<path d="M51.9377 13.6526H48.9927V16.5976H51.9377V13.6526Z" fill="black"/>
<path d="M51.9377 19.5427H48.9927V22.4877H51.9377V19.5427Z" fill="black"/>
<path d="M51.9377 22.4878H48.9927V25.4328H51.9377V22.4878Z" fill="black"/>
<path d="M51.9377 25.4326H48.9927V28.3776H51.9377V25.4326Z" fill="black"/>
<path d="M51.9377 28.3777H48.9927V31.3227H51.9377V28.3777Z" fill="black"/>
<path d="M51.9377 31.3228H48.9927V34.2678H51.9377V31.3228Z" fill="black"/>
<path d="M51.9377 46.0476H48.9927V48.9926H51.9377V46.0476Z" fill="black"/>
<path d="M51.9377 48.9927H48.9927V51.9377H51.9377V48.9927Z" fill="black"/>
<path d="M51.9377 51.9377H48.9927V54.8827H51.9377V51.9377Z" fill="black"/>
<path d="M51.9377 54.8828H48.9927V57.8278H51.9377V54.8828Z" fill="black"/>
<path d="M51.9377 60.7727H48.9927V63.7177H51.9377V60.7727Z" fill="black"/>
<path d="M51.9377 66.6626H48.9927V69.6076H51.9377V66.6626Z" fill="black"/>
<path d="M51.9377 69.6077H48.9927V72.5527H51.9377V69.6077Z" fill="black"/>
<path d="M51.9377 72.5527H48.9927V75.4977H51.9377V72.5527Z" fill="black"/>
<path d="M51.9377 78.4426H48.9927V81.3876H51.9377V78.4426Z" fill="black"/>
<path d="M51.9377 87.2776H48.9927V90.2226H51.9377V87.2776Z" fill="black"/>
<path d="M51.9377 90.2227H48.9927V93.1677H51.9377V90.2227Z" fill="black"/>
<path d="M54.8827 10.7078H51.9377V13.6528H54.8827V10.7078Z" fill="black"/>
<path d="M54.8827 19.5427H51.9377V22.4877H54.8827V19.5427Z" fill="black"/>
<path d="M54.8827 22.4878H51.9377V25.4328H54.8827V22.4878Z" fill="black"/>
<path d="M54.8827 28.3777H51.9377V31.3227H54.8827V28.3777Z" fill="black"/>
<path d="M54.8827 31.3228H51.9377V34.2678H54.8827V31.3228Z" fill="black"/>
<path d="M54.8827 34.2676H51.9377V37.2126H54.8827V34.2676Z" fill="black"/>
<path d="M54.8827 37.2126H51.9377V40.1576H54.8827V37.2126Z" fill="black"/>
<path d="M54.8827 40.1577H51.9377V43.1027H54.8827V40.1577Z" fill="black"/>
<path d="M54.8827 48.9927H51.9377V51.9377H54.8827V48.9927Z" fill="black"/>
<path d="M54.8827 54.8828H51.9377V57.8278H54.8827V54.8828Z" fill="black"/>
<path d="M54.8827 66.6626H51.9377V69.6076H54.8827V66.6626Z" fill="black"/>
<path d="M54.8827 75.4978H51.9377V78.4428H54.8827V75.4978Z" fill="black"/>
<path d="M54.8827 81.3877H51.9377V84.3327H54.8827V81.3877Z" fill="black"/>
<path d="M54.8827 90.2227H51.9377V93.1677H54.8827V90.2227Z" fill="black"/>
<path d="M57.8278 10.7078H54.8828V13.6528H57.8278V10.7078Z" fill="black"/>
<path d="M57.8278 13.6526H54.8828V16.5976H57.8278V13.6526Z" fill="black"/>
<path d="M57.8278 16.5977H54.8828V19.5427H57.8278V16.5977Z" fill="black"/>
<path d="M57.8278 22.4878H54.8828V25.4328H57.8278V22.4878Z" fill="black"/>
<path d="M57.8278 25.4326H54.8828V28.3776H57.8278V25.4326Z" fill="black"/>
<path d="M57.8278 31.3228H54.8828V34.2678H57.8278V31.3228Z" fill="black"/>
<path d="M57.8278 34.2676H54.8828V37.2126H57.8278V34.2676Z" fill="black"/>
<path d="M57.8278 37.2126H54.8828V40.1576H57.8278V37.2126Z" fill="black"/>
<path d="M57.8278 40.1577H54.8828V43.1027H57.8278V40.1577Z" fill="black"/>
<path d="M57.8278 43.1028H54.8828V46.0478H57.8278V43.1028Z" fill="black"/>
<path d="M57.8278 51.9377H54.8828V54.8827H57.8278V51.9377Z" fill="black"/>
<path d="M57.8278 54.8828H54.8828V57.8278H57.8278V54.8828Z" fill="black"/>
<path d="M57.8278 69.6077H54.8828V72.5527H57.8278V69.6077Z" fill="black"/>
<path d="M57.8278 87.2776H54.8828V90.2226H57.8278V87.2776Z" fill="black"/>
<path d="M57.8278 90.2227H54.8828V93.1677H57.8278V90.2227Z" fill="black"/>
<path d="M60.7726 7.7627H57.8276V10.7077H60.7726V7.7627Z" fill="black"/>
<path d="M60.7726 19.5427H57.8276V22.4877H60.7726V19.5427Z" fill="black"/>
<path d="M60.7726 22.4878H57.8276V25.4328H60.7726V22.4878Z" fill="black"/>
<path d="M60.7726 28.3777H57.8276V31.3227H60.7726V28.3777Z" fill="black"/>
<path d="M60.7726 37.2126H57.8276V40.1576H60.7726V37.2126Z" fill="black"/>
<path d="M60.7726 46.0476H57.8276V48.9926H60.7726V46.0476Z" fill="black"/>
<path d="M60.7726 48.9927H57.8276V51.9377H60.7726V48.9927Z" fill="black"/>
<path d="M60.7726 60.7727H57.8276V63.7177H60.7726V60.7727Z" fill="black"/>
<path d="M60.7726 66.6626H57.8276V69.6076H60.7726V66.6626Z" fill="black"/>
<path d="M60.7726 69.6077H57.8276V72.5527H60.7726V69.6077Z" fill="black"/>
<path d="M60.7726 75.4978H57.8276V78.4428H60.7726V75.4978Z" fill="black"/>
<path d="M60.7726 78.4426H57.8276V81.3876H60.7726V78.4426Z" fill="black"/>
<path d="M60.7726 90.2227H57.8276V93.1677H60.7726V90.2227Z" fill="black"/>
<path d="M63.7177 16.5977H60.7727V19.5427H63.7177V16.5977Z" fill="black"/>
<path d="M63.7177 19.5427H60.7727V22.4877H63.7177V19.5427Z" fill="black"/>
<path d="M63.7177 22.4878H60.7727V25.4328H63.7177V22.4878Z" fill="black"/>
<path d="M63.7177 25.4326H60.7727V28.3776H63.7177V25.4326Z" fill="black"/>
<path d="M63.7177 28.3777H60.7727V31.3227H63.7177V28.3777Z" fill="black"/>
<path d="M63.7177 46.0476H60.7727V48.9926H63.7177V46.0476Z" fill="black"/>
<path d="M63.7177 51.9377H60.7727V54.8827H63.7177V51.9377Z" fill="black"/>
<path d="M63.7177 66.6626H60.7727V69.6076H63.7177V66.6626Z" fill="black"/>
<path d="M63.7177 78.4426H60.7727V81.3876H63.7177V78.4426Z" fill="black"/>
<path d="M63.7177 84.3328H60.7727V87.2778H63.7177V84.3328Z" fill="black"/>
<path d="M63.7177 90.2227H60.7727V93.1677H63.7177V90.2227Z" fill="black"/>
<path d="M66.6625 19.5427H63.7175V22.4877H66.6625V19.5427Z" fill="black"/>
<path d="M66.6625 28.3777H63.7175V31.3227H66.6625V28.3777Z" fill="black"/>
<path d="M66.6625 40.1577H63.7175V43.1027H66.6625V40.1577Z" fill="black"/>
<path d="M66.6625 43.1028H63.7175V46.0478H66.6625V43.1028Z" fill="black"/>
<path d="M66.6625 46.0479H63.7175V48.9929H66.6625V46.0479Z" fill="black"/>
<path d="M66.6625 51.9375H63.7175V54.8825H66.6625V51.9375Z" fill="black"/>
<path d="M66.6625 54.8826H63.7175V57.8276H66.6625V54.8826Z" fill="black"/>
<path d="M66.6625 57.8279H63.7175V60.7729H66.6625V57.8279Z" fill="black"/>
<path d="M66.6625 66.6626H63.7175V69.6076H66.6625V66.6626Z" fill="black"/>
<path d="M66.6625 81.3877H63.7175V84.3327H66.6625V81.3877Z" fill="black"/>
<path d="M66.6625 87.2776H63.7175V90.2226H66.6625V87.2776Z" fill="black"/>
<path d="M69.6076 7.7627H66.6626V10.7077H69.6076V7.7627Z" fill="black"/>
<path d="M69.6076 10.7078H66.6626V13.6528H69.6076V10.7078Z" fill="black"/>
<path d="M69.6076 19.5427H66.6626V22.4877H69.6076V19.5427Z" fill="black"/>
<path d="M69.6076 22.4878H66.6626V25.4328H69.6076V22.4878Z" fill="black"/>
<path d="M69.6076 25.4326H66.6626V28.3776H69.6076V25.4326Z" fill="black"/>
<path d="M69.6076 37.2126H66.6626V40.1576H69.6076V37.2126Z" fill="black"/>
<path d="M69.6076 40.1577H66.6626V43.1027H69.6076V40.1577Z" fill="black"/>
<path d="M69.6076 43.1028H66.6626V46.0478H69.6076V43.1028Z" fill="black"/>
<path d="M69.6076 46.0476H66.6626V48.9926H69.6076V46.0476Z" fill="black"/>
<path d="M69.6076 57.8276H66.6626V60.7726H69.6076V57.8276Z" fill="black"/>
<path d="M69.6076 60.7727H66.6626V63.7177H69.6076V60.7727Z" fill="black"/>
<path d="M69.6076 66.6626H66.6626V69.6076H69.6076V66.6626Z" fill="black"/>
<path d="M69.6076 69.6077H66.6626V72.5527H69.6076V69.6077Z" fill="black"/>
<path d="M69.6076 72.5527H66.6626V75.4977H69.6076V72.5527Z" fill="black"/>
<path d="M69.6076 75.4978H66.6626V78.4428H69.6076V75.4978Z" fill="black"/>
<path d="M69.6076 78.4426H66.6626V81.3876H69.6076V78.4426Z" fill="black"/>
<path d="M69.6076 81.3877H66.6626V84.3327H69.6076V81.3877Z" fill="black"/>
<path d="M69.6076 84.3328H66.6626V87.2778H69.6076V84.3328Z" fill="black"/>
<path d="M69.6076 90.2227H66.6626V93.1677H69.6076V90.2227Z" fill="black"/>
<path d="M72.5527 31.3228H69.6077V34.2678H72.5527V31.3228Z" fill="black"/>
<path d="M72.5527 37.2126H69.6077V40.1576H72.5527V37.2126Z" fill="black"/>
<path d="M72.5527 43.1028H69.6077V46.0478H72.5527V43.1028Z" fill="black"/>
<path d="M72.5527 46.0476H69.6077V48.9926H72.5527V46.0476Z" fill="black"/>
<path d="M72.5527 48.9927H69.6077V51.9377H72.5527V48.9927Z" fill="black"/>
<path d="M72.5527 51.9377H69.6077V54.8827H72.5527V51.9377Z" fill="black"/>
<path d="M72.5527 54.8828H69.6077V57.8278H72.5527V54.8828Z" fill="black"/>
<path d="M72.5527 60.7727H69.6077V63.7177H72.5527V60.7727Z" fill="black"/>
<path d="M72.5527 63.7175H69.6077V66.6625H72.5527V63.7175Z" fill="black"/>
<path d="M72.5527 66.6626H69.6077V69.6076H72.5527V66.6626Z" fill="black"/>
<path d="M72.5527 78.4426H69.6077V81.3876H72.5527V78.4426Z" fill="black"/>
<path d="M72.5527 84.3328H69.6077V87.2778H72.5527V84.3328Z" fill="black"/>
<path d="M72.5527 90.2227H69.6077V93.1677H72.5527V90.2227Z" fill="black"/>
<path d="M75.4977 34.2676H72.5527V37.2126H75.4977V34.2676Z" fill="black"/>
<path d="M75.4977 37.2126H72.5527V40.1576H75.4977V37.2126Z" fill="black"/>
<path d="M75.4977 40.1577H72.5527V43.1027H75.4977V40.1577Z" fill="black"/>
<path d="M75.4977 43.1028H72.5527V46.0478H75.4977V43.1028Z" fill="black"/>
<path d="M75.4977 51.9377H72.5527V54.8827H75.4977V51.9377Z" fill="black"/>
<path d="M75.4977 57.8276H72.5527V60.7726H75.4977V57.8276Z" fill="black"/>
<path d="M75.4977 63.7175H72.5527V66.6625H75.4977V63.7175Z" fill="black"/>
<path d="M75.4977 66.6626H72.5527V69.6076H75.4977V66.6626Z" fill="black"/>
<path d="M75.4977 72.5527H72.5527V75.4977H75.4977V72.5527Z" fill="black"/>
<path d="M75.4977 78.4426H72.5527V81.3876H75.4977V78.4426Z" fill="black"/>
<path d="M75.4977 90.2227H72.5527V93.1677H75.4977V90.2227Z" fill="black"/>
<path d="M78.4428 40.1577H75.4978V43.1027H78.4428V40.1577Z" fill="black"/>
<path d="M78.4428 43.1028H75.4978V46.0478H78.4428V43.1028Z" fill="black"/>
<path d="M78.4428 54.8828H75.4978V57.8278H78.4428V54.8828Z" fill="black"/>
<path d="M78.4428 57.8276H75.4978V60.7726H78.4428V57.8276Z" fill="black"/>
<path d="M78.4428 60.7727H75.4978V63.7177H78.4428V60.7727Z" fill="black"/>
<path d="M78.4426 63.7175H75.4976V66.6625H78.4426V63.7175Z" fill="black"/>
<path d="M78.4428 66.6626H75.4978V69.6076H78.4428V66.6626Z" fill="black"/>
<path d="M78.4428 78.4426H75.4978V81.3876H78.4428V78.4426Z" fill="black"/>
<path d="M78.4428 81.3877H75.4978V84.3327H78.4428V81.3877Z" fill="black"/>
<path d="M81.3879 31.3228H78.4429V34.2678H81.3879V31.3228Z" fill="black"/>
<path d="M81.3879 40.1577H78.4429V43.1027H81.3879V40.1577Z" fill="black"/>
<path d="M81.3879 46.0479H78.4429V48.9929H81.3879V46.0479Z" fill="black"/>
<path d="M81.3879 48.9929H78.4429V51.9379H81.3879V48.9929Z" fill="black"/>
<path d="M81.3879 60.7727H78.4429V63.7177H81.3879V60.7727Z" fill="black"/>
<path d="M81.3879 63.7175H78.4429V66.6625H81.3879V63.7175Z" fill="black"/>
<path d="M81.3879 66.6628H78.4429V69.6078H81.3879V66.6628Z" fill="black"/>
<path d="M81.3879 69.6077H78.4429V72.5527H81.3879V69.6077Z" fill="black"/>
<path d="M81.3879 72.5527H78.4429V75.4977H81.3879V72.5527Z" fill="black"/>
<path d="M81.3879 75.4978H78.4429V78.4428H81.3879V75.4978Z" fill="black"/>
<path d="M81.3879 78.4429H78.4429V81.3879H81.3879V78.4429Z" fill="black"/>
<path d="M81.3879 87.2778H78.4429V90.2228H81.3879V87.2778Z" fill="black"/>
<path d="M81.3879 90.2227H78.4429V93.1677H81.3879V90.2227Z" fill="black"/>
<path d="M84.3327 40.1577H81.3877V43.1027H84.3327V40.1577Z" fill="black"/>
<path d="M84.3327 46.0476H81.3877V48.9926H84.3327V46.0476Z" fill="black"/>
<path d="M84.3327 48.9927H81.3877V51.9377H84.3327V48.9927Z" fill="black"/>
<path d="M84.3327 54.8828H81.3877V57.8278H84.3327V54.8828Z" fill="black"/>
<path d="M84.3327 57.8276H81.3877V60.7726H84.3327V57.8276Z" fill="black"/>
<path d="M84.3327 75.4978H81.3877V78.4428H84.3327V75.4978Z" fill="black"/>
<path d="M84.3327 84.3328H81.3877V87.2778H84.3327V84.3328Z" fill="black"/>
<path d="M84.3327 87.2776H81.3877V90.2226H84.3327V87.2776Z" fill="black"/>
<path d="M87.2778 37.2126H84.3328V40.1576H87.2778V37.2126Z" fill="black"/>
<path d="M87.2778 40.1577H84.3328V43.1027H87.2778V40.1577Z" fill="black"/>
<path d="M87.2778 43.1028H84.3328V46.0478H87.2778V43.1028Z" fill="black"/>
<path d="M87.2778 46.0476H84.3328V48.9926H87.2778V46.0476Z" fill="black"/>
<path d="M87.2778 48.9927H84.3328V51.9377H87.2778V48.9927Z" fill="black"/>
<path d="M87.2778 54.8828H84.3328V57.8278H87.2778V54.8828Z" fill="black"/>
<path d="M87.2778 60.7727H84.3328V63.7177H87.2778V60.7727Z" fill="black"/>
<path d="M87.2778 63.7175H84.3328V66.6625H87.2778V63.7175Z" fill="black"/>
<path d="M87.2778 66.6626H84.3328V69.6076H87.2778V66.6626Z" fill="black"/>
<path d="M87.2778 69.6077H84.3328V72.5527H87.2778V69.6077Z" fill="black"/>
<path d="M87.2778 81.3877H84.3328V84.3327H87.2778V81.3877Z" fill="black"/>
<path d="M87.2778 87.2776H84.3328V90.2226H87.2778V87.2776Z" fill="black"/>
<path d="M87.2778 90.2227H84.3328V93.1677H87.2778V90.2227Z" fill="black"/>
<path d="M90.2226 31.3228H87.2776V34.2678H90.2226V31.3228Z" fill="black"/>
<path d="M90.2226 34.2676H87.2776V37.2126H90.2226V34.2676Z" fill="black"/>
<path d="M90.2226 48.9927H87.2776V51.9377H90.2226V48.9927Z" fill="black"/>
<path d="M90.2226 57.8276H87.2776V60.7726H90.2226V57.8276Z" fill="black"/>
<path d="M90.2226 72.5527H87.2776V75.4977H90.2226V72.5527Z" fill="black"/>
<path d="M90.2226 75.4978H87.2776V78.4428H90.2226V75.4978Z" fill="black"/>
<path d="M90.2226 81.3877H87.2776V84.3327H90.2226V81.3877Z" fill="black"/>
<path d="M90.2226 87.2776H87.2776V90.2226H90.2226V87.2776Z" fill="black"/>
<path d="M90.2226 90.2227H87.2776V93.1677H90.2226V90.2227Z" fill="black"/>
<path d="M93.1677 34.2676H90.2227V37.2126H93.1677V34.2676Z" fill="black"/>
<path d="M93.1677 37.2126H90.2227V40.1576H93.1677V37.2126Z" fill="black"/>
<path d="M93.1677 40.1577H90.2227V43.1027H93.1677V40.1577Z" fill="black"/>
<path d="M93.1677 46.0476H90.2227V48.9926H93.1677V46.0476Z" fill="black"/>
<path d="M93.1677 51.9377H90.2227V54.8827H93.1677V51.9377Z" fill="black"/>
<path d="M93.1677 57.8276H90.2227V60.7726H93.1677V57.8276Z" fill="black"/>
<path d="M93.1677 66.6626H90.2227V69.6076H93.1677V66.6626Z" fill="black"/>
<path d="M93.1677 72.5527H90.2227V75.4977H93.1677V72.5527Z" fill="black"/>
<path d="M93.1677 78.4426H90.2227V81.3876H93.1677V78.4426Z" fill="black"/>
<path d="M93.1677 81.3877H90.2227V84.3327H93.1677V81.3877Z" fill="black"/>
<path d="M93.1677 84.3328H90.2227V87.2778H93.1677V84.3328Z" fill="black"/>
<path d="M93.1677 87.2776H90.2227V90.2226H93.1677V87.2776Z" fill="black"/>
<path d="M10.7077 7.7627H7.7627V10.7077H10.7077V7.7627Z" fill="black"/>
<path d="M10.7077 10.7078H7.7627V13.6528H10.7077V10.7078Z" fill="black"/>
<path d="M10.7077 13.6526H7.7627V16.5976H10.7077V13.6526Z" fill="black"/>
<path d="M10.7077 16.5977H7.7627V19.5427H10.7077V16.5977Z" fill="black"/>
<path d="M10.7077 19.5427H7.7627V22.4877H10.7077V19.5427Z" fill="black"/>
<path d="M10.7077 22.4878H7.7627V25.4328H10.7077V22.4878Z" fill="black"/>
<path d="M10.7077 25.4326H7.7627V28.3776H10.7077V25.4326Z" fill="black"/>
<path d="M13.6528 7.7627H10.7078V10.7077H13.6528V7.7627Z" fill="black"/>
<path d="M13.6528 25.4326H10.7078V28.3776H13.6528V25.4326Z" fill="black"/>
<path d="M16.5976 7.7627H13.6526V10.7077H16.5976V7.7627Z" fill="black"/>
<path d="M16.5976 25.4326H13.6526V28.3776H16.5976V25.4326Z" fill="black"/>
<path d="M19.5427 7.7627H16.5977V10.7077H19.5427V7.7627Z" fill="black"/>
<path d="M19.5427 25.4326H16.5977V28.3776H19.5427V25.4326Z" fill="black"/>
<path d="M22.4877 7.7627H19.5427V10.7077H22.4877V7.7627Z" fill="black"/>
<path d="M22.4877 25.4326H19.5427V28.3776H22.4877V25.4326Z" fill="black"/>
<path d="M25.4328 7.7627H22.4878V10.7077H25.4328V7.7627Z" fill="black"/>
<path d="M25.4328 25.4326H22.4878V28.3776H25.4328V25.4326Z" fill="black"/>
<path d="M28.3776 7.7627H25.4326V10.7077H28.3776V7.7627Z" fill="black"/>
<path d="M28.3776 10.7078H25.4326V13.6528H28.3776V10.7078Z" fill="black"/>
<path d="M28.3776 13.6526H25.4326V16.5976H28.3776V13.6526Z" fill="black"/>
<path d="M28.3776 16.5977H25.4326V19.5427H28.3776V16.5977Z" fill="black"/>
<path d="M28.3776 19.5427H25.4326V22.4877H28.3776V19.5427Z" fill="black"/>
<path d="M28.3776 22.4878H25.4326V25.4328H28.3776V22.4878Z" fill="black"/>
<path d="M28.3776 25.4326H25.4326V28.3776H28.3776V25.4326Z" fill="black"/>
<path d="M16.5976 13.6526H13.6526V16.5976H16.5976V13.6526Z" fill="black"/>
<path d="M16.5976 16.5977H13.6526V19.5427H16.5976V16.5977Z" fill="black"/>
<path d="M16.5976 19.5425H13.6526V22.4875H16.5976V19.5425Z" fill="black"/>
<path d="M19.5427 13.6526H16.5977V16.5976H19.5427V13.6526Z" fill="black"/>
<path d="M19.5427 16.5977H16.5977V19.5427H19.5427V16.5977Z" fill="black"/>
<path d="M19.5427 19.5425H16.5977V22.4875H19.5427V19.5425Z" fill="black"/>
<path d="M22.4875 13.6526H19.5425V16.5976H22.4875V13.6526Z" fill="black"/>
<path d="M22.4875 16.5977H19.5425V19.5427H22.4875V16.5977Z" fill="black"/>
<path d="M22.4875 19.5425H19.5425V22.4875H22.4875V19.5425Z" fill="black"/>
<path d="M75.4975 7.76245H72.5525V10.7075H75.4975V7.76245Z" fill="black"/>
<path d="M75.4975 10.7075H72.5525V13.6525H75.4975V10.7075Z" fill="black"/>
<path d="M75.4975 13.6523H72.5525V16.5973H75.4975V13.6523Z" fill="black"/>
<path d="M75.4975 16.5974H72.5525V19.5424H75.4975V16.5974Z" fill="black"/>
<path d="M75.4975 19.5425H72.5525V22.4875H75.4975V19.5425Z" fill="black"/>
<path d="M75.4975 22.4875H72.5525V25.4325H75.4975V22.4875Z" fill="black"/>
<path d="M75.4975 25.4324H72.5525V28.3774H75.4975V25.4324Z" fill="black"/>
<path d="M78.4426 7.76245H75.4976V10.7075H78.4426V7.76245Z" fill="black"/>
<path d="M78.4426 25.4324H75.4976V28.3774H78.4426V25.4324Z" fill="black"/>
<path d="M81.3874 7.76245H78.4424V10.7075H81.3874V7.76245Z" fill="black"/>
<path d="M81.3874 25.4324H78.4424V28.3774H81.3874V25.4324Z" fill="black"/>
<path d="M84.3325 7.76245H81.3875V10.7075H84.3325V7.76245Z" fill="black"/>
<path d="M84.3325 25.4324H81.3875V28.3774H84.3325V25.4324Z" fill="black"/>
<path d="M87.2775 7.76245H84.3325V10.7075H87.2775V7.76245Z" fill="black"/>
<path d="M87.2775 25.4324H84.3325V28.3774H87.2775V25.4324Z" fill="black"/>
<path d="M90.2226 7.76245H87.2776V10.7075H90.2226V7.76245Z" fill="black"/>
<path d="M90.2226 25.4324H87.2776V28.3774H90.2226V25.4324Z" fill="black"/>
<path d="M93.1674 7.76245H90.2224V10.7075H93.1674V7.76245Z" fill="black"/>
<path d="M93.1674 10.7075H90.2224V13.6525H93.1674V10.7075Z" fill="black"/>
<path d="M93.1674 13.6523H90.2224V16.5973H93.1674V13.6523Z" fill="black"/>
<path d="M93.1674 16.5974H90.2224V19.5424H93.1674V16.5974Z" fill="black"/>
<path d="M93.1674 19.5425H90.2224V22.4875H93.1674V19.5425Z" fill="black"/>
<path d="M93.1674 22.4875H90.2224V25.4325H93.1674V22.4875Z" fill="black"/>
<path d="M93.1674 25.4324H90.2224V28.3774H93.1674V25.4324Z" fill="black"/>
<path d="M81.3874 13.6523H78.4424V16.5973H81.3874V13.6523Z" fill="black"/>
<path d="M81.3874 16.5974H78.4424V19.5424H81.3874V16.5974Z" fill="black"/>
<path d="M81.3874 19.5422H78.4424V22.4872H81.3874V19.5422Z" fill="black"/>
<path d="M84.3325 13.6523H81.3875V16.5973H84.3325V13.6523Z" fill="black"/>
<path d="M84.3325 16.5974H81.3875V19.5424H84.3325V16.5974Z" fill="black"/>
<path d="M84.3325 19.5422H81.3875V22.4872H84.3325V19.5422Z" fill="black"/>
<path d="M87.2773 13.6523H84.3323V16.5973H87.2773V13.6523Z" fill="black"/>
<path d="M87.2773 16.5974H84.3323V19.5424H87.2773V16.5974Z" fill="black"/>
<path d="M87.2773 19.5422H84.3323V22.4872H87.2773V19.5422Z" fill="black"/>
<path d="M10.7075 72.5525H7.76245V75.4975H10.7075V72.5525Z" fill="black"/>
<path d="M10.7075 75.4976H7.76245V78.4426H10.7075V75.4976Z" fill="black"/>
<path d="M10.7075 78.4424H7.76245V81.3874H10.7075V78.4424Z" fill="black"/>
<path d="M10.7075 81.3875H7.76245V84.3325H10.7075V81.3875Z" fill="black"/>
<path d="M10.7075 84.3325H7.76245V87.2775H10.7075V84.3325Z" fill="black"/>
<path d="M10.7075 87.2776H7.76245V90.2226H10.7075V87.2776Z" fill="black"/>
<path d="M10.7075 90.2224H7.76245V93.1674H10.7075V90.2224Z" fill="black"/>
<path d="M13.6525 72.5525H10.7075V75.4975H13.6525V72.5525Z" fill="black"/>
<path d="M13.6525 90.2224H10.7075V93.1674H13.6525V90.2224Z" fill="black"/>
<path d="M16.5973 72.5525H13.6523V75.4975H16.5973V72.5525Z" fill="black"/>
<path d="M16.5973 90.2224H13.6523V93.1674H16.5973V90.2224Z" fill="black"/>
<path d="M19.5424 72.5525H16.5974V75.4975H19.5424V72.5525Z" fill="black"/>
<path d="M19.5424 90.2224H16.5974V93.1674H19.5424V90.2224Z" fill="black"/>
<path d="M22.4875 72.5525H19.5425V75.4975H22.4875V72.5525Z" fill="black"/>
<path d="M22.4875 90.2224H19.5425V93.1674H22.4875V90.2224Z" fill="black"/>
<path d="M25.4325 72.5525H22.4875V75.4975H25.4325V72.5525Z" fill="black"/>
<path d="M25.4325 90.2224H22.4875V93.1674H25.4325V90.2224Z" fill="black"/>
<path d="M28.3774 72.5525H25.4324V75.4975H28.3774V72.5525Z" fill="black"/>
<path d="M28.3774 75.4976H25.4324V78.4426H28.3774V75.4976Z" fill="black"/>
<path d="M28.3774 78.4424H25.4324V81.3874H28.3774V78.4424Z" fill="black"/>
<path d="M28.3774 81.3875H25.4324V84.3325H28.3774V81.3875Z" fill="black"/>
<path d="M28.3774 84.3325H25.4324V87.2775H28.3774V84.3325Z" fill="black"/>
<path d="M28.3774 87.2776H25.4324V90.2226H28.3774V87.2776Z" fill="black"/>
<path d="M28.3774 90.2224H25.4324V93.1674H28.3774V90.2224Z" fill="black"/>
<path d="M16.5973 78.4424H13.6523V81.3874H16.5973V78.4424Z" fill="black"/>
<path d="M16.5973 81.3875H13.6523V84.3325H16.5973V81.3875Z" fill="black"/>
<path d="M16.5973 84.3323H13.6523V87.2773H16.5973V84.3323Z" fill="black"/>
<path d="M19.5424 78.4424H16.5974V81.3874H19.5424V78.4424Z" fill="black"/>
<path d="M19.5424 81.3875H16.5974V84.3325H19.5424V81.3875Z" fill="black"/>
<path d="M19.5424 84.3323H16.5974V87.2773H19.5424V84.3323Z" fill="black"/>
<path d="M22.4872 78.4424H19.5422V81.3874H22.4872V78.4424Z" fill="black"/>
<path d="M22.4872 81.3875H19.5422V84.3325H22.4872V81.3875Z" fill="black"/>
<path d="M22.4872 84.3323H19.5422V87.2773H22.4872V84.3323Z" fill="black"/>
</svg>
