<svg width="100" height="100" viewBox="0 0 100 100" fill="none" xmlns="http://www.w3.org/2000/svg">
<rect width="100" height="100" rx="6" fill="white"/>
<g clip-path="url(#clip0_1595_118925)">
<path d="M96 3H3V96H96V3Z" fill="white"/>
<path d="M43.0606 7H40.4849V9.57576H43.0606V7Z" fill="black"/>
<path d="M50.7879 7H48.2122V9.57576H50.7879V7Z" fill="black"/>
<path d="M53.3638 7H50.7881V9.57576H53.3638V7Z" fill="black"/>
<path d="M55.9395 7H53.3638V9.57576H55.9395V7Z" fill="black"/>
<path d="M58.5152 7H55.9395V9.57576H58.5152V7Z" fill="black"/>
<path d="M61.0909 7H58.5151V9.57576H61.0909V7Z" fill="black"/>
<path d="M68.8182 7H66.2424V9.57576H68.8182V7Z" fill="black"/>
<path d="M71.3941 7H68.8184V9.57576H71.3941V7Z" fill="black"/>
<path d="M40.4849 9.57593H37.9092V12.1517H40.4849V9.57593Z" fill="black"/>
<path d="M43.0606 9.57593H40.4849V12.1517H43.0606V9.57593Z" fill="black"/>
<path d="M45.6365 9.57593H43.0608V12.1517H45.6365V9.57593Z" fill="black"/>
<path d="M48.2122 9.57593H45.6365V12.1517H48.2122V9.57593Z" fill="black"/>
<path d="M50.7879 9.57593H48.2122V12.1517H50.7879V9.57593Z" fill="black"/>
<path d="M53.3638 9.57593H50.7881V12.1517H53.3638V9.57593Z" fill="black"/>
<path d="M66.2425 9.57593H63.6667V12.1517H66.2425V9.57593Z" fill="black"/>
<path d="M30.182 12.1516H27.6062V14.7274H30.182V12.1516Z" fill="black"/>
<path d="M32.7576 12.1516H30.1819V14.7274H32.7576V12.1516Z" fill="black"/>
<path d="M35.3336 12.1516H32.7578V14.7274H35.3336V12.1516Z" fill="black"/>
<path d="M43.0606 12.1516H40.4849V14.7274H43.0606V12.1516Z" fill="black"/>
<path d="M48.2122 12.1516H45.6365V14.7274H48.2122V12.1516Z" fill="black"/>
<path d="M50.7879 12.1516H48.2122V14.7274H50.7879V12.1516Z" fill="black"/>
<path d="M53.3638 12.1516H50.7881V14.7274H53.3638V12.1516Z" fill="black"/>
<path d="M55.9395 12.1516H53.3638V14.7274H55.9395V12.1516Z" fill="black"/>
<path d="M61.0909 12.1516H58.5151V14.7274H61.0909V12.1516Z" fill="black"/>
<path d="M68.8182 12.1516H66.2424V14.7274H68.8182V12.1516Z" fill="black"/>
<path d="M30.182 14.7273H27.6062V17.3031H30.182V14.7273Z" fill="black"/>
<path d="M32.7576 14.7273H30.1819V17.3031H32.7576V14.7273Z" fill="black"/>
<path d="M35.3336 14.7273H32.7578V17.3031H35.3336V14.7273Z" fill="black"/>
<path d="M40.4849 14.7273H37.9092V17.3031H40.4849V14.7273Z" fill="black"/>
<path d="M45.6365 14.7273H43.0608V17.3031H45.6365V14.7273Z" fill="black"/>
<path d="M50.7879 14.7273H48.2122V17.3031H50.7879V14.7273Z" fill="black"/>
<path d="M61.0909 14.7273H58.5151V17.3031H61.0909V14.7273Z" fill="black"/>
<path d="M63.6668 14.7273H61.0911V17.3031H63.6668V14.7273Z" fill="black"/>
<path d="M66.2425 14.7273H63.6667V17.3031H66.2425V14.7273Z" fill="black"/>
<path d="M71.3941 14.7273H68.8184V17.3031H71.3941V14.7273Z" fill="black"/>
<path d="M30.182 17.3032H27.6062V19.879H30.182V17.3032Z" fill="black"/>
<path d="M35.3336 17.303H32.7578V19.8787H35.3336V17.303Z" fill="black"/>
<path d="M40.4849 17.3032H37.9092V19.879H40.4849V17.3032Z" fill="black"/>
<path d="M43.0606 17.3032H40.4849V19.879H43.0606V17.3032Z" fill="black"/>
<path d="M48.2122 17.3032H45.6365V19.879H48.2122V17.3032Z" fill="black"/>
<path d="M53.3638 17.303H50.7881V19.8787H53.3638V17.303Z" fill="black"/>
<path d="M55.9395 17.303H53.3638V19.8787H55.9395V17.303Z" fill="black"/>
<path d="M71.3941 17.303H68.8184V19.8787H71.3941V17.303Z" fill="black"/>
<path d="M30.182 19.8789H27.6062V22.4547H30.182V19.8789Z" fill="black"/>
<path d="M37.9093 19.8789H35.3335V22.4547H37.9093V19.8789Z" fill="black"/>
<path d="M40.4849 19.8789H37.9092V22.4547H40.4849V19.8789Z" fill="black"/>
<path d="M43.0606 19.8789H40.4849V22.4547H43.0606V19.8789Z" fill="black"/>
<path d="M45.6365 19.8789H43.0608V22.4547H45.6365V19.8789Z" fill="black"/>
<path d="M48.2122 19.8789H45.6365V22.4547H48.2122V19.8789Z" fill="black"/>
<path d="M50.7879 19.8789H48.2122V22.4547H50.7879V19.8789Z" fill="black"/>
<path d="M55.9395 19.8789H53.3638V22.4547H55.9395V19.8789Z" fill="black"/>
<path d="M61.0909 19.8789H58.5151V22.4547H61.0909V19.8789Z" fill="black"/>
<path d="M66.2425 19.8789H63.6667V22.4547H66.2425V19.8789Z" fill="black"/>
<path d="M71.3941 19.8789H68.8184V22.4547H71.3941V19.8789Z" fill="black"/>
<path d="M30.182 22.4546H27.6062V25.0303H30.182V22.4546Z" fill="black"/>
<path d="M35.3336 22.4546H32.7578V25.0303H35.3336V22.4546Z" fill="black"/>
<path d="M40.4849 22.4546H37.9092V25.0303H40.4849V22.4546Z" fill="black"/>
<path d="M45.6365 22.4546H43.0608V25.0303H45.6365V22.4546Z" fill="black"/>
<path d="M50.7879 22.4546H48.2122V25.0303H50.7879V22.4546Z" fill="black"/>
<path d="M55.9395 22.4546H53.3638V25.0303H55.9395V22.4546Z" fill="black"/>
<path d="M61.0909 22.4546H58.5151V25.0303H61.0909V22.4546Z" fill="black"/>
<path d="M66.2425 22.4546H63.6667V25.0303H66.2425V22.4546Z" fill="black"/>
<path d="M71.3941 22.4546H68.8184V25.0303H71.3941V22.4546Z" fill="black"/>
<path d="M30.182 25.0305H27.6062V27.6063H30.182V25.0305Z" fill="black"/>
<path d="M32.7576 25.0305H30.1819V27.6063H32.7576V25.0305Z" fill="black"/>
<path d="M37.9093 25.0303H35.3335V27.606H37.9093V25.0303Z" fill="black"/>
<path d="M45.6365 25.0305H43.0608V27.6063H45.6365V25.0305Z" fill="black"/>
<path d="M48.2122 25.0305H45.6365V27.6063H48.2122V25.0305Z" fill="black"/>
<path d="M63.6668 25.0305H61.0911V27.6063H63.6668V25.0305Z" fill="black"/>
<path d="M9.57576 27.6062H7V30.182H9.57576V27.6062Z" fill="black"/>
<path d="M14.7276 27.6062H12.1519V30.182H14.7276V27.6062Z" fill="black"/>
<path d="M17.3033 27.6062H14.7275V30.182H17.3033V27.6062Z" fill="black"/>
<path d="M19.879 27.6062H17.3032V30.182H19.879V27.6062Z" fill="black"/>
<path d="M22.4547 27.6062H19.8789V30.182H22.4547V27.6062Z" fill="black"/>
<path d="M25.0303 27.6062H22.4546V30.182H25.0303V27.6062Z" fill="black"/>
<path d="M32.7576 27.6062H30.1819V30.182H32.7576V27.6062Z" fill="black"/>
<path d="M37.9093 27.6062H35.3335V30.182H37.9093V27.6062Z" fill="black"/>
<path d="M40.4849 27.6062H37.9092V30.182H40.4849V27.6062Z" fill="black"/>
<path d="M43.0606 27.6062H40.4849V30.182H43.0606V27.6062Z" fill="black"/>
<path d="M45.6365 27.6062H43.0608V30.182H45.6365V27.6062Z" fill="black"/>
<path d="M48.2122 27.6062H45.6365V30.182H48.2122V27.6062Z" fill="black"/>
<path d="M53.3638 27.6062H50.7881V30.182H53.3638V27.6062Z" fill="black"/>
<path d="M66.2425 27.6062H63.6667V30.182H66.2425V27.6062Z" fill="black"/>
<path d="M71.3941 27.6062H68.8184V30.182H71.3941V27.6062Z" fill="black"/>
<path d="M76.5455 27.6062H73.9697V30.182H76.5455V27.6062Z" fill="black"/>
<path d="M79.1212 27.6062H76.5454V30.182H79.1212V27.6062Z" fill="black"/>
<path d="M81.6971 27.6062H79.1213V30.182H81.6971V27.6062Z" fill="black"/>
<path d="M84.2728 27.6062H81.697V30.182H84.2728V27.6062Z" fill="black"/>
<path d="M86.8485 27.6062H84.2727V30.182H86.8485V27.6062Z" fill="black"/>
<path d="M9.57576 30.1819H7V32.7576H9.57576V30.1819Z" fill="black"/>
<path d="M14.7276 30.1819H12.1519V32.7576H14.7276V30.1819Z" fill="black"/>
<path d="M19.879 30.1819H17.3032V32.7576H19.879V30.1819Z" fill="black"/>
<path d="M32.7576 30.1819H30.1819V32.7576H32.7576V30.1819Z" fill="black"/>
<path d="M35.3336 30.1819H32.7578V32.7576H35.3336V30.1819Z" fill="black"/>
<path d="M40.4849 30.1819H37.9092V32.7576H40.4849V30.1819Z" fill="black"/>
<path d="M50.7879 30.1819H48.2122V32.7576H50.7879V30.1819Z" fill="black"/>
<path d="M58.5152 30.1819H55.9395V32.7576H58.5152V30.1819Z" fill="black"/>
<path d="M61.0909 30.1819H58.5151V32.7576H61.0909V30.1819Z" fill="black"/>
<path d="M63.6668 30.1819H61.0911V32.7576H63.6668V30.1819Z" fill="black"/>
<path d="M68.8182 30.1819H66.2424V32.7576H68.8182V30.1819Z" fill="black"/>
<path d="M76.5455 30.1819H73.9697V32.7576H76.5455V30.1819Z" fill="black"/>
<path d="M79.1212 30.1819H76.5454V32.7576H79.1212V30.1819Z" fill="black"/>
<path d="M84.2728 30.1819H81.697V32.7576H84.2728V30.1819Z" fill="black"/>
<path d="M86.8485 30.1819H84.2727V32.7576H86.8485V30.1819Z" fill="black"/>
<path d="M92.0003 30.1819H89.4246V32.7576H92.0003V30.1819Z" fill="black"/>
<path d="M17.3033 32.7576H14.7275V35.3333H17.3033V32.7576Z" fill="black"/>
<path d="M19.879 32.7576H17.3032V35.3333H19.879V32.7576Z" fill="black"/>
<path d="M25.0303 32.7576H22.4546V35.3333H25.0303V32.7576Z" fill="black"/>
<path d="M27.606 32.7576H25.0303V35.3333H27.606V32.7576Z" fill="black"/>
<path d="M48.2122 32.7576H45.6365V35.3333H48.2122V32.7576Z" fill="black"/>
<path d="M50.7879 32.7576H48.2122V35.3333H50.7879V32.7576Z" fill="black"/>
<path d="M55.9395 32.7576H53.3638V35.3333H55.9395V32.7576Z" fill="black"/>
<path d="M61.0909 32.7576H58.5151V35.3333H61.0909V32.7576Z" fill="black"/>
<path d="M63.6668 32.7576H61.0911V35.3333H63.6668V32.7576Z" fill="black"/>
<path d="M71.3941 32.7576H68.8184V35.3333H71.3941V32.7576Z" fill="black"/>
<path d="M73.97 32.7576H71.3943V35.3333H73.97V32.7576Z" fill="black"/>
<path d="M76.5455 32.7576H73.9697V35.3333H76.5455V32.7576Z" fill="black"/>
<path d="M81.6971 32.7576H79.1213V35.3333H81.6971V32.7576Z" fill="black"/>
<path d="M86.8485 32.7576H84.2727V35.3333H86.8485V32.7576Z" fill="black"/>
<path d="M89.4244 32.7576H86.8486V35.3333H89.4244V32.7576Z" fill="black"/>
<path d="M9.57576 35.3335H7V37.9093H9.57576V35.3335Z" fill="black"/>
<path d="M14.7276 35.3333H12.1519V37.909H14.7276V35.3333Z" fill="black"/>
<path d="M19.879 35.3335H17.3032V37.9093H19.879V35.3335Z" fill="black"/>
<path d="M22.4547 35.3335H19.8789V37.9093H22.4547V35.3335Z" fill="black"/>
<path d="M27.606 35.3335H25.0303V37.9093H27.606V35.3335Z" fill="black"/>
<path d="M37.9093 35.3333H35.3335V37.909H37.9093V35.3333Z" fill="black"/>
<path d="M40.4849 35.3335H37.9092V37.9093H40.4849V35.3335Z" fill="black"/>
<path d="M45.6365 35.3335H43.0608V37.9093H45.6365V35.3335Z" fill="black"/>
<path d="M50.7879 35.3335H48.2122V37.9093H50.7879V35.3335Z" fill="black"/>
<path d="M61.0909 35.3335H58.5151V37.9093H61.0909V35.3335Z" fill="black"/>
<path d="M63.6668 35.3335H61.0911V37.9093H63.6668V35.3335Z" fill="black"/>
<path d="M66.2425 35.3335H63.6667V37.9093H66.2425V35.3335Z" fill="black"/>
<path d="M68.8182 35.3335H66.2424V37.9093H68.8182V35.3335Z" fill="black"/>
<path d="M73.97 35.3333H71.3943V37.909H73.97V35.3333Z" fill="black"/>
<path d="M81.6971 35.3335H79.1213V37.9093H81.6971V35.3335Z" fill="black"/>
<path d="M84.2728 35.3335H81.697V37.9093H84.2728V35.3335Z" fill="black"/>
<path d="M86.8485 35.3335H84.2727V37.9093H86.8485V35.3335Z" fill="black"/>
<path d="M9.57576 37.9092H7V40.4849H9.57576V37.9092Z" fill="black"/>
<path d="M12.1517 37.9092H9.57593V40.4849H12.1517V37.9092Z" fill="black"/>
<path d="M14.7276 37.9092H12.1519V40.4849H14.7276V37.9092Z" fill="black"/>
<path d="M25.0303 37.9092H22.4546V40.4849H25.0303V37.9092Z" fill="black"/>
<path d="M30.182 37.9092H27.6062V40.4849H30.182V37.9092Z" fill="black"/>
<path d="M35.3336 37.9092H32.7578V40.4849H35.3336V37.9092Z" fill="black"/>
<path d="M40.4849 37.9092H37.9092V40.4849H40.4849V37.9092Z" fill="black"/>
<path d="M55.9395 37.9092H53.3638V40.4849H55.9395V37.9092Z" fill="black"/>
<path d="M63.6668 37.9092H61.0911V40.4849H63.6668V37.9092Z" fill="black"/>
<path d="M68.8182 37.9092H66.2424V40.4849H68.8182V37.9092Z" fill="black"/>
<path d="M71.3941 37.9092H68.8184V40.4849H71.3941V37.9092Z" fill="black"/>
<path d="M73.97 37.9092H71.3943V40.4849H73.97V37.9092Z" fill="black"/>
<path d="M79.1212 37.9092H76.5454V40.4849H79.1212V37.9092Z" fill="black"/>
<path d="M84.2728 37.9092H81.697V40.4849H84.2728V37.9092Z" fill="black"/>
<path d="M89.4244 37.9092H86.8486V40.4849H89.4244V37.9092Z" fill="black"/>
<path d="M92.0003 37.9092H89.4246V40.4849H92.0003V37.9092Z" fill="black"/>
<path d="M12.1517 40.4849H9.57593V43.0606H12.1517V40.4849Z" fill="black"/>
<path d="M17.3033 40.4849H14.7275V43.0606H17.3033V40.4849Z" fill="black"/>
<path d="M19.879 40.4849H17.3032V43.0606H19.879V40.4849Z" fill="black"/>
<path d="M22.4547 40.4849H19.8789V43.0606H22.4547V40.4849Z" fill="black"/>
<path d="M27.606 40.4849H25.0303V43.0606H27.606V40.4849Z" fill="black"/>
<path d="M35.3336 40.4849H32.7578V43.0606H35.3336V40.4849Z" fill="black"/>
<path d="M40.4849 40.4849H37.9092V43.0606H40.4849V40.4849Z" fill="black"/>
<path d="M45.6365 40.4849H43.0608V43.0606H45.6365V40.4849Z" fill="black"/>
<path d="M48.2122 40.4849H45.6365V43.0606H48.2122V40.4849Z" fill="black"/>
<path d="M50.7879 40.4849H48.2122V43.0606H50.7879V40.4849Z" fill="black"/>
<path d="M61.0909 40.4849H58.5151V43.0606H61.0909V40.4849Z" fill="black"/>
<path d="M63.6668 40.4849H61.0911V43.0606H63.6668V40.4849Z" fill="black"/>
<path d="M66.2425 40.4849H63.6667V43.0606H66.2425V40.4849Z" fill="black"/>
<path d="M68.8182 40.4849H66.2424V43.0606H68.8182V40.4849Z" fill="black"/>
<path d="M73.97 40.4849H71.3943V43.0606H73.97V40.4849Z" fill="black"/>
<path d="M76.5455 40.4849H73.9697V43.0606H76.5455V40.4849Z" fill="black"/>
<path d="M84.2728 40.4849H81.697V43.0606H84.2728V40.4849Z" fill="black"/>
<path d="M86.8485 40.4849H84.2727V43.0606H86.8485V40.4849Z" fill="black"/>
<path d="M89.4244 40.4849H86.8486V43.0606H89.4244V40.4849Z" fill="black"/>
<path d="M92.0003 40.4849H89.4246V43.0606H92.0003V40.4849Z" fill="black"/>
<path d="M9.57576 43.0608H7V45.6365H9.57576V43.0608Z" fill="black"/>
<path d="M12.1517 43.0608H9.57593V45.6365H12.1517V43.0608Z" fill="black"/>
<path d="M22.4547 43.0608H19.8789V45.6365H22.4547V43.0608Z" fill="black"/>
<path d="M25.0303 43.0608H22.4546V45.6365H25.0303V43.0608Z" fill="black"/>
<path d="M30.182 43.0608H27.6062V45.6365H30.182V43.0608Z" fill="black"/>
<path d="M32.7576 43.0608H30.1819V45.6365H32.7576V43.0608Z" fill="black"/>
<path d="M35.3336 43.0605H32.7578V45.6363H35.3336V43.0605Z" fill="black"/>
<path d="M40.4849 43.0608H37.9092V45.6365H40.4849V43.0608Z" fill="black"/>
<path d="M43.0606 43.0608H40.4849V45.6365H43.0606V43.0608Z" fill="black"/>
<path d="M53.3638 43.0605H50.7881V45.6363H53.3638V43.0605Z" fill="black"/>
<path d="M55.9395 43.0605H53.3638V45.6363H55.9395V43.0605Z" fill="black"/>
<path d="M58.5152 43.0608H55.9395V45.6365H58.5152V43.0608Z" fill="black"/>
<path d="M63.6668 43.0608H61.0911V45.6365H63.6668V43.0608Z" fill="black"/>
<path d="M71.3941 43.0605H68.8184V45.6363H71.3941V43.0605Z" fill="black"/>
<path d="M73.97 43.0605H71.3943V45.6363H73.97V43.0605Z" fill="black"/>
<path d="M76.5455 43.0608H73.9697V45.6365H76.5455V43.0608Z" fill="black"/>
<path d="M84.2728 43.0608H81.697V45.6365H84.2728V43.0608Z" fill="black"/>
<path d="M86.8485 43.0608H84.2727V45.6365H86.8485V43.0608Z" fill="black"/>
<path d="M89.4244 43.0608H86.8486V45.6365H89.4244V43.0608Z" fill="black"/>
<path d="M9.57576 45.6365H7V48.2122H9.57576V45.6365Z" fill="black"/>
<path d="M17.3033 45.6365H14.7275V48.2122H17.3033V45.6365Z" fill="black"/>
<path d="M19.879 45.6365H17.3032V48.2122H19.879V45.6365Z" fill="black"/>
<path d="M30.182 45.6365H27.6062V48.2122H30.182V45.6365Z" fill="black"/>
<path d="M32.7576 45.6365H30.1819V48.2122H32.7576V45.6365Z" fill="black"/>
<path d="M37.9093 45.6365H35.3335V48.2122H37.9093V45.6365Z" fill="black"/>
<path d="M40.4849 45.6365H37.9092V48.2122H40.4849V45.6365Z" fill="black"/>
<path d="M45.6365 45.6365H43.0608V48.2122H45.6365V45.6365Z" fill="black"/>
<path d="M50.7879 45.6365H48.2122V48.2122H50.7879V45.6365Z" fill="black"/>
<path d="M55.9395 45.6365H53.3638V48.2122H55.9395V45.6365Z" fill="black"/>
<path d="M58.5152 45.6365H55.9395V48.2122H58.5152V45.6365Z" fill="black"/>
<path d="M61.0909 45.6365H58.5151V48.2122H61.0909V45.6365Z" fill="black"/>
<path d="M63.6668 45.6365H61.0911V48.2122H63.6668V45.6365Z" fill="black"/>
<path d="M66.2425 45.6365H63.6667V48.2122H66.2425V45.6365Z" fill="black"/>
<path d="M68.8182 45.6365H66.2424V48.2122H68.8182V45.6365Z" fill="black"/>
<path d="M71.3941 45.6365H68.8184V48.2122H71.3941V45.6365Z" fill="black"/>
<path d="M73.97 45.6365H71.3943V48.2122H73.97V45.6365Z" fill="black"/>
<path d="M76.5455 45.6365H73.9697V48.2122H76.5455V45.6365Z" fill="black"/>
<path d="M81.6971 45.6365H79.1213V48.2122H81.6971V45.6365Z" fill="black"/>
<path d="M84.2728 45.6365H81.697V48.2122H84.2728V45.6365Z" fill="black"/>
<path d="M86.8485 45.6365H84.2727V48.2122H86.8485V45.6365Z" fill="black"/>
<path d="M12.1517 48.2122H9.57593V50.7879H12.1517V48.2122Z" fill="black"/>
<path d="M19.879 48.2122H17.3032V50.7879H19.879V48.2122Z" fill="black"/>
<path d="M22.4547 48.2122H19.8789V50.7879H22.4547V48.2122Z" fill="black"/>
<path d="M25.0303 48.2122H22.4546V50.7879H25.0303V48.2122Z" fill="black"/>
<path d="M30.182 48.2122H27.6062V50.7879H30.182V48.2122Z" fill="black"/>
<path d="M45.6365 48.2122H43.0608V50.7879H45.6365V48.2122Z" fill="black"/>
<path d="M50.7879 48.2122H48.2122V50.7879H50.7879V48.2122Z" fill="black"/>
<path d="M53.3638 48.2122H50.7881V50.7879H53.3638V48.2122Z" fill="black"/>
<path d="M58.5152 48.2122H55.9395V50.7879H58.5152V48.2122Z" fill="black"/>
<path d="M66.2425 48.2122H63.6667V50.7879H66.2425V48.2122Z" fill="black"/>
<path d="M71.3941 48.2122H68.8184V50.7879H71.3941V48.2122Z" fill="black"/>
<path d="M73.97 48.2122H71.3943V50.7879H73.97V48.2122Z" fill="black"/>
<path d="M79.1212 48.2122H76.5454V50.7879H79.1212V48.2122Z" fill="black"/>
<path d="M81.6971 48.2122H79.1213V50.7879H81.6971V48.2122Z" fill="black"/>
<path d="M86.8485 48.2122H84.2727V50.7879H86.8485V48.2122Z" fill="black"/>
<path d="M92.0003 48.2122H89.4246V50.7879H92.0003V48.2122Z" fill="black"/>
<path d="M12.1517 50.7878H9.57593V53.3636H12.1517V50.7878Z" fill="black"/>
<path d="M19.879 50.7878H17.3032V53.3636H19.879V50.7878Z" fill="black"/>
<path d="M22.4547 50.7878H19.8789V53.3636H22.4547V50.7878Z" fill="black"/>
<path d="M32.7576 50.7878H30.1819V53.3636H32.7576V50.7878Z" fill="black"/>
<path d="M35.3336 50.7878H32.7578V53.3636H35.3336V50.7878Z" fill="black"/>
<path d="M40.4849 50.7878H37.9092V53.3636H40.4849V50.7878Z" fill="black"/>
<path d="M43.0606 50.7878H40.4849V53.3636H43.0606V50.7878Z" fill="black"/>
<path d="M53.3638 50.7878H50.7881V53.3636H53.3638V50.7878Z" fill="black"/>
<path d="M55.9395 50.7878H53.3638V53.3636H55.9395V50.7878Z" fill="black"/>
<path d="M58.5152 50.7878H55.9395V53.3636H58.5152V50.7878Z" fill="black"/>
<path d="M61.0909 50.7878H58.5151V53.3636H61.0909V50.7878Z" fill="black"/>
<path d="M66.2425 50.7878H63.6667V53.3636H66.2425V50.7878Z" fill="black"/>
<path d="M68.8182 50.7878H66.2424V53.3636H68.8182V50.7878Z" fill="black"/>
<path d="M76.5455 50.7878H73.9697V53.3636H76.5455V50.7878Z" fill="black"/>
<path d="M79.1212 50.7878H76.5454V53.3636H79.1212V50.7878Z" fill="black"/>
<path d="M84.2728 50.7878H81.697V53.3636H84.2728V50.7878Z" fill="black"/>
<path d="M86.8485 50.7878H84.2727V53.3636H86.8485V50.7878Z" fill="black"/>
<path d="M92.0003 50.7878H89.4246V53.3636H92.0003V50.7878Z" fill="black"/>
<path d="M9.57576 53.3638H7V55.9395H9.57576V53.3638Z" fill="black"/>
<path d="M12.1517 53.3638H9.57593V55.9395H12.1517V53.3638Z" fill="black"/>
<path d="M14.7276 53.3635H12.1519V55.9393H14.7276V53.3635Z" fill="black"/>
<path d="M25.0303 53.3638H22.4546V55.9395H25.0303V53.3638Z" fill="black"/>
<path d="M30.182 53.3638H27.6062V55.9395H30.182V53.3638Z" fill="black"/>
<path d="M32.7576 53.3638H30.1819V55.9395H32.7576V53.3638Z" fill="black"/>
<path d="M37.9093 53.3635H35.3335V55.9393H37.9093V53.3635Z" fill="black"/>
<path d="M43.0606 53.3638H40.4849V55.9395H43.0606V53.3638Z" fill="black"/>
<path d="M45.6365 53.3638H43.0608V55.9395H45.6365V53.3638Z" fill="black"/>
<path d="M48.2122 53.3638H45.6365V55.9395H48.2122V53.3638Z" fill="black"/>
<path d="M50.7879 53.3638H48.2122V55.9395H50.7879V53.3638Z" fill="black"/>
<path d="M53.3638 53.3635H50.7881V55.9393H53.3638V53.3635Z" fill="black"/>
<path d="M66.2425 53.3638H63.6667V55.9395H66.2425V53.3638Z" fill="black"/>
<path d="M76.5455 53.3638H73.9697V55.9395H76.5455V53.3638Z" fill="black"/>
<path d="M79.1212 53.3638H76.5454V55.9395H79.1212V53.3638Z" fill="black"/>
<path d="M81.6971 53.3638H79.1213V55.9395H81.6971V53.3638Z" fill="black"/>
<path d="M86.8485 53.3638H84.2727V55.9395H86.8485V53.3638Z" fill="black"/>
<path d="M89.4244 53.3638H86.8486V55.9395H89.4244V53.3638Z" fill="black"/>
<path d="M9.57576 55.9395H7V58.5152H9.57576V55.9395Z" fill="black"/>
<path d="M14.7276 55.9395H12.1519V58.5152H14.7276V55.9395Z" fill="black"/>
<path d="M17.3033 55.9395H14.7275V58.5152H17.3033V55.9395Z" fill="black"/>
<path d="M30.182 55.9395H27.6062V58.5152H30.182V55.9395Z" fill="black"/>
<path d="M32.7576 55.9395H30.1819V58.5152H32.7576V55.9395Z" fill="black"/>
<path d="M35.3336 55.9395H32.7578V58.5152H35.3336V55.9395Z" fill="black"/>
<path d="M37.9093 55.9395H35.3335V58.5152H37.9093V55.9395Z" fill="black"/>
<path d="M40.4849 55.9395H37.9092V58.5152H40.4849V55.9395Z" fill="black"/>
<path d="M45.6365 55.9395H43.0608V58.5152H45.6365V55.9395Z" fill="black"/>
<path d="M53.3638 55.9395H50.7881V58.5152H53.3638V55.9395Z" fill="black"/>
<path d="M55.9395 55.9395H53.3638V58.5152H55.9395V55.9395Z" fill="black"/>
<path d="M58.5152 55.9395H55.9395V58.5152H58.5152V55.9395Z" fill="black"/>
<path d="M71.3941 55.9395H68.8184V58.5152H71.3941V55.9395Z" fill="black"/>
<path d="M73.97 55.9395H71.3943V58.5152H73.97V55.9395Z" fill="black"/>
<path d="M79.1212 55.9395H76.5454V58.5152H79.1212V55.9395Z" fill="black"/>
<path d="M81.6971 55.9395H79.1213V58.5152H81.6971V55.9395Z" fill="black"/>
<path d="M84.2728 55.9395H81.697V58.5152H84.2728V55.9395Z" fill="black"/>
<path d="M86.8485 55.9395H84.2727V58.5152H86.8485V55.9395Z" fill="black"/>
<path d="M89.4244 55.9395H86.8486V58.5152H89.4244V55.9395Z" fill="black"/>
<path d="M9.57576 58.5151H7V61.0909H9.57576V58.5151Z" fill="black"/>
<path d="M12.1517 58.5151H9.57593V61.0909H12.1517V58.5151Z" fill="black"/>
<path d="M17.3033 58.5151H14.7275V61.0909H17.3033V58.5151Z" fill="black"/>
<path d="M22.4547 58.5151H19.8789V61.0909H22.4547V58.5151Z" fill="black"/>
<path d="M25.0303 58.5151H22.4546V61.0909H25.0303V58.5151Z" fill="black"/>
<path d="M27.606 58.5151H25.0303V61.0909H27.606V58.5151Z" fill="black"/>
<path d="M40.4849 58.5151H37.9092V61.0909H40.4849V58.5151Z" fill="black"/>
<path d="M43.0606 58.5151H40.4849V61.0909H43.0606V58.5151Z" fill="black"/>
<path d="M45.6365 58.5151H43.0608V61.0909H45.6365V58.5151Z" fill="black"/>
<path d="M48.2122 58.5151H45.6365V61.0909H48.2122V58.5151Z" fill="black"/>
<path d="M50.7879 58.5151H48.2122V61.0909H50.7879V58.5151Z" fill="black"/>
<path d="M61.0909 58.5151H58.5151V61.0909H61.0909V58.5151Z" fill="black"/>
<path d="M63.6668 58.5151H61.0911V61.0909H63.6668V58.5151Z" fill="black"/>
<path d="M66.2425 58.5151H63.6667V61.0909H66.2425V58.5151Z" fill="black"/>
<path d="M73.97 58.5151H71.3943V61.0909H73.97V58.5151Z" fill="black"/>
<path d="M81.6971 58.5151H79.1213V61.0909H81.6971V58.5151Z" fill="black"/>
<path d="M84.2728 58.5151H81.697V61.0909H84.2728V58.5151Z" fill="black"/>
<path d="M92.0003 58.5151H89.4246V61.0909H92.0003V58.5151Z" fill="black"/>
<path d="M9.57576 61.0911H7V63.6668H9.57576V61.0911Z" fill="black"/>
<path d="M12.1517 61.0911H9.57593V63.6668H12.1517V61.0911Z" fill="black"/>
<path d="M14.7276 61.0908H12.1519V63.6666H14.7276V61.0908Z" fill="black"/>
<path d="M17.3033 61.0908H14.7275V63.6666H17.3033V61.0908Z" fill="black"/>
<path d="M19.879 61.0911H17.3032V63.6668H19.879V61.0911Z" fill="black"/>
<path d="M27.606 61.0911H25.0303V63.6668H27.606V61.0911Z" fill="black"/>
<path d="M30.182 61.0911H27.6062V63.6668H30.182V61.0911Z" fill="black"/>
<path d="M32.7576 61.0911H30.1819V63.6668H32.7576V61.0911Z" fill="black"/>
<path d="M35.3336 61.0908H32.7578V63.6666H35.3336V61.0908Z" fill="black"/>
<path d="M37.9093 61.0908H35.3335V63.6666H37.9093V61.0908Z" fill="black"/>
<path d="M45.6365 61.0911H43.0608V63.6668H45.6365V61.0911Z" fill="black"/>
<path d="M48.2122 61.0911H45.6365V63.6668H48.2122V61.0911Z" fill="black"/>
<path d="M55.9395 61.0908H53.3638V63.6666H55.9395V61.0908Z" fill="black"/>
<path d="M63.6668 61.0911H61.0911V63.6668H63.6668V61.0911Z" fill="black"/>
<path d="M68.8182 61.0911H66.2424V63.6668H68.8182V61.0911Z" fill="black"/>
<path d="M73.97 61.0908H71.3943V63.6666H73.97V61.0908Z" fill="black"/>
<path d="M79.1212 61.0911H76.5454V63.6668H79.1212V61.0911Z" fill="black"/>
<path d="M86.8485 61.0911H84.2727V63.6668H86.8485V61.0911Z" fill="black"/>
<path d="M92.0003 61.0908H89.4246V63.6666H92.0003V61.0908Z" fill="black"/>
<path d="M9.57576 63.6667H7V66.2425H9.57576V63.6667Z" fill="black"/>
<path d="M17.3033 63.6667H14.7275V66.2425H17.3033V63.6667Z" fill="black"/>
<path d="M25.0303 63.6667H22.4546V66.2425H25.0303V63.6667Z" fill="black"/>
<path d="M27.606 63.6667H25.0303V66.2425H27.606V63.6667Z" fill="black"/>
<path d="M30.182 63.6667H27.6062V66.2425H30.182V63.6667Z" fill="black"/>
<path d="M32.7576 63.6667H30.1819V66.2425H32.7576V63.6667Z" fill="black"/>
<path d="M45.6365 63.6667H43.0608V66.2425H45.6365V63.6667Z" fill="black"/>
<path d="M48.2122 63.6667H45.6365V66.2425H48.2122V63.6667Z" fill="black"/>
<path d="M50.7879 63.6667H48.2122V66.2425H50.7879V63.6667Z" fill="black"/>
<path d="M61.0909 63.6667H58.5151V66.2425H61.0909V63.6667Z" fill="black"/>
<path d="M63.6668 63.6667H61.0911V66.2425H63.6668V63.6667Z" fill="black"/>
<path d="M73.97 63.6667H71.3943V66.2425H73.97V63.6667Z" fill="black"/>
<path d="M79.1212 63.6667H76.5454V66.2425H79.1212V63.6667Z" fill="black"/>
<path d="M84.2728 63.6667H81.697V66.2425H84.2728V63.6667Z" fill="black"/>
<path d="M86.8485 63.6667H84.2727V66.2425H86.8485V63.6667Z" fill="black"/>
<path d="M89.4244 63.6667H86.8486V66.2425H89.4244V63.6667Z" fill="black"/>
<path d="M9.57576 66.2424H7V68.8182H9.57576V66.2424Z" fill="black"/>
<path d="M14.7276 66.2424H12.1519V68.8182H14.7276V66.2424Z" fill="black"/>
<path d="M17.3033 66.2424H14.7275V68.8182H17.3033V66.2424Z" fill="black"/>
<path d="M19.879 66.2424H17.3032V68.8182H19.879V66.2424Z" fill="black"/>
<path d="M30.182 66.2424H27.6062V68.8182H30.182V66.2424Z" fill="black"/>
<path d="M32.7576 66.2424H30.1819V68.8182H32.7576V66.2424Z" fill="black"/>
<path d="M35.3336 66.2424H32.7578V68.8182H35.3336V66.2424Z" fill="black"/>
<path d="M40.4849 66.2424H37.9092V68.8182H40.4849V66.2424Z" fill="black"/>
<path d="M45.6365 66.2424H43.0608V68.8182H45.6365V66.2424Z" fill="black"/>
<path d="M48.2122 66.2424H45.6365V68.8182H48.2122V66.2424Z" fill="black"/>
<path d="M63.6668 66.2424H61.0911V68.8182H63.6668V66.2424Z" fill="black"/>
<path d="M68.8182 66.2424H66.2424V68.8182H68.8182V66.2424Z" fill="black"/>
<path d="M73.97 66.2424H71.3943V68.8182H73.97V66.2424Z" fill="black"/>
<path d="M79.1212 66.2424H76.5454V68.8182H79.1212V66.2424Z" fill="black"/>
<path d="M84.2728 66.2424H81.697V68.8182H84.2728V66.2424Z" fill="black"/>
<path d="M86.8485 66.2424H84.2727V68.8182H86.8485V66.2424Z" fill="black"/>
<path d="M9.57576 68.8184H7V71.3941H9.57576V68.8184Z" fill="black"/>
<path d="M14.7276 68.8181H12.1519V71.3939H14.7276V68.8181Z" fill="black"/>
<path d="M17.3033 68.8181H14.7275V71.3939H17.3033V68.8181Z" fill="black"/>
<path d="M19.879 68.8184H17.3032V71.3941H19.879V68.8184Z" fill="black"/>
<path d="M22.4547 68.8184H19.8789V71.3941H22.4547V68.8184Z" fill="black"/>
<path d="M25.0303 68.8184H22.4546V71.3941H25.0303V68.8184Z" fill="black"/>
<path d="M30.182 68.8184H27.6062V71.3941H30.182V68.8184Z" fill="black"/>
<path d="M35.3336 68.8181H32.7578V71.3939H35.3336V68.8181Z" fill="black"/>
<path d="M37.9093 68.8181H35.3335V71.3939H37.9093V68.8181Z" fill="black"/>
<path d="M40.4849 68.8184H37.9092V71.3941H40.4849V68.8184Z" fill="black"/>
<path d="M45.6365 68.8184H43.0608V71.3941H45.6365V68.8184Z" fill="black"/>
<path d="M48.2122 68.8184H45.6365V71.3941H48.2122V68.8184Z" fill="black"/>
<path d="M50.7879 68.8184H48.2122V71.3941H50.7879V68.8184Z" fill="black"/>
<path d="M53.3638 68.8181H50.7881V71.3939H53.3638V68.8181Z" fill="black"/>
<path d="M61.0909 68.8184H58.5151V71.3941H61.0909V68.8184Z" fill="black"/>
<path d="M66.2425 68.8184H63.6667V71.3941H66.2425V68.8184Z" fill="black"/>
<path d="M68.8182 68.8184H66.2424V71.3941H68.8182V68.8184Z" fill="black"/>
<path d="M71.3941 68.8181H68.8184V71.3939H71.3941V68.8181Z" fill="black"/>
<path d="M73.97 68.8181H71.3943V71.3939H73.97V68.8181Z" fill="black"/>
<path d="M76.5455 68.8184H73.9697V71.3941H76.5455V68.8184Z" fill="black"/>
<path d="M79.1212 68.8184H76.5454V71.3941H79.1212V68.8184Z" fill="black"/>
<path d="M81.6971 68.8184H79.1213V71.3941H81.6971V68.8184Z" fill="black"/>
<path d="M84.2728 68.8184H81.697V71.3941H84.2728V68.8184Z" fill="black"/>
<path d="M89.4244 68.8184H86.8486V71.3941H89.4244V68.8184Z" fill="black"/>
<path d="M92.0003 68.8181H89.4246V71.3939H92.0003V68.8181Z" fill="black"/>
<path d="M30.182 71.394H27.6062V73.9698H30.182V71.394Z" fill="black"/>
<path d="M32.7576 71.394H30.1819V73.9698H32.7576V71.394Z" fill="black"/>
<path d="M40.4849 71.394H37.9092V73.9698H40.4849V71.394Z" fill="black"/>
<path d="M50.7879 71.394H48.2122V73.9698H50.7879V71.394Z" fill="black"/>
<path d="M55.9395 71.3938H53.3638V73.9696H55.9395V71.3938Z" fill="black"/>
<path d="M58.5152 71.394H55.9395V73.9698H58.5152V71.394Z" fill="black"/>
<path d="M61.0909 71.394H58.5151V73.9698H61.0909V71.394Z" fill="black"/>
<path d="M63.6668 71.394H61.0911V73.9698H63.6668V71.394Z" fill="black"/>
<path d="M66.2425 71.394H63.6667V73.9698H66.2425V71.394Z" fill="black"/>
<path d="M71.3941 71.3938H68.8184V73.9696H71.3941V71.3938Z" fill="black"/>
<path d="M81.6971 71.394H79.1213V73.9698H81.6971V71.394Z" fill="black"/>
<path d="M86.8485 71.394H84.2727V73.9698H86.8485V71.394Z" fill="black"/>
<path d="M92.0003 71.3938H89.4246V73.9696H92.0003V71.3938Z" fill="black"/>
<path d="M37.9093 73.9697H35.3335V76.5455H37.9093V73.9697Z" fill="black"/>
<path d="M43.0606 73.9697H40.4849V76.5455H43.0606V73.9697Z" fill="black"/>
<path d="M45.6365 73.9697H43.0608V76.5455H45.6365V73.9697Z" fill="black"/>
<path d="M48.2122 73.9697H45.6365V76.5455H48.2122V73.9697Z" fill="black"/>
<path d="M55.9395 73.9697H53.3638V76.5455H55.9395V73.9697Z" fill="black"/>
<path d="M61.0909 73.9697H58.5151V76.5455H61.0909V73.9697Z" fill="black"/>
<path d="M63.6668 73.9697H61.0911V76.5455H63.6668V73.9697Z" fill="black"/>
<path d="M68.8182 73.9697H66.2424V76.5455H68.8182V73.9697Z" fill="black"/>
<path d="M71.3941 73.9697H68.8184V76.5455H71.3941V73.9697Z" fill="black"/>
<path d="M76.5455 73.9697H73.9697V76.5455H76.5455V73.9697Z" fill="black"/>
<path d="M81.6971 73.9697H79.1213V76.5455H81.6971V73.9697Z" fill="black"/>
<path d="M86.8485 73.9697H84.2727V76.5455H86.8485V73.9697Z" fill="black"/>
<path d="M89.4244 73.9697H86.8486V76.5455H89.4244V73.9697Z" fill="black"/>
<path d="M30.182 76.5454H27.6062V79.1212H30.182V76.5454Z" fill="black"/>
<path d="M32.7576 76.5454H30.1819V79.1212H32.7576V76.5454Z" fill="black"/>
<path d="M37.9093 76.5454H35.3335V79.1212H37.9093V76.5454Z" fill="black"/>
<path d="M40.4849 76.5454H37.9092V79.1212H40.4849V76.5454Z" fill="black"/>
<path d="M43.0606 76.5454H40.4849V79.1212H43.0606V76.5454Z" fill="black"/>
<path d="M48.2122 76.5454H45.6365V79.1212H48.2122V76.5454Z" fill="black"/>
<path d="M50.7879 76.5454H48.2122V79.1212H50.7879V76.5454Z" fill="black"/>
<path d="M58.5152 76.5454H55.9395V79.1212H58.5152V76.5454Z" fill="black"/>
<path d="M61.0909 76.5454H58.5151V79.1212H61.0909V76.5454Z" fill="black"/>
<path d="M63.6668 76.5454H61.0911V79.1212H63.6668V76.5454Z" fill="black"/>
<path d="M66.2425 76.5454H63.6667V79.1212H66.2425V76.5454Z" fill="black"/>
<path d="M68.8182 76.5454H66.2424V79.1212H68.8182V76.5454Z" fill="black"/>
<path d="M71.3941 76.5454H68.8184V79.1212H71.3941V76.5454Z" fill="black"/>
<path d="M81.6971 76.5454H79.1213V79.1212H81.6971V76.5454Z" fill="black"/>
<path d="M84.2728 76.5454H81.697V79.1212H84.2728V76.5454Z" fill="black"/>
<path d="M86.8485 76.5454H84.2727V79.1212H86.8485V76.5454Z" fill="black"/>
<path d="M92.0003 76.5454H89.4246V79.1212H92.0003V76.5454Z" fill="black"/>
<path d="M30.182 79.1213H27.6062V81.6971H30.182V79.1213Z" fill="black"/>
<path d="M35.3336 79.1211H32.7578V81.6968H35.3336V79.1211Z" fill="black"/>
<path d="M37.9093 79.1211H35.3335V81.6968H37.9093V79.1211Z" fill="black"/>
<path d="M43.0606 79.1213H40.4849V81.6971H43.0606V79.1213Z" fill="black"/>
<path d="M45.6365 79.1213H43.0608V81.6971H45.6365V79.1213Z" fill="black"/>
<path d="M48.2122 79.1213H45.6365V81.6971H48.2122V79.1213Z" fill="black"/>
<path d="M55.9395 79.1211H53.3638V81.6968H55.9395V79.1211Z" fill="black"/>
<path d="M58.5152 79.1213H55.9395V81.6971H58.5152V79.1213Z" fill="black"/>
<path d="M63.6668 79.1213H61.0911V81.6971H63.6668V79.1213Z" fill="black"/>
<path d="M71.3941 79.1211H68.8184V81.6968H71.3941V79.1211Z" fill="black"/>
<path d="M73.97 79.1211H71.3943V81.6968H73.97V79.1211Z" fill="black"/>
<path d="M76.5455 79.1213H73.9697V81.6971H76.5455V79.1213Z" fill="black"/>
<path d="M79.1212 79.1213H76.5454V81.6971H79.1212V79.1213Z" fill="black"/>
<path d="M81.6971 79.1213H79.1213V81.6971H81.6971V79.1213Z" fill="black"/>
<path d="M84.2728 79.1213H81.697V81.6971H84.2728V79.1213Z" fill="black"/>
<path d="M30.182 81.697H27.6062V84.2728H30.182V81.697Z" fill="black"/>
<path d="M37.9093 81.697H35.3335V84.2728H37.9093V81.697Z" fill="black"/>
<path d="M45.6365 81.697H43.0608V84.2728H45.6365V81.697Z" fill="black"/>
<path d="M48.2122 81.697H45.6365V84.2728H48.2122V81.697Z" fill="black"/>
<path d="M50.7879 81.697H48.2122V84.2728H50.7879V81.697Z" fill="black"/>
<path d="M61.0909 81.697H58.5151V84.2728H61.0909V81.697Z" fill="black"/>
<path d="M63.6668 81.697H61.0911V84.2728H63.6668V81.697Z" fill="black"/>
<path d="M66.2425 81.697H63.6667V84.2728H66.2425V81.697Z" fill="black"/>
<path d="M71.3941 81.697H68.8184V84.2728H71.3941V81.697Z" fill="black"/>
<path d="M73.97 81.697H71.3943V84.2728H73.97V81.697Z" fill="black"/>
<path d="M81.6971 81.697H79.1213V84.2728H81.6971V81.697Z" fill="black"/>
<path d="M86.8485 81.697H84.2727V84.2728H86.8485V81.697Z" fill="black"/>
<path d="M92.0003 81.697H89.4246V84.2728H92.0003V81.697Z" fill="black"/>
<path d="M30.182 84.2727H27.6062V86.8485H30.182V84.2727Z" fill="black"/>
<path d="M32.7576 84.2727H30.1819V86.8485H32.7576V84.2727Z" fill="black"/>
<path d="M53.3638 84.2727H50.7881V86.8485H53.3638V84.2727Z" fill="black"/>
<path d="M55.9395 84.2727H53.3638V86.8485H55.9395V84.2727Z" fill="black"/>
<path d="M58.5152 84.2727H55.9395V86.8485H58.5152V84.2727Z" fill="black"/>
<path d="M63.6668 84.2727H61.0911V86.8485H63.6668V84.2727Z" fill="black"/>
<path d="M68.8182 84.2727H66.2424V86.8485H68.8182V84.2727Z" fill="black"/>
<path d="M76.5455 84.2727H73.9697V86.8485H76.5455V84.2727Z" fill="black"/>
<path d="M79.1212 84.2727H76.5454V86.8485H79.1212V84.2727Z" fill="black"/>
<path d="M86.8485 84.2727H84.2727V86.8485H86.8485V84.2727Z" fill="black"/>
<path d="M35.3336 86.8486H32.7578V89.4244H35.3336V86.8486Z" fill="black"/>
<path d="M37.9093 86.8486H35.3335V89.4244H37.9093V86.8486Z" fill="black"/>
<path d="M40.4849 86.8486H37.9092V89.4244H40.4849V86.8486Z" fill="black"/>
<path d="M43.0606 86.8486H40.4849V89.4244H43.0606V86.8486Z" fill="black"/>
<path d="M45.6365 86.8486H43.0608V89.4244H45.6365V86.8486Z" fill="black"/>
<path d="M50.7879 86.8486H48.2122V89.4244H50.7879V86.8486Z" fill="black"/>
<path d="M58.5152 86.8486H55.9395V89.4244H58.5152V86.8486Z" fill="black"/>
<path d="M61.0909 86.8486H58.5151V89.4244H61.0909V86.8486Z" fill="black"/>
<path d="M63.6668 86.8486H61.0911V89.4244H63.6668V86.8486Z" fill="black"/>
<path d="M73.97 86.8486H71.3943V89.4244H73.97V86.8486Z" fill="black"/>
<path d="M81.6971 86.8486H79.1213V89.4244H81.6971V86.8486Z" fill="black"/>
<path d="M84.2728 86.8486H81.697V89.4244H84.2728V86.8486Z" fill="black"/>
<path d="M86.8485 86.8486H84.2727V89.4244H86.8485V86.8486Z" fill="black"/>
<path d="M30.182 89.4243H27.6062V92.0001H30.182V89.4243Z" fill="black"/>
<path d="M32.7576 89.4243H30.1819V92.0001H32.7576V89.4243Z" fill="black"/>
<path d="M37.9093 89.4241H35.3335V91.9998H37.9093V89.4241Z" fill="black"/>
<path d="M40.4849 89.4243H37.9092V92.0001H40.4849V89.4243Z" fill="black"/>
<path d="M50.7879 89.4243H48.2122V92.0001H50.7879V89.4243Z" fill="black"/>
<path d="M53.3638 89.4241H50.7881V91.9998H53.3638V89.4241Z" fill="black"/>
<path d="M58.5152 89.4243H55.9395V92.0001H58.5152V89.4243Z" fill="black"/>
<path d="M68.8182 89.4243H66.2424V92.0001H68.8182V89.4243Z" fill="black"/>
<path d="M71.3941 89.4241H68.8184V91.9998H71.3941V89.4241Z" fill="black"/>
<path d="M73.97 89.4241H71.3943V91.9998H73.97V89.4241Z" fill="black"/>
<path d="M76.5455 89.4243H73.9697V92.0001H76.5455V89.4243Z" fill="black"/>
<path d="M79.1212 89.4243H76.5454V92.0001H79.1212V89.4243Z" fill="black"/>
<path d="M84.2728 89.4243H81.697V92.0001H84.2728V89.4243Z" fill="black"/>
<path d="M89.4244 89.4243H86.8486V92.0001H89.4244V89.4243Z" fill="black"/>
<path d="M22.326 7.00024H9.70479H7.00024V9.70479V22.326V25.0305H9.70479H22.326H25.0305V22.326V9.70479V7.00024H22.326ZM22.326 22.326H9.70479V9.70479H22.326V22.326Z" fill="black"/>
<path d="M89.2955 7H76.6743H73.9697V9.70454V22.3257V25.0303H76.6743H89.2955H92V22.3257V9.70454V7H89.2955ZM89.2955 22.3257H76.6743V9.70454H89.2955V22.3257Z" fill="black"/>
<path d="M22.3257 73.9697H9.70454H7V76.6743V89.2955V92H9.70454H22.3257H25.0303V89.2955V76.6743V73.9697H22.3257ZM22.3257 89.2955H9.70454V76.6743H22.3257V89.2955Z" fill="black"/>
<path d="M19.8791 12.1516H12.1519V19.8789H19.8791V12.1516Z" fill="black"/>
<path d="M86.8486 12.1516H79.1213V19.8789H86.8486V12.1516Z" fill="black"/>
<path d="M19.8791 79.1211H12.1519V86.8484H19.8791V79.1211Z" fill="black"/>
</g>
<defs>
<clipPath id="clip0_1595_118925">
<rect width="93" height="93" fill="white" transform="translate(3 3)"/>
</clipPath>
</defs>
</svg>
