<svg width="100" height="100" viewBox="0 0 100 100" fill="none" xmlns="http://www.w3.org/2000/svg">
<rect width="100" height="100" rx="6" fill="#333333"/>
<g clip-path="url(#clip0_1598_61225)">
<path d="M8.97966 7.22217H7.22229V8.97954H8.97966V7.22217Z" fill="white"/>
<path d="M10.737 7.22217H8.97961V8.97954H10.737V7.22217Z" fill="white"/>
<path d="M12.4944 7.22217H10.7371V8.97954H12.4944V7.22217Z" fill="white"/>
<path d="M14.2518 7.22217H12.4944V8.97954H14.2518V7.22217Z" fill="white"/>
<path d="M16.0091 7.22217H14.2517V8.97954H16.0091V7.22217Z" fill="white"/>
<path d="M17.7665 7.22217H16.0092V8.97954H17.7665V7.22217Z" fill="white"/>
<path d="M19.5238 7.22217H17.7665V8.97954H19.5238V7.22217Z" fill="white"/>
<path d="M24.7959 7.22217H23.0386V8.97954H24.7959V7.22217Z" fill="white"/>
<path d="M28.3107 7.22217H26.5533V8.97954H28.3107V7.22217Z" fill="white"/>
<path d="M33.5828 7.22217H31.8254V8.97954H33.5828V7.22217Z" fill="white"/>
<path d="M35.3403 7.22217H33.5829V8.97954H35.3403V7.22217Z" fill="white"/>
<path d="M38.8549 7.22217H37.0975V8.97954H38.8549V7.22217Z" fill="white"/>
<path d="M40.6123 7.22217H38.855V8.97954H40.6123V7.22217Z" fill="white"/>
<path d="M42.3697 7.22217H40.6123V8.97954H42.3697V7.22217Z" fill="white"/>
<path d="M45.8843 7.22217H44.127V8.97954H45.8843V7.22217Z" fill="white"/>
<path d="M47.6419 7.22217H45.8845V8.97954H47.6419V7.22217Z" fill="white"/>
<path d="M51.1565 7.22217H49.3992V8.97954H51.1565V7.22217Z" fill="white"/>
<path d="M52.9139 7.22217H51.1565V8.97954H52.9139V7.22217Z" fill="white"/>
<path d="M54.6712 7.22217H52.9138V8.97954H54.6712V7.22217Z" fill="white"/>
<path d="M56.4288 7.22217H54.6714V8.97954H56.4288V7.22217Z" fill="white"/>
<path d="M58.1861 7.22217H56.4287V8.97954H58.1861V7.22217Z" fill="white"/>
<path d="M63.4581 7.22217H61.7007V8.97954H63.4581V7.22217Z" fill="white"/>
<path d="M65.2154 7.22217H63.458V8.97954H65.2154V7.22217Z" fill="white"/>
<path d="M70.4876 7.22217H68.7302V8.97954H70.4876V7.22217Z" fill="white"/>
<path d="M79.2745 7.22217H77.5171V8.97954H79.2745V7.22217Z" fill="white"/>
<path d="M82.7891 7.22217H81.0317V8.97954H82.7891V7.22217Z" fill="white"/>
<path d="M84.5464 7.22217H82.7891V8.97954H84.5464V7.22217Z" fill="white"/>
<path d="M86.304 7.22217H84.5466V8.97954H86.304V7.22217Z" fill="white"/>
<path d="M88.0613 7.22217H86.304V8.97954H88.0613V7.22217Z" fill="white"/>
<path d="M89.8186 7.22217H88.0613V8.97954H89.8186V7.22217Z" fill="white"/>
<path d="M91.576 7.22217H89.8186V8.97954H91.576V7.22217Z" fill="white"/>
<path d="M93.3333 7.22217H91.5759V8.97954H93.3333V7.22217Z" fill="white"/>
<path d="M8.97966 8.97949H7.22229V10.7369H8.97966V8.97949Z" fill="white"/>
<path d="M19.5238 8.97949H17.7665V10.7369H19.5238V8.97949Z" fill="white"/>
<path d="M28.3107 8.97949H26.5533V10.7369H28.3107V8.97949Z" fill="white"/>
<path d="M30.068 8.97949H28.3107V10.7369H30.068V8.97949Z" fill="white"/>
<path d="M31.8255 8.97949H30.0681V10.7369H31.8255V8.97949Z" fill="white"/>
<path d="M37.0976 8.97949H35.3402V10.7369H37.0976V8.97949Z" fill="white"/>
<path d="M38.8549 8.97949H37.0975V10.7369H38.8549V8.97949Z" fill="white"/>
<path d="M47.6419 8.97949H45.8845V10.7369H47.6419V8.97949Z" fill="white"/>
<path d="M51.1565 8.97949H49.3992V10.7369H51.1565V8.97949Z" fill="white"/>
<path d="M52.9139 8.97949H51.1565V10.7369H52.9139V8.97949Z" fill="white"/>
<path d="M54.6712 8.97949H52.9138V10.7369H54.6712V8.97949Z" fill="white"/>
<path d="M56.4288 8.97949H54.6714V10.7369H56.4288V8.97949Z" fill="white"/>
<path d="M59.9434 8.97949H58.186V10.7369H59.9434V8.97949Z" fill="white"/>
<path d="M61.7007 8.97949H59.9434V10.7369H61.7007V8.97949Z" fill="white"/>
<path d="M63.4581 8.97949H61.7007V10.7369H63.4581V8.97949Z" fill="white"/>
<path d="M66.9729 8.97949H65.2156V10.7369H66.9729V8.97949Z" fill="white"/>
<path d="M68.73 8.97949H66.9727V10.7369H68.73V8.97949Z" fill="white"/>
<path d="M72.2449 8.97949H70.4875V10.7369H72.2449V8.97949Z" fill="white"/>
<path d="M74.0022 8.97949H72.2449V10.7369H74.0022V8.97949Z" fill="white"/>
<path d="M75.7598 8.97949H74.0024V10.7369H75.7598V8.97949Z" fill="white"/>
<path d="M77.5171 8.97949H75.7598V10.7369H77.5171V8.97949Z" fill="white"/>
<path d="M79.2745 8.97949H77.5171V10.7369H79.2745V8.97949Z" fill="white"/>
<path d="M82.7891 8.97949H81.0317V10.7369H82.7891V8.97949Z" fill="white"/>
<path d="M93.3333 8.97949H91.5759V10.7369H93.3333V8.97949Z" fill="white"/>
<path d="M8.97966 10.7369H7.22229V12.4943H8.97966V10.7369Z" fill="white"/>
<path d="M12.4944 10.7369H10.7371V12.4943H12.4944V10.7369Z" fill="white"/>
<path d="M14.2518 10.7369H12.4944V12.4943H14.2518V10.7369Z" fill="white"/>
<path d="M16.0091 10.7369H14.2517V12.4943H16.0091V10.7369Z" fill="white"/>
<path d="M19.5238 10.7369H17.7665V12.4943H19.5238V10.7369Z" fill="white"/>
<path d="M23.0386 10.7369H21.2812V12.4943H23.0386V10.7369Z" fill="white"/>
<path d="M24.7959 10.7369H23.0386V12.4943H24.7959V10.7369Z" fill="white"/>
<path d="M26.5534 10.7369H24.796V12.4943H26.5534V10.7369Z" fill="white"/>
<path d="M28.3107 10.7369H26.5533V12.4943H28.3107V10.7369Z" fill="white"/>
<path d="M30.068 10.7369H28.3107V12.4943H30.068V10.7369Z" fill="white"/>
<path d="M37.0976 10.7369H35.3402V12.4943H37.0976V10.7369Z" fill="white"/>
<path d="M38.8549 10.7369H37.0975V12.4943H38.8549V10.7369Z" fill="white"/>
<path d="M40.6123 10.7369H38.855V12.4943H40.6123V10.7369Z" fill="white"/>
<path d="M44.127 10.7369H42.3696V12.4943H44.127V10.7369Z" fill="white"/>
<path d="M54.6712 10.7369H52.9138V12.4943H54.6712V10.7369Z" fill="white"/>
<path d="M68.73 10.7369H66.9727V12.4943H68.73V10.7369Z" fill="white"/>
<path d="M70.4876 10.7369H68.7302V12.4943H70.4876V10.7369Z" fill="white"/>
<path d="M72.2449 10.7369H70.4875V12.4943H72.2449V10.7369Z" fill="white"/>
<path d="M74.0022 10.7369H72.2449V12.4943H74.0022V10.7369Z" fill="white"/>
<path d="M77.5171 10.7369H75.7598V12.4943H77.5171V10.7369Z" fill="white"/>
<path d="M79.2745 10.7369H77.5171V12.4943H79.2745V10.7369Z" fill="white"/>
<path d="M82.7891 10.7369H81.0317V12.4943H82.7891V10.7369Z" fill="white"/>
<path d="M86.304 10.7369H84.5466V12.4943H86.304V10.7369Z" fill="white"/>
<path d="M88.0613 10.7369H86.304V12.4943H88.0613V10.7369Z" fill="white"/>
<path d="M89.8186 10.7369H88.0613V12.4943H89.8186V10.7369Z" fill="white"/>
<path d="M93.3333 10.7369H91.5759V12.4943H93.3333V10.7369Z" fill="white"/>
<path d="M8.97966 12.4943H7.22229V14.2516H8.97966V12.4943Z" fill="white"/>
<path d="M12.4944 12.4943H10.7371V14.2516H12.4944V12.4943Z" fill="white"/>
<path d="M14.2518 12.4943H12.4944V14.2516H14.2518V12.4943Z" fill="white"/>
<path d="M16.0091 12.4943H14.2517V14.2516H16.0091V12.4943Z" fill="white"/>
<path d="M19.5238 12.4943H17.7665V14.2516H19.5238V12.4943Z" fill="white"/>
<path d="M23.0386 12.4943H21.2812V14.2516H23.0386V12.4943Z" fill="white"/>
<path d="M24.7959 12.4943H23.0386V14.2516H24.7959V12.4943Z" fill="white"/>
<path d="M26.5534 12.4943H24.796V14.2516H26.5534V12.4943Z" fill="white"/>
<path d="M30.068 12.4943H28.3107V14.2516H30.068V12.4943Z" fill="white"/>
<path d="M33.5828 12.4943H31.8254V14.2516H33.5828V12.4943Z" fill="white"/>
<path d="M35.3403 12.4943H33.5829V14.2516H35.3403V12.4943Z" fill="white"/>
<path d="M37.0976 12.4943H35.3402V14.2516H37.0976V12.4943Z" fill="white"/>
<path d="M38.8549 12.4943H37.0975V14.2516H38.8549V12.4943Z" fill="white"/>
<path d="M40.6123 12.4943H38.855V14.2516H40.6123V12.4943Z" fill="white"/>
<path d="M42.3697 12.4943H40.6123V14.2516H42.3697V12.4943Z" fill="white"/>
<path d="M45.8843 12.4943H44.127V14.2516H45.8843V12.4943Z" fill="white"/>
<path d="M47.6419 12.4943H45.8845V14.2516H47.6419V12.4943Z" fill="white"/>
<path d="M51.1565 12.4943H49.3992V14.2516H51.1565V12.4943Z" fill="white"/>
<path d="M52.9139 12.4943H51.1565V14.2516H52.9139V12.4943Z" fill="white"/>
<path d="M54.6712 12.4943H52.9138V14.2516H54.6712V12.4943Z" fill="white"/>
<path d="M56.4288 12.4943H54.6714V14.2516H56.4288V12.4943Z" fill="white"/>
<path d="M58.1861 12.4943H56.4287V14.2516H58.1861V12.4943Z" fill="white"/>
<path d="M59.9434 12.4943H58.186V14.2516H59.9434V12.4943Z" fill="white"/>
<path d="M61.7007 12.4943H59.9434V14.2516H61.7007V12.4943Z" fill="white"/>
<path d="M63.4581 12.4943H61.7007V14.2516H63.4581V12.4943Z" fill="white"/>
<path d="M72.2449 12.4943H70.4875V14.2516H72.2449V12.4943Z" fill="white"/>
<path d="M77.5171 12.4943H75.7598V14.2516H77.5171V12.4943Z" fill="white"/>
<path d="M82.7891 12.4943H81.0317V14.2516H82.7891V12.4943Z" fill="white"/>
<path d="M86.304 12.4943H84.5466V14.2516H86.304V12.4943Z" fill="white"/>
<path d="M88.0613 12.4943H86.304V14.2516H88.0613V12.4943Z" fill="white"/>
<path d="M89.8186 12.4943H88.0613V14.2516H89.8186V12.4943Z" fill="white"/>
<path d="M93.3333 12.4943H91.5759V14.2516H93.3333V12.4943Z" fill="white"/>
<path d="M8.97966 14.2516H7.22229V16.009H8.97966V14.2516Z" fill="white"/>
<path d="M12.4944 14.2516H10.7371V16.009H12.4944V14.2516Z" fill="white"/>
<path d="M14.2518 14.2516H12.4944V16.009H14.2518V14.2516Z" fill="white"/>
<path d="M16.0091 14.2516H14.2517V16.009H16.0091V14.2516Z" fill="white"/>
<path d="M19.5238 14.2516H17.7665V16.009H19.5238V14.2516Z" fill="white"/>
<path d="M24.7959 14.2516H23.0386V16.009H24.7959V14.2516Z" fill="white"/>
<path d="M30.068 14.2516H28.3107V16.009H30.068V14.2516Z" fill="white"/>
<path d="M31.8255 14.2516H30.0681V16.009H31.8255V14.2516Z" fill="white"/>
<path d="M35.3403 14.2516H33.5829V16.009H35.3403V14.2516Z" fill="white"/>
<path d="M37.0976 14.2516H35.3402V16.009H37.0976V14.2516Z" fill="white"/>
<path d="M42.3697 14.2516H40.6123V16.009H42.3697V14.2516Z" fill="white"/>
<path d="M47.6419 14.2516H45.8845V16.009H47.6419V14.2516Z" fill="white"/>
<path d="M49.3992 14.2516H47.6418V16.009H49.3992V14.2516Z" fill="white"/>
<path d="M51.1565 14.2516H49.3992V16.009H51.1565V14.2516Z" fill="white"/>
<path d="M52.9139 14.2516H51.1565V16.009H52.9139V14.2516Z" fill="white"/>
<path d="M54.6712 14.2516H52.9138V16.009H54.6712V14.2516Z" fill="white"/>
<path d="M59.9434 14.2516H58.186V16.009H59.9434V14.2516Z" fill="white"/>
<path d="M61.7007 14.2516H59.9434V16.009H61.7007V14.2516Z" fill="white"/>
<path d="M63.4581 14.2516H61.7007V16.009H63.4581V14.2516Z" fill="white"/>
<path d="M65.2154 14.2516H63.458V16.009H65.2154V14.2516Z" fill="white"/>
<path d="M70.4876 14.2516H68.7302V16.009H70.4876V14.2516Z" fill="white"/>
<path d="M74.0022 14.2516H72.2449V16.009H74.0022V14.2516Z" fill="white"/>
<path d="M82.7891 14.2516H81.0317V16.009H82.7891V14.2516Z" fill="white"/>
<path d="M86.304 14.2516H84.5466V16.009H86.304V14.2516Z" fill="white"/>
<path d="M88.0613 14.2516H86.304V16.009H88.0613V14.2516Z" fill="white"/>
<path d="M89.8186 14.2516H88.0613V16.009H89.8186V14.2516Z" fill="white"/>
<path d="M93.3333 14.2516H91.5759V16.009H93.3333V14.2516Z" fill="white"/>
<path d="M8.97966 16.009H7.22229V17.7664H8.97966V16.009Z" fill="white"/>
<path d="M19.5238 16.009H17.7665V17.7664H19.5238V16.009Z" fill="white"/>
<path d="M28.3107 16.009H26.5533V17.7664H28.3107V16.009Z" fill="white"/>
<path d="M30.068 16.009H28.3107V17.7664H30.068V16.009Z" fill="white"/>
<path d="M31.8255 16.009H30.0681V17.7664H31.8255V16.009Z" fill="white"/>
<path d="M33.5828 16.009H31.8254V17.7664H33.5828V16.009Z" fill="white"/>
<path d="M40.6123 16.009H38.855V17.7664H40.6123V16.009Z" fill="white"/>
<path d="M42.3697 16.009H40.6123V17.7664H42.3697V16.009Z" fill="white"/>
<path d="M45.8843 16.009H44.127V17.7664H45.8843V16.009Z" fill="white"/>
<path d="M47.6419 16.009H45.8845V17.7664H47.6419V16.009Z" fill="white"/>
<path d="M54.6712 16.009H52.9138V17.7664H54.6712V16.009Z" fill="white"/>
<path d="M56.4288 16.009H54.6714V17.7664H56.4288V16.009Z" fill="white"/>
<path d="M59.9434 16.009H58.186V17.7664H59.9434V16.009Z" fill="white"/>
<path d="M61.7007 16.009H59.9434V17.7664H61.7007V16.009Z" fill="white"/>
<path d="M63.4581 16.009H61.7007V17.7664H63.4581V16.009Z" fill="white"/>
<path d="M66.9729 16.009H65.2156V17.7664H66.9729V16.009Z" fill="white"/>
<path d="M68.73 16.009H66.9727V17.7664H68.73V16.009Z" fill="white"/>
<path d="M72.2449 16.009H70.4875V17.7664H72.2449V16.009Z" fill="white"/>
<path d="M75.7598 16.009H74.0024V17.7664H75.7598V16.009Z" fill="white"/>
<path d="M82.7891 16.009H81.0317V17.7664H82.7891V16.009Z" fill="white"/>
<path d="M93.3333 16.009H91.5759V17.7664H93.3333V16.009Z" fill="white"/>
<path d="M8.97966 17.7664H7.22229V19.5237H8.97966V17.7664Z" fill="white"/>
<path d="M10.737 17.7664H8.97961V19.5237H10.737V17.7664Z" fill="white"/>
<path d="M12.4944 17.7664H10.7371V19.5237H12.4944V17.7664Z" fill="white"/>
<path d="M14.2518 17.7664H12.4944V19.5237H14.2518V17.7664Z" fill="white"/>
<path d="M16.0091 17.7664H14.2517V19.5237H16.0091V17.7664Z" fill="white"/>
<path d="M17.7665 17.7664H16.0092V19.5237H17.7665V17.7664Z" fill="white"/>
<path d="M19.5238 17.7664H17.7665V19.5237H19.5238V17.7664Z" fill="white"/>
<path d="M23.0386 17.7664H21.2812V19.5237H23.0386V17.7664Z" fill="white"/>
<path d="M26.5534 17.7664H24.796V19.5237H26.5534V17.7664Z" fill="white"/>
<path d="M30.068 17.7664H28.3107V19.5237H30.068V17.7664Z" fill="white"/>
<path d="M33.5828 17.7664H31.8254V19.5237H33.5828V17.7664Z" fill="white"/>
<path d="M37.0976 17.7664H35.3402V19.5237H37.0976V17.7664Z" fill="white"/>
<path d="M40.6123 17.7664H38.855V19.5237H40.6123V17.7664Z" fill="white"/>
<path d="M44.127 17.7664H42.3696V19.5237H44.127V17.7664Z" fill="white"/>
<path d="M47.6419 17.7664H45.8845V19.5237H47.6419V17.7664Z" fill="white"/>
<path d="M51.1565 17.7664H49.3992V19.5237H51.1565V17.7664Z" fill="white"/>
<path d="M54.6712 17.7664H52.9138V19.5237H54.6712V17.7664Z" fill="white"/>
<path d="M58.1861 17.7664H56.4287V19.5237H58.1861V17.7664Z" fill="white"/>
<path d="M61.7007 17.7664H59.9434V19.5237H61.7007V17.7664Z" fill="white"/>
<path d="M65.2154 17.7664H63.458V19.5237H65.2154V17.7664Z" fill="white"/>
<path d="M68.73 17.7664H66.9727V19.5237H68.73V17.7664Z" fill="white"/>
<path d="M72.2449 17.7664H70.4875V19.5237H72.2449V17.7664Z" fill="white"/>
<path d="M75.7598 17.7664H74.0024V19.5237H75.7598V17.7664Z" fill="white"/>
<path d="M79.2745 17.7664H77.5171V19.5237H79.2745V17.7664Z" fill="white"/>
<path d="M82.7891 17.7664H81.0317V19.5237H82.7891V17.7664Z" fill="white"/>
<path d="M84.5464 17.7664H82.7891V19.5237H84.5464V17.7664Z" fill="white"/>
<path d="M86.304 17.7664H84.5466V19.5237H86.304V17.7664Z" fill="white"/>
<path d="M88.0613 17.7664H86.304V19.5237H88.0613V17.7664Z" fill="white"/>
<path d="M89.8186 17.7664H88.0613V19.5237H89.8186V17.7664Z" fill="white"/>
<path d="M91.576 17.7664H89.8186V19.5237H91.576V17.7664Z" fill="white"/>
<path d="M93.3333 17.7664H91.5759V19.5237H93.3333V17.7664Z" fill="white"/>
<path d="M30.068 19.5238H28.3107V21.2812H30.068V19.5238Z" fill="white"/>
<path d="M33.5828 19.5238H31.8254V21.2812H33.5828V19.5238Z" fill="white"/>
<path d="M37.0976 19.5238H35.3402V21.2812H37.0976V19.5238Z" fill="white"/>
<path d="M40.6123 19.5238H38.855V21.2812H40.6123V19.5238Z" fill="white"/>
<path d="M44.127 19.5238H42.3696V21.2812H44.127V19.5238Z" fill="white"/>
<path d="M45.8843 19.5238H44.127V21.2812H45.8843V19.5238Z" fill="white"/>
<path d="M47.6419 19.5238H45.8845V21.2812H47.6419V19.5238Z" fill="white"/>
<path d="M54.6712 19.5238H52.9138V21.2812H54.6712V19.5238Z" fill="white"/>
<path d="M58.1861 19.5238H56.4287V21.2812H58.1861V19.5238Z" fill="white"/>
<path d="M59.9434 19.5238H58.186V21.2812H59.9434V19.5238Z" fill="white"/>
<path d="M63.4581 19.5238H61.7007V21.2812H63.4581V19.5238Z" fill="white"/>
<path d="M65.2154 19.5238H63.458V21.2812H65.2154V19.5238Z" fill="white"/>
<path d="M66.9729 19.5238H65.2156V21.2812H66.9729V19.5238Z" fill="white"/>
<path d="M70.4876 19.5238H68.7302V21.2812H70.4876V19.5238Z" fill="white"/>
<path d="M72.2449 19.5238H70.4875V21.2812H72.2449V19.5238Z" fill="white"/>
<path d="M75.7598 19.5238H74.0024V21.2812H75.7598V19.5238Z" fill="white"/>
<path d="M77.5171 19.5238H75.7598V21.2812H77.5171V19.5238Z" fill="white"/>
<path d="M14.2518 21.2811H12.4944V23.0385H14.2518V21.2811Z" fill="white"/>
<path d="M16.0091 21.2811H14.2517V23.0385H16.0091V21.2811Z" fill="white"/>
<path d="M19.5238 21.2811H17.7665V23.0385H19.5238V21.2811Z" fill="white"/>
<path d="M21.2813 21.2811H19.5239V23.0385H21.2813V21.2811Z" fill="white"/>
<path d="M35.3403 21.2811H33.5829V23.0385H35.3403V21.2811Z" fill="white"/>
<path d="M40.6123 21.2811H38.855V23.0385H40.6123V21.2811Z" fill="white"/>
<path d="M44.127 21.2811H42.3696V23.0385H44.127V21.2811Z" fill="white"/>
<path d="M47.6419 21.2811H45.8845V23.0385H47.6419V21.2811Z" fill="white"/>
<path d="M49.3992 21.2811H47.6418V23.0385H49.3992V21.2811Z" fill="white"/>
<path d="M51.1565 21.2811H49.3992V23.0385H51.1565V21.2811Z" fill="white"/>
<path d="M52.9139 21.2811H51.1565V23.0385H52.9139V21.2811Z" fill="white"/>
<path d="M54.6712 21.2811H52.9138V23.0385H54.6712V21.2811Z" fill="white"/>
<path d="M59.9434 21.2811H58.186V23.0385H59.9434V21.2811Z" fill="white"/>
<path d="M61.7007 21.2811H59.9434V23.0385H61.7007V21.2811Z" fill="white"/>
<path d="M65.2154 21.2811H63.458V23.0385H65.2154V21.2811Z" fill="white"/>
<path d="M66.9729 21.2811H65.2156V23.0385H66.9729V21.2811Z" fill="white"/>
<path d="M72.2449 21.2811H70.4875V23.0385H72.2449V21.2811Z" fill="white"/>
<path d="M74.0022 21.2811H72.2449V23.0385H74.0022V21.2811Z" fill="white"/>
<path d="M75.7598 21.2811H74.0024V23.0385H75.7598V21.2811Z" fill="white"/>
<path d="M77.5171 21.2811H75.7598V23.0385H77.5171V21.2811Z" fill="white"/>
<path d="M88.0613 21.2811H86.304V23.0385H88.0613V21.2811Z" fill="white"/>
<path d="M89.8186 21.2811H88.0613V23.0385H89.8186V21.2811Z" fill="white"/>
<path d="M8.97966 23.0385H7.22229V24.7958H8.97966V23.0385Z" fill="white"/>
<path d="M10.737 23.0385H8.97961V24.7958H10.737V23.0385Z" fill="white"/>
<path d="M12.4944 23.0385H10.7371V24.7958H12.4944V23.0385Z" fill="white"/>
<path d="M14.2518 23.0385H12.4944V24.7958H14.2518V23.0385Z" fill="white"/>
<path d="M17.7665 23.0385H16.0092V24.7958H17.7665V23.0385Z" fill="white"/>
<path d="M21.2813 23.0385H19.5239V24.7958H21.2813V23.0385Z" fill="white"/>
<path d="M26.5534 23.0385H24.796V24.7958H26.5534V23.0385Z" fill="white"/>
<path d="M28.3107 23.0385H26.5533V24.7958H28.3107V23.0385Z" fill="white"/>
<path d="M33.5828 23.0385H31.8254V24.7958H33.5828V23.0385Z" fill="white"/>
<path d="M35.3403 23.0385H33.5829V24.7958H35.3403V23.0385Z" fill="white"/>
<path d="M37.0976 23.0385H35.3402V24.7958H37.0976V23.0385Z" fill="white"/>
<path d="M38.8549 23.0385H37.0975V24.7958H38.8549V23.0385Z" fill="white"/>
<path d="M42.3697 23.0385H40.6123V24.7958H42.3697V23.0385Z" fill="white"/>
<path d="M44.127 23.0385H42.3696V24.7958H44.127V23.0385Z" fill="white"/>
<path d="M45.8843 23.0385H44.127V24.7958H45.8843V23.0385Z" fill="white"/>
<path d="M47.6419 23.0385H45.8845V24.7958H47.6419V23.0385Z" fill="white"/>
<path d="M49.3992 23.0385H47.6418V24.7958H49.3992V23.0385Z" fill="white"/>
<path d="M56.4288 23.0385H54.6714V24.7958H56.4288V23.0385Z" fill="white"/>
<path d="M58.1861 23.0385H56.4287V24.7958H58.1861V23.0385Z" fill="white"/>
<path d="M65.2154 23.0385H63.458V24.7958H65.2154V23.0385Z" fill="white"/>
<path d="M66.9729 23.0385H65.2156V24.7958H66.9729V23.0385Z" fill="white"/>
<path d="M68.73 23.0385H66.9727V24.7958H68.73V23.0385Z" fill="white"/>
<path d="M70.4876 23.0385H68.7302V24.7958H70.4876V23.0385Z" fill="white"/>
<path d="M72.2449 23.0385H70.4875V24.7958H72.2449V23.0385Z" fill="white"/>
<path d="M74.0022 23.0385H72.2449V24.7958H74.0022V23.0385Z" fill="white"/>
<path d="M75.7598 23.0385H74.0024V24.7958H75.7598V23.0385Z" fill="white"/>
<path d="M77.5171 23.0385H75.7598V24.7958H77.5171V23.0385Z" fill="white"/>
<path d="M81.0318 23.0385H79.2744V24.7958H81.0318V23.0385Z" fill="white"/>
<path d="M88.0613 23.0385H86.304V24.7958H88.0613V23.0385Z" fill="white"/>
<path d="M89.8186 23.0385H88.0613V24.7958H89.8186V23.0385Z" fill="white"/>
<path d="M91.576 23.0385H89.8186V24.7958H91.576V23.0385Z" fill="white"/>
<path d="M17.7665 24.7959H16.0092V26.5533H17.7665V24.7959Z" fill="white"/>
<path d="M19.5238 24.7959H17.7665V26.5533H19.5238V24.7959Z" fill="white"/>
<path d="M23.0386 24.7959H21.2812V26.5533H23.0386V24.7959Z" fill="white"/>
<path d="M28.3107 24.7959H26.5533V26.5533H28.3107V24.7959Z" fill="white"/>
<path d="M30.068 24.7959H28.3107V26.5533H30.068V24.7959Z" fill="white"/>
<path d="M31.8255 24.7959H30.0681V26.5533H31.8255V24.7959Z" fill="white"/>
<path d="M35.3403 24.7959H33.5829V26.5533H35.3403V24.7959Z" fill="white"/>
<path d="M37.0976 24.7959H35.3402V26.5533H37.0976V24.7959Z" fill="white"/>
<path d="M38.8549 24.7959H37.0975V26.5533H38.8549V24.7959Z" fill="white"/>
<path d="M40.6123 24.7959H38.855V26.5533H40.6123V24.7959Z" fill="white"/>
<path d="M49.3992 24.7959H47.6418V26.5533H49.3992V24.7959Z" fill="white"/>
<path d="M51.1565 24.7959H49.3992V26.5533H51.1565V24.7959Z" fill="white"/>
<path d="M54.6712 24.7959H52.9138V26.5533H54.6712V24.7959Z" fill="white"/>
<path d="M56.4288 24.7959H54.6714V26.5533H56.4288V24.7959Z" fill="white"/>
<path d="M58.1861 24.7959H56.4287V26.5533H58.1861V24.7959Z" fill="white"/>
<path d="M61.7007 24.7959H59.9434V26.5533H61.7007V24.7959Z" fill="white"/>
<path d="M63.4581 24.7959H61.7007V26.5533H63.4581V24.7959Z" fill="white"/>
<path d="M66.9729 24.7959H65.2156V26.5533H66.9729V24.7959Z" fill="white"/>
<path d="M70.4876 24.7959H68.7302V26.5533H70.4876V24.7959Z" fill="white"/>
<path d="M72.2449 24.7959H70.4875V26.5533H72.2449V24.7959Z" fill="white"/>
<path d="M74.0022 24.7959H72.2449V26.5533H74.0022V24.7959Z" fill="white"/>
<path d="M77.5171 24.7959H75.7598V26.5533H77.5171V24.7959Z" fill="white"/>
<path d="M79.2745 24.7959H77.5171V26.5533H79.2745V24.7959Z" fill="white"/>
<path d="M81.0318 24.7959H79.2744V26.5533H81.0318V24.7959Z" fill="white"/>
<path d="M84.5464 24.7959H82.7891V26.5533H84.5464V24.7959Z" fill="white"/>
<path d="M86.304 24.7959H84.5466V26.5533H86.304V24.7959Z" fill="white"/>
<path d="M89.8186 24.7959H88.0613V26.5533H89.8186V24.7959Z" fill="white"/>
<path d="M91.576 24.7959H89.8186V26.5533H91.576V24.7959Z" fill="white"/>
<path d="M93.3333 24.7959H91.5759V26.5533H93.3333V24.7959Z" fill="white"/>
<path d="M12.4944 26.5532H10.7371V28.3106H12.4944V26.5532Z" fill="white"/>
<path d="M14.2518 26.5532H12.4944V28.3106H14.2518V26.5532Z" fill="white"/>
<path d="M21.2813 26.5532H19.5239V28.3106H21.2813V26.5532Z" fill="white"/>
<path d="M24.7959 26.5532H23.0386V28.3106H24.7959V26.5532Z" fill="white"/>
<path d="M28.3107 26.5532H26.5533V28.3106H28.3107V26.5532Z" fill="white"/>
<path d="M35.3403 26.5532H33.5829V28.3106H35.3403V26.5532Z" fill="white"/>
<path d="M51.1565 26.5532H49.3992V28.3106H51.1565V26.5532Z" fill="white"/>
<path d="M52.9139 26.5532H51.1565V28.3106H52.9139V26.5532Z" fill="white"/>
<path d="M54.6712 26.5532H52.9138V28.3106H54.6712V26.5532Z" fill="white"/>
<path d="M61.7007 26.5532H59.9434V28.3106H61.7007V26.5532Z" fill="white"/>
<path d="M65.2154 26.5532H63.458V28.3106H65.2154V26.5532Z" fill="white"/>
<path d="M68.73 26.5532H66.9727V28.3106H68.73V26.5532Z" fill="white"/>
<path d="M72.2449 26.5532H70.4875V28.3106H72.2449V26.5532Z" fill="white"/>
<path d="M79.2745 26.5532H77.5171V28.3106H79.2745V26.5532Z" fill="white"/>
<path d="M82.7891 26.5532H81.0317V28.3106H82.7891V26.5532Z" fill="white"/>
<path d="M84.5464 26.5532H82.7891V28.3106H84.5464V26.5532Z" fill="white"/>
<path d="M86.304 26.5532H84.5466V28.3106H86.304V26.5532Z" fill="white"/>
<path d="M88.0613 26.5532H86.304V28.3106H88.0613V26.5532Z" fill="white"/>
<path d="M89.8186 26.5532H88.0613V28.3106H89.8186V26.5532Z" fill="white"/>
<path d="M8.97966 28.3105H7.22229V30.0679H8.97966V28.3105Z" fill="white"/>
<path d="M16.0091 28.3105H14.2517V30.0679H16.0091V28.3105Z" fill="white"/>
<path d="M19.5238 28.3105H17.7665V30.0679H19.5238V28.3105Z" fill="white"/>
<path d="M21.2813 28.3105H19.5239V30.0679H21.2813V28.3105Z" fill="white"/>
<path d="M23.0386 28.3105H21.2812V30.0679H23.0386V28.3105Z" fill="white"/>
<path d="M24.7959 28.3105H23.0386V30.0679H24.7959V28.3105Z" fill="white"/>
<path d="M28.3107 28.3105H26.5533V30.0679H28.3107V28.3105Z" fill="white"/>
<path d="M30.068 28.3105H28.3107V30.0679H30.068V28.3105Z" fill="white"/>
<path d="M38.8549 28.3105H37.0975V30.0679H38.8549V28.3105Z" fill="white"/>
<path d="M47.6419 28.3105H45.8845V30.0679H47.6419V28.3105Z" fill="white"/>
<path d="M49.3992 28.3105H47.6418V30.0679H49.3992V28.3105Z" fill="white"/>
<path d="M51.1565 28.3105H49.3992V30.0679H51.1565V28.3105Z" fill="white"/>
<path d="M54.6712 28.3105H52.9138V30.0679H54.6712V28.3105Z" fill="white"/>
<path d="M58.1861 28.3105H56.4287V30.0679H58.1861V28.3105Z" fill="white"/>
<path d="M59.9434 28.3105H58.186V30.0679H59.9434V28.3105Z" fill="white"/>
<path d="M61.7007 28.3105H59.9434V30.0679H61.7007V28.3105Z" fill="white"/>
<path d="M65.2154 28.3105H63.458V30.0679H65.2154V28.3105Z" fill="white"/>
<path d="M70.4876 28.3105H68.7302V30.0679H70.4876V28.3105Z" fill="white"/>
<path d="M81.0318 28.3105H79.2744V30.0679H81.0318V28.3105Z" fill="white"/>
<path d="M88.0613 28.3105H86.304V30.0679H88.0613V28.3105Z" fill="white"/>
<path d="M89.8186 28.3105H88.0613V30.0679H89.8186V28.3105Z" fill="white"/>
<path d="M93.3333 28.3105H91.5759V30.0679H93.3333V28.3105Z" fill="white"/>
<path d="M8.97966 30.068H7.22229V31.8254H8.97966V30.068Z" fill="white"/>
<path d="M10.737 30.068H8.97961V31.8254H10.737V30.068Z" fill="white"/>
<path d="M12.4944 30.068H10.7371V31.8254H12.4944V30.068Z" fill="white"/>
<path d="M16.0091 30.068H14.2517V31.8254H16.0091V30.068Z" fill="white"/>
<path d="M17.7665 30.068H16.0092V31.8254H17.7665V30.068Z" fill="white"/>
<path d="M21.2813 30.068H19.5239V31.8254H21.2813V30.068Z" fill="white"/>
<path d="M23.0386 30.068H21.2812V31.8254H23.0386V30.068Z" fill="white"/>
<path d="M28.3107 30.068H26.5533V31.8254H28.3107V30.068Z" fill="white"/>
<path d="M30.068 30.068H28.3107V31.8254H30.068V30.068Z" fill="white"/>
<path d="M33.5828 30.068H31.8254V31.8254H33.5828V30.068Z" fill="white"/>
<path d="M38.8549 30.068H37.0975V31.8254H38.8549V30.068Z" fill="white"/>
<path d="M40.6123 30.068H38.855V31.8254H40.6123V30.068Z" fill="white"/>
<path d="M45.8843 30.068H44.127V31.8254H45.8843V30.068Z" fill="white"/>
<path d="M47.6419 30.068H45.8845V31.8254H47.6419V30.068Z" fill="white"/>
<path d="M49.3992 30.068H47.6418V31.8254H49.3992V30.068Z" fill="white"/>
<path d="M54.6712 30.068H52.9138V31.8254H54.6712V30.068Z" fill="white"/>
<path d="M56.4288 30.068H54.6714V31.8254H56.4288V30.068Z" fill="white"/>
<path d="M58.1861 30.068H56.4287V31.8254H58.1861V30.068Z" fill="white"/>
<path d="M66.9729 30.068H65.2156V31.8254H66.9729V30.068Z" fill="white"/>
<path d="M70.4876 30.068H68.7302V31.8254H70.4876V30.068Z" fill="white"/>
<path d="M75.7598 30.068H74.0024V31.8254H75.7598V30.068Z" fill="white"/>
<path d="M81.0318 30.068H79.2744V31.8254H81.0318V30.068Z" fill="white"/>
<path d="M82.7891 30.068H81.0317V31.8254H82.7891V30.068Z" fill="white"/>
<path d="M84.5464 30.068H82.7891V31.8254H84.5464V30.068Z" fill="white"/>
<path d="M88.0613 30.068H86.304V31.8254H88.0613V30.068Z" fill="white"/>
<path d="M89.8186 30.068H88.0613V31.8254H89.8186V30.068Z" fill="white"/>
<path d="M91.576 30.068H89.8186V31.8254H91.576V30.068Z" fill="white"/>
<path d="M93.3333 30.068H91.5759V31.8254H93.3333V30.068Z" fill="white"/>
<path d="M8.97966 31.8253H7.22229V33.5827H8.97966V31.8253Z" fill="white"/>
<path d="M17.7665 31.8253H16.0092V33.5827H17.7665V31.8253Z" fill="white"/>
<path d="M19.5238 31.8253H17.7665V33.5827H19.5238V31.8253Z" fill="white"/>
<path d="M24.7959 31.8253H23.0386V33.5827H24.7959V31.8253Z" fill="white"/>
<path d="M26.5534 31.8253H24.796V33.5827H26.5534V31.8253Z" fill="white"/>
<path d="M28.3107 31.8253H26.5533V33.5827H28.3107V31.8253Z" fill="white"/>
<path d="M30.068 31.8253H28.3107V33.5827H30.068V31.8253Z" fill="white"/>
<path d="M31.8255 31.8253H30.0681V33.5827H31.8255V31.8253Z" fill="white"/>
<path d="M33.5828 31.8253H31.8254V33.5827H33.5828V31.8253Z" fill="white"/>
<path d="M38.8549 31.8253H37.0975V33.5827H38.8549V31.8253Z" fill="white"/>
<path d="M42.3697 31.8253H40.6123V33.5827H42.3697V31.8253Z" fill="white"/>
<path d="M44.127 31.8253H42.3696V33.5827H44.127V31.8253Z" fill="white"/>
<path d="M47.6419 31.8253H45.8845V33.5827H47.6419V31.8253Z" fill="white"/>
<path d="M49.3992 31.8253H47.6418V33.5827H49.3992V31.8253Z" fill="white"/>
<path d="M52.9139 31.8253H51.1565V33.5827H52.9139V31.8253Z" fill="white"/>
<path d="M54.6712 31.8253H52.9138V33.5827H54.6712V31.8253Z" fill="white"/>
<path d="M56.4288 31.8253H54.6714V33.5827H56.4288V31.8253Z" fill="white"/>
<path d="M58.1861 31.8253H56.4287V33.5827H58.1861V31.8253Z" fill="white"/>
<path d="M65.2154 31.8253H63.458V33.5827H65.2154V31.8253Z" fill="white"/>
<path d="M68.73 31.8253H66.9727V33.5827H68.73V31.8253Z" fill="white"/>
<path d="M72.2449 31.8253H70.4875V33.5827H72.2449V31.8253Z" fill="white"/>
<path d="M74.0022 31.8253H72.2449V33.5827H74.0022V31.8253Z" fill="white"/>
<path d="M75.7598 31.8253H74.0024V33.5827H75.7598V31.8253Z" fill="white"/>
<path d="M82.7891 31.8253H81.0317V33.5827H82.7891V31.8253Z" fill="white"/>
<path d="M84.5464 31.8253H82.7891V33.5827H84.5464V31.8253Z" fill="white"/>
<path d="M88.0613 31.8253H86.304V33.5827H88.0613V31.8253Z" fill="white"/>
<path d="M93.3333 31.8253H91.5759V33.5827H93.3333V31.8253Z" fill="white"/>
<path d="M8.97966 33.5828H7.22229V35.3401H8.97966V33.5828Z" fill="white"/>
<path d="M12.4944 33.5828H10.7371V35.3401H12.4944V33.5828Z" fill="white"/>
<path d="M16.0091 33.5828H14.2517V35.3401H16.0091V33.5828Z" fill="white"/>
<path d="M21.2813 33.5828H19.5239V35.3401H21.2813V33.5828Z" fill="white"/>
<path d="M23.0386 33.5828H21.2812V35.3401H23.0386V33.5828Z" fill="white"/>
<path d="M26.5534 33.5828H24.796V35.3401H26.5534V33.5828Z" fill="white"/>
<path d="M31.8255 33.5828H30.0681V35.3401H31.8255V33.5828Z" fill="white"/>
<path d="M35.3403 33.5828H33.5829V35.3401H35.3403V33.5828Z" fill="white"/>
<path d="M38.8549 33.5828H37.0975V35.3401H38.8549V33.5828Z" fill="white"/>
<path d="M40.6123 33.5828H38.855V35.3401H40.6123V33.5828Z" fill="white"/>
<path d="M42.3697 33.5828H40.6123V35.3401H42.3697V33.5828Z" fill="white"/>
<path d="M44.127 33.5828H42.3696V35.3401H44.127V33.5828Z" fill="white"/>
<path d="M45.8843 33.5828H44.127V35.3401H45.8843V33.5828Z" fill="white"/>
<path d="M47.6419 33.5828H45.8845V35.3401H47.6419V33.5828Z" fill="white"/>
<path d="M51.1565 33.5828H49.3992V35.3401H51.1565V33.5828Z" fill="white"/>
<path d="M54.6712 33.5828H52.9138V35.3401H54.6712V33.5828Z" fill="white"/>
<path d="M56.4288 33.5828H54.6714V35.3401H56.4288V33.5828Z" fill="white"/>
<path d="M61.7007 33.5828H59.9434V35.3401H61.7007V33.5828Z" fill="white"/>
<path d="M63.4581 33.5828H61.7007V35.3401H63.4581V33.5828Z" fill="white"/>
<path d="M65.2154 33.5828H63.458V35.3401H65.2154V33.5828Z" fill="white"/>
<path d="M66.9729 33.5828H65.2156V35.3401H66.9729V33.5828Z" fill="white"/>
<path d="M70.4876 33.5828H68.7302V35.3401H70.4876V33.5828Z" fill="white"/>
<path d="M74.0022 33.5828H72.2449V35.3401H74.0022V33.5828Z" fill="white"/>
<path d="M77.5171 33.5828H75.7598V35.3401H77.5171V33.5828Z" fill="white"/>
<path d="M79.2745 33.5828H77.5171V35.3401H79.2745V33.5828Z" fill="white"/>
<path d="M82.7891 33.5828H81.0317V35.3401H82.7891V33.5828Z" fill="white"/>
<path d="M86.304 33.5828H84.5466V35.3401H86.304V33.5828Z" fill="white"/>
<path d="M88.0613 33.5828H86.304V35.3401H88.0613V33.5828Z" fill="white"/>
<path d="M8.97966 35.3401H7.22229V37.0975H8.97966V35.3401Z" fill="white"/>
<path d="M16.0091 35.3401H14.2517V37.0975H16.0091V35.3401Z" fill="white"/>
<path d="M19.5238 35.3401H17.7665V37.0975H19.5238V35.3401Z" fill="white"/>
<path d="M21.2813 35.3401H19.5239V37.0975H21.2813V35.3401Z" fill="white"/>
<path d="M23.0386 35.3401H21.2812V37.0975H23.0386V35.3401Z" fill="white"/>
<path d="M24.7959 35.3401H23.0386V37.0975H24.7959V35.3401Z" fill="white"/>
<path d="M26.5534 35.3401H24.796V37.0975H26.5534V35.3401Z" fill="white"/>
<path d="M37.0976 35.3401H35.3402V37.0975H37.0976V35.3401Z" fill="white"/>
<path d="M38.8549 35.3401H37.0975V37.0975H38.8549V35.3401Z" fill="white"/>
<path d="M42.3697 35.3401H40.6123V37.0975H42.3697V35.3401Z" fill="white"/>
<path d="M51.1565 35.3401H49.3992V37.0975H51.1565V35.3401Z" fill="white"/>
<path d="M52.9139 35.3401H51.1565V37.0975H52.9139V35.3401Z" fill="white"/>
<path d="M58.1861 35.3401H56.4287V37.0975H58.1861V35.3401Z" fill="white"/>
<path d="M63.4581 35.3401H61.7007V37.0975H63.4581V35.3401Z" fill="white"/>
<path d="M65.2154 35.3401H63.458V37.0975H65.2154V35.3401Z" fill="white"/>
<path d="M66.9729 35.3401H65.2156V37.0975H66.9729V35.3401Z" fill="white"/>
<path d="M68.73 35.3401H66.9727V37.0975H68.73V35.3401Z" fill="white"/>
<path d="M82.7891 35.3401H81.0317V37.0975H82.7891V35.3401Z" fill="white"/>
<path d="M86.304 35.3401H84.5466V37.0975H86.304V35.3401Z" fill="white"/>
<path d="M88.0613 35.3401H86.304V37.0975H88.0613V35.3401Z" fill="white"/>
<path d="M93.3333 35.3401H91.5759V37.0975H93.3333V35.3401Z" fill="white"/>
<path d="M14.2518 37.0974H12.4944V38.8548H14.2518V37.0974Z" fill="white"/>
<path d="M16.0091 37.0974H14.2517V38.8548H16.0091V37.0974Z" fill="white"/>
<path d="M17.7665 37.0974H16.0092V38.8548H17.7665V37.0974Z" fill="white"/>
<path d="M23.0386 37.0974H21.2812V38.8548H23.0386V37.0974Z" fill="white"/>
<path d="M24.7959 37.0974H23.0386V38.8548H24.7959V37.0974Z" fill="white"/>
<path d="M26.5534 37.0974H24.796V38.8548H26.5534V37.0974Z" fill="white"/>
<path d="M30.068 37.0974H28.3107V38.8548H30.068V37.0974Z" fill="white"/>
<path d="M37.0976 37.0974H35.3402V38.8548H37.0976V37.0974Z" fill="white"/>
<path d="M38.8549 37.0974H37.0975V38.8548H38.8549V37.0974Z" fill="white"/>
<path d="M40.6123 37.0974H38.855V38.8548H40.6123V37.0974Z" fill="white"/>
<path d="M42.3697 37.0974H40.6123V38.8548H42.3697V37.0974Z" fill="white"/>
<path d="M45.8843 37.0974H44.127V38.8548H45.8843V37.0974Z" fill="white"/>
<path d="M51.1565 37.0974H49.3992V38.8548H51.1565V37.0974Z" fill="white"/>
<path d="M52.9139 37.0974H51.1565V38.8548H52.9139V37.0974Z" fill="white"/>
<path d="M58.1861 37.0974H56.4287V38.8548H58.1861V37.0974Z" fill="white"/>
<path d="M59.9434 37.0974H58.186V38.8548H59.9434V37.0974Z" fill="white"/>
<path d="M63.4581 37.0974H61.7007V38.8548H63.4581V37.0974Z" fill="white"/>
<path d="M66.9729 37.0974H65.2156V38.8548H66.9729V37.0974Z" fill="white"/>
<path d="M70.4876 37.0974H68.7302V38.8548H70.4876V37.0974Z" fill="white"/>
<path d="M74.0022 37.0974H72.2449V38.8548H74.0022V37.0974Z" fill="white"/>
<path d="M75.7598 37.0974H74.0024V38.8548H75.7598V37.0974Z" fill="white"/>
<path d="M79.2745 37.0974H77.5171V38.8548H79.2745V37.0974Z" fill="white"/>
<path d="M81.0318 37.0974H79.2744V38.8548H81.0318V37.0974Z" fill="white"/>
<path d="M82.7891 37.0974H81.0317V38.8548H82.7891V37.0974Z" fill="white"/>
<path d="M84.5464 37.0974H82.7891V38.8548H84.5464V37.0974Z" fill="white"/>
<path d="M86.304 37.0974H84.5466V38.8548H86.304V37.0974Z" fill="white"/>
<path d="M88.0613 37.0974H86.304V38.8548H88.0613V37.0974Z" fill="white"/>
<path d="M89.8186 37.0974H88.0613V38.8548H89.8186V37.0974Z" fill="white"/>
<path d="M91.576 37.0974H89.8186V38.8548H91.576V37.0974Z" fill="white"/>
<path d="M10.737 38.8549H8.97961V40.6122H10.737V38.8549Z" fill="white"/>
<path d="M14.2518 38.8549H12.4944V40.6122H14.2518V38.8549Z" fill="white"/>
<path d="M17.7665 38.8549H16.0092V40.6122H17.7665V38.8549Z" fill="white"/>
<path d="M19.5238 38.8549H17.7665V40.6122H19.5238V38.8549Z" fill="white"/>
<path d="M23.0386 38.8549H21.2812V40.6122H23.0386V38.8549Z" fill="white"/>
<path d="M24.7959 38.8549H23.0386V40.6122H24.7959V38.8549Z" fill="white"/>
<path d="M30.068 38.8549H28.3107V40.6122H30.068V38.8549Z" fill="white"/>
<path d="M33.5828 38.8549H31.8254V40.6122H33.5828V38.8549Z" fill="white"/>
<path d="M38.8549 38.8549H37.0975V40.6122H38.8549V38.8549Z" fill="white"/>
<path d="M44.127 38.8549H42.3696V40.6122H44.127V38.8549Z" fill="white"/>
<path d="M49.3992 38.8549H47.6418V40.6122H49.3992V38.8549Z" fill="white"/>
<path d="M51.1565 38.8549H49.3992V40.6122H51.1565V38.8549Z" fill="white"/>
<path d="M54.6712 38.8549H52.9138V40.6122H54.6712V38.8549Z" fill="white"/>
<path d="M58.1861 38.8549H56.4287V40.6122H58.1861V38.8549Z" fill="white"/>
<path d="M59.9434 38.8549H58.186V40.6122H59.9434V38.8549Z" fill="white"/>
<path d="M66.9729 38.8549H65.2156V40.6122H66.9729V38.8549Z" fill="white"/>
<path d="M68.73 38.8546H66.9727V40.612H68.73V38.8546Z" fill="white"/>
<path d="M72.2449 38.8549H70.4875V40.6122H72.2449V38.8549Z" fill="white"/>
<path d="M74.0022 38.8549H72.2449V40.6122H74.0022V38.8549Z" fill="white"/>
<path d="M75.7598 38.8549H74.0024V40.6122H75.7598V38.8549Z" fill="white"/>
<path d="M79.2745 38.8549H77.5171V40.6122H79.2745V38.8549Z" fill="white"/>
<path d="M82.7891 38.8549H81.0317V40.6122H82.7891V38.8549Z" fill="white"/>
<path d="M86.304 38.8549H84.5466V40.6122H86.304V38.8549Z" fill="white"/>
<path d="M88.0613 38.8549H86.304V40.6122H88.0613V38.8549Z" fill="white"/>
<path d="M89.8186 38.8549H88.0613V40.6122H89.8186V38.8549Z" fill="white"/>
<path d="M8.97966 40.6122H7.22229V42.3696H8.97966V40.6122Z" fill="white"/>
<path d="M12.4944 40.6122H10.7371V42.3696H12.4944V40.6122Z" fill="white"/>
<path d="M16.0091 40.6122H14.2517V42.3696H16.0091V40.6122Z" fill="white"/>
<path d="M21.2813 40.6122H19.5239V42.3696H21.2813V40.6122Z" fill="white"/>
<path d="M23.0386 40.6122H21.2812V42.3696H23.0386V40.6122Z" fill="white"/>
<path d="M24.7959 40.6122H23.0386V42.3696H24.7959V40.6122Z" fill="white"/>
<path d="M26.5534 40.6122H24.796V42.3696H26.5534V40.6122Z" fill="white"/>
<path d="M30.068 40.6122H28.3107V42.3696H30.068V40.6122Z" fill="white"/>
<path d="M31.8255 40.6122H30.0681V42.3696H31.8255V40.6122Z" fill="white"/>
<path d="M35.3403 40.6122H33.5829V42.3696H35.3403V40.6122Z" fill="white"/>
<path d="M37.0976 40.6122H35.3402V42.3696H37.0976V40.6122Z" fill="white"/>
<path d="M40.6123 40.6122H38.855V42.3696H40.6123V40.6122Z" fill="white"/>
<path d="M45.8843 40.6122H44.127V42.3696H45.8843V40.6122Z" fill="white"/>
<path d="M47.6419 40.6122H45.8845V42.3696H47.6419V40.6122Z" fill="white"/>
<path d="M49.3992 40.6122H47.6418V42.3696H49.3992V40.6122Z" fill="white"/>
<path d="M54.6712 40.6122H52.9138V42.3696H54.6712V40.6122Z" fill="white"/>
<path d="M56.4288 40.6122H54.6714V42.3696H56.4288V40.6122Z" fill="white"/>
<path d="M61.7007 40.6122H59.9434V42.3696H61.7007V40.6122Z" fill="white"/>
<path d="M65.2154 40.6122H63.458V42.3696H65.2154V40.6122Z" fill="white"/>
<path d="M66.9729 40.6122H65.2156V42.3696H66.9729V40.6122Z" fill="white"/>
<path d="M74.0022 40.6122H72.2449V42.3696H74.0022V40.6122Z" fill="white"/>
<path d="M75.7598 40.6122H74.0024V42.3696H75.7598V40.6122Z" fill="white"/>
<path d="M81.0318 40.6122H79.2744V42.3696H81.0318V40.6122Z" fill="white"/>
<path d="M82.7891 40.6122H81.0317V42.3696H82.7891V40.6122Z" fill="white"/>
<path d="M84.5464 40.6122H82.7891V42.3696H84.5464V40.6122Z" fill="white"/>
<path d="M86.304 40.6122H84.5466V42.3696H86.304V40.6122Z" fill="white"/>
<path d="M88.0613 40.6122H86.304V42.3696H88.0613V40.6122Z" fill="white"/>
<path d="M10.737 42.3695H8.97961V44.1269H10.737V42.3695Z" fill="white"/>
<path d="M12.4944 42.3695H10.7371V44.1269H12.4944V42.3695Z" fill="white"/>
<path d="M14.2518 42.3695H12.4944V44.1269H14.2518V42.3695Z" fill="white"/>
<path d="M16.0091 42.3695H14.2517V44.1269H16.0091V42.3695Z" fill="white"/>
<path d="M17.7665 42.3695H16.0092V44.1269H17.7665V42.3695Z" fill="white"/>
<path d="M19.5238 42.3695H17.7665V44.1269H19.5238V42.3695Z" fill="white"/>
<path d="M21.2813 42.3695H19.5239V44.1269H21.2813V42.3695Z" fill="white"/>
<path d="M23.0386 42.3695H21.2812V44.1269H23.0386V42.3695Z" fill="white"/>
<path d="M24.7959 42.3695H23.0386V44.1269H24.7959V42.3695Z" fill="white"/>
<path d="M28.3107 42.3695H26.5533V44.1269H28.3107V42.3695Z" fill="white"/>
<path d="M30.068 42.3695H28.3107V44.1269H30.068V42.3695Z" fill="white"/>
<path d="M31.8255 42.3695H30.0681V44.1269H31.8255V42.3695Z" fill="white"/>
<path d="M35.3403 42.3695H33.5829V44.1269H35.3403V42.3695Z" fill="white"/>
<path d="M38.8549 42.3695H37.0975V44.1269H38.8549V42.3695Z" fill="white"/>
<path d="M44.127 42.3695H42.3696V44.1269H44.127V42.3695Z" fill="white"/>
<path d="M45.8843 42.3695H44.127V44.1269H45.8843V42.3695Z" fill="white"/>
<path d="M52.9139 42.3695H51.1565V44.1269H52.9139V42.3695Z" fill="white"/>
<path d="M56.4288 42.3695H54.6714V44.1269H56.4288V42.3695Z" fill="white"/>
<path d="M63.4581 42.3695H61.7007V44.1269H63.4581V42.3695Z" fill="white"/>
<path d="M70.4876 42.3695H68.7302V44.1269H70.4876V42.3695Z" fill="white"/>
<path d="M75.7598 42.3695H74.0024V44.1269H75.7598V42.3695Z" fill="white"/>
<path d="M77.5171 42.3695H75.7598V44.1269H77.5171V42.3695Z" fill="white"/>
<path d="M79.2745 42.3695H77.5171V44.1269H79.2745V42.3695Z" fill="white"/>
<path d="M81.0318 42.3695H79.2744V44.1269H81.0318V42.3695Z" fill="white"/>
<path d="M88.0613 42.3695H86.304V44.1269H88.0613V42.3695Z" fill="white"/>
<path d="M89.8186 42.3695H88.0613V44.1269H89.8186V42.3695Z" fill="white"/>
<path d="M93.3333 42.3695H91.5759V44.1269H93.3333V42.3695Z" fill="white"/>
<path d="M8.97966 44.127H7.22229V45.8843H8.97966V44.127Z" fill="white"/>
<path d="M12.4944 44.127H10.7371V45.8843H12.4944V44.127Z" fill="white"/>
<path d="M17.7665 44.127H16.0092V45.8843H17.7665V44.127Z" fill="white"/>
<path d="M21.2813 44.127H19.5239V45.8843H21.2813V44.127Z" fill="white"/>
<path d="M23.0386 44.127H21.2812V45.8843H23.0386V44.127Z" fill="white"/>
<path d="M26.5534 44.127H24.796V45.8843H26.5534V44.127Z" fill="white"/>
<path d="M30.068 44.127H28.3107V45.8843H30.068V44.127Z" fill="white"/>
<path d="M31.8255 44.127H30.0681V45.8843H31.8255V44.127Z" fill="white"/>
<path d="M35.3403 44.127H33.5829V45.8843H35.3403V44.127Z" fill="white"/>
<path d="M37.0976 44.127H35.3402V45.8843H37.0976V44.127Z" fill="white"/>
<path d="M38.8549 44.127H37.0975V45.8843H38.8549V44.127Z" fill="white"/>
<path d="M42.3697 44.127H40.6123V45.8843H42.3697V44.127Z" fill="white"/>
<path d="M44.127 44.127H42.3696V45.8843H44.127V44.127Z" fill="white"/>
<path d="M47.6419 44.127H45.8845V45.8843H47.6419V44.127Z" fill="white"/>
<path d="M49.3992 44.127H47.6418V45.8843H49.3992V44.127Z" fill="white"/>
<path d="M51.1565 44.127H49.3992V45.8843H51.1565V44.127Z" fill="white"/>
<path d="M52.9139 44.127H51.1565V45.8843H52.9139V44.127Z" fill="white"/>
<path d="M56.4288 44.127H54.6714V45.8843H56.4288V44.127Z" fill="white"/>
<path d="M59.9434 44.127H58.186V45.8843H59.9434V44.127Z" fill="white"/>
<path d="M61.7007 44.127H59.9434V45.8843H61.7007V44.127Z" fill="white"/>
<path d="M65.2154 44.127H63.458V45.8843H65.2154V44.127Z" fill="white"/>
<path d="M68.73 44.127H66.9727V45.8843H68.73V44.127Z" fill="white"/>
<path d="M77.5171 44.127H75.7598V45.8843H77.5171V44.127Z" fill="white"/>
<path d="M79.2745 44.127H77.5171V45.8843H79.2745V44.127Z" fill="white"/>
<path d="M81.0318 44.127H79.2744V45.8843H81.0318V44.127Z" fill="white"/>
<path d="M82.7891 44.127H81.0317V45.8843H82.7891V44.127Z" fill="white"/>
<path d="M84.5464 44.127H82.7891V45.8843H84.5464V44.127Z" fill="white"/>
<path d="M88.0613 44.127H86.304V45.8843H88.0613V44.127Z" fill="white"/>
<path d="M89.8186 44.127H88.0613V45.8843H89.8186V44.127Z" fill="white"/>
<path d="M93.3333 44.127H91.5759V45.8843H93.3333V44.127Z" fill="white"/>
<path d="M8.97966 45.8843H7.22229V47.6416H8.97966V45.8843Z" fill="white"/>
<path d="M16.0091 45.8843H14.2517V47.6416H16.0091V45.8843Z" fill="white"/>
<path d="M17.7665 45.8843H16.0092V47.6416H17.7665V45.8843Z" fill="white"/>
<path d="M19.5238 45.8843H17.7665V47.6416H19.5238V45.8843Z" fill="white"/>
<path d="M21.2813 45.8843H19.5239V47.6416H21.2813V45.8843Z" fill="white"/>
<path d="M23.0386 45.8843H21.2812V47.6416H23.0386V45.8843Z" fill="white"/>
<path d="M26.5534 45.8843H24.796V47.6416H26.5534V45.8843Z" fill="white"/>
<path d="M28.3107 45.8843H26.5533V47.6416H28.3107V45.8843Z" fill="white"/>
<path d="M30.068 45.8843H28.3107V47.6416H30.068V45.8843Z" fill="white"/>
<path d="M31.8255 45.8843H30.0681V47.6416H31.8255V45.8843Z" fill="white"/>
<path d="M33.5828 45.8843H31.8254V47.6416H33.5828V45.8843Z" fill="white"/>
<path d="M35.3403 45.8843H33.5829V47.6416H35.3403V45.8843Z" fill="white"/>
<path d="M44.127 45.8843H42.3696V47.6416H44.127V45.8843Z" fill="white"/>
<path d="M45.8843 45.8843H44.127V47.6416H45.8843V45.8843Z" fill="white"/>
<path d="M47.6419 45.8843H45.8845V47.6416H47.6419V45.8843Z" fill="white"/>
<path d="M49.3992 45.8843H47.6418V47.6416H49.3992V45.8843Z" fill="white"/>
<path d="M51.1565 45.8843H49.3992V47.6416H51.1565V45.8843Z" fill="white"/>
<path d="M52.9139 45.8843H51.1565V47.6416H52.9139V45.8843Z" fill="white"/>
<path d="M54.6712 45.8843H52.9138V47.6416H54.6712V45.8843Z" fill="white"/>
<path d="M56.4288 45.8843H54.6714V47.6416H56.4288V45.8843Z" fill="white"/>
<path d="M58.1861 45.8843H56.4287V47.6416H58.1861V45.8843Z" fill="white"/>
<path d="M63.4581 45.8843H61.7007V47.6416H63.4581V45.8843Z" fill="white"/>
<path d="M66.9729 45.8843H65.2156V47.6416H66.9729V45.8843Z" fill="white"/>
<path d="M72.2449 45.8843H70.4875V47.6416H72.2449V45.8843Z" fill="white"/>
<path d="M79.2745 45.8843H77.5171V47.6416H79.2745V45.8843Z" fill="white"/>
<path d="M81.0318 45.8843H79.2744V47.6416H81.0318V45.8843Z" fill="white"/>
<path d="M82.7891 45.8843H81.0317V47.6416H82.7891V45.8843Z" fill="white"/>
<path d="M84.5464 45.8843H82.7891V47.6416H84.5464V45.8843Z" fill="white"/>
<path d="M86.304 45.8843H84.5466V47.6416H86.304V45.8843Z" fill="white"/>
<path d="M88.0613 45.8843H86.304V47.6416H88.0613V45.8843Z" fill="white"/>
<path d="M89.8186 45.8843H88.0613V47.6416H89.8186V45.8843Z" fill="white"/>
<path d="M93.3333 45.8843H91.5759V47.6416H93.3333V45.8843Z" fill="white"/>
<path d="M10.737 47.6417H8.97961V49.3991H10.737V47.6417Z" fill="white"/>
<path d="M12.4944 47.6417H10.7371V49.3991H12.4944V47.6417Z" fill="white"/>
<path d="M14.2518 47.6417H12.4944V49.3991H14.2518V47.6417Z" fill="white"/>
<path d="M16.0091 47.6417H14.2517V49.3991H16.0091V47.6417Z" fill="white"/>
<path d="M23.0386 47.6417H21.2812V49.3991H23.0386V47.6417Z" fill="white"/>
<path d="M28.3107 47.6417H26.5533V49.3991H28.3107V47.6417Z" fill="white"/>
<path d="M30.068 47.6417H28.3107V49.3991H30.068V47.6417Z" fill="white"/>
<path d="M31.8255 47.6417H30.0681V49.3991H31.8255V47.6417Z" fill="white"/>
<path d="M33.5828 47.6417H31.8254V49.3991H33.5828V47.6417Z" fill="white"/>
<path d="M42.3697 47.6417H40.6123V49.3991H42.3697V47.6417Z" fill="white"/>
<path d="M45.8843 47.6417H44.127V49.3991H45.8843V47.6417Z" fill="white"/>
<path d="M47.6419 47.6417H45.8845V49.3991H47.6419V47.6417Z" fill="white"/>
<path d="M54.6712 47.6417H52.9138V49.3991H54.6712V47.6417Z" fill="white"/>
<path d="M56.4288 47.6417H54.6714V49.3991H56.4288V47.6417Z" fill="white"/>
<path d="M61.7007 47.6417H59.9434V49.3991H61.7007V47.6417Z" fill="white"/>
<path d="M63.4581 47.6417H61.7007V49.3991H63.4581V47.6417Z" fill="white"/>
<path d="M66.9729 47.6417H65.2156V49.3991H66.9729V47.6417Z" fill="white"/>
<path d="M68.73 47.6416H66.9727V49.399H68.73V47.6416Z" fill="white"/>
<path d="M72.2449 47.6417H70.4875V49.3991H72.2449V47.6417Z" fill="white"/>
<path d="M74.0022 47.6417H72.2449V49.3991H74.0022V47.6417Z" fill="white"/>
<path d="M77.5171 47.6417H75.7598V49.3991H77.5171V47.6417Z" fill="white"/>
<path d="M79.2745 47.6417H77.5171V49.3991H79.2745V47.6417Z" fill="white"/>
<path d="M86.304 47.6417H84.5466V49.3991H86.304V47.6417Z" fill="white"/>
<path d="M89.8186 47.6417H88.0613V49.3991H89.8186V47.6417Z" fill="white"/>
<path d="M91.576 47.6417H89.8186V49.3991H91.576V47.6417Z" fill="white"/>
<path d="M8.97966 49.399H7.22229V51.1564H8.97966V49.399Z" fill="white"/>
<path d="M16.0091 49.399H14.2517V51.1564H16.0091V49.399Z" fill="white"/>
<path d="M19.5238 49.399H17.7665V51.1564H19.5238V49.399Z" fill="white"/>
<path d="M23.0386 49.399H21.2812V51.1564H23.0386V49.399Z" fill="white"/>
<path d="M24.7959 49.399H23.0386V51.1564H24.7959V49.399Z" fill="white"/>
<path d="M26.5534 49.399H24.796V51.1564H26.5534V49.399Z" fill="white"/>
<path d="M30.068 49.399H28.3107V51.1564H30.068V49.399Z" fill="white"/>
<path d="M31.8255 49.399H30.0681V51.1564H31.8255V49.399Z" fill="white"/>
<path d="M33.5828 49.399H31.8254V51.1564H33.5828V49.399Z" fill="white"/>
<path d="M35.3403 49.399H33.5829V51.1564H35.3403V49.399Z" fill="white"/>
<path d="M37.0976 49.399H35.3402V51.1564H37.0976V49.399Z" fill="white"/>
<path d="M38.8549 49.399H37.0975V51.1564H38.8549V49.399Z" fill="white"/>
<path d="M40.6123 49.399H38.855V51.1564H40.6123V49.399Z" fill="white"/>
<path d="M42.3697 49.399H40.6123V51.1564H42.3697V49.399Z" fill="white"/>
<path d="M47.6419 49.399H45.8845V51.1564H47.6419V49.399Z" fill="white"/>
<path d="M51.1565 49.399H49.3992V51.1564H51.1565V49.399Z" fill="white"/>
<path d="M54.6712 49.399H52.9138V51.1564H54.6712V49.399Z" fill="white"/>
<path d="M58.1861 49.399H56.4287V51.1564H58.1861V49.399Z" fill="white"/>
<path d="M61.7007 49.399H59.9434V51.1564H61.7007V49.399Z" fill="white"/>
<path d="M63.4581 49.399H61.7007V51.1564H63.4581V49.399Z" fill="white"/>
<path d="M65.2154 49.399H63.458V51.1564H65.2154V49.399Z" fill="white"/>
<path d="M74.0022 49.399H72.2449V51.1564H74.0022V49.399Z" fill="white"/>
<path d="M77.5171 49.399H75.7598V51.1564H77.5171V49.399Z" fill="white"/>
<path d="M79.2745 49.399H77.5171V51.1564H79.2745V49.399Z" fill="white"/>
<path d="M82.7891 49.399H81.0317V51.1564H82.7891V49.399Z" fill="white"/>
<path d="M86.304 49.399H84.5466V51.1564H86.304V49.399Z" fill="white"/>
<path d="M89.8186 49.399H88.0613V51.1564H89.8186V49.399Z" fill="white"/>
<path d="M91.576 49.399H89.8186V51.1564H91.576V49.399Z" fill="white"/>
<path d="M8.97966 51.1564H7.22229V52.9137H8.97966V51.1564Z" fill="white"/>
<path d="M10.737 51.1564H8.97961V52.9137H10.737V51.1564Z" fill="white"/>
<path d="M12.4944 51.1564H10.7371V52.9137H12.4944V51.1564Z" fill="white"/>
<path d="M14.2518 51.1564H12.4944V52.9137H14.2518V51.1564Z" fill="white"/>
<path d="M16.0091 51.1564H14.2517V52.9137H16.0091V51.1564Z" fill="white"/>
<path d="M23.0386 51.1564H21.2812V52.9137H23.0386V51.1564Z" fill="white"/>
<path d="M26.5534 51.1564H24.796V52.9137H26.5534V51.1564Z" fill="white"/>
<path d="M30.068 51.1564H28.3107V52.9137H30.068V51.1564Z" fill="white"/>
<path d="M35.3403 51.1564H33.5829V52.9137H35.3403V51.1564Z" fill="white"/>
<path d="M40.6123 51.1564H38.855V52.9137H40.6123V51.1564Z" fill="white"/>
<path d="M42.3697 51.1564H40.6123V52.9137H42.3697V51.1564Z" fill="white"/>
<path d="M47.6419 51.1564H45.8845V52.9137H47.6419V51.1564Z" fill="white"/>
<path d="M54.6712 51.1564H52.9138V52.9137H54.6712V51.1564Z" fill="white"/>
<path d="M56.4288 51.1564H54.6714V52.9137H56.4288V51.1564Z" fill="white"/>
<path d="M58.1861 51.1564H56.4287V52.9137H58.1861V51.1564Z" fill="white"/>
<path d="M61.7007 51.1564H59.9434V52.9137H61.7007V51.1564Z" fill="white"/>
<path d="M65.2154 51.1564H63.458V52.9137H65.2154V51.1564Z" fill="white"/>
<path d="M66.9729 51.1564H65.2156V52.9137H66.9729V51.1564Z" fill="white"/>
<path d="M74.0022 51.1564H72.2449V52.9137H74.0022V51.1564Z" fill="white"/>
<path d="M75.7598 51.1564H74.0024V52.9137H75.7598V51.1564Z" fill="white"/>
<path d="M79.2745 51.1564H77.5171V52.9137H79.2745V51.1564Z" fill="white"/>
<path d="M86.304 51.1564H84.5466V52.9137H86.304V51.1564Z" fill="white"/>
<path d="M88.0613 51.1564H86.304V52.9137H88.0613V51.1564Z" fill="white"/>
<path d="M93.3333 51.1564H91.5759V52.9137H93.3333V51.1564Z" fill="white"/>
<path d="M10.737 52.9138H8.97961V54.6712H10.737V52.9138Z" fill="white"/>
<path d="M12.4944 52.9138H10.7371V54.6712H12.4944V52.9138Z" fill="white"/>
<path d="M16.0091 52.9138H14.2517V54.6712H16.0091V52.9138Z" fill="white"/>
<path d="M17.7665 52.9138H16.0092V54.6712H17.7665V52.9138Z" fill="white"/>
<path d="M19.5238 52.9138H17.7665V54.6712H19.5238V52.9138Z" fill="white"/>
<path d="M21.2813 52.9138H19.5239V54.6712H21.2813V52.9138Z" fill="white"/>
<path d="M23.0386 52.9138H21.2812V54.6712H23.0386V52.9138Z" fill="white"/>
<path d="M31.8255 52.9138H30.0681V54.6712H31.8255V52.9138Z" fill="white"/>
<path d="M35.3403 52.9138H33.5829V54.6712H35.3403V52.9138Z" fill="white"/>
<path d="M40.6123 52.9138H38.855V54.6712H40.6123V52.9138Z" fill="white"/>
<path d="M42.3697 52.9138H40.6123V54.6712H42.3697V52.9138Z" fill="white"/>
<path d="M45.8843 52.9138H44.127V54.6712H45.8843V52.9138Z" fill="white"/>
<path d="M47.6419 52.9138H45.8845V54.6712H47.6419V52.9138Z" fill="white"/>
<path d="M49.3992 52.9138H47.6418V54.6712H49.3992V52.9138Z" fill="white"/>
<path d="M51.1565 52.9138H49.3992V54.6712H51.1565V52.9138Z" fill="white"/>
<path d="M52.9139 52.9138H51.1565V54.6712H52.9139V52.9138Z" fill="white"/>
<path d="M54.6712 52.9138H52.9138V54.6712H54.6712V52.9138Z" fill="white"/>
<path d="M56.4288 52.9138H54.6714V54.6712H56.4288V52.9138Z" fill="white"/>
<path d="M63.4581 52.9138H61.7007V54.6712H63.4581V52.9138Z" fill="white"/>
<path d="M68.73 52.9139H66.9727V54.6713H68.73V52.9139Z" fill="white"/>
<path d="M70.4876 52.9138H68.7302V54.6712H70.4876V52.9138Z" fill="white"/>
<path d="M72.2449 52.9138H70.4875V54.6712H72.2449V52.9138Z" fill="white"/>
<path d="M75.7598 52.9138H74.0024V54.6712H75.7598V52.9138Z" fill="white"/>
<path d="M77.5171 52.9138H75.7598V54.6712H77.5171V52.9138Z" fill="white"/>
<path d="M79.2745 52.9138H77.5171V54.6712H79.2745V52.9138Z" fill="white"/>
<path d="M81.0318 52.9138H79.2744V54.6712H81.0318V52.9138Z" fill="white"/>
<path d="M82.7891 52.9138H81.0317V54.6712H82.7891V52.9138Z" fill="white"/>
<path d="M84.5464 52.9138H82.7891V54.6712H84.5464V52.9138Z" fill="white"/>
<path d="M86.304 52.9138H84.5466V54.6712H86.304V52.9138Z" fill="white"/>
<path d="M93.3333 52.9138H91.5759V54.6712H93.3333V52.9138Z" fill="white"/>
<path d="M8.97966 54.6711H7.22229V56.4285H8.97966V54.6711Z" fill="white"/>
<path d="M17.7665 54.6711H16.0092V56.4285H17.7665V54.6711Z" fill="white"/>
<path d="M21.2813 54.6711H19.5239V56.4285H21.2813V54.6711Z" fill="white"/>
<path d="M23.0386 54.6711H21.2812V56.4285H23.0386V54.6711Z" fill="white"/>
<path d="M26.5534 54.6711H24.796V56.4285H26.5534V54.6711Z" fill="white"/>
<path d="M30.068 54.6711H28.3107V56.4285H30.068V54.6711Z" fill="white"/>
<path d="M31.8255 54.6711H30.0681V56.4285H31.8255V54.6711Z" fill="white"/>
<path d="M33.5828 54.6711H31.8254V56.4285H33.5828V54.6711Z" fill="white"/>
<path d="M35.3403 54.6711H33.5829V56.4285H35.3403V54.6711Z" fill="white"/>
<path d="M38.8549 54.6711H37.0975V56.4285H38.8549V54.6711Z" fill="white"/>
<path d="M40.6123 54.6711H38.855V56.4285H40.6123V54.6711Z" fill="white"/>
<path d="M47.6419 54.6711H45.8845V56.4285H47.6419V54.6711Z" fill="white"/>
<path d="M49.3992 54.6711H47.6418V56.4285H49.3992V54.6711Z" fill="white"/>
<path d="M52.9139 54.6711H51.1565V56.4285H52.9139V54.6711Z" fill="white"/>
<path d="M56.4288 54.6711H54.6714V56.4285H56.4288V54.6711Z" fill="white"/>
<path d="M58.1861 54.6711H56.4287V56.4285H58.1861V54.6711Z" fill="white"/>
<path d="M59.9434 54.6711H58.186V56.4285H59.9434V54.6711Z" fill="white"/>
<path d="M61.7007 54.6711H59.9434V56.4285H61.7007V54.6711Z" fill="white"/>
<path d="M65.2154 54.6711H63.458V56.4285H65.2154V54.6711Z" fill="white"/>
<path d="M68.73 54.6711H66.9727V56.4285H68.73V54.6711Z" fill="white"/>
<path d="M70.4876 54.6711H68.7302V56.4285H70.4876V54.6711Z" fill="white"/>
<path d="M74.0022 54.6711H72.2449V56.4285H74.0022V54.6711Z" fill="white"/>
<path d="M75.7598 54.6711H74.0024V56.4285H75.7598V54.6711Z" fill="white"/>
<path d="M77.5171 54.6711H75.7598V56.4285H77.5171V54.6711Z" fill="white"/>
<path d="M82.7891 54.6711H81.0317V56.4285H82.7891V54.6711Z" fill="white"/>
<path d="M84.5464 54.6711H82.7891V56.4285H84.5464V54.6711Z" fill="white"/>
<path d="M86.304 54.6711H84.5466V56.4285H86.304V54.6711Z" fill="white"/>
<path d="M89.8186 54.6711H88.0613V56.4285H89.8186V54.6711Z" fill="white"/>
<path d="M93.3333 54.6711H91.5759V56.4285H93.3333V54.6711Z" fill="white"/>
<path d="M10.737 56.4285H8.97961V58.1858H10.737V56.4285Z" fill="white"/>
<path d="M16.0091 56.4285H14.2517V58.1858H16.0091V56.4285Z" fill="white"/>
<path d="M17.7665 56.4285H16.0092V58.1858H17.7665V56.4285Z" fill="white"/>
<path d="M19.5238 56.4285H17.7665V58.1858H19.5238V56.4285Z" fill="white"/>
<path d="M23.0386 56.4285H21.2812V58.1858H23.0386V56.4285Z" fill="white"/>
<path d="M24.7959 56.4285H23.0386V58.1858H24.7959V56.4285Z" fill="white"/>
<path d="M26.5534 56.4285H24.796V58.1858H26.5534V56.4285Z" fill="white"/>
<path d="M28.3107 56.4285H26.5533V58.1858H28.3107V56.4285Z" fill="white"/>
<path d="M31.8255 56.4285H30.0681V58.1858H31.8255V56.4285Z" fill="white"/>
<path d="M40.6123 56.4285H38.855V58.1858H40.6123V56.4285Z" fill="white"/>
<path d="M42.3697 56.4285H40.6123V58.1858H42.3697V56.4285Z" fill="white"/>
<path d="M45.8843 56.4285H44.127V58.1858H45.8843V56.4285Z" fill="white"/>
<path d="M47.6419 56.4285H45.8845V58.1858H47.6419V56.4285Z" fill="white"/>
<path d="M52.9139 56.4285H51.1565V58.1858H52.9139V56.4285Z" fill="white"/>
<path d="M54.6712 56.4285H52.9138V58.1858H54.6712V56.4285Z" fill="white"/>
<path d="M56.4288 56.4285H54.6714V58.1858H56.4288V56.4285Z" fill="white"/>
<path d="M59.9434 56.4285H58.186V58.1858H59.9434V56.4285Z" fill="white"/>
<path d="M65.2154 56.4285H63.458V58.1858H65.2154V56.4285Z" fill="white"/>
<path d="M66.9729 56.4285H65.2156V58.1858H66.9729V56.4285Z" fill="white"/>
<path d="M68.73 56.4285H66.9727V58.1858H68.73V56.4285Z" fill="white"/>
<path d="M74.0022 56.4285H72.2449V58.1858H74.0022V56.4285Z" fill="white"/>
<path d="M82.7891 56.4285H81.0317V58.1858H82.7891V56.4285Z" fill="white"/>
<path d="M86.304 56.4285H84.5466V58.1858H86.304V56.4285Z" fill="white"/>
<path d="M88.0613 56.4285H86.304V58.1858H88.0613V56.4285Z" fill="white"/>
<path d="M91.576 56.4285H89.8186V58.1858H91.576V56.4285Z" fill="white"/>
<path d="M93.3333 56.4285H91.5759V58.1858H93.3333V56.4285Z" fill="white"/>
<path d="M10.737 58.1859H8.97961V59.9433H10.737V58.1859Z" fill="white"/>
<path d="M12.4944 58.1859H10.7371V59.9433H12.4944V58.1859Z" fill="white"/>
<path d="M17.7665 58.1859H16.0092V59.9433H17.7665V58.1859Z" fill="white"/>
<path d="M23.0386 58.1859H21.2812V59.9433H23.0386V58.1859Z" fill="white"/>
<path d="M26.5534 58.1859H24.796V59.9433H26.5534V58.1859Z" fill="white"/>
<path d="M31.8255 58.1859H30.0681V59.9433H31.8255V58.1859Z" fill="white"/>
<path d="M35.3403 58.1859H33.5829V59.9433H35.3403V58.1859Z" fill="white"/>
<path d="M42.3697 58.1859H40.6123V59.9433H42.3697V58.1859Z" fill="white"/>
<path d="M47.6419 58.1859H45.8845V59.9433H47.6419V58.1859Z" fill="white"/>
<path d="M51.1565 58.1859H49.3992V59.9433H51.1565V58.1859Z" fill="white"/>
<path d="M52.9139 58.1859H51.1565V59.9433H52.9139V58.1859Z" fill="white"/>
<path d="M54.6712 58.1859H52.9138V59.9433H54.6712V58.1859Z" fill="white"/>
<path d="M58.1861 58.1859H56.4287V59.9433H58.1861V58.1859Z" fill="white"/>
<path d="M61.7007 58.1859H59.9434V59.9433H61.7007V58.1859Z" fill="white"/>
<path d="M63.4581 58.1859H61.7007V59.9433H63.4581V58.1859Z" fill="white"/>
<path d="M65.2154 58.1859H63.458V59.9433H65.2154V58.1859Z" fill="white"/>
<path d="M66.9729 58.1859H65.2156V59.9433H66.9729V58.1859Z" fill="white"/>
<path d="M70.4876 58.1859H68.7302V59.9433H70.4876V58.1859Z" fill="white"/>
<path d="M74.0022 58.1859H72.2449V59.9433H74.0022V58.1859Z" fill="white"/>
<path d="M77.5171 58.1859H75.7598V59.9433H77.5171V58.1859Z" fill="white"/>
<path d="M81.0318 58.1859H79.2744V59.9433H81.0318V58.1859Z" fill="white"/>
<path d="M84.5464 58.1859H82.7891V59.9433H84.5464V58.1859Z" fill="white"/>
<path d="M86.304 58.1859H84.5466V59.9433H86.304V58.1859Z" fill="white"/>
<path d="M88.0613 58.1859H86.304V59.9433H88.0613V58.1859Z" fill="white"/>
<path d="M89.8186 58.1859H88.0613V59.9433H89.8186V58.1859Z" fill="white"/>
<path d="M8.97966 59.9432H7.22229V61.7006H8.97966V59.9432Z" fill="white"/>
<path d="M17.7665 59.9432H16.0092V61.7006H17.7665V59.9432Z" fill="white"/>
<path d="M19.5238 59.9432H17.7665V61.7006H19.5238V59.9432Z" fill="white"/>
<path d="M26.5534 59.9432H24.796V61.7006H26.5534V59.9432Z" fill="white"/>
<path d="M31.8255 59.9432H30.0681V61.7006H31.8255V59.9432Z" fill="white"/>
<path d="M35.3403 59.9432H33.5829V61.7006H35.3403V59.9432Z" fill="white"/>
<path d="M38.8549 59.9432H37.0975V61.7006H38.8549V59.9432Z" fill="white"/>
<path d="M42.3697 59.9432H40.6123V61.7006H42.3697V59.9432Z" fill="white"/>
<path d="M45.8843 59.9432H44.127V61.7006H45.8843V59.9432Z" fill="white"/>
<path d="M51.1565 59.9432H49.3992V61.7006H51.1565V59.9432Z" fill="white"/>
<path d="M56.4288 59.9432H54.6714V61.7006H56.4288V59.9432Z" fill="white"/>
<path d="M59.9434 59.9432H58.186V61.7006H59.9434V59.9432Z" fill="white"/>
<path d="M63.4581 59.9432H61.7007V61.7006H63.4581V59.9432Z" fill="white"/>
<path d="M65.2154 59.9432H63.458V61.7006H65.2154V59.9432Z" fill="white"/>
<path d="M68.73 59.9432H66.9727V61.7006H68.73V59.9432Z" fill="white"/>
<path d="M70.4876 59.9432H68.7302V61.7006H70.4876V59.9432Z" fill="white"/>
<path d="M72.2449 59.9432H70.4875V61.7006H72.2449V59.9432Z" fill="white"/>
<path d="M74.0022 59.9432H72.2449V61.7006H74.0022V59.9432Z" fill="white"/>
<path d="M75.7598 59.9432H74.0024V61.7006H75.7598V59.9432Z" fill="white"/>
<path d="M77.5171 59.9432H75.7598V61.7006H77.5171V59.9432Z" fill="white"/>
<path d="M84.5464 59.9432H82.7891V61.7006H84.5464V59.9432Z" fill="white"/>
<path d="M91.576 59.9432H89.8186V61.7006H91.576V59.9432Z" fill="white"/>
<path d="M93.3333 59.9432H91.5759V61.7006H93.3333V59.9432Z" fill="white"/>
<path d="M8.97966 61.7007H7.22229V63.4581H8.97966V61.7007Z" fill="white"/>
<path d="M12.4944 61.7007H10.7371V63.4581H12.4944V61.7007Z" fill="white"/>
<path d="M16.0091 61.7007H14.2517V63.4581H16.0091V61.7007Z" fill="white"/>
<path d="M21.2813 61.7007H19.5239V63.4581H21.2813V61.7007Z" fill="white"/>
<path d="M24.7959 61.7007H23.0386V63.4581H24.7959V61.7007Z" fill="white"/>
<path d="M26.5534 61.7007H24.796V63.4581H26.5534V61.7007Z" fill="white"/>
<path d="M30.068 61.7007H28.3107V63.4581H30.068V61.7007Z" fill="white"/>
<path d="M38.8549 61.7007H37.0975V63.4581H38.8549V61.7007Z" fill="white"/>
<path d="M40.6123 61.7007H38.855V63.4581H40.6123V61.7007Z" fill="white"/>
<path d="M45.8843 61.7007H44.127V63.4581H45.8843V61.7007Z" fill="white"/>
<path d="M52.9139 61.7007H51.1565V63.4581H52.9139V61.7007Z" fill="white"/>
<path d="M54.6712 61.7007H52.9138V63.4581H54.6712V61.7007Z" fill="white"/>
<path d="M56.4288 61.7007H54.6714V63.4581H56.4288V61.7007Z" fill="white"/>
<path d="M61.7007 61.7007H59.9434V63.4581H61.7007V61.7007Z" fill="white"/>
<path d="M63.4581 61.7007H61.7007V63.4581H63.4581V61.7007Z" fill="white"/>
<path d="M65.2154 61.7007H63.458V63.4581H65.2154V61.7007Z" fill="white"/>
<path d="M66.9729 61.7007H65.2156V63.4581H66.9729V61.7007Z" fill="white"/>
<path d="M72.2449 61.7007H70.4875V63.4581H72.2449V61.7007Z" fill="white"/>
<path d="M74.0022 61.7007H72.2449V63.4581H74.0022V61.7007Z" fill="white"/>
<path d="M75.7598 61.7007H74.0024V63.4581H75.7598V61.7007Z" fill="white"/>
<path d="M79.2745 61.7007H77.5171V63.4581H79.2745V61.7007Z" fill="white"/>
<path d="M82.7891 61.7007H81.0317V63.4581H82.7891V61.7007Z" fill="white"/>
<path d="M88.0613 61.7007H86.304V63.4581H88.0613V61.7007Z" fill="white"/>
<path d="M91.576 61.7007H89.8186V63.4581H91.576V61.7007Z" fill="white"/>
<path d="M17.7665 63.458H16.0092V65.2154H17.7665V63.458Z" fill="white"/>
<path d="M19.5238 63.458H17.7665V65.2154H19.5238V63.458Z" fill="white"/>
<path d="M31.8255 63.458H30.0681V65.2154H31.8255V63.458Z" fill="white"/>
<path d="M33.5828 63.458H31.8254V65.2154H33.5828V63.458Z" fill="white"/>
<path d="M35.3403 63.458H33.5829V65.2154H35.3403V63.458Z" fill="white"/>
<path d="M38.8549 63.458H37.0975V65.2154H38.8549V63.458Z" fill="white"/>
<path d="M42.3697 63.458H40.6123V65.2154H42.3697V63.458Z" fill="white"/>
<path d="M45.8843 63.458H44.127V65.2154H45.8843V63.458Z" fill="white"/>
<path d="M47.6419 63.458H45.8845V65.2154H47.6419V63.458Z" fill="white"/>
<path d="M51.1565 63.458H49.3992V65.2154H51.1565V63.458Z" fill="white"/>
<path d="M52.9139 63.458H51.1565V65.2154H52.9139V63.458Z" fill="white"/>
<path d="M65.2154 63.458H63.458V65.2154H65.2154V63.458Z" fill="white"/>
<path d="M66.9729 63.458H65.2156V65.2154H66.9729V63.458Z" fill="white"/>
<path d="M70.4876 63.458H68.7302V65.2154H70.4876V63.458Z" fill="white"/>
<path d="M74.0022 63.458H72.2449V65.2154H74.0022V63.458Z" fill="white"/>
<path d="M75.7598 63.458H74.0024V65.2154H75.7598V63.458Z" fill="white"/>
<path d="M77.5171 63.458H75.7598V65.2154H77.5171V63.458Z" fill="white"/>
<path d="M81.0318 63.458H79.2744V65.2154H81.0318V63.458Z" fill="white"/>
<path d="M82.7891 63.458H81.0317V65.2154H82.7891V63.458Z" fill="white"/>
<path d="M88.0613 63.458H86.304V65.2154H88.0613V63.458Z" fill="white"/>
<path d="M89.8186 63.458H88.0613V65.2154H89.8186V63.458Z" fill="white"/>
<path d="M91.576 63.458H89.8186V65.2154H91.576V63.458Z" fill="white"/>
<path d="M93.3333 63.458H91.5759V65.2154H93.3333V63.458Z" fill="white"/>
<path d="M8.97966 65.2153H7.22229V66.9727H8.97966V65.2153Z" fill="white"/>
<path d="M10.737 65.2153H8.97961V66.9727H10.737V65.2153Z" fill="white"/>
<path d="M12.4944 65.2153H10.7371V66.9727H12.4944V65.2153Z" fill="white"/>
<path d="M16.0091 65.2153H14.2517V66.9727H16.0091V65.2153Z" fill="white"/>
<path d="M23.0386 65.2153H21.2812V66.9727H23.0386V65.2153Z" fill="white"/>
<path d="M26.5534 65.2153H24.796V66.9727H26.5534V65.2153Z" fill="white"/>
<path d="M28.3107 65.2153H26.5533V66.9727H28.3107V65.2153Z" fill="white"/>
<path d="M31.8255 65.2153H30.0681V66.9727H31.8255V65.2153Z" fill="white"/>
<path d="M35.3403 65.2153H33.5829V66.9727H35.3403V65.2153Z" fill="white"/>
<path d="M38.8549 65.2153H37.0975V66.9727H38.8549V65.2153Z" fill="white"/>
<path d="M40.6123 65.2153H38.855V66.9727H40.6123V65.2153Z" fill="white"/>
<path d="M42.3697 65.2153H40.6123V66.9727H42.3697V65.2153Z" fill="white"/>
<path d="M45.8843 65.2153H44.127V66.9727H45.8843V65.2153Z" fill="white"/>
<path d="M49.3992 65.2153H47.6418V66.9727H49.3992V65.2153Z" fill="white"/>
<path d="M52.9139 65.2153H51.1565V66.9727H52.9139V65.2153Z" fill="white"/>
<path d="M59.9434 65.2153H58.186V66.9727H59.9434V65.2153Z" fill="white"/>
<path d="M61.7007 65.2153H59.9434V66.9727H61.7007V65.2153Z" fill="white"/>
<path d="M68.73 65.2153H66.9727V66.9727H68.73V65.2153Z" fill="white"/>
<path d="M74.0022 65.2153H72.2449V66.9727H74.0022V65.2153Z" fill="white"/>
<path d="M77.5171 65.2153H75.7598V66.9727H77.5171V65.2153Z" fill="white"/>
<path d="M81.0318 65.2153H79.2744V66.9727H81.0318V65.2153Z" fill="white"/>
<path d="M89.8186 65.2153H88.0613V66.9727H89.8186V65.2153Z" fill="white"/>
<path d="M91.576 65.2153H89.8186V66.9727H91.576V65.2153Z" fill="white"/>
<path d="M93.3333 65.2153H91.5759V66.9727H93.3333V65.2153Z" fill="white"/>
<path d="M14.2518 66.9727H12.4944V68.73H14.2518V66.9727Z" fill="white"/>
<path d="M17.7665 66.9727H16.0092V68.73H17.7665V66.9727Z" fill="white"/>
<path d="M19.5238 66.9727H17.7665V68.73H19.5238V66.9727Z" fill="white"/>
<path d="M21.2814 66.9727H19.524V68.73H21.2814V66.9727Z" fill="white"/>
<path d="M26.5534 66.9727H24.796V68.73H26.5534V66.9727Z" fill="white"/>
<path d="M28.3107 66.9727H26.5533V68.73H28.3107V66.9727Z" fill="white"/>
<path d="M31.8255 66.9727H30.0681V68.73H31.8255V66.9727Z" fill="white"/>
<path d="M44.127 66.9727H42.3696V68.73H44.127V66.9727Z" fill="white"/>
<path d="M45.8846 66.9727H44.1272V68.73H45.8846V66.9727Z" fill="white"/>
<path d="M51.1565 66.9727H49.3992V68.73H51.1565V66.9727Z" fill="white"/>
<path d="M52.9139 66.9727H51.1565V68.73H52.9139V66.9727Z" fill="white"/>
<path d="M56.4288 66.9727H54.6714V68.73H56.4288V66.9727Z" fill="white"/>
<path d="M63.4581 66.9727H61.7007V68.73H63.4581V66.9727Z" fill="white"/>
<path d="M68.73 66.9727H66.9727V68.73H68.73V66.9727Z" fill="white"/>
<path d="M74.0025 66.9727H72.2451V68.73H74.0025V66.9727Z" fill="white"/>
<path d="M75.7598 66.9727H74.0024V68.73H75.7598V66.9727Z" fill="white"/>
<path d="M77.5169 66.9727H75.7595V68.73H77.5169V66.9727Z" fill="white"/>
<path d="M79.2745 66.9727H77.5171V68.73H79.2745V66.9727Z" fill="white"/>
<path d="M81.0318 66.9727H79.2744V68.73H81.0318V66.9727Z" fill="white"/>
<path d="M82.7891 66.9727H81.0317V68.73H82.7891V66.9727Z" fill="white"/>
<path d="M88.0613 66.9727H86.304V68.73H88.0613V66.9727Z" fill="white"/>
<path d="M89.8186 66.9727H88.0613V68.73H89.8186V66.9727Z" fill="white"/>
<path d="M91.576 66.9727H89.8186V68.73H91.576V66.9727Z" fill="white"/>
<path d="M14.2518 68.7301H12.4944V70.4875H14.2518V68.7301Z" fill="white"/>
<path d="M17.7665 68.7301H16.0092V70.4875H17.7665V68.7301Z" fill="white"/>
<path d="M23.0386 68.7301H21.2812V70.4875H23.0386V68.7301Z" fill="white"/>
<path d="M37.0976 68.7301H35.3402V70.4875H37.0976V68.7301Z" fill="white"/>
<path d="M44.127 68.7301H42.3696V70.4875H44.127V68.7301Z" fill="white"/>
<path d="M47.6419 68.7301H45.8845V70.4875H47.6419V68.7301Z" fill="white"/>
<path d="M58.1861 68.7301H56.4287V70.4875H58.1861V68.7301Z" fill="white"/>
<path d="M59.9434 68.7301H58.186V70.4875H59.9434V68.7301Z" fill="white"/>
<path d="M65.2154 68.7301H63.458V70.4875H65.2154V68.7301Z" fill="white"/>
<path d="M68.73 68.7301H66.9727V70.4875H68.73V68.7301Z" fill="white"/>
<path d="M70.4876 68.7301H68.7302V70.4875H70.4876V68.7301Z" fill="white"/>
<path d="M72.2449 68.7301H70.4875V70.4875H72.2449V68.7301Z" fill="white"/>
<path d="M84.5464 68.7301H82.7891V70.4875H84.5464V68.7301Z" fill="white"/>
<path d="M88.0613 68.7301H86.304V70.4875H88.0613V68.7301Z" fill="white"/>
<path d="M91.576 68.7301H89.8186V70.4875H91.576V68.7301Z" fill="white"/>
<path d="M8.97966 70.4874H7.22229V72.2448H8.97966V70.4874Z" fill="white"/>
<path d="M16.0091 70.4874H14.2517V72.2448H16.0091V70.4874Z" fill="white"/>
<path d="M19.5238 70.4874H17.7665V72.2448H19.5238V70.4874Z" fill="white"/>
<path d="M28.3107 70.4874H26.5533V72.2448H28.3107V70.4874Z" fill="white"/>
<path d="M31.8255 70.4874H30.0681V72.2448H31.8255V70.4874Z" fill="white"/>
<path d="M33.5828 70.4874H31.8254V72.2448H33.5828V70.4874Z" fill="white"/>
<path d="M37.0976 70.4874H35.3402V72.2448H37.0976V70.4874Z" fill="white"/>
<path d="M38.8549 70.4874H37.0975V72.2448H38.8549V70.4874Z" fill="white"/>
<path d="M40.6123 70.4874H38.855V72.2448H40.6123V70.4874Z" fill="white"/>
<path d="M49.3992 70.4874H47.6418V72.2448H49.3992V70.4874Z" fill="white"/>
<path d="M51.1565 70.4874H49.3992V72.2448H51.1565V70.4874Z" fill="white"/>
<path d="M63.4581 70.4874H61.7007V72.2448H63.4581V70.4874Z" fill="white"/>
<path d="M65.2154 70.4874H63.458V72.2448H65.2154V70.4874Z" fill="white"/>
<path d="M72.2449 70.4874H70.4875V72.2448H72.2449V70.4874Z" fill="white"/>
<path d="M77.5171 70.4874H75.7598V72.2448H77.5171V70.4874Z" fill="white"/>
<path d="M79.2745 70.4874H77.5171V72.2448H79.2745V70.4874Z" fill="white"/>
<path d="M82.7891 70.4874H81.0317V72.2448H82.7891V70.4874Z" fill="white"/>
<path d="M86.304 70.4874H84.5466V72.2448H86.304V70.4874Z" fill="white"/>
<path d="M93.3333 70.4874H91.5759V72.2448H93.3333V70.4874Z" fill="white"/>
<path d="M8.97966 72.2449H7.22229V74.0022H8.97966V72.2449Z" fill="white"/>
<path d="M10.737 72.2449H8.97961V74.0022H10.737V72.2449Z" fill="white"/>
<path d="M14.2518 72.2449H12.4944V74.0022H14.2518V72.2449Z" fill="white"/>
<path d="M17.7665 72.2449H16.0092V74.0022H17.7665V72.2449Z" fill="white"/>
<path d="M21.2813 72.2449H19.5239V74.0022H21.2813V72.2449Z" fill="white"/>
<path d="M23.0386 72.2449H21.2812V74.0022H23.0386V72.2449Z" fill="white"/>
<path d="M24.7959 72.2449H23.0386V74.0022H24.7959V72.2449Z" fill="white"/>
<path d="M26.5534 72.2449H24.796V74.0022H26.5534V72.2449Z" fill="white"/>
<path d="M28.3107 72.2449H26.5533V74.0022H28.3107V72.2449Z" fill="white"/>
<path d="M31.8255 72.2449H30.0681V74.0022H31.8255V72.2449Z" fill="white"/>
<path d="M35.3403 72.2449H33.5829V74.0022H35.3403V72.2449Z" fill="white"/>
<path d="M37.0976 72.2449H35.3402V74.0022H37.0976V72.2449Z" fill="white"/>
<path d="M38.8549 72.2449H37.0975V74.0022H38.8549V72.2449Z" fill="white"/>
<path d="M40.6123 72.2449H38.855V74.0022H40.6123V72.2449Z" fill="white"/>
<path d="M44.127 72.2449H42.3696V74.0022H44.127V72.2449Z" fill="white"/>
<path d="M49.3992 72.2449H47.6418V74.0022H49.3992V72.2449Z" fill="white"/>
<path d="M54.6712 72.2449H52.9138V74.0022H54.6712V72.2449Z" fill="white"/>
<path d="M58.1861 72.2449H56.4287V74.0022H58.1861V72.2449Z" fill="white"/>
<path d="M59.9434 72.2449H58.186V74.0022H59.9434V72.2449Z" fill="white"/>
<path d="M66.9729 72.2449H65.2156V74.0022H66.9729V72.2449Z" fill="white"/>
<path d="M70.4876 72.2449H68.7302V74.0022H70.4876V72.2449Z" fill="white"/>
<path d="M75.7598 72.2449H74.0024V74.0022H75.7598V72.2449Z" fill="white"/>
<path d="M77.5171 72.2449H75.7598V74.0022H77.5171V72.2449Z" fill="white"/>
<path d="M79.2745 72.2449H77.5171V74.0022H79.2745V72.2449Z" fill="white"/>
<path d="M86.304 72.2449H84.5466V74.0022H86.304V72.2449Z" fill="white"/>
<path d="M91.576 72.2449H89.8186V74.0022H91.576V72.2449Z" fill="white"/>
<path d="M10.737 74.0022H8.97961V75.7596H10.737V74.0022Z" fill="white"/>
<path d="M17.7665 74.0022H16.0092V75.7596H17.7665V74.0022Z" fill="white"/>
<path d="M19.5238 74.0022H17.7665V75.7596H19.5238V74.0022Z" fill="white"/>
<path d="M21.2813 74.0022H19.5239V75.7596H21.2813V74.0022Z" fill="white"/>
<path d="M24.7959 74.0022H23.0386V75.7596H24.7959V74.0022Z" fill="white"/>
<path d="M30.068 74.0022H28.3107V75.7596H30.068V74.0022Z" fill="white"/>
<path d="M31.8255 74.0022H30.0681V75.7596H31.8255V74.0022Z" fill="white"/>
<path d="M35.3403 74.0022H33.5829V75.7596H35.3403V74.0022Z" fill="white"/>
<path d="M37.0976 74.0022H35.3402V75.7596H37.0976V74.0022Z" fill="white"/>
<path d="M40.6123 74.0022H38.855V75.7596H40.6123V74.0022Z" fill="white"/>
<path d="M42.3697 74.0022H40.6123V75.7596H42.3697V74.0022Z" fill="white"/>
<path d="M45.8843 74.0022H44.127V75.7596H45.8843V74.0022Z" fill="white"/>
<path d="M47.6419 74.0022H45.8845V75.7596H47.6419V74.0022Z" fill="white"/>
<path d="M49.3992 74.0022H47.6418V75.7596H49.3992V74.0022Z" fill="white"/>
<path d="M51.1565 74.0022H49.3992V75.7596H51.1565V74.0022Z" fill="white"/>
<path d="M58.1861 74.0022H56.4287V75.7596H58.1861V74.0022Z" fill="white"/>
<path d="M61.7007 74.0022H59.9434V75.7596H61.7007V74.0022Z" fill="white"/>
<path d="M63.4581 74.0022H61.7007V75.7596H63.4581V74.0022Z" fill="white"/>
<path d="M72.2449 74.0022H70.4875V75.7596H72.2449V74.0022Z" fill="white"/>
<path d="M74.0022 74.0022H72.2449V75.7596H74.0022V74.0022Z" fill="white"/>
<path d="M77.5171 74.0022H75.7598V75.7596H77.5171V74.0022Z" fill="white"/>
<path d="M79.2745 74.0022H77.5171V75.7596H79.2745V74.0022Z" fill="white"/>
<path d="M84.5464 74.0022H82.7891V75.7596H84.5464V74.0022Z" fill="white"/>
<path d="M86.304 74.0022H84.5466V75.7596H86.304V74.0022Z" fill="white"/>
<path d="M89.8186 74.0022H88.0613V75.7596H89.8186V74.0022Z" fill="white"/>
<path d="M91.576 74.0022H89.8186V75.7596H91.576V74.0022Z" fill="white"/>
<path d="M10.737 75.7595H8.97961V77.5169H10.737V75.7595Z" fill="white"/>
<path d="M12.4944 75.7595H10.7371V77.5169H12.4944V75.7595Z" fill="white"/>
<path d="M14.2518 75.7595H12.4944V77.5169H14.2518V75.7595Z" fill="white"/>
<path d="M26.5534 75.7595H24.796V77.5169H26.5534V75.7595Z" fill="white"/>
<path d="M33.5828 75.7595H31.8254V77.5169H33.5828V75.7595Z" fill="white"/>
<path d="M37.0976 75.7595H35.3402V77.5169H37.0976V75.7595Z" fill="white"/>
<path d="M38.8549 75.7595H37.0975V77.5169H38.8549V75.7595Z" fill="white"/>
<path d="M40.6123 75.7595H38.855V77.5169H40.6123V75.7595Z" fill="white"/>
<path d="M42.3697 75.7595H40.6123V77.5169H42.3697V75.7595Z" fill="white"/>
<path d="M45.8843 75.7595H44.127V77.5169H45.8843V75.7595Z" fill="white"/>
<path d="M49.3992 75.7595H47.6418V77.5169H49.3992V75.7595Z" fill="white"/>
<path d="M58.1861 75.7595H56.4287V77.5169H58.1861V75.7595Z" fill="white"/>
<path d="M59.9434 75.7595H58.186V77.5169H59.9434V75.7595Z" fill="white"/>
<path d="M61.7007 75.7595H59.9434V77.5169H61.7007V75.7595Z" fill="white"/>
<path d="M63.4581 75.7595H61.7007V77.5169H63.4581V75.7595Z" fill="white"/>
<path d="M65.2154 75.7595H63.458V77.5169H65.2154V75.7595Z" fill="white"/>
<path d="M68.73 75.7595H66.9727V77.5169H68.73V75.7595Z" fill="white"/>
<path d="M72.2449 75.7595H70.4875V77.5169H72.2449V75.7595Z" fill="white"/>
<path d="M75.7598 75.7595H74.0024V77.5169H75.7598V75.7595Z" fill="white"/>
<path d="M79.2745 75.7595H77.5171V77.5169H79.2745V75.7595Z" fill="white"/>
<path d="M81.0318 75.7595H79.2744V77.5169H81.0318V75.7595Z" fill="white"/>
<path d="M82.7891 75.7595H81.0317V77.5169H82.7891V75.7595Z" fill="white"/>
<path d="M84.5464 75.7595H82.7891V77.5169H84.5464V75.7595Z" fill="white"/>
<path d="M86.304 75.7595H84.5466V77.5169H86.304V75.7595Z" fill="white"/>
<path d="M89.8186 75.7595H88.0613V77.5169H89.8186V75.7595Z" fill="white"/>
<path d="M8.97966 77.517H7.22229V79.2743H8.97966V77.517Z" fill="white"/>
<path d="M10.737 77.517H8.97961V79.2743H10.737V77.517Z" fill="white"/>
<path d="M12.4944 77.517H10.7371V79.2743H12.4944V77.517Z" fill="white"/>
<path d="M19.5238 77.517H17.7665V79.2743H19.5238V77.517Z" fill="white"/>
<path d="M26.5534 77.517H24.796V79.2743H26.5534V77.517Z" fill="white"/>
<path d="M30.068 77.517H28.3107V79.2743H30.068V77.517Z" fill="white"/>
<path d="M31.8255 77.517H30.0681V79.2743H31.8255V77.517Z" fill="white"/>
<path d="M35.3403 77.517H33.5829V79.2743H35.3403V77.517Z" fill="white"/>
<path d="M37.0976 77.517H35.3402V79.2743H37.0976V77.517Z" fill="white"/>
<path d="M38.8549 77.517H37.0975V79.2743H38.8549V77.517Z" fill="white"/>
<path d="M40.6123 77.517H38.855V79.2743H40.6123V77.517Z" fill="white"/>
<path d="M45.8843 77.517H44.127V79.2743H45.8843V77.517Z" fill="white"/>
<path d="M47.6419 77.517H45.8845V79.2743H47.6419V77.517Z" fill="white"/>
<path d="M49.3992 77.517H47.6418V79.2743H49.3992V77.517Z" fill="white"/>
<path d="M51.1565 77.517H49.3992V79.2743H51.1565V77.517Z" fill="white"/>
<path d="M52.9139 77.517H51.1565V79.2743H52.9139V77.517Z" fill="white"/>
<path d="M54.6712 77.517H52.9138V79.2743H54.6712V77.517Z" fill="white"/>
<path d="M56.4288 77.517H54.6714V79.2743H56.4288V77.517Z" fill="white"/>
<path d="M58.1861 77.517H56.4287V79.2743H58.1861V77.517Z" fill="white"/>
<path d="M59.9434 77.517H58.186V79.2743H59.9434V77.517Z" fill="white"/>
<path d="M61.7007 77.517H59.9434V79.2743H61.7007V77.517Z" fill="white"/>
<path d="M65.2154 77.517H63.458V79.2743H65.2154V77.517Z" fill="white"/>
<path d="M70.4876 77.517H68.7302V79.2743H70.4876V77.517Z" fill="white"/>
<path d="M72.2449 77.517H70.4875V79.2743H72.2449V77.517Z" fill="white"/>
<path d="M74.0022 77.517H72.2449V79.2743H74.0022V77.517Z" fill="white"/>
<path d="M75.7598 77.517H74.0024V79.2743H75.7598V77.517Z" fill="white"/>
<path d="M77.5171 77.517H75.7598V79.2743H77.5171V77.517Z" fill="white"/>
<path d="M79.2745 77.517H77.5171V79.2743H79.2745V77.517Z" fill="white"/>
<path d="M81.0318 77.517H79.2744V79.2743H81.0318V77.517Z" fill="white"/>
<path d="M82.7891 77.517H81.0317V79.2743H82.7891V77.517Z" fill="white"/>
<path d="M84.5464 77.517H82.7891V79.2743H84.5464V77.517Z" fill="white"/>
<path d="M86.304 77.517H84.5466V79.2743H86.304V77.517Z" fill="white"/>
<path d="M91.576 77.517H89.8186V79.2743H91.576V77.517Z" fill="white"/>
<path d="M93.3333 77.517H91.5759V79.2743H93.3333V77.517Z" fill="white"/>
<path d="M23.0386 79.2743H21.2812V81.0317H23.0386V79.2743Z" fill="white"/>
<path d="M26.5534 79.2743H24.796V81.0317H26.5534V79.2743Z" fill="white"/>
<path d="M28.3107 79.2743H26.5533V81.0317H28.3107V79.2743Z" fill="white"/>
<path d="M31.8255 79.2743H30.0681V81.0317H31.8255V79.2743Z" fill="white"/>
<path d="M33.5828 79.2743H31.8254V81.0317H33.5828V79.2743Z" fill="white"/>
<path d="M35.3403 79.2743H33.5829V81.0317H35.3403V79.2743Z" fill="white"/>
<path d="M42.3697 79.2743H40.6123V81.0317H42.3697V79.2743Z" fill="white"/>
<path d="M44.127 79.2743H42.3696V81.0317H44.127V79.2743Z" fill="white"/>
<path d="M47.6419 79.2743H45.8845V81.0317H47.6419V79.2743Z" fill="white"/>
<path d="M54.6712 79.2743H52.9138V81.0317H54.6712V79.2743Z" fill="white"/>
<path d="M59.9434 79.2743H58.186V81.0317H59.9434V79.2743Z" fill="white"/>
<path d="M61.7007 79.2743H59.9434V81.0317H61.7007V79.2743Z" fill="white"/>
<path d="M65.2154 79.2743H63.458V81.0317H65.2154V79.2743Z" fill="white"/>
<path d="M68.73 79.2743H66.9727V81.0317H68.73V79.2743Z" fill="white"/>
<path d="M77.5171 79.2743H75.7598V81.0317H77.5171V79.2743Z" fill="white"/>
<path d="M79.2745 79.2743H77.5171V81.0317H79.2745V79.2743Z" fill="white"/>
<path d="M86.304 79.2743H84.5466V81.0317H86.304V79.2743Z" fill="white"/>
<path d="M88.0613 79.2743H86.304V81.0317H88.0613V79.2743Z" fill="white"/>
<path d="M89.8186 79.2743H88.0613V81.0317H89.8186V79.2743Z" fill="white"/>
<path d="M8.97966 81.0317H7.22229V82.7891H8.97966V81.0317Z" fill="white"/>
<path d="M10.737 81.0317H8.97961V82.7891H10.737V81.0317Z" fill="white"/>
<path d="M12.4944 81.0317H10.7371V82.7891H12.4944V81.0317Z" fill="white"/>
<path d="M14.2518 81.0317H12.4944V82.7891H14.2518V81.0317Z" fill="white"/>
<path d="M16.0091 81.0317H14.2517V82.7891H16.0091V81.0317Z" fill="white"/>
<path d="M17.7665 81.0317H16.0092V82.7891H17.7665V81.0317Z" fill="white"/>
<path d="M19.5238 81.0317H17.7665V82.7891H19.5238V81.0317Z" fill="white"/>
<path d="M23.0386 81.0317H21.2812V82.7891H23.0386V81.0317Z" fill="white"/>
<path d="M26.5534 81.0317H24.796V82.7891H26.5534V81.0317Z" fill="white"/>
<path d="M28.3107 81.0317H26.5533V82.7891H28.3107V81.0317Z" fill="white"/>
<path d="M30.068 81.0317H28.3107V82.7891H30.068V81.0317Z" fill="white"/>
<path d="M35.3403 81.0317H33.5829V82.7891H35.3403V81.0317Z" fill="white"/>
<path d="M38.8549 81.0317H37.0975V82.7891H38.8549V81.0317Z" fill="white"/>
<path d="M45.8843 81.0317H44.127V82.7891H45.8843V81.0317Z" fill="white"/>
<path d="M47.6419 81.0317H45.8845V82.7891H47.6419V81.0317Z" fill="white"/>
<path d="M51.1565 81.0317H49.3992V82.7891H51.1565V81.0317Z" fill="white"/>
<path d="M54.6712 81.0317H52.9138V82.7891H54.6712V81.0317Z" fill="white"/>
<path d="M56.4288 81.0317H54.6714V82.7891H56.4288V81.0317Z" fill="white"/>
<path d="M65.2154 81.0317H63.458V82.7891H65.2154V81.0317Z" fill="white"/>
<path d="M68.73 81.0319H66.9727V82.7892H68.73V81.0319Z" fill="white"/>
<path d="M72.2449 81.0317H70.4875V82.7891H72.2449V81.0317Z" fill="white"/>
<path d="M75.7598 81.0317H74.0024V82.7891H75.7598V81.0317Z" fill="white"/>
<path d="M79.2745 81.0317H77.5171V82.7891H79.2745V81.0317Z" fill="white"/>
<path d="M82.7891 81.0317H81.0317V82.7891H82.7891V81.0317Z" fill="white"/>
<path d="M86.304 81.0317H84.5466V82.7891H86.304V81.0317Z" fill="white"/>
<path d="M88.0613 81.0317H86.304V82.7891H88.0613V81.0317Z" fill="white"/>
<path d="M91.576 81.0317H89.8186V82.7891H91.576V81.0317Z" fill="white"/>
<path d="M93.3333 81.0317H91.5759V82.7891H93.3333V81.0317Z" fill="white"/>
<path d="M8.97966 82.7891H7.22229V84.5464H8.97966V82.7891Z" fill="white"/>
<path d="M19.5238 82.7891H17.7665V84.5464H19.5238V82.7891Z" fill="white"/>
<path d="M24.7959 82.7891H23.0386V84.5464H24.7959V82.7891Z" fill="white"/>
<path d="M31.8255 82.7891H30.0681V84.5464H31.8255V82.7891Z" fill="white"/>
<path d="M33.5828 82.7891H31.8254V84.5464H33.5828V82.7891Z" fill="white"/>
<path d="M37.0976 82.7891H35.3402V84.5464H37.0976V82.7891Z" fill="white"/>
<path d="M38.8549 82.7891H37.0975V84.5464H38.8549V82.7891Z" fill="white"/>
<path d="M47.6419 82.7891H45.8845V84.5464H47.6419V82.7891Z" fill="white"/>
<path d="M54.6712 82.7891H52.9138V84.5464H54.6712V82.7891Z" fill="white"/>
<path d="M56.4288 82.7891H54.6714V84.5464H56.4288V82.7891Z" fill="white"/>
<path d="M59.9434 82.7891H58.186V84.5464H59.9434V82.7891Z" fill="white"/>
<path d="M63.4581 82.7891H61.7007V84.5464H63.4581V82.7891Z" fill="white"/>
<path d="M65.2154 82.7891H63.458V84.5464H65.2154V82.7891Z" fill="white"/>
<path d="M66.9729 82.7891H65.2156V84.5464H66.9729V82.7891Z" fill="white"/>
<path d="M70.4876 82.7891H68.7302V84.5464H70.4876V82.7891Z" fill="white"/>
<path d="M72.2449 82.7891H70.4875V84.5464H72.2449V82.7891Z" fill="white"/>
<path d="M74.0022 82.7891H72.2449V84.5464H74.0022V82.7891Z" fill="white"/>
<path d="M75.7598 82.7891H74.0024V84.5464H75.7598V82.7891Z" fill="white"/>
<path d="M77.5171 82.7891H75.7598V84.5464H77.5171V82.7891Z" fill="white"/>
<path d="M79.2745 82.7891H77.5171V84.5464H79.2745V82.7891Z" fill="white"/>
<path d="M86.304 82.7891H84.5466V84.5464H86.304V82.7891Z" fill="white"/>
<path d="M89.8186 82.7891H88.0613V84.5464H89.8186V82.7891Z" fill="white"/>
<path d="M91.576 82.7891H89.8186V84.5464H91.576V82.7891Z" fill="white"/>
<path d="M8.97966 84.5464H7.22229V86.3038H8.97966V84.5464Z" fill="white"/>
<path d="M12.4944 84.5464H10.7371V86.3038H12.4944V84.5464Z" fill="white"/>
<path d="M14.2518 84.5464H12.4944V86.3038H14.2518V84.5464Z" fill="white"/>
<path d="M16.0091 84.5464H14.2517V86.3038H16.0091V84.5464Z" fill="white"/>
<path d="M19.5238 84.5464H17.7665V86.3038H19.5238V84.5464Z" fill="white"/>
<path d="M23.0386 84.5464H21.2812V86.3038H23.0386V84.5464Z" fill="white"/>
<path d="M26.5534 84.5464H24.796V86.3038H26.5534V84.5464Z" fill="white"/>
<path d="M30.068 84.5464H28.3107V86.3038H30.068V84.5464Z" fill="white"/>
<path d="M33.5828 84.5464H31.8254V86.3038H33.5828V84.5464Z" fill="white"/>
<path d="M37.0976 84.5464H35.3402V86.3038H37.0976V84.5464Z" fill="white"/>
<path d="M40.6123 84.5464H38.855V86.3038H40.6123V84.5464Z" fill="white"/>
<path d="M47.6419 84.5464H45.8845V86.3038H47.6419V84.5464Z" fill="white"/>
<path d="M49.3992 84.5464H47.6418V86.3038H49.3992V84.5464Z" fill="white"/>
<path d="M51.1565 84.5464H49.3992V86.3038H51.1565V84.5464Z" fill="white"/>
<path d="M52.9139 84.5464H51.1565V86.3038H52.9139V84.5464Z" fill="white"/>
<path d="M54.6712 84.5464H52.9138V86.3038H54.6712V84.5464Z" fill="white"/>
<path d="M58.1861 84.5464H56.4287V86.3038H58.1861V84.5464Z" fill="white"/>
<path d="M61.7007 84.5464H59.9434V86.3038H61.7007V84.5464Z" fill="white"/>
<path d="M65.2154 84.5464H63.458V86.3038H65.2154V84.5464Z" fill="white"/>
<path d="M70.4876 84.5464H68.7302V86.3038H70.4876V84.5464Z" fill="white"/>
<path d="M72.2449 84.5464H70.4875V86.3038H72.2449V84.5464Z" fill="white"/>
<path d="M74.0022 84.5464H72.2449V86.3038H74.0022V84.5464Z" fill="white"/>
<path d="M75.7598 84.5464H74.0024V86.3038H75.7598V84.5464Z" fill="white"/>
<path d="M77.5171 84.5464H75.7598V86.3038H77.5171V84.5464Z" fill="white"/>
<path d="M79.2745 84.5464H77.5171V86.3038H79.2745V84.5464Z" fill="white"/>
<path d="M81.0318 84.5464H79.2744V86.3038H81.0318V84.5464Z" fill="white"/>
<path d="M82.7891 84.5464H81.0317V86.3038H82.7891V84.5464Z" fill="white"/>
<path d="M84.5464 84.5464H82.7891V86.3038H84.5464V84.5464Z" fill="white"/>
<path d="M86.304 84.5464H84.5466V86.3038H86.304V84.5464Z" fill="white"/>
<path d="M88.0613 84.5464H86.304V86.3038H88.0613V84.5464Z" fill="white"/>
<path d="M89.8186 84.5464H88.0613V86.3038H89.8186V84.5464Z" fill="white"/>
<path d="M91.576 84.5464H89.8186V86.3038H91.576V84.5464Z" fill="white"/>
<path d="M93.3333 84.5464H91.5759V86.3038H93.3333V84.5464Z" fill="white"/>
<path d="M8.97966 86.3038H7.22229V88.0612H8.97966V86.3038Z" fill="white"/>
<path d="M12.4944 86.3038H10.7371V88.0612H12.4944V86.3038Z" fill="white"/>
<path d="M14.2518 86.3038H12.4944V88.0612H14.2518V86.3038Z" fill="white"/>
<path d="M16.0091 86.3038H14.2517V88.0612H16.0091V86.3038Z" fill="white"/>
<path d="M19.5238 86.3038H17.7665V88.0612H19.5238V86.3038Z" fill="white"/>
<path d="M23.0386 86.3038H21.2812V88.0612H23.0386V86.3038Z" fill="white"/>
<path d="M26.5534 86.3038H24.796V88.0612H26.5534V86.3038Z" fill="white"/>
<path d="M31.8255 86.3038H30.0681V88.0612H31.8255V86.3038Z" fill="white"/>
<path d="M35.3403 86.3038H33.5829V88.0612H35.3403V86.3038Z" fill="white"/>
<path d="M42.3697 86.3038H40.6123V88.0612H42.3697V86.3038Z" fill="white"/>
<path d="M44.127 86.3038H42.3696V88.0612H44.127V86.3038Z" fill="white"/>
<path d="M45.8843 86.3038H44.127V88.0612H45.8843V86.3038Z" fill="white"/>
<path d="M49.3992 86.3038H47.6418V88.0612H49.3992V86.3038Z" fill="white"/>
<path d="M52.9139 86.3038H51.1565V88.0612H52.9139V86.3038Z" fill="white"/>
<path d="M58.1861 86.3038H56.4287V88.0612H58.1861V86.3038Z" fill="white"/>
<path d="M61.7007 86.3038H59.9434V88.0612H61.7007V86.3038Z" fill="white"/>
<path d="M68.73 86.3037H66.9727V88.0611H68.73V86.3037Z" fill="white"/>
<path d="M70.4876 86.3038H68.7302V88.0612H70.4876V86.3038Z" fill="white"/>
<path d="M74.0022 86.3038H72.2449V88.0612H74.0022V86.3038Z" fill="white"/>
<path d="M79.2745 86.3038H77.5171V88.0612H79.2745V86.3038Z" fill="white"/>
<path d="M82.7891 86.3038H81.0317V88.0612H82.7891V86.3038Z" fill="white"/>
<path d="M86.304 86.3038H84.5466V88.0612H86.304V86.3038Z" fill="white"/>
<path d="M88.0613 86.3038H86.304V88.0612H88.0613V86.3038Z" fill="white"/>
<path d="M89.8186 86.3038H88.0613V88.0612H89.8186V86.3038Z" fill="white"/>
<path d="M91.576 86.3038H89.8186V88.0612H91.576V86.3038Z" fill="white"/>
<path d="M93.3333 86.3038H91.5759V88.0612H93.3333V86.3038Z" fill="white"/>
<path d="M8.97966 88.0612H7.22229V89.8185H8.97966V88.0612Z" fill="white"/>
<path d="M12.4944 88.0612H10.7371V89.8185H12.4944V88.0612Z" fill="white"/>
<path d="M14.2518 88.0612H12.4944V89.8185H14.2518V88.0612Z" fill="white"/>
<path d="M16.0091 88.0612H14.2517V89.8185H16.0091V88.0612Z" fill="white"/>
<path d="M19.5238 88.0612H17.7665V89.8185H19.5238V88.0612Z" fill="white"/>
<path d="M24.7959 88.0612H23.0386V89.8185H24.7959V88.0612Z" fill="white"/>
<path d="M26.5534 88.0612H24.796V89.8185H26.5534V88.0612Z" fill="white"/>
<path d="M33.5828 88.0612H31.8254V89.8185H33.5828V88.0612Z" fill="white"/>
<path d="M35.3403 88.0612H33.5829V89.8185H35.3403V88.0612Z" fill="white"/>
<path d="M38.8549 88.0612H37.0975V89.8185H38.8549V88.0612Z" fill="white"/>
<path d="M47.6419 88.0612H45.8845V89.8185H47.6419V88.0612Z" fill="white"/>
<path d="M52.9139 88.0612H51.1565V89.8185H52.9139V88.0612Z" fill="white"/>
<path d="M54.6712 88.0612H52.9138V89.8185H54.6712V88.0612Z" fill="white"/>
<path d="M58.1861 88.0612H56.4287V89.8185H58.1861V88.0612Z" fill="white"/>
<path d="M61.7007 88.0612H59.9434V89.8185H61.7007V88.0612Z" fill="white"/>
<path d="M63.4581 88.0612H61.7007V89.8185H63.4581V88.0612Z" fill="white"/>
<path d="M65.2154 88.0612H63.458V89.8185H65.2154V88.0612Z" fill="white"/>
<path d="M66.9729 88.0612H65.2156V89.8185H66.9729V88.0612Z" fill="white"/>
<path d="M72.2449 88.0612H70.4875V89.8185H72.2449V88.0612Z" fill="white"/>
<path d="M74.0022 88.0612H72.2449V89.8185H74.0022V88.0612Z" fill="white"/>
<path d="M79.2745 88.0612H77.5171V89.8185H79.2745V88.0612Z" fill="white"/>
<path d="M86.304 88.0612H84.5466V89.8185H86.304V88.0612Z" fill="white"/>
<path d="M89.8186 88.0612H88.0613V89.8185H89.8186V88.0612Z" fill="white"/>
<path d="M91.576 88.0612H89.8186V89.8185H91.576V88.0612Z" fill="white"/>
<path d="M93.3333 88.0612H91.5759V89.8185H93.3333V88.0612Z" fill="white"/>
<path d="M8.97966 89.8185H7.22229V91.5759H8.97966V89.8185Z" fill="white"/>
<path d="M19.5238 89.8185H17.7665V91.5759H19.5238V89.8185Z" fill="white"/>
<path d="M24.7959 89.8185H23.0386V91.5759H24.7959V89.8185Z" fill="white"/>
<path d="M26.5534 89.8185H24.796V91.5759H26.5534V89.8185Z" fill="white"/>
<path d="M28.3107 89.8185H26.5533V91.5759H28.3107V89.8185Z" fill="white"/>
<path d="M30.068 89.8185H28.3107V91.5759H30.068V89.8185Z" fill="white"/>
<path d="M33.5828 89.8185H31.8254V91.5759H33.5828V89.8185Z" fill="white"/>
<path d="M40.6123 89.8185H38.855V91.5759H40.6123V89.8185Z" fill="white"/>
<path d="M42.3697 89.8185H40.6123V91.5759H42.3697V89.8185Z" fill="white"/>
<path d="M49.3992 89.8185H47.6418V91.5759H49.3992V89.8185Z" fill="white"/>
<path d="M56.4288 89.8185H54.6714V91.5759H56.4288V89.8185Z" fill="white"/>
<path d="M59.9434 89.8185H58.186V91.5759H59.9434V89.8185Z" fill="white"/>
<path d="M63.4581 89.8185H61.7007V91.5759H63.4581V89.8185Z" fill="white"/>
<path d="M65.2154 89.8185H63.458V91.5759H65.2154V89.8185Z" fill="white"/>
<path d="M66.9729 89.8185H65.2156V91.5759H66.9729V89.8185Z" fill="white"/>
<path d="M68.73 89.8185H66.9727V91.5759H68.73V89.8185Z" fill="white"/>
<path d="M74.0022 89.8185H72.2449V91.5759H74.0022V89.8185Z" fill="white"/>
<path d="M82.7891 89.8185H81.0317V91.5759H82.7891V89.8185Z" fill="white"/>
<path d="M84.5464 89.8185H82.7891V91.5759H84.5464V89.8185Z" fill="white"/>
<path d="M86.304 89.8185H84.5466V91.5759H86.304V89.8185Z" fill="white"/>
<path d="M89.8186 89.8185H88.0613V91.5759H89.8186V89.8185Z" fill="white"/>
<path d="M8.97966 91.5759H7.22229V93.3333H8.97966V91.5759Z" fill="white"/>
<path d="M10.737 91.5759H8.97961V93.3333H10.737V91.5759Z" fill="white"/>
<path d="M12.4944 91.5759H10.7371V93.3333H12.4944V91.5759Z" fill="white"/>
<path d="M14.2518 91.5759H12.4944V93.3333H14.2518V91.5759Z" fill="white"/>
<path d="M16.0091 91.5759H14.2517V93.3333H16.0091V91.5759Z" fill="white"/>
<path d="M17.7665 91.5759H16.0092V93.3333H17.7665V91.5759Z" fill="white"/>
<path d="M19.5238 91.5759H17.7665V93.3333H19.5238V91.5759Z" fill="white"/>
<path d="M24.7959 91.5759H23.0386V93.3333H24.7959V91.5759Z" fill="white"/>
<path d="M26.5534 91.5759H24.796V93.3333H26.5534V91.5759Z" fill="white"/>
<path d="M28.3107 91.5759H26.5533V93.3333H28.3107V91.5759Z" fill="white"/>
<path d="M35.3403 91.5759H33.5829V93.3333H35.3403V91.5759Z" fill="white"/>
<path d="M38.8549 91.5759H37.0975V93.3333H38.8549V91.5759Z" fill="white"/>
<path d="M44.127 91.5759H42.3696V93.3333H44.127V91.5759Z" fill="white"/>
<path d="M45.8843 91.5759H44.127V93.3333H45.8843V91.5759Z" fill="white"/>
<path d="M47.6419 91.5759H45.8845V93.3333H47.6419V91.5759Z" fill="white"/>
<path d="M49.3992 91.5759H47.6418V93.3333H49.3992V91.5759Z" fill="white"/>
<path d="M54.6712 91.5759H52.9138V93.3333H54.6712V91.5759Z" fill="white"/>
<path d="M56.4288 91.5759H54.6714V93.3333H56.4288V91.5759Z" fill="white"/>
<path d="M61.7007 91.5759H59.9434V93.3333H61.7007V91.5759Z" fill="white"/>
<path d="M63.4581 91.5759H61.7007V93.3333H63.4581V91.5759Z" fill="white"/>
<path d="M65.2154 91.5759H63.458V93.3333H65.2154V91.5759Z" fill="white"/>
<path d="M74.0022 91.5759H72.2449V93.3333H74.0022V91.5759Z" fill="white"/>
<path d="M81.0318 91.5759H79.2744V93.3333H81.0318V91.5759Z" fill="white"/>
<path d="M86.304 91.5759H84.5466V93.3333H86.304V91.5759Z" fill="white"/>
<path d="M88.0613 91.5759H86.304V93.3333H88.0613V91.5759Z" fill="white"/>
<path d="M89.8186 91.5759H88.0613V93.3333H89.8186V91.5759Z" fill="white"/>
<path d="M93.3333 91.5759H91.5759V93.3333H93.3333V91.5759Z" fill="white"/>
</g>
<defs>
<clipPath id="clip0_1598_61225">
<rect width="86.1111" height="86.1111" fill="white" transform="translate(7.22229 7.22217)"/>
</clipPath>
</defs>
</svg>
