<svg width="100" height="100" viewBox="0 0 100 100" fill="none" xmlns="http://www.w3.org/2000/svg">
<rect width="100" height="100" rx="6" fill="white"/>
<g clip-path="url(#clip0_1595_122813)">
<path d="M8.97954 7.22241H7.22217V8.97978H8.97954V7.22241Z" fill="black"/>
<path d="M10.7369 7.22241H8.97949V8.97978H10.7369V7.22241Z" fill="black"/>
<path d="M12.4942 7.22241H10.7368V8.97978H12.4942V7.22241Z" fill="black"/>
<path d="M14.2518 7.22241H12.4944V8.97978H14.2518V7.22241Z" fill="black"/>
<path d="M16.0091 7.22241H14.2517V8.97978H16.0091V7.22241Z" fill="black"/>
<path d="M17.7664 7.22241H16.009V8.97978H17.7664V7.22241Z" fill="black"/>
<path d="M19.5237 7.22241H17.7664V8.97978H19.5237V7.22241Z" fill="black"/>
<path d="M24.7959 7.22241H23.0386V8.97978H24.7959V7.22241Z" fill="black"/>
<path d="M28.3106 7.22241H26.5532V8.97978H28.3106V7.22241Z" fill="black"/>
<path d="M33.5828 7.22241H31.8254V8.97978H33.5828V7.22241Z" fill="black"/>
<path d="M35.3401 7.22241H33.5828V8.97978H35.3401V7.22241Z" fill="black"/>
<path d="M38.8548 7.22241H37.0974V8.97978H38.8548V7.22241Z" fill="black"/>
<path d="M40.6121 7.22241H38.8547V8.97978H40.6121V7.22241Z" fill="black"/>
<path d="M42.3697 7.22241H40.6123V8.97978H42.3697V7.22241Z" fill="black"/>
<path d="M45.8843 7.22241H44.127V8.97978H45.8843V7.22241Z" fill="black"/>
<path d="M47.6416 7.22241H45.8843V8.97978H47.6416V7.22241Z" fill="black"/>
<path d="M51.1563 7.22241H49.3989V8.97978H51.1563V7.22241Z" fill="black"/>
<path d="M52.9139 7.22241H51.1565V8.97978H52.9139V7.22241Z" fill="black"/>
<path d="M54.6712 7.22241H52.9138V8.97978H54.6712V7.22241Z" fill="black"/>
<path d="M56.4285 7.22241H54.6711V8.97978H56.4285V7.22241Z" fill="black"/>
<path d="M58.1858 7.22241H56.4285V8.97978H58.1858V7.22241Z" fill="black"/>
<path d="M63.4581 7.22241H61.7007V8.97978H63.4581V7.22241Z" fill="black"/>
<path d="M65.2154 7.22241H63.458V8.97978H65.2154V7.22241Z" fill="black"/>
<path d="M70.4873 7.22241H68.73V8.97978H70.4873V7.22241Z" fill="black"/>
<path d="M79.2742 7.22241H77.5168V8.97978H79.2742V7.22241Z" fill="black"/>
<path d="M82.7891 7.22241H81.0317V8.97978H82.7891V7.22241Z" fill="black"/>
<path d="M84.5464 7.22241H82.7891V8.97978H84.5464V7.22241Z" fill="black"/>
<path d="M86.3038 7.22241H84.5464V8.97978H86.3038V7.22241Z" fill="black"/>
<path d="M88.0611 7.22241H86.3037V8.97978H88.0611V7.22241Z" fill="black"/>
<path d="M89.8186 7.22241H88.0613V8.97978H89.8186V7.22241Z" fill="black"/>
<path d="M91.576 7.22241H89.8186V8.97978H91.576V7.22241Z" fill="black"/>
<path d="M93.3333 7.22241H91.5759V8.97978H93.3333V7.22241Z" fill="black"/>
<path d="M8.97954 8.97974H7.22217V10.7371H8.97954V8.97974Z" fill="black"/>
<path d="M19.5237 8.97974H17.7664V10.7371H19.5237V8.97974Z" fill="black"/>
<path d="M28.3106 8.97974H26.5532V10.7371H28.3106V8.97974Z" fill="black"/>
<path d="M30.0679 8.97974H28.3105V10.7371H30.0679V8.97974Z" fill="black"/>
<path d="M31.8252 8.97974H30.0679V10.7371H31.8252V8.97974Z" fill="black"/>
<path d="M37.0975 8.97974H35.3401V10.7371H37.0975V8.97974Z" fill="black"/>
<path d="M38.8548 8.97974H37.0974V10.7371H38.8548V8.97974Z" fill="black"/>
<path d="M47.6416 8.97974H45.8843V10.7371H47.6416V8.97974Z" fill="black"/>
<path d="M51.1563 8.97974H49.3989V10.7371H51.1563V8.97974Z" fill="black"/>
<path d="M52.9139 8.97974H51.1565V10.7371H52.9139V8.97974Z" fill="black"/>
<path d="M54.6712 8.97974H52.9138V10.7371H54.6712V8.97974Z" fill="black"/>
<path d="M56.4285 8.97974H54.6711V10.7371H56.4285V8.97974Z" fill="black"/>
<path d="M59.9432 8.97974H58.1858V10.7371H59.9432V8.97974Z" fill="black"/>
<path d="M61.7007 8.97974H59.9434V10.7371H61.7007V8.97974Z" fill="black"/>
<path d="M63.4581 8.97974H61.7007V10.7371H63.4581V8.97974Z" fill="black"/>
<path d="M66.9727 8.97974H65.2153V10.7371H66.9727V8.97974Z" fill="black"/>
<path d="M68.73 8.97974H66.9727V10.7371H68.73V8.97974Z" fill="black"/>
<path d="M72.2449 8.97974H70.4875V10.7371H72.2449V8.97974Z" fill="black"/>
<path d="M74.0022 8.97974H72.2449V10.7371H74.0022V8.97974Z" fill="black"/>
<path d="M75.7596 8.97974H74.0022V10.7371H75.7596V8.97974Z" fill="black"/>
<path d="M77.5169 8.97974H75.7595V10.7371H77.5169V8.97974Z" fill="black"/>
<path d="M79.2742 8.97974H77.5168V10.7371H79.2742V8.97974Z" fill="black"/>
<path d="M82.7891 8.97974H81.0317V10.7371H82.7891V8.97974Z" fill="black"/>
<path d="M93.3333 8.97974H91.5759V10.7371H93.3333V8.97974Z" fill="black"/>
<path d="M8.97954 10.7371H7.22217V12.4944H8.97954V10.7371Z" fill="black"/>
<path d="M12.4942 10.7371H10.7368V12.4944H12.4942V10.7371Z" fill="black"/>
<path d="M14.2518 10.7371H12.4944V12.4944H14.2518V10.7371Z" fill="black"/>
<path d="M16.0091 10.7371H14.2517V12.4944H16.0091V10.7371Z" fill="black"/>
<path d="M19.5237 10.7371H17.7664V12.4944H19.5237V10.7371Z" fill="black"/>
<path d="M23.0384 10.7371H21.281V12.4944H23.0384V10.7371Z" fill="black"/>
<path d="M24.7959 10.7371H23.0386V12.4944H24.7959V10.7371Z" fill="black"/>
<path d="M26.5533 10.7371H24.7959V12.4944H26.5533V10.7371Z" fill="black"/>
<path d="M28.3106 10.7371H26.5532V12.4944H28.3106V10.7371Z" fill="black"/>
<path d="M30.0679 10.7371H28.3105V12.4944H30.0679V10.7371Z" fill="black"/>
<path d="M37.0975 10.7371H35.3401V12.4944H37.0975V10.7371Z" fill="black"/>
<path d="M38.8548 10.7371H37.0974V12.4944H38.8548V10.7371Z" fill="black"/>
<path d="M40.6121 10.7371H38.8547V12.4944H40.6121V10.7371Z" fill="black"/>
<path d="M44.127 10.7371H42.3696V12.4944H44.127V10.7371Z" fill="black"/>
<path d="M54.6712 10.7371H52.9138V12.4944H54.6712V10.7371Z" fill="black"/>
<path d="M68.73 10.7371H66.9727V12.4944H68.73V10.7371Z" fill="black"/>
<path d="M70.4873 10.7371H68.73V12.4944H70.4873V10.7371Z" fill="black"/>
<path d="M72.2449 10.7371H70.4875V12.4944H72.2449V10.7371Z" fill="black"/>
<path d="M74.0022 10.7371H72.2449V12.4944H74.0022V10.7371Z" fill="black"/>
<path d="M77.5169 10.7371H75.7595V12.4944H77.5169V10.7371Z" fill="black"/>
<path d="M79.2742 10.7371H77.5168V12.4944H79.2742V10.7371Z" fill="black"/>
<path d="M82.7891 10.7371H81.0317V12.4944H82.7891V10.7371Z" fill="black"/>
<path d="M86.3038 10.7371H84.5464V12.4944H86.3038V10.7371Z" fill="black"/>
<path d="M88.0611 10.7371H86.3037V12.4944H88.0611V10.7371Z" fill="black"/>
<path d="M89.8186 10.7371H88.0613V12.4944H89.8186V10.7371Z" fill="black"/>
<path d="M93.3333 10.7371H91.5759V12.4944H93.3333V10.7371Z" fill="black"/>
<path d="M8.97954 12.4946H7.22217V14.252H8.97954V12.4946Z" fill="black"/>
<path d="M12.4942 12.4946H10.7368V14.252H12.4942V12.4946Z" fill="black"/>
<path d="M14.2518 12.4946H12.4944V14.252H14.2518V12.4946Z" fill="black"/>
<path d="M16.0091 12.4946H14.2517V14.252H16.0091V12.4946Z" fill="black"/>
<path d="M19.5237 12.4946H17.7664V14.252H19.5237V12.4946Z" fill="black"/>
<path d="M23.0384 12.4946H21.281V14.252H23.0384V12.4946Z" fill="black"/>
<path d="M24.7959 12.4946H23.0386V14.252H24.7959V12.4946Z" fill="black"/>
<path d="M26.5533 12.4946H24.7959V14.252H26.5533V12.4946Z" fill="black"/>
<path d="M30.0679 12.4946H28.3105V14.252H30.0679V12.4946Z" fill="black"/>
<path d="M33.5828 12.4946H31.8254V14.252H33.5828V12.4946Z" fill="black"/>
<path d="M35.3401 12.4946H33.5828V14.252H35.3401V12.4946Z" fill="black"/>
<path d="M37.0975 12.4946H35.3401V14.252H37.0975V12.4946Z" fill="black"/>
<path d="M38.8548 12.4946H37.0974V14.252H38.8548V12.4946Z" fill="black"/>
<path d="M40.6121 12.4946H38.8547V14.252H40.6121V12.4946Z" fill="black"/>
<path d="M42.3697 12.4946H40.6123V14.252H42.3697V12.4946Z" fill="black"/>
<path d="M45.8843 12.4946H44.127V14.252H45.8843V12.4946Z" fill="black"/>
<path d="M47.6416 12.4946H45.8843V14.252H47.6416V12.4946Z" fill="black"/>
<path d="M51.1563 12.4946H49.3989V14.252H51.1563V12.4946Z" fill="black"/>
<path d="M52.9139 12.4946H51.1565V14.252H52.9139V12.4946Z" fill="black"/>
<path d="M54.6712 12.4946H52.9138V14.252H54.6712V12.4946Z" fill="black"/>
<path d="M56.4285 12.4946H54.6711V14.252H56.4285V12.4946Z" fill="black"/>
<path d="M58.1858 12.4946H56.4285V14.252H58.1858V12.4946Z" fill="black"/>
<path d="M59.9432 12.4946H58.1858V14.252H59.9432V12.4946Z" fill="black"/>
<path d="M61.7007 12.4946H59.9434V14.252H61.7007V12.4946Z" fill="black"/>
<path d="M63.4581 12.4946H61.7007V14.252H63.4581V12.4946Z" fill="black"/>
<path d="M72.2449 12.4946H70.4875V14.252H72.2449V12.4946Z" fill="black"/>
<path d="M77.5169 12.4946H75.7595V14.252H77.5169V12.4946Z" fill="black"/>
<path d="M82.7891 12.4946H81.0317V14.252H82.7891V12.4946Z" fill="black"/>
<path d="M86.3038 12.4946H84.5464V14.252H86.3038V12.4946Z" fill="black"/>
<path d="M88.0611 12.4946H86.3037V14.252H88.0611V12.4946Z" fill="black"/>
<path d="M89.8186 12.4946H88.0613V14.252H89.8186V12.4946Z" fill="black"/>
<path d="M93.3333 12.4946H91.5759V14.252H93.3333V12.4946Z" fill="black"/>
<path d="M8.97954 14.252H7.22217V16.0093H8.97954V14.252Z" fill="black"/>
<path d="M12.4942 14.252H10.7368V16.0093H12.4942V14.252Z" fill="black"/>
<path d="M14.2518 14.252H12.4944V16.0093H14.2518V14.252Z" fill="black"/>
<path d="M16.0091 14.252H14.2517V16.0093H16.0091V14.252Z" fill="black"/>
<path d="M19.5237 14.252H17.7664V16.0093H19.5237V14.252Z" fill="black"/>
<path d="M24.7959 14.252H23.0386V16.0093H24.7959V14.252Z" fill="black"/>
<path d="M30.0679 14.252H28.3105V16.0093H30.0679V14.252Z" fill="black"/>
<path d="M31.8252 14.252H30.0679V16.0093H31.8252V14.252Z" fill="black"/>
<path d="M35.3401 14.252H33.5828V16.0093H35.3401V14.252Z" fill="black"/>
<path d="M37.0975 14.252H35.3401V16.0093H37.0975V14.252Z" fill="black"/>
<path d="M42.3697 14.252H40.6123V16.0093H42.3697V14.252Z" fill="black"/>
<path d="M47.6416 14.252H45.8843V16.0093H47.6416V14.252Z" fill="black"/>
<path d="M49.399 14.252H47.6416V16.0093H49.399V14.252Z" fill="black"/>
<path d="M51.1563 14.252H49.3989V16.0093H51.1563V14.252Z" fill="black"/>
<path d="M52.9139 14.252H51.1565V16.0093H52.9139V14.252Z" fill="black"/>
<path d="M54.6712 14.252H52.9138V16.0093H54.6712V14.252Z" fill="black"/>
<path d="M59.9432 14.252H58.1858V16.0093H59.9432V14.252Z" fill="black"/>
<path d="M61.7007 14.252H59.9434V16.0093H61.7007V14.252Z" fill="black"/>
<path d="M63.4581 14.252H61.7007V16.0093H63.4581V14.252Z" fill="black"/>
<path d="M65.2154 14.252H63.458V16.0093H65.2154V14.252Z" fill="black"/>
<path d="M70.4873 14.252H68.73V16.0093H70.4873V14.252Z" fill="black"/>
<path d="M74.0022 14.252H72.2449V16.0093H74.0022V14.252Z" fill="black"/>
<path d="M82.7891 14.252H81.0317V16.0093H82.7891V14.252Z" fill="black"/>
<path d="M86.3038 14.252H84.5464V16.0093H86.3038V14.252Z" fill="black"/>
<path d="M88.0611 14.252H86.3037V16.0093H88.0611V14.252Z" fill="black"/>
<path d="M89.8186 14.252H88.0613V16.0093H89.8186V14.252Z" fill="black"/>
<path d="M93.3333 14.252H91.5759V16.0093H93.3333V14.252Z" fill="black"/>
<path d="M8.97954 16.0093H7.22217V17.7666H8.97954V16.0093Z" fill="black"/>
<path d="M19.5237 16.0093H17.7664V17.7666H19.5237V16.0093Z" fill="black"/>
<path d="M28.3106 16.0093H26.5532V17.7666H28.3106V16.0093Z" fill="black"/>
<path d="M30.0679 16.0093H28.3105V17.7666H30.0679V16.0093Z" fill="black"/>
<path d="M31.8252 16.0093H30.0679V17.7666H31.8252V16.0093Z" fill="black"/>
<path d="M33.5828 16.0093H31.8254V17.7666H33.5828V16.0093Z" fill="black"/>
<path d="M40.6121 16.0093H38.8547V17.7666H40.6121V16.0093Z" fill="black"/>
<path d="M42.3697 16.0093H40.6123V17.7666H42.3697V16.0093Z" fill="black"/>
<path d="M45.8843 16.0093H44.127V17.7666H45.8843V16.0093Z" fill="black"/>
<path d="M47.6416 16.0093H45.8843V17.7666H47.6416V16.0093Z" fill="black"/>
<path d="M54.6712 16.0093H52.9138V17.7666H54.6712V16.0093Z" fill="black"/>
<path d="M56.4285 16.0093H54.6711V17.7666H56.4285V16.0093Z" fill="black"/>
<path d="M59.9432 16.0093H58.1858V17.7666H59.9432V16.0093Z" fill="black"/>
<path d="M61.7007 16.0093H59.9434V17.7666H61.7007V16.0093Z" fill="black"/>
<path d="M63.4581 16.0093H61.7007V17.7666H63.4581V16.0093Z" fill="black"/>
<path d="M66.9727 16.0093H65.2153V17.7666H66.9727V16.0093Z" fill="black"/>
<path d="M68.73 16.0093H66.9727V17.7666H68.73V16.0093Z" fill="black"/>
<path d="M72.2449 16.0093H70.4875V17.7666H72.2449V16.0093Z" fill="black"/>
<path d="M75.7596 16.0093H74.0022V17.7666H75.7596V16.0093Z" fill="black"/>
<path d="M82.7891 16.0093H81.0317V17.7666H82.7891V16.0093Z" fill="black"/>
<path d="M93.3333 16.0093H91.5759V17.7666H93.3333V16.0093Z" fill="black"/>
<path d="M8.97954 17.7666H7.22217V19.524H8.97954V17.7666Z" fill="black"/>
<path d="M10.7369 17.7666H8.97949V19.524H10.7369V17.7666Z" fill="black"/>
<path d="M12.4942 17.7666H10.7368V19.524H12.4942V17.7666Z" fill="black"/>
<path d="M14.2518 17.7666H12.4944V19.524H14.2518V17.7666Z" fill="black"/>
<path d="M16.0091 17.7666H14.2517V19.524H16.0091V17.7666Z" fill="black"/>
<path d="M17.7664 17.7666H16.009V19.524H17.7664V17.7666Z" fill="black"/>
<path d="M19.5237 17.7666H17.7664V19.524H19.5237V17.7666Z" fill="black"/>
<path d="M23.0384 17.7666H21.281V19.524H23.0384V17.7666Z" fill="black"/>
<path d="M26.5533 17.7666H24.7959V19.524H26.5533V17.7666Z" fill="black"/>
<path d="M30.0679 17.7666H28.3105V19.524H30.0679V17.7666Z" fill="black"/>
<path d="M33.5828 17.7666H31.8254V19.524H33.5828V17.7666Z" fill="black"/>
<path d="M37.0975 17.7666H35.3401V19.524H37.0975V17.7666Z" fill="black"/>
<path d="M40.6121 17.7666H38.8547V19.524H40.6121V17.7666Z" fill="black"/>
<path d="M44.127 17.7666H42.3696V19.524H44.127V17.7666Z" fill="black"/>
<path d="M47.6416 17.7666H45.8843V19.524H47.6416V17.7666Z" fill="black"/>
<path d="M51.1563 17.7666H49.3989V19.524H51.1563V17.7666Z" fill="black"/>
<path d="M54.6712 17.7666H52.9138V19.524H54.6712V17.7666Z" fill="black"/>
<path d="M58.1858 17.7666H56.4285V19.524H58.1858V17.7666Z" fill="black"/>
<path d="M61.7007 17.7666H59.9434V19.524H61.7007V17.7666Z" fill="black"/>
<path d="M65.2154 17.7666H63.458V19.524H65.2154V17.7666Z" fill="black"/>
<path d="M68.73 17.7666H66.9727V19.524H68.73V17.7666Z" fill="black"/>
<path d="M72.2449 17.7666H70.4875V19.524H72.2449V17.7666Z" fill="black"/>
<path d="M75.7596 17.7666H74.0022V19.524H75.7596V17.7666Z" fill="black"/>
<path d="M79.2742 17.7666H77.5168V19.524H79.2742V17.7666Z" fill="black"/>
<path d="M82.7891 17.7666H81.0317V19.524H82.7891V17.7666Z" fill="black"/>
<path d="M84.5464 17.7666H82.7891V19.524H84.5464V17.7666Z" fill="black"/>
<path d="M86.3038 17.7666H84.5464V19.524H86.3038V17.7666Z" fill="black"/>
<path d="M88.0611 17.7666H86.3037V19.524H88.0611V17.7666Z" fill="black"/>
<path d="M89.8186 17.7666H88.0613V19.524H89.8186V17.7666Z" fill="black"/>
<path d="M91.576 17.7666H89.8186V19.524H91.576V17.7666Z" fill="black"/>
<path d="M93.3333 17.7666H91.5759V19.524H93.3333V17.7666Z" fill="black"/>
<path d="M30.0679 19.5239H28.3105V21.2813H30.0679V19.5239Z" fill="black"/>
<path d="M33.5828 19.5239H31.8254V21.2813H33.5828V19.5239Z" fill="black"/>
<path d="M37.0975 19.5239H35.3401V21.2813H37.0975V19.5239Z" fill="black"/>
<path d="M40.6121 19.5239H38.8547V21.2813H40.6121V19.5239Z" fill="black"/>
<path d="M44.127 19.5239H42.3696V21.2813H44.127V19.5239Z" fill="black"/>
<path d="M45.8843 19.5239H44.127V21.2813H45.8843V19.5239Z" fill="black"/>
<path d="M47.6416 19.5239H45.8843V21.2813H47.6416V19.5239Z" fill="black"/>
<path d="M54.6712 19.5239H52.9138V21.2813H54.6712V19.5239Z" fill="black"/>
<path d="M58.1858 19.5239H56.4285V21.2813H58.1858V19.5239Z" fill="black"/>
<path d="M59.9432 19.5239H58.1858V21.2813H59.9432V19.5239Z" fill="black"/>
<path d="M63.4581 19.5239H61.7007V21.2813H63.4581V19.5239Z" fill="black"/>
<path d="M65.2154 19.5239H63.458V21.2813H65.2154V19.5239Z" fill="black"/>
<path d="M66.9727 19.5239H65.2153V21.2813H66.9727V19.5239Z" fill="black"/>
<path d="M70.4873 19.5239H68.73V21.2813H70.4873V19.5239Z" fill="black"/>
<path d="M72.2449 19.5239H70.4875V21.2813H72.2449V19.5239Z" fill="black"/>
<path d="M75.7596 19.5239H74.0022V21.2813H75.7596V19.5239Z" fill="black"/>
<path d="M77.5169 19.5239H75.7595V21.2813H77.5169V19.5239Z" fill="black"/>
<path d="M14.2518 21.2812H12.4944V23.0386H14.2518V21.2812Z" fill="black"/>
<path d="M16.0091 21.2812H14.2517V23.0386H16.0091V21.2812Z" fill="black"/>
<path d="M19.5237 21.2812H17.7664V23.0386H19.5237V21.2812Z" fill="black"/>
<path d="M21.2811 21.2812H19.5237V23.0386H21.2811V21.2812Z" fill="black"/>
<path d="M35.3401 21.2812H33.5828V23.0386H35.3401V21.2812Z" fill="black"/>
<path d="M40.6121 21.2812H38.8547V23.0386H40.6121V21.2812Z" fill="black"/>
<path d="M44.127 21.2812H42.3696V23.0386H44.127V21.2812Z" fill="black"/>
<path d="M47.6416 21.2812H45.8843V23.0386H47.6416V21.2812Z" fill="black"/>
<path d="M49.399 21.2812H47.6416V23.0386H49.399V21.2812Z" fill="black"/>
<path d="M51.1563 21.2812H49.3989V23.0386H51.1563V21.2812Z" fill="black"/>
<path d="M52.9139 21.2812H51.1565V23.0386H52.9139V21.2812Z" fill="black"/>
<path d="M54.6712 21.2812H52.9138V23.0386H54.6712V21.2812Z" fill="black"/>
<path d="M59.9432 21.2812H58.1858V23.0386H59.9432V21.2812Z" fill="black"/>
<path d="M61.7007 21.2812H59.9434V23.0386H61.7007V21.2812Z" fill="black"/>
<path d="M65.2154 21.2812H63.458V23.0386H65.2154V21.2812Z" fill="black"/>
<path d="M66.9727 21.2812H65.2153V23.0386H66.9727V21.2812Z" fill="black"/>
<path d="M72.2449 21.2812H70.4875V23.0386H72.2449V21.2812Z" fill="black"/>
<path d="M74.0022 21.2812H72.2449V23.0386H74.0022V21.2812Z" fill="black"/>
<path d="M75.7596 21.2812H74.0022V23.0386H75.7596V21.2812Z" fill="black"/>
<path d="M77.5169 21.2812H75.7595V23.0386H77.5169V21.2812Z" fill="black"/>
<path d="M88.0611 21.2812H86.3037V23.0386H88.0611V21.2812Z" fill="black"/>
<path d="M89.8186 21.2812H88.0613V23.0386H89.8186V21.2812Z" fill="black"/>
<path d="M8.97954 23.0388H7.22217V24.7962H8.97954V23.0388Z" fill="black"/>
<path d="M10.7369 23.0388H8.97949V24.7962H10.7369V23.0388Z" fill="black"/>
<path d="M12.4942 23.0388H10.7368V24.7962H12.4942V23.0388Z" fill="black"/>
<path d="M14.2518 23.0388H12.4944V24.7962H14.2518V23.0388Z" fill="black"/>
<path d="M17.7664 23.0388H16.009V24.7962H17.7664V23.0388Z" fill="black"/>
<path d="M21.2811 23.0388H19.5237V24.7962H21.2811V23.0388Z" fill="black"/>
<path d="M26.5533 23.0388H24.7959V24.7962H26.5533V23.0388Z" fill="black"/>
<path d="M28.3106 23.0388H26.5532V24.7962H28.3106V23.0388Z" fill="black"/>
<path d="M33.5828 23.0388H31.8254V24.7962H33.5828V23.0388Z" fill="black"/>
<path d="M35.3401 23.0388H33.5828V24.7962H35.3401V23.0388Z" fill="black"/>
<path d="M37.0975 23.0388H35.3401V24.7962H37.0975V23.0388Z" fill="black"/>
<path d="M38.8548 23.0388H37.0974V24.7962H38.8548V23.0388Z" fill="black"/>
<path d="M42.3697 23.0388H40.6123V24.7962H42.3697V23.0388Z" fill="black"/>
<path d="M44.127 23.0388H42.3696V24.7962H44.127V23.0388Z" fill="black"/>
<path d="M45.8843 23.0388H44.127V24.7962H45.8843V23.0388Z" fill="black"/>
<path d="M47.6416 23.0388H45.8843V24.7962H47.6416V23.0388Z" fill="black"/>
<path d="M49.399 23.0388H47.6416V24.7962H49.399V23.0388Z" fill="black"/>
<path d="M56.4285 23.0388H54.6711V24.7962H56.4285V23.0388Z" fill="black"/>
<path d="M58.1858 23.0388H56.4285V24.7962H58.1858V23.0388Z" fill="black"/>
<path d="M65.2154 23.0388H63.458V24.7962H65.2154V23.0388Z" fill="black"/>
<path d="M66.9727 23.0388H65.2153V24.7962H66.9727V23.0388Z" fill="black"/>
<path d="M68.73 23.0388H66.9727V24.7962H68.73V23.0388Z" fill="black"/>
<path d="M70.4873 23.0388H68.73V24.7962H70.4873V23.0388Z" fill="black"/>
<path d="M72.2449 23.0388H70.4875V24.7962H72.2449V23.0388Z" fill="black"/>
<path d="M74.0022 23.0388H72.2449V24.7962H74.0022V23.0388Z" fill="black"/>
<path d="M75.7596 23.0388H74.0022V24.7962H75.7596V23.0388Z" fill="black"/>
<path d="M77.5169 23.0388H75.7595V24.7962H77.5169V23.0388Z" fill="black"/>
<path d="M81.0318 23.0388H79.2744V24.7962H81.0318V23.0388Z" fill="black"/>
<path d="M88.0611 23.0388H86.3037V24.7962H88.0611V23.0388Z" fill="black"/>
<path d="M89.8186 23.0388H88.0613V24.7962H89.8186V23.0388Z" fill="black"/>
<path d="M91.576 23.0388H89.8186V24.7962H91.576V23.0388Z" fill="black"/>
<path d="M17.7664 24.7961H16.009V26.5535H17.7664V24.7961Z" fill="black"/>
<path d="M19.5237 24.7961H17.7664V26.5535H19.5237V24.7961Z" fill="black"/>
<path d="M23.0384 24.7961H21.281V26.5535H23.0384V24.7961Z" fill="black"/>
<path d="M28.3106 24.7961H26.5532V26.5535H28.3106V24.7961Z" fill="black"/>
<path d="M30.0679 24.7961H28.3105V26.5535H30.0679V24.7961Z" fill="black"/>
<path d="M31.8252 24.7961H30.0679V26.5535H31.8252V24.7961Z" fill="black"/>
<path d="M35.3401 24.7961H33.5828V26.5535H35.3401V24.7961Z" fill="black"/>
<path d="M37.0975 24.7961H35.3401V26.5535H37.0975V24.7961Z" fill="black"/>
<path d="M38.8548 24.7961H37.0974V26.5535H38.8548V24.7961Z" fill="black"/>
<path d="M40.6121 24.7961H38.8547V26.5535H40.6121V24.7961Z" fill="black"/>
<path d="M49.399 24.7961H47.6416V26.5535H49.399V24.7961Z" fill="black"/>
<path d="M51.1563 24.7961H49.3989V26.5535H51.1563V24.7961Z" fill="black"/>
<path d="M54.6712 24.7961H52.9138V26.5535H54.6712V24.7961Z" fill="black"/>
<path d="M56.4285 24.7961H54.6711V26.5535H56.4285V24.7961Z" fill="black"/>
<path d="M58.1858 24.7961H56.4285V26.5535H58.1858V24.7961Z" fill="black"/>
<path d="M61.7007 24.7961H59.9434V26.5535H61.7007V24.7961Z" fill="black"/>
<path d="M63.4581 24.7961H61.7007V26.5535H63.4581V24.7961Z" fill="black"/>
<path d="M66.9727 24.7961H65.2153V26.5535H66.9727V24.7961Z" fill="black"/>
<path d="M70.4873 24.7961H68.73V26.5535H70.4873V24.7961Z" fill="black"/>
<path d="M72.2449 24.7961H70.4875V26.5535H72.2449V24.7961Z" fill="black"/>
<path d="M74.0022 24.7961H72.2449V26.5535H74.0022V24.7961Z" fill="black"/>
<path d="M77.5169 24.7961H75.7595V26.5535H77.5169V24.7961Z" fill="black"/>
<path d="M79.2742 24.7961H77.5168V26.5535H79.2742V24.7961Z" fill="black"/>
<path d="M81.0318 24.7961H79.2744V26.5535H81.0318V24.7961Z" fill="black"/>
<path d="M84.5464 24.7961H82.7891V26.5535H84.5464V24.7961Z" fill="black"/>
<path d="M86.3038 24.7961H84.5464V26.5535H86.3038V24.7961Z" fill="black"/>
<path d="M89.8186 24.7961H88.0613V26.5535H89.8186V24.7961Z" fill="black"/>
<path d="M91.576 24.7961H89.8186V26.5535H91.576V24.7961Z" fill="black"/>
<path d="M93.3333 24.7961H91.5759V26.5535H93.3333V24.7961Z" fill="black"/>
<path d="M12.4942 26.5535H10.7368V28.3108H12.4942V26.5535Z" fill="black"/>
<path d="M14.2518 26.5535H12.4944V28.3108H14.2518V26.5535Z" fill="black"/>
<path d="M21.2811 26.5535H19.5237V28.3108H21.2811V26.5535Z" fill="black"/>
<path d="M24.7959 26.5535H23.0386V28.3108H24.7959V26.5535Z" fill="black"/>
<path d="M28.3106 26.5535H26.5532V28.3108H28.3106V26.5535Z" fill="black"/>
<path d="M35.3401 26.5535H33.5828V28.3108H35.3401V26.5535Z" fill="black"/>
<path d="M51.1563 26.5535H49.3989V28.3108H51.1563V26.5535Z" fill="black"/>
<path d="M52.9139 26.5535H51.1565V28.3108H52.9139V26.5535Z" fill="black"/>
<path d="M54.6712 26.5535H52.9138V28.3108H54.6712V26.5535Z" fill="black"/>
<path d="M61.7007 26.5535H59.9434V28.3108H61.7007V26.5535Z" fill="black"/>
<path d="M65.2154 26.5535H63.458V28.3108H65.2154V26.5535Z" fill="black"/>
<path d="M68.73 26.5535H66.9727V28.3108H68.73V26.5535Z" fill="black"/>
<path d="M72.2449 26.5535H70.4875V28.3108H72.2449V26.5535Z" fill="black"/>
<path d="M79.2742 26.5535H77.5168V28.3108H79.2742V26.5535Z" fill="black"/>
<path d="M82.7891 26.5535H81.0317V28.3108H82.7891V26.5535Z" fill="black"/>
<path d="M84.5464 26.5535H82.7891V28.3108H84.5464V26.5535Z" fill="black"/>
<path d="M86.3038 26.5535H84.5464V28.3108H86.3038V26.5535Z" fill="black"/>
<path d="M88.0611 26.5535H86.3037V28.3108H88.0611V26.5535Z" fill="black"/>
<path d="M89.8186 26.5535H88.0613V28.3108H89.8186V26.5535Z" fill="black"/>
<path d="M8.97954 28.3108H7.22217V30.0682H8.97954V28.3108Z" fill="black"/>
<path d="M16.0091 28.3108H14.2517V30.0682H16.0091V28.3108Z" fill="black"/>
<path d="M19.5237 28.3108H17.7664V30.0682H19.5237V28.3108Z" fill="black"/>
<path d="M21.2811 28.3108H19.5237V30.0682H21.2811V28.3108Z" fill="black"/>
<path d="M23.0384 28.3108H21.281V30.0682H23.0384V28.3108Z" fill="black"/>
<path d="M24.7959 28.3108H23.0386V30.0682H24.7959V28.3108Z" fill="black"/>
<path d="M28.3106 28.3108H26.5532V30.0682H28.3106V28.3108Z" fill="black"/>
<path d="M30.0679 28.3108H28.3105V30.0682H30.0679V28.3108Z" fill="black"/>
<path d="M38.8548 28.3108H37.0974V30.0682H38.8548V28.3108Z" fill="black"/>
<path d="M47.6416 28.3108H45.8843V30.0682H47.6416V28.3108Z" fill="black"/>
<path d="M49.399 28.3108H47.6416V30.0682H49.399V28.3108Z" fill="black"/>
<path d="M51.1563 28.3108H49.3989V30.0682H51.1563V28.3108Z" fill="black"/>
<path d="M54.6712 28.3108H52.9138V30.0682H54.6712V28.3108Z" fill="black"/>
<path d="M58.1858 28.3108H56.4285V30.0682H58.1858V28.3108Z" fill="black"/>
<path d="M59.9432 28.3108H58.1858V30.0682H59.9432V28.3108Z" fill="black"/>
<path d="M61.7007 28.3108H59.9434V30.0682H61.7007V28.3108Z" fill="black"/>
<path d="M65.2154 28.3108H63.458V30.0682H65.2154V28.3108Z" fill="black"/>
<path d="M70.4873 28.3108H68.73V30.0682H70.4873V28.3108Z" fill="black"/>
<path d="M81.0318 28.3108H79.2744V30.0682H81.0318V28.3108Z" fill="black"/>
<path d="M88.0611 28.3108H86.3037V30.0682H88.0611V28.3108Z" fill="black"/>
<path d="M89.8186 28.3108H88.0613V30.0682H89.8186V28.3108Z" fill="black"/>
<path d="M93.3333 28.3108H91.5759V30.0682H93.3333V28.3108Z" fill="black"/>
<path d="M8.97954 30.0681H7.22217V31.8255H8.97954V30.0681Z" fill="black"/>
<path d="M10.7369 30.0681H8.97949V31.8255H10.7369V30.0681Z" fill="black"/>
<path d="M12.4942 30.0681H10.7368V31.8255H12.4942V30.0681Z" fill="black"/>
<path d="M16.0091 30.0681H14.2517V31.8255H16.0091V30.0681Z" fill="black"/>
<path d="M17.7664 30.0681H16.009V31.8255H17.7664V30.0681Z" fill="black"/>
<path d="M21.2811 30.0681H19.5237V31.8255H21.2811V30.0681Z" fill="black"/>
<path d="M23.0384 30.0681H21.281V31.8255H23.0384V30.0681Z" fill="black"/>
<path d="M28.3106 30.0681H26.5532V31.8255H28.3106V30.0681Z" fill="black"/>
<path d="M30.0679 30.0681H28.3105V31.8255H30.0679V30.0681Z" fill="black"/>
<path d="M33.5828 30.0681H31.8254V31.8255H33.5828V30.0681Z" fill="black"/>
<path d="M38.8548 30.0681H37.0974V31.8255H38.8548V30.0681Z" fill="black"/>
<path d="M40.6121 30.0681H38.8547V31.8255H40.6121V30.0681Z" fill="black"/>
<path d="M45.8843 30.0681H44.127V31.8255H45.8843V30.0681Z" fill="black"/>
<path d="M47.6416 30.0681H45.8843V31.8255H47.6416V30.0681Z" fill="black"/>
<path d="M49.399 30.0681H47.6416V31.8255H49.399V30.0681Z" fill="black"/>
<path d="M54.6712 30.0681H52.9138V31.8255H54.6712V30.0681Z" fill="black"/>
<path d="M56.4285 30.0681H54.6711V31.8255H56.4285V30.0681Z" fill="black"/>
<path d="M58.1858 30.0681H56.4285V31.8255H58.1858V30.0681Z" fill="black"/>
<path d="M66.9727 30.0681H65.2153V31.8255H66.9727V30.0681Z" fill="black"/>
<path d="M70.4873 30.0681H68.73V31.8255H70.4873V30.0681Z" fill="black"/>
<path d="M75.7596 30.0681H74.0022V31.8255H75.7596V30.0681Z" fill="black"/>
<path d="M81.0318 30.0681H79.2744V31.8255H81.0318V30.0681Z" fill="black"/>
<path d="M82.7891 30.0681H81.0317V31.8255H82.7891V30.0681Z" fill="black"/>
<path d="M84.5464 30.0681H82.7891V31.8255H84.5464V30.0681Z" fill="black"/>
<path d="M88.0611 30.0681H86.3037V31.8255H88.0611V30.0681Z" fill="black"/>
<path d="M89.8186 30.0681H88.0613V31.8255H89.8186V30.0681Z" fill="black"/>
<path d="M91.576 30.0681H89.8186V31.8255H91.576V30.0681Z" fill="black"/>
<path d="M93.3333 30.0681H91.5759V31.8255H93.3333V30.0681Z" fill="black"/>
<path d="M8.97954 31.8257H7.22217V33.5831H8.97954V31.8257Z" fill="black"/>
<path d="M17.7664 31.8257H16.009V33.5831H17.7664V31.8257Z" fill="black"/>
<path d="M19.5237 31.8257H17.7664V33.5831H19.5237V31.8257Z" fill="black"/>
<path d="M24.7959 31.8257H23.0386V33.5831H24.7959V31.8257Z" fill="black"/>
<path d="M26.5533 31.8257H24.7959V33.5831H26.5533V31.8257Z" fill="black"/>
<path d="M28.3106 31.8257H26.5532V33.5831H28.3106V31.8257Z" fill="black"/>
<path d="M30.0679 31.8257H28.3105V33.5831H30.0679V31.8257Z" fill="black"/>
<path d="M31.8252 31.8257H30.0679V33.5831H31.8252V31.8257Z" fill="black"/>
<path d="M33.5828 31.8257H31.8254V33.5831H33.5828V31.8257Z" fill="black"/>
<path d="M38.8548 31.8257H37.0974V33.5831H38.8548V31.8257Z" fill="black"/>
<path d="M42.3697 31.8257H40.6123V33.5831H42.3697V31.8257Z" fill="black"/>
<path d="M44.127 31.8257H42.3696V33.5831H44.127V31.8257Z" fill="black"/>
<path d="M47.6416 31.8257H45.8843V33.5831H47.6416V31.8257Z" fill="black"/>
<path d="M49.399 31.8257H47.6416V33.5831H49.399V31.8257Z" fill="black"/>
<path d="M52.9139 31.8257H51.1565V33.5831H52.9139V31.8257Z" fill="black"/>
<path d="M54.6712 31.8257H52.9138V33.5831H54.6712V31.8257Z" fill="black"/>
<path d="M56.4285 31.8257H54.6711V33.5831H56.4285V31.8257Z" fill="black"/>
<path d="M58.1858 31.8257H56.4285V33.5831H58.1858V31.8257Z" fill="black"/>
<path d="M65.2154 31.8257H63.458V33.5831H65.2154V31.8257Z" fill="black"/>
<path d="M68.73 31.8257H66.9727V33.5831H68.73V31.8257Z" fill="black"/>
<path d="M72.2449 31.8257H70.4875V33.5831H72.2449V31.8257Z" fill="black"/>
<path d="M74.0022 31.8257H72.2449V33.5831H74.0022V31.8257Z" fill="black"/>
<path d="M75.7596 31.8257H74.0022V33.5831H75.7596V31.8257Z" fill="black"/>
<path d="M82.7891 31.8257H81.0317V33.5831H82.7891V31.8257Z" fill="black"/>
<path d="M84.5464 31.8257H82.7891V33.5831H84.5464V31.8257Z" fill="black"/>
<path d="M88.0611 31.8257H86.3037V33.5831H88.0611V31.8257Z" fill="black"/>
<path d="M93.3333 31.8257H91.5759V33.5831H93.3333V31.8257Z" fill="black"/>
<path d="M8.97954 33.583H7.22217V35.3404H8.97954V33.583Z" fill="black"/>
<path d="M12.4942 33.583H10.7368V35.3404H12.4942V33.583Z" fill="black"/>
<path d="M16.0091 33.583H14.2517V35.3404H16.0091V33.583Z" fill="black"/>
<path d="M21.2811 33.583H19.5237V35.3404H21.2811V33.583Z" fill="black"/>
<path d="M23.0384 33.583H21.281V35.3404H23.0384V33.583Z" fill="black"/>
<path d="M26.5533 33.583H24.7959V35.3404H26.5533V33.583Z" fill="black"/>
<path d="M31.8252 33.583H30.0679V35.3404H31.8252V33.583Z" fill="black"/>
<path d="M35.3401 33.583H33.5828V35.3404H35.3401V33.583Z" fill="black"/>
<path d="M38.8548 33.583H37.0974V35.3404H38.8548V33.583Z" fill="black"/>
<path d="M40.6121 33.583H38.8547V35.3404H40.6121V33.583Z" fill="black"/>
<path d="M42.3697 33.583H40.6123V35.3404H42.3697V33.583Z" fill="black"/>
<path d="M44.127 33.583H42.3696V35.3404H44.127V33.583Z" fill="black"/>
<path d="M45.8843 33.583H44.127V35.3404H45.8843V33.583Z" fill="black"/>
<path d="M47.6416 33.583H45.8843V35.3404H47.6416V33.583Z" fill="black"/>
<path d="M51.1563 33.583H49.3989V35.3404H51.1563V33.583Z" fill="black"/>
<path d="M54.6712 33.583H52.9138V35.3404H54.6712V33.583Z" fill="black"/>
<path d="M56.4285 33.583H54.6711V35.3404H56.4285V33.583Z" fill="black"/>
<path d="M61.7007 33.583H59.9434V35.3404H61.7007V33.583Z" fill="black"/>
<path d="M63.4581 33.583H61.7007V35.3404H63.4581V33.583Z" fill="black"/>
<path d="M65.2154 33.583H63.458V35.3404H65.2154V33.583Z" fill="black"/>
<path d="M66.9727 33.583H65.2153V35.3404H66.9727V33.583Z" fill="black"/>
<path d="M70.4873 33.583H68.73V35.3404H70.4873V33.583Z" fill="black"/>
<path d="M74.0022 33.583H72.2449V35.3404H74.0022V33.583Z" fill="black"/>
<path d="M77.5169 33.583H75.7595V35.3404H77.5169V33.583Z" fill="black"/>
<path d="M79.2742 33.583H77.5168V35.3404H79.2742V33.583Z" fill="black"/>
<path d="M82.7891 33.583H81.0317V35.3404H82.7891V33.583Z" fill="black"/>
<path d="M86.3038 33.583H84.5464V35.3404H86.3038V33.583Z" fill="black"/>
<path d="M88.0611 33.583H86.3037V35.3404H88.0611V33.583Z" fill="black"/>
<path d="M8.97954 35.3403H7.22217V37.0977H8.97954V35.3403Z" fill="black"/>
<path d="M16.0091 35.3403H14.2517V37.0977H16.0091V35.3403Z" fill="black"/>
<path d="M19.5237 35.3403H17.7664V37.0977H19.5237V35.3403Z" fill="black"/>
<path d="M21.2811 35.3403H19.5237V37.0977H21.2811V35.3403Z" fill="black"/>
<path d="M23.0384 35.3403H21.281V37.0977H23.0384V35.3403Z" fill="black"/>
<path d="M24.7959 35.3403H23.0386V37.0977H24.7959V35.3403Z" fill="black"/>
<path d="M26.5533 35.3403H24.7959V37.0977H26.5533V35.3403Z" fill="black"/>
<path d="M37.0975 35.3403H35.3401V37.0977H37.0975V35.3403Z" fill="black"/>
<path d="M38.8548 35.3403H37.0974V37.0977H38.8548V35.3403Z" fill="black"/>
<path d="M42.3697 35.3403H40.6123V37.0977H42.3697V35.3403Z" fill="black"/>
<path d="M51.1563 35.3403H49.3989V37.0977H51.1563V35.3403Z" fill="black"/>
<path d="M52.9139 35.3403H51.1565V37.0977H52.9139V35.3403Z" fill="black"/>
<path d="M58.1858 35.3403H56.4285V37.0977H58.1858V35.3403Z" fill="black"/>
<path d="M63.4581 35.3403H61.7007V37.0977H63.4581V35.3403Z" fill="black"/>
<path d="M65.2154 35.3403H63.458V37.0977H65.2154V35.3403Z" fill="black"/>
<path d="M66.9727 35.3403H65.2153V37.0977H66.9727V35.3403Z" fill="black"/>
<path d="M68.73 35.3403H66.9727V37.0977H68.73V35.3403Z" fill="black"/>
<path d="M82.7891 35.3403H81.0317V37.0977H82.7891V35.3403Z" fill="black"/>
<path d="M86.3038 35.3403H84.5464V37.0977H86.3038V35.3403Z" fill="black"/>
<path d="M88.0611 35.3403H86.3037V37.0977H88.0611V35.3403Z" fill="black"/>
<path d="M93.3333 35.3403H91.5759V37.0977H93.3333V35.3403Z" fill="black"/>
<path d="M14.2518 37.0977H12.4944V38.855H14.2518V37.0977Z" fill="black"/>
<path d="M16.0091 37.0977H14.2517V38.855H16.0091V37.0977Z" fill="black"/>
<path d="M17.7664 37.0977H16.009V38.855H17.7664V37.0977Z" fill="black"/>
<path d="M23.0384 37.0977H21.281V38.855H23.0384V37.0977Z" fill="black"/>
<path d="M24.7959 37.0977H23.0386V38.855H24.7959V37.0977Z" fill="black"/>
<path d="M26.5533 37.0977H24.7959V38.855H26.5533V37.0977Z" fill="black"/>
<path d="M30.0679 37.0977H28.3105V38.855H30.0679V37.0977Z" fill="black"/>
<path d="M37.0975 37.0977H35.3401V38.855H37.0975V37.0977Z" fill="black"/>
<path d="M38.8548 37.0977H37.0974V38.855H38.8548V37.0977Z" fill="black"/>
<path d="M40.6121 37.0977H38.8547V38.855H40.6121V37.0977Z" fill="black"/>
<path d="M42.3697 37.0977H40.6123V38.855H42.3697V37.0977Z" fill="black"/>
<path d="M45.8843 37.0977H44.127V38.855H45.8843V37.0977Z" fill="black"/>
<path d="M51.1563 37.0977H49.3989V38.855H51.1563V37.0977Z" fill="black"/>
<path d="M52.9139 37.0977H51.1565V38.855H52.9139V37.0977Z" fill="black"/>
<path d="M58.1858 37.0977H56.4285V38.855H58.1858V37.0977Z" fill="black"/>
<path d="M59.9432 37.0977H58.1858V38.855H59.9432V37.0977Z" fill="black"/>
<path d="M63.4581 37.0977H61.7007V38.855H63.4581V37.0977Z" fill="black"/>
<path d="M66.9727 37.0977H65.2153V38.855H66.9727V37.0977Z" fill="black"/>
<path d="M70.4873 37.0977H68.73V38.855H70.4873V37.0977Z" fill="black"/>
<path d="M74.0022 37.0977H72.2449V38.855H74.0022V37.0977Z" fill="black"/>
<path d="M75.7596 37.0977H74.0022V38.855H75.7596V37.0977Z" fill="black"/>
<path d="M79.2742 37.0977H77.5168V38.855H79.2742V37.0977Z" fill="black"/>
<path d="M81.0318 37.0977H79.2744V38.855H81.0318V37.0977Z" fill="black"/>
<path d="M82.7891 37.0977H81.0317V38.855H82.7891V37.0977Z" fill="black"/>
<path d="M84.5464 37.0977H82.7891V38.855H84.5464V37.0977Z" fill="black"/>
<path d="M86.3038 37.0977H84.5464V38.855H86.3038V37.0977Z" fill="black"/>
<path d="M88.0611 37.0977H86.3037V38.855H88.0611V37.0977Z" fill="black"/>
<path d="M89.8186 37.0977H88.0613V38.855H89.8186V37.0977Z" fill="black"/>
<path d="M91.576 37.0977H89.8186V38.855H91.576V37.0977Z" fill="black"/>
<path d="M10.7369 38.855H8.97949V40.6123H10.7369V38.855Z" fill="black"/>
<path d="M14.2518 38.855H12.4944V40.6123H14.2518V38.855Z" fill="black"/>
<path d="M17.7664 38.855H16.009V40.6123H17.7664V38.855Z" fill="black"/>
<path d="M19.5237 38.855H17.7664V40.6123H19.5237V38.855Z" fill="black"/>
<path d="M23.0384 38.855H21.281V40.6123H23.0384V38.855Z" fill="black"/>
<path d="M24.7959 38.855H23.0386V40.6123H24.7959V38.855Z" fill="black"/>
<path d="M30.0679 38.855H28.3105V40.6123H30.0679V38.855Z" fill="black"/>
<path d="M33.5828 38.855H31.8254V40.6123H33.5828V38.855Z" fill="black"/>
<path d="M38.8548 38.855H37.0974V40.6123H38.8548V38.855Z" fill="black"/>
<path d="M44.127 38.855H42.3696V40.6123H44.127V38.855Z" fill="black"/>
<path d="M49.399 38.855H47.6416V40.6123H49.399V38.855Z" fill="black"/>
<path d="M51.1563 38.855H49.3989V40.6123H51.1563V38.855Z" fill="black"/>
<path d="M54.6712 38.855H52.9138V40.6123H54.6712V38.855Z" fill="black"/>
<path d="M58.1858 38.855H56.4285V40.6123H58.1858V38.855Z" fill="black"/>
<path d="M59.9432 38.855H58.1858V40.6123H59.9432V38.855Z" fill="black"/>
<path d="M66.9727 38.855H65.2153V40.6123H66.9727V38.855Z" fill="black"/>
<path d="M68.73 38.855H66.9727V40.6123H68.73V38.855Z" fill="black"/>
<path d="M72.2449 38.855H70.4875V40.6123H72.2449V38.855Z" fill="black"/>
<path d="M74.0022 38.855H72.2449V40.6123H74.0022V38.855Z" fill="black"/>
<path d="M75.7596 38.855H74.0022V40.6123H75.7596V38.855Z" fill="black"/>
<path d="M79.2742 38.855H77.5168V40.6123H79.2742V38.855Z" fill="black"/>
<path d="M82.7891 38.855H81.0317V40.6123H82.7891V38.855Z" fill="black"/>
<path d="M86.3038 38.855H84.5464V40.6123H86.3038V38.855Z" fill="black"/>
<path d="M88.0611 38.855H86.3037V40.6123H88.0611V38.855Z" fill="black"/>
<path d="M89.8186 38.855H88.0613V40.6123H89.8186V38.855Z" fill="black"/>
<path d="M8.97954 40.6125H7.22217V42.3699H8.97954V40.6125Z" fill="black"/>
<path d="M12.4942 40.6125H10.7368V42.3699H12.4942V40.6125Z" fill="black"/>
<path d="M16.0091 40.6125H14.2517V42.3699H16.0091V40.6125Z" fill="black"/>
<path d="M21.2811 40.6125H19.5237V42.3699H21.2811V40.6125Z" fill="black"/>
<path d="M23.0384 40.6125H21.281V42.3699H23.0384V40.6125Z" fill="black"/>
<path d="M24.7959 40.6125H23.0386V42.3699H24.7959V40.6125Z" fill="black"/>
<path d="M26.5533 40.6125H24.7959V42.3699H26.5533V40.6125Z" fill="black"/>
<path d="M30.0679 40.6125H28.3105V42.3699H30.0679V40.6125Z" fill="black"/>
<path d="M31.8252 40.6125H30.0679V42.3699H31.8252V40.6125Z" fill="black"/>
<path d="M35.3401 40.6125H33.5828V42.3699H35.3401V40.6125Z" fill="black"/>
<path d="M37.0975 40.6125H35.3401V42.3699H37.0975V40.6125Z" fill="black"/>
<path d="M40.6121 40.6125H38.8547V42.3699H40.6121V40.6125Z" fill="black"/>
<path d="M45.8843 40.6125H44.127V42.3699H45.8843V40.6125Z" fill="black"/>
<path d="M47.6416 40.6125H45.8843V42.3699H47.6416V40.6125Z" fill="black"/>
<path d="M49.399 40.6125H47.6416V42.3699H49.399V40.6125Z" fill="black"/>
<path d="M54.6712 40.6125H52.9138V42.3699H54.6712V40.6125Z" fill="black"/>
<path d="M56.4285 40.6125H54.6711V42.3699H56.4285V40.6125Z" fill="black"/>
<path d="M61.7007 40.6125H59.9434V42.3699H61.7007V40.6125Z" fill="black"/>
<path d="M65.2154 40.6125H63.458V42.3699H65.2154V40.6125Z" fill="black"/>
<path d="M66.9727 40.6125H65.2153V42.3699H66.9727V40.6125Z" fill="black"/>
<path d="M74.0022 40.6125H72.2449V42.3699H74.0022V40.6125Z" fill="black"/>
<path d="M75.7596 40.6125H74.0022V42.3699H75.7596V40.6125Z" fill="black"/>
<path d="M81.0318 40.6125H79.2744V42.3699H81.0318V40.6125Z" fill="black"/>
<path d="M82.7891 40.6125H81.0317V42.3699H82.7891V40.6125Z" fill="black"/>
<path d="M84.5464 40.6125H82.7891V42.3699H84.5464V40.6125Z" fill="black"/>
<path d="M86.3038 40.6125H84.5464V42.3699H86.3038V40.6125Z" fill="black"/>
<path d="M88.0611 40.6125H86.3037V42.3699H88.0611V40.6125Z" fill="black"/>
<path d="M10.7369 42.3699H8.97949V44.1272H10.7369V42.3699Z" fill="black"/>
<path d="M12.4942 42.3699H10.7368V44.1272H12.4942V42.3699Z" fill="black"/>
<path d="M14.2518 42.3699H12.4944V44.1272H14.2518V42.3699Z" fill="black"/>
<path d="M16.0091 42.3699H14.2517V44.1272H16.0091V42.3699Z" fill="black"/>
<path d="M17.7664 42.3699H16.009V44.1272H17.7664V42.3699Z" fill="black"/>
<path d="M19.5237 42.3699H17.7664V44.1272H19.5237V42.3699Z" fill="black"/>
<path d="M21.2811 42.3699H19.5237V44.1272H21.2811V42.3699Z" fill="black"/>
<path d="M23.0384 42.3699H21.281V44.1272H23.0384V42.3699Z" fill="black"/>
<path d="M24.7959 42.3699H23.0386V44.1272H24.7959V42.3699Z" fill="black"/>
<path d="M28.3106 42.3699H26.5532V44.1272H28.3106V42.3699Z" fill="black"/>
<path d="M30.0679 42.3699H28.3105V44.1272H30.0679V42.3699Z" fill="black"/>
<path d="M31.8252 42.3699H30.0679V44.1272H31.8252V42.3699Z" fill="black"/>
<path d="M35.3401 42.3699H33.5828V44.1272H35.3401V42.3699Z" fill="black"/>
<path d="M38.8548 42.3699H37.0974V44.1272H38.8548V42.3699Z" fill="black"/>
<path d="M44.127 42.3699H42.3696V44.1272H44.127V42.3699Z" fill="black"/>
<path d="M45.8843 42.3699H44.127V44.1272H45.8843V42.3699Z" fill="black"/>
<path d="M52.9139 42.3699H51.1565V44.1272H52.9139V42.3699Z" fill="black"/>
<path d="M56.4285 42.3699H54.6711V44.1272H56.4285V42.3699Z" fill="black"/>
<path d="M63.4581 42.3699H61.7007V44.1272H63.4581V42.3699Z" fill="black"/>
<path d="M70.4873 42.3699H68.73V44.1272H70.4873V42.3699Z" fill="black"/>
<path d="M75.7596 42.3699H74.0022V44.1272H75.7596V42.3699Z" fill="black"/>
<path d="M77.5169 42.3699H75.7595V44.1272H77.5169V42.3699Z" fill="black"/>
<path d="M79.2742 42.3699H77.5168V44.1272H79.2742V42.3699Z" fill="black"/>
<path d="M81.0318 42.3699H79.2744V44.1272H81.0318V42.3699Z" fill="black"/>
<path d="M88.0611 42.3699H86.3037V44.1272H88.0611V42.3699Z" fill="black"/>
<path d="M89.8186 42.3699H88.0613V44.1272H89.8186V42.3699Z" fill="black"/>
<path d="M93.3333 42.3699H91.5759V44.1272H93.3333V42.3699Z" fill="black"/>
<path d="M8.97954 44.1272H7.22217V45.8846H8.97954V44.1272Z" fill="black"/>
<path d="M12.4942 44.1272H10.7368V45.8846H12.4942V44.1272Z" fill="black"/>
<path d="M17.7664 44.1272H16.009V45.8846H17.7664V44.1272Z" fill="black"/>
<path d="M21.2811 44.1272H19.5237V45.8846H21.2811V44.1272Z" fill="black"/>
<path d="M23.0384 44.1272H21.281V45.8846H23.0384V44.1272Z" fill="black"/>
<path d="M26.5533 44.1272H24.7959V45.8846H26.5533V44.1272Z" fill="black"/>
<path d="M30.0679 44.1272H28.3105V45.8846H30.0679V44.1272Z" fill="black"/>
<path d="M31.8252 44.1272H30.0679V45.8846H31.8252V44.1272Z" fill="black"/>
<path d="M35.3401 44.1272H33.5828V45.8846H35.3401V44.1272Z" fill="black"/>
<path d="M37.0975 44.1272H35.3401V45.8846H37.0975V44.1272Z" fill="black"/>
<path d="M38.8548 44.1272H37.0974V45.8846H38.8548V44.1272Z" fill="black"/>
<path d="M42.3697 44.1272H40.6123V45.8846H42.3697V44.1272Z" fill="black"/>
<path d="M44.127 44.1272H42.3696V45.8846H44.127V44.1272Z" fill="black"/>
<path d="M47.6416 44.1272H45.8843V45.8846H47.6416V44.1272Z" fill="black"/>
<path d="M49.399 44.1272H47.6416V45.8846H49.399V44.1272Z" fill="black"/>
<path d="M51.1563 44.1272H49.3989V45.8846H51.1563V44.1272Z" fill="black"/>
<path d="M52.9139 44.1272H51.1565V45.8846H52.9139V44.1272Z" fill="black"/>
<path d="M56.4285 44.1272H54.6711V45.8846H56.4285V44.1272Z" fill="black"/>
<path d="M59.9432 44.1272H58.1858V45.8846H59.9432V44.1272Z" fill="black"/>
<path d="M61.7007 44.1272H59.9434V45.8846H61.7007V44.1272Z" fill="black"/>
<path d="M65.2154 44.1272H63.458V45.8846H65.2154V44.1272Z" fill="black"/>
<path d="M68.73 44.1272H66.9727V45.8846H68.73V44.1272Z" fill="black"/>
<path d="M77.5169 44.1272H75.7595V45.8846H77.5169V44.1272Z" fill="black"/>
<path d="M79.2742 44.1272H77.5168V45.8846H79.2742V44.1272Z" fill="black"/>
<path d="M81.0318 44.1272H79.2744V45.8846H81.0318V44.1272Z" fill="black"/>
<path d="M82.7891 44.1272H81.0317V45.8846H82.7891V44.1272Z" fill="black"/>
<path d="M84.5464 44.1272H82.7891V45.8846H84.5464V44.1272Z" fill="black"/>
<path d="M88.0611 44.1272H86.3037V45.8846H88.0611V44.1272Z" fill="black"/>
<path d="M89.8186 44.1272H88.0613V45.8846H89.8186V44.1272Z" fill="black"/>
<path d="M93.3333 44.1272H91.5759V45.8846H93.3333V44.1272Z" fill="black"/>
<path d="M8.97954 45.8845H7.22217V47.6419H8.97954V45.8845Z" fill="black"/>
<path d="M16.0091 45.8845H14.2517V47.6419H16.0091V45.8845Z" fill="black"/>
<path d="M17.7664 45.8845H16.009V47.6419H17.7664V45.8845Z" fill="black"/>
<path d="M19.5237 45.8845H17.7664V47.6419H19.5237V45.8845Z" fill="black"/>
<path d="M21.2811 45.8845H19.5237V47.6419H21.2811V45.8845Z" fill="black"/>
<path d="M23.0384 45.8845H21.281V47.6419H23.0384V45.8845Z" fill="black"/>
<path d="M26.5533 45.8845H24.7959V47.6419H26.5533V45.8845Z" fill="black"/>
<path d="M28.3106 45.8845H26.5532V47.6419H28.3106V45.8845Z" fill="black"/>
<path d="M30.0679 45.8845H28.3105V47.6419H30.0679V45.8845Z" fill="black"/>
<path d="M31.8252 45.8845H30.0679V47.6419H31.8252V45.8845Z" fill="black"/>
<path d="M33.5828 45.8845H31.8254V47.6419H33.5828V45.8845Z" fill="black"/>
<path d="M35.3401 45.8845H33.5828V47.6419H35.3401V45.8845Z" fill="black"/>
<path d="M44.127 45.8845H42.3696V47.6419H44.127V45.8845Z" fill="black"/>
<path d="M45.8843 45.8845H44.127V47.6419H45.8843V45.8845Z" fill="black"/>
<path d="M47.6416 45.8845H45.8843V47.6419H47.6416V45.8845Z" fill="black"/>
<path d="M49.399 45.8845H47.6416V47.6419H49.399V45.8845Z" fill="black"/>
<path d="M51.1563 45.8845H49.3989V47.6419H51.1563V45.8845Z" fill="black"/>
<path d="M52.9139 45.8845H51.1565V47.6419H52.9139V45.8845Z" fill="black"/>
<path d="M54.6712 45.8845H52.9138V47.6419H54.6712V45.8845Z" fill="black"/>
<path d="M56.4285 45.8845H54.6711V47.6419H56.4285V45.8845Z" fill="black"/>
<path d="M58.1858 45.8845H56.4285V47.6419H58.1858V45.8845Z" fill="black"/>
<path d="M63.4581 45.8845H61.7007V47.6419H63.4581V45.8845Z" fill="black"/>
<path d="M66.9727 45.8845H65.2153V47.6419H66.9727V45.8845Z" fill="black"/>
<path d="M72.2449 45.8845H70.4875V47.6419H72.2449V45.8845Z" fill="black"/>
<path d="M79.2742 45.8845H77.5168V47.6419H79.2742V45.8845Z" fill="black"/>
<path d="M81.0318 45.8845H79.2744V47.6419H81.0318V45.8845Z" fill="black"/>
<path d="M82.7891 45.8845H81.0317V47.6419H82.7891V45.8845Z" fill="black"/>
<path d="M84.5464 45.8845H82.7891V47.6419H84.5464V45.8845Z" fill="black"/>
<path d="M86.3038 45.8845H84.5464V47.6419H86.3038V45.8845Z" fill="black"/>
<path d="M88.0611 45.8845H86.3037V47.6419H88.0611V45.8845Z" fill="black"/>
<path d="M89.8186 45.8845H88.0613V47.6419H89.8186V45.8845Z" fill="black"/>
<path d="M93.3333 45.8845H91.5759V47.6419H93.3333V45.8845Z" fill="black"/>
<path d="M10.7369 47.6418H8.97949V49.3992H10.7369V47.6418Z" fill="black"/>
<path d="M12.4942 47.6418H10.7368V49.3992H12.4942V47.6418Z" fill="black"/>
<path d="M14.2518 47.6418H12.4944V49.3992H14.2518V47.6418Z" fill="black"/>
<path d="M16.0091 47.6418H14.2517V49.3992H16.0091V47.6418Z" fill="black"/>
<path d="M23.0384 47.6418H21.281V49.3992H23.0384V47.6418Z" fill="black"/>
<path d="M28.3106 47.6418H26.5532V49.3992H28.3106V47.6418Z" fill="black"/>
<path d="M30.0679 47.6418H28.3105V49.3992H30.0679V47.6418Z" fill="black"/>
<path d="M31.8252 47.6418H30.0679V49.3992H31.8252V47.6418Z" fill="black"/>
<path d="M33.5828 47.6418H31.8254V49.3992H33.5828V47.6418Z" fill="black"/>
<path d="M42.3697 47.6418H40.6123V49.3992H42.3697V47.6418Z" fill="black"/>
<path d="M45.8843 47.6418H44.127V49.3992H45.8843V47.6418Z" fill="black"/>
<path d="M47.6416 47.6418H45.8843V49.3992H47.6416V47.6418Z" fill="black"/>
<path d="M54.6712 47.6418H52.9138V49.3992H54.6712V47.6418Z" fill="black"/>
<path d="M56.4285 47.6418H54.6711V49.3992H56.4285V47.6418Z" fill="black"/>
<path d="M61.7007 47.6418H59.9434V49.3992H61.7007V47.6418Z" fill="black"/>
<path d="M63.4581 47.6418H61.7007V49.3992H63.4581V47.6418Z" fill="black"/>
<path d="M66.9727 47.6418H65.2153V49.3992H66.9727V47.6418Z" fill="black"/>
<path d="M68.73 47.6418H66.9727V49.3992H68.73V47.6418Z" fill="black"/>
<path d="M72.2449 47.6418H70.4875V49.3992H72.2449V47.6418Z" fill="black"/>
<path d="M74.0022 47.6418H72.2449V49.3992H74.0022V47.6418Z" fill="black"/>
<path d="M77.5169 47.6418H75.7595V49.3992H77.5169V47.6418Z" fill="black"/>
<path d="M79.2742 47.6418H77.5168V49.3992H79.2742V47.6418Z" fill="black"/>
<path d="M86.3038 47.6418H84.5464V49.3992H86.3038V47.6418Z" fill="black"/>
<path d="M89.8186 47.6418H88.0613V49.3992H89.8186V47.6418Z" fill="black"/>
<path d="M91.576 47.6418H89.8186V49.3992H91.576V47.6418Z" fill="black"/>
<path d="M8.97954 49.3992H7.22217V51.1565H8.97954V49.3992Z" fill="black"/>
<path d="M16.0091 49.3992H14.2517V51.1565H16.0091V49.3992Z" fill="black"/>
<path d="M19.5237 49.3992H17.7664V51.1565H19.5237V49.3992Z" fill="black"/>
<path d="M23.0384 49.3992H21.281V51.1565H23.0384V49.3992Z" fill="black"/>
<path d="M24.7959 49.3992H23.0386V51.1565H24.7959V49.3992Z" fill="black"/>
<path d="M26.5533 49.3992H24.7959V51.1565H26.5533V49.3992Z" fill="black"/>
<path d="M30.0679 49.3992H28.3105V51.1565H30.0679V49.3992Z" fill="black"/>
<path d="M31.8252 49.3992H30.0679V51.1565H31.8252V49.3992Z" fill="black"/>
<path d="M33.5828 49.3992H31.8254V51.1565H33.5828V49.3992Z" fill="black"/>
<path d="M35.3401 49.3992H33.5828V51.1565H35.3401V49.3992Z" fill="black"/>
<path d="M37.0975 49.3992H35.3401V51.1565H37.0975V49.3992Z" fill="black"/>
<path d="M38.8548 49.3992H37.0974V51.1565H38.8548V49.3992Z" fill="black"/>
<path d="M40.6121 49.3992H38.8547V51.1565H40.6121V49.3992Z" fill="black"/>
<path d="M42.3697 49.3992H40.6123V51.1565H42.3697V49.3992Z" fill="black"/>
<path d="M47.6416 49.3992H45.8843V51.1565H47.6416V49.3992Z" fill="black"/>
<path d="M51.1563 49.3992H49.3989V51.1565H51.1563V49.3992Z" fill="black"/>
<path d="M54.6712 49.3992H52.9138V51.1565H54.6712V49.3992Z" fill="black"/>
<path d="M58.1858 49.3992H56.4285V51.1565H58.1858V49.3992Z" fill="black"/>
<path d="M61.7007 49.3992H59.9434V51.1565H61.7007V49.3992Z" fill="black"/>
<path d="M63.4581 49.3992H61.7007V51.1565H63.4581V49.3992Z" fill="black"/>
<path d="M65.2154 49.3992H63.458V51.1565H65.2154V49.3992Z" fill="black"/>
<path d="M74.0022 49.3992H72.2449V51.1565H74.0022V49.3992Z" fill="black"/>
<path d="M77.5169 49.3992H75.7595V51.1565H77.5169V49.3992Z" fill="black"/>
<path d="M79.2742 49.3992H77.5168V51.1565H79.2742V49.3992Z" fill="black"/>
<path d="M82.7891 49.3992H81.0317V51.1565H82.7891V49.3992Z" fill="black"/>
<path d="M86.3038 49.3992H84.5464V51.1565H86.3038V49.3992Z" fill="black"/>
<path d="M89.8186 49.3992H88.0613V51.1565H89.8186V49.3992Z" fill="black"/>
<path d="M91.576 49.3992H89.8186V51.1565H91.576V49.3992Z" fill="black"/>
<path d="M8.97954 51.1567H7.22217V52.9141H8.97954V51.1567Z" fill="black"/>
<path d="M10.7369 51.1567H8.97949V52.9141H10.7369V51.1567Z" fill="black"/>
<path d="M12.4942 51.1567H10.7368V52.9141H12.4942V51.1567Z" fill="black"/>
<path d="M14.2518 51.1567H12.4944V52.9141H14.2518V51.1567Z" fill="black"/>
<path d="M16.0091 51.1567H14.2517V52.9141H16.0091V51.1567Z" fill="black"/>
<path d="M23.0384 51.1567H21.281V52.9141H23.0384V51.1567Z" fill="black"/>
<path d="M26.5533 51.1567H24.7959V52.9141H26.5533V51.1567Z" fill="black"/>
<path d="M30.0679 51.1567H28.3105V52.9141H30.0679V51.1567Z" fill="black"/>
<path d="M35.3401 51.1567H33.5828V52.9141H35.3401V51.1567Z" fill="black"/>
<path d="M40.6121 51.1567H38.8547V52.9141H40.6121V51.1567Z" fill="black"/>
<path d="M42.3697 51.1567H40.6123V52.9141H42.3697V51.1567Z" fill="black"/>
<path d="M47.6416 51.1567H45.8843V52.9141H47.6416V51.1567Z" fill="black"/>
<path d="M54.6712 51.1567H52.9138V52.9141H54.6712V51.1567Z" fill="black"/>
<path d="M56.4285 51.1567H54.6711V52.9141H56.4285V51.1567Z" fill="black"/>
<path d="M58.1858 51.1567H56.4285V52.9141H58.1858V51.1567Z" fill="black"/>
<path d="M61.7007 51.1567H59.9434V52.9141H61.7007V51.1567Z" fill="black"/>
<path d="M65.2154 51.1567H63.458V52.9141H65.2154V51.1567Z" fill="black"/>
<path d="M66.9727 51.1567H65.2153V52.9141H66.9727V51.1567Z" fill="black"/>
<path d="M74.0022 51.1567H72.2449V52.9141H74.0022V51.1567Z" fill="black"/>
<path d="M75.7596 51.1567H74.0022V52.9141H75.7596V51.1567Z" fill="black"/>
<path d="M79.2742 51.1567H77.5168V52.9141H79.2742V51.1567Z" fill="black"/>
<path d="M86.3038 51.1567H84.5464V52.9141H86.3038V51.1567Z" fill="black"/>
<path d="M88.0611 51.1567H86.3037V52.9141H88.0611V51.1567Z" fill="black"/>
<path d="M93.3333 51.1567H91.5759V52.9141H93.3333V51.1567Z" fill="black"/>
<path d="M10.7369 52.9141H8.97949V54.6714H10.7369V52.9141Z" fill="black"/>
<path d="M12.4942 52.9141H10.7368V54.6714H12.4942V52.9141Z" fill="black"/>
<path d="M16.0091 52.9141H14.2517V54.6714H16.0091V52.9141Z" fill="black"/>
<path d="M17.7664 52.9141H16.009V54.6714H17.7664V52.9141Z" fill="black"/>
<path d="M19.5237 52.9141H17.7664V54.6714H19.5237V52.9141Z" fill="black"/>
<path d="M21.2811 52.9141H19.5237V54.6714H21.2811V52.9141Z" fill="black"/>
<path d="M23.0384 52.9141H21.281V54.6714H23.0384V52.9141Z" fill="black"/>
<path d="M31.8252 52.9141H30.0679V54.6714H31.8252V52.9141Z" fill="black"/>
<path d="M35.3401 52.9141H33.5828V54.6714H35.3401V52.9141Z" fill="black"/>
<path d="M40.6121 52.9141H38.8547V54.6714H40.6121V52.9141Z" fill="black"/>
<path d="M42.3697 52.9141H40.6123V54.6714H42.3697V52.9141Z" fill="black"/>
<path d="M45.8843 52.9141H44.127V54.6714H45.8843V52.9141Z" fill="black"/>
<path d="M47.6416 52.9141H45.8843V54.6714H47.6416V52.9141Z" fill="black"/>
<path d="M49.399 52.9141H47.6416V54.6714H49.399V52.9141Z" fill="black"/>
<path d="M51.1563 52.9141H49.3989V54.6714H51.1563V52.9141Z" fill="black"/>
<path d="M52.9139 52.9141H51.1565V54.6714H52.9139V52.9141Z" fill="black"/>
<path d="M54.6712 52.9141H52.9138V54.6714H54.6712V52.9141Z" fill="black"/>
<path d="M56.4285 52.9141H54.6711V54.6714H56.4285V52.9141Z" fill="black"/>
<path d="M63.4581 52.9141H61.7007V54.6714H63.4581V52.9141Z" fill="black"/>
<path d="M68.73 52.9141H66.9727V54.6714H68.73V52.9141Z" fill="black"/>
<path d="M70.4873 52.9141H68.73V54.6714H70.4873V52.9141Z" fill="black"/>
<path d="M72.2449 52.9141H70.4875V54.6714H72.2449V52.9141Z" fill="black"/>
<path d="M75.7596 52.9141H74.0022V54.6714H75.7596V52.9141Z" fill="black"/>
<path d="M77.5169 52.9141H75.7595V54.6714H77.5169V52.9141Z" fill="black"/>
<path d="M79.2742 52.9141H77.5168V54.6714H79.2742V52.9141Z" fill="black"/>
<path d="M81.0318 52.9141H79.2744V54.6714H81.0318V52.9141Z" fill="black"/>
<path d="M82.7891 52.9141H81.0317V54.6714H82.7891V52.9141Z" fill="black"/>
<path d="M84.5464 52.9141H82.7891V54.6714H84.5464V52.9141Z" fill="black"/>
<path d="M86.3038 52.9141H84.5464V54.6714H86.3038V52.9141Z" fill="black"/>
<path d="M93.3333 52.9141H91.5759V54.6714H93.3333V52.9141Z" fill="black"/>
<path d="M8.97954 54.6714H7.22217V56.4288H8.97954V54.6714Z" fill="black"/>
<path d="M17.7664 54.6714H16.009V56.4288H17.7664V54.6714Z" fill="black"/>
<path d="M21.2811 54.6714H19.5237V56.4288H21.2811V54.6714Z" fill="black"/>
<path d="M23.0384 54.6714H21.281V56.4288H23.0384V54.6714Z" fill="black"/>
<path d="M26.5533 54.6714H24.7959V56.4288H26.5533V54.6714Z" fill="black"/>
<path d="M30.0679 54.6714H28.3105V56.4288H30.0679V54.6714Z" fill="black"/>
<path d="M31.8252 54.6714H30.0679V56.4288H31.8252V54.6714Z" fill="black"/>
<path d="M33.5828 54.6714H31.8254V56.4288H33.5828V54.6714Z" fill="black"/>
<path d="M35.3401 54.6714H33.5828V56.4288H35.3401V54.6714Z" fill="black"/>
<path d="M38.8548 54.6714H37.0974V56.4288H38.8548V54.6714Z" fill="black"/>
<path d="M40.6121 54.6714H38.8547V56.4288H40.6121V54.6714Z" fill="black"/>
<path d="M47.6416 54.6714H45.8843V56.4288H47.6416V54.6714Z" fill="black"/>
<path d="M49.399 54.6714H47.6416V56.4288H49.399V54.6714Z" fill="black"/>
<path d="M52.9139 54.6714H51.1565V56.4288H52.9139V54.6714Z" fill="black"/>
<path d="M56.4285 54.6714H54.6711V56.4288H56.4285V54.6714Z" fill="black"/>
<path d="M58.1858 54.6714H56.4285V56.4288H58.1858V54.6714Z" fill="black"/>
<path d="M59.9432 54.6714H58.1858V56.4288H59.9432V54.6714Z" fill="black"/>
<path d="M61.7007 54.6714H59.9434V56.4288H61.7007V54.6714Z" fill="black"/>
<path d="M65.2154 54.6714H63.458V56.4288H65.2154V54.6714Z" fill="black"/>
<path d="M68.73 54.6714H66.9727V56.4288H68.73V54.6714Z" fill="black"/>
<path d="M70.4873 54.6714H68.73V56.4288H70.4873V54.6714Z" fill="black"/>
<path d="M74.0022 54.6714H72.2449V56.4288H74.0022V54.6714Z" fill="black"/>
<path d="M75.7596 54.6714H74.0022V56.4288H75.7596V54.6714Z" fill="black"/>
<path d="M77.5169 54.6714H75.7595V56.4288H77.5169V54.6714Z" fill="black"/>
<path d="M82.7891 54.6714H81.0317V56.4288H82.7891V54.6714Z" fill="black"/>
<path d="M84.5464 54.6714H82.7891V56.4288H84.5464V54.6714Z" fill="black"/>
<path d="M86.3038 54.6714H84.5464V56.4288H86.3038V54.6714Z" fill="black"/>
<path d="M89.8186 54.6714H88.0613V56.4288H89.8186V54.6714Z" fill="black"/>
<path d="M93.3333 54.6714H91.5759V56.4288H93.3333V54.6714Z" fill="black"/>
<path d="M10.7369 56.4287H8.97949V58.1861H10.7369V56.4287Z" fill="black"/>
<path d="M16.0091 56.4287H14.2517V58.1861H16.0091V56.4287Z" fill="black"/>
<path d="M17.7664 56.4287H16.009V58.1861H17.7664V56.4287Z" fill="black"/>
<path d="M19.5237 56.4287H17.7664V58.1861H19.5237V56.4287Z" fill="black"/>
<path d="M23.0384 56.4287H21.281V58.1861H23.0384V56.4287Z" fill="black"/>
<path d="M24.7959 56.4287H23.0386V58.1861H24.7959V56.4287Z" fill="black"/>
<path d="M26.5533 56.4287H24.7959V58.1861H26.5533V56.4287Z" fill="black"/>
<path d="M28.3106 56.4287H26.5532V58.1861H28.3106V56.4287Z" fill="black"/>
<path d="M31.8252 56.4287H30.0679V58.1861H31.8252V56.4287Z" fill="black"/>
<path d="M40.6121 56.4287H38.8547V58.1861H40.6121V56.4287Z" fill="black"/>
<path d="M42.3697 56.4287H40.6123V58.1861H42.3697V56.4287Z" fill="black"/>
<path d="M45.8843 56.4287H44.127V58.1861H45.8843V56.4287Z" fill="black"/>
<path d="M47.6416 56.4287H45.8843V58.1861H47.6416V56.4287Z" fill="black"/>
<path d="M52.9139 56.4287H51.1565V58.1861H52.9139V56.4287Z" fill="black"/>
<path d="M54.6712 56.4287H52.9138V58.1861H54.6712V56.4287Z" fill="black"/>
<path d="M56.4285 56.4287H54.6711V58.1861H56.4285V56.4287Z" fill="black"/>
<path d="M59.9432 56.4287H58.1858V58.1861H59.9432V56.4287Z" fill="black"/>
<path d="M65.2154 56.4287H63.458V58.1861H65.2154V56.4287Z" fill="black"/>
<path d="M66.9727 56.4287H65.2153V58.1861H66.9727V56.4287Z" fill="black"/>
<path d="M68.73 56.4287H66.9727V58.1861H68.73V56.4287Z" fill="black"/>
<path d="M74.0022 56.4287H72.2449V58.1861H74.0022V56.4287Z" fill="black"/>
<path d="M82.7891 56.4287H81.0317V58.1861H82.7891V56.4287Z" fill="black"/>
<path d="M86.3038 56.4287H84.5464V58.1861H86.3038V56.4287Z" fill="black"/>
<path d="M88.0611 56.4287H86.3037V58.1861H88.0611V56.4287Z" fill="black"/>
<path d="M91.576 56.4287H89.8186V58.1861H91.576V56.4287Z" fill="black"/>
<path d="M93.3333 56.4287H91.5759V58.1861H93.3333V56.4287Z" fill="black"/>
<path d="M10.7369 58.186H8.97949V59.9434H10.7369V58.186Z" fill="black"/>
<path d="M12.4942 58.186H10.7368V59.9434H12.4942V58.186Z" fill="black"/>
<path d="M17.7664 58.186H16.009V59.9434H17.7664V58.186Z" fill="black"/>
<path d="M23.0384 58.186H21.281V59.9434H23.0384V58.186Z" fill="black"/>
<path d="M26.5533 58.186H24.7959V59.9434H26.5533V58.186Z" fill="black"/>
<path d="M31.8252 58.186H30.0679V59.9434H31.8252V58.186Z" fill="black"/>
<path d="M35.3401 58.186H33.5828V59.9434H35.3401V58.186Z" fill="black"/>
<path d="M42.3697 58.186H40.6123V59.9434H42.3697V58.186Z" fill="black"/>
<path d="M47.6416 58.186H45.8843V59.9434H47.6416V58.186Z" fill="black"/>
<path d="M51.1563 58.186H49.3989V59.9434H51.1563V58.186Z" fill="black"/>
<path d="M52.9139 58.186H51.1565V59.9434H52.9139V58.186Z" fill="black"/>
<path d="M54.6712 58.186H52.9138V59.9434H54.6712V58.186Z" fill="black"/>
<path d="M58.1858 58.186H56.4285V59.9434H58.1858V58.186Z" fill="black"/>
<path d="M61.7007 58.186H59.9434V59.9434H61.7007V58.186Z" fill="black"/>
<path d="M63.4581 58.186H61.7007V59.9434H63.4581V58.186Z" fill="black"/>
<path d="M65.2154 58.186H63.458V59.9434H65.2154V58.186Z" fill="black"/>
<path d="M66.9727 58.186H65.2153V59.9434H66.9727V58.186Z" fill="black"/>
<path d="M70.4873 58.186H68.73V59.9434H70.4873V58.186Z" fill="black"/>
<path d="M74.0022 58.186H72.2449V59.9434H74.0022V58.186Z" fill="black"/>
<path d="M77.5169 58.186H75.7595V59.9434H77.5169V58.186Z" fill="black"/>
<path d="M81.0318 58.186H79.2744V59.9434H81.0318V58.186Z" fill="black"/>
<path d="M84.5464 58.186H82.7891V59.9434H84.5464V58.186Z" fill="black"/>
<path d="M86.3038 58.186H84.5464V59.9434H86.3038V58.186Z" fill="black"/>
<path d="M88.0611 58.186H86.3037V59.9434H88.0611V58.186Z" fill="black"/>
<path d="M89.8186 58.186H88.0613V59.9434H89.8186V58.186Z" fill="black"/>
<path d="M8.97954 59.9436H7.22217V61.701H8.97954V59.9436Z" fill="black"/>
<path d="M17.7664 59.9436H16.009V61.701H17.7664V59.9436Z" fill="black"/>
<path d="M19.5237 59.9436H17.7664V61.701H19.5237V59.9436Z" fill="black"/>
<path d="M26.5533 59.9436H24.7959V61.701H26.5533V59.9436Z" fill="black"/>
<path d="M31.8252 59.9436H30.0679V61.701H31.8252V59.9436Z" fill="black"/>
<path d="M35.3401 59.9436H33.5828V61.701H35.3401V59.9436Z" fill="black"/>
<path d="M38.8548 59.9436H37.0974V61.701H38.8548V59.9436Z" fill="black"/>
<path d="M42.3697 59.9436H40.6123V61.701H42.3697V59.9436Z" fill="black"/>
<path d="M45.8843 59.9436H44.127V61.701H45.8843V59.9436Z" fill="black"/>
<path d="M51.1563 59.9436H49.3989V61.701H51.1563V59.9436Z" fill="black"/>
<path d="M56.4285 59.9436H54.6711V61.701H56.4285V59.9436Z" fill="black"/>
<path d="M59.9432 59.9436H58.1858V61.701H59.9432V59.9436Z" fill="black"/>
<path d="M63.4581 59.9436H61.7007V61.701H63.4581V59.9436Z" fill="black"/>
<path d="M65.2154 59.9436H63.458V61.701H65.2154V59.9436Z" fill="black"/>
<path d="M68.73 59.9436H66.9727V61.701H68.73V59.9436Z" fill="black"/>
<path d="M70.4873 59.9436H68.73V61.701H70.4873V59.9436Z" fill="black"/>
<path d="M72.2449 59.9436H70.4875V61.701H72.2449V59.9436Z" fill="black"/>
<path d="M74.0022 59.9436H72.2449V61.701H74.0022V59.9436Z" fill="black"/>
<path d="M75.7596 59.9436H74.0022V61.701H75.7596V59.9436Z" fill="black"/>
<path d="M77.5169 59.9436H75.7595V61.701H77.5169V59.9436Z" fill="black"/>
<path d="M84.5464 59.9436H82.7891V61.701H84.5464V59.9436Z" fill="black"/>
<path d="M91.576 59.9436H89.8186V61.701H91.576V59.9436Z" fill="black"/>
<path d="M93.3333 59.9436H91.5759V61.701H93.3333V59.9436Z" fill="black"/>
<path d="M8.97954 61.7009H7.22217V63.4583H8.97954V61.7009Z" fill="black"/>
<path d="M12.4942 61.7009H10.7368V63.4583H12.4942V61.7009Z" fill="black"/>
<path d="M16.0091 61.7009H14.2517V63.4583H16.0091V61.7009Z" fill="black"/>
<path d="M21.2811 61.7009H19.5237V63.4583H21.2811V61.7009Z" fill="black"/>
<path d="M24.7959 61.7009H23.0386V63.4583H24.7959V61.7009Z" fill="black"/>
<path d="M26.5533 61.7009H24.7959V63.4583H26.5533V61.7009Z" fill="black"/>
<path d="M30.0679 61.7009H28.3105V63.4583H30.0679V61.7009Z" fill="black"/>
<path d="M38.8548 61.7009H37.0974V63.4583H38.8548V61.7009Z" fill="black"/>
<path d="M40.6121 61.7009H38.8547V63.4583H40.6121V61.7009Z" fill="black"/>
<path d="M45.8843 61.7009H44.127V63.4583H45.8843V61.7009Z" fill="black"/>
<path d="M52.9139 61.7009H51.1565V63.4583H52.9139V61.7009Z" fill="black"/>
<path d="M54.6712 61.7009H52.9138V63.4583H54.6712V61.7009Z" fill="black"/>
<path d="M56.4285 61.7009H54.6711V63.4583H56.4285V61.7009Z" fill="black"/>
<path d="M61.7007 61.7009H59.9434V63.4583H61.7007V61.7009Z" fill="black"/>
<path d="M63.4581 61.7009H61.7007V63.4583H63.4581V61.7009Z" fill="black"/>
<path d="M65.2154 61.7009H63.458V63.4583H65.2154V61.7009Z" fill="black"/>
<path d="M66.9727 61.7009H65.2153V63.4583H66.9727V61.7009Z" fill="black"/>
<path d="M72.2449 61.7009H70.4875V63.4583H72.2449V61.7009Z" fill="black"/>
<path d="M74.0022 61.7009H72.2449V63.4583H74.0022V61.7009Z" fill="black"/>
<path d="M75.7596 61.7009H74.0022V63.4583H75.7596V61.7009Z" fill="black"/>
<path d="M79.2742 61.7009H77.5168V63.4583H79.2742V61.7009Z" fill="black"/>
<path d="M82.7891 61.7009H81.0317V63.4583H82.7891V61.7009Z" fill="black"/>
<path d="M88.0611 61.7009H86.3037V63.4583H88.0611V61.7009Z" fill="black"/>
<path d="M91.576 61.7009H89.8186V63.4583H91.576V61.7009Z" fill="black"/>
<path d="M17.7664 63.4583H16.009V65.2156H17.7664V63.4583Z" fill="black"/>
<path d="M19.5237 63.4583H17.7664V65.2156H19.5237V63.4583Z" fill="black"/>
<path d="M31.8252 63.4583H30.0679V65.2156H31.8252V63.4583Z" fill="black"/>
<path d="M33.5828 63.4583H31.8254V65.2156H33.5828V63.4583Z" fill="black"/>
<path d="M35.3401 63.4583H33.5828V65.2156H35.3401V63.4583Z" fill="black"/>
<path d="M38.8548 63.4583H37.0974V65.2156H38.8548V63.4583Z" fill="black"/>
<path d="M42.3697 63.4583H40.6123V65.2156H42.3697V63.4583Z" fill="black"/>
<path d="M45.8843 63.4583H44.127V65.2156H45.8843V63.4583Z" fill="black"/>
<path d="M47.6416 63.4583H45.8843V65.2156H47.6416V63.4583Z" fill="black"/>
<path d="M51.1563 63.4583H49.3989V65.2156H51.1563V63.4583Z" fill="black"/>
<path d="M52.9139 63.4583H51.1565V65.2156H52.9139V63.4583Z" fill="black"/>
<path d="M65.2154 63.4583H63.458V65.2156H65.2154V63.4583Z" fill="black"/>
<path d="M66.9727 63.4583H65.2153V65.2156H66.9727V63.4583Z" fill="black"/>
<path d="M70.4873 63.4583H68.73V65.2156H70.4873V63.4583Z" fill="black"/>
<path d="M74.0022 63.4583H72.2449V65.2156H74.0022V63.4583Z" fill="black"/>
<path d="M75.7596 63.4583H74.0022V65.2156H75.7596V63.4583Z" fill="black"/>
<path d="M77.5169 63.4583H75.7595V65.2156H77.5169V63.4583Z" fill="black"/>
<path d="M81.0318 63.4583H79.2744V65.2156H81.0318V63.4583Z" fill="black"/>
<path d="M82.7891 63.4583H81.0317V65.2156H82.7891V63.4583Z" fill="black"/>
<path d="M88.0611 63.4583H86.3037V65.2156H88.0611V63.4583Z" fill="black"/>
<path d="M89.8186 63.4583H88.0613V65.2156H89.8186V63.4583Z" fill="black"/>
<path d="M91.576 63.4583H89.8186V65.2156H91.576V63.4583Z" fill="black"/>
<path d="M93.3333 63.4583H91.5759V65.2156H93.3333V63.4583Z" fill="black"/>
<path d="M8.97954 65.2156H7.22217V66.9729H8.97954V65.2156Z" fill="black"/>
<path d="M10.7369 65.2156H8.97949V66.9729H10.7369V65.2156Z" fill="black"/>
<path d="M12.4942 65.2156H10.7368V66.9729H12.4942V65.2156Z" fill="black"/>
<path d="M16.0091 65.2156H14.2517V66.9729H16.0091V65.2156Z" fill="black"/>
<path d="M23.0384 65.2156H21.281V66.9729H23.0384V65.2156Z" fill="black"/>
<path d="M26.5533 65.2156H24.7959V66.9729H26.5533V65.2156Z" fill="black"/>
<path d="M28.3106 65.2156H26.5532V66.9729H28.3106V65.2156Z" fill="black"/>
<path d="M31.8252 65.2156H30.0679V66.9729H31.8252V65.2156Z" fill="black"/>
<path d="M35.3401 65.2156H33.5828V66.9729H35.3401V65.2156Z" fill="black"/>
<path d="M38.8548 65.2156H37.0974V66.9729H38.8548V65.2156Z" fill="black"/>
<path d="M40.6121 65.2156H38.8547V66.9729H40.6121V65.2156Z" fill="black"/>
<path d="M42.3697 65.2156H40.6123V66.9729H42.3697V65.2156Z" fill="black"/>
<path d="M45.8843 65.2156H44.127V66.9729H45.8843V65.2156Z" fill="black"/>
<path d="M49.399 65.2156H47.6416V66.9729H49.399V65.2156Z" fill="black"/>
<path d="M52.9139 65.2156H51.1565V66.9729H52.9139V65.2156Z" fill="black"/>
<path d="M59.9432 65.2156H58.1858V66.9729H59.9432V65.2156Z" fill="black"/>
<path d="M61.7007 65.2156H59.9434V66.9729H61.7007V65.2156Z" fill="black"/>
<path d="M68.73 65.2156H66.9727V66.9729H68.73V65.2156Z" fill="black"/>
<path d="M74.0022 65.2156H72.2449V66.9729H74.0022V65.2156Z" fill="black"/>
<path d="M77.5169 65.2156H75.7595V66.9729H77.5169V65.2156Z" fill="black"/>
<path d="M81.0318 65.2156H79.2744V66.9729H81.0318V65.2156Z" fill="black"/>
<path d="M89.8186 65.2156H88.0613V66.9729H89.8186V65.2156Z" fill="black"/>
<path d="M91.576 65.2156H89.8186V66.9729H91.576V65.2156Z" fill="black"/>
<path d="M93.3333 65.2156H91.5759V66.9729H93.3333V65.2156Z" fill="black"/>
<path d="M14.2515 66.9729H12.4941V68.7303H14.2515V66.9729Z" fill="black"/>
<path d="M17.7664 66.9729H16.009V68.7303H17.7664V66.9729Z" fill="black"/>
<path d="M19.5237 66.9729H17.7664V68.7303H19.5237V66.9729Z" fill="black"/>
<path d="M21.2813 66.9729H19.5239V68.7303H21.2813V66.9729Z" fill="black"/>
<path d="M26.5533 66.9729H24.7959V68.7303H26.5533V66.9729Z" fill="black"/>
<path d="M28.3106 66.9729H26.5532V68.7303H28.3106V66.9729Z" fill="black"/>
<path d="M31.8255 66.9729H30.0681V68.7303H31.8255V66.9729Z" fill="black"/>
<path d="M44.1268 66.9729H42.3694V68.7303H44.1268V66.9729Z" fill="black"/>
<path d="M45.8843 66.9729H44.127V68.7303H45.8843V66.9729Z" fill="black"/>
<path d="M51.1565 66.9729H49.3992V68.7303H51.1565V66.9729Z" fill="black"/>
<path d="M52.9136 66.9729H51.1562V68.7303H52.9136V66.9729Z" fill="black"/>
<path d="M56.4285 66.9729H54.6711V68.7303H56.4285V66.9729Z" fill="black"/>
<path d="M63.4578 66.9729H61.7004V68.7303H63.4578V66.9729Z" fill="black"/>
<path d="M68.73 66.9729H66.9727V68.7303H68.73V66.9729Z" fill="black"/>
<path d="M74.0022 66.9729H72.2449V68.7303H74.0022V66.9729Z" fill="black"/>
<path d="M75.7596 66.9729H74.0022V68.7303H75.7596V66.9729Z" fill="black"/>
<path d="M77.5169 66.9729H75.7595V68.7303H77.5169V66.9729Z" fill="black"/>
<path d="M79.2745 66.9729H77.5171V68.7303H79.2745V66.9729Z" fill="black"/>
<path d="M81.0318 66.9729H79.2744V68.7303H81.0318V66.9729Z" fill="black"/>
<path d="M82.7889 66.9729H81.0315V68.7303H82.7889V66.9729Z" fill="black"/>
<path d="M88.0613 66.9729H86.304V68.7303H88.0613V66.9729Z" fill="black"/>
<path d="M89.8186 66.9729H88.0613V68.7303H89.8186V66.9729Z" fill="black"/>
<path d="M91.5757 66.9729H89.8184V68.7303H91.5757V66.9729Z" fill="black"/>
<path d="M14.2518 68.7305H12.4944V70.4878H14.2518V68.7305Z" fill="black"/>
<path d="M17.7664 68.7305H16.009V70.4878H17.7664V68.7305Z" fill="black"/>
<path d="M23.0384 68.7305H21.281V70.4878H23.0384V68.7305Z" fill="black"/>
<path d="M37.0975 68.7305H35.3401V70.4878H37.0975V68.7305Z" fill="black"/>
<path d="M44.127 68.7305H42.3696V70.4878H44.127V68.7305Z" fill="black"/>
<path d="M47.6416 68.7305H45.8843V70.4878H47.6416V68.7305Z" fill="black"/>
<path d="M58.1858 68.7305H56.4285V70.4878H58.1858V68.7305Z" fill="black"/>
<path d="M59.9432 68.7305H58.1858V70.4878H59.9432V68.7305Z" fill="black"/>
<path d="M65.2154 68.7305H63.458V70.4878H65.2154V68.7305Z" fill="black"/>
<path d="M68.73 68.7302H66.9727V70.4876H68.73V68.7302Z" fill="black"/>
<path d="M70.4873 68.7305H68.73V70.4878H70.4873V68.7305Z" fill="black"/>
<path d="M72.2449 68.7305H70.4875V70.4878H72.2449V68.7305Z" fill="black"/>
<path d="M84.5464 68.7305H82.7891V70.4878H84.5464V68.7305Z" fill="black"/>
<path d="M88.0611 68.7305H86.3037V70.4878H88.0611V68.7305Z" fill="black"/>
<path d="M91.576 68.7305H89.8186V70.4878H91.576V68.7305Z" fill="black"/>
<path d="M8.97954 70.4878H7.22217V72.2452H8.97954V70.4878Z" fill="black"/>
<path d="M16.0091 70.4878H14.2517V72.2452H16.0091V70.4878Z" fill="black"/>
<path d="M19.5237 70.4878H17.7664V72.2452H19.5237V70.4878Z" fill="black"/>
<path d="M28.3106 70.4878H26.5532V72.2452H28.3106V70.4878Z" fill="black"/>
<path d="M31.8252 70.4878H30.0679V72.2452H31.8252V70.4878Z" fill="black"/>
<path d="M33.5828 70.4878H31.8254V72.2452H33.5828V70.4878Z" fill="black"/>
<path d="M37.0975 70.4878H35.3401V72.2452H37.0975V70.4878Z" fill="black"/>
<path d="M38.8548 70.4878H37.0974V72.2452H38.8548V70.4878Z" fill="black"/>
<path d="M40.6121 70.4878H38.8547V72.2452H40.6121V70.4878Z" fill="black"/>
<path d="M49.399 70.4878H47.6416V72.2452H49.399V70.4878Z" fill="black"/>
<path d="M51.1563 70.4878H49.3989V72.2452H51.1563V70.4878Z" fill="black"/>
<path d="M63.4581 70.4878H61.7007V72.2452H63.4581V70.4878Z" fill="black"/>
<path d="M65.2154 70.4878H63.458V72.2452H65.2154V70.4878Z" fill="black"/>
<path d="M72.2449 70.4878H70.4875V72.2452H72.2449V70.4878Z" fill="black"/>
<path d="M77.5169 70.4878H75.7595V72.2452H77.5169V70.4878Z" fill="black"/>
<path d="M79.2742 70.4878H77.5168V72.2452H79.2742V70.4878Z" fill="black"/>
<path d="M82.7891 70.4878H81.0317V72.2452H82.7891V70.4878Z" fill="black"/>
<path d="M86.3038 70.4878H84.5464V72.2452H86.3038V70.4878Z" fill="black"/>
<path d="M93.3333 70.4878H91.5759V72.2452H93.3333V70.4878Z" fill="black"/>
<path d="M8.97954 72.2451H7.22217V74.0025H8.97954V72.2451Z" fill="black"/>
<path d="M10.7369 72.2451H8.97949V74.0025H10.7369V72.2451Z" fill="black"/>
<path d="M14.2518 72.2451H12.4944V74.0025H14.2518V72.2451Z" fill="black"/>
<path d="M17.7664 72.2451H16.009V74.0025H17.7664V72.2451Z" fill="black"/>
<path d="M21.2811 72.2451H19.5237V74.0025H21.2811V72.2451Z" fill="black"/>
<path d="M23.0384 72.2451H21.281V74.0025H23.0384V72.2451Z" fill="black"/>
<path d="M24.7959 72.2451H23.0386V74.0025H24.7959V72.2451Z" fill="black"/>
<path d="M26.5533 72.2451H24.7959V74.0025H26.5533V72.2451Z" fill="black"/>
<path d="M28.3106 72.2451H26.5532V74.0025H28.3106V72.2451Z" fill="black"/>
<path d="M31.8252 72.2451H30.0679V74.0025H31.8252V72.2451Z" fill="black"/>
<path d="M35.3401 72.2451H33.5828V74.0025H35.3401V72.2451Z" fill="black"/>
<path d="M37.0975 72.2451H35.3401V74.0025H37.0975V72.2451Z" fill="black"/>
<path d="M38.8548 72.2451H37.0974V74.0025H38.8548V72.2451Z" fill="black"/>
<path d="M40.6121 72.2451H38.8547V74.0025H40.6121V72.2451Z" fill="black"/>
<path d="M44.127 72.2451H42.3696V74.0025H44.127V72.2451Z" fill="black"/>
<path d="M49.399 72.2451H47.6416V74.0025H49.399V72.2451Z" fill="black"/>
<path d="M54.6712 72.2451H52.9138V74.0025H54.6712V72.2451Z" fill="black"/>
<path d="M58.1858 72.2451H56.4285V74.0025H58.1858V72.2451Z" fill="black"/>
<path d="M59.9432 72.2451H58.1858V74.0025H59.9432V72.2451Z" fill="black"/>
<path d="M66.9727 72.2451H65.2153V74.0025H66.9727V72.2451Z" fill="black"/>
<path d="M70.4873 72.2451H68.73V74.0025H70.4873V72.2451Z" fill="black"/>
<path d="M75.7596 72.2451H74.0022V74.0025H75.7596V72.2451Z" fill="black"/>
<path d="M77.5169 72.2451H75.7595V74.0025H77.5169V72.2451Z" fill="black"/>
<path d="M79.2742 72.2451H77.5168V74.0025H79.2742V72.2451Z" fill="black"/>
<path d="M86.3038 72.2451H84.5464V74.0025H86.3038V72.2451Z" fill="black"/>
<path d="M91.576 72.2451H89.8186V74.0025H91.576V72.2451Z" fill="black"/>
<path d="M10.7369 74.0024H8.97949V75.7598H10.7369V74.0024Z" fill="black"/>
<path d="M17.7664 74.0024H16.009V75.7598H17.7664V74.0024Z" fill="black"/>
<path d="M19.5237 74.0024H17.7664V75.7598H19.5237V74.0024Z" fill="black"/>
<path d="M21.2811 74.0024H19.5237V75.7598H21.2811V74.0024Z" fill="black"/>
<path d="M24.7959 74.0024H23.0386V75.7598H24.7959V74.0024Z" fill="black"/>
<path d="M30.0679 74.0024H28.3105V75.7598H30.0679V74.0024Z" fill="black"/>
<path d="M31.8252 74.0024H30.0679V75.7598H31.8252V74.0024Z" fill="black"/>
<path d="M35.3401 74.0024H33.5828V75.7598H35.3401V74.0024Z" fill="black"/>
<path d="M37.0975 74.0024H35.3401V75.7598H37.0975V74.0024Z" fill="black"/>
<path d="M40.6121 74.0024H38.8547V75.7598H40.6121V74.0024Z" fill="black"/>
<path d="M42.3697 74.0024H40.6123V75.7598H42.3697V74.0024Z" fill="black"/>
<path d="M45.8843 74.0024H44.127V75.7598H45.8843V74.0024Z" fill="black"/>
<path d="M47.6416 74.0024H45.8843V75.7598H47.6416V74.0024Z" fill="black"/>
<path d="M49.399 74.0024H47.6416V75.7598H49.399V74.0024Z" fill="black"/>
<path d="M51.1563 74.0024H49.3989V75.7598H51.1563V74.0024Z" fill="black"/>
<path d="M58.1858 74.0024H56.4285V75.7598H58.1858V74.0024Z" fill="black"/>
<path d="M61.7007 74.0024H59.9434V75.7598H61.7007V74.0024Z" fill="black"/>
<path d="M63.4581 74.0024H61.7007V75.7598H63.4581V74.0024Z" fill="black"/>
<path d="M72.2449 74.0024H70.4875V75.7598H72.2449V74.0024Z" fill="black"/>
<path d="M74.0022 74.0024H72.2449V75.7598H74.0022V74.0024Z" fill="black"/>
<path d="M77.5169 74.0024H75.7595V75.7598H77.5169V74.0024Z" fill="black"/>
<path d="M79.2742 74.0024H77.5168V75.7598H79.2742V74.0024Z" fill="black"/>
<path d="M84.5464 74.0024H82.7891V75.7598H84.5464V74.0024Z" fill="black"/>
<path d="M86.3038 74.0024H84.5464V75.7598H86.3038V74.0024Z" fill="black"/>
<path d="M89.8186 74.0024H88.0613V75.7598H89.8186V74.0024Z" fill="black"/>
<path d="M91.576 74.0024H89.8186V75.7598H91.576V74.0024Z" fill="black"/>
<path d="M10.7369 75.7598H8.97949V77.5171H10.7369V75.7598Z" fill="black"/>
<path d="M12.4942 75.7598H10.7368V77.5171H12.4942V75.7598Z" fill="black"/>
<path d="M14.2518 75.7598H12.4944V77.5171H14.2518V75.7598Z" fill="black"/>
<path d="M26.5533 75.7598H24.7959V77.5171H26.5533V75.7598Z" fill="black"/>
<path d="M33.5828 75.7598H31.8254V77.5171H33.5828V75.7598Z" fill="black"/>
<path d="M37.0975 75.7598H35.3401V77.5171H37.0975V75.7598Z" fill="black"/>
<path d="M38.8548 75.7598H37.0974V77.5171H38.8548V75.7598Z" fill="black"/>
<path d="M40.6121 75.7598H38.8547V77.5171H40.6121V75.7598Z" fill="black"/>
<path d="M42.3697 75.7598H40.6123V77.5171H42.3697V75.7598Z" fill="black"/>
<path d="M45.8843 75.7598H44.127V77.5171H45.8843V75.7598Z" fill="black"/>
<path d="M49.399 75.7598H47.6416V77.5171H49.399V75.7598Z" fill="black"/>
<path d="M58.1858 75.7598H56.4285V77.5171H58.1858V75.7598Z" fill="black"/>
<path d="M59.9432 75.7598H58.1858V77.5171H59.9432V75.7598Z" fill="black"/>
<path d="M61.7007 75.7598H59.9434V77.5171H61.7007V75.7598Z" fill="black"/>
<path d="M63.4581 75.7598H61.7007V77.5171H63.4581V75.7598Z" fill="black"/>
<path d="M65.2154 75.7598H63.458V77.5171H65.2154V75.7598Z" fill="black"/>
<path d="M68.73 75.7598H66.9727V77.5171H68.73V75.7598Z" fill="black"/>
<path d="M72.2449 75.7598H70.4875V77.5171H72.2449V75.7598Z" fill="black"/>
<path d="M75.7596 75.7598H74.0022V77.5171H75.7596V75.7598Z" fill="black"/>
<path d="M79.2742 75.7598H77.5168V77.5171H79.2742V75.7598Z" fill="black"/>
<path d="M81.0318 75.7598H79.2744V77.5171H81.0318V75.7598Z" fill="black"/>
<path d="M82.7891 75.7598H81.0317V77.5171H82.7891V75.7598Z" fill="black"/>
<path d="M84.5464 75.7598H82.7891V77.5171H84.5464V75.7598Z" fill="black"/>
<path d="M86.3038 75.7598H84.5464V77.5171H86.3038V75.7598Z" fill="black"/>
<path d="M89.8186 75.7598H88.0613V77.5171H89.8186V75.7598Z" fill="black"/>
<path d="M8.97954 77.5171H7.22217V79.2745H8.97954V77.5171Z" fill="black"/>
<path d="M10.7369 77.5171H8.97949V79.2745H10.7369V77.5171Z" fill="black"/>
<path d="M12.4942 77.5171H10.7368V79.2745H12.4942V77.5171Z" fill="black"/>
<path d="M19.5237 77.5171H17.7664V79.2745H19.5237V77.5171Z" fill="black"/>
<path d="M26.5533 77.5171H24.7959V79.2745H26.5533V77.5171Z" fill="black"/>
<path d="M30.0679 77.5171H28.3105V79.2745H30.0679V77.5171Z" fill="black"/>
<path d="M31.8252 77.5171H30.0679V79.2745H31.8252V77.5171Z" fill="black"/>
<path d="M35.3401 77.5171H33.5828V79.2745H35.3401V77.5171Z" fill="black"/>
<path d="M37.0975 77.5171H35.3401V79.2745H37.0975V77.5171Z" fill="black"/>
<path d="M38.8548 77.5171H37.0974V79.2745H38.8548V77.5171Z" fill="black"/>
<path d="M40.6121 77.5171H38.8547V79.2745H40.6121V77.5171Z" fill="black"/>
<path d="M45.8843 77.5171H44.127V79.2745H45.8843V77.5171Z" fill="black"/>
<path d="M47.6416 77.5171H45.8843V79.2745H47.6416V77.5171Z" fill="black"/>
<path d="M49.399 77.5171H47.6416V79.2745H49.399V77.5171Z" fill="black"/>
<path d="M51.1563 77.5171H49.3989V79.2745H51.1563V77.5171Z" fill="black"/>
<path d="M52.9139 77.5171H51.1565V79.2745H52.9139V77.5171Z" fill="black"/>
<path d="M54.6712 77.5171H52.9138V79.2745H54.6712V77.5171Z" fill="black"/>
<path d="M56.4285 77.5171H54.6711V79.2745H56.4285V77.5171Z" fill="black"/>
<path d="M58.1858 77.5171H56.4285V79.2745H58.1858V77.5171Z" fill="black"/>
<path d="M59.9432 77.5171H58.1858V79.2745H59.9432V77.5171Z" fill="black"/>
<path d="M61.7007 77.5171H59.9434V79.2745H61.7007V77.5171Z" fill="black"/>
<path d="M65.2154 77.5171H63.458V79.2745H65.2154V77.5171Z" fill="black"/>
<path d="M70.4873 77.5171H68.73V79.2745H70.4873V77.5171Z" fill="black"/>
<path d="M72.2449 77.5171H70.4875V79.2745H72.2449V77.5171Z" fill="black"/>
<path d="M74.0022 77.5171H72.2449V79.2745H74.0022V77.5171Z" fill="black"/>
<path d="M75.7596 77.5171H74.0022V79.2745H75.7596V77.5171Z" fill="black"/>
<path d="M77.5169 77.5171H75.7595V79.2745H77.5169V77.5171Z" fill="black"/>
<path d="M79.2742 77.5171H77.5168V79.2745H79.2742V77.5171Z" fill="black"/>
<path d="M81.0318 77.5171H79.2744V79.2745H81.0318V77.5171Z" fill="black"/>
<path d="M82.7891 77.5171H81.0317V79.2745H82.7891V77.5171Z" fill="black"/>
<path d="M84.5464 77.5171H82.7891V79.2745H84.5464V77.5171Z" fill="black"/>
<path d="M86.3038 77.5171H84.5464V79.2745H86.3038V77.5171Z" fill="black"/>
<path d="M91.576 77.5171H89.8186V79.2745H91.576V77.5171Z" fill="black"/>
<path d="M93.3333 77.5171H91.5759V79.2745H93.3333V77.5171Z" fill="black"/>
<path d="M23.0384 79.2747H21.281V81.032H23.0384V79.2747Z" fill="black"/>
<path d="M26.5533 79.2747H24.7959V81.032H26.5533V79.2747Z" fill="black"/>
<path d="M28.3106 79.2747H26.5532V81.032H28.3106V79.2747Z" fill="black"/>
<path d="M31.8252 79.2747H30.0679V81.032H31.8252V79.2747Z" fill="black"/>
<path d="M33.5828 79.2747H31.8254V81.032H33.5828V79.2747Z" fill="black"/>
<path d="M35.3401 79.2747H33.5828V81.032H35.3401V79.2747Z" fill="black"/>
<path d="M42.3697 79.2747H40.6123V81.032H42.3697V79.2747Z" fill="black"/>
<path d="M44.127 79.2747H42.3696V81.032H44.127V79.2747Z" fill="black"/>
<path d="M47.6416 79.2747H45.8843V81.032H47.6416V79.2747Z" fill="black"/>
<path d="M54.6712 79.2747H52.9138V81.032H54.6712V79.2747Z" fill="black"/>
<path d="M59.9432 79.2747H58.1858V81.032H59.9432V79.2747Z" fill="black"/>
<path d="M61.7007 79.2747H59.9434V81.032H61.7007V79.2747Z" fill="black"/>
<path d="M65.2154 79.2747H63.458V81.032H65.2154V79.2747Z" fill="black"/>
<path d="M68.73 79.2747H66.9727V81.032H68.73V79.2747Z" fill="black"/>
<path d="M77.5169 79.2747H75.7595V81.032H77.5169V79.2747Z" fill="black"/>
<path d="M79.2742 79.2747H77.5168V81.032H79.2742V79.2747Z" fill="black"/>
<path d="M86.3038 79.2747H84.5464V81.032H86.3038V79.2747Z" fill="black"/>
<path d="M88.0611 79.2747H86.3037V81.032H88.0611V79.2747Z" fill="black"/>
<path d="M89.8186 79.2747H88.0613V81.032H89.8186V79.2747Z" fill="black"/>
<path d="M8.97954 81.032H7.22217V82.7894H8.97954V81.032Z" fill="black"/>
<path d="M10.7369 81.032H8.97949V82.7894H10.7369V81.032Z" fill="black"/>
<path d="M12.4942 81.032H10.7368V82.7894H12.4942V81.032Z" fill="black"/>
<path d="M14.2518 81.032H12.4944V82.7894H14.2518V81.032Z" fill="black"/>
<path d="M16.0091 81.032H14.2517V82.7894H16.0091V81.032Z" fill="black"/>
<path d="M17.7664 81.032H16.009V82.7894H17.7664V81.032Z" fill="black"/>
<path d="M19.5237 81.032H17.7664V82.7894H19.5237V81.032Z" fill="black"/>
<path d="M23.0384 81.032H21.281V82.7894H23.0384V81.032Z" fill="black"/>
<path d="M26.5533 81.032H24.7959V82.7894H26.5533V81.032Z" fill="black"/>
<path d="M28.3106 81.032H26.5532V82.7894H28.3106V81.032Z" fill="black"/>
<path d="M30.0679 81.032H28.3105V82.7894H30.0679V81.032Z" fill="black"/>
<path d="M35.3401 81.032H33.5828V82.7894H35.3401V81.032Z" fill="black"/>
<path d="M38.8548 81.032H37.0974V82.7894H38.8548V81.032Z" fill="black"/>
<path d="M45.8843 81.032H44.127V82.7894H45.8843V81.032Z" fill="black"/>
<path d="M47.6416 81.032H45.8843V82.7894H47.6416V81.032Z" fill="black"/>
<path d="M51.1563 81.032H49.3989V82.7894H51.1563V81.032Z" fill="black"/>
<path d="M54.6712 81.032H52.9138V82.7894H54.6712V81.032Z" fill="black"/>
<path d="M56.4285 81.032H54.6711V82.7894H56.4285V81.032Z" fill="black"/>
<path d="M65.2154 81.032H63.458V82.7894H65.2154V81.032Z" fill="black"/>
<path d="M68.73 81.032H66.9727V82.7894H68.73V81.032Z" fill="black"/>
<path d="M72.2449 81.032H70.4875V82.7894H72.2449V81.032Z" fill="black"/>
<path d="M75.7596 81.032H74.0022V82.7894H75.7596V81.032Z" fill="black"/>
<path d="M79.2742 81.032H77.5168V82.7894H79.2742V81.032Z" fill="black"/>
<path d="M82.7891 81.032H81.0317V82.7894H82.7891V81.032Z" fill="black"/>
<path d="M86.3038 81.032H84.5464V82.7894H86.3038V81.032Z" fill="black"/>
<path d="M88.0611 81.032H86.3037V82.7894H88.0611V81.032Z" fill="black"/>
<path d="M91.576 81.032H89.8186V82.7894H91.576V81.032Z" fill="black"/>
<path d="M93.3333 81.032H91.5759V82.7894H93.3333V81.032Z" fill="black"/>
<path d="M8.97954 82.7893H7.22217V84.5467H8.97954V82.7893Z" fill="black"/>
<path d="M19.5237 82.7893H17.7664V84.5467H19.5237V82.7893Z" fill="black"/>
<path d="M24.7959 82.7893H23.0386V84.5467H24.7959V82.7893Z" fill="black"/>
<path d="M31.8252 82.7893H30.0679V84.5467H31.8252V82.7893Z" fill="black"/>
<path d="M33.5828 82.7893H31.8254V84.5467H33.5828V82.7893Z" fill="black"/>
<path d="M37.0975 82.7893H35.3401V84.5467H37.0975V82.7893Z" fill="black"/>
<path d="M38.8548 82.7893H37.0974V84.5467H38.8548V82.7893Z" fill="black"/>
<path d="M47.6416 82.7893H45.8843V84.5467H47.6416V82.7893Z" fill="black"/>
<path d="M54.6712 82.7893H52.9138V84.5467H54.6712V82.7893Z" fill="black"/>
<path d="M56.4285 82.7893H54.6711V84.5467H56.4285V82.7893Z" fill="black"/>
<path d="M59.9432 82.7893H58.1858V84.5467H59.9432V82.7893Z" fill="black"/>
<path d="M63.4581 82.7893H61.7007V84.5467H63.4581V82.7893Z" fill="black"/>
<path d="M65.2154 82.7893H63.458V84.5467H65.2154V82.7893Z" fill="black"/>
<path d="M66.9727 82.7893H65.2153V84.5467H66.9727V82.7893Z" fill="black"/>
<path d="M70.4873 82.7893H68.73V84.5467H70.4873V82.7893Z" fill="black"/>
<path d="M72.2449 82.7893H70.4875V84.5467H72.2449V82.7893Z" fill="black"/>
<path d="M74.0022 82.7893H72.2449V84.5467H74.0022V82.7893Z" fill="black"/>
<path d="M75.7596 82.7893H74.0022V84.5467H75.7596V82.7893Z" fill="black"/>
<path d="M77.5169 82.7893H75.7595V84.5467H77.5169V82.7893Z" fill="black"/>
<path d="M79.2742 82.7893H77.5168V84.5467H79.2742V82.7893Z" fill="black"/>
<path d="M86.3038 82.7893H84.5464V84.5467H86.3038V82.7893Z" fill="black"/>
<path d="M89.8186 82.7893H88.0613V84.5467H89.8186V82.7893Z" fill="black"/>
<path d="M91.576 82.7893H89.8186V84.5467H91.576V82.7893Z" fill="black"/>
<path d="M8.97954 84.5466H7.22217V86.304H8.97954V84.5466Z" fill="black"/>
<path d="M12.4942 84.5466H10.7368V86.304H12.4942V84.5466Z" fill="black"/>
<path d="M14.2518 84.5466H12.4944V86.304H14.2518V84.5466Z" fill="black"/>
<path d="M16.0091 84.5466H14.2517V86.304H16.0091V84.5466Z" fill="black"/>
<path d="M19.5237 84.5466H17.7664V86.304H19.5237V84.5466Z" fill="black"/>
<path d="M23.0384 84.5466H21.281V86.304H23.0384V84.5466Z" fill="black"/>
<path d="M26.5533 84.5466H24.7959V86.304H26.5533V84.5466Z" fill="black"/>
<path d="M30.0679 84.5466H28.3105V86.304H30.0679V84.5466Z" fill="black"/>
<path d="M33.5828 84.5466H31.8254V86.304H33.5828V84.5466Z" fill="black"/>
<path d="M37.0975 84.5466H35.3401V86.304H37.0975V84.5466Z" fill="black"/>
<path d="M40.6121 84.5466H38.8547V86.304H40.6121V84.5466Z" fill="black"/>
<path d="M47.6416 84.5466H45.8843V86.304H47.6416V84.5466Z" fill="black"/>
<path d="M49.399 84.5466H47.6416V86.304H49.399V84.5466Z" fill="black"/>
<path d="M51.1563 84.5466H49.3989V86.304H51.1563V84.5466Z" fill="black"/>
<path d="M52.9139 84.5466H51.1565V86.304H52.9139V84.5466Z" fill="black"/>
<path d="M54.6712 84.5466H52.9138V86.304H54.6712V84.5466Z" fill="black"/>
<path d="M58.1858 84.5466H56.4285V86.304H58.1858V84.5466Z" fill="black"/>
<path d="M61.7007 84.5466H59.9434V86.304H61.7007V84.5466Z" fill="black"/>
<path d="M65.2154 84.5466H63.458V86.304H65.2154V84.5466Z" fill="black"/>
<path d="M70.4873 84.5466H68.73V86.304H70.4873V84.5466Z" fill="black"/>
<path d="M72.2449 84.5466H70.4875V86.304H72.2449V84.5466Z" fill="black"/>
<path d="M74.0022 84.5466H72.2449V86.304H74.0022V84.5466Z" fill="black"/>
<path d="M75.7596 84.5466H74.0022V86.304H75.7596V84.5466Z" fill="black"/>
<path d="M77.5169 84.5466H75.7595V86.304H77.5169V84.5466Z" fill="black"/>
<path d="M79.2742 84.5466H77.5168V86.304H79.2742V84.5466Z" fill="black"/>
<path d="M81.0318 84.5466H79.2744V86.304H81.0318V84.5466Z" fill="black"/>
<path d="M82.7891 84.5466H81.0317V86.304H82.7891V84.5466Z" fill="black"/>
<path d="M84.5464 84.5466H82.7891V86.304H84.5464V84.5466Z" fill="black"/>
<path d="M86.3038 84.5466H84.5464V86.304H86.3038V84.5466Z" fill="black"/>
<path d="M88.0611 84.5466H86.3037V86.304H88.0611V84.5466Z" fill="black"/>
<path d="M89.8186 84.5466H88.0613V86.304H89.8186V84.5466Z" fill="black"/>
<path d="M91.576 84.5466H89.8186V86.304H91.576V84.5466Z" fill="black"/>
<path d="M93.3333 84.5466H91.5759V86.304H93.3333V84.5466Z" fill="black"/>
<path d="M8.97954 86.304H7.22217V88.0613H8.97954V86.304Z" fill="black"/>
<path d="M12.4942 86.304H10.7368V88.0613H12.4942V86.304Z" fill="black"/>
<path d="M14.2518 86.304H12.4944V88.0613H14.2518V86.304Z" fill="black"/>
<path d="M16.0091 86.304H14.2517V88.0613H16.0091V86.304Z" fill="black"/>
<path d="M19.5237 86.304H17.7664V88.0613H19.5237V86.304Z" fill="black"/>
<path d="M23.0384 86.304H21.281V88.0613H23.0384V86.304Z" fill="black"/>
<path d="M26.5533 86.304H24.7959V88.0613H26.5533V86.304Z" fill="black"/>
<path d="M31.8252 86.304H30.0679V88.0613H31.8252V86.304Z" fill="black"/>
<path d="M35.3401 86.304H33.5828V88.0613H35.3401V86.304Z" fill="black"/>
<path d="M42.3697 86.304H40.6123V88.0613H42.3697V86.304Z" fill="black"/>
<path d="M44.127 86.304H42.3696V88.0613H44.127V86.304Z" fill="black"/>
<path d="M45.8843 86.304H44.127V88.0613H45.8843V86.304Z" fill="black"/>
<path d="M49.399 86.304H47.6416V88.0613H49.399V86.304Z" fill="black"/>
<path d="M52.9139 86.304H51.1565V88.0613H52.9139V86.304Z" fill="black"/>
<path d="M58.1858 86.304H56.4285V88.0613H58.1858V86.304Z" fill="black"/>
<path d="M61.7007 86.304H59.9434V88.0613H61.7007V86.304Z" fill="black"/>
<path d="M68.73 86.304H66.9727V88.0613H68.73V86.304Z" fill="black"/>
<path d="M70.4873 86.304H68.73V88.0613H70.4873V86.304Z" fill="black"/>
<path d="M74.0022 86.304H72.2449V88.0613H74.0022V86.304Z" fill="black"/>
<path d="M79.2742 86.304H77.5168V88.0613H79.2742V86.304Z" fill="black"/>
<path d="M82.7891 86.304H81.0317V88.0613H82.7891V86.304Z" fill="black"/>
<path d="M86.3038 86.304H84.5464V88.0613H86.3038V86.304Z" fill="black"/>
<path d="M88.0611 86.304H86.3037V88.0613H88.0611V86.304Z" fill="black"/>
<path d="M89.8186 86.304H88.0613V88.0613H89.8186V86.304Z" fill="black"/>
<path d="M91.576 86.304H89.8186V88.0613H91.576V86.304Z" fill="black"/>
<path d="M93.3333 86.304H91.5759V88.0613H93.3333V86.304Z" fill="black"/>
<path d="M8.97954 88.0615H7.22217V89.8189H8.97954V88.0615Z" fill="black"/>
<path d="M12.4942 88.0615H10.7368V89.8189H12.4942V88.0615Z" fill="black"/>
<path d="M14.2518 88.0615H12.4944V89.8189H14.2518V88.0615Z" fill="black"/>
<path d="M16.0091 88.0615H14.2517V89.8189H16.0091V88.0615Z" fill="black"/>
<path d="M19.5237 88.0615H17.7664V89.8189H19.5237V88.0615Z" fill="black"/>
<path d="M24.7959 88.0615H23.0386V89.8189H24.7959V88.0615Z" fill="black"/>
<path d="M26.5533 88.0615H24.7959V89.8189H26.5533V88.0615Z" fill="black"/>
<path d="M33.5828 88.0615H31.8254V89.8189H33.5828V88.0615Z" fill="black"/>
<path d="M35.3401 88.0615H33.5828V89.8189H35.3401V88.0615Z" fill="black"/>
<path d="M38.8548 88.0615H37.0974V89.8189H38.8548V88.0615Z" fill="black"/>
<path d="M47.6416 88.0615H45.8843V89.8189H47.6416V88.0615Z" fill="black"/>
<path d="M52.9139 88.0615H51.1565V89.8189H52.9139V88.0615Z" fill="black"/>
<path d="M54.6712 88.0615H52.9138V89.8189H54.6712V88.0615Z" fill="black"/>
<path d="M58.1858 88.0615H56.4285V89.8189H58.1858V88.0615Z" fill="black"/>
<path d="M61.7007 88.0615H59.9434V89.8189H61.7007V88.0615Z" fill="black"/>
<path d="M63.4581 88.0615H61.7007V89.8189H63.4581V88.0615Z" fill="black"/>
<path d="M65.2154 88.0615H63.458V89.8189H65.2154V88.0615Z" fill="black"/>
<path d="M66.9727 88.0615H65.2153V89.8189H66.9727V88.0615Z" fill="black"/>
<path d="M72.2449 88.0615H70.4875V89.8189H72.2449V88.0615Z" fill="black"/>
<path d="M74.0022 88.0615H72.2449V89.8189H74.0022V88.0615Z" fill="black"/>
<path d="M79.2742 88.0615H77.5168V89.8189H79.2742V88.0615Z" fill="black"/>
<path d="M86.3038 88.0615H84.5464V89.8189H86.3038V88.0615Z" fill="black"/>
<path d="M89.8186 88.0615H88.0613V89.8189H89.8186V88.0615Z" fill="black"/>
<path d="M91.576 88.0615H89.8186V89.8189H91.576V88.0615Z" fill="black"/>
<path d="M93.3333 88.0615H91.5759V89.8189H93.3333V88.0615Z" fill="black"/>
<path d="M8.97954 89.8188H7.22217V91.5762H8.97954V89.8188Z" fill="black"/>
<path d="M19.5237 89.8188H17.7664V91.5762H19.5237V89.8188Z" fill="black"/>
<path d="M24.7959 89.8188H23.0386V91.5762H24.7959V89.8188Z" fill="black"/>
<path d="M26.5533 89.8188H24.7959V91.5762H26.5533V89.8188Z" fill="black"/>
<path d="M28.3106 89.8188H26.5532V91.5762H28.3106V89.8188Z" fill="black"/>
<path d="M30.0679 89.8188H28.3105V91.5762H30.0679V89.8188Z" fill="black"/>
<path d="M33.5828 89.8188H31.8254V91.5762H33.5828V89.8188Z" fill="black"/>
<path d="M40.6121 89.8188H38.8547V91.5762H40.6121V89.8188Z" fill="black"/>
<path d="M42.3697 89.8188H40.6123V91.5762H42.3697V89.8188Z" fill="black"/>
<path d="M49.399 89.8188H47.6416V91.5762H49.399V89.8188Z" fill="black"/>
<path d="M56.4285 89.8188H54.6711V91.5762H56.4285V89.8188Z" fill="black"/>
<path d="M59.9432 89.8188H58.1858V91.5762H59.9432V89.8188Z" fill="black"/>
<path d="M63.4581 89.8188H61.7007V91.5762H63.4581V89.8188Z" fill="black"/>
<path d="M65.2154 89.8188H63.458V91.5762H65.2154V89.8188Z" fill="black"/>
<path d="M66.9727 89.8188H65.2153V91.5762H66.9727V89.8188Z" fill="black"/>
<path d="M68.73 89.8188H66.9727V91.5762H68.73V89.8188Z" fill="black"/>
<path d="M74.0022 89.8188H72.2449V91.5762H74.0022V89.8188Z" fill="black"/>
<path d="M82.7891 89.8188H81.0317V91.5762H82.7891V89.8188Z" fill="black"/>
<path d="M84.5464 89.8188H82.7891V91.5762H84.5464V89.8188Z" fill="black"/>
<path d="M86.3038 89.8188H84.5464V91.5762H86.3038V89.8188Z" fill="black"/>
<path d="M89.8186 89.8188H88.0613V91.5762H89.8186V89.8188Z" fill="black"/>
<path d="M8.97954 91.5762H7.22217V93.3335H8.97954V91.5762Z" fill="black"/>
<path d="M10.7369 91.5762H8.97949V93.3335H10.7369V91.5762Z" fill="black"/>
<path d="M12.4942 91.5762H10.7368V93.3335H12.4942V91.5762Z" fill="black"/>
<path d="M14.2518 91.5762H12.4944V93.3335H14.2518V91.5762Z" fill="black"/>
<path d="M16.0091 91.5762H14.2517V93.3335H16.0091V91.5762Z" fill="black"/>
<path d="M17.7664 91.5762H16.009V93.3335H17.7664V91.5762Z" fill="black"/>
<path d="M19.5237 91.5762H17.7664V93.3335H19.5237V91.5762Z" fill="black"/>
<path d="M24.7959 91.5762H23.0386V93.3335H24.7959V91.5762Z" fill="black"/>
<path d="M26.5533 91.5762H24.7959V93.3335H26.5533V91.5762Z" fill="black"/>
<path d="M28.3106 91.5762H26.5532V93.3335H28.3106V91.5762Z" fill="black"/>
<path d="M35.3401 91.5762H33.5828V93.3335H35.3401V91.5762Z" fill="black"/>
<path d="M38.8548 91.5762H37.0974V93.3335H38.8548V91.5762Z" fill="black"/>
<path d="M44.127 91.5762H42.3696V93.3335H44.127V91.5762Z" fill="black"/>
<path d="M45.8843 91.5762H44.127V93.3335H45.8843V91.5762Z" fill="black"/>
<path d="M47.6416 91.5762H45.8843V93.3335H47.6416V91.5762Z" fill="black"/>
<path d="M49.399 91.5762H47.6416V93.3335H49.399V91.5762Z" fill="black"/>
<path d="M54.6712 91.5762H52.9138V93.3335H54.6712V91.5762Z" fill="black"/>
<path d="M56.4285 91.5762H54.6711V93.3335H56.4285V91.5762Z" fill="black"/>
<path d="M61.7007 91.5762H59.9434V93.3335H61.7007V91.5762Z" fill="black"/>
<path d="M63.4581 91.5762H61.7007V93.3335H63.4581V91.5762Z" fill="black"/>
<path d="M65.2154 91.5762H63.458V93.3335H65.2154V91.5762Z" fill="black"/>
<path d="M74.0022 91.5762H72.2449V93.3335H74.0022V91.5762Z" fill="black"/>
<path d="M81.0318 91.5762H79.2744V93.3335H81.0318V91.5762Z" fill="black"/>
<path d="M86.3038 91.5762H84.5464V93.3335H86.3038V91.5762Z" fill="black"/>
<path d="M88.0611 91.5762H86.3037V93.3335H88.0611V91.5762Z" fill="black"/>
<path d="M89.8186 91.5762H88.0613V93.3335H89.8186V91.5762Z" fill="black"/>
<path d="M93.3333 91.5762H91.5759V93.3335H93.3333V91.5762Z" fill="black"/>
</g>
<defs>
<clipPath id="clip0_1595_122813">
<rect width="86.1111" height="86.1111" fill="white" transform="translate(7.22217 7.22241)"/>
</clipPath>
</defs>
</svg>
