<svg width="20" height="20" viewBox="0 0 20 20" fill="none" xmlns="http://www.w3.org/2000/svg">
<g id="coursera">
<circle id="Ellipse 640" cx="9.81352" cy="9.81389" r="9.81352" fill="#888B99"/>
<path id="Ellipse 639" d="M15.5069 6.46415C14.7673 5.34164 13.6763 4.48653 12.3989 4.0281C11.1215 3.56968 9.72717 3.53286 8.42662 3.92323C7.12607 4.31359 5.99007 5.1099 5.19036 6.19177C4.39066 7.27364 3.97074 8.58225 3.99409 9.91973C4.01743 11.2572 4.48278 12.5509 5.31977 13.6051C6.15676 14.6593 7.31989 15.4168 8.6333 15.763C9.9467 16.1092 11.339 16.0253 12.5996 15.524C13.8603 15.0227 14.9207 14.1312 15.6207 12.9844L13.0234 11.4501C12.6621 12.042 12.1149 12.502 11.4643 12.7607C10.8137 13.0195 10.0952 13.0628 9.41736 12.8841C8.73955 12.7054 8.1393 12.3145 7.70735 11.7705C7.2754 11.2264 7.03525 10.5588 7.0232 9.86856C7.01115 9.17832 7.22786 8.50299 7.64056 7.94466C8.05327 7.38634 8.63953 6.97538 9.3107 6.77393C9.98188 6.57247 10.7015 6.59147 11.3607 6.82805C12.0199 7.06463 12.5829 7.50593 12.9646 8.08523L15.5069 6.46415Z" fill="white"/>
</g>
</svg>
