<svg width="24" height="24" viewBox="0 0 24 24" fill="none" xmlns="http://www.w3.org/2000/svg">
<rect x="4.5" y="4.75" width="15" height="15" rx="1.5" stroke="#989898"/>
<rect x="1" y="1" width="22" height="22" rx="6" stroke="#989898" stroke-width="2"/>
<rect x="3" y="3" width="18" height="18" rx="4" fill="#989898"/>
<path fill-rule="evenodd" clip-rule="evenodd" d="M10.3148 15.858L7.13295 12.441C6.95568 12.253 6.95568 11.947 7.13295 11.757L7.77568 11.074C7.95295 10.886 8.24113 10.886 8.4184 11.074L10.6366 13.466L15.5811 8.141C15.7584 7.953 16.0465 7.953 16.2238 8.141L16.8665 8.825C17.0438 9.013 17.0438 9.32 16.8665 9.507L10.9575 15.858C10.7802 16.046 10.492 16.046 10.3148 15.858Z" fill="white"/>
</svg>
