<svg width="20" height="20" viewBox="0 0 20 20" fill="none" xmlns="http://www.w3.org/2000/svg">
<g id="netflix">
<g id="layer1">
<g id="g4182">
<g id="g5747">
<path id="path4155" d="M11.8746 0L11.8651 4.42316L11.8557 8.84632L11.4215 7.81951V7.81688L10.8584 17.6637C11.4121 18.9696 11.7078 19.6673 11.711 19.6699C11.7141 19.6725 12.0287 19.6883 12.4094 19.7041C13.5608 19.7515 14.9891 19.8542 16.0745 19.9674C16.3262 19.9937 16.5401 20.0069 16.5559 19.9964C16.5716 19.9858 16.5747 15.4837 16.5716 9.98897L16.5621 0H11.8746Z" fill="currentColor"/>
<path id="path4157" d="M3.42993 0.0026309V9.99417C3.42993 15.4898 3.43612 19.991 3.44541 19.9989C3.4547 20.0068 3.85401 19.9726 4.33691 19.9278C4.81981 19.8831 5.48534 19.8252 5.81656 19.8016C6.32422 19.7647 7.8472 19.6832 8.02055 19.6805C8.07318 19.6805 8.07627 19.4569 8.08246 15.4477L8.09175 11.2148L8.46011 12.0988C8.51583 12.2356 8.5344 12.2776 8.59012 12.4118L9.14422 2.57549C9.02659 2.294 9.0885 2.44132 8.95539 2.12037C8.50345 1.03388 8.11961 0.115752 8.10413 0.0736603L8.07318 0H3.42993V0.0026309Z" fill="currentColor"/>
<path id="path5715" d="M11.8746 0L11.8651 4.42316L11.8557 8.84632L11.4215 7.81951V7.81688L10.8584 17.6637C11.4121 18.9696 11.7078 19.6673 11.711 19.6699C11.7141 19.6725 12.0287 19.6883 12.4094 19.7041C13.5608 19.7515 14.9891 19.8542 16.0745 19.9674C16.3262 19.9937 16.5401 20.0069 16.5559 19.9964C16.5716 19.9858 16.5747 15.4837 16.5716 9.98897L16.5621 0H11.8746Z" fill="currentColor"/>
<path id="path5717" d="M3.42993 0.0026309V9.99417C3.42993 15.4898 3.43612 19.991 3.44541 19.9989C3.4547 20.0068 3.85401 19.9726 4.33691 19.9278C4.81981 19.8831 5.48534 19.8252 5.81656 19.8016C6.32422 19.7647 7.8472 19.6832 8.02055 19.6805C8.07318 19.6805 8.07627 19.4569 8.08246 15.4477L8.09175 11.2148L8.46011 12.0988C8.51583 12.2356 8.5344 12.2776 8.59012 12.4118L9.14422 2.57549C9.02659 2.294 9.0885 2.44132 8.95539 2.12037C8.50345 1.03388 8.11961 0.115752 8.10413 0.0736603L8.07318 0H3.42993V0.0026309Z" fill="currentColor"/>
<path id="path5719" d="M3.42993 0.00263092V5.6114L8.14466 16.0923C8.14466 15.8529 8.14466 15.7214 8.1478 15.4478L8.15722 11.2149L8.53075 12.0988C10.6025 17.0236 11.7168 19.6649 11.7231 19.6702C11.7262 19.6728 12.0401 19.6886 12.4199 19.7044C13.5688 19.7517 14.9939 19.8543 16.0768 19.9674C16.3279 19.9937 16.5414 20.0069 16.5571 19.9964C16.5665 19.9885 16.5728 17.7839 16.5728 14.6717L11.8832 3.36474L11.88 4.43545L11.8706 8.85512L11.4374 7.82913C11.0137 6.82681 10.7312 6.15597 9.02671 2.12039C8.56842 1.03389 8.17919 0.115753 8.1635 0.0736608L8.13211 0H3.42993V0.00263092Z" fill="url(#paint0_radial_1583_52436)"/>
<path id="path5721" d="M3.42993 0.00263092L8.16086 11.2228V11.2175L8.53493 12.1015C10.6128 17.0236 11.7287 19.6649 11.735 19.6702C11.7381 19.6728 12.0525 19.6886 12.4328 19.7044C13.5833 19.7517 15.0105 19.8543 16.095 19.9674C16.3433 19.9937 16.5602 20.0069 16.5728 19.9964L11.8827 8.85249V8.85512L11.4489 7.82913C11.0246 6.82681 10.7416 6.15597 9.03474 2.12039C8.5758 1.03389 8.18601 0.115753 8.17029 0.0736608L8.13885 0H5.78439L3.42993 0.00263092Z" fill="currentColor"/>
</g>
</g>
</g>
</g>
<defs>
<radialGradient id="paint0_radial_1583_52436" cx="0" cy="0" r="1" gradientUnits="userSpaceOnUse" gradientTransform="translate(9.78132 9.88402) rotate(-16.1842) scale(0.852282 27.0268)">
<stop/>
<stop offset="1" stop-opacity="0"/>
</radialGradient>
</defs>
</svg>
