<svg width="20" height="21" viewBox="0 0 20 21" fill="none" xmlns="http://www.w3.org/2000/svg">
<path d="M9.30095 3.3554C9.78798 2.51185 11.0055 2.51184 11.4926 3.3554L17.5196 13.7944C18.0066 14.638 17.3978 15.6924 16.4237 15.6924H4.36979C3.39573 15.6924 2.78695 14.638 3.27397 13.7944L9.30095 3.3554Z" fill="#4F6EFD"/>
<path d="M10.8372 5.94088L10.7539 12.0777H9.78664L9.70326 5.94088H10.8372ZM10.2702 14.5458C10.0646 14.5458 9.88809 14.4721 9.74078 14.3248C9.59347 14.1775 9.51982 14.001 9.51982 13.7953C9.51982 13.5897 9.59347 13.4132 9.74078 13.2659C9.88809 13.1186 10.0646 13.0449 10.2702 13.0449C10.4759 13.0449 10.6524 13.1186 10.7997 13.2659C10.947 13.4132 11.0207 13.5897 11.0207 13.7953C11.0207 13.9315 10.9859 14.0566 10.9164 14.1706C10.8497 14.2845 10.7594 14.3762 10.6455 14.4457C10.5343 14.5124 10.4092 14.5458 10.2702 14.5458Z" fill="white"/>
</svg>
