<svg width="20" height="16" viewBox="0 0 20 16" fill="none" xmlns="http://www.w3.org/2000/svg">
<path fill-rule="evenodd" clip-rule="evenodd" d="M17.5 14.9495C18.55 14.7995 19.4 13.9995 19.6 12.9495C19.8 11.7995 20 10.0995 20.05 7.99951C20.05 5.89951 19.8 4.19951 19.6 3.04951C19.4 1.99951 18.55 1.19951 17.5 1.04951C15.8 0.799512 13.1 0.499512 10 0.499512C6.9 0.499512 4.15 0.799512 2.5 1.04951C1.45 1.19951 0.6 1.99951 0.4 3.04951C0.2 4.19951 0 5.89951 0 7.99951C0 10.0995 0.2 11.7995 0.4 12.9495C0.6 13.9995 1.45 14.7995 2.5 14.9495C4.2 15.1995 6.95 15.4995 10 15.4995C13.1 15.4995 15.85 15.1995 17.5 14.9495ZM14 7.99951L8 4.49951V11.4995L14 7.99951Z" fill="currentColor"/>
</svg>
