<svg width="16" height="13" viewBox="0 0 16 13" fill="none" xmlns="http://www.w3.org/2000/svg">
<path d="M4.58241 9.41998C3.35241 8.54665 2.37908 7.41065 1.82908 6.69332C1.67528 6.4953 1.5918 6.25171 1.5918 6.00098C1.5918 5.75026 1.67528 5.50667 1.82908 5.30865C2.82441 4.00932 5.21241 1.33398 8.00041 1.33398C9.25108 1.33398 10.4204 1.87198 11.4204 2.58332" stroke="#4F6EFD" stroke-width="1.33333" stroke-linecap="round" stroke-linejoin="round"/>
<path d="M9.42033 4.59264C9.23519 4.40441 9.01462 4.25471 8.77133 4.15216C8.52805 4.04961 8.26687 3.99624 8.00286 3.99514C7.73884 3.99403 7.47723 4.04521 7.23309 4.14572C6.98896 4.24622 6.76714 4.39407 6.58043 4.58074C6.39372 4.7674 6.24582 4.98919 6.14525 5.2333C6.04469 5.47741 5.99345 5.73901 5.99449 6.00303C5.99554 6.26704 6.04884 6.52823 6.15134 6.77154C6.25383 7.01485 6.40348 7.23545 6.59166 7.42064M2.66699 11.3346L13.3337 0.667969M6.66699 10.4706C7.0998 10.5995 7.54876 10.6659 8.00033 10.668C10.7883 10.668 13.1763 7.99264 14.1717 6.6933C14.3254 6.49511 14.4088 6.25136 14.4087 6.00052C14.4086 5.74968 14.3249 5.50602 14.171 5.30797C13.8212 4.85163 13.4459 4.41538 13.047 4.0013" stroke="#4F6EFD" stroke-width="1.33333" stroke-linecap="round" stroke-linejoin="round"/>
</svg>
