<svg width="3" height="9" viewBox="0 0 3 9" fill="none" xmlns="http://www.w3.org/2000/svg">
<path d="M1.875 0.727273L1.80398 5.95455H0.980114L0.909091 0.727273H1.875ZM1.39205 8.05682C1.21686 8.05682 1.06652 7.99408 0.941051 7.86861C0.815578 7.74313 0.752841 7.5928 0.752841 7.41761C0.752841 7.24242 0.815578 7.09209 0.941051 6.96662C1.06652 6.84115 1.21686 6.77841 1.39205 6.77841C1.56723 6.77841 1.71757 6.84115 1.84304 6.96662C1.96851 7.09209 2.03125 7.24242 2.03125 7.41761C2.03125 7.53362 2.00166 7.64015 1.94247 7.73722C1.88565 7.83428 1.80871 7.91241 1.71165 7.97159C1.61695 8.02841 1.51042 8.05682 1.39205 8.05682Z" fill="#FB5353"/>
</svg>
