<svg width="16" height="17" viewBox="0 0 16 17" fill="none" xmlns="http://www.w3.org/2000/svg">
<path d="M8 0.5C3.584 0.5 0 4.084 0 8.5C0 12.916 3.584 16.5 8 16.5C12.416 16.5 16 12.916 16 8.5C16 4.084 12.416 0.5 8 0.5Z" fill="#989898"/>
<g clip-path="url(#clip0_16695_18077)">
<path d="M8 3.5C6.6215 3.5 5.5 4.6215 5.5 6V7.5H5C4.4485 7.5 4 7.9485 4 8.5V12.5C4 13.0515 4.4485 13.5 5 13.5H11C11.5515 13.5 12 13.0515 12 12.5V8.5C12 7.9485 11.5515 7.5 11 7.5H10.5V6C10.5 4.6215 9.3785 3.5 8 3.5ZM11 8.5L11.001 12.5H5V8.5H11ZM6.5 7.5V6C6.5 5.173 7.173 4.5 8 4.5C8.827 4.5 9.5 5.173 9.5 6V7.5H6.5Z" fill="white"/>
</g>
<defs>
<clipPath id="clip0_16695_18077">
<rect width="10" height="10" fill="white" transform="translate(3 3.5)"/>
</clipPath>
</defs>
</svg>
