<svg width="16" height="14" viewBox="0 0 16 14" fill="none" xmlns="http://www.w3.org/2000/svg">
    <path d="M6.25864 5.76953L15.3452 5.76953C15.4285 5.76953 15.4966 5.70625 15.4966 5.62891V4.64453C15.4966 4.56719 15.4285 4.50391 15.3452 4.50391L6.25864 4.50391C6.17535 4.50391 6.1072 4.56719 6.1072 4.64453V5.62891C6.1072 5.70625 6.17535 5.76953 6.25864 5.76953ZM6.1072 9.35547C6.1072 9.43281 6.17535 9.49609 6.25864 9.49609L15.3452 9.49609C15.4285 9.49609 15.4966 9.43281 15.4966 9.35547V8.37109C15.4966 8.29375 15.4285 8.23047 15.3452 8.23047L6.25864 8.23047C6.17535 8.23047 6.1072 8.29375 6.1072 8.37109V9.35547ZM15.6481 0.8125L0.806716 0.8125C0.723422 0.8125 0.655273 0.875781 0.655273 0.953125L0.655273 1.9375C0.655273 2.01484 0.723422 2.07812 0.806716 2.07812L15.6481 2.07812C15.7314 2.07812 15.7995 2.01484 15.7995 1.9375V0.953125C15.7995 0.875781 15.7314 0.8125 15.6481 0.8125ZM15.6481 11.9219L0.806716 11.9219C0.723422 11.9219 0.655273 11.9852 0.655273 12.0625L0.655273 13.0469C0.655273 13.1242 0.723422 13.1875 0.806716 13.1875L15.6481 13.1875C15.7314 13.1875 15.7995 13.1242 15.7995 13.0469V12.0625C15.7995 11.9852 15.7314 11.9219 15.6481 11.9219ZM1.23075 9.28691L4.18956 7.12305C4.20948 7.10851 4.22559 7.08995 4.23666 7.06879C4.24773 7.04763 4.25349 7.02441 4.25349 7.00088C4.25349 6.97735 4.24773 6.95413 4.23666 6.93296C4.22559 6.9118 4.20948 6.89325 4.18956 6.87871L1.23075 4.71309C1.12096 4.63223 0.958158 4.7043 0.958158 4.83437L0.958158 9.16387C0.958148 9.19322 0.967035 9.22199 0.983803 9.24688C1.00057 9.27178 1.02454 9.29178 1.05298 9.30462C1.08142 9.31745 1.11317 9.3226 1.1446 9.31947C1.17604 9.31634 1.2059 9.30506 1.23075 9.28691Z" fill="currentColor"/>
</svg>
