<svg width="25" height="24" viewBox="0 0 25 24" fill="none" xmlns="http://www.w3.org/2000/svg">
<path d="M12.5 0C5.876 0 0.5 5.376 0.5 12C0.5 18.624 5.876 24 12.5 24C19.124 24 24.5 18.624 24.5 12C24.5 5.376 19.124 0 12.5 0Z" fill="#989898"/>
<g clip-path="url(#clip0_16695_18047)">
<path d="M12.4993 4.5C10.4315 4.5 8.74927 6.18225 8.74927 8.25V10.5H7.99927C7.17202 10.5 6.49927 11.1727 6.49927 12V18C6.49927 18.8273 7.17202 19.5 7.99927 19.5H16.9993C17.8265 19.5 18.4993 18.8273 18.4993 18V12C18.4993 11.1727 17.8265 10.5 16.9993 10.5H16.2493V8.25C16.2493 6.18225 14.567 4.5 12.4993 4.5ZM16.9993 12L17.0008 18H7.99927V12H16.9993ZM10.2493 10.5V8.25C10.2493 7.0095 11.2588 6 12.4993 6C13.7398 6 14.7493 7.0095 14.7493 8.25V10.5H10.2493Z" fill="white"/>
</g>
<defs>
<clipPath id="clip0_16695_18047">
<rect width="15" height="15" fill="white" transform="translate(4.99976 4.5)"/>
</clipPath>
</defs>
</svg>
