<svg width="17" height="12" viewBox="0 0 17 12" fill="none" xmlns="http://www.w3.org/2000/svg">
    <path d="M10.3922 4.70615L1.28185 4.70615C1.19834 4.70615 1.13001 4.64631 1.13001 4.57317V3.6423C1.13001 3.56916 1.19834 3.50932 1.28185 3.50932L10.3922 3.50932C10.4757 3.50932 10.544 3.56916 10.544 3.6423V4.57317C10.544 4.64631 10.4757 4.70615 10.3922 4.70615ZM10.544 8.09718C10.544 8.17032 10.4757 8.23016 10.3922 8.23016L1.28185 8.23016C1.19834 8.23016 1.13001 8.17032 1.13001 8.09718V7.16631C1.13001 7.09317 1.19834 7.03333 1.28185 7.03333L10.3922 7.03333C10.4757 7.03333 10.544 7.09317 10.544 7.16631V8.09718ZM0.978173 0.0185547L15.8584 0.0185547C15.9419 0.0185547 16.0103 0.0783963 16.0103 0.151536V1.08241C16.0103 1.15555 15.9419 1.21539 15.8584 1.21539L0.978173 1.21539C0.894662 1.21539 0.826334 1.15555 0.826334 1.08241V0.151536C0.826334 0.0783963 0.894662 0.0185547 0.978173 0.0185547ZM0.978173 10.5241L15.8584 10.5241C15.9419 10.5241 16.0103 10.5839 16.0103 10.6571V11.5879C16.0103 11.6611 15.9419 11.7209 15.8584 11.7209L0.978173 11.7209C0.894662 11.7209 0.826334 11.6611 0.826334 11.5879V10.6571C0.826334 10.5839 0.894662 10.5241 0.978173 10.5241ZM15.4333 8.03235L12.4667 5.9861C12.4467 5.97235 12.4306 5.9548 12.4195 5.93479C12.4084 5.91478 12.4026 5.89282 12.4026 5.87057C12.4026 5.84832 12.4084 5.82636 12.4195 5.80635C12.4306 5.78633 12.4467 5.76879 12.4667 5.75504L15.4333 3.70713C15.5433 3.63066 15.7066 3.69882 15.7066 3.82182L15.7066 7.91599C15.7066 7.94375 15.6977 7.97096 15.6809 7.9945C15.6641 8.01803 15.64 8.03695 15.6115 8.04909C15.583 8.06123 15.5512 8.0661 15.5196 8.06314C15.4881 8.06017 15.4582 8.04951 15.4333 8.03235Z" fill="currentColor"/>
</svg>
