<svg width="20" height="21" viewBox="0 0 20 21" fill="none" xmlns="http://www.w3.org/2000/svg">
<path d="M8.87992 2.94004C9.37773 2.0778 10.6223 2.0778 11.1201 2.94004L17.2805 13.6103C17.7783 14.4725 17.1561 15.5503 16.1605 15.5503H3.83955C2.84392 15.5503 2.22165 14.4725 2.71947 13.6103L8.87992 2.94004Z" fill="#EFA30E"/>
<path d="M10.4502 5.27273L10.365 11.5455H9.37633L9.2911 5.27273H10.4502ZM9.87065 14.0682C9.66042 14.0682 9.48002 13.9929 9.32946 13.8423C9.17889 13.6918 9.1036 13.5114 9.1036 13.3011C9.1036 13.0909 9.17889 12.9105 9.32946 12.7599C9.48002 12.6094 9.66042 12.5341 9.87065 12.5341C10.0809 12.5341 10.2613 12.6094 10.4118 12.7599C10.5624 12.9105 10.6377 13.0909 10.6377 13.3011C10.6377 13.4403 10.6022 13.5682 10.5312 13.6847C10.463 13.8011 10.3706 13.8949 10.2542 13.9659C10.1405 14.0341 10.0127 14.0682 9.87065 14.0682Z" fill="white"/>
</svg>
