<svg width="42" height="36" viewBox="0 0 42 36" fill="none" xmlns="http://www.w3.org/2000/svg">
<path opacity="0.2" d="M35.1544 24.1236C35.8429 31.8446 29.6974 33.6766 21.9765 34.3651C14.2555 35.0536 7.88281 34.3377 7.19434 26.6168C6.50587 18.8958 12.2068 12.0786 19.9278 11.3901C27.6488 10.7017 34.466 16.4026 35.1544 24.1236Z" fill="#F7F7EE"/>
<path fill-rule="evenodd" clip-rule="evenodd" d="M33.0907 9.05078C31.6624 11.5448 30.0233 12.9977 29.256 13.4978C29.1995 13.5347 29.1965 13.6171 29.2506 13.6575C30.2526 14.4048 32.2475 16.3918 33.3728 19.2249L34.1755 15.6833C34.3074 15.1011 34.3083 14.4969 34.178 13.9143L33.0907 9.05078Z" fill="#E8787D"/>
<path opacity="0.2" fill-rule="evenodd" clip-rule="evenodd" d="M17.0065 11.9125L11.5703 7.09014C11.4119 6.94963 11.1623 7.00587 11.0795 7.20075L8.83434 12.4845C8.60088 13.0339 8.49247 13.6284 8.51696 14.2248L8.69596 18.5855C7.72615 20.5927 7.28794 22.9321 7.51644 25.4946C11.8584 29.6168 15.138 27.5235 17.8485 25.7934C19.0118 25.0508 20.0704 24.3752 21.063 24.2867C22.0776 24.1962 23.2891 25.0453 24.6365 25.9896C27.679 28.1218 31.4144 30.7396 35.1397 24.1238C34.9632 22.1444 34.3839 20.2977 33.4898 18.6575L34.1638 15.6832C34.2958 15.101 34.2966 14.4968 34.1664 13.9142L32.9137 8.3115C32.8675 8.10487 32.6323 8.00442 32.4511 8.11397L25.8153 12.1259C23.9792 11.4793 21.9785 11.2062 19.9131 11.3904C18.9009 11.4806 17.9293 11.6569 17.0065 11.9125Z" fill="#ACB0AF"/>
<path fill-rule="evenodd" clip-rule="evenodd" d="M10.7979 7.89509C11.7517 10.6077 13.1016 12.3341 13.766 12.9649C13.8149 13.0114 13.803 13.093 13.7425 13.1229C12.6214 13.6769 10.2987 15.2714 8.67949 17.856L8.53042 14.2247C8.50594 13.6282 8.61434 13.0338 8.8478 12.4844L10.7979 7.89509Z" fill="#E8787D"/>
<path fill-rule="evenodd" clip-rule="evenodd" d="M22.2694 11.3764C22.2679 11.8284 22.2922 12.3259 22.3404 12.8671C22.686 14.0406 22.7964 15.1157 22.8889 16.0154C23.0689 17.7677 23.1806 18.8547 24.8276 18.7078C27.1975 18.4965 27.0005 14.4162 25.8654 12.0954L25.8154 12.1257C24.6878 11.7285 23.498 11.4723 22.2694 11.3764Z" fill="#7C7575"/>
<path fill-rule="evenodd" clip-rule="evenodd" d="M21.0397 11.4587C20.9927 11.9083 20.9154 12.4003 20.8096 12.9332C20.3406 14.0631 20.1158 15.1202 19.9277 16.0048C19.5612 17.7278 19.3339 18.7966 17.7121 18.4745C15.3783 18.0109 16.0107 13.9746 17.3876 11.7887L17.4339 11.8239C18.5975 11.5499 19.8078 11.4225 21.0397 11.4587Z" fill="#7C7575"/>
<ellipse cx="15.3638" cy="23.3215" rx="2.44805" ry="2.44806" transform="rotate(-5.09553 15.3638 23.3215)" fill="#1E1E1E"/>
<ellipse cx="2.44806" cy="2.44805" rx="2.44806" ry="2.44805" transform="matrix(-0.996048 0.0888164 0.0888165 0.996048 29.1885 20.9419)" fill="#1E1E1E"/>
<circle cx="16.3024" cy="22.8008" r="0.707216" transform="rotate(-5.09552 16.3024 22.8008)" fill="#F7F7EE"/>
<circle cx="0.707216" cy="0.707216" r="0.707216" transform="matrix(-0.996048 0.0888165 0.0888165 0.996048 26.5977 22.4834)" fill="#F7F7EE"/>
<path d="M35.1544 24.1236C35.8429 31.8446 29.6974 33.6766 21.9765 34.3651C14.2555 35.0536 7.88281 34.3377 7.19434 26.6168C6.50587 18.8958 12.2068 12.0786 19.9278 11.3901C27.6488 10.7017 34.466 16.4026 35.1544 24.1236Z" fill="#DFDFDF"/>
<path fill-rule="evenodd" clip-rule="evenodd" d="M17.0099 11.9011L11.5851 7.08897C11.4267 6.94846 11.1772 7.0047 11.0944 7.19958L8.84922 12.4834C8.61576 13.0328 8.50735 13.6272 8.53184 14.2237L8.68871 18.0452C7.53505 20.1005 6.98496 22.548 7.22819 25.2757C11.6053 29.4313 15.0539 27.3789 17.8661 25.7052C19.0408 25.0061 20.1045 24.373 21.0784 24.2862C22.0929 24.1957 23.3045 25.0448 24.6519 25.9891C27.6944 28.1213 31.4298 30.7391 35.1551 24.1233C34.9785 22.1428 34.3986 20.2952 33.5037 18.6542L34.1771 15.6828C34.309 15.1006 34.3099 14.4963 34.1797 13.9138L32.927 8.31109C32.8808 8.10446 32.6456 8.00401 32.4644 8.11356L25.8294 12.125C23.9937 11.4786 21.9934 11.2057 19.9284 11.3899C18.9171 11.48 17.9411 11.6524 17.0099 11.9011Z" fill="#ACB0AF"/>
<path fill-rule="evenodd" clip-rule="evenodd" d="M32.4871 8.71533C31.0588 11.2093 29.4198 12.6623 28.6525 13.1624C28.596 13.1993 28.593 13.2817 28.6471 13.322C29.6491 14.0693 31.6439 16.0563 32.7693 18.8894L33.5719 15.3478C33.7039 14.7656 33.7048 14.1614 33.5745 13.5788L32.4871 8.71533Z" fill="#E8787D"/>
<path fill-rule="evenodd" clip-rule="evenodd" d="M10.7978 7.89506C11.7516 10.6078 13.1016 12.3342 13.7659 12.965C13.8149 13.0115 13.8029 13.0931 13.7424 13.123C12.6214 13.677 10.2987 15.2715 8.67946 17.8561L8.53039 14.2245C8.5059 13.6281 8.61431 13.0336 8.84777 12.4842L10.7978 7.89506Z" fill="#E8787D"/>
<path fill-rule="evenodd" clip-rule="evenodd" d="M22.2694 11.3764C22.2679 11.8284 22.2922 12.3259 22.3404 12.8671C22.686 14.0406 22.7964 15.1157 22.8889 16.0154C23.0689 17.7677 23.1806 18.8547 24.8276 18.7078C27.1975 18.4965 27.0005 14.4162 25.8654 12.0954L25.8154 12.1257C24.6878 11.7285 23.498 11.4723 22.2694 11.3764Z" fill="#7C7575"/>
<path fill-rule="evenodd" clip-rule="evenodd" d="M21.0397 11.4587C20.9927 11.9083 20.9154 12.4003 20.8096 12.9332C20.3406 14.0631 20.1158 15.1202 19.9277 16.0048C19.5612 17.7278 19.3339 18.7966 17.7121 18.4745C15.3783 18.0109 16.0107 13.9746 17.3876 11.7887L17.4339 11.8239C18.5975 11.5499 19.8078 11.4225 21.0397 11.4587Z" fill="#7C7575"/>
<ellipse cx="15.3638" cy="23.3215" rx="2.44805" ry="2.44806" transform="rotate(-5.09553 15.3638 23.3215)" fill="#1E1E1E"/>
<circle cx="2.44806" cy="2.44806" r="2.44806" transform="matrix(1 0 -7.42114e-09 -1 25.0156 25.8203)" fill="#1E1E1E"/>
<ellipse cx="15.6637" cy="22.1265" rx="0.707217" ry="0.707216" transform="rotate(-5.09552 15.6637 22.1265)" fill="#F7F7EE"/>
<circle cx="0.707216" cy="0.707216" r="0.707216" transform="matrix(-0.996048 0.0888165 0.0888165 0.996048 28.165 21.3589)" fill="#F7F7EE"/>
<path d="M20.8011 28.0821C21.051 28.2623 21.3952 28.2316 21.6092 28.01L23.4015 26.1548C23.5211 26.031 23.4228 25.8252 23.2513 25.8405L18.8011 26.2373C18.6297 26.2526 18.5693 26.4725 18.7089 26.5732L20.8011 28.0821Z" fill="#1E1E1E"/>
<path d="M22.7189 28.8696C22.5989 29.4796 22.2108 29.9725 21.7193 30.207C21.4602 30.3307 21.1683 30.3698 20.8832 30.3425C20.5934 30.3147 20.2662 30.2243 20.0301 30.004C19.9492 29.9286 20.0059 29.7769 20.1083 29.8206C20.3579 29.9272 20.5916 30.0483 20.8563 30.0821C21.1237 30.1162 21.3923 30.0789 21.6408 29.9793C22.1113 29.7908 22.475 29.3681 22.6879 28.8557C22.6968 28.8343 22.7236 28.8458 22.7189 28.8696Z" fill="#1D1D1B"/>
<g clip-path="url(#clip0_100_21178)">
<path d="M11.1475 10.2739L1.27844 7.30046C1.00607 7.2171 0.824707 6.99889 0.824707 6.75455C0.824707 6.51021 1.00607 6.292 1.27844 6.20864L20.5483 0.401051C20.7042 0.354598 20.8744 0.354598 21.0304 0.401051L40.3002 6.20864C40.5726 6.292 40.7539 6.51021 40.7539 6.75455C40.7539 6.99889 40.5726 7.2171 40.3002 7.30046L35.8925 8.6304L33.9848 9.20535L30.4311 10.2739H11.1475Z" fill="#637CF2"/>
<path fill-rule="evenodd" clip-rule="evenodd" d="M10.0063 14.8355C10.0363 13.7638 14.5075 12.8968 20.0188 12.8968C25.5487 12.8968 30.0315 13.7696 30.0315 14.8464C30.0315 14.8464 30.0315 14.8465 30.0315 14.8466H30.0316V7.69811C30.0316 6.61935 25.5474 5.74854 20.019 5.74854C14.4906 5.74854 10.0063 6.61935 10.0063 7.69811V14.8355Z" fill="#4F68DE"/>
<path d="M35.0174 10.2552C34.6224 10.2552 34.3022 9.96423 34.3022 9.60532V5.34224C34.3022 4.98333 34.6224 4.69238 35.0174 4.69238C35.4124 4.69238 35.7326 4.98333 35.7326 5.34224V9.60532C35.7326 9.96423 35.4124 10.2552 35.0174 10.2552Z" fill="#EDC100"/>
<path d="M33.6899 10.1781V12.1277C33.6899 12.4866 34.0101 12.7776 34.4051 12.7776H35.8355C36.2305 12.7776 36.5507 12.4866 36.5507 12.1277V10.1781C36.5507 9.46032 35.9103 8.87842 35.1203 8.87842C34.3303 8.87842 33.6899 9.46032 33.6899 10.1781Z" fill="#F1D24B"/>
</g>
<path d="M11.1531 7.03456L17.0373 12.2543L8.34624 20.1736L8.09976 14.1693C8.07528 13.5728 8.18369 12.9784 8.41714 12.4289L10.6623 7.14517C10.7451 6.95029 10.9947 6.89405 11.1531 7.03456Z" fill="#ACB0AF"/>
<path fill-rule="evenodd" clip-rule="evenodd" d="M11.0008 8.22219C11.9546 10.935 13.3047 12.6614 13.969 13.2923C14.018 13.3387 14.006 13.4204 13.9455 13.4503C12.8245 14.0042 10.5018 15.5987 8.88257 18.1834L8.73348 14.5516C8.709 13.9551 8.8174 13.3607 9.05086 12.8112L11.0008 8.22219Z" fill="#E8787D"/>
<defs>
<clipPath id="clip0_100_21178">
<rect width="42" height="15" fill="white" transform="translate(0 0.5)"/>
</clipPath>
</defs>
</svg>
