<svg width="47" height="49" viewBox="0 0 47 49" fill="none" xmlns="http://www.w3.org/2000/svg">
<path d="M16.6156 45.2215C16.3722 46.0301 15.5173 46.4927 14.7255 46.1996C13.7483 45.8378 12.7952 45.4144 11.8717 44.9319C11.1233 44.5408 10.8935 43.5963 11.3303 42.8736C11.7671 42.151 12.7048 41.9245 13.4566 42.3089C14.1562 42.6667 14.8748 42.9859 15.6093 43.2652C16.3986 43.5653 16.8591 44.413 16.6156 45.2215Z" fill="#4F6EFD"/>
<circle cx="23.2722" cy="23.883" r="18.8718" fill="#4F6EFD"/>
<path fill-rule="evenodd" clip-rule="evenodd" d="M21.5392 3.96174C19.2465 4.1793 16.6822 4.91031 14.6976 5.91217C11.4933 7.52965 8.69935 10.1106 6.83445 13.1758C6.16992 14.268 5.84859 14.9175 5.35216 16.1718C3.14923 21.7373 3.74543 28.1329 6.96587 33.4848C9.18451 37.1718 12.7032 40.1758 16.539 41.6576C17.2411 41.9289 17.6365 42.0587 18.6258 42.3428C18.7497 42.3784 18.7574 42.193 18.7574 39.1907V36.0008L18.4379 36.0626C17.1114 36.3192 15.4634 35.8171 14.5001 34.8629C14.2511 34.6161 13.8807 34.1662 13.6772 33.863C13.4736 33.5599 13.1547 33.1462 12.9686 32.9437C12.6262 32.5714 12.0193 32.2239 11.7091 32.2226C11.6161 32.2221 11.5383 32.1796 11.5364 32.1278C11.5346 32.0762 11.4907 31.5688 11.4389 31.0002L11.3446 29.9665H11.6896C12.1389 29.9665 12.7963 30.1405 13.2892 30.3899C14.1472 30.8239 14.7751 31.4408 15.5835 32.644C15.9266 33.1548 16.219 33.4275 16.6812 33.6681C17.0539 33.8621 17.9233 33.8948 18.4719 33.7353C18.8167 33.6351 18.8276 33.6228 18.9067 33.2418C19.0145 32.7229 19.3408 32.047 19.7649 31.4642C19.9551 31.2028 20.1107 30.9668 20.1107 30.9398C20.1107 30.9128 19.7978 30.8322 19.4153 30.7606C18.5975 30.6076 17.1098 30.1226 16.4667 29.7994C14.8115 28.9675 13.5991 27.8069 12.7886 26.2789C11.7039 24.2339 11.5568 21.7175 12.3845 19.3668C12.6791 18.5299 12.8976 18.1033 13.4022 17.3798L13.8179 16.7835L13.6894 16.2521C13.399 15.0507 13.4576 13.578 13.8444 12.3535C14.0233 11.7871 14.0384 11.7658 14.2325 11.8037C14.3435 11.8254 14.6374 11.8659 14.8855 11.8936C15.7048 11.9851 16.5976 12.363 18.0966 13.2527C19.0338 13.809 18.9277 13.7964 20.2611 13.509C22.3639 13.056 24.7269 13.1139 27.0763 13.6762L27.5386 13.7869L28.2416 13.3721C29.93 12.3758 30.9558 11.9693 32.156 11.8213L32.5104 11.7777L32.6944 12.3603C33.0779 13.5739 33.1368 15.0468 32.8499 16.247L32.7241 16.7732L33.153 17.4498C34.326 19.3006 34.7181 20.525 34.7181 22.3362C34.7181 25.5924 33.0222 28.3155 30.07 29.7994C29.4269 30.1226 27.9392 30.6076 27.1215 30.7606C26.739 30.8322 26.426 30.9119 26.426 30.9377C26.426 30.9635 26.5997 31.2207 26.812 31.5092C27.0243 31.7978 27.2792 32.2086 27.3784 32.4222C27.7572 33.237 27.7766 33.5129 27.778 38.1093C27.7792 42.1412 27.7867 42.3786 27.9109 42.3428C28.9002 42.0587 29.2957 41.9289 29.9977 41.6576C34.3696 39.9687 38.1664 36.4422 40.3521 32.0403C42.8925 26.9245 43.194 21.2457 41.1934 16.1936C40.688 14.9172 40.369 14.2716 39.7023 13.1758C38.099 10.5407 35.8544 8.29629 33.2191 6.69317C32.1259 6.02825 31.4775 5.70755 30.2165 5.20831C27.5193 4.14051 24.3913 3.69111 21.5392 3.96174Z" fill="#DCE2FF"/>
<path d="M10.9637 27.731L19.0406 31.5771L18.656 38.5002L10.5791 36.1925L10.9637 27.731Z" fill="#DCE2FF"/>
<path d="M14.0409 44.2692L14.2909 44.4132C16.2495 45.5419 18.5831 43.7031 17.9437 41.5348V41.5348C17.6796 40.6391 18.0121 39.6744 18.772 39.1317L22.8871 36.1923" stroke="#4F6EFD" stroke-width="3"/>
<ellipse cx="23.2713" cy="19.654" rx="13.0769" ry="11.9231" fill="#DCE2FF"/>
<path opacity="0.2" d="M32.7184 24.8425C33.1883 30.113 28.999 31.3631 23.7355 31.8324C18.472 32.3017 14.1275 31.8126 13.6576 26.5421C13.1876 21.2716 17.0735 16.6185 22.337 16.1492C27.6005 15.6799 32.2484 19.572 32.7184 24.8425Z" fill="#4F6EFD"/>
<path fill-rule="evenodd" clip-rule="evenodd" d="M31.3118 14.5488C30.3634 16.2077 29.2785 17.1922 28.7391 17.558C28.6812 17.5973 28.6779 17.6833 28.7335 17.7258C29.4288 18.2583 30.7518 19.6002 31.504 21.4977L31.9809 19.3903C32.1175 18.7871 32.1184 18.1611 31.9836 17.5576L31.3118 14.5488Z" fill="#4F6EFD"/>
<path opacity="0.2" fill-rule="evenodd" clip-rule="evenodd" d="M20.3578 16.4965L16.7658 13.3058C16.6015 13.1599 16.3426 13.2182 16.2568 13.4204L14.9113 16.5913C14.6697 17.1606 14.5575 17.7766 14.5828 18.3947L14.6917 21.0502C14.0303 22.4205 13.7315 24.0178 13.8875 25.7676C16.8478 28.5818 19.0835 27.1531 20.9311 25.9724C21.7242 25.4656 22.4457 25.0045 23.1224 24.9441C23.814 24.8825 24.64 25.4621 25.5587 26.1068C27.633 27.5625 30.1797 29.3498 32.7188 24.8341C32.5982 23.4821 32.2027 22.2208 31.5925 21.1005L31.9813 19.3826C32.1178 18.7794 32.1187 18.1535 31.9839 17.5499L31.2332 14.1874C31.1853 13.973 30.9411 13.8688 30.7532 13.9826L26.3592 16.6427C25.108 16.2016 23.7447 16.0153 22.3374 16.1408C21.6481 16.2023 20.9864 16.3224 20.3578 16.4965Z" fill="#4F6EFD"/>
<path fill-rule="evenodd" clip-rule="evenodd" d="M16.1147 13.7669C16.7479 15.5702 17.6372 16.7351 18.1016 17.1926C18.1515 17.2417 18.1392 17.3269 18.0769 17.3587C17.2967 17.7565 15.753 18.8368 14.6705 20.5672L14.582 18.4083C14.5567 17.7902 14.6688 17.1743 14.9104 16.605L16.1147 13.7669Z" fill="#4F6EFD"/>
<path fill-rule="evenodd" clip-rule="evenodd" d="M23.9423 16.1354C23.9413 16.4444 23.9579 16.7845 23.9908 17.1545C24.2263 17.9555 24.3016 18.6894 24.3647 19.3035C24.4874 20.4998 24.5636 21.2417 25.6863 21.1415C27.3026 20.9972 27.1675 18.2094 26.3928 16.6256L26.3572 16.6471C25.5893 16.3762 24.7791 16.2012 23.9423 16.1354Z" fill="#4F6EFD"/>
<path fill-rule="evenodd" clip-rule="evenodd" d="M23.0975 16.1689C23.0656 16.4786 23.0126 16.8178 22.9396 17.1857C22.6199 17.9569 22.4666 18.6785 22.3384 19.2824C22.0886 20.4586 21.9337 21.1882 20.828 20.9683C19.2347 20.6514 19.6694 17.8885 20.6109 16.3978L20.6376 16.4182C21.4314 16.2309 22.2571 16.144 23.0975 16.1689Z" fill="#4F6EFD"/>
<ellipse cx="1.66887" cy="1.67109" rx="1.66887" ry="1.67109" transform="matrix(0.996037 -0.0889355 0.0886976 0.996059 17.416 22.7744)" fill="#4F6EFD"/>
<ellipse cx="1.66887" cy="1.67109" rx="1.66887" ry="1.67109" transform="matrix(-0.996037 0.0889355 0.0886976 0.996059 28.6494 22.6675)" fill="#4F6EFD"/>
<ellipse cx="0.482119" cy="0.48276" rx="0.482119" ry="0.48276" transform="matrix(0.996037 -0.0889355 0.0886976 0.996059 19.3418 23.4985)" fill="#4F6EFD"/>
<ellipse cx="0.482119" cy="0.48276" rx="0.482119" ry="0.48276" transform="matrix(-0.996037 0.0889355 0.0886976 0.996059 26.8838 23.7207)" fill="#4F6EFD"/>
<path d="M32.7184 24.8425C33.1883 30.113 28.999 31.3631 23.7355 31.8324C18.472 32.3017 14.1275 31.8126 13.6576 26.5421C13.1876 21.2716 17.0735 16.6185 22.337 16.1492C27.6005 15.6799 32.2484 19.572 32.7184 24.8425Z" fill="#4F6EFD"/>
<path fill-rule="evenodd" clip-rule="evenodd" d="M20.3494 16.4999L16.7658 13.3167C16.6015 13.1708 16.3426 13.229 16.2568 13.4312L14.9112 16.6022C14.6696 17.1715 14.5575 17.7874 14.5828 18.4055L14.6766 20.6945C13.8908 22.0971 13.5163 23.7673 13.6822 25.6287C16.6665 28.4657 19.0174 27.065 20.9344 25.9227C21.7351 25.4456 22.4602 25.0136 23.1241 24.9544C23.8158 24.8927 24.6418 25.4724 25.5604 26.1171L25.5604 26.1171C27.6347 27.5728 30.1814 29.36 32.7205 24.8443C32.5999 23.4915 32.204 22.2295 31.593 21.1087L31.9816 19.392C32.1181 18.7888 32.119 18.1628 31.9843 17.5593L31.2335 14.1968C31.1856 13.9823 30.9415 13.8782 30.7535 13.992L26.3591 16.6523C25.1084 16.2117 23.7458 16.0257 22.3392 16.1511C21.6497 16.2126 20.9842 16.3301 20.3494 16.4999Z" fill="#4F6EFD"/>
<path fill-rule="evenodd" clip-rule="evenodd" d="M31.3118 14.5488C30.3634 16.2077 29.2785 17.1922 28.7391 17.558C28.6812 17.5973 28.6779 17.6833 28.7335 17.7258C29.4288 18.2583 30.7518 19.6002 31.504 21.4977L31.9809 19.3903C32.1175 18.7871 32.1184 18.1611 31.9836 17.5576L31.3118 14.5488Z" fill="#4F6EFD"/>
<path fill-rule="evenodd" clip-rule="evenodd" d="M16.1147 13.7669C16.7479 15.5702 17.6372 16.7351 18.1016 17.1926C18.1515 17.2417 18.1392 17.3269 18.0769 17.3587C17.2967 17.7565 15.753 18.8368 14.6705 20.5672L14.582 18.4083C14.5567 17.7902 14.6688 17.1743 14.9104 16.605L16.1147 13.7669Z" fill="#4F6EFD"/>
<path fill-rule="evenodd" clip-rule="evenodd" d="M23.9423 16.1354C23.9413 16.4444 23.9579 16.7845 23.9908 17.1545C24.2263 17.9555 24.3016 18.6894 24.3647 19.3035C24.4874 20.4998 24.5636 21.2417 25.6863 21.1415C27.3026 20.9972 27.1675 18.2094 26.3928 16.6256L26.3572 16.6471C25.5893 16.3762 24.7791 16.2012 23.9423 16.1354Z" fill="#4F6EFD"/>
<path fill-rule="evenodd" clip-rule="evenodd" d="M23.0975 16.1689C23.0656 16.4786 23.0126 16.8178 22.9396 17.1857C22.6199 17.9569 22.4666 18.6785 22.3384 19.2824C22.0886 20.4586 21.9337 21.1882 20.828 20.9683C19.2347 20.6514 19.6694 17.8885 20.6109 16.3978L20.6376 16.4182C21.4314 16.2309 22.2571 16.144 23.0975 16.1689Z" fill="#4F6EFD"/>
<ellipse cx="1.66887" cy="1.67109" rx="1.66887" ry="1.67109" transform="matrix(0.996037 -0.0889355 0.0886976 0.996059 17.416 22.7744)" fill="#4F6EFD"/>
<ellipse cx="1.66886" cy="1.67111" rx="1.66886" ry="1.67111" transform="matrix(1 -2.12726e-09 -2.12726e-09 -1 25.8047 25.9985)" fill="#4F6EFD"/>
<ellipse cx="0.482119" cy="0.48276" rx="0.482119" ry="0.48276" transform="matrix(0.996037 -0.0889355 0.0886976 0.996059 18.9062 23.0386)" fill="#4F6EFD"/>
<ellipse cx="0.482119" cy="0.48276" rx="0.482119" ry="0.48276" transform="matrix(-0.996037 0.0889355 0.0886976 0.996059 27.9521 22.9517)" fill="#4F6EFD"/>
<path d="M22.7777 27.4295C23.0369 27.6167 23.3944 27.5847 23.6165 27.3546L24.5828 26.3529C24.7068 26.2244 24.6048 26.0111 24.427 26.027L21.7453 26.2664C21.5676 26.2823 21.5049 26.5103 21.6495 26.6148L22.7777 27.4295Z" fill="#4F6EFD"/>
<path fill-rule="evenodd" clip-rule="evenodd" d="M20.3825 16.5278L16.764 13.3136C16.5996 13.1677 16.3407 13.2259 16.2549 13.4282L14.9094 16.5991C14.6678 17.1684 14.5556 17.7844 14.5809 18.4025L14.6982 21.2634C13.8803 22.8325 13.4867 24.6467 13.6556 26.5407C14.1255 31.8112 18.47 32.3003 23.7335 31.831C28.997 31.3617 33.1863 30.1116 32.7164 24.8411C32.5958 23.4888 32.2002 22.2273 31.5897 21.1069L31.9786 19.3889C32.1151 18.7857 32.116 18.1598 31.9812 17.5562L31.2305 14.1937C31.1826 13.9793 30.9384 13.8751 30.7505 13.9889L26.3559 16.6494C25.105 16.2085 23.742 16.0224 22.335 16.1478C21.6594 16.2081 21.0064 16.3373 20.3825 16.5278Z" fill="#4F6EFD"/>
<path d="M24.2394 28.0785C24.1576 28.495 23.893 28.8314 23.558 28.9915C23.3813 29.0759 23.1824 29.1027 22.988 29.084C22.7905 29.065 22.5674 29.0033 22.4064 28.853C22.3513 28.8015 22.39 28.6979 22.4597 28.7277C22.6299 28.8005 22.7892 28.8831 22.9697 28.9062C23.152 28.9295 23.3351 28.904 23.5044 28.8361C23.8252 28.7074 24.0732 28.4188 24.2183 28.0691C24.2243 28.0545 24.2426 28.0623 24.2394 28.0785Z" fill="#4F6EFD"/>
<path d="M16.472 13.2746L20.3686 16.7358L14.4438 22.1418L14.289 18.3634C14.2636 17.7453 14.3758 17.1294 14.6174 16.56L15.9629 13.3891C16.0488 13.1869 16.3077 13.1286 16.472 13.2746Z" fill="#4F6EFD"/>
<path fill-rule="evenodd" clip-rule="evenodd" d="M16.251 13.9841C16.8842 15.7879 17.7737 16.953 18.2382 17.4106C18.288 17.4597 18.2757 17.5449 18.2134 17.5766C17.4333 17.9745 15.8896 19.0548 14.8071 20.7851L14.7185 18.6248C14.6932 18.0067 14.8054 17.3908 15.047 16.8215L16.251 13.9841Z" fill="#4F6EFD"/>
</svg>
