<svg width="42" height="43" viewBox="0 0 42 43" fill="none" xmlns="http://www.w3.org/2000/svg">
<path d="M22.456 38.6518C27.9265 37.5563 35 33.6206 35 23.4443C35 14.1851 28.2222 8.01806 23.3468 5.18481C22.267 4.55481 21 5.38256 21 6.63381V9.83281C21 12.3563 19.9395 16.9623 16.9925 18.8786C15.4875 19.8568 13.86 18.3921 13.678 16.6071L13.5275 15.1406C13.3525 13.4361 11.6165 12.4018 10.255 13.4413C7.80675 15.3051 5.25 18.5776 5.25 23.4426C5.25 35.8868 14.5057 39.0001 19.1328 39.0001C19.4023 39.0001 19.6858 38.9896 19.9798 38.9738C20.7603 38.8758 19.9798 39.1471 22.456 38.6501V38.6518Z" fill="#EFA30E"/>
<path opacity="0.5" d="M14 32.777C14 37.362 17.6942 38.7795 19.9797 38.9755C20.7602 38.8775 19.9797 39.1488 22.456 38.6518C24.2743 38.0095 26.25 36.361 26.25 32.777C26.25 30.5073 24.8167 29.1055 23.695 28.4493C23.352 28.248 22.953 28.5018 22.9233 28.8973C22.8252 30.1538 21.6177 31.1548 20.797 30.1993C20.0707 29.3558 19.7645 28.122 19.7645 27.3328V26.3003C19.7645 25.6808 19.1397 25.2678 18.6042 25.5863C16.6162 26.764 14 29.1895 14 32.777Z" fill="white"/>
</svg>
